<svg height="510pt" viewBox="0 -18 510.248 510" width="510pt" xmlns="http://www.w3.org/2000/svg"><path d="m507.082031 124.964844c-10.640625-8.210938-22.328125-15.941406-34.773437-23.027344v-15.453125c0-3.34375-2.214844-6.28125-5.429688-7.203125l-79.039062-22.679688c-2.261719-.648437-4.699219-.199218-6.578125 1.21875-1.878907 1.414063-2.984375 3.632813-2.984375 5.984376v.613281c-25.296875-6.597657-51.550782-11.085938-78.492188-13.417969l6.179688-42.304688c.316406-2.152343-.320313-4.339843-1.746094-5.984374-1.421875-1.648438-3.492188-2.59375-5.671875-2.59375h-66.875c-2.171875 0-4.238281.941406-5.664063 2.585937-1.425781 1.640625-2.0625 3.820313-1.757812 5.972656l5.886719 41.070313c-10.746094.53125-21.433594 1.390625-31.964844 2.589844-4.113281.46875-7.066406 4.183593-6.601563 8.296874.472657 4.113282 4.195313 7.066407 8.300782 6.597657 18.273437-2.082031 37.027344-3.140625 55.742187-3.140625 42.613281 0 83.84375 5.335937 122.664063 15.84375v63.9375c-40.058594-6.660156-80.273438-9.902344-122.664063-9.902344-43.148437 0-84.9375 3.261719-124.355469 9.691406v-63.277344c10.972657-3.003906 23.578126-5.96875 34.566407-8.113281 4.0625-.792969 6.710937-4.730469 5.917969-8.792969-.792969-4.0625-4.726563-6.710937-8.792969-5.921874-10.03125 1.957031-21.363281 4.582031-31.691407 7.304687v-1.050781c0-2.355469-1.105468-4.570313-2.984374-5.988282-1.882813-1.417968-4.320313-1.867187-6.578126-1.21875l-79.039062 22.679688c-3.214844.921875-5.429688 3.859375-5.429688 7.207031v16.414063c-12.296874 7.097656-23.839843 14.832031-34.34375 23.03125-1.820312 1.421875-2.882812 3.601562-2.882812 5.910156v260.28125c0 2.308594 1.0625 4.488281 2.882812 5.90625 10.503907 8.203125 22.046876 15.933594 34.34375 23.035156v18.246094c0 3.34375 2.214844 6.285156 5.429688 7.203125l79.039062 22.679687c.679688.195313 1.375.292969 2.066407.292969 1.605469 0 3.195312-.519531 4.511719-1.511719 1.878906-1.414062 2.984374-3.632812 2.984374-5.984374v-2.882813c39.4375 10.453125 81.21875 15.757813 124.355469 15.757813 42.511719 0 83.71875-5.15625 122.664063-15.320313v2.445313c0 2.351562 1.105468 4.570312 2.984375 5.984374 1.3125.992188 2.902343 1.511719 4.511719 1.511719.691406 0 1.386718-.097656 2.066406-.292969l79.039062-22.679687c3.214844-.917969 5.429688-3.859375 5.429688-7.203125v-17.28125c12.445312-7.089844 24.132812-14.820312 34.773437-23.027344 1.839844-1.421875 2.917969-3.613281 2.917969-5.9375v-262.164062c0-2.328125-1.078125-4.519532-2.917969-5.9375zm-261.875-75.746094-4.886719-34.109375h49.558594l-5.089844 34.828125c-9.652343-.546875-19.375-.835938-29.175781-.835938-3.46875 0-6.9375.046876-10.40625.117188zm249.800781 175.359375c-7.1875-1.113281-14.78125-2.179687-22.699218-3.183594v-39.253906c8.71875 3.273437 16.34375 6.597656 22.699218 9.523437zm0 59.636719c-7.15625 1.132812-14.757812 2.214844-22.699218 3.242187v-50.949219c7.945312 1.027344 15.542968 2.113282 22.699218 3.246094zm-22.699218 18.359375c7.917968-1.007813 15.511718-2.074219 22.699218-3.1875v42.964843c-7.132812 3.222657-14.730468 6.308594-22.699218 9.234376zm22.699218-167.957031v40.605468c-6.582031-2.898437-14.179687-6.019531-22.699218-9.039062v-46.851563c7.976562 4.839844 15.574218 9.949219 22.699218 15.285157zm-363.75 93.554687c39.347657-2.324219 81.140626-3.503906 124.355469-3.503906 42.578125 0 83.800781 1.144531 122.664063 3.40625v67.816406c-38.863282 2.261719-80.085938 3.410156-122.664063 3.410156-43.210937 0-85.007812-1.179687-124.355469-3.507812zm124.355469-79.207031c42.425781 0 82.609375 3.320312 122.664063 10.121094v53.972656c-38.894532-2.246094-80.117188-3.386719-122.664063-3.386719-43.1875 0-84.972656 1.171875-124.355469 3.484375v-54.289062c39.328126-6.566407 81.128907-9.902344 124.355469-9.902344zm-240.621093 90.980468c7.015624-1.121093 14.453124-2.199218 22.234374-3.21875v50.511719c-7.789062-1.019531-15.226562-2.097656-22.234374-3.21875zm22.234374-18.335937c-7.753906 1-15.191406 2.054687-22.234374 3.15625v-32.527344c6.984374-3.195312 14.429687-6.257812 22.234374-9.164062zm-22.234374 77.589844c7.035156 1.101562 14.476562 2.15625 22.234374 3.15625v48.613281c-7.800781-2.90625-15.246093-5.972656-22.234374-9.167969zm22.234374-178.84375v46.753906c-7.75 2.765625-15.175781 5.6875-22.234374 8.734375v-40.308594c6.976562-5.289062 14.421874-10.363281 22.234374-15.179687zm-22.234374 268.078125v-30.238282c7.0625 3.046876 14.5 5.96875 22.234374 8.726563v36.6875c-7.8125-4.816406-15.257812-9.886719-22.234374-15.175781zm37.226562 45.230468v-341.53125l64.046875-18.375v145.511719c-.191406.746094-.277344 1.53125-.226563 2.339844.03125.480469.109376.949219.226563 1.398437v229.03125zm203.394531 26.210938c-43.246093 0-85.050781-5.496094-124.355469-16.304688v-53.203124c39.429688 6.429687 81.234376 9.699218 124.355469 9.699218 10.75 0 29.488281-.558594 39.464844-.933594 4.136719-.15625 7.363281-3.636718 7.207031-7.773437s-3.636718-7.382813-7.773437-7.207031c-9.859375.371094-28.355469.921875-38.898438.921875-43.199219 0-85.015625-3.335938-124.355469-9.902344v-64.359375c39.382813 2.308594 81.175782 3.480469 124.355469 3.480469 42.546875 0 83.769531-1.136719 122.664063-3.382813v64.546875c-16.855469 2.765625-34.375 4.964844-52.183594 6.542969-4.125.367188-7.171875 4.007812-6.804688 8.128906.34375 3.902344 3.617188 6.835938 7.457032 6.835938.222656 0 .445312-.007813.671875-.03125 17.324219-1.535156 34.386719-3.652344 50.859375-6.292969v53.390625c-38.816406 10.503906-80.046875 15.84375-122.664063 15.84375zm137.65625-7.835938v-378.28125l64.046875 18.375v13.636719c-.027344.371094-.03125.742188 0 1.109375v310.820313.011719 15.953124zm79.039063-47.402343v-37.113281c7.910156-2.785157 15.492187-5.730469 22.699218-8.808594v30.632812c-7.125 5.335938-14.722656 10.445313-22.699218 15.289063zm0 0"/><path d="m84.242188 361.351562c-13.382813 0-24.269532 10.890626-24.269532 24.273438s10.886719 24.269531 24.269532 24.269531c13.382812 0 24.269531-10.886719 24.269531-24.269531s-10.886719-24.273438-24.269531-24.273438zm0 33.550782c-5.117188 0-9.277344-4.160156-9.277344-9.277344s4.160156-9.28125 9.277344-9.28125c5.117187 0 9.277343 4.164062 9.277343 9.28125s-4.160156 9.277344-9.277343 9.277344zm0 0"/><path d="m84.242188 282.527344c-13.382813 0-24.269532 10.886718-24.269532 24.269531s10.886719 24.273437 24.269532 24.273437c13.382812 0 24.269531-10.890624 24.269531-24.273437s-10.886719-24.269531-24.269531-24.269531zm0 33.546875c-5.117188 0-9.277344-4.160157-9.277344-9.277344 0-5.113281 4.160156-9.277344 9.277344-9.277344 5.117187 0 9.277343 4.164063 9.277343 9.277344 0 5.117187-4.160156 9.277344-9.277343 9.277344zm0 0"/><path d="m425.292969 282.527344c-13.382813 0-24.273438 10.886718-24.273438 24.269531s10.890625 24.273437 24.273438 24.273437c13.382812 0 24.269531-10.890624 24.269531-24.273437s-10.886719-24.269531-24.269531-24.269531zm0 33.546875c-5.117188 0-9.277344-4.160157-9.277344-9.277344 0-5.113281 4.160156-9.277344 9.277344-9.277344 5.113281 0 9.277343 4.164063 9.277343 9.277344 0 5.117187-4.164062 9.277344-9.277343 9.277344zm0 0"/><path d="m425.292969 357.40625c-13.382813 0-24.273438 10.886719-24.273438 24.269531 0 13.382813 10.890625 24.269531 24.273438 24.269531 13.382812 0 24.269531-10.886718 24.269531-24.269531 0-13.382812-10.886719-24.269531-24.269531-24.269531zm0 33.546875c-5.117188 0-9.277344-4.160156-9.277344-9.277344 0-5.117187 4.160156-9.277343 9.277344-9.277343 5.113281 0 9.277343 4.160156 9.277343 9.277343 0 5.117188-4.164062 9.277344-9.277343 9.277344zm0 0"/><path d="m425.292969 203.699219c-13.382813 0-24.273438 10.886719-24.273438 24.269531s10.890625 24.273438 24.273438 24.273438c13.382812 0 24.269531-10.890626 24.269531-24.273438s-10.886719-24.269531-24.269531-24.269531zm0 33.550781c-5.117188 0-9.277344-4.164062-9.277344-9.28125 0-5.113281 4.160156-9.277344 9.277344-9.277344 5.113281 0 9.277343 4.164063 9.277343 9.277344 0 5.117188-4.164062 9.28125-9.277343 9.28125zm0 0"/><path d="m425.292969 124.871094c-13.382813 0-24.273438 10.890625-24.273438 24.273437 0 13.382813 10.890625 24.269531 24.273438 24.269531 13.382812 0 24.269531-10.886718 24.269531-24.269531 0-13.382812-10.886719-24.273437-24.269531-24.273437zm0 33.550781c-5.117188 0-9.277344-4.160156-9.277344-9.277344 0-5.117187 4.160156-9.277343 9.277344-9.277343 5.113281 0 9.277343 4.160156 9.277343 9.277343 0 5.117188-4.164062 9.277344-9.277343 9.277344zm0 0"/><path d="m84.242188 203.699219c-13.382813 0-24.269532 10.886719-24.269532 24.269531s10.886719 24.273438 24.269532 24.273438c13.382812 0 24.269531-10.890626 24.269531-24.273438s-10.886719-24.269531-24.269531-24.269531zm0 33.550781c-5.117188 0-9.277344-4.164062-9.277344-9.28125 0-5.113281 4.160156-9.277344 9.277344-9.277344 5.117187 0 9.277343 4.164063 9.277343 9.277344 0 5.117188-4.160156 9.28125-9.277343 9.28125zm0 0"/><path d="m84.242188 124.871094c-13.382813 0-24.269532 10.890625-24.269532 24.273437 0 13.382813 10.886719 24.269531 24.269532 24.269531 13.382812 0 24.269531-10.886718 24.269531-24.269531 0-13.382812-10.886719-24.273437-24.269531-24.273437zm0 33.550781c-5.117188 0-9.277344-4.160156-9.277344-9.277344 0-5.117187 4.160156-9.277343 9.277344-9.277343 5.117187 0 9.277343 4.160156 9.277343 9.277343 0 5.117188-4.160156 9.277344-9.277343 9.277344zm0 0"/></svg>