<?xml version="1.0" encoding="iso-8859-1"?>
<!-- Generator: Adobe Illustrator 19.0.0, SVG Export Plug-In . SVG Version: 6.00 Build 0)  -->
<svg version="1.1" id="Capa_1" xmlns="http://www.w3.org/2000/svg" xmlns:xlink="http://www.w3.org/1999/xlink" x="0px" y="0px"
	 viewBox="0 0 470 470" style="enable-background:new 0 0 470 470;" xml:space="preserve">
<g>
	<path d="M220,369.523c-4.135,0-7.5,3.365-7.5,7.5s3.365,7.5,7.5,7.5s7.5-3.365,7.5-7.5S224.135,369.523,220,369.523z"/>
	<path d="M250,390.523c-4.135,0-7.5,3.365-7.5,7.5s3.365,7.5,7.5,7.5s7.5-3.365,7.5-7.5S254.135,390.523,250,390.523z"/>
	<path d="M250,290.523c-4.135,0-7.5,3.365-7.5,7.5s3.365,7.5,7.5,7.5s7.5-3.365,7.5-7.5S254.135,290.523,250,290.523z"/>
	<path d="M267.814,231.644c-2.794,2.234-4.196,3.356-7.816,3.356s-5.022-1.122-7.816-3.356c-3.504-2.804-8.305-6.644-17.186-6.644
		s-13.68,3.84-17.185,6.644c-2.793,2.234-4.195,3.356-7.813,3.356s-5.021-1.122-7.813-3.356C198.68,228.84,193.88,225,185,225
		c-4.142,0-7.5,3.357-7.5,7.5l-0.012,199.987c0,2.402,1.151,4.66,3.096,6.07c0.502,0.364,1.041,0.661,1.604,0.888
		c0.914,0.381,1.896,0.578,2.888,0.578c0.002,0,99.901-0.023,99.901-0.023c3.168-0.001,5.906-1.974,6.996-4.797
		c0.354-0.886,0.538-1.833,0.538-2.791L292.5,232.5c0-4.143-3.358-7.5-7.5-7.5C276.119,225,271.319,228.84,267.814,231.644z
		 M192.489,425.021l0.011-181.916c0.103,0.082,0.207,0.165,0.313,0.251c3.504,2.804,8.304,6.644,17.185,6.644
		c8.88,0,13.68-3.84,17.185-6.644c2.793-2.234,4.195-3.356,7.814-3.356c3.62,0,5.022,1.122,7.816,3.356
		c3.505,2.804,8.305,6.644,17.186,6.644s13.682-3.84,17.186-6.644c0.108-0.086,0.213-0.17,0.317-0.253l0.011,181.898
		L192.489,425.021z"/>
	<path d="M279.123,159.864l-8.867-109.513l7.548-7.548c2.009-2.009,2.71-4.98,1.812-7.676l-10-30C268.595,2.065,265.729,0,262.5,0
		h-55c-3.228,0-6.094,2.065-7.115,5.128l-10,30c-0.898,2.695-0.197,5.667,1.812,7.676c0,0,4.589,4.589,7.548,7.547l-8.868,109.514
		c-26.49,14.308-43.377,42.35-43.377,72.636v200c0,20.678,16.822,37.5,37.5,37.5h100c20.678,0,37.5-16.822,37.5-37.5v-200
		C322.5,202.214,305.613,174.172,279.123,159.864z M307.5,432.5c0,12.406-10.094,22.5-22.5,22.5H185
		c-12.407,0-22.5-10.094-22.5-22.5v-200c0-25.985,15.197-49.954,38.717-61.063c2.426-1.146,4.056-3.501,4.272-6.176L214.417,55
		H232.5c4.143,0,7.5-3.357,7.5-7.5s-3.357-7.5-7.5-7.5h-21.893l-4.526-4.525L212.906,15h44.189l6.824,20.475l-6.723,6.722
		c-1.556,1.556-2.35,3.716-2.172,5.909l9.486,117.156c0.217,2.675,1.846,5.03,4.272,6.176c23.52,11.108,38.717,35.077,38.717,61.063
		V432.5z"/>
</g>
</svg>
