<?xml version="1.0" encoding="iso-8859-1"?>
<!-- Generator: Adobe Illustrator 19.0.0, SVG Export Plug-In . SVG Version: 6.00 Build 0)  -->
<svg version="1.1" id="Capa_1" xmlns="http://www.w3.org/2000/svg" xmlns:xlink="http://www.w3.org/1999/xlink" x="0px" y="0px"
	 viewBox="0 0 512 512" style="enable-background:new 0 0 512 512;" xml:space="preserve">
<g>
	<g>
		<path d="M421.001,152.574V105c0-24.813-20.187-45-45-45h-75V30h15c8.284,0,15-6.716,15-15s-6.716-15-15-15
			c-15.128,0-104.89,0-120,0c-8.284,0-15,6.716-15,15s6.716,15,15,15h15v30h-75c-24.813,0-45,20.187-45,45v47.574
			c0,12.02,4.681,23.32,13.181,31.819L114.787,195l-10.607,10.607c-8.5,8.5-13.181,19.8-13.181,31.819v127.147
			c0,12.02,4.681,23.32,13.181,31.819L114.787,407l-10.607,10.607c-8.499,8.499-13.18,19.8-13.18,31.819V467
			c0,24.813,20.187,45,45,45h240c24.813,0,45-20.187,45-45v-17.574c0-12.02-4.681-23.32-13.181-31.819L397.213,407l10.607-10.607
			c8.5-8.5,13.181-19.8,13.181-31.819V237.426c0-12.02-4.681-23.32-13.181-31.819L397.213,195l10.607-10.607
			C416.32,175.893,421.001,164.593,421.001,152.574z M241,30h30v30h-30V30z M391,467c0,8.271-6.729,15-15,15H136
			c-8.271,0-15-6.729-15-15v-17.574c0-4.006,1.561-7.773,4.394-10.606L142.213,422h227.574l16.819,16.82
			c2.833,2.833,4.394,6.6,4.394,10.606V467z M391,364.573c0,4.006-1.561,7.773-4.394,10.606L369.787,392H142.213l-16.819-16.82
			c-2.833-2.833-4.394-6.6-4.394-10.606V237.426c0-4.006,1.561-7.773,4.394-10.606L142.213,210h227.574l16.819,16.82
			c2.833,2.833,4.394,6.6,4.394,10.606V364.573z M391,152.574c0,4.006-1.561,7.773-4.394,10.606L369.787,180H142.213l-16.819-16.82
			c-2.833-2.833-4.394-6.6-4.394-10.606V105c0-8.271,6.729-15,15-15c6.926,0,233.074,0,240,0c8.271,0,15,6.729,15,15V152.574z"/>
	</g>
</g>
<g>
	<g>
		<path d="M286,120h-60c-8.284,0-15,6.716-15,15s6.716,15,15,15h60c8.284,0,15-6.716,15-15S294.284,120,286,120z"/>
	</g>
</g>
</svg>
