<?xml version="1.0" encoding="iso-8859-1"?>
<!-- Generator: Adobe Illustrator 19.0.0, SVG Export Plug-In . SVG Version: 6.00 Build 0)  -->
<svg version="1.1" id="Layer_1" xmlns="http://www.w3.org/2000/svg" xmlns:xlink="http://www.w3.org/1999/xlink" x="0px" y="0px"
	 viewBox="0 0 512 512" style="enable-background:new 0 0 512 512;" xml:space="preserve">
<path style="fill:#FFFFFF;" d="M473.103,371.85c0.176-0.61,0.338-1.227,0.479-1.848c0.047-0.201,0.089-0.403,0.131-0.604
	c0.113-0.54,0.213-1.085,0.3-1.632c0.037-0.237,0.076-0.474,0.11-0.711c0.076-0.546,0.131-1.095,0.18-1.644
	c0.021-0.225,0.047-0.448,0.063-0.674c0.052-0.767,0.084-1.537,0.083-2.313l0,0l0,0v-0.006l-0.006-40.904v-0.002l-0.005-26.203
	v-0.002l-0.001-4.213l-0.004-25.574l0,0l-0.008-48.824l-0.005-26.203l-0.006-40.985c-0.001-2.995-0.409-5.931-1.161-8.75
	c-0.405-1.517-0.915-2.997-1.521-4.435c-2.477-5.876-6.574-11.016-11.924-14.74c-0.784-0.545-1.584-1.071-2.421-1.553l-22.87-13.202
	l-21.414-12.358l-17.24-9.949l-65.925-38.046L304.22,31.629l-19.288-11.132l-11.953-6.899c-10.533-6.078-23.509-6.076-34.04,0.007
	l-11.872,6.857l-19.288,11.14l-25.717,14.853l0,0l-65.915,38.072l-28.89,16.686l-21.408,12.365l-11.282,6.516
	c-0.813,0.469-1.59,0.98-2.353,1.507c-3.272,2.268-6.072,5.067-8.331,8.236c-1.517,2.127-2.781,4.422-3.774,6.841
	c-1.654,4.032-2.557,8.399-2.557,12.899l0.007,40.913l0.005,26.203l0.012,73.738l0.001,4.011v0.85v0.001v0.013l0,0v0.005l0,0
	l0.005,26.198v0.002v1.863l0.002,12.617l0.004,26.496v0.007l0,0c0.001,0.773,0.033,1.539,0.084,2.305
	c0.016,0.224,0.042,0.445,0.063,0.668c0.048,0.55,0.105,1.096,0.178,1.638c0.033,0.236,0.072,0.471,0.11,0.708
	c0.086,0.544,0.184,1.086,0.298,1.625c0.042,0.201,0.084,0.403,0.13,0.603c0.14,0.615,0.298,1.222,0.471,1.825
	c0.033,0.113,0.061,0.228,0.095,0.34c0.909,3.043,2.239,5.93,3.941,8.588c0,0.001,0,0.002,0,0.002
	c0.001,0.001,0.001,0.002,0.001,0.002c1.173,1.832,2.518,3.551,4.028,5.137c0.049,0.053,0.098,0.106,0.147,0.159
	c0.71,0.734,1.454,1.438,2.233,2.112c0.125,0.11,0.254,0.215,0.382,0.322c0.785,0.661,1.594,1.298,2.444,1.89
	c0.784,0.545,1.584,1.07,2.421,1.553l22.552,13.016l21.414,12.359l17.561,10.134l91.644,52.89l19.288,11.132l11.953,6.899
	c10.533,6.078,23.509,6.076,34.04-0.007l11.872-6.857l19.288-11.14l25.717-14.853l55.554-32.086l10.363-5.985l26.36-15.225
	l21.408-12.365l13.813-7.977c0.813-0.469,1.59-0.98,2.353-1.507c0.85-0.588,1.659-1.226,2.445-1.884
	c0.129-0.106,0.259-0.212,0.386-0.323c0.779-0.671,1.526-1.374,2.236-2.108c0.046-0.048,0.09-0.098,0.136-0.145
	c3.725-3.893,6.475-8.61,8.019-13.767C473.045,372.067,473.073,371.958,473.103,371.85z"/>
<path style="fill:#103B9B;" d="M42.954,380.795c0.001,0.001,0.001,0.002,0.001,0.002c0.001,0.001,0.001,0.002,0.001,0.002
	c1.173,1.832,2.518,3.551,4.028,5.137c0.049,0.053,0.098,0.106,0.147,0.159c0.71,0.734,1.454,1.438,2.233,2.112
	c0.125,0.11,0.254,0.215,0.382,0.322c0.785,0.661,1.594,1.298,2.444,1.89c0.784,0.545,1.584,1.07,2.421,1.553l22.552,13.016
	l21.414,12.359l17.561,10.134l91.644,52.89l19.288,11.132l11.953,6.899c10.533,6.078,23.509,6.076,34.04-0.007l11.872-6.857
	l19.288-11.14l25.717-14.853l55.554-32.086l10.363-5.985l26.36-15.225l21.408-12.365l13.813-7.977
	c0.813-0.469,1.59-0.98,2.353-1.507c0.851-0.588,1.659-1.226,2.445-1.884c0.129-0.106,0.259-0.212,0.386-0.323
	c0.779-0.671,1.526-1.374,2.236-2.108c0.047-0.048,0.09-0.098,0.136-0.145c2.639-2.759,4.779-5.938,6.357-9.387h-430.7
	C41.317,378.018,42.086,379.437,42.954,380.795z"/>
<polygon style="fill:#ED1F34;" points="88.432,195.723 37.557,195.723 37.56,216.693 37.572,290.431 37.574,294.442 37.574,295.291 
	37.574,295.293 37.574,295.307 37.574,295.307 37.574,295.311 37.574,295.311 37.577,316.275 474.443,316.275 474.44,295.307 
	474.44,295.304 474.44,291.091 474.435,265.517 474.426,216.693 474.423,195.723 124.598,195.723 "/>
<path style="fill:#103B9B;" d="M459.811,121.581c-0.784-0.545-1.584-1.07-2.421-1.553l-22.874-13.203l-21.414-12.358l-17.24-9.949
	l-65.925-38.046L304.22,31.629l-19.288-11.132l-11.953-6.899c-10.533-6.078-23.509-6.076-34.04,0.007l-11.872,6.857l-19.288,11.14
	l-25.717,14.853l0,0l-65.915,38.072l-28.89,16.686l-21.408,12.365l-11.282,6.516c-0.813,0.469-1.59,0.98-2.353,1.507
	c-3.272,2.268-6.072,5.067-8.331,8.236c-1.256,1.761-2.329,3.643-3.228,5.61h430.679
	C468.823,129.939,464.892,125.116,459.811,121.581z"/>
<path d="M483.456,149.505c0-3.708-0.493-7.438-1.465-11.076c-0.503-1.889-1.15-3.779-1.926-5.623
	c-3.18-7.541-8.399-13.989-15.091-18.646c-1.093-0.762-2.095-1.403-3.066-1.964L277.499,5.767C270.961,1.994,263.515,0,255.966,0
	c-7.555,0-15.006,1.998-21.549,5.777L50.047,112.263c-0.933,0.538-1.879,1.142-2.986,1.907c-4.087,2.833-7.635,6.337-10.542,10.418
	c-1.911,2.68-3.518,5.592-4.777,8.659c-2.146,5.231-3.234,10.724-3.234,16.332l0.036,212.917c0,0.928,0.034,1.882,0.105,2.919
	c0.017,0.241,0.039,0.48,0.064,0.721l0.013,0.127c0.06,0.692,0.133,1.383,0.229,2.093c0.036,0.26,0.077,0.516,0.134,0.867
	c0.11,0.697,0.235,1.389,0.381,2.084c0.054,0.254,0.108,0.508,0.163,0.745c0.177,0.779,0.377,1.547,0.604,2.339
	c0.039,0.146,0.08,0.291,0.115,0.406c1.144,3.829,2.822,7.487,4.986,10.873c0.025,0.036,0.048,0.075,0.072,0.111
	c1.47,2.283,3.16,4.433,5,6.365c0.046,0.051,0.168,0.178,0.215,0.228c0.901,0.933,1.853,1.834,2.809,2.661
	c0.143,0.125,0.289,0.246,0.498,0.419c1.093,0.919,2.105,1.699,3.097,2.391c1.111,0.773,2.084,1.395,3.062,1.96L234.5,506.233
	c6.539,3.772,13.984,5.766,21.533,5.767h0.001c7.555,0,15.005-1.998,21.547-5.777l184.37-106.486
	c0.933-0.538,1.879-1.142,2.984-1.905c0.984-0.682,1.999-1.462,3.184-2.452l0.405-0.339c0.986-0.851,1.937-1.749,2.881-2.723
	l0.119-0.127c4.695-4.904,8.205-10.929,10.122-17.332c0.053-0.171,0.102-0.342,0.143-0.497c0.224-0.775,0.427-1.556,0.608-2.34
	c0.058-0.253,0.112-0.508,0.168-0.773c0.143-0.684,0.27-1.374,0.399-2.184c0.041-0.258,0.081-0.516,0.121-0.794
	c0.093-0.687,0.168-1.378,0.227-2.061l0.014-0.143c0.025-0.24,0.047-0.48,0.063-0.721c0.072-1.057,0.106-2.018,0.105-2.931
	L483.456,149.505z M88.432,186.682H46.597l-0.007-37.105c0-1.717,0.189-3.416,0.541-5.089h417.714
	c0.347,1.667,0.528,3.348,0.528,5.016l0.006,37.177H124.598c-4.994,0-9.041,4.047-9.041,9.041s4.047,9.041,9.041,9.041h340.785
	l0.017,102.469H46.617l-0.018-102.469h41.833c4.994,0,9.041-4.047,9.041-9.041S93.427,186.682,88.432,186.682z M243.461,21.434
	c3.796-2.192,8.12-3.351,12.505-3.351c4.381,0,8.701,1.157,12.494,3.347l181.895,104.977H61.714L243.461,21.434z M268.539,490.566
	c-3.796,2.192-8.12,3.351-12.504,3.351c0,0,0,0-0.001,0c-4.381,0-8.701-1.157-12.494-3.347L61.645,385.594h305.195
	c4.994,0,9.041-4.047,9.041-9.041s-4.047-9.041-9.041-9.041H47.153c-0.076-0.366-0.143-0.737-0.206-1.127l-0.078-0.5
	c-0.054-0.4-0.094-0.804-0.131-1.225l-0.048-0.471c-0.037-0.561-0.063-1.125-0.063-1.699l-0.006-37.171h418.782l0.006,37.119
	c0.001,0.567-0.025,1.13-0.061,1.664l-0.051,0.52c-0.035,0.407-0.076,0.813-0.129,1.197l-0.082,0.528
	c-0.063,0.395-0.135,0.786-0.213,1.166h-59.245c-4.994,0-9.041,4.047-9.041,9.041s4.047,9.041,9.041,9.041h44.658L268.539,490.566z"
	/>
<g>
</g>
<g>
</g>
<g>
</g>
<g>
</g>
<g>
</g>
<g>
</g>
<g>
</g>
<g>
</g>
<g>
</g>
<g>
</g>
<g>
</g>
<g>
</g>
<g>
</g>
<g>
</g>
<g>
</g>
</svg>
