<?xml version="1.0" encoding="iso-8859-1"?>
<!-- Generator: Adobe Illustrator 19.0.0, SVG Export Plug-In . SVG Version: 6.00 Build 0)  -->
<svg version="1.1" id="Layer_1" xmlns="http://www.w3.org/2000/svg" xmlns:xlink="http://www.w3.org/1999/xlink" x="0px" y="0px"
	 viewBox="0 0 512 512" style="enable-background:new 0 0 512 512;" xml:space="preserve">
<g>
	<path style="fill:#FFFFFF;" d="M473.103,371.851c0.176-0.611,0.336-1.228,0.479-1.85c0.046-0.201,0.088-0.401,0.13-0.603
		c0.115-0.541,0.213-1.085,0.301-1.634c0.037-0.236,0.076-0.473,0.108-0.711c0.076-0.545,0.131-1.093,0.181-1.643
		c0.019-0.225,0.047-0.447,0.061-0.674c0.053-0.767,0.084-1.537,0.084-2.313l0,0l0,0v-0.006l-0.007-40.904v-0.001l-0.005-26.204
		v-0.002v-4.213l-0.005-25.574l0,0l-0.008-48.824l-0.004-26.204l-0.007-40.985c0-2.996-0.407-5.93-1.16-8.75
		c-0.405-1.517-0.915-2.997-1.521-4.435c-2.477-5.877-6.574-11.016-11.925-14.74c-0.784-0.545-1.584-1.071-2.421-1.554l-22.872-13.2
		l-21.415-12.358l-17.24-9.949L329.933,46.47l-25.719-14.842l-19.288-11.132l-11.952-6.898c-10.534-6.078-23.51-6.077-34.04,0.006
		l-11.873,6.857l-19.288,11.14l-25.717,14.854l0,0l-65.911,38.072l-28.889,16.686l-21.408,12.365l-11.284,6.517
		c-0.811,0.469-1.589,0.979-2.352,1.507c-3.273,2.266-6.073,5.068-8.333,8.236c-1.517,2.128-2.781,4.423-3.773,6.841
		c-1.655,4.031-2.558,8.399-2.557,12.899l0.007,40.912l0.004,26.204l0.013,73.738l0.001,4.011v0.85v0.001v0.013l0,0v0.005l0,0
		l0.004,26.2l0,0l0.001,1.864l0.001,12.617l0.005,26.497v0.006l0,0c0,0.773,0.031,1.539,0.083,2.304
		c0.017,0.224,0.042,0.446,0.063,0.669c0.048,0.55,0.105,1.096,0.18,1.638c0.031,0.236,0.071,0.471,0.108,0.706
		c0.087,0.546,0.186,1.087,0.298,1.626c0.042,0.201,0.084,0.403,0.13,0.603c0.14,0.615,0.298,1.222,0.471,1.825
		c0.033,0.113,0.063,0.227,0.096,0.34c0.908,3.042,2.239,5.93,3.94,8.589c0,0,0.001,0.001,0.001,0.002l0.001,0.001
		c1.172,1.832,2.517,3.551,4.026,5.137c0.049,0.052,0.098,0.106,0.148,0.158c0.71,0.735,1.454,1.439,2.233,2.112
		c0.125,0.11,0.254,0.215,0.381,0.322c0.786,0.661,1.595,1.3,2.445,1.89c0.784,0.545,1.584,1.07,2.421,1.554l22.55,13.015
		l21.415,12.359l17.56,10.135l91.644,52.89l19.288,11.132l11.953,6.898c10.533,6.078,23.51,6.077,34.04-0.006l11.872-6.857
		l19.288-11.14l25.719-14.853l55.553-32.086l10.364-5.985l26.36-15.225l21.408-12.365l13.812-7.978
		c0.813-0.469,1.591-0.979,2.353-1.507c0.851-0.59,1.659-1.226,2.446-1.883c0.128-0.107,0.258-0.213,0.385-0.322
		c0.779-0.673,1.526-1.375,2.236-2.11c0.047-0.048,0.092-0.098,0.137-0.146c3.724-3.891,6.475-8.609,8.019-13.765
		C473.044,372.067,473.073,371.958,473.103,371.851z"/>
	<path style="fill:#FFFFFF;" d="M255.999,9.044c-2.94-0.004-5.882,0.375-8.748,1.132c-0.004,0.001-0.008,0.001-0.012,0.002
		c-0.665,0.176-1.325,0.377-1.982,0.596c-0.052,0.017-0.105,0.029-0.157,0.047c-0.614,0.206-1.221,0.439-1.826,0.682
		c-0.09,0.036-0.183,0.065-0.275,0.102c-0.528,0.217-1.046,0.461-1.566,0.705c-0.163,0.077-0.329,0.142-0.492,0.223
		c-0.563,0.277-1.116,0.58-1.667,0.89c-0.112,0.063-0.227,0.116-0.336,0.18l-11.873,6.857L207.776,31.6l-25.717,14.854l0,0
		l-65.913,38.073l-28.889,16.686l-21.408,12.365l-11.284,6.517c-0.811,0.469-1.589,0.979-2.352,1.507
		c-1.636,1.133-3.155,2.4-4.546,3.781c-1.391,1.379-2.656,2.872-3.787,4.456c-0.948,1.33-1.784,2.732-2.532,4.182
		c-0.447,0.869-0.87,1.753-1.242,2.659c-0.251,0.61-0.479,1.228-0.692,1.854c-0.019,0.054-0.035,0.11-0.054,0.164
		c-0.205,0.608-0.394,1.221-0.567,1.841v0.001c-0.001,0.001-0.001,0.001-0.001,0.002c-0.398,1.433-0.704,2.899-0.915,4.387
		c-0.008,0.066-0.016,0.133-0.025,0.199c-0.082,0.616-0.145,1.237-0.194,1.861c-0.012,0.162-0.025,0.324-0.035,0.486
		c-0.045,0.698-0.075,1.398-0.075,2.104l0.001,7.842l-0.001,98.58h21.505h34.72h14.965v-66.914l88.984,66.914h58.275v-28.591
		v-15.231l-72.822-54.76h72.822v-16.88v-39.163V84.496h-72.822l72.822-54.76V9.044z"/>
</g>
<g>
	<polygon style="fill:#ED1F34;" points="124.901,157.419 255.999,255.999 255.999,227.409 163.144,157.419 	"/>
	<path style="fill:#ED1F34;" d="M59.054,140.54v115.461h34.72V140.54h162.224v-39.163H93.774v-3.929l-6.518,3.765l-21.408,12.365
		l-11.284,6.517c-0.811,0.469-1.589,0.979-2.352,1.507c-1.636,1.133-3.155,2.4-4.546,3.781c-1.391,1.379-2.656,2.872-3.787,4.456
		c-0.948,1.33-1.784,2.732-2.532,4.182c-0.447,0.869-0.87,1.753-1.242,2.659c-0.251,0.61-0.479,1.228-0.692,1.854
		c-0.019,0.054-0.035,0.11-0.054,0.164c-0.205,0.608-0.394,1.221-0.567,1.841v0.001H59.054z"/>
</g>
<path style="fill:#103B9B;" d="M474.444,321.512v-0.001l-0.005-26.204v-0.002v-4.213l-0.005-25.574l-0.007-48.824l-0.005-26.204
	l-0.007-40.985c0-2.996-0.407-5.93-1.16-8.75c-0.405-1.517-0.915-2.997-1.521-4.435c-2.477-5.877-6.574-11.016-11.925-14.74
	c-0.784-0.545-1.584-1.071-2.421-1.554l-22.872-13.2l-21.415-12.358l-17.24-9.949L329.936,46.47l-25.719-14.842l-19.288-11.132
	l-11.952-6.898c-7.891-4.553-17.152-5.694-25.729-3.422l0,0c2.867-0.758,5.807-1.136,8.748-1.132v20.693l-72.819,54.76h72.822v16.88
	v39.163v16.88h-72.822l72.822,54.76v15.231v28.591h-58.275l-88.984-66.914v66.914H93.774h-34.72H37.567l0.006,34.432l0.001,4.011
	v0.85v0.001v0.013l0,0v0.005l0,0l0.004,26.2v0.001l0.001,1.863l0.001,12.617l0.005,26.497v0.006l0,0
	c0,0.773,0.031,1.539,0.084,2.304c0.016,0.225,0.042,0.446,0.061,0.669c0.048,0.55,0.105,1.096,0.18,1.638
	c0.033,0.236,0.071,0.471,0.108,0.706c0.087,0.546,0.184,1.087,0.298,1.626c0.042,0.201,0.084,0.403,0.13,0.603
	c0.14,0.615,0.298,1.222,0.471,1.825c0.033,0.113,0.063,0.227,0.095,0.34c0.909,3.042,2.24,5.93,3.941,8.589
	c0.001,0,0.001,0.001,0.001,0.002l0.001,0.001c1.173,1.832,2.517,3.551,4.026,5.137c0.051,0.052,0.098,0.106,0.148,0.158
	c0.709,0.735,1.454,1.441,2.231,2.112c0.125,0.11,0.256,0.215,0.382,0.322c0.786,0.661,1.595,1.3,2.445,1.89
	c0.784,0.545,1.584,1.07,2.421,1.554l22.55,13.015l21.415,12.359l17.561,10.135l91.642,52.89l19.288,11.132l11.953,6.898
	c10.533,6.078,23.51,6.077,34.04-0.006l11.872-6.857l19.288-11.14l25.719-14.853l55.553-32.086l10.364-5.985l26.36-15.224
	l21.408-12.365l13.812-7.978c0.813-0.469,1.591-0.979,2.353-1.507c0.851-0.59,1.659-1.226,2.446-1.883
	c0.128-0.107,0.258-0.213,0.385-0.323c0.779-0.671,1.526-1.374,2.236-2.11c0.047-0.048,0.09-0.098,0.137-0.146
	c3.724-3.891,6.475-8.609,8.019-13.765c0.031-0.106,0.06-0.215,0.09-0.322c0.176-0.611,0.336-1.228,0.479-1.85
	c0.046-0.201,0.088-0.401,0.13-0.603c0.113-0.541,0.213-1.085,0.3-1.633c0.039-0.236,0.076-0.473,0.11-0.711
	c0.076-0.545,0.131-1.093,0.181-1.643c0.019-0.225,0.046-0.447,0.061-0.674c0.053-0.767,0.084-1.537,0.084-2.313l0,0v-0.006
	L474.444,321.512z"/>
<path style="fill:#FFFFFF;" d="M312.445,205.368c5.963,9.328,15.527,15.417,26.341,15.417c10.814,0,20.377-6.089,26.35-15.417
	c5.963,9.328,15.528,15.417,26.342,15.417c10.812,0,20.395-6.089,26.349-15.417c5.876,13.086,9.301,28.525,9.301,45.073
	c0,67.068-62.028,99.578-62.028,99.578s-62.028-32.51-62.028-99.578C303.071,233.894,306.496,218.455,312.445,205.368z"/>
<path style="fill:#3DB4EA;" d="M311.801,292.165c17.087,38.872,53.297,57.854,53.297,57.854s36.21-18.982,53.297-57.854
	L311.801,292.165L311.801,292.165z"/>
<path style="fill:#FFE000;" d="M365.098,285.545c-14.189,0-25.732-11.543-25.732-25.732c0-14.189,11.543-25.732,25.732-25.732
	s25.732,11.543,25.732,25.732C390.83,274.003,379.287,285.545,365.098,285.545z M365.098,252.165c-4.217,0-7.649,3.432-7.649,7.649
	s3.432,7.649,7.649,7.649s7.649-3.431,7.649-7.649C372.747,255.596,369.315,252.165,365.098,252.165z"/>
<path d="M256.035,512L256.035,512c-7.549,0-14.995-1.995-21.534-5.768L50.09,399.803c-0.975-0.563-1.946-1.186-3.062-1.96
	c-0.986-0.687-1.999-1.468-3.097-2.391l-0.481-0.405c-0.984-0.851-1.934-1.75-2.825-2.675c-0.048-0.049-0.17-0.178-0.216-0.228
	c-1.87-1.963-3.585-4.151-5.068-6.474c-0.013-0.019-0.025-0.037-0.036-0.057c-2.148-3.368-3.814-7.009-4.953-10.82
	c-0.031-0.105-0.075-0.254-0.115-0.403c-0.227-0.794-0.427-1.562-0.604-2.339c-0.057-0.246-0.111-0.5-0.164-0.756
	c-0.145-0.687-0.27-1.379-0.381-2.076c-0.055-0.35-0.096-0.606-0.133-0.866c-0.096-0.71-0.169-1.401-0.228-2.094l-0.014-0.127
	c-0.025-0.24-0.047-0.48-0.063-0.721c-0.072-1.036-0.105-1.99-0.105-2.917l-0.037-212.917c0-5.608,1.087-11.103,3.234-16.332
	c1.261-3.066,2.867-5.977,4.776-8.658c2.913-4.083,6.459-7.589,10.546-10.419c1.092-0.757,2.04-1.362,2.985-1.907L234.418,5.776
	C240.959,1.998,248.411,0,255.964,0c7.551,0,14.995,1.995,21.534,5.768l184.411,106.429c0.98,0.565,1.953,1.189,3.067,1.964
	c6.692,4.656,11.909,11.104,15.091,18.646c0.778,1.846,1.425,3.736,1.926,5.623c0.97,3.638,1.465,7.366,1.465,11.075l0.034,212.91
	c0.001,0.911-0.031,1.872-0.105,2.931c-0.016,0.241-0.037,0.48-0.061,0.72l-0.016,0.145c-0.06,0.685-0.133,1.375-0.227,2.063
	c-0.037,0.278-0.077,0.533-0.118,0.786l-0.022,0.123c-0.111,0.696-0.236,1.384-0.379,2.067c-0.054,0.262-0.108,0.515-0.168,0.769
	c-0.181,0.79-0.383,1.57-0.608,2.344c-0.04,0.152-0.089,0.321-0.141,0.487c-1.919,6.413-5.43,12.439-10.124,17.344l-0.153,0.162
	c-0.911,0.942-1.864,1.84-2.85,2.69l-0.474,0.398c-1.103,0.923-2.118,1.702-3.107,2.388c-1.097,0.758-2.045,1.363-2.988,1.908
	l-184.37,106.487C271.04,510.002,263.59,512,256.035,512z M50.601,375.97c0.856,1.333,1.843,2.588,2.931,3.73
	c0.033,0.035,0.139,0.148,0.171,0.183c0.453,0.469,1.004,0.992,1.577,1.486l0.262,0.217c0.706,0.593,1.277,1.036,1.816,1.41
	c0.685,0.477,1.25,0.841,1.776,1.144l184.41,106.428c3.793,2.189,8.116,3.347,12.495,3.347c4.384,0,8.707-1.159,12.504-3.351
	l184.375-106.49c0.509-0.294,1.057-0.646,1.731-1.111c0.529-0.368,1.118-0.822,1.787-1.382l0.289-0.241
	c0.571-0.493,1.126-1.014,1.638-1.545l0.084-0.09c2.738-2.863,4.774-6.353,5.902-10.114l0.061-0.222
	c0.139-0.477,0.257-0.929,0.363-1.388l0.094-0.441c0.081-0.392,0.155-0.793,0.219-1.197l0.083-0.533
	c0.053-0.38,0.093-0.786,0.128-1.192l0.051-0.52c0.036-0.533,0.063-1.096,0.061-1.662l-0.034-212.93
	c0-2.137-0.288-4.296-0.855-6.421c-0.289-1.09-0.667-2.186-1.119-3.26c-1.846-4.378-4.874-8.124-8.754-10.824
	c-0.687-0.477-1.25-0.841-1.778-1.145L268.459,21.429c-3.793-2.188-8.113-3.347-12.495-3.347c-4.383,0-8.707,1.16-12.502,3.351
	L59.087,127.924c-0.509,0.294-1.056,0.646-1.73,1.111c-2.362,1.635-4.419,3.672-6.114,6.05c-1.107,1.553-2.041,3.245-2.774,5.028
	c-1.245,3.038-1.879,6.223-1.879,9.463l0.037,212.909c0,0.576,0.025,1.139,0.061,1.7l0.047,0.475
	c0.037,0.418,0.077,0.822,0.133,1.221l0.078,0.5c0.065,0.417,0.136,0.809,0.219,1.198l0.094,0.441
	c0.106,0.46,0.222,0.908,0.351,1.353l0.074,0.269c0.656,2.193,1.63,4.313,2.886,6.28C50.581,375.939,50.591,375.955,50.601,375.97z
	 M365.098,359.06c-1.441,0-2.884-0.345-4.196-1.033c-2.732-1.432-66.873-35.875-66.873-107.587c0-17.279,3.521-34.158,10.184-48.814
	c1.371-3.017,4.283-5.043,7.589-5.277c3.325-0.233,6.476,1.356,8.26,4.148c4.569,7.148,11.392,11.246,18.722,11.246
	c7.33,0,14.158-4.101,18.736-11.251c1.662-2.595,4.533-4.166,7.614-4.166c0.001,0,0.002,0,0.004,0
	c3.084,0.001,5.953,1.573,7.614,4.171c4.569,7.148,11.392,11.246,18.723,11.246c7.343,0,14.168-4.098,18.728-11.241
	c1.787-2.8,4.947-4.407,8.281-4.153c3.314,0.242,6.228,2.283,7.589,5.314c6.604,14.706,10.094,31.573,10.094,48.777
	c0,71.712-64.141,106.156-66.873,107.587C367.982,358.717,366.54,359.06,365.098,359.06z M315.929,222.163
	c-2.513,8.939-3.817,18.514-3.817,28.279c0,50.785,39.763,80.55,52.986,89.042c13.223-8.49,52.986-38.257,52.986-89.042
	c0-9.725-1.292-19.29-3.787-28.244c-6.708,4.906-14.628,7.631-22.823,7.631c-9.674,0-18.971-3.803-26.345-10.522
	c-7.378,6.717-16.676,10.522-26.347,10.522C330.581,229.828,322.648,227.091,315.929,222.163z"/>
<g>
</g>
<g>
</g>
<g>
</g>
<g>
</g>
<g>
</g>
<g>
</g>
<g>
</g>
<g>
</g>
<g>
</g>
<g>
</g>
<g>
</g>
<g>
</g>
<g>
</g>
<g>
</g>
<g>
</g>
</svg>
