<?xml version="1.0" encoding="iso-8859-1"?>
<!-- Generator: Adobe Illustrator 19.0.0, SVG Export Plug-In . SVG Version: 6.00 Build 0)  -->
<svg version="1.1" id="Layer_1" xmlns="http://www.w3.org/2000/svg" xmlns:xlink="http://www.w3.org/1999/xlink" x="0px" y="0px"
	 viewBox="0 0 512 512" style="enable-background:new 0 0 512 512;" xml:space="preserve">
<path style="fill:#ED1F34;" d="M473.102,371.851c0.176-0.611,0.338-1.227,0.479-1.849c0.047-0.201,0.089-0.401,0.131-0.603
	c0.113-0.541,0.213-1.085,0.3-1.634c0.037-0.237,0.076-0.474,0.11-0.711c0.076-0.545,0.131-1.093,0.18-1.644
	c0.02-0.225,0.047-0.448,0.063-0.674c0.052-0.767,0.084-1.537,0.083-2.313l0,0l0,0v-0.006l-0.006-40.904v-0.001l-0.005-26.204
	v-0.002l-0.001-4.213l-0.004-25.574l0,0l-0.008-48.824l-0.005-26.204l-0.006-40.985c-0.001-2.996-0.409-5.93-1.161-8.75
	c-0.405-1.517-0.915-2.997-1.521-4.435c-2.477-5.877-6.574-11.016-11.924-14.74c-0.784-0.545-1.584-1.071-2.421-1.554l-22.874-13.2
	l-21.414-12.358l-17.24-9.949l-65.921-38.046L304.22,31.629l-19.288-11.132l-11.953-6.898c-10.533-6.078-23.509-6.077-34.04,0.006
	l-11.872,6.857l-19.288,11.14l-25.717,14.854l0,0l-65.915,38.07l-28.89,16.686l-21.408,12.365l-11.282,6.517
	c-0.813,0.469-1.59,0.979-2.353,1.507c-3.272,2.266-6.072,5.068-8.331,8.236c-1.517,2.128-2.781,4.423-3.774,6.841
	c-1.654,4.031-2.557,8.399-2.557,12.899l0.007,40.912l0.005,26.204l0.012,73.738l0.001,4.011v0.85v0.001v0.013l0,0v0.005l0,0
	l0.005,26.2v0.001v1.863l0.002,12.617l0.004,26.497v0.006l0,0c0.001,0.773,0.033,1.539,0.084,2.304
	c0.016,0.224,0.042,0.446,0.063,0.669c0.048,0.55,0.105,1.096,0.178,1.638c0.033,0.236,0.072,0.471,0.11,0.706
	c0.086,0.546,0.184,1.087,0.298,1.626c0.042,0.201,0.084,0.403,0.13,0.603c0.14,0.614,0.298,1.221,0.471,1.825
	c0.033,0.113,0.061,0.227,0.095,0.34c0.909,3.043,2.239,5.929,3.941,8.589c0,0,0,0.001,0.001,0.002l0.001,0.001
	c1.172,1.831,2.517,3.551,4.026,5.137c0.049,0.052,0.098,0.106,0.147,0.158c0.71,0.735,1.454,1.439,2.233,2.113
	c0.125,0.108,0.254,0.213,0.382,0.321c0.785,0.661,1.594,1.3,2.444,1.89c0.784,0.545,1.584,1.07,2.421,1.554l22.552,13.015
	l21.414,12.359l17.561,10.135l91.644,52.89l19.288,11.132l11.953,6.898c10.533,6.078,23.509,6.077,34.04-0.006l11.872-6.857
	l19.288-11.14l25.717-14.853l55.554-32.086l10.363-5.985l26.36-15.225l21.408-12.365l13.813-7.978
	c0.813-0.469,1.59-0.979,2.353-1.507c0.85-0.59,1.659-1.226,2.445-1.883c0.129-0.107,0.259-0.213,0.386-0.323
	c0.779-0.672,1.526-1.374,2.236-2.11c0.046-0.048,0.09-0.098,0.136-0.146c3.725-3.891,6.475-8.609,8.019-13.766
	C473.044,372.067,473.072,371.957,473.102,371.851z"/>
<circle style="fill:#FFFFFF;" cx="256.002" cy="256.004" r="125.977"/>
<g>
	<path style="fill:#ED1F34;" d="M291.173,327.7c-39.6,0-71.702-32.102-71.702-71.701s32.102-71.701,71.702-71.701
		c12.053,0,23.403,2.987,33.374,8.241c-17.065-18.424-41.454-29.968-68.547-29.968c-51.599,0-93.428,41.829-93.428,93.428
		s41.829,93.428,93.428,93.428c27.094,0,51.482-11.545,68.546-29.968C314.576,324.713,303.226,327.7,291.173,327.7z"/>
	<polygon style="fill:#ED1F34;" points="305.501,218.628 304.079,246.145 278.353,255.999 304.079,265.855 305.501,293.371 
		322.822,271.946 349.427,279.097 334.406,255.999 349.427,232.903 322.822,240.054 	"/>
</g>
<path d="M255.999,358.469c-56.502,0-102.469-45.968-102.469-102.469S199.497,153.53,255.999,153.53
	c28.242,0,55.465,11.818,74.789,32.445c1.738,1.648,2.823,3.979,2.823,6.564c0,4.932-3.947,8.941-8.855,9.04
	c-1.484,0.046-3.021-0.301-4.427-1.04c-9.064-4.776-18.874-7.199-29.158-7.199c-34.55,0-62.661,28.109-62.661,62.659
	s28.109,62.659,62.661,62.659c10.283,0,20.094-2.422,29.158-7.199c3.897-2.053,8.707-1.001,11.39,2.497
	c2.681,3.495,2.452,8.415-0.541,11.647C311.832,346.489,284.43,358.469,255.999,358.469z M255.999,171.613
	c-46.531,0-84.386,37.856-84.386,84.386s37.856,84.386,84.386,84.386c8.917,0,17.712-1.431,26.065-4.154
	c-40.25-4.539-71.633-38.789-71.633-80.232s31.383-75.693,71.633-80.232C273.711,173.044,264.917,171.613,255.999,171.613z
	 M305.5,302.413c-0.932,0-1.873-0.145-2.792-0.444c-3.562-1.157-6.043-4.392-6.236-8.132l-1.118-21.643l-20.235-7.751
	c-3.497-1.341-5.807-4.698-5.807-8.443s2.31-7.103,5.807-8.443l20.235-7.751l1.118-21.643c0.193-3.741,2.674-6.975,6.236-8.132
	c3.561-1.155,7.469,0.002,9.824,2.914l13.624,16.852l20.924-5.625c3.62-0.97,7.46,0.387,9.662,3.416
	c2.201,3.029,2.307,7.104,0.265,10.245l-11.815,18.167l11.489,17.666c1.138,1.512,1.812,3.392,1.812,5.431
	c0,4.939-3.959,8.952-8.876,9.04c-0.856,0.017-1.695-0.082-2.536-0.309l-20.924-5.625l-13.624,16.852
	C310.785,301.217,308.182,302.413,305.5,302.413z M303.629,255.999l3.685,1.412c3.34,1.279,5.61,4.406,5.796,7.977l0.204,3.938
	l2.479-3.066c2.247-2.781,5.924-3.976,9.378-3.046l3.809,1.023l-2.152-3.309c-1.949-2.997-1.949-6.861,0-9.859l2.152-3.309
	l-3.809,1.023c-3.454,0.926-7.129-0.265-9.378-3.046l-2.479-3.066l-0.204,3.938c-0.184,3.571-2.456,6.698-5.796,7.977
	L303.629,255.999z M256.035,512L256.035,512c-7.55,0-14.995-1.995-21.534-5.768L50.09,399.803c-0.975-0.563-1.947-1.186-3.062-1.96
	c-0.986-0.687-1.999-1.468-3.097-2.391l-0.481-0.405c-0.984-0.851-1.934-1.75-2.826-2.675c-0.047-0.049-0.169-0.178-0.215-0.228
	c-1.87-1.963-3.585-4.151-5.069-6.474c-0.013-0.019-0.025-0.037-0.036-0.057c-2.148-3.368-3.814-7.009-4.952-10.82
	c-0.031-0.105-0.075-0.254-0.115-0.403c-0.227-0.794-0.427-1.562-0.604-2.339c-0.057-0.246-0.111-0.5-0.164-0.756
	c-0.145-0.687-0.271-1.379-0.381-2.076c-0.055-0.351-0.096-0.606-0.133-0.866c-0.096-0.71-0.17-1.401-0.229-2.094l-0.013-0.127
	c-0.025-0.24-0.047-0.48-0.064-0.721c-0.071-1.036-0.105-1.99-0.105-2.917l-0.036-212.917c0-5.608,1.087-11.103,3.234-16.332
	c1.26-3.066,2.866-5.977,4.776-8.658c2.913-4.083,6.459-7.589,10.545-10.419c1.093-0.757,2.041-1.362,2.985-1.907L234.416,5.776
	C240.959,1.998,248.41,0,255.964,0c7.55,0,14.995,1.995,21.534,5.768l184.411,106.429c0.98,0.565,1.953,1.189,3.066,1.964
	c6.692,4.656,11.911,11.104,15.091,18.646c0.778,1.846,1.425,3.736,1.928,5.623c0.97,3.638,1.464,7.366,1.464,11.075l0.035,212.91
	c0.001,0.911-0.033,1.872-0.105,2.931c-0.016,0.241-0.037,0.48-0.063,0.72l-0.014,0.145c-0.06,0.685-0.134,1.375-0.227,2.063
	c-0.039,0.278-0.078,0.533-0.119,0.786l-0.02,0.123c-0.111,0.696-0.236,1.384-0.379,2.067c-0.055,0.262-0.11,0.515-0.168,0.769
	c-0.181,0.79-0.385,1.57-0.609,2.344c-0.04,0.152-0.088,0.321-0.14,0.487c-1.92,6.413-5.43,12.439-10.124,17.344l-0.153,0.162
	c-0.911,0.942-1.864,1.84-2.85,2.69l-0.475,0.398c-1.103,0.923-2.117,1.702-3.107,2.388c-1.096,0.758-2.043,1.363-2.987,1.908
	l-184.37,106.487C271.04,510.002,263.589,512,256.035,512z M50.601,375.97c0.856,1.333,1.842,2.588,2.929,3.73
	c0.034,0.035,0.139,0.148,0.172,0.183c0.452,0.469,1.004,0.992,1.577,1.486l0.262,0.217c0.706,0.593,1.277,1.036,1.814,1.41
	c0.686,0.477,1.251,0.841,1.777,1.144l184.41,106.428c3.793,2.189,8.114,3.347,12.495,3.347c4.383,0,8.707-1.159,12.504-3.351
	l184.371-106.488c0.509-0.294,1.057-0.646,1.731-1.111c0.53-0.368,1.119-0.822,1.787-1.382l0.289-0.241
	c0.573-0.493,1.126-1.014,1.639-1.546l0.083-0.09c2.739-2.863,4.775-6.353,5.903-10.114l0.061-0.222
	c0.137-0.477,0.257-0.929,0.362-1.388l0.095-0.441c0.081-0.392,0.155-0.793,0.219-1.197l0.083-0.533
	c0.052-0.38,0.093-0.786,0.128-1.192l0.051-0.52c0.036-0.533,0.063-1.096,0.061-1.662l-0.035-212.93
	c0-2.137-0.287-4.296-0.854-6.421c-0.291-1.09-0.667-2.186-1.119-3.26c-1.847-4.378-4.875-8.124-8.756-10.824
	c-0.686-0.477-1.25-0.841-1.777-1.145L268.459,21.429c-3.794-2.189-8.114-3.347-12.495-3.347c-4.383,0-8.707,1.159-12.504,3.351
	L59.087,127.924c-0.509,0.294-1.057,0.646-1.731,1.111c-2.36,1.635-4.418,3.672-6.114,6.05c-1.107,1.553-2.04,3.245-2.773,5.028
	c-1.247,3.038-1.879,6.223-1.879,9.463l0.036,212.909c0,0.576,0.025,1.139,0.063,1.7l0.047,0.475
	c0.037,0.418,0.077,0.822,0.131,1.221l0.078,0.5c0.066,0.417,0.137,0.809,0.219,1.198l0.095,0.441
	c0.105,0.46,0.222,0.908,0.35,1.353l0.075,0.268c0.655,2.193,1.629,4.315,2.886,6.28C50.581,375.939,50.59,375.955,50.601,375.97z"
	/>
<g>
</g>
<g>
</g>
<g>
</g>
<g>
</g>
<g>
</g>
<g>
</g>
<g>
</g>
<g>
</g>
<g>
</g>
<g>
</g>
<g>
</g>
<g>
</g>
<g>
</g>
<g>
</g>
<g>
</g>
</svg>
