<?xml version="1.0" encoding="iso-8859-1"?>
<!-- Generator: Adobe Illustrator 19.0.0, SVG Export Plug-In . SVG Version: 6.00 Build 0)  -->
<svg version="1.1" id="Layer_1" xmlns="http://www.w3.org/2000/svg" xmlns:xlink="http://www.w3.org/1999/xlink" x="0px" y="0px"
	 viewBox="0 0 512 512" style="enable-background:new 0 0 512 512;" xml:space="preserve">
<path style="fill:#FFFFFF;" d="M473.103,371.85c0.176-0.61,0.338-1.227,0.479-1.848c0.047-0.201,0.089-0.403,0.131-0.604
	c0.113-0.54,0.213-1.085,0.3-1.632c0.037-0.237,0.076-0.474,0.11-0.711c0.076-0.546,0.131-1.095,0.18-1.644
	c0.021-0.225,0.047-0.448,0.063-0.674c0.052-0.767,0.084-1.537,0.083-2.313l0,0l0,0v-0.006l-0.006-40.904v-0.002l-0.005-26.203
	v-0.002l-0.001-4.213l-0.004-25.574l0,0l-0.008-48.824l-0.005-26.203l-0.006-40.985c-0.001-2.995-0.409-5.931-1.161-8.75
	c-0.405-1.517-0.915-2.997-1.521-4.435c-2.477-5.876-6.574-11.016-11.924-14.74c-0.784-0.545-1.584-1.071-2.421-1.553l-22.87-13.202
	l-21.414-12.358l-17.24-9.949l-65.925-38.046L304.22,31.629l-19.288-11.132l-11.953-6.899c-10.533-6.078-23.509-6.076-34.04,0.007
	l-11.872,6.857l-19.288,11.14l-25.717,14.853l0,0l-65.915,38.072l-28.89,16.686l-21.408,12.365l-11.282,6.516
	c-0.813,0.469-1.59,0.98-2.353,1.507c-3.272,2.268-6.072,5.067-8.331,8.236c-1.517,2.127-2.781,4.422-3.774,6.841
	c-1.654,4.032-2.557,8.399-2.557,12.899l0.007,40.913l0.005,26.203l0.012,73.738l0.001,4.011v0.85v0.001v0.013l0,0v0.005l0,0
	l0.005,26.198v0.002v1.863l0.002,12.617l0.004,26.496v0.007l0,0c0.001,0.773,0.033,1.539,0.084,2.305
	c0.016,0.224,0.042,0.445,0.061,0.668c0.049,0.55,0.106,1.096,0.18,1.638c0.033,0.236,0.072,0.471,0.11,0.708
	c0.086,0.544,0.184,1.086,0.297,1.625c0.043,0.201,0.086,0.403,0.131,0.603c0.14,0.615,0.298,1.222,0.471,1.825
	c0.033,0.113,0.061,0.228,0.095,0.34c0.909,3.043,2.239,5.93,3.941,8.588c0,0.001,0,0.002,0,0.002
	c0.001,0.001,0.002,0.002,0.002,0.002c1.172,1.832,2.517,3.551,4.026,5.137c0.049,0.053,0.098,0.106,0.147,0.159
	c0.71,0.734,1.454,1.438,2.233,2.112c0.125,0.11,0.256,0.215,0.382,0.322c0.786,0.661,1.594,1.298,2.444,1.89
	c0.784,0.545,1.584,1.07,2.421,1.553l22.552,13.016l21.414,12.359l17.561,10.134l91.644,52.89l19.288,11.132l11.953,6.899
	c10.533,6.078,23.509,6.076,34.04-0.007l11.872-6.857l19.288-11.14l25.717-14.853l55.554-32.086l10.363-5.985l26.36-15.225
	l21.408-12.365l13.813-7.977c0.813-0.469,1.59-0.98,2.352-1.507c0.851-0.588,1.66-1.226,2.446-1.884
	c0.129-0.106,0.259-0.212,0.386-0.323c0.779-0.671,1.526-1.374,2.236-2.108c0.046-0.048,0.09-0.098,0.136-0.145
	c3.725-3.893,6.475-8.61,8.019-13.767C473.045,372.067,473.073,371.958,473.103,371.85z"/>
<path style="fill:#ED1F34;" d="M474.432,255.999l-0.006-39.306l-0.005-26.203l-0.006-40.985c-0.001-2.995-0.409-5.931-1.161-8.75
	c-0.405-1.517-0.915-2.997-1.52-4.435c-2.479-5.876-6.575-11.016-11.925-14.74c-0.784-0.545-1.584-1.071-2.421-1.553l-22.872-13.202
	l-21.414-12.358l-17.24-9.949l-65.925-38.046L304.22,31.629l-19.288-11.132l-11.953-6.899c-5.254-3.032-11.117-4.548-16.98-4.554
	v246.956H474.432z"/>
<g>
	<path style="fill:#164FCE;" d="M255.999,387.401V255.999H37.568l0.005,34.432l0.001,4.011v0.849v0.002v0.013l0,0v0.005l0,0
		l0.005,26.198v0.002v1.863l0.002,12.617l0.004,26.496v0.007l0,0c0.001,0.773,0.033,1.539,0.084,2.305
		c0.016,0.224,0.042,0.445,0.061,0.668c0.049,0.55,0.106,1.096,0.18,1.639c0.033,0.235,0.072,0.47,0.11,0.706
		c0.086,0.544,0.184,1.085,0.297,1.625c0.042,0.201,0.086,0.403,0.131,0.603c0.14,0.615,0.298,1.222,0.471,1.825
		c0.033,0.113,0.061,0.228,0.095,0.34c0.909,3.043,2.239,5.93,3.94,8.588c0.001,0.001,0.001,0.002,0.001,0.002
		c0.001,0.001,0.002,0.002,0.002,0.002c1.172,1.832,2.517,3.551,4.026,5.137c0.049,0.053,0.098,0.106,0.147,0.159
		c0.71,0.734,1.454,1.438,2.233,2.112c0.125,0.11,0.256,0.215,0.382,0.322c0.786,0.661,1.594,1.298,2.444,1.89
		c0.784,0.545,1.584,1.071,2.421,1.553l22.552,13.016l21.414,12.359l17.561,10.134l91.644,52.89l19.288,11.132l11.953,6.899
		c5.254,3.032,11.117,4.548,16.98,4.556v-79.39v-36.167H255.999z"/>
	<polygon style="fill:#164FCE;" points="86.911,163.773 121.047,162.01 133.275,130.089 145.5,162.01 179.637,163.773 
		153.056,185.266 161.928,218.275 133.275,199.639 104.62,218.275 113.492,185.266 	"/>
</g>
<polygon style="fill:#ED1F34;" points="332.362,327.408 366.5,325.645 378.725,293.724 390.953,325.645 425.089,327.408 
	398.508,348.9 407.38,381.911 378.725,363.273 350.072,381.911 358.944,348.9 "/>
<path d="M81.767,170.135l22.443,18.147l-7.492,27.872c-0.88,3.273,0.351,6.751,3.092,8.742c2.741,1.992,6.427,2.087,9.27,0.24
	l24.192-15.737l24.191,15.737c1.36,0.884,2.911,1.322,4.462,1.322c1.69,0,3.378-0.523,4.809-1.562
	c2.741-1.992,3.972-5.469,3.092-8.742l-7.491-27.872l22.442-18.147c2.636-2.131,3.684-5.666,2.638-8.889
	c-1.048-3.225-3.973-5.468-7.359-5.643l-28.822-1.489l-10.323-26.951c-1.213-3.164-4.251-5.255-7.641-5.255
	c-3.391,0-6.429,2.09-7.642,5.255l-10.323,26.951l-28.822,1.489c-3.386,0.175-6.311,2.418-7.359,5.643
	C78.082,164.469,79.132,168.004,81.767,170.135z M121.469,170.181c3.231-0.168,6.06-2.224,7.219-5.245l4.587-11.974l4.586,11.974
	c1.157,3.021,3.988,5.078,7.219,5.245l12.801,0.661l-9.97,8.063c-2.516,2.035-3.596,5.361-2.757,8.486l3.328,12.382l-10.747-6.992
	c-1.357-0.881-2.909-1.322-4.46-1.322c-1.553,0-3.105,0.44-4.462,1.322l-10.747,6.992l3.328-12.382
	c0.839-3.125-0.241-6.452-2.757-8.486l-9.97-8.063L121.469,170.181z M425.511,319.237l-28.822-1.488l-10.323-26.952
	c-1.213-3.166-4.251-5.255-7.642-5.255c-3.39,0-6.428,2.089-7.641,5.255l-10.323,26.952l-28.822,1.488
	c-3.386,0.176-6.312,2.419-7.359,5.643c-1.046,3.225,0.001,6.759,2.637,8.891l22.443,18.145l-7.491,27.872
	c-0.879,3.273,0.351,6.751,3.092,8.744c2.743,1.993,6.428,2.087,9.27,0.239l24.191-15.736l24.192,15.736
	c1.36,0.884,2.913,1.324,4.462,1.324c1.69,0,3.379-0.523,4.809-1.562c2.741-1.993,3.972-5.471,3.092-8.744l-7.492-27.872
	l22.443-18.145c2.636-2.131,3.685-5.666,2.638-8.891C431.822,321.656,428.896,319.412,425.511,319.237z M393.364,342.538
	c-2.516,2.035-3.596,5.361-2.757,8.486l3.328,12.382l-10.747-6.991c-1.356-0.881-2.909-1.324-4.462-1.324
	c-1.551,0-3.103,0.441-4.46,1.324l-10.747,6.991l3.328-12.382c0.839-3.125-0.241-6.451-2.757-8.486l-9.97-8.061l12.803-0.662
	c3.231-0.168,6.059-2.223,7.217-5.244l4.586-11.976l4.587,11.976c1.159,3.021,3.989,5.076,7.219,5.244l12.801,0.662L393.364,342.538
	z M483.456,149.505c0-3.708-0.493-7.438-1.463-11.075c-0.503-1.888-1.15-3.778-1.926-5.623c-3.181-7.544-8.401-13.991-15.092-18.647
	c-1.115-0.776-2.088-1.4-3.066-1.965L277.499,5.767C270.961,1.994,263.515,0,255.964,0c-7.555,0-15.005,1.996-21.549,5.776
	L50.047,112.263c-0.948,0.546-1.895,1.152-2.984,1.906c-4.086,2.829-7.633,6.335-10.546,10.419
	c-1.911,2.682-3.518,5.594-4.776,8.659c-2.146,5.23-3.234,10.724-3.234,16.332l0.036,212.917c0,0.928,0.034,1.882,0.105,2.919
	c0.017,0.241,0.039,0.48,0.064,0.721l0.013,0.127c0.06,0.692,0.133,1.383,0.229,2.093c0.036,0.26,0.077,0.516,0.134,0.867
	c0.11,0.697,0.235,1.389,0.381,2.084c0.054,0.254,0.108,0.508,0.163,0.745c0.177,0.779,0.377,1.547,0.604,2.339
	c0.039,0.146,0.08,0.291,0.115,0.406c1.144,3.829,2.822,7.487,4.986,10.873c0.025,0.036,0.048,0.075,0.072,0.111
	c1.47,2.283,3.16,4.433,5,6.365c0.046,0.051,0.168,0.178,0.215,0.228c0.901,0.933,1.853,1.834,2.809,2.661
	c0.143,0.125,0.289,0.246,0.498,0.419c1.093,0.919,2.105,1.699,3.097,2.391c1.111,0.773,2.084,1.395,3.062,1.96L234.5,506.232
	c6.539,3.773,13.985,5.768,21.534,5.768c7.555,0,15.005-1.998,21.547-5.777l184.37-106.486c0.94-0.542,1.887-1.146,2.991-1.91
	c0.99-0.687,2.001-1.466,3.177-2.447l0.405-0.339c0.986-0.851,1.937-1.749,2.881-2.723l0.119-0.127
	c4.695-4.904,8.205-10.929,10.122-17.332c0.053-0.171,0.102-0.342,0.143-0.497c0.224-0.775,0.427-1.556,0.608-2.34
	c0.058-0.253,0.112-0.508,0.168-0.773c0.143-0.684,0.27-1.374,0.398-2.177c0.041-0.259,0.082-0.518,0.122-0.802
	c0.093-0.687,0.168-1.378,0.227-2.061l0.014-0.143c0.025-0.24,0.047-0.48,0.063-0.721c0.072-1.057,0.106-2.018,0.105-2.931
	L483.456,149.505z M452.868,127.857c0.524,0.301,1.087,0.665,1.778,1.145c3.881,2.699,6.908,6.446,8.757,10.826
	c0.451,1.073,0.827,2.166,1.118,3.259c0.567,2.123,0.854,4.282,0.854,6.418l0.016,97.453H265.041V19.802
	c1.175,0.458,2.321,0.995,3.419,1.629L452.868,127.857z M48.469,140.114c0.732-1.783,1.666-3.476,2.773-5.028
	c1.696-2.378,3.754-4.415,6.118-6.053c0.67-0.464,1.218-0.816,1.728-1.109l184.373-106.49c1.122-0.649,2.294-1.195,3.497-1.66
	v227.184H46.607l-0.017-97.381C46.59,146.337,47.223,143.151,48.469,140.114z M465.348,364.1l-0.051,0.52
	c-0.035,0.408-0.076,0.813-0.128,1.191l-0.064,0.407c0,0.004-0.02,0.125-0.02,0.127c-0.064,0.404-0.137,0.804-0.218,1.191
	l-0.096,0.447c-0.105,0.457-0.224,0.909-0.362,1.386l-0.06,0.217c-1.13,3.762-3.164,7.255-5.905,10.118l-0.083,0.09
	c-0.515,0.532-1.068,1.054-1.635,1.543l-0.293,0.242c-0.671,0.561-1.259,1.015-1.784,1.382c-0.678,0.468-1.226,0.821-1.734,1.114
	l-184.373,106.49c-1.122,0.647-2.294,1.193-3.497,1.659v-68.657c0-4.994-4.047-9.041-9.041-9.041s-9.041,4.047-9.041,9.041v68.63
	c-1.175-0.458-2.321-0.995-3.419-1.629L59.131,384.141c-0.528-0.305-1.093-0.67-1.773-1.14c-0.542-0.379-1.115-0.822-1.818-1.413
	l-0.266-0.224c-0.564-0.486-1.115-1.008-1.57-1.479c-0.033-0.035-0.14-0.151-0.175-0.186c-1.098-1.154-2.093-2.423-2.956-3.771
	c-0.008-0.014-0.018-0.028-0.025-0.041c-1.247-1.955-2.212-4.065-2.862-6.241l-0.076-0.276c-0.127-0.441-0.244-0.887-0.35-1.354
	l-0.094-0.438c-0.081-0.388-0.153-0.781-0.219-1.196l-0.078-0.5c-0.054-0.4-0.094-0.804-0.131-1.225l-0.048-0.47
	c-0.037-0.561-0.063-1.125-0.063-1.699l-0.017-97.447h200.348v122.36c0,4.994,4.047,9.041,9.041,9.041
	c4.994,0,9.041-4.047,9.041-9.041v-122.36h200.35l0.017,97.395C465.409,363.003,465.384,363.566,465.348,364.1z"/>
<g>
</g>
<g>
</g>
<g>
</g>
<g>
</g>
<g>
</g>
<g>
</g>
<g>
</g>
<g>
</g>
<g>
</g>
<g>
</g>
<g>
</g>
<g>
</g>
<g>
</g>
<g>
</g>
<g>
</g>
</svg>
