<?xml version="1.0" encoding="iso-8859-1"?>
<!-- Generator: Adobe Illustrator 19.0.0, SVG Export Plug-In . SVG Version: 6.00 Build 0)  -->
<svg version="1.1" id="Layer_1" xmlns="http://www.w3.org/2000/svg" xmlns:xlink="http://www.w3.org/1999/xlink" x="0px" y="0px"
	 viewBox="0 0 512 512" style="enable-background:new 0 0 512 512;" xml:space="preserve">
<path style="fill:#FFFFFF;" d="M473.104,371.851c0.176-0.611,0.336-1.228,0.479-1.85c0.046-0.2,0.089-0.401,0.131-0.603
	c0.113-0.54,0.213-1.085,0.3-1.634c0.037-0.236,0.076-0.473,0.11-0.711c0.075-0.545,0.131-1.092,0.18-1.643
	c0.021-0.225,0.047-0.447,0.063-0.674c0.052-0.767,0.084-1.537,0.084-2.313l0,0l0,0v-0.006l-0.006-40.904v-0.002l-0.005-26.203
	v-0.002v-4.213l-0.004-25.574l0,0l-0.008-48.824l-0.005-26.204l-0.006-40.984c0-2.995-0.407-5.931-1.16-8.75
	c-0.405-1.517-0.915-2.997-1.521-4.435c-2.477-5.877-6.574-11.017-11.925-14.74c-0.784-0.545-1.584-1.071-2.419-1.553
	l-22.874-13.202l-21.414-12.358l-17.239-9.949l-65.926-38.046l-25.717-14.844l-19.288-11.132l-11.953-6.899
	c-10.533-6.078-23.509-6.076-34.04,0.007l-11.872,6.857l-19.288,11.14l-25.717,14.854v-0.001l-65.918,38.072l-28.889,16.686
	l-21.406,12.365l-11.284,6.517c-0.811,0.468-1.59,0.979-2.353,1.506c-3.272,2.268-6.073,5.068-8.333,8.235
	c-1.517,2.129-2.781,4.424-3.773,6.843c-1.655,4.031-2.558,8.399-2.557,12.899l0.006,40.912l0.005,26.204l0.012,73.738v4.011v0.85
	v0.001v0.013l0,0v0.005l0,0l0.005,26.2l0,0v1.864l0.002,12.617l0.004,26.497v0.006l0,0c0,0.773,0.033,1.539,0.084,2.304
	c0.016,0.224,0.042,0.446,0.061,0.669c0.048,0.548,0.105,1.096,0.18,1.638c0.033,0.236,0.072,0.471,0.108,0.706
	c0.087,0.545,0.186,1.087,0.298,1.626c0.042,0.201,0.086,0.403,0.131,0.603c0.14,0.615,0.298,1.222,0.471,1.825
	c0.033,0.113,0.061,0.227,0.095,0.34c0.909,3.042,2.24,5.93,3.94,8.589l0.001,0.001l0.001,0.002
	c1.172,1.832,2.517,3.551,4.025,5.137c0.051,0.052,0.099,0.106,0.148,0.158c0.709,0.735,1.454,1.439,2.231,2.113
	c0.125,0.11,0.254,0.215,0.382,0.322c0.786,0.661,1.595,1.298,2.445,1.89c0.784,0.545,1.584,1.07,2.419,1.553l22.552,13.015
	l21.414,12.36l17.561,10.134l91.644,52.89l19.288,11.132l11.953,6.899c10.533,6.078,23.509,6.076,34.04-0.007l11.872-6.857
	l19.288-11.14l25.717-14.853l55.554-32.086l10.363-5.985l26.36-15.225l21.408-12.365l13.813-7.978
	c0.811-0.468,1.59-0.979,2.353-1.506c0.851-0.588,1.659-1.226,2.446-1.884c0.128-0.107,0.258-0.212,0.385-0.322
	c0.78-0.673,1.526-1.375,2.237-2.11c0.047-0.048,0.09-0.098,0.136-0.146c3.724-3.891,6.476-8.609,8.02-13.765
	C473.045,372.067,473.072,371.958,473.104,371.851z"/>
<g>
	<path style="fill:#3DB4EA;" d="M225.42,141.704h156.455h37.855h53.747c-0.075-0.317-0.137-0.635-0.222-0.949
		c-0.405-1.517-0.915-2.997-1.521-4.435c-2.477-5.876-6.574-11.016-11.925-14.74c-0.784-0.545-1.584-1.071-2.419-1.553
		l-22.874-13.202l-18.806-10.852c-14.633,0-190.291,0-190.291,0v45.73H225.42z"/>
	<path style="fill:#3DB4EA;" d="M225.42,187.42h249.001v3.07l0.005,26.203l0.002,16.442c-20.778,0-249.009,0-249.009,0
		L225.42,187.42L225.42,187.42z"/>
	<polygon style="fill:#3DB4EA;" points="474.444,321.512 474.444,321.51 474.44,295.307 474.44,295.304 474.438,291.091 
		474.437,278.864 37.571,278.864 37.572,290.431 37.574,294.442 37.574,295.291 37.574,295.293 37.574,295.307 37.574,295.307 
		37.574,295.311 37.574,295.311 37.578,321.51 37.578,321.511 37.578,323.375 37.578,324.58 474.444,324.58 	"/>
	<path style="fill:#3DB4EA;" d="M443.622,399.883l13.813-7.977c0.811-0.469,1.59-0.98,2.353-1.507
		c0.851-0.588,1.659-1.226,2.446-1.884c0.128-0.107,0.258-0.212,0.385-0.322c0.78-0.673,1.526-1.375,2.237-2.11
		c0.047-0.048,0.09-0.098,0.136-0.146c3.724-3.891,6.476-8.609,8.02-13.766c0.031-0.106,0.059-0.215,0.09-0.322
		c0.148-0.514,0.278-1.033,0.403-1.555H120.258H79.11H38.514c0.125,0.528,0.257,1.052,0.405,1.571
		c0.033,0.113,0.061,0.227,0.095,0.34c0.909,3.042,2.24,5.93,3.94,8.589l0.001,0.001l0.001,0.002
		c1.172,1.832,2.517,3.551,4.025,5.137c0.051,0.052,0.099,0.106,0.148,0.158c0.709,0.735,1.454,1.441,2.231,2.113
		c0.125,0.11,0.254,0.215,0.382,0.322c0.786,0.661,1.595,1.298,2.445,1.89c0.784,0.545,1.584,1.07,2.419,1.553l22.552,13.016
		l19.127,11.038H415.67l6.542-3.778L443.622,399.883z"/>
</g>
<circle style="fill:#F2A643;" cx="135.428" cy="174.764" r="55.562"/>
<path d="M483.457,149.503c0-3.711-0.494-7.438-1.465-11.078c-0.506-1.899-1.155-3.789-1.925-5.615
	c-3.179-7.544-8.398-13.991-15.096-18.652c-1.118-0.778-2.089-1.4-3.062-1.961L277.499,5.767C270.96,1.994,263.513,0,255.964,0
	c-7.555,0-15.005,1.996-21.547,5.776L50.042,112.265c-0.95,0.549-1.896,1.152-2.978,1.902c-4.086,2.831-7.635,6.335-10.547,10.421
	c-1.912,2.683-3.519,5.597-4.775,8.658c-2.147,5.23-3.234,10.724-3.234,16.334l0.035,212.917c0,0.921,0.034,1.876,0.105,2.919
	c0.016,0.234,0.037,0.469,0.061,0.702l0.014,0.143c0.061,0.693,0.134,1.385,0.231,2.095c0.034,0.24,0.071,0.477,0.108,0.716
	l0.025,0.16c0.11,0.69,0.235,1.378,0.38,2.075c0.053,0.254,0.107,0.508,0.163,0.746c0.177,0.779,0.377,1.547,0.608,2.351
	l0.112,0.392c1.144,3.829,2.821,7.487,4.988,10.875c1.484,2.322,3.198,4.509,5.089,6.494c0.04,0.042,0.153,0.164,0.195,0.206
	c0.896,0.929,1.847,1.83,2.81,2.663l0.498,0.42c1.093,0.919,2.105,1.699,3.096,2.388c1.096,0.763,2.096,1.403,3.064,1.963
	l184.411,106.428c6.538,3.773,13.985,5.768,21.534,5.768l0,0c7.554,0,15.005-1.998,21.547-5.776l184.372-106.49
	c0.945-0.545,1.89-1.149,2.982-1.905c0.986-0.682,1.999-1.461,3.181-2.448c0.14-0.116,0.278-0.231,0.405-0.34
	c0.99-0.854,1.941-1.752,2.84-2.681l0.159-0.171c4.695-4.904,8.206-10.929,10.149-17.421l0.116-0.406
	c0.224-0.775,0.427-1.556,0.605-2.34l0.169-0.773c0.143-0.684,0.27-1.374,0.398-2.177c0.042-0.259,0.082-0.518,0.121-0.792
	c0.094-0.69,0.168-1.383,0.228-2.071l0.014-0.143c0.024-0.24,0.047-0.48,0.063-0.721c0.071-1.043,0.105-1.999,0.105-2.931
	L483.457,149.503z M465.402,315.539H46.619l-0.005-27.633h418.783L465.402,315.539z M465.386,224.094H234.462v-27.633h230.92
	L465.386,224.094z M454.646,129.003c1.53,1.064,2.92,2.295,4.165,3.66h-39.081c-4.993,0-9.041,4.047-9.041,9.041
	c0,4.994,4.048,9.041,9.041,9.041h45.643l0.005,27.633H234.462v-27.633h147.413c4.993,0,9.041-4.047,9.041-9.041
	c0-4.994-4.048-9.041-9.041-9.041H234.462v-27.647h178.829l39.577,22.841C453.39,128.159,453.955,128.523,454.646,129.003z
	 M48.471,140.11c0.729-1.781,1.662-3.472,2.769-5.025c1.696-2.378,3.755-4.415,6.119-6.053c0.668-0.463,1.216-0.815,1.725-1.109
	l184.377-106.49c3.795-2.193,8.119-3.351,12.504-3.351c4.381,0,8.701,1.157,12.495,3.347l113.497,65.503H225.42
	c-4.993,0-9.041,4.047-9.041,9.041v45.73v45.716v45.716c0,4.994,4.048,9.041,9.041,9.041h239.97l0.005,27.647H46.611l-0.02-120.247
	C46.59,146.336,47.223,143.151,48.471,140.11z M268.538,490.566c-3.796,2.192-8.119,3.351-12.502,3.351
	c-4.381,0-8.701-1.159-12.496-3.348l-113.496-65.502h251.898L268.538,490.566z M458.36,379.795
	c-0.512,0.529-1.066,1.051-1.649,1.555l-0.276,0.228c-0.684,0.573-1.255,1.014-1.791,1.384c-0.671,0.465-1.221,0.817-1.731,1.113
	l-39.663,22.908H98.71l-39.58-22.842c-0.529-0.305-1.095-0.669-1.775-1.143c-0.538-0.375-1.126-0.829-1.787-1.385l-0.293-0.246
	c-0.568-0.489-1.119-1.011-1.589-1.498c-0.027-0.029-0.129-0.137-0.157-0.168c-0.11-0.116-0.206-0.246-0.315-0.364H79.11
	c4.993,0,9.041-4.047,9.041-9.041s-4.048-9.041-9.041-9.041H46.626l-0.005-27.633h418.783l0.005,27.633H120.258
	c-4.993,0-9.041,4.047-9.041,9.041s4.048,9.041,9.041,9.041h338.517c-0.112,0.122-0.217,0.248-0.332,0.368L458.36,379.795z"/>
<g>
</g>
<g>
</g>
<g>
</g>
<g>
</g>
<g>
</g>
<g>
</g>
<g>
</g>
<g>
</g>
<g>
</g>
<g>
</g>
<g>
</g>
<g>
</g>
<g>
</g>
<g>
</g>
<g>
</g>
</svg>
