<?xml version="1.0" encoding="iso-8859-1"?>
<!-- Generator: Adobe Illustrator 19.0.0, SVG Export Plug-In . SVG Version: 6.00 Build 0)  -->
<svg version="1.1" id="Layer_1" xmlns="http://www.w3.org/2000/svg" xmlns:xlink="http://www.w3.org/1999/xlink" x="0px" y="0px"
	 viewBox="0 0 512 512" style="enable-background:new 0 0 512 512;" xml:space="preserve">
<path style="fill:#FFFFFF;" d="M473.118,371.858c0.176-0.611,0.338-1.229,0.479-1.851c0.047-0.2,0.089-0.401,0.131-0.603
	c0.113-0.54,0.213-1.085,0.3-1.634c0.037-0.236,0.076-0.473,0.11-0.711c0.076-0.545,0.131-1.092,0.18-1.643
	c0.02-0.225,0.047-0.447,0.063-0.674c0.052-0.767,0.084-1.537,0.084-2.314l0,0l0,0v-0.006l-0.007-40.908v-0.002l-0.005-26.205
	v-0.002l-0.001-4.214l-0.004-25.576l0,0l-0.008-48.827l-0.005-26.206l-0.007-40.987c0-2.995-0.406-5.932-1.16-8.75
	c-0.405-1.518-0.915-2.997-1.52-4.435c-2.479-5.877-6.575-11.018-11.926-14.741c-0.784-0.545-1.584-1.071-2.421-1.553
	l-22.875-13.203L413.11,94.455l-17.241-9.95l-65.931-38.05L304.218,31.61l-19.29-11.133l-11.954-6.9
	c-10.533-6.079-23.511-6.076-34.043,0.007l-11.873,6.857l-19.29,11.141l-25.719,14.856v-0.001l-65.917,38.077L87.242,101.2
	l-21.409,12.366l-11.283,6.518c-0.811,0.468-1.59,0.979-2.353,1.506c-3.272,2.267-6.074,5.068-8.332,8.236
	c-1.517,2.129-2.781,4.425-3.774,6.843c-1.655,4.032-2.558,8.399-2.557,12.9l0.006,40.915l0.005,26.206l0.012,73.743v4.011v0.849
	v0.002v0.013l0,0v0.005l0,0l0.005,26.201l0,0v1.864l0.002,12.618l0.004,26.499v0.006l0,0c0,0.773,0.033,1.54,0.084,2.304
	c0.016,0.224,0.042,0.446,0.061,0.669c0.048,0.549,0.105,1.096,0.18,1.638c0.033,0.236,0.072,0.471,0.109,0.706
	c0.087,0.545,0.186,1.087,0.298,1.626c0.042,0.201,0.086,0.403,0.131,0.603c0.14,0.615,0.298,1.223,0.471,1.825
	c0.033,0.113,0.061,0.227,0.095,0.34c0.909,3.042,2.24,5.93,3.94,8.59l0.001,0.001l0.001,0.002c1.172,1.833,2.517,3.552,4.026,5.137
	c0.051,0.052,0.099,0.106,0.148,0.158c0.709,0.735,1.454,1.44,2.232,2.113c0.125,0.11,0.254,0.215,0.382,0.322
	c0.786,0.661,1.595,1.298,2.445,1.89c0.784,0.545,1.584,1.071,2.42,1.553l22.553,13.016l21.415,12.361l17.562,10.134l91.65,52.894
	l19.29,11.133l11.954,6.9c10.533,6.079,23.511,6.076,34.043-0.007l11.873-6.857l19.29-11.141l25.719-14.854l55.558-32.088
	l10.363-5.986l26.362-15.226l21.409-12.366l13.814-7.979c0.813-0.468,1.59-0.979,2.353-1.506c0.85-0.588,1.659-1.226,2.445-1.884
	c0.129-0.107,0.259-0.212,0.386-0.322c0.779-0.673,1.526-1.376,2.236-2.11c0.046-0.048,0.09-0.098,0.136-0.146
	c3.725-3.892,6.475-8.609,8.02-13.766C473.06,372.074,473.087,371.965,473.118,371.858z"/>
<path style="fill:#103B9B;" d="M210.497,255.999h182.006h30.334h51.61l-0.006-39.309l-0.005-26.205l-0.007-40.988
	c0-2.995-0.406-5.932-1.16-8.75c-0.405-1.517-0.914-2.997-1.52-4.435c-2.479-5.876-6.575-11.017-11.926-14.741
	c-0.784-0.545-1.584-1.071-2.421-1.553l-22.875-13.203l-21.415-12.359l-17.241-9.95l-65.931-38.05L304.22,31.611l-19.29-11.133
	l-11.954-6.9c-10.533-6.079-23.511-6.076-34.043,0.007l-11.873,6.857l-19.29,11.141l-25.719,14.854l0,0l-65.918,38.076L87.242,101.2
	l-9.05,5.228L210.497,255.999z"/>
<path style="fill:#ED1F34;" d="M474.459,321.517L474.459,321.517v-0.002l-0.005-26.205l0,0v-0.002l-0.001-4.214l-0.004-25.576
	l-0.002-9.518h-51.61h-30.334H210.497L78.174,405.59l20.388,11.768l17.562,10.134l91.65,52.894l19.29,11.133l11.954,6.9
	c10.533,6.079,23.511,6.076,34.043-0.007l11.873-6.857l19.29-11.141l25.719-14.854l55.558-32.088l10.363-5.986l26.362-15.226
	l21.409-12.366l13.814-7.978c0.813-0.469,1.59-0.98,2.353-1.507c0.85-0.588,1.659-1.226,2.445-1.884
	c0.129-0.107,0.259-0.212,0.386-0.322c0.779-0.673,1.526-1.376,2.236-2.11c0.047-0.048,0.09-0.098,0.136-0.146
	c0.467-0.486,0.916-0.985,1.35-1.496c0.87-1.024,1.677-2.095,2.417-3.209s1.414-2.271,2.018-3.464
	c0.907-1.79,1.655-3.663,2.235-5.598c0.033-0.106,0.06-0.215,0.09-0.322c0.176-0.611,0.338-1.229,0.479-1.851
	c0.047-0.2,0.089-0.401,0.131-0.603c0.057-0.271,0.1-0.544,0.149-0.817c0.051-0.272,0.107-0.543,0.151-0.817
	c0.037-0.236,0.076-0.473,0.11-0.711c0.076-0.545,0.131-1.092,0.18-1.643c0.011-0.112,0.021-0.225,0.031-0.336
	c0.011-0.112,0.023-0.224,0.03-0.336c0.052-0.767,0.084-1.537,0.084-2.314l0,0v-0.006L474.459,321.517z"/>
<path style="fill:#FFE000;" d="M105.344,300.305c-24.43,0-44.306-19.876-44.306-44.306s19.876-44.306,44.306-44.306
	s44.306,19.876,44.306,44.306S129.774,300.305,105.344,300.305z M105.344,224.985c-17.102,0-31.014,13.913-31.014,31.014
	s13.914,31.014,31.014,31.014s31.014-13.913,31.014-31.014S122.444,224.985,105.344,224.985z M105.344,235.175
	c-11.5,0-20.823,9.323-20.823,20.823c0,11.5,9.323,20.823,20.823,20.823c11.502,0,20.823-9.323,20.823-20.823
	C126.167,244.498,116.844,235.175,105.344,235.175z"/>
<path d="M483.473,149.494c-0.001-3.711-0.494-7.439-1.467-11.081c-0.506-1.898-1.154-3.787-1.924-5.615
	c-3.18-7.543-8.399-13.991-15.095-18.653c-1.116-0.775-2.088-1.397-3.063-1.96L277.5,5.75c-13.289-7.669-29.799-7.666-43.085,0.007
	L50.026,112.253c-0.946,0.546-1.892,1.15-2.979,1.904c-4.086,2.831-7.634,6.335-10.547,10.421c-1.912,2.684-3.519,5.596-4.775,8.657
	c-2.147,5.231-3.235,10.726-3.235,16.335l0.035,212.932c0,0.921,0.034,1.875,0.105,2.92c0.016,0.234,0.037,0.465,0.061,0.697
	l0.014,0.147c0.061,0.694,0.134,1.385,0.231,2.094c0.034,0.24,0.071,0.477,0.109,0.716l0.025,0.16c0.11,0.69,0.234,1.377,0.38,2.072
	c0.054,0.256,0.107,0.51,0.163,0.75c0.177,0.778,0.377,1.546,0.608,2.35l0.112,0.393c1.143,3.827,2.82,7.486,4.985,10.872
	c0.013,0.022,0.027,0.041,0.041,0.063c1.478,2.301,3.179,4.469,5.053,6.438c0.039,0.041,0.153,0.163,0.193,0.204
	c0.887,0.922,1.836,1.822,2.828,2.68l0.48,0.404c1.098,0.923,2.111,1.704,3.096,2.389c1.113,0.774,2.086,1.396,3.065,1.963
	l184.424,106.435c6.643,3.835,14.089,5.751,21.536,5.751c7.452-0.001,14.904-1.921,21.549-5.757L461.97,399.747
	c0.949-0.547,1.895-1.154,2.979-1.904c0.995-0.688,1.98-1.444,3.114-2.391l0.474-0.398c0.989-0.854,1.942-1.752,2.808-2.646
	l0.195-0.206c4.697-4.907,8.207-10.931,10.154-17.434l0.113-0.397l0,0c0.223-0.775,0.427-1.554,0.606-2.344l0.169-0.772
	c0.142-0.682,0.269-1.371,0.379-2.063l0.019-0.119c0.041-0.258,0.081-0.515,0.118-0.782c0.095-0.688,0.169-1.385,0.228-2.071
	l0.016-0.145c0.025-0.239,0.046-0.477,0.063-0.722c0.071-1.043,0.106-1.999,0.106-2.931L483.473,149.494z M57.336,383.005
	c-0.539-0.375-1.109-0.817-1.782-1.382l-0.289-0.241c-0.576-0.499-1.128-1.022-1.596-1.507c-0.027-0.028-0.127-0.136-0.154-0.164
	c-1.098-1.155-2.093-2.424-2.957-3.776c-0.012-0.018-0.024-0.036-0.035-0.055c-1.243-1.954-2.205-4.058-2.861-6.257l-0.068-0.24
	c-0.127-0.444-0.245-0.89-0.351-1.354l-0.093-0.428c-0.082-0.395-0.156-0.793-0.217-1.185l-0.082-0.524
	c-0.054-0.399-0.096-0.802-0.13-1.198l-0.048-0.496c-0.039-0.563-0.064-1.126-0.064-1.7L46.574,149.57
	c0-3.241,0.632-6.426,1.881-9.466c0.731-1.782,1.663-3.472,2.77-5.026c1.696-2.377,3.755-4.414,6.117-6.051
	c0.67-0.464,1.22-0.817,1.729-1.112l17.244-9.96L198.425,256L76.295,394.065l-17.18-9.915
	C58.59,383.848,58.025,383.484,57.336,383.005z M465.361,364.105l-0.051,0.522c-0.035,0.403-0.076,0.804-0.129,1.195l-0.082,0.53
	c-0.065,0.404-0.137,0.805-0.227,1.225l-0.089,0.415c-0.104,0.457-0.222,0.909-0.352,1.356l-0.066,0.239
	c-1.127,3.765-3.165,7.26-5.909,10.13l-0.083,0.087c-0.511,0.529-1.065,1.05-1.653,1.558l-0.27,0.225
	c-0.688,0.576-1.259,1.016-1.796,1.388c-0.669,0.464-1.216,0.816-1.728,1.11L268.538,490.581
	c-7.709,4.452-17.288,4.455-24.999,0.005l-151.26-87.294l122.292-138.251h177.932c4.995,0,9.042-4.047,9.042-9.042
	s-4.047-9.042-9.042-9.042H214.571L92.294,108.726l151.165-87.309c7.711-4.454,17.29-4.455,25.001-0.005l184.422,106.435
	c0.526,0.304,1.091,0.668,1.778,1.145c3.882,2.701,6.908,6.446,8.759,10.83c0.448,1.065,0.825,2.159,1.116,3.254
	c0.567,2.123,0.854,4.282,0.855,6.42l0.016,97.46h-42.566c-4.994,0-9.042,4.047-9.042,9.042c0,4.995,4.048,9.042,9.042,9.042h42.57
	l0.017,97.388C465.424,363,465.397,363.567,465.361,364.105z"/>
<g>
</g>
<g>
</g>
<g>
</g>
<g>
</g>
<g>
</g>
<g>
</g>
<g>
</g>
<g>
</g>
<g>
</g>
<g>
</g>
<g>
</g>
<g>
</g>
<g>
</g>
<g>
</g>
<g>
</g>
</svg>
