<?xml version="1.0" encoding="iso-8859-1"?>
<!-- Generator: Adobe Illustrator 19.0.0, SVG Export Plug-In . SVG Version: 6.00 Build 0)  -->
<svg version="1.1" id="Layer_1" xmlns="http://www.w3.org/2000/svg" xmlns:xlink="http://www.w3.org/1999/xlink" x="0px" y="0px"
	 viewBox="0 0 512 512" style="enable-background:new 0 0 512 512;" xml:space="preserve">
<path style="fill:#FFFFFF;" d="M473.104,371.851c0.176-0.611,0.338-1.227,0.48-1.849c0.046-0.201,0.088-0.401,0.13-0.603
	c0.113-0.541,0.213-1.085,0.3-1.634c0.037-0.237,0.076-0.474,0.11-0.711c0.075-0.545,0.133-1.093,0.181-1.644
	c0.019-0.225,0.047-0.448,0.061-0.674c0.052-0.767,0.084-1.537,0.084-2.313l0,0l0,0v-0.006l-0.006-40.904v-0.001l-0.005-26.204
	v-0.002v-4.213l-0.004-25.574l0,0l-0.008-48.824l-0.004-26.204l-0.007-40.985c0-2.996-0.407-5.93-1.16-8.75
	c-0.404-1.517-0.915-2.997-1.52-4.435c-2.477-5.877-6.575-11.016-11.925-14.74c-0.784-0.545-1.584-1.071-2.419-1.554l-22.874-13.2
	l-21.414-12.358l-17.24-9.949l-65.926-38.046l-25.717-14.842l-19.288-11.132l-11.953-6.898c-10.534-6.078-23.509-6.077-34.04,0.006
	l-11.872,6.857l-19.288,11.14l-25.717,14.854l0,0l-65.917,38.07l-28.89,16.686l-21.406,12.365l-11.284,6.517
	c-0.811,0.469-1.59,0.979-2.353,1.507c-3.272,2.266-6.073,5.068-8.333,8.236c-1.517,2.128-2.781,4.423-3.773,6.841
	c-1.655,4.031-2.558,8.399-2.557,12.899l0.007,40.912l0.004,26.204l0.012,73.738v4.011v0.85v0.001v0.013l0,0v0.005l0,0l0.004,26.2
	v0.001v1.863l0.002,12.617l0.005,26.497v0.006l0,0c0,0.773,0.031,1.539,0.084,2.305c0.016,0.224,0.042,0.445,0.061,0.668
	c0.048,0.55,0.105,1.096,0.18,1.638c0.033,0.236,0.071,0.471,0.108,0.706c0.087,0.545,0.186,1.087,0.298,1.625
	c0.042,0.201,0.084,0.403,0.13,0.603c0.14,0.614,0.298,1.221,0.471,1.825c0.033,0.113,0.061,0.227,0.095,0.34
	c0.908,3.043,2.239,5.929,3.94,8.589v0.001c0.001,0.001,0.001,0.001,0.001,0.001c1.172,1.832,2.517,3.553,4.026,5.137
	c0.049,0.052,0.098,0.106,0.148,0.158c0.709,0.735,1.454,1.439,2.231,2.113c0.125,0.108,0.254,0.213,0.382,0.321
	c0.786,0.661,1.595,1.3,2.445,1.89c0.784,0.545,1.584,1.071,2.419,1.554l22.552,13.015l21.414,12.359l17.561,10.135l91.644,52.89
	l19.288,11.132l11.953,6.898c10.533,6.078,23.509,6.077,34.04-0.006l11.872-6.857l19.288-11.14l25.717-14.853l55.554-32.086
	l10.363-5.985l26.36-15.225l21.408-12.365l13.813-7.978c0.811-0.469,1.59-0.979,2.353-1.507c0.851-0.59,1.659-1.226,2.446-1.883
	c0.129-0.107,0.258-0.213,0.386-0.323c0.779-0.672,1.526-1.374,2.237-2.11c0.046-0.048,0.09-0.098,0.136-0.146
	c3.724-3.891,6.475-8.609,8.019-13.766C473.045,372.067,473.073,371.957,473.104,371.851z"/>
<g>
	<path style="fill:#103B9B;" d="M113.23,220.135h106.906V24.466l-12.357,7.137l-25.717,14.854l0,0l-65.915,38.07l-28.89,16.686
		l-21.406,12.365l-11.284,6.517c-0.811,0.469-1.59,0.979-2.353,1.507c-3.272,2.266-6.073,5.068-8.333,8.236
		c-1.517,2.128-2.781,4.423-3.773,6.841c-1.655,4.031-2.558,8.399-2.557,12.899l0.007,40.912l0.004,26.204l0.001,3.442h41.326
		h34.342V220.135z"/>
	<path style="fill:#103B9B;" d="M474.426,220.135v-3.442l-0.004-26.204l-0.007-40.985c0-2.996-0.407-5.93-1.16-8.75
		c-0.404-1.517-0.915-2.997-1.52-4.435c-2.477-5.877-6.574-11.016-11.925-14.74c-0.784-0.545-1.584-1.071-2.419-1.554l-22.874-13.2
		l-21.414-12.358l-17.24-9.949l-65.925-38.046l-25.717-14.842l-12.357-7.132v195.638H474.426z"/>
	<path style="fill:#103B9B;" d="M37.574,291.864v2.579v0.849v0.002v0.013l0,0v0.005l0,0l0.004,26.2v0.001v1.863l0.002,12.617
		l0.005,26.497v0.006l0,0c0,0.773,0.031,1.539,0.084,2.305c0.016,0.224,0.042,0.445,0.061,0.668c0.048,0.55,0.105,1.096,0.18,1.638
		c0.033,0.236,0.071,0.471,0.108,0.706c0.087,0.545,0.184,1.086,0.298,1.625c0.042,0.201,0.084,0.403,0.13,0.603
		c0.14,0.615,0.298,1.222,0.471,1.825c0.033,0.113,0.061,0.227,0.095,0.34c0.909,3.043,2.239,5.93,3.94,8.589l0.001,0.001
		c0,0.001,0.001,0.001,0.001,0.001c1.172,1.834,2.517,3.553,4.025,5.137c0.051,0.052,0.099,0.106,0.149,0.158
		c0.709,0.735,1.454,1.439,2.231,2.113c0.125,0.108,0.256,0.213,0.382,0.321c0.786,0.661,1.594,1.3,2.445,1.89
		c0.784,0.545,1.584,1.071,2.419,1.554l22.552,13.015l21.414,12.359l17.561,10.135l91.644,52.89l12.357,7.132V291.864H37.574z"/>
	<path style="fill:#103B9B;" d="M291.864,487.534l12.357-7.137l25.717-14.853l55.554-32.086l10.363-5.985l26.36-15.224
		l21.408-12.365l13.813-7.978c0.811-0.469,1.59-0.979,2.353-1.507c0.851-0.59,1.659-1.226,2.446-1.883
		c0.129-0.107,0.258-0.213,0.386-0.323c0.779-0.671,1.526-1.374,2.237-2.11c0.046-0.048,0.09-0.098,0.136-0.146
		c3.724-3.891,6.475-8.609,8.019-13.766c0.033-0.106,0.059-0.215,0.09-0.322c0.176-0.611,0.338-1.228,0.48-1.85
		c0.046-0.201,0.088-0.401,0.13-0.603c0.113-0.541,0.213-1.085,0.3-1.633c0.037-0.237,0.076-0.474,0.11-0.711
		c0.075-0.545,0.131-1.093,0.181-1.643c0.019-0.225,0.047-0.448,0.061-0.674c0.052-0.767,0.084-1.537,0.084-2.313l0,0v-0.006
		l-0.005-40.902v-0.001l-0.005-26.204v-0.002v-3.441H291.864V487.534z"/>
</g>
<g>
	<path style="fill:#FFFFFF;" d="M150.666,394.101h-37.471c-13.918,0-25.241-11.323-25.241-25.241s11.323-25.241,25.241-25.241
		h21.271c3.947,0,7.158-3.212,7.158-7.158c0-3.947-3.212-7.158-7.158-7.158h-21.271c-4.993,0-9.041-4.048-9.041-9.041
		s4.048-9.041,9.041-9.041h21.271c13.918,0,25.241,11.323,25.241,25.241c0,13.918-11.323,25.241-25.241,25.241h-21.271
		c-3.947,0-7.158,3.212-7.158,7.158c0,3.947,3.212,7.158,7.158,7.158h37.471c4.993,0,9.041,4.048,9.041,9.041
		S155.66,394.101,150.666,394.101z"/>
	<path style="fill:#FFFFFF;" d="M150.666,200.781h-37.471c-13.918,0-25.241-11.323-25.241-25.241s11.323-25.241,25.241-25.241
		h21.271c3.947,0,7.158-3.212,7.158-7.158c0-3.947-3.212-7.158-7.158-7.158h-21.271c-4.993,0-9.041-4.047-9.041-9.041
		c0-4.993,4.048-9.041,9.041-9.041h21.271c13.918,0,25.241,11.323,25.241,25.241c0,13.918-11.323,25.241-25.241,25.241h-21.271
		c-3.947,0-7.158,3.212-7.158,7.158c0,3.947,3.212,7.158,7.158,7.158h37.471c4.993,0,9.041,4.048,9.041,9.041
		C159.707,196.732,155.66,200.781,150.666,200.781z"/>
	<path style="fill:#FFFFFF;" d="M415.005,394.101h-37.471c-13.918,0-25.241-11.323-25.241-25.241s11.323-25.241,25.241-25.241
		h21.271c3.947,0,7.158-3.212,7.158-7.158c0-3.947-3.212-7.158-7.158-7.158h-21.271c-4.993,0-9.041-4.048-9.041-9.041
		s4.048-9.041,9.041-9.041h21.271c13.918,0,25.241,11.323,25.241,25.241c0,13.918-11.323,25.241-25.241,25.241h-21.271
		c-3.947,0-7.158,3.212-7.158,7.158c0,3.947,3.211,7.158,7.158,7.158h37.471c4.993,0,9.041,4.048,9.041,9.041
		S419.998,394.101,415.005,394.101z"/>
	<path style="fill:#FFFFFF;" d="M415.005,200.781h-37.471c-13.918,0-25.241-11.323-25.241-25.241s11.323-25.241,25.241-25.241
		h21.271c3.947,0,7.158-3.212,7.158-7.158c0-3.947-3.212-7.158-7.158-7.158h-21.271c-4.993,0-9.041-4.047-9.041-9.041
		c0-4.993,4.048-9.041,9.041-9.041h21.271c13.918,0,25.241,11.323,25.241,25.241c0,13.918-11.323,25.241-25.241,25.241h-21.271
		c-3.947,0-7.158,3.212-7.158,7.158c0,3.947,3.211,7.158,7.158,7.158h37.471c4.993,0,9.041,4.048,9.041,9.041
		C424.046,196.732,419.998,200.781,415.005,200.781z"/>
</g>
<path d="M28.508,362.415c-0.001,0.913,0.033,1.873,0.105,2.931c0.016,0.24,0.037,0.48,0.061,0.721l0.014,0.143
	c0.06,0.684,0.134,1.374,0.227,2.061c0.039,0.278,0.078,0.536,0.119,0.794c0.13,0.81,0.256,1.5,0.4,2.184
	c0.055,0.265,0.11,0.52,0.168,0.773c0.18,0.784,0.383,1.566,0.608,2.34c0.041,0.154,0.09,0.327,0.143,0.497
	c1.917,6.402,5.426,12.428,10.122,17.332l0.119,0.127c0.943,0.974,1.894,1.872,2.881,2.723l0.404,0.339
	c1.185,0.99,2.2,1.77,3.184,2.452c1.104,0.763,2.049,1.367,2.984,1.905l184.37,106.486c6.542,3.779,13.994,5.777,21.547,5.777
	c0.001,0,0.001,0,0.002,0c7.549-0.001,14.994-1.995,21.532-5.767l184.411-106.429c0.967-0.559,1.969-1.199,3.064-1.963
	c0.991-0.69,2.004-1.471,3.096-2.388l0.498-0.419c0.962-0.833,1.914-1.734,2.81-2.663c0.041-0.042,0.154-0.164,0.195-0.206
	c1.89-1.984,3.603-4.172,5.089-6.494c2.166-3.389,3.844-7.047,4.988-10.875l0.111-0.392c0.23-0.804,0.429-1.573,0.608-2.351
	c0.055-0.239,0.11-0.492,0.163-0.746c0.146-0.697,0.271-1.384,0.38-2.075l0.025-0.16c0.039-0.237,0.076-0.476,0.108-0.716
	c0.098-0.71,0.171-1.402,0.231-2.095l0.014-0.143c0.024-0.233,0.045-0.468,0.061-0.702c0.071-1.043,0.105-1.998,0.105-2.919
	l0.035-212.917c0.001-5.606-1.086-11.102-3.234-16.334c-1.256-3.062-2.863-5.976-4.776-8.658
	c-2.908-4.081-6.456-7.586-10.543-10.419c-1.101-0.761-2.045-1.363-2.98-1.904L277.582,5.776C271.041,1.998,263.589,0,256.034,0
	c-7.549,0-14.994,1.994-21.533,5.767L50.091,112.197c-0.97,0.561-1.972,1.202-3.066,1.964c-6.691,4.656-11.909,11.105-15.089,18.646
	c-0.776,1.843-1.424,3.733-1.926,5.623c-0.972,3.638-1.465,7.366-1.465,11.076L28.508,362.415z M59.131,127.859l151.963-87.703
	v170.939H46.616l0.011-61.589c0-2.136,0.287-4.295,0.854-6.418c0.291-1.093,0.667-2.187,1.118-3.259
	c1.847-4.38,4.875-8.125,8.758-10.826C58.039,128.527,58.6,128.164,59.131,127.859z M452.868,384.141l-151.962,87.703V300.905
	h164.478l-0.01,61.582c0,0.576-0.025,1.139-0.064,1.7l-0.048,0.493c-0.034,0.4-0.076,0.803-0.13,1.203l-0.082,0.523
	c-0.061,0.389-0.134,0.787-0.217,1.183l-0.093,0.428c-0.106,0.465-0.223,0.911-0.35,1.354l-0.07,0.246
	c-0.653,2.19-1.612,4.29-2.849,6.239c-0.016,0.024-0.03,0.048-0.047,0.074c-0.862,1.348-1.857,2.617-2.956,3.772
	c-0.027,0.029-0.129,0.137-0.157,0.168c-0.47,0.487-1.021,1.008-1.588,1.498l-0.293,0.246c-0.662,0.556-1.25,1.011-1.787,1.385
	C453.963,383.473,453.398,383.838,452.868,384.141z M229.177,482.315V291.864c0-4.994-4.048-9.041-9.041-9.041H46.604l0.008-53.646
	h173.523c4.993,0,9.041-4.047,9.041-9.041V29.718l14.363-8.289c3.794-2.189,8.114-3.347,12.495-3.347
	c4.384,0,8.707,1.16,12.504,3.351l14.285,8.251v190.45c0,4.994,4.048,9.041,9.041,9.041H398.77c4.993,0,9.041-4.047,9.041-9.041
	c0-4.994-4.048-9.041-9.041-9.041h-97.864V40.129l152.008,87.794c0.5,0.288,1.051,0.643,1.732,1.114
	c2.359,1.633,4.417,3.671,6.111,6.048c1.109,1.554,2.041,3.244,2.771,5.025c1.248,3.042,1.882,6.227,1.881,9.467l-0.01,61.518
	h-32.287c-4.993,0-9.041,4.047-9.041,9.041s4.048,9.041,9.041,9.041h32.284l-0.008,53.646H291.865c-4.993,0-9.041,4.047-9.041,9.041
	V482.28l-14.364,8.289c-3.793,2.189-8.114,3.347-12.495,3.347h-0.001c-4.382,0-8.706-1.16-12.502-3.351L229.177,482.315z
	 M46.591,362.436l0.01-61.531h164.493v170.966L59.087,384.076c-0.501-0.288-1.051-0.641-1.734-1.114
	c-0.53-0.369-1.099-0.808-1.784-1.382l-0.293-0.242c-0.568-0.489-1.121-1.011-1.636-1.543l-0.083-0.09
	c-2.74-2.863-4.776-6.354-5.905-10.118l-0.06-0.218c-0.137-0.477-0.257-0.929-0.362-1.385l-0.096-0.447
	c-0.08-0.387-0.154-0.787-0.218-1.191l-0.082-0.528c-0.053-0.385-0.095-0.79-0.13-1.197l-0.051-0.52
	C46.616,363.566,46.59,363.003,46.591,362.436z"/>
<g>
</g>
<g>
</g>
<g>
</g>
<g>
</g>
<g>
</g>
<g>
</g>
<g>
</g>
<g>
</g>
<g>
</g>
<g>
</g>
<g>
</g>
<g>
</g>
<g>
</g>
<g>
</g>
<g>
</g>
</svg>
