<?xml version="1.0" encoding="iso-8859-1"?>
<!-- Generator: Adobe Illustrator 19.0.0, SVG Export Plug-In . SVG Version: 6.00 Build 0)  -->
<svg version="1.1" id="Layer_1" xmlns="http://www.w3.org/2000/svg" xmlns:xlink="http://www.w3.org/1999/xlink" x="0px" y="0px"
	 viewBox="0 0 512 512" style="enable-background:new 0 0 512 512;" xml:space="preserve">
<path style="fill:#FFFFFF;" d="M473.102,371.851c0.176-0.611,0.338-1.228,0.479-1.85c0.047-0.201,0.089-0.401,0.131-0.603
	c0.113-0.541,0.213-1.085,0.3-1.634c0.037-0.236,0.076-0.473,0.11-0.711c0.076-0.545,0.131-1.093,0.18-1.643
	c0.02-0.225,0.047-0.448,0.063-0.674c0.052-0.767,0.084-1.537,0.083-2.313l0,0l0,0v-0.006l-0.006-40.904v-0.001l-0.005-26.204
	v-0.002l-0.001-4.213l-0.004-25.574l0,0l-0.008-48.824l-0.005-26.204l-0.006-40.985c-0.001-2.996-0.409-5.93-1.161-8.75
	c-0.405-1.517-0.915-2.997-1.521-4.435c-2.477-5.877-6.574-11.016-11.924-14.74c-0.784-0.545-1.584-1.071-2.421-1.554l-22.874-13.2
	l-21.414-12.358l-17.24-9.949l-65.921-38.046L304.22,31.629l-19.288-11.132l-11.953-6.898c-10.533-6.078-23.509-6.077-34.04,0.006
	l-11.872,6.857l-19.288,11.14l-25.717,14.854l0,0l-65.915,38.07l-28.89,16.686l-21.408,12.365l-11.282,6.517
	c-0.813,0.469-1.59,0.979-2.353,1.507c-3.272,2.266-6.072,5.068-8.331,8.236c-1.517,2.128-2.781,4.423-3.774,6.841
	c-1.654,4.031-2.557,8.399-2.557,12.899l0.007,40.912l0.005,26.204l0.012,73.738l0.001,4.011v0.849v0.002v0.013l0,0v0.005l0,0
	l0.005,26.2l0,0v1.864l0.002,12.617l0.004,26.497v0.006l0,0c0.001,0.773,0.033,1.539,0.084,2.304
	c0.016,0.224,0.042,0.446,0.061,0.669c0.049,0.55,0.106,1.096,0.18,1.638c0.033,0.236,0.072,0.471,0.11,0.706
	c0.086,0.546,0.184,1.087,0.297,1.626c0.043,0.201,0.086,0.403,0.131,0.603c0.14,0.615,0.298,1.222,0.471,1.825
	c0.033,0.113,0.061,0.227,0.095,0.34c0.909,3.042,2.239,5.93,3.941,8.589c0,0,0,0.001,0,0.002l0.002,0.001
	c1.172,1.832,2.517,3.551,4.026,5.137c0.049,0.052,0.098,0.106,0.147,0.158c0.71,0.735,1.454,1.439,2.233,2.112
	c0.125,0.11,0.256,0.215,0.382,0.322c0.786,0.661,1.594,1.3,2.444,1.89c0.784,0.545,1.584,1.07,2.421,1.554l22.552,13.015
	l21.414,12.359l17.561,10.135l91.644,52.89l19.288,11.132l11.953,6.898c10.533,6.078,23.509,6.077,34.04-0.006l11.872-6.857
	l19.288-11.14l25.717-14.853l55.554-32.086l10.363-5.985l26.36-15.224l21.408-12.365l13.813-7.978
	c0.813-0.469,1.59-0.979,2.352-1.507c0.851-0.59,1.66-1.226,2.446-1.883c0.129-0.107,0.259-0.213,0.386-0.323
	c0.779-0.671,1.526-1.374,2.236-2.11c0.046-0.048,0.09-0.098,0.136-0.146c3.725-3.891,6.475-8.609,8.019-13.765
	C473.044,372.067,473.072,371.958,473.102,371.851z"/>
<path style="fill:#3DB4EA;" d="M474.415,149.505c-0.001-2.996-0.409-5.93-1.161-8.75c-0.405-1.517-0.915-2.997-1.52-4.435
	c-2.479-5.877-6.575-11.016-11.925-14.74c-0.784-0.545-1.584-1.071-2.421-1.554l-22.874-13.2l-21.414-12.358l-17.24-9.949
	l-65.924-38.047L304.22,31.629l-19.288-11.132l-11.953-6.898c-10.533-6.078-23.509-6.077-34.04,0.006l-11.872,6.857l-19.288,11.14
	l-25.717,14.854l0,0l-65.915,38.07l-28.89,16.686l-21.408,12.365l-11.282,6.517c-0.813,0.469-1.59,0.979-2.353,1.507
	c-3.273,2.266-6.072,5.068-8.331,8.236c-1.517,2.128-2.781,4.423-3.774,6.841c-1.654,4.031-2.557,8.399-2.557,12.899l0.006,32.916
	h436.866L474.415,149.505z"/>
<path style="fill:#259245;" d="M37.58,335.992l0.004,26.497v0.006l0,0c0.001,0.773,0.033,1.539,0.084,2.304
	c0.016,0.224,0.042,0.446,0.061,0.669c0.049,0.55,0.106,1.096,0.18,1.638c0.033,0.236,0.072,0.471,0.11,0.706
	c0.086,0.546,0.184,1.087,0.297,1.626c0.042,0.201,0.086,0.403,0.131,0.603c0.14,0.615,0.298,1.222,0.471,1.825
	c0.033,0.113,0.061,0.227,0.095,0.34c0.909,3.042,2.239,5.93,3.94,8.589c0.001,0,0.001,0.001,0.001,0.002l0.002,0.001
	c1.172,1.832,2.517,3.551,4.026,5.137c0.049,0.052,0.098,0.106,0.147,0.158c0.71,0.735,1.454,1.439,2.233,2.112
	c0.125,0.11,0.256,0.215,0.382,0.322c0.786,0.661,1.594,1.3,2.444,1.89c0.784,0.545,1.584,1.071,2.421,1.554l22.552,13.015
	l21.414,12.359l17.561,10.135l91.644,52.89l19.288,11.132l11.953,6.898c10.533,6.078,23.509,6.077,34.04-0.006l11.872-6.857
	l19.288-11.14l25.717-14.853l55.554-32.086l10.363-5.985l26.36-15.225l21.408-12.365l13.813-7.978
	c0.813-0.469,1.59-0.979,2.352-1.507c0.852-0.59,1.66-1.226,2.446-1.883c0.129-0.107,0.259-0.213,0.386-0.323
	c0.779-0.672,1.526-1.374,2.236-2.11c0.047-0.048,0.09-0.098,0.136-0.146c3.725-3.891,6.475-8.609,8.019-13.765
	c0.033-0.106,0.06-0.215,0.09-0.322c0.176-0.611,0.338-1.228,0.479-1.85c0.047-0.201,0.089-0.401,0.131-0.603
	c0.113-0.541,0.213-1.085,0.3-1.633c0.037-0.236,0.076-0.473,0.11-0.711c0.076-0.545,0.131-1.093,0.18-1.643
	c0.02-0.225,0.046-0.448,0.063-0.674c0.052-0.767,0.083-1.537,0.083-2.313l0,0v-0.006l-0.005-32.91H37.579L37.58,335.992z"/>
<g>
	<polygon style="fill:#B21727;" points="474.444,321.511 474.441,311.424 37.577,311.424 37.578,321.511 37.578,321.511 
		37.578,323.375 37.579,329.507 474.445,329.507 474.444,321.512 	"/>
	<polygon style="fill:#B21727;" points="474.421,190.489 474.42,182.493 37.554,182.493 37.555,190.489 37.557,200.576 
		474.422,200.576 	"/>
</g>
<path style="fill:#FFFFFF;" d="M252.064,156.028c0,5.284-4.299,9.583-9.583,9.583c-5.284,0-9.581-4.299-9.581-9.583
	c0-5.284,4.298-9.583,9.581-9.583C247.765,146.445,252.064,150.744,252.064,156.028z M305.473,146.445
	c-5.284,0-9.583,4.299-9.583,9.583c0,5.284,4.299,9.583,9.583,9.583c5.284,0,9.581-4.299,9.581-9.583
	C315.055,150.744,310.757,146.445,305.473,146.445z M273.978,146.445c-5.284,0-9.581,4.299-9.581,9.583
	c0,5.284,4.298,9.583,9.581,9.583c5.284,0,9.581-4.299,9.581-9.583C283.559,150.744,279.26,146.445,273.978,146.445z
	 M305.473,114.228c5.284,0,9.581-4.299,9.581-9.583c0-5.284-4.298-9.583-9.581-9.583c-5.284,0-9.583,4.298-9.583,9.583
	C295.891,109.929,300.191,114.228,305.473,114.228z M210.986,146.445c-5.284,0-9.583,4.299-9.583,9.583
	c0,5.284,4.299,9.583,9.583,9.583c5.284,0,9.581-4.299,9.581-9.583C220.567,150.744,216.268,146.445,210.986,146.445z
	 M242.481,120.483c-5.284,0-9.581,4.298-9.581,9.583c0,5.285,4.298,9.583,9.581,9.583c5.284,0,9.583-4.298,9.583-9.583
	C252.064,124.781,247.764,120.483,242.481,120.483z M273.978,120.483c-5.284,0-9.581,4.298-9.581,9.583
	c0,5.285,4.298,9.583,9.581,9.583c5.284,0,9.581-4.298,9.581-9.583C283.559,124.781,279.26,120.483,273.978,120.483z
	 M242.481,95.062c-5.284,0-9.581,4.298-9.581,9.583c0,5.284,4.298,9.583,9.581,9.583c5.284,0,9.583-4.299,9.583-9.583
	C252.064,99.361,247.764,95.062,242.481,95.062z M273.978,95.062c-5.284,0-9.581,4.298-9.581,9.583c0,5.284,4.298,9.583,9.581,9.583
	c5.284,0,9.581-4.299,9.581-9.583C283.559,99.361,279.26,95.062,273.978,95.062z M210.986,120.483c-5.284,0-9.583,4.298-9.583,9.583
	c0,5.285,4.299,9.583,9.583,9.583c5.284,0,9.581-4.298,9.581-9.583C220.567,124.781,216.268,120.483,210.986,120.483z
	 M179.489,146.445c-5.284,0-9.581,4.299-9.581,9.583c0,5.284,4.298,9.583,9.581,9.583c5.284,0,9.583-4.299,9.583-9.583
	C189.072,150.744,184.772,146.445,179.489,146.445z M305.473,120.483c-5.284,0-9.583,4.298-9.583,9.583
	c0,5.285,4.299,9.583,9.583,9.583c5.284,0,9.581-4.298,9.581-9.583C315.055,124.781,310.757,120.483,305.473,120.483z
	 M157.575,156.298c0-4.994-4.047-9.041-9.041-9.041c-9.33,0-16.921-7.591-16.921-16.921s7.591-16.919,16.921-16.919
	c4.994,0,9.041-4.048,9.041-9.041c0-4.994-4.047-9.041-9.041-9.041c-19.302,0-35.003,15.702-35.003,35.002
	c0,19.302,15.702,35.003,35.003,35.003C153.527,165.339,157.575,161.291,157.575,156.298z"/>
<path d="M256.035,512L256.035,512c-7.55,0-14.995-1.995-21.534-5.768L50.09,399.803c-0.975-0.563-1.947-1.185-3.062-1.96
	c-0.986-0.687-1.999-1.468-3.097-2.391l-0.489-0.412c-0.969-0.838-1.919-1.737-2.816-2.667c-0.049-0.051-0.177-0.189-0.227-0.241
	c-1.854-1.947-3.567-4.13-5.051-6.45c-0.002-0.004-0.005-0.007-0.007-0.011l0,0c-0.012-0.019-0.024-0.037-0.036-0.057
	c-2.148-3.369-3.814-7.009-4.952-10.821c-0.031-0.106-0.075-0.254-0.115-0.403c-0.227-0.794-0.427-1.564-0.604-2.339
	c-0.055-0.243-0.11-0.498-0.164-0.753c-0.145-0.69-0.271-1.382-0.381-2.08c-0.055-0.344-0.095-0.603-0.131-0.863
	c-0.098-0.711-0.171-1.403-0.23-2.095l-0.013-0.129c-0.025-0.239-0.047-0.477-0.064-0.72c-0.071-1.036-0.105-1.99-0.105-2.917
	L28.509,149.58c0-5.608,1.087-11.103,3.234-16.332c1.26-3.066,2.866-5.977,4.776-8.658c2.913-4.084,6.459-7.589,10.545-10.421
	c1.093-0.757,2.041-1.361,2.985-1.906L234.416,5.776C240.959,1.998,248.41,0,255.964,0c7.55,0,14.995,1.995,21.534,5.768
	l184.411,106.428c0.98,0.565,1.953,1.189,3.066,1.964c6.692,4.656,11.911,11.104,15.091,18.647c0.778,1.846,1.425,3.735,1.928,5.623
	c0.97,3.638,1.464,7.366,1.464,11.075l0.035,212.911c0.001,0.911-0.033,1.872-0.105,2.931c-0.016,0.241-0.037,0.48-0.063,0.72
	l-0.014,0.143c-0.06,0.685-0.134,1.375-0.227,2.063c-0.039,0.278-0.078,0.534-0.121,0.791l-0.019,0.121
	c-0.111,0.692-0.236,1.38-0.379,2.064c-0.057,0.265-0.11,0.517-0.168,0.769c-0.181,0.791-0.385,1.571-0.609,2.344
	c-0.04,0.151-0.087,0.316-0.137,0.481c-1.923,6.421-5.432,12.445-10.126,17.35l-0.153,0.163c-0.911,0.94-1.864,1.838-2.85,2.689
	l-0.475,0.398c-1.107,0.927-2.119,1.705-3.107,2.389c-1.096,0.758-2.043,1.362-2.987,1.907l-184.37,106.487
	C271.04,510.002,263.589,512,256.035,512z M50.605,375.976c0.857,1.332,1.84,2.585,2.926,3.723c0.035,0.037,0.136,0.147,0.172,0.184
	c0.454,0.471,1.007,0.993,1.574,1.484l0.264,0.221c0.706,0.593,1.277,1.036,1.814,1.41c0.686,0.477,1.251,0.841,1.777,1.144
	l184.41,106.428c3.793,2.189,8.114,3.347,12.495,3.347c4.383,0,8.707-1.159,12.504-3.351l184.371-106.49
	c0.509-0.293,1.057-0.646,1.731-1.111c0.529-0.368,1.118-0.822,1.788-1.383l0.288-0.24c0.573-0.493,1.126-1.014,1.639-1.546
	l0.077-0.084c2.745-2.868,4.78-6.358,5.908-10.118l0.063-0.224c0.137-0.477,0.257-0.929,0.362-1.386l0.096-0.446
	c0.08-0.386,0.154-0.787,0.218-1.191l0.083-0.533c0.052-0.381,0.093-0.787,0.128-1.193l0.051-0.518
	c0.036-0.534,0.063-1.097,0.061-1.664l-0.035-212.931c0-2.136-0.287-4.295-0.854-6.419c-0.291-1.09-0.667-2.186-1.119-3.26
	c-1.847-4.378-4.875-8.124-8.756-10.824c-0.686-0.477-1.25-0.841-1.777-1.145L268.459,21.429c-3.794-2.189-8.114-3.347-12.495-3.347
	c-4.383,0-8.707,1.16-12.504,3.351L59.087,127.924c-0.509,0.293-1.057,0.646-1.731,1.111c-2.36,1.636-4.418,3.672-6.114,6.05
	c-1.107,1.554-2.04,3.245-2.773,5.027c-1.247,3.038-1.879,6.223-1.879,9.465l0.036,212.909c0,0.576,0.025,1.139,0.063,1.7
	l0.047,0.476c0.037,0.417,0.077,0.82,0.131,1.22l0.059,0.374c0,0.002,0.02,0.122,0.02,0.124c0.066,0.42,0.137,0.81,0.219,1.199
	l0.095,0.44c0.105,0.463,0.222,0.91,0.348,1.354l0.076,0.269c0.655,2.194,1.629,4.315,2.886,6.281
	C50.582,375.941,50.594,375.958,50.605,375.976z"/>
<g>
</g>
<g>
</g>
<g>
</g>
<g>
</g>
<g>
</g>
<g>
</g>
<g>
</g>
<g>
</g>
<g>
</g>
<g>
</g>
<g>
</g>
<g>
</g>
<g>
</g>
<g>
</g>
<g>
</g>
</svg>
