<?xml version="1.0" encoding="iso-8859-1"?>
<!-- Generator: Adobe Illustrator 19.0.0, SVG Export Plug-In . SVG Version: 6.00 Build 0)  -->
<svg version="1.1" id="Layer_1" xmlns="http://www.w3.org/2000/svg" xmlns:xlink="http://www.w3.org/1999/xlink" x="0px" y="0px"
	 viewBox="0 0 512 512" style="enable-background:new 0 0 512 512;" xml:space="preserve">
<path style="fill:#FFFFFF;" d="M473.103,371.851c0.176-0.611,0.338-1.228,0.479-1.85c0.047-0.201,0.089-0.401,0.131-0.603
	c0.113-0.541,0.213-1.085,0.3-1.634c0.037-0.236,0.076-0.473,0.11-0.711c0.076-0.545,0.131-1.093,0.18-1.643
	c0.02-0.225,0.047-0.447,0.063-0.674c0.052-0.767,0.084-1.537,0.084-2.313l0,0l0,0v-0.006l-0.005-40.904v-0.001l-0.005-26.204
	v-0.002l-0.001-4.213l-0.004-25.574l0,0l-0.008-48.824l-0.005-26.204l-0.007-40.985c0-2.996-0.406-5.93-1.16-8.75
	c-0.405-1.517-0.915-2.997-1.52-4.435c-2.479-5.877-6.575-11.016-11.925-14.74c-0.784-0.545-1.584-1.071-2.421-1.554l-22.874-13.2
	l-21.414-12.358l-17.24-9.949L329.936,46.47l-25.717-14.842L284.93,20.496l-11.953-6.898c-10.533-6.078-23.509-6.077-34.04,0.006
	l-11.872,6.857l-19.288,11.14l-25.717,14.854l0,0l-65.913,38.072l-28.89,16.686l-21.408,12.365l-11.282,6.517
	c-0.811,0.469-1.59,0.979-2.353,1.507c-3.272,2.266-6.073,5.068-8.331,8.236c-1.517,2.128-2.781,4.423-3.773,6.841
	c-1.655,4.031-2.558,8.399-2.557,12.899l0.006,40.912l0.005,26.204l0.012,73.738v4.011v0.849v0.002v0.013l0,0v0.005l0,0l0.005,26.2
	l0,0v1.864l0.002,12.617l0.004,26.497v0.006l0,0c0,0.773,0.033,1.539,0.084,2.304c0.016,0.224,0.042,0.446,0.061,0.669
	c0.048,0.55,0.105,1.096,0.18,1.638c0.033,0.236,0.072,0.471,0.108,0.706c0.087,0.546,0.186,1.087,0.298,1.626
	c0.042,0.201,0.086,0.403,0.131,0.603c0.14,0.615,0.298,1.222,0.471,1.825c0.033,0.113,0.061,0.227,0.095,0.34
	c0.909,3.042,2.24,5.93,3.94,8.589v0.001l0.002,0.002c1.172,1.832,2.517,3.551,4.025,5.137c0.051,0.052,0.099,0.106,0.148,0.158
	c0.709,0.735,1.454,1.439,2.231,2.112c0.125,0.11,0.254,0.215,0.382,0.322c0.786,0.661,1.595,1.3,2.445,1.89
	c0.784,0.545,1.584,1.07,2.419,1.554l22.552,13.015l21.414,12.359l17.561,10.135l91.644,52.89l19.288,11.132l11.953,6.898
	c10.533,6.078,23.509,6.077,34.04-0.006l11.872-6.857l19.288-11.14l25.717-14.853l55.554-32.086l10.363-5.985l26.36-15.224
	l21.408-12.365l13.813-7.978c0.813-0.469,1.59-0.979,2.353-1.507c0.85-0.59,1.659-1.226,2.445-1.883
	c0.129-0.107,0.259-0.213,0.386-0.322c0.779-0.673,1.526-1.375,2.236-2.11c0.046-0.048,0.09-0.098,0.136-0.146
	c3.725-3.891,6.475-8.609,8.019-13.765C473.045,372.067,473.073,371.958,473.103,371.851z"/>
<g>
	<path style="fill:#ED1F34;" d="M474.445,321.511l-0.001-3.269H108.472H71.127h-33.55l0.001,3.269v0.001v1.863l0.001,12.617
		l0.005,26.497v0.006l0,0c0,0.773,0.033,1.539,0.084,2.304c0.016,0.225,0.042,0.446,0.061,0.669c0.049,0.55,0.105,1.096,0.18,1.638
		c0.033,0.236,0.071,0.471,0.11,0.706c0.086,0.546,0.184,1.087,0.298,1.626c0.042,0.201,0.084,0.403,0.13,0.603
		c0.14,0.615,0.298,1.222,0.471,1.825c0.033,0.113,0.061,0.227,0.095,0.34c0.909,3.042,2.239,5.93,3.94,8.589v0.001l0.002,0.002
		c1.172,1.832,2.517,3.551,4.025,5.137c0.051,0.052,0.099,0.106,0.148,0.158c0.709,0.735,1.454,1.441,2.231,2.112
		c0.125,0.11,0.254,0.215,0.382,0.322c0.786,0.661,1.594,1.3,2.445,1.89c0.784,0.545,1.584,1.07,2.419,1.554l22.552,13.015
		l21.414,12.359l17.561,10.135l91.644,52.89l19.288,11.132l11.953,6.898c10.533,6.078,23.509,6.077,34.04-0.006l11.872-6.857
		l19.288-11.14l25.717-14.853l55.554-32.086l10.363-5.985l26.36-15.224l21.408-12.365l13.813-7.978
		c0.813-0.469,1.59-0.979,2.353-1.507c0.85-0.59,1.659-1.226,2.445-1.883c0.129-0.107,0.259-0.213,0.386-0.323
		c0.779-0.671,1.526-1.374,2.236-2.11c0.047-0.048,0.09-0.098,0.136-0.146c3.724-3.891,6.475-8.609,8.019-13.765
		c0.033-0.106,0.06-0.215,0.09-0.322c0.176-0.611,0.338-1.228,0.479-1.85c0.047-0.201,0.089-0.401,0.131-0.603
		c0.113-0.541,0.213-1.085,0.3-1.633c0.037-0.236,0.076-0.473,0.11-0.711c0.076-0.545,0.131-1.093,0.18-1.643
		c0.021-0.225,0.047-0.447,0.063-0.674c0.052-0.767,0.084-1.537,0.084-2.313l0,0v-0.006l-0.001-40.903V321.511z"/>
	<polygon style="fill:#ED1F34;" points="349.63,206.208 349.63,148.86 311.042,148.86 311.042,206.208 279.652,206.208 
		279.652,119.07 232.349,119.07 232.349,206.208 200.96,206.208 200.96,148.86 162.37,148.86 162.37,206.208 149.923,206.208 
		149.923,280.896 362.08,280.896 362.08,206.208 	"/>
</g>
<path style="fill:#FFE000;" d="M289.46,310.732l-21.633-14.516l12.331-23.095c2.352-4.405,0.687-9.883-3.718-12.235
	c-4.406-2.353-9.882-0.687-12.234,3.717l-8.206,15.369l-8.207-15.369c-2.352-4.405-7.829-6.069-12.234-3.717
	c-4.405,2.352-6.069,7.83-3.717,12.234l12.331,23.094l-21.635,14.518c-2.503,1.679-4.004,4.494-4.004,7.508
	c0,3.014,1.502,5.829,4.004,7.508l24.419,16.385v29.306h-7.141c-4.993,0-9.041,4.048-9.041,9.041c0,4.993,4.048,9.041,9.041,9.041
	h7.141v6.814h-7.141c-4.993,0-9.041,4.048-9.041,9.041s4.048,9.041,9.041,9.041H256c4.994,0,9.041-4.048,9.041-9.041v-63.244
	l24.419-16.385c2.503-1.679,4.004-4.495,4.004-7.508C293.465,315.227,291.963,312.412,289.46,310.732z M256,326.423l-12.196-8.184
	L256,310.056l12.195,8.183L256,326.423z"/>
<path d="M256,310.057l12.195,8.183L256,326.425l-12.196-8.184L256,310.057z M222.54,310.732l2.286-1.533H108.472
	c-4.993,0-9.041,4.048-9.041,9.041c0,4.993,4.048,9.041,9.041,9.041h116.354l-2.286-1.533c-2.503-1.679-4.004-4.495-4.004-7.508
	C218.536,315.227,220.037,312.41,222.54,310.732z M280.705,271.854c-0.152,0.429-0.326,0.854-0.546,1.267l-8.979,16.816h108.327
	c4.994,0,9.041-4.048,9.041-9.041s-4.047-9.041-9.041-9.041h-8.386v-58.339c2.259-1.644,3.735-4.301,3.735-7.309
	c0-4.993-4.047-9.041-9.041-9.041h-7.142V148.86c0-4.993-4.047-9.041-9.041-9.041h-38.59c-4.994,0-9.041,4.048-9.041,9.041v48.305
	h-13.307V119.07c0-4.993-4.047-9.041-9.041-9.041H232.35c-4.993,0-9.041,4.048-9.041,9.041v78.095h-13.308V148.86
	c0-4.993-4.048-9.041-9.041-9.041h-38.589c-4.993,0-9.041,4.048-9.041,9.041v48.305h-7.14c-4.993,0-9.041,4.048-9.041,9.041
	c0,3.008,1.474,5.665,3.735,7.309v58.339h-8.387c-4.993,0-9.041,4.048-9.041,9.041c0,4.993,4.048,9.041,9.041,9.041h108.327
	l-8.979-16.816c-0.221-0.414-0.395-0.838-0.546-1.267h-72.332v-56.606h3.407c4.993,0,9.041-4.048,9.041-9.041v-48.305h20.506v48.305
	c0,4.993,4.048,9.041,9.041,9.041h31.391c4.993,0,9.041-4.048,9.041-9.041v-78.095h29.219v78.095c0,4.993,4.047,9.041,9.041,9.041
	h31.389c4.994,0,9.041-4.048,9.041-9.041v-48.305h20.507v48.305c0,4.993,4.047,9.041,9.041,9.041h3.407v56.606H280.705z
	 M264.206,264.604c0.243-0.457,0.529-0.878,0.835-1.274v-19.778c0-4.993-4.047-9.041-9.041-9.041c-4.993,0-9.041,4.048-9.041,9.041
	v19.78c0.306,0.397,0.591,0.816,0.834,1.272L256,279.974L264.206,264.604z M483.491,362.414c0.001,0.911-0.033,1.872-0.105,2.931
	c-0.016,0.241-0.037,0.48-0.063,0.72l-0.014,0.145c-0.06,0.685-0.134,1.377-0.227,2.063c-0.039,0.276-0.078,0.532-0.119,0.787
	l-0.02,0.121c-0.111,0.696-0.236,1.384-0.379,2.067c-0.055,0.262-0.11,0.515-0.168,0.769c-0.181,0.791-0.385,1.572-0.609,2.345
	c-0.039,0.148-0.087,0.318-0.14,0.486c-1.92,6.413-5.43,12.439-10.124,17.344l-0.153,0.162c-0.911,0.942-1.864,1.84-2.85,2.69
	l-0.475,0.398c-1.11,0.928-2.123,1.706-3.107,2.388c-1.096,0.758-2.043,1.363-2.987,1.908L277.584,506.224
	c-6.542,3.778-13.992,5.776-21.547,5.776l0,0c-7.549,0-14.995-1.995-21.534-5.768L50.091,399.803
	c-0.978-0.564-1.951-1.187-3.064-1.963c-0.985-0.686-1.999-1.467-3.096-2.389l-0.481-0.405c-0.99-0.857-1.938-1.756-2.827-2.677
	c-0.04-0.042-0.154-0.163-0.194-0.205c-1.869-1.964-3.567-4.125-5.041-6.422c-0.017-0.025-0.033-0.051-0.049-0.076
	c-2.165-3.388-3.843-7.046-4.986-10.873l-0.112-0.392c-0.23-0.805-0.43-1.574-0.608-2.351c-0.054-0.239-0.108-0.493-0.163-0.747
	c-0.146-0.7-0.271-1.385-0.38-2.076l-0.025-0.158c-0.039-0.239-0.076-0.476-0.108-0.716c-0.098-0.71-0.171-1.402-0.231-2.096
	l-0.014-0.143c-0.024-0.234-0.046-0.467-0.061-0.703c-0.071-1.043-0.105-1.995-0.105-2.917l-0.035-212.917
	c0-5.608,1.087-11.103,3.234-16.334c1.256-3.062,2.863-5.975,4.775-8.657c2.913-4.083,6.46-7.589,10.546-10.419
	c1.089-0.753,2.034-1.357,2.979-1.904L234.419,5.776C240.96,1.998,248.411,0,255.965,0c7.55,0,14.995,1.995,21.534,5.768
	L461.91,112.198c0.98,0.565,1.953,1.189,3.066,1.964c6.692,4.656,11.911,11.104,15.091,18.646c0.778,1.846,1.425,3.736,1.928,5.623
	c0.97,3.638,1.463,7.366,1.463,11.075L483.491,362.414z M465.408,362.436l-0.006-35.155H287.176l2.286-1.533
	c2.503-1.679,4.004-4.495,4.004-7.508c0-3.014-1.501-5.829-4.004-7.508l-2.286-1.533h178.225l-0.027-159.693
	c0-2.137-0.287-4.296-0.854-6.421c-0.291-1.09-0.667-2.186-1.119-3.26c-1.847-4.378-4.875-8.124-8.756-10.824
	c-0.686-0.477-1.25-0.841-1.777-1.145L268.46,21.429c-3.794-2.188-8.114-3.347-12.495-3.347c-4.383,0-8.707,1.16-12.504,3.351
	L59.087,127.924c-0.509,0.294-1.058,0.647-1.73,1.111c-2.36,1.635-4.419,3.672-6.116,6.05c-1.107,1.554-2.04,3.244-2.77,5.025
	c-1.248,3.04-1.881,6.227-1.881,9.466l0.027,159.623h24.509c4.993,0,9.041,4.048,9.041,9.041c0,4.993-4.048,9.041-9.041,9.041H46.62
	l0.006,35.206c0,0.575,0.025,1.138,0.064,1.7l0.048,0.495c0.035,0.399,0.076,0.802,0.13,1.201l0.082,0.523
	c0.061,0.392,0.134,0.79,0.217,1.185l0.092,0.427c0.106,0.467,0.224,0.913,0.351,1.357l0.066,0.239
	c0.658,2.206,1.623,4.313,2.869,6.271c0.01,0.014,0.019,0.029,0.028,0.043c0.864,1.35,1.859,2.62,2.957,3.773
	c0.027,0.028,0.128,0.136,0.154,0.164c0.468,0.485,1.02,1.008,1.596,1.507l0.288,0.24c0.674,0.565,1.244,1.008,1.783,1.383
	c0.687,0.479,1.253,0.843,1.778,1.146l184.408,106.428c3.794,2.189,8.114,3.347,12.495,3.347c4.383,0,8.707-1.159,12.504-3.351
	l184.373-106.49c0.509-0.294,1.057-0.646,1.731-1.111c0.528-0.365,1.115-0.82,1.79-1.384l0.286-0.239
	c0.573-0.493,1.126-1.014,1.639-1.546l0.083-0.09c2.738-2.862,4.774-6.351,5.902-10.109l0.061-0.224
	c0.139-0.48,0.258-0.932,0.363-1.389l0.095-0.441c0.081-0.392,0.156-0.793,0.219-1.197l0.082-0.53
	c0.053-0.383,0.094-0.788,0.129-1.195l0.051-0.52C465.384,363.566,465.41,363.004,465.408,362.436z"/>
<g>
</g>
<g>
</g>
<g>
</g>
<g>
</g>
<g>
</g>
<g>
</g>
<g>
</g>
<g>
</g>
<g>
</g>
<g>
</g>
<g>
</g>
<g>
</g>
<g>
</g>
<g>
</g>
<g>
</g>
</svg>
