<?xml version="1.0" encoding="iso-8859-1"?>
<!-- Generator: Adobe Illustrator 19.0.0, SVG Export Plug-In . SVG Version: 6.00 Build 0)  -->
<svg version="1.1" id="Layer_1" xmlns="http://www.w3.org/2000/svg" xmlns:xlink="http://www.w3.org/1999/xlink" x="0px" y="0px"
	 viewBox="0 0 512.1 512.1" style="enable-background:new 0 0 512.1 512.1;" xml:space="preserve">
<path style="fill:#FFFFFF;" d="M473.15,371.8c0.2-0.6,0.3-1.2,0.5-1.8c0-0.2,0.1-0.4,0.1-0.6c0.1-0.5,0.2-1.1,0.3-1.6
	c0-0.2,0.1-0.5,0.1-0.7c0.1-0.5,0.1-1.1,0.2-1.6c0-0.2,0-0.4,0.1-0.7c0.1-0.8,0.1-1.5,0.1-2.3l0,0l0,0l0,0v-40.9l0,0v-26.2l0,0v-4.2
	v-25.6l0,0v-48.8v-26.2v-41c0-3-0.4-5.9-1.2-8.7c-0.4-1.5-0.9-3-1.5-4.4c-2.5-5.9-6.6-11-11.9-14.7c-0.8-0.5-1.6-1.1-2.4-1.6
	l-22.9-13.2l-21.4-12.4l-17.2-9.9l-65.9-38l-25.7-14.8l-19.3-11.1l-12-6.9c-10.5-6.1-23.5-6.1-34,0l-11.9,6.9l-19.3,11.1l-25.7,14.9
	l0,0l-65.9,38.1l-28.9,16.7L66.05,114l-11.3,6.5c-0.8,0.5-1.6,1-2.4,1.5c-3.3,2.3-6.1,5.1-8.3,8.2c-1.5,2.1-2.8,4.4-3.8,6.8
	c-1.7,4-2.6,8.4-2.6,12.9v40.9V217v73.7v4v0.8l0,0l0,0l0,0l0,0l0,0v26.2l0,0v1.9v12.6v26.5l0,0l0,0c0,0.8,0,1.5,0.1,2.3
	c0,0.2,0,0.4,0.1,0.7c0,0.5,0.1,1.1,0.2,1.6c0,0.2,0.1,0.5,0.1,0.7c0.1,0.5,0.2,1.1,0.3,1.6c0,0.2,0.1,0.4,0.1,0.6
	c0.1,0.6,0.3,1.2,0.5,1.8c0,0.1,0.1,0.2,0.1,0.3c0.9,3,2.2,5.9,3.9,8.6l0,0l0,0c1.2,1.8,2.5,3.6,4,5.1c0.1,0.1,0.1,0.1,0.1,0.2
	c0.7,0.7,1.5,1.4,2.2,2.1c0.1,0.1,0.3,0.2,0.4,0.3c0.8,0.7,1.6,1.3,2.4,1.9c0.8,0.5,1.6,1.1,2.4,1.6l22.6,13l21.4,12.4l17.6,10.1
	l91.6,52.9l19.3,11.1l12,6.9c10.5,6.1,23.5,6.1,34,0l11.9-6.9l19.3-11.1l25.7-14.9l55.6-32.1l10.4-6l26.4-15.2l21.4-12.4l13.8-8
	c0.8-0.5,1.6-1,2.4-1.5c0.9-0.6,1.7-1.2,2.4-1.9c0.1-0.1,0.3-0.2,0.4-0.3c0.8-0.7,1.5-1.4,2.2-2.1l0.1-0.1c3.7-3.9,6.5-8.6,8-13.8
	C473.05,372.1,473.15,372,473.15,371.8z"/>
<g>
	<path style="fill:#ED1F34;" d="M38.35,369.4c0,0.2,0.1,0.4,0.1,0.6c0.1,0.6,0.3,1.2,0.5,1.8c0,0.1,0.1,0.2,0.1,0.3
		c0.9,3,2.2,5.9,3.9,8.6l0,0l0,0c1.2,1.8,2.5,3.6,4,5.1c0.1,0.1,0.1,0.1,0.1,0.2c0.7,0.7,1.5,1.4,2.2,2.1c0.1,0.1,0.3,0.2,0.4,0.3
		c0.8,0.7,1.6,1.3,2.4,1.9c0.8,0.5,1.6,1.1,2.4,1.6l22.6,13l21.4,12.4l17.6,10.1l91.6,52.9l19.3,11.1l12,6.9c10.5,6.1,23.5,6.1,34,0
		l11.9-6.9l19.3-11.1l25.7-14.9l55.6-32.1l10.4-6l26.4-15.2l21.4-12.4l13.8-8c0.8-0.5,1.6-1,2.4-1.5c0.9-0.6,1.7-1.2,2.4-1.9
		c0.1-0.1,0.3-0.2,0.4-0.3c0.8-0.7,1.5-1.4,2.2-2.1l0.1-0.1c3.7-3.9,6.5-8.6,8-13.8c0-0.1,0.1-0.2,0.1-0.3c0.2-0.6,0.3-1.2,0.5-1.8
		c0-0.2,0.1-0.4,0.1-0.6c0.1-0.3,0.1-0.6,0.2-0.9H38.15C38.25,368.8,38.25,369.1,38.35,369.4z"/>
	<path style="fill:#ED1F34;" d="M436.75,143.5h37.2c-0.2-0.9-0.4-1.9-0.6-2.8c-0.4-1.5-0.9-3-1.5-4.4c-2.5-5.9-6.6-11-11.9-14.7
		c-0.8-0.5-1.6-1.1-2.4-1.6l-22.9-13.2l-21.4-12.4l-17.2-9.9l-65.9-38l-25.7-14.8l-19.3-11.1l-12-6.9c-10.5-6.1-23.5-6.1-34,0
		l-11.9,6.9l-19.3,11.1l-25.7,14.9l0,0l-65.9,38.1l-28.9,16.7l-21.4,12.4l-11.3,6.5c-0.8,0.5-1.6,1-2.4,1.5
		c-3.3,2.3-6.1,5.1-8.3,8.2c-1.5,2.1-2.8,4.4-3.8,6.8c-0.9,2.2-1.6,4.5-2,6.8h357.4h41.1V143.5z"/>
</g>
<path style="fill:#F2A643;" d="M256.05,179.9c-42,0-76.1,34.1-76.1,76.1s34.1,76.1,76.1,76.1s76.1-34.1,76.1-76.1
	S298.05,179.9,256.05,179.9z"/>
<path style="fill:#164FCE;" d="M185.05,283.4c11,28.5,38.7,48.7,71,48.7s60-20.2,71-48.7H185.05z"/>
<path style="fill:#B21727;" d="M287.05,237.9c-4.1,0-7.5,3.4-7.5,7.5v28.7c0,4.4-3.6,8-8,8s-8-3.6-8-8l0,0v-51.7
	c0-4.1-3.4-7.5-7.5-7.5s-7.5,3.4-7.5,7.5v51.7l0,0l0,0c0,4.4-3.6,8-8,8s-8-3.6-8-8v-28.7c0-4.1-3.4-7.5-7.5-7.5s-7.5,3.4-7.5,7.5
	v28.7c0,12.7,10.3,23,23,23c6,0,11.4-2.3,15.5-6c4.1,3.7,9.5,6,15.5,6c12.7,0,23-10.3,23-23v-28.7
	C294.55,241.2,291.25,237.9,287.05,237.9z"/>
<path d="M256.05,170.8c-47,0-85.2,38.2-85.2,85.2s38.2,85.2,85.2,85.2s85.2-38.2,85.2-85.2S303.05,170.8,256.05,170.8z
	 M256.05,323.1c-37,0-67.1-30.1-67.1-67.1s30.1-67.1,67.1-67.1s67.1,30.1,67.1,67.1S293.05,323.1,256.05,323.1z M483.55,149.5
	c0-3.7-0.5-7.4-1.5-11.1c-0.5-1.9-1.2-3.8-1.9-5.6c-3.2-7.5-8.4-14-15.1-18.7c-1.1-0.8-2.1-1.4-3.1-2L277.55,5.8
	c-6.5-3.8-14-5.8-21.5-5.8c-7.6,0-15,2-21.5,5.8L50.05,112.3c-0.9,0.5-1.9,1.2-3,1.9c-4.1,2.8-7.6,6.3-10.5,10.4
	c-1.9,2.7-3.5,5.6-4.8,8.7c-2.1,5.2-3.2,10.7-3.2,16.3v212.9c0,0.9,0,1.9,0.1,2.9c0,0.2,0,0.5,0.1,0.7v0.1c0.1,0.7,0.1,1.4,0.2,2.1
	c0,0.2,0.1,0.5,0.1,0.7v0.2c0.1,0.7,0.2,1.4,0.4,2.1c0.1,0.3,0.1,0.5,0.2,0.7c0.2,0.8,0.4,1.5,0.6,2.4l0.1,0.4
	c1.1,3.8,2.8,7.5,5,10.9c0,0,0,0,0,0.1c1.5,2.3,3.2,4.5,5,6.4l0.2,0.2c0.9,0.9,1.8,1.8,2.8,2.7l0.5,0.4c1.1,0.9,2.1,1.7,3.1,2.4
	c1.1,0.8,2.1,1.4,3.1,2l184.4,106.4c6.5,3.8,14,5.8,21.5,5.8l0,0c7.6,0,15-2,21.5-5.8l184.6-106.6c0.9-0.5,1.9-1.1,3-1.9
	c1-0.7,2-1.5,3.2-2.4c0.1-0.1,0.3-0.2,0.4-0.3c1-0.9,1.9-1.8,2.8-2.7l0.2-0.2c4.7-4.9,8.2-10.9,10.1-17.4l0.1-0.4
	c0.2-0.8,0.4-1.6,0.6-2.3l0.2-0.8c0.1-0.7,0.3-1.4,0.4-2.2c0-0.3,0.1-0.5,0.1-0.8c0.1-0.7,0.2-1.4,0.2-2.1v-0.1c0-0.2,0-0.5,0.1-0.7
	c0.1-1,0.1-2,0.1-2.9L483.55,149.5z M57.45,129c0.7-0.5,1.2-0.8,1.7-1.1l184.4-106.5c3.8-2.2,8.1-3.4,12.5-3.4s8.7,1.2,12.5,3.3
	l184.4,106.4c0.5,0.3,1.1,0.7,1.8,1.1c2.2,1.5,4.1,3.4,5.7,5.5h-23.6c-5,0-9,4-9,9s4,9,9,9h28.7v206.9H46.65V152.3h348.9
	c5,0,9-4,9-9s-4-9-9-9H51.75C53.35,132.4,55.25,130.5,57.45,129z M458.45,379.8c-0.5,0.5-1.1,1.1-1.6,1.6l-0.3,0.2
	c-0.7,0.6-1.3,1-1.8,1.4c-0.7,0.5-1.2,0.8-1.7,1.1l-184.5,106.5c-3.8,2.2-8.1,3.4-12.5,3.4s-8.7-1.2-12.5-3.3L59.15,384.1
	c-0.5-0.3-1.1-0.7-1.8-1.1c-0.5-0.4-1.1-0.8-1.8-1.4l-0.3-0.2c-0.6-0.5-1.1-1-1.6-1.5c0,0-0.1-0.1-0.2-0.2c-0.7-0.7-1.3-1.4-1.8-2.2
	h408.6C459.75,378.3,459.15,379,458.45,379.8L458.45,379.8z"/>
<g>
</g>
<g>
</g>
<g>
</g>
<g>
</g>
<g>
</g>
<g>
</g>
<g>
</g>
<g>
</g>
<g>
</g>
<g>
</g>
<g>
</g>
<g>
</g>
<g>
</g>
<g>
</g>
<g>
</g>
</svg>
