<?xml version="1.0" encoding="iso-8859-1"?>
<!-- Generator: Adobe Illustrator 19.0.0, SVG Export Plug-In . SVG Version: 6.00 Build 0)  -->
<svg version="1.1" id="Layer_1" xmlns="http://www.w3.org/2000/svg" xmlns:xlink="http://www.w3.org/1999/xlink" x="0px" y="0px"
	 viewBox="0 0 512.001 512.001" style="enable-background:new 0 0 512.001 512.001;" xml:space="preserve">
<path style="fill:#103B9B;" d="M473.105,371.851c0.176-0.611,0.338-1.228,0.479-1.85c0.047-0.2,0.089-0.401,0.131-0.603
	c0.113-0.54,0.213-1.085,0.3-1.634c0.037-0.236,0.076-0.473,0.11-0.711c0.076-0.545,0.131-1.092,0.18-1.643
	c0.021-0.225,0.047-0.447,0.063-0.674c0.052-0.767,0.084-1.537,0.083-2.313l0,0l0,0v-0.006l-0.006-40.904v-0.002l-0.005-26.203
	v-0.002l-0.001-4.213l-0.004-25.574l0,0l-0.008-48.824l-0.005-26.204l-0.006-40.984c-0.001-2.995-0.409-5.931-1.161-8.75
	c-0.405-1.518-0.915-2.997-1.521-4.435c-2.477-5.877-6.574-11.017-11.924-14.74c-0.784-0.545-1.584-1.071-2.421-1.553l-22.87-13.202
	l-21.414-12.358l-17.24-9.949l-65.925-38.046l-25.717-14.844l-19.288-11.132l-11.953-6.899c-10.533-6.078-23.509-6.076-34.04,0.007
	l-11.872,6.857l-19.288,11.14l-25.717,14.854v-0.001l-65.915,38.072l-28.89,16.686L65.85,113.578l-11.282,6.517
	c-0.813,0.468-1.59,0.979-2.353,1.506c-3.272,2.266-6.072,5.068-8.331,8.235c-1.517,2.129-2.781,4.424-3.774,6.843
	c-1.654,4.031-2.557,8.399-2.557,12.899l0.007,40.912l0.005,26.204l0.012,73.738l0.001,4.011v0.849v0.002v0.013l0,0v0.005l0,0
	l0.005,26.2l0,0v1.864l0.002,12.617l0.004,26.497v0.006l0,0c0.001,0.773,0.033,1.539,0.084,2.304
	c0.016,0.224,0.042,0.446,0.061,0.669c0.049,0.548,0.106,1.096,0.18,1.638c0.033,0.236,0.072,0.471,0.11,0.706
	c0.086,0.545,0.184,1.087,0.297,1.626c0.043,0.201,0.086,0.403,0.131,0.603c0.14,0.615,0.298,1.222,0.471,1.825
	c0.033,0.113,0.061,0.227,0.095,0.34c0.909,3.042,2.239,5.93,3.941,8.589v0.001l0.002,0.002c1.172,1.832,2.517,3.551,4.026,5.137
	c0.049,0.052,0.098,0.106,0.147,0.158c0.71,0.735,1.454,1.439,2.233,2.113c0.125,0.11,0.256,0.215,0.382,0.322
	c0.786,0.661,1.594,1.298,2.444,1.89c0.784,0.545,1.584,1.07,2.421,1.553l22.552,13.015l21.414,12.36l17.561,10.134l91.644,52.89
	l19.288,11.132l11.953,6.899c10.533,6.078,23.509,6.076,34.04-0.007l11.872-6.857l19.288-11.14l25.717-14.853l55.554-32.086
	l10.363-5.985l26.36-15.225l21.408-12.365l13.813-7.978c0.813-0.468,1.59-0.979,2.352-1.506c0.851-0.588,1.66-1.226,2.446-1.884
	c0.129-0.107,0.259-0.212,0.386-0.322c0.779-0.673,1.526-1.375,2.236-2.11c0.046-0.048,0.09-0.098,0.136-0.146
	c3.725-3.891,6.475-8.609,8.019-13.765C473.047,372.067,473.074,371.958,473.105,371.851z"/>
<path style="fill:#FFFFFF;" d="M391.737,247.391L295.5,216.502l-30.889-96.237c-1.201-3.742-4.681-6.278-8.61-6.278
	s-7.409,2.536-8.61,6.278l-30.889,96.237l-96.237,30.889c-3.742,1.201-6.278,4.681-6.278,8.61c0,3.929,2.536,7.409,6.278,8.61
	l96.237,30.889l30.889,96.237c1.201,3.742,4.681,6.278,8.61,6.278s7.409-2.536,8.61-6.278l30.889-96.237l96.237-30.889
	c3.742-1.201,6.278-4.681,6.278-8.61C398.015,252.072,395.479,248.591,391.737,247.391z M285.549,279.701
	c-1.389,0.446-2.628,1.214-3.631,2.217l-25.916-25.917V359.39l-23.701-73.842c-0.446-1.389-1.214-2.628-2.216-3.63l25.916-25.917
	H152.612l73.842-23.701c1.388-0.446,2.628-1.214,3.631-2.217l25.916,25.917V152.612l23.701,73.842
	c0.446,1.389,1.214,2.628,2.216,3.63l-25.916,25.917H359.39L285.549,279.701z M286.307,142.412c1.653-4.71,6.814-7.19,11.527-5.535
	c35.82,12.578,64.714,41.472,77.289,77.292c1.655,4.711-0.825,9.871-5.536,11.526c-0.99,0.348-2.001,0.514-2.995,0.514
	c-3.732,0-7.225-2.328-8.53-6.049c-10.775-30.688-35.531-55.444-66.222-66.222C287.13,152.284,284.652,147.123,286.307,142.412z
	 M136.88,214.169c12.577-35.82,41.47-64.715,77.289-77.292c4.716-1.654,9.872,0.825,11.527,5.535
	c1.655,4.711-0.823,9.872-5.535,11.527c-30.69,10.776-55.445,35.534-66.222,66.222c-1.306,3.721-4.798,6.049-8.53,6.049
	c-0.993,0-2.005-0.165-2.995-0.514C137.705,224.041,135.225,218.88,136.88,214.169z M375.123,297.831
	c-12.577,35.818-41.47,64.714-77.289,77.291c-0.991,0.348-2.002,0.514-2.996,0.514c-3.732,0-7.223-2.328-8.53-6.048
	c-1.655-4.711,0.823-9.872,5.535-11.527c30.69-10.777,55.445-35.533,66.222-66.22c1.653-4.711,6.817-7.191,11.526-5.536
	C374.299,287.959,376.779,293.119,375.123,297.831z M225.697,369.587c-1.306,3.72-4.799,6.048-8.53,6.048
	c-0.993,0-2.005-0.165-2.996-0.514c-35.82-12.578-64.714-41.472-77.29-77.291c-1.655-4.711,0.825-9.871,5.536-11.526
	c4.708-1.656,9.872,0.825,11.526,5.536c10.775,30.688,35.532,55.442,66.222,66.22C224.873,359.715,227.352,364.876,225.697,369.587z
	"/>
<path d="M483.459,149.503c-0.001-3.711-0.494-7.438-1.467-11.079c-0.506-1.896-1.154-3.788-1.924-5.614
	c-3.18-7.543-8.399-13.99-15.096-18.652c-1.115-0.776-2.087-1.397-3.062-1.96L277.5,5.767C270.963,1.995,263.515,0,255.966,0
	c-7.555,0-15.005,1.998-21.546,5.776L50.044,112.265c-0.945,0.546-1.89,1.15-2.979,1.904c-4.087,2.831-7.633,6.335-10.546,10.421
	c-1.912,2.682-3.52,5.595-4.776,8.657c-2.146,5.231-3.234,10.726-3.234,16.335l0.035,212.915c0,0.921,0.035,1.875,0.105,2.917
	c0.018,0.235,0.039,0.469,0.063,0.702l0.014,0.143c0.061,0.694,0.134,1.386,0.23,2.096c0.034,0.24,0.071,0.477,0.11,0.717
	l0.025,0.158c0.111,0.69,0.235,1.375,0.379,2.067c0.054,0.256,0.108,0.51,0.165,0.757c0.176,0.776,0.377,1.543,0.608,2.348
	l0.111,0.392c1.144,3.829,2.821,7.486,4.986,10.873c0.013,0.019,0.025,0.037,0.037,0.058c1.477,2.301,3.179,4.47,5.054,6.441
	c0.04,0.042,0.153,0.163,0.193,0.205c0.887,0.921,1.837,1.82,2.828,2.677l0.48,0.405c1.098,0.923,2.112,1.703,3.096,2.389
	c1.114,0.775,2.087,1.397,3.064,1.961l184.411,106.429c6.539,3.772,13.985,5.766,21.534,5.767l0,0
	c7.554,0,15.005-1.998,21.546-5.776l184.373-106.49c0.949-0.546,1.895-1.151,2.979-1.902c0.986-0.682,2.001-1.462,3.099-2.381
	c0.005-0.004,0.102-0.084,0.106-0.088l0.381-0.322c0.989-0.852,1.941-1.749,2.81-2.646l0.193-0.205
	c4.695-4.906,8.206-10.932,10.153-17.433l0.113-0.398c0.224-0.774,0.427-1.554,0.608-2.342l0.168-0.77
	c0.142-0.682,0.269-1.371,0.379-2.067l0.02-0.123c0.04-0.253,0.08-0.508,0.118-0.776c0.094-0.691,0.168-1.385,0.228-2.073
	l0.014-0.143c0.025-0.239,0.046-0.477,0.063-0.72c0.071-1.044,0.105-2,0.105-2.931L483.459,149.503z M465.349,364.098l-0.051,0.521
	c-0.035,0.403-0.076,0.805-0.128,1.191l-0.083,0.534c-0.064,0.403-0.137,0.804-0.227,1.227l-0.089,0.41
	c-0.105,0.459-0.222,0.911-0.347,1.343l-0.07,0.254c-1.128,3.764-3.166,7.26-5.908,10.125l-0.083,0.092
	c-0.514,0.528-1.066,1.05-1.654,1.556l-0.272,0.227c-0.682,0.571-1.254,1.011-1.794,1.385c-0.669,0.464-1.218,0.815-1.728,1.11
	l-184.375,106.49c-3.795,2.192-8.118,3.351-12.502,3.351c-4.381-0.001-8.703-1.157-12.495-3.347L59.133,384.143
	c-0.526-0.304-1.09-0.669-1.778-1.146c-0.539-0.375-1.109-0.817-1.783-1.383l-0.288-0.24c-0.576-0.499-1.128-1.022-1.595-1.507
	c-0.027-0.028-0.128-0.135-0.154-0.164c-1.099-1.156-2.094-2.425-2.957-3.774c-0.01-0.017-0.022-0.033-0.031-0.049
	c-1.244-1.954-2.207-4.06-2.866-6.265l-0.068-0.237c-0.127-0.445-0.245-0.892-0.348-1.351l-0.094-0.433
	c-0.082-0.395-0.156-0.793-0.217-1.184l-0.081-0.523c-0.055-0.4-0.096-0.803-0.13-1.201l-0.052-0.497
	c-0.037-0.562-0.064-1.125-0.064-1.699l-0.035-212.912c0-3.24,0.633-6.424,1.882-9.467c0.729-1.781,1.662-3.471,2.769-5.025
	c1.696-2.378,3.755-4.415,6.116-6.049c0.673-0.465,1.221-0.82,1.73-1.113l184.376-106.49c3.795-2.192,8.118-3.351,12.502-3.351
	c4.381,0,8.703,1.157,12.495,3.347L452.87,127.856c0.526,0.304,1.091,0.669,1.778,1.145c3.882,2.699,6.909,6.446,8.758,10.829
	c0.448,1.064,0.825,2.159,1.116,3.254c0.567,2.122,0.854,4.282,0.855,6.419l0.034,212.916
	C465.41,362.994,465.386,363.562,465.349,364.098z"/>
<g>
</g>
<g>
</g>
<g>
</g>
<g>
</g>
<g>
</g>
<g>
</g>
<g>
</g>
<g>
</g>
<g>
</g>
<g>
</g>
<g>
</g>
<g>
</g>
<g>
</g>
<g>
</g>
<g>
</g>
</svg>
