<?xml version="1.0" encoding="iso-8859-1"?>
<!-- Generator: Adobe Illustrator 19.0.0, SVG Export Plug-In . SVG Version: 6.00 Build 0)  -->
<svg version="1.1" id="Layer_1" xmlns="http://www.w3.org/2000/svg" xmlns:xlink="http://www.w3.org/1999/xlink" x="0px" y="0px"
	 viewBox="0 0 511.998 511.998" style="enable-background:new 0 0 511.998 511.998;" xml:space="preserve">
<path style="fill:#FFFFFF;" d="M473.103,371.851c0.176-0.611,0.338-1.228,0.479-1.85c0.047-0.201,0.089-0.401,0.131-0.603
	c0.113-0.541,0.213-1.085,0.3-1.634c0.037-0.237,0.076-0.474,0.11-0.711c0.076-0.545,0.131-1.093,0.18-1.643
	c0.02-0.225,0.047-0.448,0.063-0.674c0.052-0.767,0.084-1.537,0.084-2.313l0,0l0,0v-0.006l-0.005-40.904v-0.001l-0.005-26.204
	v-0.002l-0.001-4.213l-0.004-25.574l0,0l-0.008-48.824l-0.005-26.204l-0.007-40.985c0-2.996-0.406-5.93-1.16-8.75
	c-0.405-1.517-0.915-2.997-1.52-4.435c-2.479-5.877-6.575-11.016-11.925-14.74c-0.784-0.545-1.584-1.071-2.421-1.554l-22.874-13.2
	l-21.414-12.358l-17.24-9.949L329.935,46.47l-25.717-14.842l-19.288-11.132l-11.953-6.898c-10.533-6.078-23.509-6.077-34.04,0.006
	l-11.872,6.857l-19.288,11.14l-25.717,14.854l0,0l-65.913,38.072l-28.89,16.686l-21.408,12.365l-11.282,6.517
	c-0.811,0.469-1.59,0.979-2.353,1.507c-3.272,2.266-6.073,5.068-8.331,8.236c-1.517,2.128-2.781,4.423-3.773,6.841
	c-1.655,4.031-2.558,8.399-2.557,12.899l0.006,40.912l0.005,26.204l0.012,73.738v4.011v0.85v0.001v0.013l0,0v0.005l0,0l0.005,26.2
	v0.001v1.863l0.002,12.617l0.004,26.497v0.006l0,0c0,0.773,0.033,1.539,0.084,2.304c0.016,0.224,0.042,0.446,0.061,0.669
	c0.048,0.55,0.105,1.096,0.18,1.638c0.033,0.236,0.072,0.471,0.108,0.706c0.087,0.546,0.186,1.087,0.298,1.626
	c0.042,0.201,0.086,0.403,0.131,0.603c0.14,0.615,0.298,1.222,0.471,1.825c0.033,0.113,0.061,0.227,0.095,0.34
	c0.909,3.043,2.24,5.93,3.94,8.589c0,0,0,0.001,0.001,0.002l0.001,0.001c1.172,1.832,2.517,3.551,4.025,5.137
	c0.051,0.052,0.099,0.106,0.148,0.158c0.709,0.735,1.454,1.439,2.231,2.113c0.125,0.108,0.254,0.213,0.382,0.321
	c0.786,0.661,1.595,1.3,2.445,1.89c0.784,0.545,1.584,1.07,2.419,1.554l22.552,13.015l21.414,12.359l17.561,10.135l91.644,52.89
	l19.288,11.132l11.953,6.898c10.533,6.078,23.509,6.077,34.04-0.006l11.872-6.857l19.288-11.14l25.717-14.853l55.554-32.086
	l10.363-5.985l26.36-15.225l21.408-12.365l13.813-7.978c0.813-0.469,1.59-0.979,2.353-1.507c0.85-0.59,1.659-1.226,2.445-1.883
	c0.129-0.107,0.259-0.213,0.386-0.323c0.779-0.672,1.526-1.374,2.236-2.11c0.046-0.048,0.09-0.098,0.136-0.146
	c3.725-3.891,6.475-8.609,8.019-13.765C473.045,372.067,473.073,371.958,473.103,371.851z"/>
<g>
	<polygon style="fill:#ED1F34;" points="65.848,113.578 55.812,119.374 456.258,119.374 434.516,106.827 413.104,94.468 
		397.074,85.217 114.95,85.217 87.256,101.213 	"/>
	<polygon style="fill:#ED1F34;" points="443.622,399.883 456.188,392.625 135.447,392.625 94.46,392.625 55.742,392.625 
		77.162,404.987 98.575,417.346 114.926,426.782 397.05,426.782 422.214,412.248 	"/>
	<path style="fill:#ED1F34;" d="M268.363,329.397c-40.537,0-73.398-32.861-73.398-73.397s32.861-73.397,73.398-73.397
		c12.337,0,23.956,3.058,34.162,8.437c-17.468-18.86-42.433-30.677-70.169-30.677c-52.819,0-95.638,42.818-95.638,95.638
		c0,52.819,42.819,95.638,95.638,95.638c27.735,0,52.699-11.818,70.168-30.677C292.319,326.339,280.702,329.397,268.363,329.397z"/>
	<polygon style="fill:#ED1F34;" points="330.316,217.745 328.861,245.912 302.525,255.999 328.861,266.088 330.316,294.255 
		348.047,272.322 375.282,279.643 359.904,255.999 375.282,232.357 348.047,239.677 	"/>
</g>
<path d="M232.357,360.68c29.045,0,57.037-12.237,76.801-33.575c2.993-3.232,3.222-8.152,0.541-11.648
	c-2.683-3.495-7.492-4.548-11.39-2.495c-9.31,4.906-19.385,7.395-29.946,7.395c-35.487,0-64.357-28.87-64.357-64.355
	s28.87-64.355,64.357-64.355c10.562,0,20.636,2.487,29.946,7.395c1.404,0.739,2.944,1.079,4.422,1.04
	c4.91-0.098,8.859-4.107,8.859-9.04c0-2.585-1.084-4.916-2.823-6.564c-19.739-21.077-47.555-33.155-76.411-33.155
	c-57.72,0-104.679,46.959-104.679,104.679S174.636,360.68,232.357,360.68z M232.357,169.403c9.485,0,18.836,1.579,27.685,4.575
	c-41.565,4.184-74.117,39.373-74.117,82.022s32.551,77.837,74.115,82.022c-8.849,2.996-18.2,4.575-27.684,4.575
	c-47.749,0-86.596-38.848-86.596-86.596S184.607,169.403,232.357,169.403z M293.484,255.999c0,3.746,2.31,7.104,5.807,8.443
	l20.843,7.984l1.151,22.294c0.193,3.742,2.674,6.975,6.236,8.132c0.92,0.299,1.86,0.444,2.792,0.444
	c2.682,0,5.285-1.196,7.032-3.357l14.033-17.358l21.555,5.794c0.84,0.225,1.685,0.328,2.533,0.309c4.919-0.086,8.88-4.1,8.88-9.04
	c0-2.039-0.675-3.919-1.812-5.431l-11.844-18.212l12.171-18.713c2.042-3.14,1.936-7.214-0.265-10.245s-6.043-4.387-9.662-3.416
	l-21.555,5.794l-14.033-17.358c-2.354-2.914-6.263-4.07-9.824-2.914c-3.562,1.157-6.043,4.392-6.236,8.132l-1.151,22.294
	l-20.843,7.984C295.794,248.896,293.484,252.255,293.484,255.999z M332.095,254.355c3.34-1.279,5.61-4.406,5.796-7.977l0.236-4.589
	l2.888,3.573c2.248,2.781,5.922,3.972,9.378,3.048l4.438-1.193l-2.506,3.854c-1.949,2.997-1.949,6.862,0,9.86l2.506,3.854
	l-4.438-1.193c-3.455-0.928-7.131,0.266-9.378,3.048l-2.888,3.573l-0.236-4.589c-0.184-3.571-2.456-6.698-5.796-7.977l-4.294-1.644
	L332.095,254.355z M483.456,149.505c0-3.709-0.493-7.437-1.464-11.075c-0.503-1.887-1.15-3.777-1.928-5.623
	c-3.18-7.542-8.399-13.99-15.091-18.646c-1.113-0.775-2.086-1.398-3.066-1.964L277.499,5.768C270.961,1.995,263.515,0,255.964,0
	c-7.555,0-15.005,1.998-21.547,5.776L50.042,112.265c-0.945,0.546-1.89,1.15-2.979,1.904c-4.086,2.831-7.633,6.335-10.546,10.419
	c-1.912,2.683-3.519,5.596-4.775,8.657c-2.147,5.231-3.234,10.726-3.234,16.334l0.035,212.916c0,0.921,0.034,1.875,0.105,2.917
	c0.017,0.235,0.039,0.469,0.061,0.703l0.014,0.143c0.06,0.694,0.134,1.385,0.231,2.096c0.034,0.24,0.071,0.477,0.108,0.716
	l0.025,0.158c0.11,0.691,0.234,1.375,0.379,2.066c0.053,0.256,0.107,0.51,0.164,0.757c0.177,0.776,0.377,1.543,0.606,2.348
	l0.112,0.392c1.143,3.829,2.821,7.486,4.985,10.871c0.012,0.019,0.025,0.039,0.037,0.058c1.477,2.301,3.179,4.47,5.054,6.44
	c0.04,0.042,0.153,0.164,0.194,0.205c0.887,0.921,1.837,1.819,2.827,2.677l0.481,0.405c1.098,0.922,2.111,1.703,3.096,2.389
	c1.114,0.775,2.087,1.398,3.064,1.963l184.411,106.428c6.539,3.773,13.985,5.767,21.534,5.768l0,0
	c7.555,0,15.005-1.998,21.547-5.776l184.37-106.487c0.943-0.545,1.89-1.149,2.987-1.908c0.99-0.687,2.004-1.465,3.107-2.388
	l0.475-0.398c0.986-0.85,1.938-1.748,2.85-2.689l0.153-0.162c4.695-4.904,8.205-10.929,10.124-17.344
	c0.052-0.166,0.1-0.335,0.14-0.487c0.224-0.774,0.427-1.554,0.609-2.344c0.058-0.253,0.112-0.508,0.168-0.769
	c0.142-0.684,0.269-1.372,0.379-2.067l0.021-0.123c0.04-0.253,0.08-0.508,0.119-0.786c0.093-0.687,0.168-1.378,0.227-2.063
	l0.014-0.145c0.025-0.239,0.047-0.479,0.063-0.72c0.072-1.058,0.106-2.019,0.105-2.931L483.456,149.505z M243.462,21.434
	c3.796-2.193,8.119-3.351,12.504-3.351c4.381,0,8.701,1.157,12.495,3.347l154.044,88.903H89.544L243.462,21.434z M268.539,490.566
	c-3.796,2.193-8.12,3.351-12.504,3.351c-4.381,0-8.701-1.157-12.495-3.347L89.497,401.667h4.964c4.993,0,9.041-4.048,9.041-9.041
	c0-4.993-4.048-9.041-9.041-9.041H58.228c-0.274-0.177-0.558-0.368-0.875-0.588c-0.54-0.375-1.109-0.817-1.783-1.383l-0.288-0.24
	c-0.576-0.499-1.128-1.022-1.596-1.507c-0.027-0.028-0.128-0.136-0.154-0.164c-1.099-1.155-2.094-2.424-2.956-3.773
	c-0.011-0.017-0.022-0.033-0.033-0.051c-1.244-1.955-2.209-4.06-2.866-6.265l-0.066-0.239c-0.127-0.445-0.245-0.892-0.35-1.353
	l-0.093-0.432c-0.083-0.395-0.156-0.793-0.217-1.185l-0.082-0.523c-0.054-0.399-0.095-0.802-0.13-1.201l-0.048-0.495
	c-0.039-0.561-0.064-1.125-0.064-1.7l-0.035-212.912c0-3.24,0.632-6.425,1.881-9.466c0.731-1.781,1.662-3.471,2.77-5.025
	c1.696-2.378,3.755-4.415,6.116-6.051c0.336-0.233,0.641-0.438,0.927-0.621h395.49c0.272,0.176,0.557,0.366,0.873,0.587
	c3.881,2.7,6.908,6.446,8.756,10.824c0.452,1.074,0.828,2.169,1.119,3.26c0.567,2.124,0.854,4.283,0.854,6.421l0.035,212.93
	c0.001,0.567-0.025,1.13-0.061,1.662l-0.051,0.52c-0.035,0.406-0.076,0.813-0.128,1.192l-0.083,0.533
	c-0.064,0.404-0.137,0.804-0.219,1.197l-0.095,0.441c-0.105,0.458-0.224,0.91-0.362,1.388l-0.061,0.222
	c-1.13,3.761-3.164,7.251-5.903,10.114l-0.083,0.09c-0.515,0.532-1.068,1.052-1.639,1.546l-0.289,0.241
	c-0.669,0.561-1.256,1.014-1.787,1.382c-0.336,0.233-0.641,0.438-0.927,0.621H135.452c-4.993,0-9.041,4.048-9.041,9.041
	c0,4.993,4.048,9.041,9.041,9.041H422.46L268.539,490.566z"/>
<g>
</g>
<g>
</g>
<g>
</g>
<g>
</g>
<g>
</g>
<g>
</g>
<g>
</g>
<g>
</g>
<g>
</g>
<g>
</g>
<g>
</g>
<g>
</g>
<g>
</g>
<g>
</g>
<g>
</g>
</svg>
