<?xml version="1.0" encoding="iso-8859-1"?>
<!-- Generator: Adobe Illustrator 19.0.0, SVG Export Plug-In . SVG Version: 6.00 Build 0)  -->
<svg version="1.1" id="Layer_1" xmlns="http://www.w3.org/2000/svg" xmlns:xlink="http://www.w3.org/1999/xlink" x="0px" y="0px"
	 viewBox="0 0 512 512" style="enable-background:new 0 0 512 512;" xml:space="preserve">
<path style="fill:#FFFFFF;" d="M473.106,371.85c0.176-0.61,0.336-1.227,0.479-1.848c0.046-0.201,0.088-0.403,0.13-0.604
	c0.115-0.54,0.213-1.085,0.301-1.632c0.037-0.237,0.076-0.474,0.108-0.711c0.076-0.546,0.131-1.095,0.181-1.644
	c0.019-0.225,0.047-0.448,0.061-0.674c0.053-0.767,0.084-1.537,0.084-2.313l0,0l0,0v-0.006l-0.007-40.904v-0.002l-0.005-26.203
	v-0.002v-4.213l-0.005-25.574l0,0l-0.008-48.824l-0.004-26.203l-0.007-40.985c0-2.995-0.407-5.931-1.16-8.75
	c-0.405-1.517-0.915-2.997-1.521-4.435c-2.477-5.876-6.574-11.016-11.925-14.74c-0.784-0.545-1.584-1.071-2.421-1.553
	l-22.872-13.202l-21.415-12.358l-17.24-9.949l-65.92-38.046l-25.719-14.844l-19.288-11.132l-11.952-6.899
	c-10.534-6.078-23.51-6.076-34.04,0.007l-11.873,6.857l-19.288,11.14l-25.717,14.853l0,0l-65.915,38.072l-28.889,16.686
	l-21.408,12.365l-11.284,6.516c-0.811,0.469-1.589,0.98-2.352,1.507c-3.273,2.268-6.073,5.067-8.333,8.236
	c-1.517,2.127-2.781,4.422-3.773,6.841c-1.655,4.032-2.558,8.399-2.557,12.899l0.007,40.913l0.004,26.203l0.013,73.738l0.001,4.011
	v0.85v0.001v0.013l0,0v0.005l0,0l0.004,26.198v0.002l0.001,1.863l0.001,12.617l0.005,26.496v0.007l0,0
	c0,0.773,0.031,1.539,0.083,2.305c0.017,0.224,0.042,0.445,0.063,0.668c0.048,0.55,0.105,1.096,0.18,1.638
	c0.031,0.236,0.071,0.471,0.108,0.708c0.087,0.544,0.186,1.086,0.298,1.625c0.042,0.201,0.084,0.403,0.13,0.603
	c0.14,0.615,0.298,1.222,0.471,1.825c0.033,0.113,0.063,0.228,0.096,0.34c0.908,3.043,2.239,5.93,3.94,8.588
	c0,0.001,0.001,0.002,0.001,0.002l0.001,0.002c1.172,1.832,2.517,3.551,4.026,5.137c0.049,0.053,0.098,0.106,0.148,0.159
	c0.71,0.734,1.454,1.438,2.233,2.112c0.125,0.11,0.254,0.215,0.381,0.322c0.786,0.661,1.595,1.298,2.445,1.89
	c0.784,0.545,1.584,1.07,2.421,1.553l22.55,13.016l21.415,12.359l17.56,10.134l91.644,52.89l19.288,11.132l11.953,6.899
	c10.533,6.078,23.51,6.076,34.04-0.007l11.872-6.857l19.288-11.14l25.719-14.853l55.553-32.086l10.364-5.985l26.36-15.225
	l21.408-12.365l13.812-7.977c0.813-0.469,1.591-0.98,2.353-1.507c0.851-0.588,1.659-1.226,2.446-1.884
	c0.128-0.106,0.258-0.212,0.385-0.323c0.779-0.671,1.526-1.374,2.236-2.108c0.047-0.048,0.092-0.098,0.137-0.145
	c3.724-3.893,6.475-8.61,8.019-13.767C473.047,372.067,473.076,371.958,473.106,371.85z"/>
<path style="fill:#164FCE;" d="M37.583,335.992l0.005,26.496v0.007l0,0c0,0.773,0.031,1.539,0.083,2.305
	c0.017,0.224,0.043,0.445,0.063,0.668c0.048,0.55,0.105,1.096,0.18,1.639c0.031,0.235,0.071,0.47,0.108,0.706
	c0.087,0.544,0.184,1.086,0.298,1.625c0.042,0.201,0.084,0.403,0.13,0.603c0.14,0.615,0.298,1.222,0.471,1.825
	c0.033,0.113,0.063,0.228,0.096,0.34c0.908,3.043,2.239,5.93,3.94,8.588c0.001,0.002,0.001,0.002,0.001,0.004l0.001,0.001
	c1.172,1.832,2.517,3.551,4.026,5.136c0.051,0.054,0.098,0.107,0.148,0.16c0.709,0.734,1.454,1.438,2.231,2.112
	c0.125,0.11,0.256,0.215,0.382,0.322c0.786,0.661,1.594,1.298,2.445,1.89c0.784,0.545,1.584,1.071,2.421,1.553l22.55,13.016
	l21.415,12.359l17.56,10.134l91.644,52.89l19.288,11.132l11.953,6.899c10.533,6.078,23.51,6.076,34.04-0.007l11.872-6.857
	l19.288-11.14l25.719-14.853l55.553-32.086l10.364-5.985l26.36-15.225l21.408-12.365l13.812-7.977
	c0.813-0.469,1.591-0.98,2.353-1.507c0.851-0.588,1.659-1.226,2.446-1.884c0.128-0.106,0.258-0.212,0.385-0.323
	c0.779-0.671,1.526-1.374,2.236-2.108c0.047-0.048,0.09-0.098,0.137-0.145c3.724-3.893,6.475-8.61,8.019-13.767
	c0.031-0.106,0.06-0.215,0.09-0.323c0.176-0.61,0.336-1.227,0.479-1.848c0.046-0.201,0.088-0.403,0.13-0.603
	c0.113-0.541,0.213-1.085,0.3-1.635c0.039-0.236,0.076-0.473,0.11-0.71c0.076-0.546,0.131-1.095,0.181-1.644
	c0.019-0.225,0.046-0.447,0.061-0.674c0.053-0.767,0.084-1.537,0.084-2.313l0,0v-0.006l-0.006-37.836H37.582L37.583,335.992z"/>
<path style="fill:#259245;" d="M114.676,187.42h359.748l-0.006-37.915c0-2.995-0.407-5.931-1.16-8.75
	c-0.405-1.517-0.915-2.997-1.521-4.435c-2.477-5.876-6.574-11.016-11.925-14.74c-0.784-0.545-1.584-1.071-2.421-1.553
	l-22.872-13.202l-21.415-12.358l-17.24-9.949l-65.923-38.046l-25.719-14.844l-19.288-11.132l-11.952-6.899
	c-10.534-6.078-23.51-6.076-34.04,0.007l-11.873,6.857l-19.288,11.14l-25.717,14.853l0,0l-65.915,38.072l-28.889,16.686
	l-21.408,12.365l-11.284,6.516c-0.811,0.469-1.589,0.98-2.352,1.507c-3.273,2.268-6.073,5.067-8.333,8.236
	c-1.517,2.127-2.781,4.422-3.773,6.841c-1.655,4.032-2.558,8.399-2.557,12.899l0.006,37.842h35.969H114.676z"/>
<path d="M28.509,362.415c-0.001,0.911,0.033,1.872,0.105,2.931c0.016,0.241,0.037,0.48,0.063,0.72l0.016,0.143
	c0.059,0.685,0.133,1.377,0.227,2.063c0.037,0.278,0.077,0.533,0.119,0.786l0.02,0.123c0.111,0.697,0.236,1.384,0.377,2.067
	c0.057,0.262,0.11,0.516,0.169,0.77c0.181,0.788,0.383,1.57,0.608,2.342c0.04,0.153,0.088,0.321,0.14,0.487
	c1.92,6.413,5.43,12.439,10.125,17.344l0.153,0.163c0.911,0.942,1.863,1.838,2.85,2.688l0.475,0.398
	c1.102,0.925,2.116,1.702,3.105,2.389c1.097,0.758,2.045,1.363,2.987,1.907l184.37,106.487c6.544,3.778,13.992,5.776,21.547,5.776
	c7.55,0,14.995-1.995,21.535-5.767l184.41-106.429c0.975-0.563,1.947-1.185,3.063-1.96c0.986-0.686,1.999-1.468,3.096-2.391
	l0.482-0.405c0.984-0.851,1.934-1.749,2.825-2.675c0.048-0.049,0.169-0.178,0.216-0.228c1.87-1.964,3.584-4.151,5.068-6.474
	c0.013-0.019,0.025-0.037,0.036-0.057c2.149-3.368,3.814-7.008,4.953-10.818c0.03-0.106,0.074-0.256,0.113-0.405
	c0.228-0.793,0.427-1.562,0.604-2.337c0.058-0.246,0.112-0.5,0.164-0.756c0.146-0.687,0.271-1.38,0.381-2.077
	c0.057-0.35,0.096-0.605,0.134-0.866c0.096-0.71,0.17-1.4,0.228-2.094l0.014-0.127c0.024-0.24,0.047-0.479,0.063-0.721
	c0.072-1.036,0.105-1.989,0.105-2.917l0.036-212.915c0-5.608-1.086-11.104-3.234-16.334c-1.259-3.066-2.866-5.978-4.775-8.658
	c-2.913-4.084-6.46-7.589-10.546-10.419c-1.092-0.758-2.041-1.363-2.985-1.907L277.584,5.776C271.041,1.998,263.59,0,256.037,0
	c-7.551,0-14.995,1.995-21.534,5.767L50.092,112.197c-0.98,0.565-1.954,1.189-3.067,1.964c-6.692,4.655-11.909,11.104-15.091,18.646
	c-0.778,1.846-1.425,3.737-1.926,5.623c-0.97,3.639-1.465,7.367-1.465,11.076L28.509,362.415z M465.41,149.577l-0.005,28.801h-26.93
	c-4.994,0-9.041,4.047-9.041,9.041s4.047,9.041,9.041,9.041h26.928l-0.022,119.078H46.6l0.02-119.078h350.707
	c4.994,0,9.041-4.047,9.041-9.041s-4.047-9.041-9.041-9.041H46.623l0.005-28.871c0-2.137,0.288-4.296,0.855-6.421
	c0.289-1.09,0.667-2.186,1.119-3.259c1.846-4.38,4.874-8.125,8.754-10.824c0.687-0.477,1.25-0.841,1.777-1.145L243.543,21.432
	c3.793-2.188,8.114-3.347,12.495-3.347c4.382,0,8.707,1.16,12.502,3.351l184.373,106.49c0.509,0.293,1.057,0.646,1.731,1.113
	c2.362,1.633,4.418,3.671,6.114,6.049c1.107,1.554,2.04,3.245,2.774,5.029C464.778,143.152,465.41,146.337,465.41,149.577z
	 M46.592,362.436l0.005-28.814H465.38l-0.006,28.866c0,0.575-0.025,1.137-0.061,1.699l-0.047,0.475
	c-0.037,0.42-0.077,0.822-0.131,1.222l-0.08,0.499c-0.066,0.418-0.136,0.81-0.218,1.198l-0.095,0.442
	c-0.105,0.46-0.222,0.907-0.351,1.351l-0.074,0.269c-0.656,2.192-1.63,4.313-2.887,6.28c-0.01,0.016-0.02,0.03-0.03,0.047
	c-0.855,1.332-1.841,2.587-2.929,3.73c-0.033,0.035-0.139,0.148-0.172,0.183c-0.452,0.469-1.004,0.991-1.576,1.486l-0.262,0.218
	c-0.706,0.592-1.278,1.034-1.816,1.41c-0.685,0.476-1.251,0.84-1.776,1.144l-184.41,106.427c-3.793,2.189-8.114,3.347-12.496,3.347
	c-4.383,0-8.706-1.159-12.504-3.351L59.088,384.076c-0.509-0.293-1.057-0.646-1.731-1.113c-0.529-0.368-1.118-0.822-1.787-1.382
	l-0.289-0.24c-0.573-0.493-1.125-1.014-1.638-1.544l-0.084-0.092c-2.738-2.862-4.775-6.353-5.902-10.113l-0.061-0.222
	c-0.139-0.477-0.258-0.929-0.363-1.389l-0.095-0.44c-0.081-0.392-0.154-0.793-0.219-1.196l-0.083-0.534
	c-0.052-0.379-0.092-0.785-0.127-1.191l-0.051-0.521C46.618,363.567,46.59,363.004,46.592,362.436z"/>
<g>
</g>
<g>
</g>
<g>
</g>
<g>
</g>
<g>
</g>
<g>
</g>
<g>
</g>
<g>
</g>
<g>
</g>
<g>
</g>
<g>
</g>
<g>
</g>
<g>
</g>
<g>
</g>
<g>
</g>
</svg>
