<?xml version="1.0" encoding="iso-8859-1"?>
<!-- Generator: Adobe Illustrator 19.0.0, SVG Export Plug-In . SVG Version: 6.00 Build 0)  -->
<svg version="1.1" id="Layer_1" xmlns="http://www.w3.org/2000/svg" xmlns:xlink="http://www.w3.org/1999/xlink" x="0px" y="0px"
	 viewBox="0 0 512.001 512.001" style="enable-background:new 0 0 512.001 512.001;" xml:space="preserve">
<path style="fill:#FFFFFF;" d="M474.444,321.512v-0.002l-0.005-26.203v-0.002v-4.213l-0.005-25.574l-0.008-48.824l-0.004-26.203
	l-0.007-40.985c0-2.995-0.408-5.931-1.16-8.75c-0.405-1.517-0.915-2.997-1.521-4.435c-2.477-5.876-6.574-11.016-11.925-14.74
	c-0.784-0.545-1.584-1.071-2.421-1.553l-22.874-13.202l-21.414-12.358l-17.24-9.949l-65.923-38.046L304.22,31.629l-19.288-11.132
	l-11.953-6.899c-10.533-6.078-23.509-6.076-34.04,0.007l-11.872,6.857l-19.288,11.14l-25.717,14.853l0,0l-50.391,29.105
	l-15.526,8.967l-28.889,16.686l-21.408,12.365l-11.282,6.516c-0.813,0.469-1.59,0.98-2.353,1.507
	c-3.273,2.268-6.073,5.067-8.333,8.236c-1.517,2.127-2.781,4.422-3.773,6.841c-1.654,4.032-2.557,8.399-2.557,12.899v1.502h0.001
	l0.006,39.41l0.001,1.931c-0.001,0-0.001,0-0.001,0l0.005,24.273l0.005,31.087l0,0l0.007,41.338l0,0v1.313v4.011v0.849v0.002v0.013
	v0.005l0.005,26.198v0.002l0.001,1.863l0.001,12.617l0.002,8.488l0,0l0.004,18.008v0.007l0,0c0,0.773,0.031,1.539,0.083,2.305
	c0.017,0.224,0.042,0.445,0.063,0.668c0.048,0.55,0.105,1.096,0.178,1.639c0.033,0.235,0.072,0.47,0.11,0.706
	c0.086,0.544,0.184,1.085,0.298,1.625c0.042,0.201,0.084,0.403,0.13,0.603c0.14,0.615,0.298,1.222,0.471,1.825
	c0.033,0.113,0.061,0.228,0.095,0.34c0.909,3.043,2.24,5.93,3.941,8.588c0,0.001,0,0.002,0.001,0.004l0.001,0.001
	c1.172,1.832,2.517,3.551,4.026,5.137c0.049,0.053,0.098,0.106,0.148,0.159c0.061,0.064,0.13,0.119,0.192,0.181l0,0
	c0.653,0.668,1.328,1.316,2.039,1.931c0.125,0.11,0.254,0.215,0.381,0.322c0.786,0.661,1.595,1.298,2.445,1.89
	c0.784,0.545,1.584,1.07,2.421,1.553l22.552,13.016l21.414,12.359l11.528,6.653l0,0l6.032,3.482l91.644,52.89l19.288,11.132
	l11.953,6.899c10.533,6.078,23.509,6.076,34.04-0.007l11.872-6.857l19.288-11.14l25.719-14.853l55.553-32.086l10.363-5.985
	l26.36-15.225l21.409-12.365l13.812-7.977c0.813-0.469,1.59-0.98,2.352-1.507c0.852-0.588,1.66-1.226,2.446-1.884
	c0.129-0.106,0.259-0.212,0.386-0.323c0.779-0.672,1.526-1.374,2.236-2.108c0.047-0.048,0.09-0.098,0.136-0.145
	c3.725-3.893,6.475-8.61,8.019-13.767c0.033-0.106,0.06-0.215,0.09-0.322c0.177-0.611,0.338-1.228,0.48-1.849
	c0.046-0.201,0.088-0.403,0.13-0.604c0.113-0.54,0.213-1.084,0.3-1.632c0.037-0.237,0.076-0.474,0.11-0.712
	c0.076-0.545,0.131-1.093,0.18-1.643c0.02-0.225,0.047-0.448,0.063-0.674c0.052-0.767,0.084-1.537,0.084-2.313l0,0v-0.006
	L474.444,321.512z"/>
<g>
	<path style="fill:#259245;" d="M474.444,321.512v-0.002l-0.005-26.203v-0.002v-4.213l-0.005-25.574l-0.008-48.824l-0.004-26.203
		l-0.007-40.985c0-2.995-0.408-5.931-1.16-8.75c-0.405-1.517-0.915-2.997-1.521-4.435c-2.477-5.876-6.574-11.016-11.925-14.74
		c-0.784-0.545-1.584-1.071-2.421-1.553l-22.874-13.202l-21.414-12.358l-17.24-9.949l-25.338-14.622v270.71v53.019v48.475
		l14.965-8.645l10.363-5.985l26.36-15.225l21.409-12.365l13.812-7.977c0.813-0.469,1.59-0.98,2.352-1.507
		c0.852-0.588,1.66-1.226,2.446-1.884c0.129-0.106,0.259-0.212,0.386-0.323c0.779-0.671,1.526-1.374,2.236-2.108
		c0.047-0.048,0.09-0.098,0.136-0.145c3.725-3.893,6.475-8.61,8.019-13.767c0.033-0.106,0.06-0.215,0.09-0.322
		c0.177-0.611,0.338-1.228,0.48-1.849c0.046-0.201,0.088-0.403,0.13-0.604c0.113-0.54,0.213-1.084,0.3-1.632
		c0.037-0.237,0.076-0.474,0.11-0.712c0.076-0.545,0.131-1.093,0.18-1.643c0.02-0.225,0.047-0.448,0.063-0.674
		c0.052-0.767,0.084-1.537,0.084-2.313v-0.006L474.444,321.512z"/>
	<path style="fill:#259245;" d="M131.672,75.561l-15.526,8.967l-28.89,16.686l-21.408,12.365l-11.282,6.516
		c-0.813,0.469-1.59,0.98-2.353,1.507c-3.273,2.268-6.073,5.067-8.333,8.236c-1.517,2.127-2.781,4.422-3.773,6.841
		c-1.654,4.032-2.557,8.399-2.557,12.899v1.502h0.001l0.006,39.41l0.001,1.931c-0.001,0-0.001,0-0.001,0l0.005,24.273l0.005,31.087
		l0,0l0.007,41.338l0,0v1.313v4.011v0.849v0.002v0.013v0.005l0.005,26.198v0.002l0.001,1.863l0.001,12.617l0.002,8.488l0,0
		l0.004,18.008v0.007c0,0.773,0.031,1.539,0.083,2.305c0.017,0.224,0.042,0.445,0.063,0.668c0.048,0.55,0.105,1.096,0.178,1.639
		c0.033,0.235,0.072,0.47,0.11,0.706c0.087,0.544,0.184,1.085,0.298,1.625c0.042,0.201,0.084,0.403,0.13,0.603
		c0.14,0.615,0.298,1.222,0.471,1.825c0.033,0.113,0.061,0.228,0.095,0.34c0.909,3.043,2.24,5.93,3.941,8.588
		c0,0.001,0,0.002,0.001,0.004l0.001,0.001c1.172,1.832,2.517,3.551,4.026,5.137c0.049,0.053,0.098,0.106,0.147,0.159
		c0.063,0.064,0.131,0.119,0.194,0.181h-0.001c0.653,0.668,1.328,1.316,2.039,1.931c0.125,0.11,0.254,0.215,0.381,0.322
		c0.786,0.661,1.595,1.298,2.445,1.89c0.784,0.545,1.584,1.07,2.421,1.553l22.552,13.016l21.414,12.359l11.528,6.653l0,0
		l6.032,3.482l25.341,14.625V69.895L131.672,75.561z"/>
	<polygon style="fill:#259245;" points="186.682,328.045 255.999,139.645 325.317,328.045 	"/>
</g>
<path d="M264.486,136.523c-1.309-3.556-4.697-5.919-8.486-5.919c-3.789,0-7.176,2.363-8.486,5.919l-69.317,188.4
	c-1.02,2.774-0.621,5.871,1.07,8.295c1.691,2.424,4.46,3.869,7.415,3.869h60.276v35.269c0,4.994,4.047,9.041,9.041,9.041
	c4.994,0,9.041-4.047,9.041-9.041v-35.269h60.276c0.008,0.001,0.018,0,0.024,0c4.994,0,9.041-4.047,9.041-9.041
	c0-1.335-0.288-2.603-0.808-3.742L264.486,136.523z M265.041,319.003v-35.269c0-4.994-4.047-9.041-9.041-9.041
	c-4.994,0-9.041,4.047-9.041,9.041v35.269h-47.315l56.357-153.175l56.357,153.175H265.041z M483.457,149.501
	c-0.001-3.713-0.494-7.44-1.466-11.076c-0.506-1.899-1.154-3.789-1.925-5.615c-3.18-7.544-8.399-13.991-15.094-18.652
	c-1.118-0.778-2.089-1.4-3.062-1.961L277.499,5.767C270.961,1.994,263.515,0,255.964,0c-7.555,0-15.004,1.996-21.546,5.776
	L50.047,112.263c-0.948,0.546-1.895,1.152-2.982,1.905c-4.086,2.829-7.633,6.334-10.545,10.418
	c-1.914,2.683-3.523,5.597-4.779,8.662c-2.146,5.23-3.234,10.724-3.234,16.338l0.008,40.898l-0.001,1.937l0.029,170.075
	c0,0.928,0.034,1.882,0.108,2.967c0.016,0.217,0.036,0.43,0.058,0.646l0.016,0.153c0.06,0.692,0.133,1.383,0.229,2.093
	c0.036,0.26,0.077,0.516,0.134,0.867c0.11,0.694,0.235,1.385,0.381,2.084c0.054,0.254,0.108,0.508,0.163,0.745
	c0.177,0.779,0.377,1.547,0.616,2.382l0.102,0.364c1.134,3.795,2.793,7.424,4.933,10.786c0.019,0.029,0.037,0.059,0.057,0.088
	c1.484,2.323,3.199,4.51,5.074,6.478l0.206,0.218c0.122,0.127,0.247,0.25,0.377,0.372c0.847,0.861,1.65,1.617,2.435,2.294
	c0.143,0.125,0.289,0.246,0.493,0.415c1.086,0.915,2.099,1.696,3.102,2.395c1.111,0.773,2.084,1.395,3.062,1.96L234.5,506.233
	c6.539,3.773,13.985,5.768,21.534,5.768c7.555,0,15.006-1.998,21.547-5.777l184.37-106.486c0.94-0.542,1.887-1.146,2.987-1.907
	c0.981-0.68,1.993-1.457,3.185-2.452l0.395-0.333c0.986-0.85,1.94-1.748,2.805-2.642l0.2-0.211
	c4.697-4.905,8.206-10.93,10.148-17.415l0.119-0.418c0.224-0.775,0.426-1.553,0.605-2.336c0.058-0.253,0.112-0.508,0.169-0.776
	c0.142-0.684,0.269-1.372,0.397-2.174c0.041-0.259,0.082-0.518,0.119-0.781c0.095-0.693,0.169-1.391,0.229-2.082l0.014-0.146
	c0.025-0.239,0.047-0.477,0.063-0.72c0.072-1.048,0.106-2.005,0.106-2.929L483.457,149.501z M57.357,383.001
	c-0.541-0.377-1.128-0.833-1.818-1.413l-0.265-0.222c-0.459-0.398-0.946-0.861-1.496-1.421c-0.077-0.078-0.159-0.16-0.241-0.239
	c-0.002-0.002-0.005-0.005-0.007-0.007c-1.08-1.134-2.06-2.381-2.913-3.703c-0.016-0.025-0.03-0.047-0.046-0.074
	c-1.259-1.967-2.233-4.089-2.887-6.282l-0.076-0.27c-0.127-0.441-0.244-0.887-0.35-1.354l-0.093-0.434
	c-0.082-0.391-0.154-0.782-0.221-1.199l-0.078-0.5c-0.054-0.4-0.094-0.804-0.13-1.22l-0.048-0.477
	c-0.037-0.561-0.063-1.125-0.063-1.701l-0.013-72.047l0.001-1.324l-0.025-139.539c0-3.24,0.632-6.427,1.881-9.468
	c0.731-1.781,1.662-3.471,2.771-5.025c1.696-2.38,3.755-4.416,6.118-6.053c0.67-0.464,1.218-0.816,1.728-1.109l73.35-42.364v340.888
	l-73.305-42.303C58.602,383.836,58.037,383.472,57.357,383.001z M465.348,364.098l-0.051,0.52c-0.034,0.4-0.075,0.799-0.128,1.192
	l-0.064,0.407c0,0.004-0.02,0.125-0.02,0.127c-0.064,0.405-0.137,0.805-0.218,1.191l-0.096,0.447
	c-0.106,0.458-0.224,0.911-0.334,1.296l-0.083,0.299c-1.128,3.764-3.164,7.258-5.908,10.125l-0.115,0.123
	c-0.505,0.521-1.046,1.03-1.609,1.514l-0.282,0.235c-0.688,0.576-1.261,1.017-1.79,1.385c-0.677,0.468-1.226,0.821-1.734,1.114
	l-73.345,42.362v-32.811c0-4.994-4.047-9.041-9.041-9.041c-4.994,0-9.041,4.047-9.041,9.041v43.255l-92.947,53.683
	c-3.796,2.192-8.119,3.351-12.504,3.351c-4.381,0-8.701-1.158-12.495-3.348l-93.02-53.684V75.116l92.943-53.681
	c3.795-2.193,8.119-3.351,12.502-3.351c4.381,0,8.703,1.157,12.495,3.347l93.025,53.688v265.489c0,4.994,4.047,9.041,9.041,9.041
	c4.994,0,9.041-4.047,9.041-9.041V85.553l73.3,42.304c0.523,0.301,1.089,0.667,1.779,1.145c3.881,2.7,6.908,6.446,8.758,10.832
	c0.447,1.062,0.823,2.157,1.116,3.252c0.565,2.119,0.852,4.28,0.854,6.418l0.035,212.916
	C465.409,362.993,465.384,363.561,465.348,364.098z"/>
<g>
</g>
<g>
</g>
<g>
</g>
<g>
</g>
<g>
</g>
<g>
</g>
<g>
</g>
<g>
</g>
<g>
</g>
<g>
</g>
<g>
</g>
<g>
</g>
<g>
</g>
<g>
</g>
<g>
</g>
</svg>
