<?xml version="1.0" encoding="iso-8859-1"?>
<!-- Generator: Adobe Illustrator 19.0.0, SVG Export Plug-In . SVG Version: 6.00 Build 0)  -->
<svg version="1.1" id="Layer_1" xmlns="http://www.w3.org/2000/svg" xmlns:xlink="http://www.w3.org/1999/xlink" x="0px" y="0px"
	 viewBox="0 0 512 512" style="enable-background:new 0 0 512 512;" xml:space="preserve">
<path style="fill:#FFFFFF;" d="M473.104,371.851c0.176-0.611,0.336-1.228,0.479-1.85c0.046-0.2,0.089-0.401,0.131-0.603
	c0.113-0.54,0.213-1.085,0.3-1.634c0.037-0.236,0.076-0.473,0.11-0.711c0.075-0.545,0.131-1.092,0.18-1.643
	c0.021-0.225,0.047-0.447,0.063-0.674c0.052-0.767,0.084-1.537,0.084-2.313l0,0l0,0v-0.006l-0.006-40.904v-0.002l-0.005-26.203
	v-0.002v-4.213l-0.004-25.574l0,0l-0.008-48.824l-0.005-26.204l-0.006-40.984c0-2.995-0.407-5.931-1.16-8.75
	c-0.405-1.518-0.915-2.997-1.521-4.435c-2.477-5.877-6.574-11.017-11.925-14.74c-0.784-0.545-1.584-1.071-2.419-1.553
	l-22.874-13.202l-21.414-12.358l-17.239-9.949l-65.926-38.046l-25.717-14.844l-19.288-11.132l-11.953-6.899
	c-10.533-6.078-23.509-6.076-34.04,0.007l-11.872,6.857l-19.288,11.14l-25.717,14.854v-0.001l-65.918,38.072l-28.889,16.686
	L65.85,113.578l-11.284,6.517c-0.811,0.468-1.59,0.979-2.353,1.506c-3.272,2.266-6.073,5.068-8.333,8.235
	c-1.517,2.129-2.781,4.424-3.773,6.843c-1.655,4.031-2.558,8.399-2.557,12.899l0.006,40.912l0.005,26.204l0.012,73.738v4.011v0.849
	v0.002v0.013l0,0v0.005l0,0l0.005,26.2l0,0v1.864l0.002,12.617l0.004,26.497v0.006l0,0c0,0.773,0.033,1.539,0.084,2.304
	c0.016,0.224,0.042,0.446,0.061,0.669c0.048,0.548,0.105,1.096,0.18,1.638c0.033,0.236,0.072,0.471,0.108,0.706
	c0.087,0.545,0.186,1.087,0.298,1.626c0.042,0.201,0.086,0.403,0.131,0.603c0.14,0.615,0.298,1.222,0.471,1.825
	c0.033,0.113,0.061,0.227,0.095,0.34c0.909,3.042,2.24,5.93,3.94,8.589l0.001,0.001l0.001,0.002
	c1.172,1.832,2.517,3.551,4.025,5.137c0.051,0.052,0.099,0.106,0.148,0.158c0.709,0.735,1.454,1.439,2.231,2.113
	c0.125,0.11,0.254,0.215,0.382,0.322c0.786,0.661,1.595,1.298,2.445,1.89c0.784,0.545,1.584,1.07,2.419,1.553l22.552,13.015
	l21.414,12.36l17.561,10.134l91.644,52.89l19.288,11.132l11.953,6.899c10.533,6.078,23.509,6.076,34.04-0.007l11.872-6.857
	l19.288-11.14l25.717-14.853l55.554-32.086l10.363-5.985l26.36-15.225l21.408-12.365l13.813-7.978
	c0.811-0.468,1.59-0.979,2.353-1.506c0.851-0.588,1.659-1.226,2.446-1.884c0.128-0.107,0.258-0.212,0.385-0.322
	c0.78-0.673,1.526-1.375,2.237-2.11c0.047-0.048,0.09-0.098,0.136-0.146c3.724-3.891,6.476-8.609,8.02-13.765
	C473.045,372.067,473.073,371.958,473.104,371.851z"/>
<g>
	<path style="fill:#FFE000;" d="M37.573,290.431v4.011v0.849v0.002v0.013l0,0v0.005l0,0l0.005,26.198v0.001v1.864l0.002,12.617
		l0.004,26.496v0.007l0,0c0,0.773,0.033,1.539,0.084,2.304c0.016,0.224,0.042,0.446,0.061,0.669c0.048,0.548,0.105,1.096,0.18,1.638
		c0.033,0.236,0.072,0.471,0.108,0.706c0.087,0.545,0.186,1.087,0.298,1.626c0.042,0.201,0.086,0.403,0.131,0.603
		c0.14,0.615,0.298,1.222,0.471,1.825c0.033,0.113,0.061,0.227,0.095,0.34c0.909,3.042,2.24,5.93,3.94,8.589l0.001,0.001
		l0.001,0.002c1.172,1.832,2.517,3.551,4.025,5.137c0.051,0.052,0.099,0.106,0.148,0.158c0.709,0.735,1.454,1.441,2.231,2.113
		c0.125,0.11,0.254,0.215,0.382,0.322c0.786,0.661,1.595,1.298,2.445,1.89c0.784,0.545,1.584,1.07,2.419,1.553l22.552,13.016
		l21.414,12.359l17.561,10.134l91.644,52.89l19.288,11.132l11.953,6.899c10.533,6.078,23.509,6.076,34.04-0.007l11.872-6.857
		l19.288-11.14l25.717-14.853l55.554-32.086l10.363-5.985l26.36-15.225l21.408-12.365l13.813-7.977
		c0.811-0.469,1.59-0.98,2.353-1.507c0.851-0.588,1.659-1.226,2.446-1.884c0.128-0.107,0.258-0.212,0.385-0.322
		c0.78-0.673,1.526-1.375,2.237-2.11c0.047-0.048,0.09-0.098,0.136-0.146c0.47-0.491,0.925-0.996,1.363-1.513L37.571,270.083
		L37.573,290.431z"/>
	<path style="fill:#FFE000;" d="M474.427,216.693l-0.005-26.203l-0.006-40.985c0-2.995-0.408-5.931-1.16-8.75
		c-0.405-1.517-0.915-2.997-1.521-4.435c-2.477-5.876-6.574-11.016-11.925-14.74c-0.784-0.545-1.584-1.071-2.419-1.553
		l-22.874-13.202l-21.414-12.358l-17.239-9.949l-65.925-38.046l-25.717-14.844l-19.288-11.132l-11.953-6.899
		c-10.533-6.078-23.509-6.076-34.04,0.007l-11.872,6.857l-19.288,11.14l-25.717,14.853l0,0l-65.918,38.072l-28.889,16.686
		L65.85,113.578l-11.284,6.516c-0.811,0.469-1.59,0.98-2.353,1.507c-2.665,1.847-5,4.063-7.003,6.529l429.222,119.227
		L474.427,216.693z"/>
</g>
<path style="fill:#333333;" d="M473.104,371.851c0.176-0.611,0.336-1.228,0.479-1.85c0.046-0.2,0.089-0.401,0.131-0.603
	c0.113-0.54,0.213-1.085,0.3-1.634c0.037-0.236,0.076-0.473,0.11-0.711c0.075-0.545,0.131-1.092,0.18-1.643
	c0.021-0.225,0.047-0.447,0.063-0.674c0.052-0.767,0.084-1.537,0.084-2.313l0,0v-0.006l-0.006-40.904v-0.002l-0.001-4.539
	L37.559,198.042l0.002,18.652l0.008,53.39l428.787,114.342c3.035-3.577,5.307-7.747,6.657-12.253
	C473.045,372.067,473.073,371.958,473.104,371.851z"/>
<polygon points="474.445,321.51 474.441,307.602 37.556,188.671 37.556,190.49 37.56,207.413 474.445,326.343 474.445,321.512 "/>
<path style="fill:#ED1F34;" d="M337.467,257.112c0,44.92-36.545,81.465-81.465,81.465s-81.465-36.545-81.465-81.465
	c0-4.994,4.048-9.041,9.041-9.041c4.993,0,9.041,4.047,9.041,9.041c0,34.949,28.433,63.383,63.383,63.383
	s63.383-28.433,63.383-63.383c0-4.994,4.048-9.041,9.041-9.041S337.467,252.119,337.467,257.112z M204.62,257.112
	c0-25.245,18.307-46.282,42.339-50.567v-24.083c0-4.994,4.048-9.041,9.041-9.041c4.993,0,9.041,4.047,9.041,9.041v24.083
	c24.032,4.286,42.339,25.322,42.339,50.567c0,28.331-23.05,51.38-51.38,51.38S204.62,285.443,204.62,257.112z M289.299,257.112
	L289.299,257.112h-66.595l0,0c0,18.36,14.938,33.298,33.298,33.298C274.361,290.41,289.299,275.473,289.299,257.112z"/>
<path d="M256.036,512L256.036,512c-7.55,0-14.997-1.995-21.534-5.768L50.091,399.803c-0.967-0.559-1.969-1.199-3.064-1.963
	c-0.991-0.69-2.004-1.471-3.096-2.388l-0.498-0.419c-0.963-0.833-1.914-1.734-2.81-2.663c-0.041-0.042-0.154-0.164-0.195-0.206
	c-1.889-1.984-3.603-4.172-5.089-6.494c-2.166-3.389-3.844-7.047-4.988-10.875l-0.112-0.392c-0.23-0.804-0.429-1.573-0.608-2.351
	c-0.054-0.239-0.108-0.492-0.163-0.746c-0.146-0.697-0.271-1.384-0.38-2.075l-0.025-0.16c-0.039-0.237-0.076-0.476-0.108-0.716
	c-0.098-0.71-0.17-1.402-0.231-2.095l-0.014-0.143c-0.024-0.233-0.046-0.468-0.061-0.702c-0.071-1.043-0.105-1.998-0.105-2.919
	L28.508,149.58c0-5.608,1.087-11.104,3.234-16.334c1.256-3.061,2.863-5.975,4.775-8.658c2.914-4.086,6.462-7.59,10.547-10.421
	c1.081-0.75,2.029-1.354,2.978-1.902L234.418,5.776C240.96,1.996,248.411,0,255.965,0c7.549,0,14.995,1.994,21.534,5.767
	L461.91,112.195c0.972,0.562,1.945,1.184,3.062,1.961c6.698,4.659,11.917,11.108,15.096,18.652c0.77,1.828,1.419,3.717,1.925,5.615
	c0.972,3.641,1.465,7.367,1.465,11.078l0.035,212.913c0,0.931-0.034,1.887-0.105,2.931c-0.017,0.24-0.039,0.48-0.063,0.721
	l-0.014,0.143c-0.06,0.687-0.134,1.382-0.228,2.071c-0.039,0.275-0.078,0.533-0.121,0.792c-0.127,0.803-0.254,1.492-0.398,2.177
	l-0.169,0.773c-0.18,0.784-0.382,1.566-0.605,2.34l-0.116,0.406c-1.943,6.492-5.454,12.517-10.149,17.421l-0.159,0.171
	c-0.901,0.929-1.852,1.828-2.84,2.681c-0.125,0.108-0.265,0.225-0.405,0.34c-1.183,0.987-2.195,1.766-3.181,2.448
	c-1.092,0.756-2.037,1.36-2.982,1.905l-184.372,106.49C271.041,510.002,263.59,512,256.036,512z M50.529,375.856
	c0.016,0.024,0.031,0.048,0.047,0.074c0.862,1.348,1.856,2.617,2.956,3.772c0.028,0.029,0.129,0.137,0.157,0.168
	c0.47,0.487,1.021,1.009,1.589,1.498l0.293,0.246c0.662,0.556,1.25,1.011,1.787,1.385c0.68,0.475,1.245,0.838,1.775,1.143
	L243.54,490.568c3.794,2.189,8.116,3.348,12.496,3.348c4.383,0,8.706-1.16,12.502-3.351l184.375-106.49
	c0.51-0.295,1.06-0.647,1.731-1.113c0.536-0.371,1.107-0.813,1.791-1.384l0.276-0.228c0.583-0.504,1.137-1.026,1.649-1.555
	l0.083-0.09c2.744-2.867,4.78-6.362,5.908-10.125l0.071-0.254c0.125-0.432,0.242-0.884,0.347-1.341l0.084-0.387
	c0.094-0.447,0.168-0.847,0.231-1.251c0-0.002,0.021-0.124,0.021-0.127l0.063-0.408c0.053-0.386,0.094-0.787,0.129-1.191l0.051-0.52
	c0.036-0.539,0.061-1.107,0.061-1.678l-0.035-212.917c0-2.137-0.288-4.298-0.854-6.418c-0.293-1.096-0.668-2.19-1.116-3.252
	c-1.849-4.388-4.876-8.131-8.757-10.832c-0.691-0.479-1.256-0.844-1.779-1.145L268.46,21.429c-3.794-2.189-8.114-3.347-12.495-3.347
	c-4.383,0-8.707,1.159-12.504,3.351L59.087,127.924c-0.509,0.294-1.057,0.646-1.725,1.109c-2.364,1.637-4.423,3.674-6.119,6.053
	c-1.107,1.553-2.04,3.244-2.769,5.025c-1.249,3.04-1.882,6.225-1.881,9.467l0.035,212.911c0,0.576,0.025,1.139,0.064,1.7
	l0.048,0.493c0.035,0.4,0.076,0.803,0.13,1.203l0.082,0.523c0.061,0.389,0.134,0.787,0.217,1.183l0.093,0.428
	c0.106,0.465,0.223,0.911,0.351,1.354l0.069,0.246C48.332,371.809,49.292,373.908,50.529,375.856z"/>
<g>
</g>
<g>
</g>
<g>
</g>
<g>
</g>
<g>
</g>
<g>
</g>
<g>
</g>
<g>
</g>
<g>
</g>
<g>
</g>
<g>
</g>
<g>
</g>
<g>
</g>
<g>
</g>
<g>
</g>
</svg>
