<?xml version="1.0" encoding="iso-8859-1"?>
<!-- Generator: Adobe Illustrator 19.0.0, SVG Export Plug-In . SVG Version: 6.00 Build 0)  -->
<svg version="1.1" id="Layer_1" xmlns="http://www.w3.org/2000/svg" xmlns:xlink="http://www.w3.org/1999/xlink" x="0px" y="0px"
	 viewBox="0 0 512.001 512.001" style="enable-background:new 0 0 512.001 512.001;" xml:space="preserve">
<path style="fill:#FFE000;" d="M474.446,321.512L474.446,321.512l-0.004-26.206v-0.002l-0.001-4.213l-0.004-25.574l-0.008-48.824
	l-0.004-26.204l-0.007-40.984c0-2.995-0.406-5.931-1.16-8.75c-0.404-1.517-0.915-2.997-1.521-4.435
	c-2.477-5.877-6.574-11.017-11.925-14.74c-0.784-0.545-1.584-1.071-2.419-1.553l-22.874-13.202l-21.414-12.358l-17.239-9.949
	L329.94,46.473l-25.717-14.844l-19.288-11.132l-11.953-6.899c-10.534-6.078-23.509-6.076-34.04,0.007l-11.872,6.857l-19.288,11.14
	l-25.717,14.854v-0.001l-50.39,29.105l-15.527,8.967l-28.89,16.686l-21.408,12.365l-11.284,6.517
	c-0.811,0.468-1.59,0.979-2.353,1.506c-3.273,2.268-6.073,5.068-8.333,8.235c-1.517,2.129-2.781,4.424-3.773,6.843
	c-1.655,4.031-2.558,8.399-2.557,12.899v1.503l0,0l0.006,39.407v1.932l0,0l0.004,24.273l0.005,31.087l0,0l0.007,41.338l0,0v1.313
	v4.011v0.849v0.002v0.013v0.005l0.004,26.2v0.001v1.863l0.001,12.617l0.001,8.488l0,0l0.002,18.009v0.006l0,0
	c0,0.773,0.033,1.539,0.084,2.304c0.016,0.225,0.042,0.445,0.061,0.669c0.048,0.548,0.105,1.096,0.18,1.638
	c0.033,0.236,0.071,0.471,0.108,0.706c0.087,0.545,0.184,1.086,0.298,1.626c0.042,0.201,0.084,0.403,0.13,0.603
	c0.14,0.615,0.298,1.222,0.471,1.826c0.033,0.112,0.061,0.227,0.095,0.339c0.908,3.042,2.239,5.93,3.94,8.588
	c0,0.001,0.001,0.002,0.001,0.002l0.001,0.002c1.172,1.832,2.517,3.551,4.025,5.137c0.051,0.052,0.099,0.106,0.148,0.158
	c0.061,0.065,0.131,0.121,0.193,0.183l0,0c0.653,0.667,1.328,1.315,2.039,1.931c0.125,0.108,0.254,0.213,0.382,0.321
	c0.786,0.661,1.594,1.298,2.445,1.89c0.784,0.545,1.584,1.07,2.419,1.553l22.552,13.015l21.414,12.36l11.528,6.653l0,0l6.032,3.482
	l91.644,52.89l19.288,11.132l11.953,6.899c10.534,6.078,23.509,6.076,34.04-0.007l11.872-6.857l19.288-11.14l25.717-14.853
	l55.554-32.086l10.363-5.985l26.36-15.225l21.408-12.365l13.813-7.978c0.811-0.468,1.59-0.979,2.353-1.506
	c0.851-0.588,1.659-1.226,2.446-1.884c0.129-0.107,0.258-0.212,0.386-0.323c0.779-0.671,1.526-1.374,2.236-2.108
	c0.047-0.047,0.09-0.096,0.136-0.146c3.725-3.891,6.476-8.609,8.02-13.765c0.031-0.107,0.06-0.216,0.09-0.323
	c0.176-0.611,0.336-1.228,0.48-1.85c0.046-0.2,0.088-0.401,0.13-0.603c0.113-0.54,0.213-1.085,0.3-1.634
	c0.039-0.236,0.076-0.473,0.11-0.711c0.076-0.544,0.131-1.092,0.181-1.643c0.02-0.225,0.047-0.447,0.061-0.674
	c0.052-0.767,0.084-1.537,0.084-2.313l0,0v-0.006L474.446,321.512z"/>
<path style="fill:#ED1F34;" d="M474.446,321.512v-0.002l-0.004-26.203v-0.002l-0.001-4.213l-0.004-25.574l-0.008-48.824
	l-0.004-26.203l-0.007-40.985c0-2.995-0.406-5.931-1.16-8.75c-0.404-1.517-0.915-2.997-1.521-4.435
	c-2.477-5.876-6.574-11.016-11.925-14.74c-0.784-0.545-1.584-1.071-2.419-1.553l-22.874-13.202l-21.414-12.358l-17.239-9.949
	l-16.197-9.348L329.94,46.473l-25.717-14.844l-19.288-11.132l-11.953-6.899c-10.534-6.078-23.509-6.076-34.04,0.007l-11.872,6.857
	l-19.288,11.14l-25.717,14.853l-49.718,28.715l-0.671,0.388l-15.527,8.967l-28.89,16.687l-21.408,12.365l-11.284,6.516
	c-0.427,0.247-0.826,0.527-1.236,0.792l405.342,270.227c0.371-0.239,0.755-0.464,1.118-0.715c0.851-0.588,1.659-1.226,2.446-1.884
	c0.129-0.107,0.258-0.212,0.386-0.323c0.779-0.672,1.526-1.374,2.236-2.108c0.047-0.048,0.09-0.098,0.136-0.145
	c3.725-3.893,6.476-8.61,8.02-13.767c0.031-0.106,0.06-0.215,0.09-0.322c0.176-0.611,0.336-1.228,0.48-1.849
	c0.046-0.201,0.088-0.403,0.13-0.604c0.113-0.54,0.213-1.085,0.3-1.632c0.039-0.237,0.076-0.474,0.11-0.712
	c0.076-0.545,0.131-1.093,0.181-1.643c0.02-0.225,0.047-0.448,0.061-0.674c0.052-0.767,0.084-1.537,0.084-2.313v-0.006
	L474.446,321.512z"/>
<g>
	<path style="fill:#E7D3CD;" d="M272.931,230.37l-3.929-74.138c-0.392-7.074-6.129-10.803-12.752-8.284l-86.524,32.897
		c15.349,9.439,54.852,8.204,74.504,0.227l-2.841,47.904"/>
	<path style="fill:#E7D3CD;" d="M225.339,254.154l-62.241,40.472c-5.93,3.876-6.289,10.709-0.798,15.185l71.754,58.485
		c0.5-18.012-20.323-51.606-37.056-64.635l42.907-21.491"/>
	<path style="fill:#E7D3CD;" d="M269.734,283.476l66.17,33.668c6.322,3.197,12.419,0.093,13.55-6.903l14.772-91.382
		c-15.849,8.572-34.531,43.402-37.448,64.41l-40.065-26.413"/>
	<circle style="fill:#E7D3CD;" cx="256.005" cy="256.004" r="30.717"/>
</g>
<path style="fill:#F2A643;" d="M256.001,295.759c-21.924,0-39.758-17.836-39.758-39.758s17.836-39.758,39.758-39.758
	s39.758,17.836,39.758,39.758S277.924,295.759,256.001,295.759z M256.001,234.324c-11.953,0-21.675,9.724-21.675,21.675
	c0,11.952,9.724,21.675,21.675,21.675c11.952,0,21.675-9.724,21.675-21.675C277.676,244.048,267.953,234.324,256.001,234.324z"/>
<path d="M251.181,216.544c-6.874,0.834-13.211,3.427-18.548,7.318l1.807-30.448c-16.698,3.68-37.944,4.304-54.054,0.815
	c-0.387,0.365-0.805,0.706-1.267,1.008c-1.525,0.996-3.239,1.472-4.933,1.472c-2.952,0-5.846-1.443-7.58-4.1L149.6,166.555
	c-2.729-4.182-1.551-9.784,2.63-12.513c4.18-2.732,9.784-1.554,12.513,2.629l8.574,13.135l79.719-30.31
	c5.882-2.235,12.024-1.721,16.851,1.414c4.827,3.137,7.795,8.539,8.142,14.823l3.709,70c-5.211-4.439-11.575-7.554-18.576-8.832
	l-3.19-60.192c-0.01-0.177-0.03-0.329-0.053-0.453c-0.127,0.029-0.28,0.076-0.457,0.142l-57.996,22.05
	c13.808,0.309,29.209-1.635,39.363-5.754c2.873-1.168,6.148-0.779,8.67,1.03c2.522,1.809,3.94,4.786,3.755,7.883L251.181,216.544z
	 M224.25,279.898l-31.3,15.678c-2.775,1.39-4.642,4.106-4.947,7.195c-0.306,3.089,0.993,6.117,3.442,8.024
	c8.645,6.73,18.023,19.107,24.665,31.211l-48.094-39.2c-0.147-0.121-0.263-0.23-0.352-0.327c0.096-0.081,0.217-0.175,0.366-0.272
	l50.528-32.856c-1.494-4.175-2.312-8.668-2.312-13.35c0-2.439,0.233-4.823,0.655-7.141l-58.745,38.199
	c-5.268,3.442-8.463,8.714-8.765,14.46s2.322,11.325,7.201,15.302l66.11,53.883l-7.09,13.992c-2.257,4.454-0.475,9.895,3.979,12.152
	c1.31,0.664,2.705,0.979,4.079,0.979c3.3,0,6.48-1.813,8.072-4.957l14.061-27.753c2.257-4.454,0.475-9.895-3.979-12.152
	c-0.492-0.25-0.997-0.441-1.507-0.593c-5.033-15.697-16.196-33.782-27.732-46.404l27.259-13.652
	C233.65,289.547,228.288,285.25,224.25,279.898z M396.187,217.111c-0.272-4.985-4.538-8.785-9.521-8.534l-31.066,1.7
	c-4.986,0.274-8.808,4.536-8.534,9.522c0.03,0.551,0.115,1.084,0.237,1.603c-11.076,12.206-21.158,30.917-26.32,47.217
	l-25.441-16.771c0.142,1.366,0.218,2.75,0.218,4.152c0,5.519-1.132,10.776-3.173,15.557l29.215,19.261
	c2.591,1.707,5.877,1.967,8.704,0.688c2.827-1.28,4.8-3.919,5.227-6.993c1.507-10.852,7.536-25.162,14.697-36.965l-9.901,61.251
	c-0.03,0.186-0.068,0.341-0.105,0.467c-0.119-0.041-0.26-0.1-0.419-0.18l-53.738-27.342c-4.471,5.249-10.276,9.325-16.891,11.695
	l62.448,31.773c2.934,1.484,6.017,2.229,9.023,2.229c2.749,0,5.433-0.622,7.883-1.87c5.128-2.612,8.645-7.674,9.649-13.886
	l13.61-84.195l15.663-0.857C392.639,226.36,396.459,222.097,396.187,217.111z M277.584,506.224l184.372-106.488
	c0.945-0.546,1.891-1.15,2.986-1.907c0.991-0.687,2.004-1.466,3.156-2.43c0.148-0.122,0.294-0.243,0.422-0.354
	c0.989-0.851,1.942-1.75,2.846-2.685l0.159-0.171c4.695-4.904,8.205-10.929,10.135-17.375c0.046-0.151,0.088-0.301,0.13-0.457
	c0.223-0.775,0.427-1.553,0.605-2.336c0.058-0.253,0.112-0.508,0.166-0.767c0.145-0.687,0.271-1.378,0.388-2.112
	c0.046-0.282,0.09-0.565,0.131-0.863c0.094-0.69,0.168-1.384,0.228-2.071l0.016-0.157c0.023-0.227,0.045-0.454,0.061-0.709
	c0.071-1.043,0.105-1.999,0.105-2.929l-0.036-212.911c0-3.711-0.493-7.439-1.465-11.08c-0.506-1.899-1.155-3.789-1.925-5.615
	c-3.179-7.544-8.398-13.991-15.094-18.652c-1.117-0.778-2.089-1.4-3.062-1.961L277.5,5.767C270.962,1.994,263.516,0,255.967,0
	c-7.555,0-15.005,1.996-21.549,5.776L50.044,112.265c-0.95,0.549-1.896,1.152-2.978,1.902c-4.086,2.831-7.635,6.335-10.547,10.421
	c-1.912,2.683-3.519,5.597-4.775,8.658c-2.147,5.23-3.234,10.724-3.234,16.336l0.036,212.914c0,0.921,0.034,1.876,0.105,2.919
	c0.016,0.237,0.039,0.475,0.061,0.711l0.013,0.136c0.061,0.696,0.134,1.39,0.228,2.071c0.036,0.27,0.078,0.536,0.137,0.898
	c0.11,0.688,0.234,1.373,0.38,2.075c0.053,0.254,0.107,0.508,0.163,0.745c0.177,0.78,0.377,1.553,0.603,2.333
	c0.04,0.148,0.082,0.295,0.117,0.411c1.127,3.773,2.771,7.38,4.891,10.723c0.051,0.083,0.104,0.166,0.157,0.247
	c1.47,2.286,3.164,4.441,5.013,6.383c0.052,0.057,0.184,0.198,0.239,0.252c0.113,0.117,0.229,0.23,0.351,0.345
	c0.846,0.857,1.647,1.611,2.417,2.277c0.136,0.121,0.276,0.236,0.415,0.352l0.096,0.08c1.093,0.919,2.105,1.699,3.096,2.388
	c1.096,0.763,2.096,1.403,3.064,1.963l184.411,106.428c6.539,3.773,13.985,5.768,21.534,5.768l0,0
	C263.591,512,271.042,510.002,277.584,506.224z M53.532,379.701c-1.084-1.138-2.065-2.386-2.916-3.709
	c-0.014-0.024-0.029-0.046-0.043-0.07c-1.257-1.966-2.231-4.087-2.89-6.296l-0.074-0.262c-0.127-0.44-0.242-0.882-0.348-1.347
	l-0.092-0.426c-0.082-0.397-0.156-0.796-0.221-1.209c0-0.004-0.019-0.121-0.02-0.124l-0.06-0.387
	c-0.054-0.397-0.094-0.797-0.13-1.209l-0.047-0.475c-0.039-0.561-0.064-1.125-0.064-1.701l-0.036-212.909
	c0-3.24,0.632-6.425,1.881-9.467c0.729-1.781,1.662-3.472,2.769-5.025c1.696-2.378,3.755-4.415,6.119-6.053
	c0.668-0.463,1.216-0.815,1.725-1.109l184.377-106.49c3.796-2.193,8.12-3.351,12.505-3.351c4.381,0,8.701,1.157,12.495,3.347
	l184.407,106.427c0.523,0.301,1.089,0.667,1.779,1.145c3.881,2.7,6.908,6.445,8.757,10.832c0.448,1.062,0.825,2.157,1.116,3.252
	c0.565,2.121,0.854,4.28,0.854,6.418l0.036,212.916c0,0.571-0.025,1.138-0.061,1.666l-0.051,0.529
	c-0.035,0.404-0.076,0.806-0.129,1.192l-0.084,0.534c-0.064,0.401-0.136,0.799-0.218,1.191l-0.096,0.447
	c-0.105,0.458-0.223,0.911-0.36,1.385l-0.058,0.21c-1.128,3.765-3.164,7.26-5.907,10.125l-0.083,0.09
	c-0.512,0.529-1.064,1.05-1.656,1.559l-0.272,0.227c-0.67,0.561-1.257,1.015-1.788,1.382c-0.671,0.465-1.22,0.817-1.731,1.113
	L268.54,490.56c-3.796,2.192-8.119,3.351-12.502,3.351c-4.381,0-8.701-1.159-12.496-3.348L59.132,384.141
	c-0.529-0.305-1.095-0.669-1.775-1.143c-0.538-0.375-1.126-0.829-1.787-1.385l-0.292-0.243c-0.461-0.399-0.95-0.863-1.53-1.455
	c-0.07-0.071-0.142-0.141-0.215-0.211C53.535,379.703,53.534,379.703,53.532,379.701z"/>
<g>
</g>
<g>
</g>
<g>
</g>
<g>
</g>
<g>
</g>
<g>
</g>
<g>
</g>
<g>
</g>
<g>
</g>
<g>
</g>
<g>
</g>
<g>
</g>
<g>
</g>
<g>
</g>
<g>
</g>
</svg>
