<?xml version="1.0" encoding="iso-8859-1"?>
<!-- Generator: Adobe Illustrator 19.0.0, SVG Export Plug-In . SVG Version: 6.00 Build 0)  -->
<svg version="1.1" id="Layer_1" xmlns="http://www.w3.org/2000/svg" xmlns:xlink="http://www.w3.org/1999/xlink" x="0px" y="0px"
	 viewBox="0 0 512.001 512.001" style="enable-background:new 0 0 512.001 512.001;" xml:space="preserve">
<path style="fill:#FFFFFF;" d="M473.104,371.85c0.176-0.61,0.336-1.227,0.479-1.848c0.046-0.201,0.089-0.403,0.131-0.604
	c0.113-0.54,0.213-1.085,0.3-1.632c0.037-0.237,0.076-0.474,0.11-0.711c0.075-0.546,0.131-1.095,0.18-1.644
	c0.021-0.225,0.047-0.448,0.063-0.674c0.052-0.767,0.084-1.537,0.084-2.313l0,0l0,0v-0.006l-0.006-40.904v-0.002l-0.005-26.203
	v-0.002v-4.213l-0.004-25.574l0,0l-0.008-48.824l-0.005-26.203l-0.006-40.985c0-2.995-0.408-5.931-1.16-8.75
	c-0.405-1.517-0.915-2.997-1.521-4.435c-2.477-5.876-6.574-11.016-11.925-14.74c-0.784-0.545-1.584-1.071-2.419-1.553
	l-22.874-13.202l-21.414-12.358l-17.239-9.949l-65.926-38.046l-25.717-14.844l-19.288-11.132l-11.953-6.899
	c-10.533-6.078-23.509-6.076-34.04,0.007l-11.872,6.857l-19.288,11.14l-25.717,14.853l0,0l-65.918,38.072l-28.889,16.686
	L65.85,113.578l-11.284,6.516c-0.811,0.469-1.59,0.98-2.353,1.507c-3.272,2.268-6.073,5.067-8.333,8.236
	c-1.517,2.127-2.781,4.422-3.773,6.841c-1.655,4.032-2.558,8.399-2.557,12.899l0.006,40.913l0.005,26.203l0.012,73.738v4.011v0.85
	v0.001v0.013l0,0v0.005l0,0l0.005,26.198v0.002v1.863l0.002,12.617l0.004,26.496v0.007l0,0c0,0.773,0.033,1.539,0.084,2.305
	c0.016,0.224,0.042,0.445,0.061,0.668c0.048,0.55,0.105,1.096,0.18,1.638c0.033,0.236,0.072,0.471,0.108,0.708
	c0.087,0.544,0.186,1.086,0.298,1.625c0.042,0.201,0.086,0.403,0.131,0.603c0.14,0.615,0.298,1.222,0.471,1.825
	c0.033,0.113,0.061,0.228,0.095,0.34c0.909,3.043,2.24,5.93,3.94,8.588c0,0.001,0.001,0.002,0.001,0.002
	c0,0.001,0.001,0.002,0.001,0.002c1.172,1.832,2.517,3.551,4.026,5.137c0.051,0.053,0.099,0.106,0.148,0.159
	c0.709,0.734,1.454,1.438,2.231,2.112c0.125,0.11,0.254,0.215,0.382,0.322c0.786,0.661,1.595,1.298,2.445,1.89
	c0.784,0.545,1.584,1.07,2.419,1.553l22.552,13.016l21.414,12.359l17.561,10.134l91.644,52.89l19.288,11.132l11.953,6.899
	c10.533,6.078,23.509,6.076,34.04-0.007l11.872-6.857l19.288-11.14l25.717-14.853l55.554-32.086l10.363-5.985l26.36-15.225
	l21.408-12.365l13.813-7.977c0.811-0.469,1.59-0.98,2.353-1.507c0.851-0.588,1.659-1.226,2.446-1.884
	c0.128-0.106,0.258-0.212,0.385-0.323c0.78-0.671,1.526-1.374,2.237-2.108c0.047-0.048,0.09-0.098,0.136-0.145
	c3.724-3.893,6.476-8.61,8.02-13.767C473.045,372.067,473.073,371.958,473.104,371.85z"/>
<path style="fill:#164FCE;" d="M459.81,121.581c-0.784-0.545-1.584-1.07-2.419-1.553l-22.874-13.202l-21.414-12.358l-17.239-9.949
	l-65.925-38.047l-25.717-14.844l-19.288-11.132l-11.953-6.899c-10.533-6.078-23.509-6.076-34.04,0.007l-11.872,6.857l-19.288,11.14
	l-25.717,14.853l0,0l-65.918,38.072l-28.889,16.686L65.85,113.578l-10.645,6.147l19.245,12.83h395.401
	C467.377,128.253,463.981,124.483,459.81,121.581z"/>
<path style="fill:#ED1F34;" d="M199.099,214.853L56.41,119.724l-0.64,0.37c-0.811,0.469-1.59,0.98-2.353,1.507
	c-3.272,2.268-6.073,5.067-8.333,8.236c-1.517,2.127-2.781,4.422-3.773,6.841c-1.655,4.032-2.558,8.399-2.557,12.899l0.006,40.913
	l0.005,26.203l0.012,73.738v4.011v0.849v0.002v0.013v0.005l0.005,26.198v0.002v1.863l0.002,12.617l0.004,26.496v0.007
	c0,0.773,0.033,1.539,0.084,2.305c0.016,0.224,0.042,0.445,0.061,0.668c0.048,0.55,0.105,1.096,0.18,1.639
	c0.033,0.235,0.072,0.47,0.108,0.706c0.087,0.544,0.186,1.085,0.298,1.625c0.042,0.201,0.086,0.403,0.131,0.603
	c0.14,0.615,0.298,1.222,0.471,1.825c0.033,0.113,0.061,0.228,0.095,0.34c0.909,3.043,2.24,5.93,3.94,8.588
	c0,0.001,0.001,0.002,0.001,0.002c0,0.001,0.001,0.002,0.001,0.002c1.172,1.832,2.517,3.551,4.026,5.137
	c0.051,0.053,0.099,0.106,0.148,0.159c0.709,0.734,1.454,1.438,2.231,2.112c0.125,0.11,0.254,0.215,0.382,0.322
	c0.786,0.661,1.595,1.298,2.445,1.89c0.784,0.545,1.584,1.07,2.419,1.553l0.562,0.325l142.723-95.149l61.723-41.148L199.099,214.853
	z"/>
<g>
	<polygon style="fill:#164FCE;" points="197.894,214.853 259.616,255.999 197.894,297.147 474.44,297.147 474.44,295.307 
		474.44,295.304 474.439,291.091 474.435,265.517 474.427,216.693 474.426,214.853 	"/>
	<path style="fill:#164FCE;" d="M55.172,392.297l21.99,12.691l21.414,12.359l17.561,10.134l91.644,52.89l19.288,11.132l11.953,6.899
		c10.533,6.078,23.509,6.076,34.04-0.007l11.872-6.857l19.288-11.14l25.717-14.853l55.554-32.086l10.363-5.985l26.36-15.225
		l21.408-12.365l13.813-7.977c0.811-0.469,1.59-0.98,2.353-1.507c0.851-0.588,1.659-1.226,2.446-1.884
		c0.128-0.106,0.258-0.212,0.385-0.323c0.78-0.671,1.526-1.374,2.237-2.108c0.047-0.048,0.09-0.098,0.136-0.145
		c1.884-1.971,3.518-4.152,4.874-6.494H74.449L55.172,392.297z"/>
</g>
<polygon style="fill:#FFFFFF;" points="67.704,232.633 103.839,230.765 116.782,196.975 129.724,230.765 165.86,232.633 
	137.723,255.383 147.114,290.327 116.782,270.598 86.45,290.327 95.841,255.383 "/>
<path d="M62.019,239.663l23.563,19.053l-7.865,29.265c-0.972,3.617,0.387,7.46,3.418,9.661c3.031,2.202,7.104,2.31,10.245,0.265
	l25.403-16.523l25.403,16.523c1.502,0.978,3.216,1.462,4.929,1.462c1.869,0,3.735-0.577,5.315-1.728
	c3.031-2.201,4.389-6.044,3.418-9.661l-7.865-29.265l23.563-19.053c2.914-2.354,4.072-6.261,2.914-9.824
	c-1.157-3.562-4.392-6.043-8.132-6.235l-30.263-1.565l-10.839-28.3c-1.339-3.497-4.698-5.807-8.443-5.807s-7.104,2.31-8.443,5.807
	l-10.839,28.3l-30.263,1.565c-3.741,0.192-6.975,2.673-8.132,6.235C57.946,233.401,59.106,237.309,62.019,239.663z M104.306,239.795
	c3.571-0.184,6.698-2.457,7.977-5.796l4.499-11.747l4.499,11.747c1.279,3.339,4.406,5.61,7.977,5.796l12.562,0.649l-9.782,7.909
	c-2.78,2.248-3.975,5.924-3.046,9.377l3.265,12.148l-10.545-6.858c-1.498-0.975-3.214-1.462-4.929-1.462
	c-1.715,0-3.431,0.487-4.929,1.462l-10.545,6.858l3.265-12.148c0.928-3.453-0.266-7.128-3.046-9.377l-9.782-7.909L104.306,239.795z
	 M483.457,149.503c0-3.711-0.494-7.438-1.465-11.078c-0.506-1.899-1.155-3.789-1.925-5.615c-3.179-7.544-8.398-13.991-15.096-18.652
	c-1.118-0.778-2.089-1.4-3.062-1.961L277.499,5.767C270.96,1.994,263.514,0,255.965,0c-7.555,0-15.005,1.996-21.547,5.776
	L50.043,112.265c-0.95,0.549-1.896,1.152-2.978,1.902c-4.086,2.831-7.635,6.335-10.547,10.421c-1.912,2.683-3.519,5.597-4.775,8.658
	c-2.147,5.23-3.234,10.724-3.234,16.334l0.035,212.917c0,0.921,0.034,1.876,0.105,2.919c0.016,0.234,0.037,0.469,0.061,0.702
	l0.014,0.143c0.061,0.693,0.134,1.385,0.231,2.095c0.034,0.24,0.071,0.477,0.108,0.716l0.025,0.16
	c0.11,0.691,0.235,1.378,0.38,2.075c0.053,0.254,0.107,0.508,0.163,0.746c0.177,0.779,0.377,1.547,0.608,2.351l0.112,0.393
	c1.144,3.827,2.821,7.486,4.988,10.875c1.484,2.322,3.198,4.509,5.089,6.494c0.04,0.042,0.153,0.164,0.195,0.206
	c0.896,0.929,1.847,1.83,2.81,2.663l0.498,0.419c1.093,0.919,2.105,1.699,3.096,2.388c1.096,0.764,2.096,1.403,3.064,1.963
	l184.411,106.428c6.538,3.773,13.985,5.768,21.534,5.768l0,0c7.554,0,15.005-1.998,21.547-5.776l184.372-106.49
	c0.945-0.545,1.89-1.149,2.982-1.905c0.986-0.682,1.999-1.461,3.181-2.448c0.14-0.116,0.278-0.231,0.405-0.34
	c0.99-0.854,1.941-1.752,2.84-2.681l0.159-0.171c4.695-4.904,8.206-10.929,10.149-17.421l0.116-0.406
	c0.224-0.775,0.427-1.556,0.605-2.34l0.169-0.773c0.143-0.684,0.27-1.374,0.398-2.177c0.042-0.259,0.082-0.518,0.121-0.792
	c0.094-0.69,0.168-1.383,0.228-2.071l0.014-0.143c0.024-0.24,0.047-0.48,0.063-0.721c0.071-1.043,0.105-1.999,0.105-2.931
	L483.457,149.503z M465.41,362.423c0,0.571-0.025,1.138-0.061,1.678l-0.051,0.52c-0.035,0.404-0.076,0.805-0.129,1.191l-0.063,0.407
	c0,0.004-0.02,0.125-0.02,0.127c-0.064,0.404-0.137,0.804-0.231,1.251l-0.084,0.387c-0.104,0.457-0.222,0.909-0.347,1.341
	l-0.071,0.254c-0.083,0.277-0.182,0.55-0.275,0.826H116.366l96.32-64.214H465.4L465.41,362.423z M276.688,248.477l-36.877-24.585
	h225.577l0.011,64.216H239.81l36.877-24.585c2.515-1.677,4.026-4.499,4.026-7.522C280.713,252.976,279.203,250.154,276.688,248.477z
	 M243.463,21.434c3.795-2.193,8.119-3.351,12.504-3.351c4.381,0,8.701,1.157,12.495,3.347l176.881,102.083H411.19
	c-4.993,0-9.041,4.047-9.041,9.041c0,4.994,4.048,9.041,9.041,9.041h52.876c0.166,0.494,0.322,0.993,0.454,1.491
	c0.565,2.121,0.854,4.281,0.854,6.418l0.01,56.304H212.686l-96.32-64.214h257.961c4.993,0,9.041-4.047,9.041-9.041
	c0-4.994-4.048-9.041-9.041-9.041H89.242l-10.452-6.968L243.463,21.434z M50.529,375.856c-1.237-1.948-2.195-4.047-2.849-6.239
	l-0.069-0.246c-0.127-0.442-0.244-0.888-0.351-1.354l-0.093-0.428c-0.082-0.395-0.154-0.793-0.217-1.183l-0.082-0.523
	c-0.054-0.4-0.096-0.803-0.13-1.203l-0.048-0.493c-0.039-0.561-0.064-1.125-0.064-1.699l-0.035-212.912
	c0-3.24,0.632-6.425,1.881-9.467c0.729-1.781,1.662-3.472,2.769-5.025c1.696-2.378,3.755-4.415,6.119-6.053
	c0.668-0.463,1.216-0.815,1.725-1.109l2.236-1.291l20.114,13.41c0.01,0.006,0.019,0.013,0.029,0.019l123.42,82.28
	c0.006,0.005,0.013,0.01,0.02,0.014l50.467,33.644l-50.467,33.644c-0.007,0.005-0.013,0.01-0.02,0.014L81.466,371.938
	c-0.01,0.006-0.019,0.013-0.029,0.021l-20.145,13.431l-2.16-1.246c-0.529-0.305-1.095-0.669-1.775-1.143
	c-0.538-0.375-1.126-0.829-1.787-1.385l-0.293-0.246c-0.568-0.489-1.119-1.011-1.589-1.497c-0.027-0.03-0.129-0.139-0.157-0.169
	c-1.099-1.155-2.094-2.424-2.956-3.772C50.559,375.904,50.544,375.88,50.529,375.856z M268.539,490.566
	c-3.796,2.192-8.119,3.351-12.502,3.351c-4.381,0-8.701-1.159-12.496-3.348L78.763,395.472l10.477-6.985h356.035L268.539,490.566z"
	/>
<g>
</g>
<g>
</g>
<g>
</g>
<g>
</g>
<g>
</g>
<g>
</g>
<g>
</g>
<g>
</g>
<g>
</g>
<g>
</g>
<g>
</g>
<g>
</g>
<g>
</g>
<g>
</g>
<g>
</g>
</svg>
