<?xml version="1.0" encoding="iso-8859-1"?>
<!-- Generator: Adobe Illustrator 19.0.0, SVG Export Plug-In . SVG Version: 6.00 Build 0)  -->
<svg version="1.1" id="Layer_1" xmlns="http://www.w3.org/2000/svg" xmlns:xlink="http://www.w3.org/1999/xlink" x="0px" y="0px"
	 viewBox="0 0 512.001 512.001" style="enable-background:new 0 0 512.001 512.001;" xml:space="preserve">
<path style="fill:#FFFFFF;" d="M474.446,321.512L474.446,321.512l-0.005-26.206v-0.002v-4.213l-0.004-25.574l-0.008-48.824
	l-0.004-26.204l-0.007-40.984c0-2.995-0.406-5.931-1.16-8.75c-0.404-1.517-0.915-2.997-1.521-4.435
	c-2.477-5.877-6.574-11.017-11.925-14.74c-0.784-0.545-1.584-1.071-2.419-1.553l-22.874-13.202l-21.414-12.358l-17.24-9.949
	l-65.925-38.046l-25.717-14.844l-19.288-11.132l-11.953-6.899c-10.534-6.078-23.509-6.076-34.04,0.007l-11.872,6.857l-19.288,11.14
	l-25.717,14.854v-0.001l-50.39,29.105l-15.527,8.967l-28.89,16.686L65.85,113.578l-11.284,6.517
	c-0.811,0.468-1.59,0.979-2.353,1.506c-3.273,2.268-6.073,5.068-8.333,8.235c-1.517,2.129-2.781,4.424-3.773,6.843
	c-1.655,4.031-2.558,8.399-2.558,12.899v1.503l0,0l0.006,39.407v1.932l0,0l0.004,24.273l0.005,31.087l0,0l0.007,41.338l0,0v1.313
	l0.001,4.011v0.849v0.002v0.013v0.005l0.004,26.2v0.001v1.863l0.001,12.617l0.001,8.488l0,0l0.004,18.009v0.006l0,0
	c0,0.773,0.031,1.539,0.084,2.304c0.016,0.225,0.042,0.445,0.061,0.669c0.048,0.548,0.105,1.096,0.18,1.638
	c0.033,0.236,0.071,0.471,0.108,0.706c0.087,0.545,0.184,1.086,0.298,1.626c0.042,0.201,0.084,0.403,0.13,0.603
	c0.14,0.615,0.298,1.222,0.471,1.826c0.033,0.112,0.061,0.227,0.095,0.339c0.909,3.042,2.24,5.93,3.94,8.588
	c0,0.001,0.001,0.002,0.001,0.002l0.001,0.002c1.172,1.832,2.517,3.551,4.025,5.137c0.051,0.052,0.099,0.106,0.148,0.158
	c0.061,0.065,0.131,0.121,0.193,0.183l0,0c0.653,0.667,1.328,1.315,2.039,1.931c0.125,0.108,0.254,0.213,0.382,0.321
	c0.786,0.661,1.594,1.298,2.445,1.89c0.784,0.545,1.584,1.07,2.421,1.553l22.552,13.015l21.414,12.36l11.528,6.653l0,0l6.032,3.482
	l91.644,52.89l19.288,11.132l11.953,6.899c10.533,6.078,23.509,6.076,34.04-0.007l11.872-6.857l19.288-11.14l25.717-14.853
	l55.554-32.086l10.363-5.985l26.36-15.225l21.408-12.365l13.813-7.978c0.811-0.468,1.59-0.979,2.353-1.506
	c0.851-0.588,1.659-1.226,2.446-1.884c0.129-0.107,0.258-0.212,0.386-0.323c0.779-0.671,1.526-1.374,2.236-2.108
	c0.047-0.047,0.09-0.096,0.136-0.146c3.725-3.891,6.476-8.609,8.02-13.765c0.031-0.107,0.059-0.216,0.09-0.323
	c0.176-0.611,0.336-1.228,0.48-1.85c0.046-0.2,0.088-0.401,0.13-0.603c0.113-0.54,0.213-1.085,0.3-1.634
	c0.037-0.236,0.076-0.473,0.11-0.711c0.076-0.544,0.131-1.092,0.18-1.643c0.021-0.225,0.047-0.447,0.063-0.674
	c0.052-0.767,0.084-1.537,0.084-2.313l0,0v-0.006L474.446,321.512z"/>
<g>
	<path style="fill:#164FCE;" d="M88.204,411.358l10.372,5.988l11.528,6.653l0,0l6.032,3.482l91.644,52.89l19.288,11.132
		l11.953,6.899c10.533,6.078,23.509,6.076,34.04-0.007l11.872-6.857l19.288-11.14l25.717-14.853l55.554-32.086l10.363-5.985
		l26.36-15.225l1.562-0.903L256.001,299.069L88.204,411.358z"/>
	<path style="fill:#164FCE;" d="M423.8,100.64l-10.694-6.172l-17.24-9.949l-65.925-38.046l-25.717-14.844l-19.288-11.132
		l-11.953-6.899c-10.534-6.078-23.509-6.076-34.04,0.007l-11.872,6.857l-19.288,11.14l-25.717,14.853l0,0l-50.39,29.105
		l-15.527,8.967l-27.923,16.127l167.777,112.276L423.8,100.64z"/>
	<polygon style="fill:#164FCE;" points="37.551,152.884 37.559,190.49 37.559,192.42 37.559,192.42 37.562,216.693 37.567,247.78 
		37.568,247.78 37.574,289.119 37.574,289.119 37.574,290.431 37.575,294.442 37.575,295.291 37.575,295.293 37.575,295.307 
		37.575,295.311 37.579,321.51 37.579,321.512 37.58,323.375 37.581,335.992 37.584,344.48 37.584,344.48 37.586,359.092 
		191.641,255.999 	"/>
	<polygon style="fill:#164FCE;" points="434.956,179.315 404.805,199.492 320.363,255.999 474.451,359.116 474.446,321.512 
		474.446,321.51 474.441,295.307 474.441,295.304 474.44,291.091 474.437,265.517 474.428,216.693 474.424,190.49 474.417,152.908 
		453.658,166.798 	"/>
</g>
<path d="M483.459,149.505c0-3.711-0.493-7.439-1.465-11.08c-0.506-1.899-1.155-3.789-1.925-5.615
	c-3.179-7.544-8.398-13.991-15.094-18.652c-1.118-0.778-2.089-1.4-3.062-1.961L277.5,5.767C270.963,1.994,263.516,0,255.967,0
	c-7.555,0-15.005,1.996-21.549,5.776L50.044,112.265c-0.95,0.549-1.896,1.152-2.978,1.902c-4.086,2.831-7.635,6.335-10.547,10.421
	c-1.912,2.683-3.519,5.597-4.775,8.658c-2.147,5.23-3.234,10.724-3.234,16.336l0.036,212.914c0,0.921,0.034,1.876,0.105,2.919
	c0.016,0.237,0.039,0.475,0.061,0.711l0.013,0.136c0.061,0.696,0.134,1.39,0.228,2.071c0.036,0.27,0.078,0.536,0.137,0.898
	c0.11,0.688,0.234,1.373,0.38,2.075c0.053,0.254,0.107,0.508,0.163,0.745c0.177,0.78,0.377,1.553,0.603,2.333
	c0.04,0.148,0.082,0.295,0.117,0.411c1.127,3.773,2.771,7.38,4.891,10.723c0.051,0.083,0.104,0.166,0.157,0.247
	c1.47,2.286,3.164,4.441,5.013,6.383c0.052,0.057,0.184,0.198,0.239,0.252c0.113,0.117,0.229,0.23,0.351,0.345
	c0.846,0.857,1.647,1.611,2.417,2.277c0.136,0.121,0.276,0.236,0.415,0.352l0.096,0.08c1.093,0.919,2.105,1.699,3.096,2.388
	c1.096,0.763,2.096,1.403,3.064,1.963l184.411,106.428c6.539,3.773,13.985,5.768,21.534,5.768l0,0
	c7.554,0,15.005-1.998,21.547-5.776l184.372-106.488c0.945-0.546,1.891-1.15,2.986-1.907c0.991-0.687,2.004-1.466,3.156-2.43
	c0.148-0.122,0.294-0.244,0.422-0.354c0.989-0.851,1.942-1.75,2.846-2.685l0.159-0.171c4.695-4.904,8.205-10.929,10.135-17.375
	c0.046-0.151,0.088-0.301,0.13-0.457c0.223-0.775,0.427-1.553,0.605-2.336c0.058-0.253,0.112-0.508,0.166-0.767
	c0.145-0.687,0.271-1.378,0.388-2.112c0.046-0.282,0.09-0.565,0.131-0.863c0.094-0.69,0.168-1.384,0.228-2.071l0.016-0.157
	c0.023-0.227,0.045-0.454,0.061-0.709c0.071-1.043,0.105-1.999,0.105-2.929L483.459,149.505z M243.463,21.434
	c3.796-2.193,8.12-3.351,12.505-3.351c4.381,0,8.701,1.157,12.495,3.347l138.232,79.778L256.002,202.051L105.326,101.219
	L243.463,21.434z M46.625,342.164l-0.029-172.348l128.788,86.184L46.625,342.164z M268.54,490.566
	c-3.796,2.192-8.119,3.351-12.502,3.351c-4.381,0-8.701-1.159-12.496-3.348L105.31,410.792l150.691-100.843l150.676,100.833
	L268.54,490.566z M465.3,364.618c-0.035,0.404-0.076,0.806-0.129,1.192l-0.084,0.534c-0.064,0.401-0.136,0.799-0.218,1.191
	l-0.096,0.447c-0.105,0.458-0.223,0.911-0.36,1.385l-0.058,0.21c-1.128,3.765-3.164,7.26-5.907,10.125l-0.083,0.09
	c-0.512,0.529-1.064,1.05-1.656,1.559l-0.272,0.227c-0.67,0.561-1.257,1.015-1.788,1.382c-0.671,0.465-1.22,0.817-1.731,1.113
	l-28.784,16.625L261.031,291.555c-3.043-2.036-7.014-2.036-10.058,0L87.852,400.716l-28.719-16.575
	c-0.529-0.305-1.095-0.669-1.775-1.143c-0.538-0.375-1.126-0.829-1.787-1.385l-0.292-0.243c-0.461-0.399-0.95-0.863-1.53-1.455
	c-0.07-0.071-0.142-0.141-0.215-0.211c0-0.001-0.001-0.001-0.002-0.002c-1.084-1.138-2.065-2.386-2.916-3.709
	c-0.014-0.024-0.029-0.046-0.043-0.07c-1.257-1.966-2.231-4.087-2.89-6.296l-0.074-0.262c-0.127-0.44-0.242-0.882-0.348-1.347
	l-0.092-0.426c-0.082-0.397-0.156-0.796-0.221-1.209c0-0.004-0.019-0.121-0.02-0.124l-0.06-0.387
	c-0.054-0.397-0.094-0.797-0.13-1.209l-0.047-0.475c-0.007-0.099-0.005-0.203-0.011-0.301l149.987-100.372
	c2.509-1.679,4.013-4.497,4.013-7.514c0-3.017-1.506-5.836-4.013-7.514L46.665,148.103c0.163-2.732,0.751-5.415,1.808-7.994
	c0.729-1.781,1.662-3.472,2.769-5.025c1.696-2.378,3.755-4.415,6.119-6.053c0.668-0.463,1.216-0.815,1.725-1.109l28.785-16.624
	l163.101,109.147c3.043,2.036,7.014,2.036,10.058,0l163.123-109.162l28.717,16.573c0.523,0.301,1.089,0.667,1.779,1.145
	c3.881,2.7,6.908,6.445,8.757,10.832c0.448,1.062,0.825,2.157,1.116,3.252c0.442,1.66,0.709,3.343,0.807,5.022l-35.401,23.691
	c-4.151,2.778-5.263,8.393-2.487,12.542c2.777,4.151,8.393,5.262,12.542,2.487l25.396-16.994l0.029,172.348l-128.788-86.183
	l73.212-48.994c4.151-2.778,5.263-8.393,2.486-12.542c-2.776-4.149-8.392-5.263-12.542-2.487l-84.442,56.508
	c-2.509,1.679-4.013,4.497-4.013,7.514c0,3.017,1.506,5.836,4.013,7.514l150.022,100.394c-0.004,0.058-0.002,0.123-0.006,0.178
	L465.3,364.618z"/>
<g>
</g>
<g>
</g>
<g>
</g>
<g>
</g>
<g>
</g>
<g>
</g>
<g>
</g>
<g>
</g>
<g>
</g>
<g>
</g>
<g>
</g>
<g>
</g>
<g>
</g>
<g>
</g>
<g>
</g>
</svg>
