<?xml version="1.0" encoding="iso-8859-1"?>
<!-- Generator: Adobe Illustrator 19.0.0, SVG Export Plug-In . SVG Version: 6.00 Build 0)  -->
<svg version="1.1" id="Layer_1" xmlns="http://www.w3.org/2000/svg" xmlns:xlink="http://www.w3.org/1999/xlink" x="0px" y="0px"
	 viewBox="0 0 512.001 512.001" style="enable-background:new 0 0 512.001 512.001;" xml:space="preserve">
<path style="fill:#FFE000;" d="M473.105,371.85c0.176-0.61,0.336-1.227,0.479-1.848c0.046-0.201,0.089-0.403,0.131-0.604
	c0.113-0.54,0.213-1.084,0.3-1.634c0.037-0.236,0.076-0.473,0.11-0.711c0.075-0.545,0.131-1.093,0.18-1.643
	c0.021-0.225,0.047-0.448,0.063-0.674c0.052-0.767,0.084-1.538,0.084-2.313l0,0l0,0v-0.006l-0.006-40.904v-0.002l-0.005-26.203
	v-0.002v-4.213l-0.004-25.574l0,0l-0.008-48.824l-0.005-26.203l-0.006-40.985c0-2.995-0.408-5.931-1.16-8.75
	c-0.405-1.517-0.915-2.997-1.521-4.435c-2.477-5.876-6.574-11.016-11.925-14.74c-0.784-0.545-1.584-1.071-2.419-1.553
	l-22.874-13.202l-21.414-12.358l-17.239-9.949l-65.926-38.046l-25.717-14.844l-19.288-11.132l-11.953-6.899
	c-10.533-6.078-23.509-6.076-34.04,0.007l-11.872,6.857l-19.288,11.14l-25.717,14.853l0,0l-65.918,38.072l-28.889,16.686
	L65.85,113.578l-11.284,6.516c-0.811,0.469-1.59,0.98-2.353,1.507c-3.272,2.268-6.073,5.067-8.333,8.236
	c-1.517,2.127-2.781,4.422-3.773,6.841c-1.655,4.032-2.558,8.399-2.557,12.899l0.006,40.913l0.005,26.203l0.012,73.738v4.011v0.849
	v0.002v0.013l0,0v0.005l0,0l0.005,26.198v0.002v1.863l0.002,12.617l0.004,26.496v0.007l0,0c0,0.773,0.033,1.539,0.084,2.304
	c0.016,0.225,0.042,0.446,0.061,0.669c0.048,0.55,0.105,1.096,0.18,1.638c0.033,0.236,0.072,0.471,0.108,0.706
	c0.087,0.545,0.186,1.086,0.298,1.626c0.042,0.201,0.086,0.403,0.131,0.603c0.14,0.615,0.298,1.222,0.471,1.825
	c0.033,0.113,0.061,0.228,0.095,0.34c0.909,3.042,2.24,5.93,3.94,8.588l0.001,0.002l0.001,0.002
	c1.172,1.832,2.517,3.551,4.025,5.136c0.051,0.054,0.099,0.108,0.148,0.16c0.709,0.734,1.454,1.438,2.231,2.112
	c0.125,0.108,0.254,0.215,0.382,0.322c0.786,0.661,1.595,1.298,2.445,1.89c0.784,0.545,1.584,1.072,2.419,1.553l22.552,13.016
	l21.414,12.359l17.561,10.134l91.644,52.89l19.288,11.132l11.953,6.899c10.533,6.078,23.509,6.076,34.04-0.007l11.872-6.857
	l19.288-11.14l25.717-14.853l55.554-32.085l10.363-5.987l26.36-15.224l21.408-12.365l13.813-7.977
	c0.811-0.469,1.59-0.98,2.353-1.507c0.851-0.588,1.659-1.226,2.446-1.884c0.128-0.107,0.258-0.212,0.385-0.323
	c0.78-0.671,1.526-1.374,2.237-2.108c0.047-0.048,0.09-0.098,0.136-0.146c3.724-3.891,6.476-8.61,8.02-13.766
	C473.045,372.067,473.073,371.958,473.105,371.85z"/>
<path style="fill:#ED1F34;" d="M474.416,149.505c0-2.995-0.408-5.931-1.16-8.75c-0.405-1.517-0.915-2.997-1.521-4.435
	c-2.477-5.876-6.574-11.016-11.925-14.74c-0.784-0.545-1.584-1.071-2.419-1.553l-22.874-13.202l-21.414-12.358l-17.239-9.949
	l-65.925-38.046l-25.717-14.844l-19.288-11.132l-11.953-6.899c-10.533-6.078-23.509-6.076-34.04,0.007l-11.872,6.857l-19.288,11.14
	l-25.717,14.853l0,0l-65.918,38.072l-28.889,16.686L65.85,113.578l-11.284,6.516c-0.811,0.469-1.59,0.98-2.353,1.507
	c-3.272,2.268-6.073,5.067-8.333,8.236c-1.517,2.127-2.781,4.422-3.773,6.841c-1.655,4.032-2.558,8.399-2.557,12.899l0.006,37.842
	h436.866L474.416,149.505z"/>
<path style="fill:#259245;" d="M397.931,324.58H37.579l0.002,11.411l0.004,26.496v0.007l0,0c0,0.773,0.033,1.539,0.084,2.304
	c0.016,0.225,0.042,0.446,0.061,0.669c0.048,0.55,0.105,1.096,0.18,1.638c0.033,0.236,0.072,0.471,0.108,0.706
	c0.087,0.545,0.186,1.087,0.298,1.626c0.042,0.201,0.086,0.403,0.131,0.603c0.14,0.615,0.298,1.222,0.471,1.825
	c0.033,0.113,0.061,0.228,0.095,0.34c0.909,3.042,2.24,5.93,3.94,8.588l0.001,0.002l0.001,0.002
	c1.172,1.832,2.517,3.551,4.025,5.136c0.051,0.054,0.099,0.107,0.148,0.16c0.709,0.734,1.454,1.438,2.231,2.112
	c0.125,0.108,0.254,0.215,0.382,0.322c0.786,0.661,1.595,1.298,2.445,1.89c0.784,0.545,1.584,1.072,2.419,1.553l22.552,13.016
	l21.414,12.359l17.561,10.134l91.644,52.89l19.288,11.132l11.953,6.899c10.533,6.078,23.509,6.076,34.04-0.007l11.872-6.857
	l19.288-11.14l25.717-14.853l55.554-32.085l10.363-5.987l26.36-15.225l21.408-12.365l13.813-7.977
	c0.811-0.469,1.59-0.98,2.353-1.507c0.851-0.588,1.659-1.226,2.446-1.884c0.128-0.107,0.258-0.212,0.385-0.323
	c0.78-0.671,1.526-1.374,2.237-2.108c0.047-0.048,0.09-0.098,0.136-0.146c3.724-3.891,6.476-8.61,8.02-13.766
	c0.031-0.106,0.059-0.215,0.09-0.323c0.176-0.61,0.336-1.227,0.479-1.848c0.046-0.201,0.089-0.403,0.131-0.604
	c0.113-0.54,0.213-1.085,0.3-1.634c0.037-0.236,0.076-0.473,0.11-0.711c0.075-0.545,0.131-1.093,0.18-1.643
	c0.021-0.225,0.047-0.448,0.063-0.674c0.052-0.767,0.084-1.538,0.084-2.313l0,0v-0.006l-0.006-37.836h-35.365h-41.147V324.58z"/>
<polygon style="fill:#333333;" points="215.438,246.893 245.303,245.35 256,217.423 266.697,245.35 296.562,246.893 
	273.308,265.695 281.069,294.576 256,278.27 230.932,294.576 238.694,265.695 "/>
<path d="M281.069,303.617c-1.713,0-3.427-0.485-4.929-1.462L256,289.056l-20.139,13.099c-3.139,2.043-7.214,1.937-10.245-0.265
	c-3.031-2.201-4.389-6.044-3.418-9.661l6.235-23.201l-18.682-15.104c-2.914-2.354-4.072-6.261-2.914-9.824
	c1.157-3.562,4.392-6.043,8.132-6.236l23.992-1.239l8.593-22.435c1.339-3.497,4.698-5.807,8.443-5.807s7.104,2.31,8.443,5.807
	l8.593,22.435l23.992,1.239c3.741,0.193,6.975,2.674,8.132,6.236c1.157,3.562-0.001,7.469-2.914,9.824l-18.682,15.104l6.235,23.201
	c0.972,3.617-0.387,7.46-3.418,9.661C284.802,303.04,282.937,303.617,281.069,303.617z M256,269.229
	c1.715,0,3.431,0.487,4.929,1.462l5.28,3.436l-1.635-6.084c-0.928-3.453,0.266-7.128,3.048-9.377l4.898-3.96l-6.29-0.326
	c-3.571-0.184-6.698-2.457-7.977-5.796L256,242.701l-2.253,5.883c-1.279,3.339-4.406,5.61-7.977,5.796l-6.29,0.326l4.898,3.96
	c2.781,2.248,3.975,5.924,3.048,9.377l-1.635,6.084l5.28-3.436C252.569,269.716,254.285,269.229,256,269.229z M483.458,149.503
	c0-3.711-0.494-7.438-1.466-11.079c-0.506-1.896-1.155-3.788-1.925-5.614c-3.179-7.543-8.398-13.99-15.096-18.652
	c-1.115-0.776-2.087-1.397-3.062-1.96L277.499,5.767C270.962,1.995,263.514,0,255.965,0c-7.555,0-15.005,1.998-21.547,5.776
	L50.043,112.265c-0.945,0.546-1.89,1.15-2.979,1.904c-4.086,2.831-7.633,6.335-10.546,10.421c-1.912,2.682-3.519,5.595-4.775,8.657
	c-2.147,5.231-3.234,10.726-3.234,16.335l0.035,212.915c0,0.921,0.034,1.875,0.105,2.917c0.017,0.235,0.039,0.469,0.061,0.702
	l0.014,0.143c0.06,0.694,0.134,1.386,0.231,2.096c0.034,0.24,0.071,0.477,0.108,0.717l0.025,0.158
	c0.11,0.69,0.234,1.375,0.379,2.066c0.053,0.257,0.107,0.511,0.164,0.758c0.177,0.776,0.377,1.543,0.606,2.348l0.112,0.392
	c1.143,3.829,2.821,7.486,4.985,10.873c0.012,0.019,0.025,0.037,0.037,0.058c1.477,2.301,3.179,4.47,5.054,6.441
	c0.04,0.042,0.153,0.163,0.194,0.205c0.887,0.921,1.837,1.82,2.827,2.677l0.481,0.405c1.098,0.923,2.111,1.703,3.096,2.389
	c1.114,0.775,2.087,1.397,3.064,1.961L234.5,506.234c6.539,3.772,13.985,5.766,21.534,5.767l0,0c7.554,0,15.005-1.998,21.547-5.776
	l184.375-106.491c0.949-0.546,1.895-1.151,2.979-1.902c0.987-0.682,2.001-1.462,3.099-2.381c0.005-0.004,0.101-0.084,0.106-0.088
	l0.381-0.322c0.989-0.852,1.942-1.749,2.81-2.646l0.194-0.205c4.695-4.906,8.205-10.932,10.152-17.433l0.113-0.398
	c0.223-0.774,0.426-1.554,0.606-2.342l0.168-0.77c0.143-0.682,0.27-1.371,0.38-2.067l0.02-0.123c0.04-0.253,0.08-0.508,0.118-0.776
	c0.094-0.691,0.168-1.385,0.228-2.073l0.014-0.143c0.024-0.239,0.047-0.477,0.063-0.719c0.071-1.045,0.105-2.001,0.105-2.932
	L483.458,149.503z M48.472,140.11c0.731-1.781,1.662-3.471,2.77-5.025c1.696-2.378,3.755-4.415,6.116-6.049
	c0.671-0.465,1.221-0.82,1.73-1.113l184.375-106.49c3.796-2.192,8.119-3.351,12.504-3.351c4.381,0,8.701,1.157,12.495,3.347
	L452.87,127.856c0.526,0.304,1.091,0.669,1.778,1.145c3.881,2.699,6.909,6.446,8.758,10.829c0.448,1.064,0.825,2.159,1.116,3.254
	c0.567,2.122,0.854,4.282,0.854,6.419l0.005,28.872H46.596l-0.005-28.802C46.59,146.337,47.223,143.151,48.472,140.11z
	 M465.348,364.098l-0.051,0.521c-0.035,0.403-0.076,0.805-0.129,1.191l-0.083,0.534c-0.064,0.403-0.139,0.804-0.227,1.227
	l-0.089,0.411c-0.105,0.458-0.223,0.91-0.347,1.342l-0.071,0.254c-1.128,3.764-3.164,7.26-5.908,10.125l-0.083,0.092
	c-0.512,0.528-1.066,1.05-1.654,1.556l-0.272,0.227c-0.684,0.571-1.254,1.011-1.794,1.385c-0.668,0.464-1.216,0.815-1.728,1.11
	l-184.375,106.49c-3.796,2.192-8.119,3.351-12.504,3.351c-4.381-0.001-8.701-1.157-12.495-3.347L59.131,384.143
	c-0.526-0.304-1.091-0.669-1.778-1.146c-0.54-0.375-1.109-0.817-1.783-1.383l-0.288-0.24c-0.576-0.499-1.128-1.022-1.596-1.507
	c-0.027-0.028-0.128-0.135-0.154-0.164c-1.099-1.156-2.094-2.425-2.956-3.774c-0.011-0.017-0.022-0.033-0.033-0.049
	c-1.244-1.954-2.209-4.06-2.866-6.265l-0.066-0.237c-0.127-0.445-0.245-0.892-0.35-1.351l-0.093-0.433
	c-0.083-0.395-0.156-0.793-0.217-1.184l-0.082-0.523c-0.054-0.4-0.095-0.803-0.13-1.201l-0.048-0.495
	c-0.039-0.562-0.064-1.125-0.064-1.699l-0.005-28.866h351.308c4.993,0,9.041-4.047,9.041-9.041s-4.048-9.041-9.041-9.041H46.619
	l-0.02-119.078h418.783l0.021,119.078H439.08c-4.993,0-9.041,4.047-9.041,9.041s4.048,9.041,9.041,9.041h26.326l0.005,28.801
	C465.41,362.994,465.384,363.562,465.348,364.098z"/>
<g>
</g>
<g>
</g>
<g>
</g>
<g>
</g>
<g>
</g>
<g>
</g>
<g>
</g>
<g>
</g>
<g>
</g>
<g>
</g>
<g>
</g>
<g>
</g>
<g>
</g>
<g>
</g>
<g>
</g>
</svg>
