<?xml version="1.0" encoding="iso-8859-1"?>
<!-- Generator: Adobe Illustrator 19.0.0, SVG Export Plug-In . SVG Version: 6.00 Build 0)  -->
<svg version="1.1" id="Layer_1" xmlns="http://www.w3.org/2000/svg" xmlns:xlink="http://www.w3.org/1999/xlink" x="0px" y="0px"
	 viewBox="0 0 512 512" style="enable-background:new 0 0 512 512;" xml:space="preserve">
<path style="fill:#FFFFFF;" d="M473.103,371.851c0.176-0.611,0.336-1.228,0.479-1.85c0.046-0.201,0.089-0.401,0.131-0.603
	c0.113-0.541,0.213-1.085,0.3-1.634c0.037-0.236,0.076-0.473,0.11-0.711c0.075-0.545,0.131-1.093,0.18-1.643
	c0.02-0.225,0.047-0.447,0.063-0.674c0.052-0.767,0.084-1.537,0.084-2.313l0,0l0,0v-0.006l-0.006-40.904v-0.001l-0.005-26.204
	v-0.002v-4.213l-0.004-25.574l0,0l-0.008-48.824l-0.005-26.204l-0.006-40.985c0-2.996-0.407-5.93-1.16-8.75
	c-0.405-1.517-0.915-2.997-1.521-4.435c-2.477-5.877-6.574-11.016-11.925-14.74c-0.784-0.545-1.584-1.071-2.419-1.554l-22.874-13.2
	l-21.414-12.358l-17.239-9.949l-65.926-38.046l-25.717-14.842l-19.288-11.132l-11.953-6.898c-10.533-6.078-23.509-6.077-34.04,0.006
	l-11.872,6.857l-19.288,11.14l-25.717,14.854l0,0l-65.918,38.07l-28.889,16.686l-21.406,12.365l-11.284,6.517
	c-0.811,0.469-1.59,0.979-2.353,1.507c-3.272,2.266-6.073,5.068-8.333,8.236c-1.517,2.128-2.781,4.423-3.773,6.841
	c-1.655,4.031-2.558,8.399-2.557,12.899l0.006,40.912l0.005,26.204l0.012,73.738v4.011v0.849v0.002v0.013l0,0v0.005l0,0l0.005,26.2
	l0,0v1.864l0.002,12.617l0.004,26.497v0.006l0,0c0,0.773,0.033,1.539,0.084,2.304c0.016,0.224,0.042,0.446,0.061,0.669
	c0.048,0.55,0.105,1.096,0.18,1.638c0.033,0.236,0.072,0.471,0.108,0.706c0.087,0.546,0.186,1.087,0.298,1.626
	c0.042,0.201,0.086,0.403,0.131,0.603c0.14,0.615,0.298,1.222,0.471,1.825c0.033,0.113,0.061,0.227,0.095,0.34
	c0.909,3.043,2.24,5.93,3.94,8.589c0,0,0.001,0.001,0.001,0.002l0.001,0.001c1.172,1.832,2.517,3.551,4.025,5.137
	c0.051,0.052,0.099,0.106,0.148,0.158c0.709,0.735,1.454,1.441,2.231,2.112c0.125,0.11,0.254,0.215,0.382,0.322
	c0.786,0.661,1.595,1.3,2.445,1.89c0.784,0.545,1.584,1.07,2.419,1.554l22.552,13.015l21.414,12.359l17.561,10.135l91.644,52.89
	l19.288,11.132l11.953,6.898c10.533,6.078,23.509,6.077,34.04-0.006l11.872-6.857l19.288-11.14l25.717-14.853l55.554-32.086
	l10.363-5.985l26.36-15.224l21.408-12.365l13.813-7.978c0.811-0.469,1.59-0.979,2.353-1.507c0.851-0.59,1.659-1.226,2.446-1.883
	c0.128-0.107,0.258-0.213,0.385-0.322c0.78-0.673,1.526-1.375,2.237-2.11c0.047-0.048,0.09-0.098,0.136-0.146
	c3.724-3.891,6.476-8.609,8.02-13.765C473.044,372.067,473.072,371.958,473.103,371.851z"/>
<path style="fill:#FF7900;" d="M111.98,187.42h362.441l-0.006-37.915c0-2.996-0.407-5.93-1.16-8.75
	c-0.405-1.517-0.915-2.997-1.521-4.435c-2.477-5.877-6.574-11.016-11.925-14.74c-0.784-0.545-1.584-1.071-2.419-1.554l-22.874-13.2
	l-21.414-12.358l-17.239-9.949l-65.925-38.047l-25.717-14.842l-19.288-11.132l-11.953-6.898c-10.533-6.078-23.509-6.077-34.04,0.006
	l-11.872,6.857l-19.288,11.14l-25.717,14.854l0,0l-65.918,38.07l-28.889,16.686l-21.406,12.365l-11.284,6.517
	c-0.811,0.469-1.59,0.979-2.353,1.507c-3.272,2.266-6.073,5.068-8.333,8.236c-1.517,2.128-2.781,4.423-3.773,6.841
	c-1.655,4.031-2.558,8.399-2.557,12.899l0.006,37.842h33.276h41.149V187.42z"/>
<path style="fill:#259245;" d="M37.58,335.992l0.004,26.497v0.006l0,0c0,0.773,0.033,1.539,0.084,2.304
	c0.016,0.224,0.042,0.446,0.061,0.669c0.048,0.55,0.105,1.096,0.18,1.638c0.033,0.236,0.072,0.471,0.108,0.706
	c0.087,0.546,0.186,1.087,0.298,1.626c0.042,0.201,0.086,0.403,0.131,0.603c0.14,0.615,0.298,1.222,0.471,1.825
	c0.033,0.113,0.061,0.227,0.095,0.34c0.909,3.043,2.24,5.93,3.94,8.589c0,0,0.001,0.001,0.001,0.002l0.001,0.001
	c1.172,1.832,2.517,3.551,4.025,5.137c0.051,0.052,0.099,0.106,0.148,0.158c0.709,0.735,1.454,1.441,2.231,2.112
	c0.125,0.11,0.254,0.215,0.382,0.322c0.786,0.661,1.595,1.3,2.445,1.89c0.784,0.545,1.584,1.071,2.419,1.554l22.552,13.015
	l21.414,12.359l17.561,10.135l91.644,52.89l19.288,11.132l11.953,6.898c10.533,6.078,23.509,6.077,34.04-0.006l11.872-6.857
	l19.288-11.14l25.717-14.853l55.554-32.086l10.363-5.985l26.36-15.225l21.408-12.365l13.813-7.978
	c0.811-0.469,1.59-0.979,2.353-1.507c0.851-0.59,1.659-1.226,2.446-1.883c0.128-0.107,0.258-0.213,0.385-0.322
	c0.78-0.673,1.526-1.375,2.237-2.11c0.047-0.048,0.09-0.098,0.136-0.146c3.724-3.891,6.476-8.609,8.02-13.765
	c0.031-0.106,0.059-0.215,0.09-0.322c0.176-0.611,0.336-1.228,0.479-1.85c0.046-0.201,0.089-0.401,0.131-0.603
	c0.113-0.541,0.213-1.085,0.3-1.633c0.037-0.236,0.076-0.473,0.11-0.711c0.075-0.545,0.131-1.093,0.18-1.643
	c0.02-0.225,0.047-0.447,0.063-0.674c0.052-0.767,0.084-1.537,0.084-2.313l0,0v-0.006l-0.006-37.836H37.578L37.58,335.992z"/>
<path style="fill:#164FCE;" d="M255.999,293.72c-20.799,0-37.72-16.921-37.72-37.72s16.921-37.72,37.72-37.72
	s37.719,16.921,37.719,37.72S276.798,293.72,255.999,293.72z M255.999,238.854c-9.454,0-17.145,7.691-17.145,17.145
	s7.691,17.145,17.145,17.145s17.145-7.691,17.145-17.145S265.454,238.854,255.999,238.854z"/>
<path d="M483.456,149.503c0-3.711-0.494-7.438-1.466-11.08c-0.506-1.897-1.155-3.787-1.925-5.614
	c-3.179-7.543-8.398-13.991-15.096-18.652c-1.115-0.775-2.087-1.397-3.062-1.96L277.498,5.768C270.96,1.995,263.513,0,255.964,0
	c-7.555,0-15.005,1.998-21.547,5.776L50.042,112.265c-0.945,0.546-1.89,1.15-2.979,1.904c-4.086,2.831-7.633,6.335-10.546,10.421
	c-1.912,2.682-3.519,5.596-4.775,8.657c-2.147,5.231-3.234,10.726-3.234,16.334l0.035,212.917c0,0.921,0.034,1.876,0.105,2.917
	c0.017,0.235,0.039,0.468,0.061,0.702l0.014,0.146c0.061,0.693,0.134,1.384,0.231,2.096c0.034,0.241,0.071,0.481,0.11,0.721
	l0.025,0.152c0.11,0.691,0.235,1.377,0.379,2.07c0.054,0.256,0.108,0.51,0.164,0.755c0.177,0.776,0.377,1.544,0.606,2.348
	l0.112,0.392c1.143,3.828,2.821,7.485,4.985,10.871c0.013,0.022,0.027,0.042,0.04,0.063c1.478,2.301,3.179,4.469,5.043,6.425
	c0.041,0.045,0.162,0.174,0.204,0.217c0.892,0.926,1.842,1.825,2.817,2.669l0.489,0.412c1.098,0.922,2.111,1.703,3.096,2.389
	c1.114,0.775,2.087,1.398,3.064,1.961L234.5,506.232c6.539,3.773,13.985,5.768,21.534,5.768l0,0c7.554,0,15.005-1.998,21.547-5.776
	l184.373-106.49c0.949-0.547,1.895-1.152,2.979-1.902c0.985-0.681,1.999-1.46,3.098-2.38c0.005-0.004,0.102-0.086,0.107-0.089
	l0.381-0.322c0.989-0.852,1.942-1.75,2.81-2.646l0.194-0.205c4.695-4.905,8.205-10.93,10.154-17.438l0.111-0.392
	c0.224-0.774,0.427-1.554,0.608-2.344l0.168-0.769c0.143-0.684,0.27-1.372,0.38-2.064l0.019-0.121
	c0.041-0.257,0.081-0.512,0.119-0.781c0.094-0.69,0.168-1.384,0.228-2.072l0.014-0.143c0.024-0.24,0.047-0.479,0.063-0.72
	c0.071-1.044,0.105-2,0.105-2.931L483.456,149.503z M48.471,140.11c0.731-1.781,1.662-3.471,2.77-5.025
	c1.696-2.378,3.755-4.415,6.116-6.051c0.671-0.464,1.221-0.817,1.73-1.111l184.375-106.49c3.796-2.193,8.119-3.351,12.504-3.351
	c4.381,0,8.701,1.157,12.495,3.347l184.408,106.428c0.526,0.303,1.091,0.668,1.778,1.145c3.881,2.7,6.909,6.446,8.758,10.83
	c0.448,1.063,0.825,2.159,1.116,3.252c0.567,2.122,0.854,4.282,0.854,6.419l0.005,28.872H111.98c-4.993,0-9.041,4.047-9.041,9.041
	c0,4.993,4.048,9.041,9.041,9.041h353.401l0.021,119.078H46.618l-0.02-119.078h24.233c4.993,0,9.041-4.048,9.041-9.041
	c0-4.994-4.048-9.041-9.041-9.041H46.595l-0.005-28.802C46.589,146.337,47.222,143.152,48.471,140.11z M465.347,364.1l-0.051,0.518
	c-0.035,0.403-0.076,0.805-0.129,1.193l-0.083,0.533c-0.064,0.404-0.137,0.805-0.23,1.249l-0.084,0.389
	c-0.105,0.457-0.223,0.909-0.347,1.342l-0.071,0.254c-1.128,3.765-3.164,7.26-5.914,10.132l-0.077,0.084
	c-0.512,0.529-1.066,1.05-1.654,1.558l-0.271,0.227c-0.686,0.574-1.256,1.014-1.795,1.386c-0.668,0.463-1.216,0.816-1.728,1.11
	l-184.375,106.49c-3.796,2.193-8.119,3.351-12.504,3.351c-4.381,0-8.701-1.157-12.495-3.347L59.13,384.143
	c-0.526-0.303-1.091-0.667-1.778-1.146c-0.54-0.376-1.109-0.817-1.783-1.383l-0.291-0.243c-0.571-0.495-1.124-1.016-1.591-1.503
	c-0.029-0.03-0.127-0.136-0.157-0.166c-1.098-1.154-2.093-2.423-2.956-3.772c-0.01-0.016-0.02-0.03-0.03-0.046
	c-1.245-1.957-2.21-4.064-2.867-6.269l-0.066-0.239c-0.128-0.444-0.245-0.891-0.351-1.354l-0.093-0.429
	c-0.082-0.395-0.154-0.793-0.217-1.186l-0.081-0.521c-0.054-0.399-0.096-0.803-0.13-1.199l-0.048-0.497
	c-0.039-0.561-0.064-1.125-0.064-1.7l-0.005-28.865h418.783l0.005,28.801C465.408,362.993,465.383,363.561,465.347,364.1z"/>
<g>
</g>
<g>
</g>
<g>
</g>
<g>
</g>
<g>
</g>
<g>
</g>
<g>
</g>
<g>
</g>
<g>
</g>
<g>
</g>
<g>
</g>
<g>
</g>
<g>
</g>
<g>
</g>
<g>
</g>
</svg>
