<?xml version="1.0" encoding="iso-8859-1"?>
<!-- Generator: Adobe Illustrator 19.0.0, SVG Export Plug-In . SVG Version: 6.00 Build 0)  -->
<svg version="1.1" id="Layer_1" xmlns="http://www.w3.org/2000/svg" xmlns:xlink="http://www.w3.org/1999/xlink" x="0px" y="0px"
	 viewBox="0 0 511.999 511.999" style="enable-background:new 0 0 511.999 511.999;" xml:space="preserve">
<g>
	<path style="fill:#FFFFFF;" d="M473.104,371.851c0.176-0.611,0.336-1.228,0.479-1.85c0.046-0.201,0.088-0.401,0.13-0.603
		c0.115-0.541,0.213-1.085,0.301-1.634c0.037-0.236,0.076-0.473,0.108-0.711c0.076-0.545,0.131-1.093,0.181-1.643
		c0.019-0.225,0.046-0.447,0.061-0.674c0.053-0.767,0.084-1.537,0.084-2.313l0,0l0,0v-0.006l-0.007-40.904v-0.001l-0.005-26.204
		v-0.002v-4.213l-0.005-25.574l0,0l-0.008-48.824l-0.004-26.204l-0.007-40.985c0-2.996-0.407-5.93-1.16-8.75
		c-0.405-1.517-0.915-2.997-1.521-4.435c-2.477-5.877-6.574-11.016-11.925-14.74c-0.784-0.545-1.584-1.071-2.421-1.554l-22.872-13.2
		L413.1,94.467l-17.24-9.949L329.935,46.47l-25.719-14.842l-19.288-11.132l-11.952-6.898c-10.534-6.078-23.51-6.077-34.04,0.006
		l-11.873,6.857l-19.288,11.14l-25.717,14.854l0,0l-65.911,38.072l-28.889,16.686L65.85,113.578l-11.284,6.517
		c-0.811,0.469-1.589,0.979-2.352,1.507c-3.273,2.266-6.073,5.068-8.333,8.236c-1.517,2.128-2.781,4.423-3.773,6.841
		c-1.655,4.031-2.558,8.399-2.557,12.899l0.007,40.912l0.004,26.204l0.013,73.738l0.001,4.011v0.85v0.001v0.013l0,0v0.005l0,0
		l0.004,26.2l0,0l0.001,1.864l0.001,12.617l0.005,26.497v0.006l0,0c0,0.773,0.031,1.539,0.083,2.304
		c0.017,0.224,0.042,0.446,0.063,0.669c0.048,0.55,0.105,1.096,0.18,1.638c0.031,0.236,0.071,0.471,0.108,0.706
		c0.087,0.546,0.186,1.087,0.298,1.626c0.042,0.201,0.084,0.403,0.13,0.603c0.14,0.615,0.298,1.222,0.471,1.825
		c0.033,0.113,0.063,0.227,0.096,0.34c0.909,3.042,2.239,5.93,3.94,8.589c0,0,0.001,0.001,0.001,0.002l0.001,0.001
		c1.172,1.832,2.517,3.551,4.026,5.137c0.049,0.052,0.098,0.106,0.148,0.158c0.71,0.735,1.454,1.439,2.233,2.112
		c0.125,0.11,0.254,0.215,0.381,0.322c0.786,0.661,1.595,1.3,2.445,1.89c0.782,0.545,1.584,1.07,2.419,1.554l22.552,13.015
		l21.415,12.359l17.56,10.135l91.644,52.89l19.288,11.132l11.953,6.898c10.533,6.078,23.51,6.077,34.04-0.006l11.872-6.857
		l19.288-11.14l25.719-14.853l55.553-32.086l10.364-5.985l26.36-15.225l21.408-12.365l13.812-7.978
		c0.813-0.469,1.591-0.979,2.353-1.507c0.851-0.59,1.659-1.226,2.446-1.883c0.128-0.107,0.258-0.213,0.385-0.322
		c0.779-0.673,1.526-1.375,2.236-2.11c0.047-0.048,0.092-0.098,0.137-0.146c3.724-3.891,6.475-8.609,8.019-13.765
		C473.045,372.067,473.074,371.958,473.104,371.851z"/>
	<path style="fill:#FFFFFF;" d="M256,9.043c-2.94-0.002-5.882,0.375-8.747,1.133c-0.005,0.001-0.01,0.001-0.013,0.002
		c-0.665,0.176-1.325,0.377-1.982,0.596c-0.052,0.017-0.104,0.029-0.156,0.047c-0.615,0.206-1.222,0.439-1.828,0.682
		c-0.09,0.036-0.183,0.065-0.275,0.102c-0.528,0.217-1.046,0.461-1.565,0.705c-0.164,0.077-0.33,0.142-0.492,0.223
		c-0.564,0.277-1.118,0.58-1.668,0.89c-0.112,0.063-0.227,0.116-0.336,0.18l-11.873,6.857L207.777,31.6l-25.717,14.854l0,0
		l-65.913,38.073l-28.889,16.686L65.85,113.578l-11.284,6.517c-0.811,0.469-1.589,0.979-2.352,1.507
		c-1.636,1.133-3.155,2.4-4.546,3.781c-1.391,1.379-2.656,2.872-3.787,4.456c-0.948,1.33-1.784,2.732-2.532,4.182
		c-0.447,0.869-0.87,1.753-1.242,2.659c-0.251,0.61-0.479,1.228-0.692,1.854c-0.019,0.054-0.036,0.11-0.055,0.164
		c-0.204,0.608-0.393,1.221-0.565,1.841v0.001c-0.001,0.001-0.001,0.001-0.001,0.002c-0.398,1.433-0.704,2.899-0.915,4.387
		c-0.008,0.066-0.016,0.133-0.024,0.199c-0.083,0.616-0.146,1.237-0.195,1.861c-0.012,0.162-0.025,0.324-0.035,0.486
		c-0.045,0.698-0.075,1.398-0.075,2.104l0.001,7.842l-0.001,98.58h21.505h34.72h14.965v-66.914l88.984,66.914H256v-28.591v-15.231
		l-72.822-54.76H256v-16.88v-39.163V84.496h-72.822L256,29.737V9.043z"/>
</g>
<g>
	<polygon style="fill:#ED1F34;" points="124.902,157.419 256,255.999 256,227.409 163.145,157.419 	"/>
	<path style="fill:#ED1F34;" d="M59.055,140.54v115.461h34.72V140.54H256v-39.163H93.776v-3.929l-6.518,3.765L65.85,113.578
		l-11.284,6.517c-0.811,0.469-1.589,0.979-2.352,1.507c-1.636,1.133-3.155,2.4-4.546,3.781c-1.391,1.379-2.656,2.872-3.787,4.456
		c-0.948,1.33-1.784,2.732-2.532,4.182c-0.447,0.869-0.87,1.753-1.242,2.659c-0.251,0.61-0.479,1.228-0.692,1.854
		c-0.019,0.054-0.036,0.11-0.055,0.164c-0.204,0.608-0.393,1.221-0.565,1.841v0.001H59.055z"/>
</g>
<g>
	<polygon style="fill:#103B9B;" points="183.178,84.496 256,84.496 256,29.737 	"/>
	<polygon style="fill:#103B9B;" points="183.178,157.419 256,212.179 256,157.419 	"/>
	<polygon style="fill:#103B9B;" points="108.741,189.087 108.741,255.999 197.726,255.999 	"/>
</g>
<path style="fill:#3DB4EA;" d="M474.445,321.512v-0.001l-0.005-26.204v-0.002v-4.213l-0.005-25.574l-0.007-48.824l-0.005-26.204
	l-0.007-40.985c0-2.996-0.408-5.93-1.16-8.75c-0.405-1.517-0.915-2.997-1.521-4.435c-2.477-5.877-6.574-11.016-11.925-14.74
	c-0.784-0.545-1.584-1.071-2.421-1.554l-22.872-13.2l-21.415-12.358l-17.24-9.949L329.937,46.47l-25.719-14.842L284.93,20.496
	l-11.952-6.898c-5.255-3.032-11.117-4.542-16.981-4.547v20.686v54.76v16.88v39.163v16.88v54.76v15.231v28.591h-58.275h-88.982
	H93.776h-34.72H37.568l0.006,34.432l0.001,4.011v0.85v0.001v0.013v0.005l0.004,26.2v0.001l0.001,1.863l0.001,12.617l0.005,26.497
	v0.006c0,0.773,0.031,1.539,0.084,2.304c0.016,0.225,0.041,0.446,0.061,0.669c0.048,0.55,0.105,1.096,0.18,1.638
	c0.033,0.236,0.071,0.471,0.108,0.706c0.087,0.546,0.186,1.087,0.299,1.626c0.041,0.201,0.083,0.403,0.129,0.603
	c0.14,0.615,0.298,1.222,0.471,1.825c0.033,0.113,0.063,0.227,0.095,0.34c0.91,3.042,2.24,5.93,3.941,8.589c0,0,0,0.001,0.001,0.002
	l0.001,0.001c1.173,1.832,2.517,3.551,4.026,5.137c0.049,0.052,0.098,0.106,0.148,0.158c0.709,0.735,1.454,1.441,2.231,2.112
	c0.125,0.11,0.256,0.215,0.382,0.322c0.786,0.661,1.595,1.3,2.445,1.89c0.784,0.545,1.584,1.07,2.419,1.554l22.552,13.015
	l21.415,12.359l17.561,10.135l91.642,52.89l19.288,11.132l11.953,6.898c10.533,6.078,23.51,6.077,34.04-0.006l11.872-6.857
	l19.288-11.14l25.719-14.853l55.553-32.086l10.364-5.985l26.36-15.224l21.408-12.365l13.812-7.978
	c0.813-0.469,1.591-0.979,2.353-1.507c0.851-0.59,1.659-1.226,2.446-1.883c0.128-0.107,0.258-0.213,0.385-0.323
	c0.779-0.671,1.526-1.374,2.236-2.11c0.047-0.048,0.09-0.098,0.137-0.146c3.724-3.891,6.475-8.609,8.019-13.765
	c0.031-0.106,0.06-0.215,0.09-0.322c0.176-0.611,0.336-1.228,0.479-1.85c0.046-0.201,0.088-0.401,0.13-0.603
	c0.113-0.541,0.213-1.085,0.3-1.633c0.039-0.236,0.076-0.473,0.111-0.711c0.075-0.545,0.13-1.093,0.18-1.643
	c0.021-0.225,0.046-0.447,0.061-0.674c0.053-0.767,0.084-1.537,0.084-2.313v-0.006L474.445,321.512z"/>
<path style="fill:#FFFFFF;" d="M338.336,185.482v80.243c0,33.58,28.191,53.065,53.285,60.803
	c25.095-7.737,53.285-27.222,53.285-60.803v-80.243H338.336z"/>
<path style="fill:#ED1F34;" d="M444.907,256.685L444.907,256.685h-44.244v-33.192l0,0h44.244v-38.01h-106.57v38.01h44.244l0,0
	v33.192h-44.244l0,0v9.041c0,3.137,0.247,6.149,0.712,9.041h43.531v48.488c3.022,1.259,6.053,2.351,9.041,3.273
	c2.988-0.922,6.018-2.014,9.041-3.273v-48.488h43.53c0.468-2.892,0.714-5.905,0.714-9.041V256.685z"/>
<path d="M444.907,176.441h-106.57c-4.994,0-9.041,4.048-9.041,9.041v80.243c0,37.636,30.819,60.55,59.662,69.443
	c0.868,0.268,1.766,0.401,2.664,0.401c0.898,0,1.796-0.134,2.664-0.401c28.843-8.893,59.662-31.805,59.662-69.443v-80.243
	C453.949,180.489,449.901,176.441,444.907,176.441z M435.866,265.727c0,32.525-31.041,46.73-44.244,51.29
	c-13.203-4.562-44.244-18.765-44.244-51.29v-71.202h88.488L435.866,265.727L435.866,265.727z M483.457,149.505
	c0-3.709-0.494-7.437-1.465-11.075c-0.501-1.887-1.149-3.777-1.926-5.623c-3.18-7.542-8.399-13.99-15.091-18.646
	c-1.114-0.775-2.086-1.398-3.066-1.964L277.499,5.768C270.962,1.995,263.516,0,255.965,0c-7.554,0-15.005,1.998-21.546,5.776
	L50.048,112.263c-0.943,0.545-1.89,1.149-2.984,1.907c-4.086,2.831-7.633,6.335-10.546,10.419c-1.91,2.681-3.515,5.592-4.776,8.658
	c-2.146,5.23-3.234,10.724-3.234,16.332l0.037,212.917c0,0.927,0.033,1.882,0.104,2.917c0.017,0.241,0.039,0.481,0.064,0.721
	l0.014,0.127c0.06,0.694,0.131,1.384,0.228,2.094c0.036,0.259,0.077,0.516,0.133,0.866c0.112,0.697,0.236,1.389,0.382,2.076
	c0.052,0.256,0.106,0.51,0.163,0.756c0.178,0.776,0.377,1.544,0.604,2.339c0.04,0.149,0.083,0.298,0.115,0.403
	c1.139,3.811,2.805,7.45,4.953,10.82c0.012,0.019,0.024,0.037,0.035,0.057c1.484,2.323,3.199,4.511,5.069,6.474
	c0.047,0.051,0.168,0.18,0.215,0.228c0.892,0.925,1.841,1.824,2.826,2.675l0.482,0.405c1.097,0.923,2.11,1.705,3.096,2.391
	c1.116,0.775,2.088,1.397,3.063,1.96L234.5,506.23c6.539,3.773,13.986,5.768,21.534,5.768c7.556,0,15.005-1.998,21.549-5.776
	l184.37-106.487c0.943-0.545,1.89-1.149,2.988-1.908c0.989-0.687,2.004-1.465,3.107-2.388l0.474-0.398
	c0.986-0.85,1.938-1.748,2.85-2.69l0.153-0.162c4.695-4.904,8.206-10.929,10.124-17.344c0.052-0.166,0.101-0.335,0.141-0.487
	c0.224-0.774,0.427-1.554,0.608-2.344c0.059-0.253,0.113-0.508,0.168-0.769c0.142-0.684,0.269-1.372,0.379-2.067l0.022-0.123
	c0.04-0.253,0.08-0.508,0.118-0.786c0.094-0.687,0.168-1.378,0.227-2.063l0.016-0.145c0.024-0.239,0.046-0.479,0.061-0.72
	c0.074-1.058,0.106-2.019,0.105-2.931L483.457,149.505z M48.47,140.114c0.732-1.783,1.667-3.476,2.774-5.028
	c1.695-2.378,3.753-4.415,6.114-6.051c0.674-0.465,1.222-0.819,1.73-1.111l184.375-106.49c1.122-0.649,2.294-1.195,3.496-1.659
	v227.183H46.608l-0.018-97.381C46.59,146.337,47.224,143.152,48.47,140.114z M465.348,364.1l-0.051,0.52
	c-0.035,0.406-0.076,0.813-0.128,1.192l-0.083,0.533c-0.064,0.404-0.137,0.804-0.219,1.197l-0.094,0.441
	c-0.106,0.458-0.224,0.91-0.363,1.388l-0.061,0.222c-1.13,3.761-3.164,7.251-5.902,10.114l-0.084,0.09
	c-0.514,0.532-1.068,1.052-1.638,1.545l-0.289,0.241c-0.67,0.561-1.257,1.014-1.787,1.382c-0.674,0.465-1.222,0.819-1.732,1.111
	l-184.372,106.49c-3.797,2.193-8.12,3.351-12.505,3.351c-4.38,0-8.703-1.157-12.495-3.347L59.131,384.143
	c-0.526-0.303-1.09-0.668-1.776-1.144c-0.539-0.375-1.109-0.817-1.816-1.41l-0.262-0.217c-0.573-0.495-1.124-1.017-1.577-1.486
	c-0.031-0.035-0.137-0.148-0.171-0.183c-1.086-1.142-2.075-2.397-2.929-3.73c-0.012-0.016-0.022-0.031-0.03-0.047
	c-1.257-1.966-2.233-4.087-2.887-6.28l-0.074-0.268c-0.129-0.445-0.245-0.891-0.351-1.353l-0.094-0.441
	c-0.082-0.389-0.154-0.781-0.219-1.198l-0.078-0.5c-0.055-0.4-0.095-0.803-0.133-1.221l-0.046-0.476
	c-0.037-0.561-0.061-1.125-0.061-1.7l-0.018-97.446h209.389c4.994,0,9.041-4.048,9.041-9.041V19.802
	c1.175,0.457,2.322,0.995,3.419,1.627l184.41,106.428c0.528,0.304,1.09,0.667,1.778,1.145c3.881,2.7,6.908,6.446,8.754,10.824
	c0.452,1.074,0.829,2.169,1.119,3.26c0.567,2.124,0.855,4.283,0.855,6.421l0.034,212.93
	C465.41,363.004,465.385,363.567,465.348,364.1z"/>
<g>
</g>
<g>
</g>
<g>
</g>
<g>
</g>
<g>
</g>
<g>
</g>
<g>
</g>
<g>
</g>
<g>
</g>
<g>
</g>
<g>
</g>
<g>
</g>
<g>
</g>
<g>
</g>
<g>
</g>
</svg>
