<?xml version="1.0" encoding="iso-8859-1"?>
<!-- Generator: Adobe Illustrator 19.0.0, SVG Export Plug-In . SVG Version: 6.00 Build 0)  -->
<svg version="1.1" id="Layer_1" xmlns="http://www.w3.org/2000/svg" xmlns:xlink="http://www.w3.org/1999/xlink" x="0px" y="0px"
	 viewBox="0 0 512.001 512.001" style="enable-background:new 0 0 512.001 512.001;" xml:space="preserve">
<path style="fill:#FFFFFF;" d="M473.103,371.851c0.176-0.611,0.338-1.228,0.479-1.85c0.047-0.201,0.089-0.401,0.131-0.603
	c0.113-0.541,0.213-1.085,0.3-1.634c0.037-0.236,0.076-0.473,0.11-0.711c0.076-0.545,0.131-1.093,0.18-1.643
	c0.02-0.225,0.047-0.447,0.063-0.674c0.052-0.767,0.084-1.537,0.084-2.313l0,0l0,0v-0.006l-0.005-40.904v-0.001l-0.005-26.204
	v-0.002l-0.001-4.213l-0.004-25.574l0,0l-0.008-48.824l-0.005-26.204l-0.007-40.985c0-2.996-0.406-5.93-1.16-8.75
	c-0.405-1.517-0.915-2.997-1.52-4.435c-2.479-5.877-6.575-11.016-11.925-14.74c-0.784-0.545-1.584-1.071-2.421-1.554l-22.874-13.2
	l-21.414-12.358l-17.24-9.949L329.936,46.47l-25.717-14.842L284.93,20.496l-11.953-6.898c-10.533-6.078-23.509-6.077-34.04,0.006
	l-11.872,6.857l-19.288,11.14l-25.717,14.854l0,0l-65.913,38.072l-28.89,16.686l-21.408,12.365l-11.282,6.517
	c-0.811,0.469-1.59,0.979-2.353,1.507c-3.272,2.266-6.073,5.068-8.331,8.236c-1.517,2.128-2.781,4.423-3.773,6.841
	c-1.655,4.031-2.558,8.399-2.557,12.899l0.006,40.912l0.005,26.204l0.012,73.738v4.011v0.85v0.001v0.013l0,0v0.005l0,0l0.005,26.2
	l0,0v1.864l0.002,12.617l0.004,26.497v0.006l0,0c0,0.773,0.033,1.539,0.084,2.304c0.016,0.224,0.042,0.446,0.061,0.669
	c0.048,0.55,0.105,1.096,0.18,1.638c0.033,0.236,0.072,0.471,0.108,0.706c0.087,0.546,0.186,1.087,0.298,1.626
	c0.042,0.201,0.086,0.403,0.131,0.603c0.14,0.615,0.298,1.222,0.471,1.825c0.033,0.113,0.061,0.227,0.095,0.34
	c0.909,3.042,2.24,5.93,3.94,8.589v0.001c0.001,0.001,0.001,0.001,0.001,0.001c1.172,1.832,2.517,3.553,4.026,5.137
	c0.051,0.052,0.099,0.106,0.148,0.158c0.709,0.735,1.454,1.439,2.231,2.112c0.125,0.11,0.254,0.215,0.382,0.322
	c0.786,0.661,1.595,1.3,2.445,1.89c0.784,0.545,1.584,1.071,2.419,1.554l22.552,13.015l21.414,12.359l17.561,10.135l91.644,52.89
	l19.288,11.132l11.953,6.898c10.533,6.078,23.509,6.077,34.04-0.006l11.872-6.857l19.288-11.14l25.717-14.853l55.554-32.086
	l10.363-5.985l26.36-15.225l21.408-12.365l13.813-7.978c0.813-0.469,1.59-0.979,2.353-1.507c0.85-0.59,1.659-1.226,2.445-1.883
	c0.129-0.107,0.259-0.213,0.386-0.322c0.779-0.673,1.526-1.375,2.236-2.11c0.046-0.048,0.09-0.098,0.136-0.146
	c3.725-3.891,6.475-8.609,8.019-13.765C473.045,372.067,473.073,371.958,473.103,371.851z"/>
<path style="fill:#3DB4EA;" d="M474.415,149.505c0-2.996-0.406-5.93-1.16-8.75c-0.405-1.517-0.914-2.997-1.52-4.435
	c-2.479-5.877-6.575-11.016-11.925-14.74c-0.784-0.545-1.584-1.071-2.421-1.554l-22.874-13.2l-21.414-12.358l-17.24-9.949
	l-65.926-38.047l-25.717-14.842L284.93,20.497l-11.953-6.898c-10.533-6.078-23.509-6.077-34.04,0.006l-11.872,6.857l-19.288,11.14
	l-25.717,14.854l0,0l-65.913,38.07l-28.89,16.686l-21.408,12.365l-11.282,6.517c-0.811,0.469-1.59,0.979-2.353,1.507
	c-3.272,2.266-6.073,5.068-8.331,8.236c-1.517,2.128-2.781,4.423-3.773,6.841c-1.655,4.031-2.558,8.399-2.557,12.899l0.006,37.842
	h436.866L474.415,149.505z"/>
<polygon style="fill:#333333;" points="474.445,321.511 474.44,295.307 474.44,295.304 474.439,291.091 474.435,265.517 
	474.427,216.693 474.422,190.489 474.422,187.42 37.556,187.42 37.556,190.489 37.561,216.693 37.573,290.431 37.574,294.442 
	37.574,295.292 37.574,295.293 37.574,295.307 37.574,295.307 37.574,295.311 37.574,295.311 37.579,321.511 37.579,321.512 
	37.579,323.375 37.579,324.58 92.371,324.58 133.519,324.58 474.445,324.58 474.445,321.512 "/>
<path d="M483.456,149.505c0-3.709-0.493-7.437-1.464-11.075c-0.503-1.887-1.15-3.777-1.928-5.623
	c-3.18-7.542-8.399-13.99-15.091-18.646c-1.113-0.775-2.086-1.398-3.066-1.964L277.499,5.768C270.962,1.995,263.515,0,255.965,0
	c-7.555,0-15.005,1.998-21.547,5.776L50.043,112.265c-0.945,0.546-1.89,1.15-2.979,1.904c-4.086,2.831-7.633,6.336-10.546,10.419
	c-1.912,2.683-3.519,5.596-4.775,8.657c-2.147,5.231-3.234,10.726-3.234,16.334l0.035,212.916c0,0.922,0.034,1.876,0.105,2.917
	c0.017,0.235,0.039,0.469,0.061,0.703l0.014,0.143c0.06,0.694,0.134,1.385,0.231,2.096c0.034,0.24,0.071,0.477,0.108,0.716
	l0.025,0.158c0.11,0.691,0.234,1.375,0.38,2.076c0.053,0.253,0.107,0.508,0.163,0.747c0.177,0.776,0.377,1.544,0.608,2.351
	l0.112,0.392c1.143,3.826,2.82,7.485,4.986,10.873c0.014,0.022,0.028,0.043,0.042,0.065c1.477,2.3,3.177,4.466,5.049,6.433
	c0.04,0.042,0.153,0.164,0.194,0.205c0.887,0.921,1.837,1.819,2.827,2.677l0.481,0.405c1.098,0.922,2.111,1.703,3.096,2.389
	c1.114,0.775,2.087,1.398,3.064,1.963l184.411,106.428c6.539,3.773,13.985,5.768,21.534,5.768l0,0
	c7.555,0,15.005-1.998,21.547-5.776l184.37-106.487c0.943-0.545,1.89-1.149,2.987-1.908c0.984-0.682,1.996-1.46,3.107-2.388
	l0.475-0.398c0.986-0.85,1.938-1.748,2.85-2.689l0.153-0.162c4.695-4.904,8.205-10.929,10.124-17.344
	c0.053-0.169,0.101-0.339,0.14-0.486c0.224-0.773,0.427-1.554,0.609-2.345c0.058-0.253,0.112-0.508,0.168-0.769
	c0.142-0.684,0.269-1.372,0.379-2.067l0.02-0.121c0.04-0.256,0.08-0.511,0.119-0.787c0.093-0.686,0.168-1.379,0.227-2.063
	l0.014-0.145c0.025-0.239,0.047-0.479,0.063-0.72c0.072-1.058,0.106-2.019,0.105-2.931L483.456,149.505z M48.472,140.11
	c0.731-1.781,1.662-3.471,2.77-5.025c1.696-2.378,3.755-4.415,6.116-6.051c0.671-0.464,1.221-0.819,1.73-1.111l184.375-106.49
	c3.796-2.192,8.119-3.351,12.504-3.351c4.381,0,8.701,1.159,12.495,3.347l184.41,106.428c0.527,0.304,1.09,0.667,1.777,1.145
	c3.881,2.7,6.908,6.446,8.756,10.824c0.452,1.074,0.828,2.169,1.119,3.26c0.567,2.124,0.854,4.283,0.854,6.421l0.005,28.872H46.596
	l-0.005-28.802C46.59,146.337,47.223,143.152,48.472,140.11z M465.348,364.1l-0.051,0.52c-0.035,0.406-0.076,0.811-0.129,1.195
	l-0.082,0.53c-0.064,0.404-0.137,0.804-0.219,1.197l-0.095,0.441c-0.105,0.457-0.224,0.909-0.363,1.389l-0.061,0.224
	c-1.13,3.759-3.164,7.249-5.902,10.109l-0.083,0.09c-0.515,0.532-1.068,1.052-1.639,1.546l-0.286,0.239
	c-0.676,0.564-1.263,1.019-1.79,1.384c-0.674,0.465-1.222,0.819-1.731,1.111l-184.373,106.49c-3.796,2.193-8.12,3.351-12.504,3.351
	c-4.381,0-8.701-1.157-12.495-3.347L59.131,384.143c-0.526-0.303-1.091-0.668-1.778-1.146c-0.54-0.375-1.109-0.817-1.783-1.383
	l-0.288-0.24c-0.576-0.499-1.128-1.022-1.596-1.507c-0.027-0.028-0.128-0.136-0.154-0.164c-1.098-1.155-2.093-2.424-2.957-3.773
	c-0.008-0.014-0.018-0.029-0.028-0.043c-1.247-1.958-2.211-4.066-2.869-6.271l-0.066-0.239c-0.127-0.445-0.245-0.891-0.351-1.357
	l-0.092-0.427c-0.083-0.395-0.156-0.793-0.217-1.185l-0.082-0.523c-0.054-0.399-0.095-0.802-0.13-1.201l-0.048-0.495
	c-0.039-0.561-0.064-1.125-0.064-1.7l-0.005-28.866h45.749c4.993,0,9.041-4.048,9.041-9.041s-4.048-9.041-9.041-9.041H46.619
	l-0.02-119.078h418.783l0.019,119.078H133.519c-4.993,0-9.041,4.048-9.041,9.041s4.048,9.041,9.041,9.041h331.884l0.005,28.814
	C465.41,363.004,465.384,363.567,465.348,364.1z"/>
<g>
</g>
<g>
</g>
<g>
</g>
<g>
</g>
<g>
</g>
<g>
</g>
<g>
</g>
<g>
</g>
<g>
</g>
<g>
</g>
<g>
</g>
<g>
</g>
<g>
</g>
<g>
</g>
<g>
</g>
</svg>
