<?xml version="1.0" encoding="iso-8859-1"?>
<!-- Generator: Adobe Illustrator 19.0.0, SVG Export Plug-In . SVG Version: 6.00 Build 0)  -->
<svg version="1.1" id="Layer_1" xmlns="http://www.w3.org/2000/svg" xmlns:xlink="http://www.w3.org/1999/xlink" x="0px" y="0px"
	 viewBox="0 0 512.001 512.001" style="enable-background:new 0 0 512.001 512.001;" xml:space="preserve">
<path style="fill:#FFFFFF;" d="M473.104,371.85c0.176-0.61,0.336-1.227,0.479-1.848c0.046-0.201,0.089-0.403,0.131-0.604
	c0.113-0.54,0.213-1.085,0.3-1.632c0.037-0.237,0.076-0.474,0.11-0.711c0.075-0.546,0.131-1.095,0.18-1.644
	c0.021-0.225,0.047-0.448,0.063-0.674c0.052-0.767,0.084-1.537,0.084-2.313l0,0l0,0v-0.006l-0.006-40.904v-0.002l-0.005-26.203
	v-0.002v-4.213l-0.004-25.574l0,0l-0.008-48.824l-0.005-26.203l-0.006-40.985c0-2.995-0.408-5.931-1.16-8.75
	c-0.405-1.517-0.915-2.997-1.521-4.435c-2.477-5.876-6.574-11.016-11.925-14.74c-0.784-0.545-1.584-1.071-2.419-1.553
	l-22.874-13.202l-21.414-12.358l-17.239-9.949l-65.926-38.046l-25.717-14.844l-19.288-11.132l-11.953-6.899
	c-10.533-6.078-23.509-6.076-34.04,0.007l-11.872,6.857l-19.288,11.14l-25.717,14.853l0,0l-65.918,38.072l-28.889,16.686
	L65.85,113.578l-11.284,6.516c-0.811,0.469-1.59,0.98-2.353,1.507c-3.272,2.268-6.073,5.067-8.333,8.236
	c-1.517,2.127-2.781,4.422-3.773,6.841c-1.655,4.032-2.558,8.399-2.557,12.899l0.006,40.913l0.005,26.203l0.012,73.738v4.011v0.85
	v0.001v0.013l0,0v0.005l0,0l0.005,26.198v0.002v1.863l0.002,12.617l0.004,26.496v0.007l0,0c0,0.773,0.033,1.539,0.084,2.305
	c0.016,0.224,0.042,0.445,0.061,0.668c0.048,0.55,0.105,1.096,0.18,1.638c0.033,0.236,0.072,0.471,0.108,0.708
	c0.087,0.544,0.186,1.086,0.298,1.625c0.042,0.201,0.086,0.403,0.131,0.603c0.14,0.615,0.298,1.222,0.471,1.825
	c0.033,0.113,0.061,0.228,0.095,0.34c0.909,3.043,2.24,5.93,3.94,8.588c0,0.001,0.001,0.002,0.001,0.002l0.001,0.002
	c1.172,1.832,2.517,3.551,4.025,5.137c0.051,0.053,0.099,0.106,0.148,0.159c0.709,0.734,1.454,1.438,2.231,2.112
	c0.125,0.11,0.254,0.215,0.382,0.322c0.786,0.661,1.595,1.298,2.445,1.89c0.784,0.545,1.584,1.07,2.419,1.553l22.552,13.016
	l21.414,12.359l17.561,10.134l91.644,52.89l19.288,11.132l11.953,6.899c10.533,6.078,23.509,6.076,34.04-0.007l11.872-6.857
	l19.288-11.14l25.717-14.853l55.554-32.086l10.363-5.985l26.36-15.225l21.408-12.365l13.813-7.977
	c0.811-0.469,1.59-0.98,2.353-1.507c0.851-0.588,1.659-1.226,2.446-1.884c0.128-0.106,0.258-0.212,0.385-0.323
	c0.78-0.671,1.526-1.374,2.237-2.108c0.047-0.048,0.09-0.098,0.136-0.145c3.724-3.893,6.476-8.61,8.02-13.767
	C473.045,372.067,473.073,371.958,473.104,371.85z"/>
<path style="fill:#ED1F34;" d="M358.25,200.545c-11.748,16.979-27.618,30.882-46.158,40.281
	c-2.454-6.724-8.888-11.534-16.461-11.534c-9.686,0-17.539,7.853-17.539,17.539c0,1.83,0.281,3.592,0.8,5.25
	c-7.42,1.382-15.07,2.11-22.892,2.11s-15.472-0.728-22.892-2.11c0.52-1.658,0.8-3.421,0.8-5.25c0-9.686-7.853-17.539-17.539-17.539
	c-7.573,0-14.007,4.81-16.461,11.534c-18.54-9.399-34.409-23.303-46.158-40.281h-47.419c7.729,75.842,71.787,135.018,149.67,135.018
	s141.941-59.177,149.67-135.018L358.25,200.545L358.25,200.545z"/>
<path d="M441.132,200.545c0,4.994-4.048,9.041-9.041,9.041h-18.477c-5.132,33.112-20.761,64.11-44.546,88.016
	c-25.713,25.843-59.756,42.21-95.861,46.085c-0.327,0.035-0.653,0.053-0.976,0.053c-4.56,0-8.481-3.441-8.979-8.077
	c-0.533-4.966,3.06-9.422,8.025-9.955c62.582-6.716,113.243-54.832,123.989-116.121h-32.394
	c-12.305,16.475-28.356,30.009-46.692,39.304c-2.306,1.171-5.002,1.295-7.407,0.346c-2.405-0.949-4.288-2.881-5.175-5.309
	c-1.221-3.345-4.423-5.594-7.969-5.594c-4.686,0-8.498,3.812-8.498,8.499c0,0.87,0.13,1.726,0.387,2.544
	c0.774,2.468,0.453,5.149-0.879,7.363c-1.332,2.217-3.55,3.755-6.091,4.23c-8.059,1.502-16.318,2.265-24.549,2.265
	s-16.49-0.763-24.549-2.265c-2.541-0.475-4.759-2.013-6.091-4.23c-1.332-2.216-1.653-4.897-0.879-7.363
	c0.257-0.819,0.387-1.674,0.387-2.544c0-4.687-3.812-8.499-8.498-8.499c-3.544,0-6.747,2.247-7.968,5.594
	c-0.887,2.429-2.77,4.36-5.175,5.309c-2.404,0.95-5.099,0.825-7.407-0.346c-18.335-9.295-34.387-22.829-46.692-39.304h-32.391
	c10.746,61.289,61.407,109.405,123.989,116.121c4.966,0.532,8.558,4.99,8.025,9.955c-0.498,4.636-4.418,8.077-8.979,8.077
	c-0.323,0-0.649-0.018-0.976-0.053c-36.104-3.875-70.148-20.242-95.861-46.085c-23.785-23.907-39.414-54.904-44.546-88.016H79.911
	c-4.993,0-9.041-4.047-9.041-9.041s4.048-9.041,9.041-9.041h26.405c0.016,0,0.031,0,0.047,0h60.6c4.993,0,9.041,4.047,9.041,9.041
	c0,3.303-1.778,6.186-4.423,7.762c7.418,7.977,15.938,14.904,25.281,20.51c4.939-5.338,11.977-8.566,19.51-8.566
	c13.838,0,25.24,10.629,26.471,24.153c8.728,0.993,17.591,0.993,26.319,0c1.231-13.524,12.633-24.153,26.471-24.153
	c7.534,0,14.571,3.23,19.51,8.566c9.343-5.604,17.863-12.533,25.281-20.51c-2.646-1.578-4.423-4.459-4.423-7.762
	c0-4.994,4.048-9.041,9.041-9.041h60.57c0.033,0,0.066,0,0.099,0h26.382C437.084,191.504,441.132,195.552,441.132,200.545z
	 M483.492,362.415c0,0.931-0.034,1.887-0.105,2.931c-0.017,0.24-0.039,0.48-0.063,0.721l-0.014,0.143
	c-0.06,0.687-0.134,1.382-0.228,2.071c-0.037,0.27-0.077,0.528-0.119,0.785c-0.128,0.81-0.256,1.5-0.399,2.184l-0.169,0.773
	c-0.18,0.784-0.382,1.566-0.605,2.34l-0.116,0.406c-1.943,6.492-5.454,12.517-10.149,17.421l-0.159,0.171
	c-0.901,0.929-1.852,1.828-2.84,2.681c-0.125,0.108-0.265,0.225-0.405,0.34c-1.207,1.009-2.193,1.766-3.189,2.454
	c-1.091,0.755-2.036,1.359-2.975,1.9L277.584,506.225c-6.541,3.778-13.992,5.776-21.546,5.776c-0.001,0-0.001,0-0.002,0
	c-7.549-0.001-14.994-1.995-21.532-5.767L50.091,399.803c-0.967-0.559-1.969-1.198-3.064-1.963c-0.991-0.69-2.004-1.471-3.096-2.388
	l-0.498-0.419c-0.963-0.833-1.914-1.734-2.81-2.663c-0.041-0.042-0.154-0.164-0.195-0.206c-1.872-1.966-3.571-4.131-5.046-6.429
	c-0.014-0.023-0.029-0.045-0.043-0.068c-2.165-3.386-3.843-7.045-4.986-10.873l-0.112-0.393c-0.23-0.804-0.429-1.573-0.608-2.351
	c-0.054-0.239-0.108-0.492-0.163-0.746c-0.146-0.697-0.271-1.383-0.38-2.075l-0.025-0.16c-0.039-0.237-0.076-0.476-0.108-0.716
	c-0.098-0.71-0.17-1.402-0.231-2.095l-0.014-0.143c-0.024-0.233-0.046-0.468-0.061-0.702c-0.071-1.043-0.105-1.998-0.105-2.919
	l-0.035-212.917c0-5.606,1.087-11.102,3.234-16.334c1.256-3.062,2.863-5.976,4.776-8.658c2.908-4.081,6.456-7.586,10.543-10.419
	c1.101-0.761,2.045-1.363,2.98-1.904L234.419,5.776C240.96,1.998,248.411,0,255.966,0c7.549,0,14.995,1.994,21.533,5.767
	L461.91,112.197c0.978,0.565,1.951,1.187,3.062,1.96c6.698,4.661,11.917,11.11,15.096,18.652c0.769,1.825,1.418,3.713,1.925,5.613
	c0.972,3.642,1.465,7.369,1.466,11.08L483.492,362.415z M465.41,362.423l-0.035-212.917c0-2.137-0.288-4.298-0.854-6.418
	c-0.293-1.097-0.669-2.192-1.116-3.252c-1.849-4.387-4.876-8.131-8.758-10.832c-0.682-0.475-1.249-0.839-1.777-1.144L268.461,21.432
	c-3.794-2.192-8.116-3.349-12.495-3.349c-4.383,0-8.707,1.16-12.504,3.351L59.087,127.924c-0.5,0.288-1.051,0.644-1.732,1.114
	c-2.359,1.633-4.417,3.671-6.111,6.048c-1.109,1.554-2.041,3.244-2.77,5.025c-1.249,3.042-1.882,6.227-1.881,9.467l0.035,212.912
	c0,0.575,0.025,1.138,0.064,1.699l0.048,0.493c0.035,0.4,0.076,0.803,0.13,1.203l0.082,0.523c0.061,0.389,0.134,0.787,0.217,1.183
	l0.093,0.428c0.106,0.465,0.223,0.911,0.351,1.354l0.069,0.246c0.653,2.19,1.612,4.29,2.849,6.239
	c0.016,0.025,0.031,0.048,0.047,0.074c0.862,1.348,1.857,2.617,2.956,3.772c0.028,0.029,0.129,0.137,0.157,0.169
	c0.47,0.486,1.021,1.008,1.589,1.497l0.293,0.246c0.662,0.556,1.25,1.011,1.787,1.385c0.68,0.475,1.245,0.838,1.775,1.143
	l184.408,106.428c3.793,2.189,8.113,3.346,12.495,3.346c0,0,0,0,0.001,0c4.383,0,8.706-1.16,12.502-3.351l184.375-106.49
	c0.503-0.288,1.052-0.641,1.731-1.113c0.533-0.369,1.102-0.808,1.791-1.384l0.276-0.228c0.583-0.504,1.137-1.026,1.649-1.555
	l0.083-0.09c2.744-2.867,4.78-6.362,5.908-10.125l0.071-0.254c0.125-0.432,0.242-0.884,0.347-1.341l0.084-0.387
	c0.094-0.447,0.168-0.848,0.231-1.251l0.082-0.528c0.054-0.392,0.095-0.793,0.13-1.197l0.051-0.52
	C465.384,363.561,465.41,362.993,465.41,362.423z"/>
<g>
</g>
<g>
</g>
<g>
</g>
<g>
</g>
<g>
</g>
<g>
</g>
<g>
</g>
<g>
</g>
<g>
</g>
<g>
</g>
<g>
</g>
<g>
</g>
<g>
</g>
<g>
</g>
<g>
</g>
</svg>
