<?xml version="1.0" encoding="iso-8859-1"?>
<!-- Generator: Adobe Illustrator 19.0.0, SVG Export Plug-In . SVG Version: 6.00 Build 0)  -->
<svg version="1.1" id="Layer_1" xmlns="http://www.w3.org/2000/svg" xmlns:xlink="http://www.w3.org/1999/xlink" x="0px" y="0px"
	 viewBox="0 0 511.997 511.997" style="enable-background:new 0 0 511.997 511.997;" xml:space="preserve">
<path style="fill:#FFFFFF;" d="M473.119,371.858c0.176-0.611,0.338-1.229,0.479-1.851c0.047-0.201,0.089-0.401,0.131-0.603
	c0.113-0.541,0.213-1.085,0.3-1.634c0.037-0.238,0.076-0.474,0.11-0.711c0.076-0.545,0.131-1.094,0.18-1.643
	c0.021-0.225,0.047-0.448,0.063-0.674c0.052-0.767,0.084-1.537,0.083-2.314l0,0l0,0v-0.006l-0.006-40.908v-0.001l-0.005-26.206
	v-0.002l-0.001-4.214l-0.004-25.576l0,0l-0.008-48.827l-0.005-26.206l-0.006-40.988c-0.001-2.996-0.409-5.93-1.161-8.75
	c-0.405-1.517-0.915-2.997-1.521-4.435c-2.478-5.877-6.574-11.017-11.925-14.741c-0.784-0.545-1.584-1.071-2.421-1.554
	l-22.875-13.201l-21.415-12.359l-17.241-9.95l-65.931-38.05L304.219,31.61l-19.29-11.133l-11.954-6.898
	c-10.533-6.079-23.511-6.077-34.043,0.006l-11.873,6.857l-19.29,11.141l-25.719,14.855l0,0l-65.917,38.076L87.242,101.2
	l-21.409,12.366l-11.283,6.518c-0.813,0.469-1.59,0.979-2.353,1.507c-3.272,2.267-6.073,5.068-8.332,8.237
	c-1.517,2.128-2.781,4.423-3.775,6.842c-1.654,4.032-2.557,8.399-2.557,12.9l0.007,40.915l0.005,26.206l0.012,73.743l0.001,4.011
	v0.85v0.001v0.013l0,0v0.005l0,0l0.005,26.201v0.001v1.863l0.002,12.618l0.004,26.499v0.006l0,0c0.001,0.773,0.033,1.54,0.084,2.304
	c0.016,0.224,0.042,0.446,0.063,0.669c0.048,0.55,0.105,1.096,0.178,1.638c0.033,0.236,0.072,0.471,0.11,0.706
	c0.086,0.546,0.184,1.087,0.298,1.626c0.042,0.201,0.084,0.403,0.13,0.603c0.14,0.615,0.298,1.223,0.471,1.825
	c0.033,0.113,0.061,0.227,0.095,0.34c0.909,3.043,2.239,5.93,3.941,8.59v0.001c0.001,0.001,0.001,0.001,0.001,0.001
	c1.173,1.833,2.519,3.553,4.028,5.137c0.049,0.052,0.098,0.106,0.147,0.158c0.71,0.735,1.454,1.439,2.233,2.112
	c0.125,0.11,0.254,0.215,0.382,0.322c0.785,0.661,1.594,1.3,2.444,1.89c0.784,0.545,1.584,1.071,2.421,1.554l22.553,13.016
	l21.415,12.36l17.562,10.136l91.65,52.894l19.29,11.133l11.954,6.898c10.533,6.079,23.511,6.077,34.043-0.006l11.873-6.857
	l19.29-11.141l25.719-14.854l55.558-32.088l10.363-5.986l26.362-15.226l21.409-12.366l13.814-7.979
	c0.813-0.469,1.59-0.979,2.353-1.507c0.85-0.59,1.659-1.226,2.445-1.883c0.129-0.107,0.259-0.213,0.386-0.322
	c0.779-0.673,1.526-1.376,2.236-2.11c0.046-0.048,0.09-0.098,0.136-0.146c3.725-3.892,6.475-8.609,8.02-13.766
	C473.061,372.074,473.087,371.965,473.119,371.858z"/>
<path style="fill:#ED1F34;" d="M474.43,149.496c-0.001-2.996-0.409-5.93-1.161-8.75c-0.405-1.517-0.915-2.997-1.52-4.435
	c-2.479-5.877-6.575-11.017-11.926-14.741c-0.784-0.545-1.584-1.071-2.421-1.554l-22.875-13.201l-21.415-12.359l-17.241-9.95
	l-65.931-38.05L304.22,31.611l-19.29-11.133l-11.954-6.898c-10.533-6.079-23.511-6.077-34.043,0.006l-11.873,6.857l-19.29,11.141
	L182.052,46.44l0,0l-65.918,38.074L87.242,101.2l-21.409,12.366l-11.283,6.518c-0.813,0.469-1.59,0.979-2.353,1.507
	c-3.272,2.267-6.073,5.068-8.332,8.237c-1.517,2.128-2.781,4.423-3.775,6.842c-1.654,4.032-2.557,8.399-2.557,12.9l0.007,37.845
	h436.898L474.43,149.496z"/>
<path style="fill:#259245;" d="M79.096,324.584H37.561l0.002,11.412l0.004,26.499v0.006l0,0c0.001,0.773,0.033,1.54,0.084,2.304
	c0.016,0.224,0.042,0.446,0.063,0.669c0.048,0.55,0.105,1.096,0.178,1.638c0.033,0.236,0.072,0.471,0.11,0.706
	c0.086,0.546,0.184,1.087,0.298,1.626c0.042,0.201,0.084,0.403,0.13,0.603c0.14,0.615,0.298,1.222,0.471,1.825
	c0.033,0.113,0.061,0.227,0.095,0.34c0.909,3.042,2.239,5.93,3.94,8.59c0.001,0,0.001,0.001,0.001,0.001
	c0.001,0.001,0.001,0.001,0.001,0.001c1.173,1.833,2.519,3.553,4.028,5.137c0.049,0.052,0.098,0.106,0.147,0.158
	c0.71,0.735,1.454,1.441,2.233,2.112c0.125,0.11,0.254,0.215,0.382,0.322c0.785,0.661,1.594,1.3,2.444,1.89
	c0.784,0.545,1.584,1.071,2.421,1.554l22.553,13.016l21.415,12.36l17.562,10.136l91.65,52.894l19.29,11.133l11.954,6.898
	c10.533,6.079,23.511,6.077,34.043-0.006l11.873-6.857l19.29-11.141l25.719-14.854l55.558-32.088l10.363-5.986l26.362-15.226
	l21.409-12.366l13.814-7.979c0.813-0.469,1.59-0.979,2.353-1.507c0.851-0.59,1.659-1.226,2.445-1.883
	c0.129-0.107,0.259-0.213,0.386-0.323c0.779-0.672,1.526-1.374,2.236-2.11c0.047-0.048,0.09-0.098,0.136-0.146
	c3.725-3.892,6.475-8.609,8.02-13.766c0.033-0.106,0.06-0.215,0.09-0.322c0.176-0.611,0.338-1.229,0.479-1.851
	c0.047-0.201,0.089-0.401,0.131-0.603c0.113-0.541,0.213-1.085,0.3-1.634c0.037-0.236,0.076-0.473,0.11-0.711
	c0.076-0.545,0.131-1.094,0.18-1.643c0.021-0.225,0.046-0.447,0.063-0.674c0.052-0.767,0.083-1.537,0.083-2.314l0,0v-0.006
	l-0.006-37.839H120.248H79.096V324.584z"/>
<path d="M483.472,149.496c0-3.71-0.493-7.437-1.464-11.076c-0.503-1.888-1.15-3.777-1.928-5.623
	c-3.18-7.542-8.399-13.991-15.092-18.647c-1.096-0.763-2.099-1.406-3.066-1.964L277.5,5.75c-13.287-7.669-29.798-7.666-43.085,0.007
	L50.032,112.251c-0.945,0.545-1.892,1.15-2.986,1.906c-4.086,2.831-7.633,6.335-10.545,10.421c-1.911,2.681-3.518,5.593-4.777,8.659
	c-2.146,5.23-3.235,10.725-3.235,16.334l0.036,212.932c0,0.927,0.034,1.881,0.105,2.92c0.017,0.241,0.039,0.48,0.064,0.719
	l0.013,0.125c0.06,0.694,0.133,1.385,0.229,2.094c0.036,0.258,0.076,0.514,0.134,0.866c0.11,0.697,0.235,1.388,0.381,2.082
	c0.053,0.254,0.107,0.509,0.163,0.75c0.177,0.778,0.377,1.546,0.604,2.339c0.04,0.148,0.081,0.297,0.115,0.404
	c1.144,3.828,2.821,7.487,4.99,10.878c1.487,2.323,3.201,4.511,5.071,6.474c0.046,0.049,0.166,0.178,0.213,0.227
	c0.892,0.925,1.841,1.824,2.826,2.675l0.481,0.404c1.098,0.923,2.111,1.705,3.097,2.391c1.115,0.775,2.087,1.397,3.062,1.96
	l184.424,106.436c6.643,3.834,14.089,5.751,21.536,5.751c7.451,0,14.904-1.919,21.549-5.757l184.383-106.495
	c0.945-0.545,1.892-1.15,2.987-1.908c0.985-0.682,1.998-1.46,3.108-2.388l0.476-0.398c0.986-0.851,1.939-1.749,2.846-2.687
	l0.156-0.165c4.696-4.904,8.205-10.93,10.126-17.346c0.051-0.163,0.096-0.328,0.151-0.524c0.219-0.761,0.42-1.529,0.597-2.305
	c0.058-0.253,0.112-0.506,0.168-0.77c0.142-0.682,0.269-1.371,0.379-2.063l0.019-0.119c0.041-0.257,0.081-0.514,0.121-0.791
	c0.093-0.687,0.168-1.379,0.227-2.062l0.014-0.146c0.024-0.239,0.047-0.477,0.064-0.721c0.071-1.057,0.105-2.018,0.104-2.931
	L483.472,149.496z M48.453,140.104c0.732-1.783,1.666-3.476,2.773-5.029c1.696-2.379,3.754-4.415,6.116-6.051
	c0.673-0.465,1.22-0.817,1.73-1.112L243.459,21.417c7.711-4.452,17.291-4.455,25.001-0.005l184.422,106.435
	c0.528,0.304,1.091,0.668,1.778,1.145c3.881,2.701,6.909,6.446,8.756,10.825c0.452,1.074,0.828,2.169,1.119,3.259
	c0.567,2.123,0.854,4.284,0.854,6.421l0.005,28.874H46.579l-0.005-28.803C46.575,146.327,47.206,143.142,48.453,140.104z
	 M465.362,364.105l-0.051,0.521c-0.035,0.406-0.076,0.811-0.129,1.195l-0.082,0.53c-0.064,0.404-0.137,0.805-0.219,1.195
	l-0.095,0.444c-0.105,0.457-0.224,0.909-0.353,1.356c-0.002,0.008-0.005,0.018-0.008,0.027l-0.063,0.227
	c-1.13,3.76-3.163,7.251-5.905,10.115l-0.081,0.088c-0.515,0.53-1.067,1.052-1.637,1.544l-0.288,0.24
	c-0.675,0.564-1.263,1.019-1.792,1.385c-0.673,0.465-1.22,0.817-1.73,1.112L268.541,490.58c-7.711,4.452-17.291,4.455-25.001,0.005
	L59.119,384.15c-0.527-0.304-1.091-0.668-1.778-1.145c-0.538-0.375-1.108-0.817-1.814-1.411l-0.26-0.217
	c-0.574-0.496-1.126-1.019-1.577-1.485c-0.033-0.035-0.139-0.151-0.174-0.186c-1.089-1.143-2.076-2.4-2.936-3.739
	c-0.007-0.013-0.016-0.025-0.024-0.039c-1.259-1.966-2.233-4.088-2.887-6.28l-0.076-0.27c-0.127-0.444-0.244-0.89-0.348-1.355
	l-0.094-0.435c-0.081-0.389-0.153-0.781-0.218-1.198l-0.08-0.503c-0.054-0.399-0.094-0.802-0.131-1.223l-0.047-0.473
	c-0.037-0.562-0.063-1.125-0.063-1.701l-0.005-28.867h32.49c4.995,0,9.042-4.048,9.042-9.042s-4.047-9.042-9.042-9.042H46.602
	l-0.02-119.086h418.814l0.019,119.086H120.248c-4.995,0-9.042,4.048-9.042,9.042s4.047,9.042,9.042,9.042h345.17l0.005,28.816
	C465.424,363.01,465.398,363.573,465.362,364.105z"/>
<g>
</g>
<g>
</g>
<g>
</g>
<g>
</g>
<g>
</g>
<g>
</g>
<g>
</g>
<g>
</g>
<g>
</g>
<g>
</g>
<g>
</g>
<g>
</g>
<g>
</g>
<g>
</g>
<g>
</g>
</svg>
