<?xml version="1.0" encoding="iso-8859-1"?>
<!-- Generator: Adobe Illustrator 19.0.0, SVG Export Plug-In . SVG Version: 6.00 Build 0)  -->
<svg version="1.1" id="Layer_1" xmlns="http://www.w3.org/2000/svg" xmlns:xlink="http://www.w3.org/1999/xlink" x="0px" y="0px"
	 viewBox="0 0 511.999 511.999" style="enable-background:new 0 0 511.999 511.999;" xml:space="preserve">
<path style="fill:#FFFFFF;" d="M473.104,371.85c0.176-0.61,0.336-1.227,0.479-1.848c0.046-0.201,0.088-0.403,0.13-0.604
	c0.115-0.54,0.213-1.085,0.301-1.632c0.037-0.237,0.076-0.474,0.108-0.711c0.076-0.546,0.131-1.095,0.181-1.644
	c0.019-0.225,0.047-0.448,0.061-0.674c0.053-0.767,0.084-1.537,0.084-2.313l0,0l0,0v-0.006l-0.007-40.904v-0.002l-0.005-26.203
	v-0.002v-4.213l-0.005-25.574l0,0l-0.008-48.824l-0.004-26.204l-0.007-40.985c0-2.996-0.407-5.93-1.16-8.75
	c-0.405-1.517-0.915-2.997-1.521-4.435c-2.477-5.877-6.574-11.016-11.925-14.74c-0.784-0.545-1.584-1.071-2.421-1.554l-22.872-13.2
	l-21.415-12.358l-17.24-9.949L329.934,46.47l-25.719-14.842l-19.288-11.132l-11.952-6.898c-10.534-6.078-23.51-6.077-34.04,0.006
	l-11.873,6.857l-19.288,11.14l-25.717,14.854l0,0l-65.911,38.072l-28.889,16.686l-21.408,12.365l-11.284,6.517
	c-0.811,0.469-1.589,0.979-2.352,1.507c-3.273,2.266-6.073,5.068-8.333,8.236c-1.517,2.128-2.781,4.423-3.773,6.841
	c-1.655,4.031-2.558,8.399-2.557,12.899l0.007,40.912l0.004,26.204l0.013,73.738l0.001,4.011v0.85v0.001v0.013l0,0v0.005l0,0
	l0.004,26.198v0.002l0.001,1.863l0.001,12.617l0.005,26.496v0.007l0,0c0,0.773,0.031,1.539,0.083,2.305
	c0.017,0.224,0.042,0.445,0.063,0.668c0.048,0.55,0.105,1.096,0.18,1.638c0.031,0.236,0.071,0.471,0.108,0.708
	c0.087,0.544,0.186,1.086,0.298,1.625c0.042,0.201,0.084,0.403,0.13,0.603c0.14,0.615,0.298,1.222,0.471,1.825
	c0.033,0.113,0.063,0.228,0.096,0.34c0.908,3.043,2.239,5.93,3.94,8.588l0.001,0.002l0.001,0.002
	c1.172,1.832,2.517,3.551,4.026,5.137c0.049,0.053,0.098,0.106,0.148,0.159c0.71,0.734,1.454,1.438,2.233,2.112
	c0.125,0.11,0.254,0.215,0.381,0.322c0.786,0.661,1.595,1.298,2.445,1.89c0.784,0.545,1.584,1.07,2.421,1.553l22.55,13.016
	l21.415,12.359l17.56,10.134l91.644,52.89l19.288,11.132l11.953,6.899c10.533,6.078,23.51,6.076,34.04-0.007l11.872-6.857
	l19.288-11.14l25.719-14.853l55.553-32.086l10.364-5.985l26.36-15.224l21.408-12.365l13.812-7.977
	c0.813-0.469,1.591-0.98,2.353-1.507c0.851-0.588,1.659-1.226,2.446-1.884c0.128-0.106,0.258-0.212,0.385-0.323
	c0.779-0.671,1.526-1.374,2.236-2.108c0.047-0.048,0.092-0.098,0.137-0.145c3.724-3.893,6.475-8.61,8.019-13.767
	C473.045,372.067,473.074,371.958,473.104,371.85z"/>
<g>
	<path style="fill:#FFE000;" d="M255.999,300.494c0,0-7.079-3.713-15.385-11.228l-7.178,49.45h45.125l-7.178-49.45
		C263.078,296.781,255.999,300.494,255.999,300.494z"/>
	<path style="fill:#FFE000;" d="M214.556,233.961c0-1.799,0.082-3.57,0.201-5.326c-12.73-5.249-21.693-17.775-21.693-32.401h-46.3
		c0,45.171,36.618,81.789,81.789,81.789c0.52,0,1.031-0.029,1.548-0.039C221.725,267.236,214.556,252.597,214.556,233.961z"/>
</g>
<path id="SVGCleanerId_0" style="fill:#FFE000;" d="M297.443,233.961c0-1.799-0.081-3.57-0.2-5.326
	c12.732-5.249,21.693-17.775,21.693-32.401h46.3c0,45.171-36.618,81.789-81.788,81.789c-0.52,0-1.031-0.029-1.548-0.039
	C290.275,267.236,297.443,252.597,297.443,233.961z"/>
<g>
	<path id="SVGCleanerId_0_1_" style="fill:#FFE000;" d="M297.443,233.961c0-1.799-0.081-3.57-0.2-5.326
		c12.732-5.249,21.693-17.775,21.693-32.401h46.3c0,45.171-36.618,81.789-81.788,81.789c-0.52,0-1.031-0.029-1.548-0.039
		C290.275,267.236,297.443,252.597,297.443,233.961z"/>
</g>
<path style="fill:#FFFFFF;" d="M291.181,203.846c-3.985,6.233-10.375,10.301-17.601,10.301s-13.615-4.069-17.605-10.301
	c-3.985,6.233-10.376,10.301-17.601,10.301c-7.225,0-13.627-4.069-17.605-10.301c-3.926,8.744-6.214,19.059-6.214,30.115
	c0,44.81,41.445,66.533,41.445,66.533s41.443-21.722,41.443-66.533C297.443,222.905,295.156,212.59,291.181,203.846z"/>
<g>
	<path style="fill:#ED1F34;" d="M251.227,240.546c0-4.993-4.047-9.041-9.041-9.041s-9.041,4.048-9.041,9.041v41.124
		c5.766,6.603,11.748,11.444,16.149,14.564c1.208-1.537,1.934-3.471,1.934-5.578V240.546z"/>
	<path style="fill:#ED1F34;" d="M278.855,281.669v-41.124c0-4.993-4.047-9.041-9.041-9.041s-9.041,4.048-9.041,9.041v50.11
		c0,2.107,0.727,4.041,1.934,5.578C267.107,293.114,273.089,288.271,278.855,281.669z"/>
</g>
<path style="fill:#164FCE;" d="M214.865,240.546h82.27c0.199-2.137,0.309-4.33,0.309-6.585c0-11.056-2.287-21.371-6.239-30.115
	c-4.008,6.233-10.399,10.301-17.624,10.301s-13.615-4.069-17.605-10.301c-3.985,6.233-10.376,10.301-17.601,10.301
	c-7.215,0-13.612-4.059-17.591-10.279c-3.943,8.739-6.23,19.046-6.23,30.092C214.556,236.216,214.666,238.408,214.865,240.546z"/>
<g>
	<path style="fill:#3DB4EA;" d="M85.753,306.09L85.753,306.09c-4.008,0-7.538-2.639-8.671-6.484l-13.999-47.465
		c-1.413-4.79,1.325-9.818,6.114-11.229c4.785-1.409,9.817,1.326,11.228,6.114l5.326,18.06l5.327-18.06
		c1.413-4.79,6.435-7.528,11.228-6.114c4.791,1.413,7.527,6.44,6.114,11.229l-13.998,47.466
		C93.292,303.451,89.762,306.09,85.753,306.09z"/>
	<path style="fill:#3DB4EA;" d="M440.244,306.09c-4.994,0-9.041-4.047-9.041-9.041v-47.466c0-4.993,4.047-9.041,9.041-9.041
		s9.041,4.048,9.041,9.041v47.466C449.285,302.043,445.238,306.09,440.244,306.09z"/>
</g>
<path d="M415.056,187.192h-49.818h-46.3c-4.994,0-9.041,4.048-9.041,9.041c0,6.242-2.217,12.078-6.035,16.651
	c-1.132-4.446-2.61-8.736-4.447-12.78c-1.372-3.016-4.284-5.042-7.589-5.277c-3.319-0.241-6.476,1.356-8.261,4.148
	c-2.489,3.896-6.129,6.13-9.982,6.13c-3.166,0-6.177-1.53-8.54-4.23v-27.591c0-4.993-4.047-9.041-9.041-9.041h-21.921
	c-4.994,0-9.041,4.048-9.041,9.041s4.047,9.041,9.041,9.041h12.88v18.497c-2.365,2.734-5.395,4.282-8.582,4.282
	c-3.86,0-7.501-2.233-9.985-6.125c-1.787-2.8-4.958-4.403-8.281-4.152c-3.314,0.242-6.228,2.283-7.588,5.315
	c-1.812,4.036-3.272,8.31-4.393,12.73c-3.812-4.571-6.025-10.402-6.025-16.64c0-4.993-4.047-9.041-9.041-9.041h-46.3H96.944
	c-4.994,0-9.041,4.048-9.041,9.041c0,4.993,4.047,9.041,9.041,9.041h41.229c0.288,2.908,0.723,5.771,1.28,8.592H119.86
	c-4.994,0-9.041,4.048-9.041,9.041s4.047,9.041,9.041,9.041h25.191c1.266,2.95,2.693,5.812,4.253,8.592h-6.527
	c-4.994,0-9.041,4.048-9.041,9.041c0,4.993,4.047,9.041,9.041,9.041h19.857c15.959,16.853,38.281,27.602,63.087,28.368
	c1.748,2.034,3.515,3.906,5.269,5.647l-6.5,44.778c-0.377,2.597,0.393,5.231,2.11,7.214c1.718,1.986,4.213,3.126,6.838,3.126h45.125
	c2.624,0,5.12-1.139,6.838-3.126c1.717-1.984,2.487-4.617,2.11-7.214l-6.5-44.778c1.754-1.74,3.521-3.613,5.269-5.647
	c24.806-0.767,47.127-11.515,63.087-28.368h19.857c4.994,0,9.041-4.048,9.041-9.041c0-4.993-4.047-9.041-9.041-9.041h-6.527
	c1.56-2.78,2.988-5.642,4.253-8.592h25.191c4.994,0,9.041-4.048,9.041-9.041s-4.047-9.041-9.041-9.041h-19.595
	c0.558-2.821,0.992-5.684,1.281-8.592h41.229c4.994,0,9.041-4.048,9.041-9.041C424.098,191.241,420.049,187.192,415.056,187.192z
	 M238.376,223.189c6.36,0,12.492-2.19,17.603-6.119c5.113,3.929,11.243,6.119,17.603,6.119c4.681,0,9.237-1.186,13.352-3.378
	c0.661,3.098,1.084,6.299,1.298,9.549c0.004,0.043,0.006,0.086,0.01,0.129c0.095,1.482,0.16,2.972,0.16,4.472
	c0,15.75-5.847,28.251-12.87,37.595c-0.545,0.542-1.02,1.154-1.414,1.822c-2.609,3.253-5.331,6.088-7.944,8.506
	c-0.587,0.415-1.12,0.893-1.588,1.43c-3.266,2.868-6.28,5.069-8.564,6.593c-2.411-1.623-5.654-4.012-9.162-7.169
	c-0.102-0.096-0.206-0.193-0.313-0.286c-10.401-9.456-22.948-25.6-22.948-48.488c0-1.5,0.065-2.988,0.16-4.471
	c0.004-0.045,0.006-0.088,0.01-0.131c0.213-3.238,0.633-6.429,1.287-9.525C229.162,222.011,233.706,223.189,238.376,223.189z
	 M174.228,244.546c-0.398-0.593-0.87-1.128-1.394-1.611c-8.788-10.468-14.699-23.428-16.471-37.66h28.585
	c2.499,12.033,9.931,22.473,20.57,28.801c0.018,12.756,2.967,23.792,7.36,33.187C197.67,263.909,184.238,255.788,174.228,244.546z
	 M268.114,329.674h-24.229l3.459-23.828c2.473,1.591,4.128,2.482,4.458,2.656c1.314,0.688,2.756,1.033,4.196,1.033
	s2.884-0.345,4.196-1.033c0.33-0.175,1.986-1.064,4.458-2.656L268.114,329.674z M299.121,267.263
	c4.394-9.395,7.343-20.432,7.36-33.187c10.639-6.328,18.071-16.768,20.57-28.801h28.585c-1.772,14.234-7.683,27.194-16.471,37.66
	c-0.524,0.482-0.996,1.017-1.394,1.611C327.762,255.788,314.33,263.91,299.121,267.263z M483.457,149.505
	c0-3.709-0.494-7.437-1.465-11.075c-0.501-1.887-1.149-3.777-1.926-5.623c-3.181-7.542-8.399-13.99-15.091-18.646
	c-1.114-0.775-2.086-1.398-3.066-1.964L277.499,5.768C270.961,1.995,263.516,0,255.964,0c-7.554,0-15.005,1.998-21.546,5.776
	L50.048,112.263c-0.944,0.545-1.891,1.149-2.985,1.907c-4.087,2.831-7.633,6.335-10.546,10.419c-1.91,2.681-3.515,5.592-4.776,8.658
	c-2.146,5.23-3.234,10.724-3.234,16.332l0.037,212.917c0,0.928,0.033,1.882,0.105,2.917c0.016,0.241,0.037,0.48,0.063,0.721
	l0.014,0.127c0.06,0.694,0.131,1.384,0.228,2.094c0.036,0.259,0.078,0.516,0.133,0.866c0.112,0.697,0.236,1.389,0.382,2.084
	c0.054,0.253,0.108,0.508,0.163,0.745c0.176,0.778,0.377,1.545,0.604,2.34c0.04,0.149,0.082,0.299,0.115,0.405
	c1.144,3.826,2.821,7.485,4.986,10.871c0.025,0.039,0.051,0.076,0.075,0.116c1.472,2.282,3.16,4.431,4.998,6.362
	c0.046,0.049,0.168,0.178,0.216,0.228c0.891,0.926,1.84,1.824,2.825,2.675l0.481,0.405c1.098,0.923,2.111,1.705,3.097,2.391
	c1.116,0.775,2.087,1.397,3.062,1.96L234.5,506.232c6.539,3.772,13.986,5.767,21.534,5.767c7.556,0,15.006-1.998,21.549-5.776
	l184.37-106.487c0.943-0.544,1.89-1.149,2.988-1.907c0.984-0.682,1.995-1.461,3.107-2.389l0.474-0.398
	c0.986-0.85,1.938-1.747,2.85-2.688l0.153-0.163c4.695-4.904,8.206-10.929,10.124-17.344c0.053-0.169,0.101-0.339,0.141-0.486
	c0.224-0.774,0.427-1.553,0.608-2.344c0.059-0.254,0.113-0.509,0.168-0.77c0.142-0.682,0.269-1.371,0.379-2.067l0.022-0.121
	c0.04-0.256,0.08-0.511,0.118-0.787c0.094-0.686,0.168-1.379,0.227-2.064l0.016-0.143c0.024-0.239,0.046-0.477,0.061-0.72
	c0.074-1.058,0.106-2.019,0.105-2.931L483.457,149.505z M465.348,364.098l-0.051,0.521c-0.035,0.406-0.076,0.811-0.129,1.193
	l-0.082,0.532c-0.064,0.403-0.137,0.804-0.219,1.196l-0.094,0.44c-0.106,0.457-0.224,0.91-0.363,1.389l-0.061,0.225
	c-1.131,3.759-3.164,7.249-5.902,10.109l-0.084,0.092c-0.514,0.53-1.068,1.051-1.638,1.544l-0.287,0.237
	c-0.676,0.565-1.262,1.02-1.789,1.384c-0.674,0.467-1.222,0.82-1.731,1.113L268.54,490.566c-3.797,2.192-8.12,3.351-12.505,3.351
	c-4.38,0-8.703-1.157-12.495-3.347L59.131,384.143c-0.526-0.304-1.09-0.669-1.776-1.144c-0.539-0.376-1.109-0.819-1.816-1.41
	l-0.262-0.218c-0.573-0.495-1.124-1.019-1.577-1.486c-0.031-0.035-0.136-0.148-0.171-0.183c-1.086-1.14-2.072-2.394-2.929-3.73
	c-0.011-0.017-0.022-0.03-0.03-0.047c-1.257-1.966-2.231-4.088-2.887-6.28l-0.074-0.269c-0.129-0.444-0.245-0.89-0.351-1.357
	l-0.094-0.436c-0.082-0.388-0.154-0.78-0.219-1.198l-0.078-0.499c-0.054-0.4-0.095-0.803-0.133-1.222l-0.046-0.474
	c-0.036-0.562-0.061-1.125-0.061-1.699L46.59,149.579c0-3.24,0.633-6.427,1.879-9.463c0.732-1.783,1.667-3.476,2.774-5.028
	c1.695-2.378,3.753-4.415,6.114-6.051c0.674-0.465,1.221-0.819,1.73-1.111L243.462,21.434c3.795-2.192,8.119-3.351,12.502-3.351
	c4.382,0,8.703,1.157,12.495,3.347l184.41,106.428c0.528,0.304,1.09,0.667,1.778,1.145c3.881,2.7,6.908,6.446,8.754,10.824
	c0.452,1.074,0.829,2.169,1.119,3.26c0.567,2.124,0.855,4.283,0.855,6.421l0.034,212.93
	C465.409,363.004,465.384,363.567,465.348,364.098z"/>
<g>
</g>
<g>
</g>
<g>
</g>
<g>
</g>
<g>
</g>
<g>
</g>
<g>
</g>
<g>
</g>
<g>
</g>
<g>
</g>
<g>
</g>
<g>
</g>
<g>
</g>
<g>
</g>
<g>
</g>
</svg>
