<?xml version="1.0" encoding="iso-8859-1"?>
<!-- Generator: Adobe Illustrator 19.0.0, SVG Export Plug-In . SVG Version: 6.00 Build 0)  -->
<svg version="1.1" id="Layer_1" xmlns="http://www.w3.org/2000/svg" xmlns:xlink="http://www.w3.org/1999/xlink" x="0px" y="0px"
	 viewBox="0 0 512 512" style="enable-background:new 0 0 512 512;" xml:space="preserve">
<path style="fill:#FFE000;" d="M473.103,371.85c0.176-0.61,0.338-1.227,0.479-1.848c0.047-0.201,0.089-0.403,0.131-0.604
	c0.113-0.54,0.213-1.085,0.3-1.632c0.037-0.237,0.076-0.474,0.11-0.711c0.076-0.546,0.131-1.095,0.18-1.644
	c0.021-0.225,0.047-0.448,0.063-0.674c0.052-0.767,0.084-1.537,0.083-2.313l0,0l0,0v-0.006l-0.006-40.904v-0.002l-0.005-26.203
	v-0.002l-0.001-4.213l-0.004-25.574l0,0l-0.008-48.824l-0.005-26.203l-0.006-40.985c-0.001-2.995-0.409-5.931-1.161-8.75
	c-0.405-1.517-0.915-2.997-1.521-4.435c-2.477-5.876-6.574-11.016-11.924-14.74c-0.784-0.545-1.584-1.071-2.421-1.553l-22.87-13.202
	l-21.414-12.358l-17.24-9.949l-65.925-38.046L304.22,31.629l-19.288-11.132l-11.953-6.899c-10.533-6.078-23.509-6.076-34.04,0.007
	l-11.872,6.857l-19.288,11.14l-25.717,14.853l0,0l-65.915,38.072l-28.89,16.686l-21.408,12.365l-11.282,6.516
	c-0.813,0.469-1.59,0.98-2.353,1.507c-3.272,2.268-6.072,5.067-8.331,8.236c-1.517,2.127-2.781,4.422-3.774,6.841
	c-1.654,4.032-2.557,8.399-2.557,12.899l0.007,40.913l0.005,26.203l0.012,73.738l0.001,4.011v0.85v0.001v0.013l0,0v0.005l0,0
	l0.005,26.198v0.002v1.863l0.002,12.617l0.004,26.496v0.007l0,0c0.001,0.773,0.033,1.539,0.084,2.305
	c0.016,0.224,0.042,0.445,0.063,0.668c0.048,0.55,0.105,1.096,0.178,1.638c0.033,0.236,0.072,0.471,0.11,0.708
	c0.086,0.544,0.184,1.086,0.298,1.625c0.042,0.201,0.084,0.403,0.13,0.603c0.14,0.615,0.298,1.222,0.471,1.825
	c0.033,0.113,0.061,0.228,0.095,0.34c0.909,3.043,2.239,5.93,3.941,8.588c0,0.001,0,0.002,0,0.002
	c0.001,0.001,0.001,0.002,0.001,0.002c1.173,1.832,2.518,3.551,4.028,5.137c0.049,0.053,0.098,0.106,0.147,0.159
	c0.71,0.734,1.454,1.438,2.233,2.112c0.125,0.11,0.254,0.215,0.382,0.322c0.785,0.661,1.594,1.298,2.444,1.89
	c0.784,0.545,1.584,1.07,2.421,1.553l22.552,13.016l21.414,12.359l17.561,10.134l91.644,52.89l19.288,11.132l11.953,6.899
	c10.533,6.078,23.509,6.076,34.04-0.007l11.872-6.857l19.288-11.14l25.717-14.853l55.554-32.086l10.363-5.985l26.36-15.225
	l21.408-12.365l13.813-7.977c0.813-0.469,1.59-0.98,2.353-1.507c0.85-0.588,1.659-1.226,2.445-1.884
	c0.129-0.106,0.259-0.212,0.386-0.323c0.779-0.671,1.526-1.374,2.236-2.108c0.046-0.048,0.09-0.098,0.136-0.145
	c3.725-3.893,6.475-8.61,8.019-13.767C473.045,372.067,473.073,371.958,473.103,371.85z"/>
<path style="fill:#333333;" d="M153.486,187.657L53.329,120.885c-0.371,0.24-0.755,0.465-1.118,0.716
	c-3.272,2.268-6.072,5.067-8.331,8.236c-1.517,2.127-2.781,4.422-3.774,6.841c-1.654,4.032-2.557,8.399-2.557,12.899l0.007,40.913
	l0.005,26.203l0.012,73.738l0.001,4.011v0.849v0.002v0.013l0,0v0.005l0,0l0.005,26.198v0.002v1.863l0.002,12.617l0.004,26.496v0.007
	l0,0c0.001,0.773,0.033,1.539,0.084,2.305c0.016,0.224,0.042,0.445,0.063,0.668c0.048,0.55,0.105,1.096,0.178,1.639
	c0.033,0.235,0.072,0.47,0.11,0.706c0.086,0.544,0.184,1.085,0.298,1.625c0.042,0.201,0.084,0.403,0.13,0.603
	c0.14,0.615,0.298,1.222,0.471,1.825c0.033,0.113,0.061,0.228,0.095,0.34c0.909,3.043,2.239,5.93,3.94,8.588
	c0.001,0.001,0.001,0.002,0.001,0.002c0.001,0.001,0.001,0.002,0.001,0.002c1.173,1.832,2.518,3.551,4.028,5.137
	c0.049,0.053,0.098,0.106,0.147,0.159c0.71,0.734,1.454,1.438,2.233,2.112c0.125,0.11,0.254,0.215,0.382,0.322
	c0.785,0.661,1.594,1.298,2.444,1.89c0.36,0.251,0.743,0.474,1.111,0.714l202.7-135.133L153.486,187.657z"/>
<g>
	<path style="fill:#3DB4EA;" d="M474.422,187.657l-0.006-38.152c-0.001-2.995-0.409-5.931-1.161-8.75
		c-0.405-1.517-0.915-2.997-1.52-4.435c-2.479-5.876-6.575-11.016-11.925-14.74c-0.784-0.545-1.584-1.071-2.421-1.553
		l-22.872-13.202l-21.414-12.358l-17.24-9.949l-65.925-38.046L304.22,31.629l-19.288-11.132l-11.953-6.899
		c-10.533-6.078-23.509-6.076-34.04,0.007l-11.872,6.857l-19.288,11.14l-25.717,14.853l0,0l-65.915,38.072l-28.89,16.686
		l-21.408,12.365l-11.282,6.516c-0.427,0.247-0.826,0.527-1.236,0.791l100.157,66.773H474.422z"/>
	<path style="fill:#3DB4EA;" d="M474.444,324.343H153.487L53.301,391.132c0.435,0.282,0.857,0.579,1.309,0.839l22.552,13.016
		l21.414,12.359l17.561,10.134l91.644,52.89l19.288,11.132l11.953,6.899c10.533,6.078,23.509,6.076,34.04-0.007l11.872-6.857
		l19.288-11.14l25.717-14.853l55.554-32.086l10.363-5.985l26.36-15.225l21.408-12.365l13.813-7.977
		c0.813-0.469,1.59-0.98,2.353-1.507c0.851-0.588,1.659-1.226,2.445-1.884c0.129-0.106,0.259-0.212,0.386-0.323
		c0.779-0.671,1.526-1.374,2.236-2.108c0.047-0.048,0.09-0.098,0.136-0.145c3.725-3.893,6.475-8.61,8.019-13.767
		c0.033-0.106,0.06-0.215,0.09-0.322c0.176-0.611,0.338-1.228,0.479-1.849c0.047-0.201,0.089-0.403,0.131-0.604
		c0.113-0.54,0.213-1.084,0.3-1.632c0.037-0.237,0.076-0.474,0.11-0.712c0.076-0.545,0.131-1.093,0.18-1.643
		c0.02-0.225,0.046-0.448,0.063-0.674c0.052-0.767,0.083-1.537,0.083-2.313v-0.006L474.444,324.343z"/>
</g>
<path d="M483.456,149.505c0-3.708-0.493-7.438-1.463-11.075c-0.503-1.888-1.15-3.778-1.926-5.623
	c-3.181-7.544-8.401-13.991-15.092-18.647c-1.115-0.776-2.088-1.4-3.066-1.965L277.499,5.767C270.961,1.994,263.515,0,255.964,0
	c-7.555,0-15.005,1.996-21.549,5.776L50.047,112.263c-0.948,0.546-1.895,1.152-2.984,1.906c-4.086,2.829-7.633,6.335-10.546,10.419
	c-1.911,2.682-3.518,5.594-4.776,8.659c-2.146,5.23-3.234,10.724-3.234,16.332l0.036,212.917c0,0.928,0.034,1.882,0.105,2.919
	c0.017,0.241,0.039,0.48,0.064,0.721l0.013,0.127c0.06,0.692,0.133,1.383,0.229,2.093c0.036,0.26,0.077,0.516,0.134,0.867
	c0.11,0.697,0.235,1.389,0.381,2.084c0.054,0.254,0.108,0.508,0.163,0.745c0.177,0.779,0.377,1.547,0.604,2.339
	c0.039,0.146,0.08,0.291,0.115,0.406c1.144,3.829,2.822,7.487,4.986,10.873c0.025,0.036,0.048,0.075,0.072,0.111
	c1.47,2.283,3.16,4.433,5,6.365c0.046,0.051,0.168,0.178,0.215,0.228c0.901,0.933,1.853,1.834,2.809,2.661
	c0.143,0.125,0.289,0.246,0.498,0.419c1.093,0.919,2.105,1.699,3.097,2.391c1.111,0.773,2.084,1.395,3.062,1.96L234.5,506.232
	c6.539,3.773,13.985,5.768,21.534,5.768c7.555,0,15.005-1.998,21.547-5.777l184.37-106.486c0.94-0.542,1.887-1.146,2.991-1.91
	c0.99-0.687,2.001-1.466,3.177-2.447l0.405-0.339c0.986-0.851,1.937-1.749,2.881-2.723l0.119-0.127
	c4.695-4.904,8.205-10.929,10.122-17.332c0.053-0.171,0.102-0.342,0.143-0.497c0.224-0.775,0.427-1.556,0.608-2.34
	c0.058-0.253,0.112-0.508,0.168-0.773c0.143-0.684,0.27-1.374,0.398-2.177c0.041-0.259,0.082-0.518,0.122-0.802
	c0.093-0.687,0.168-1.378,0.227-2.061l0.014-0.143c0.025-0.24,0.047-0.48,0.063-0.721c0.072-1.057,0.106-2.018,0.105-2.931
	L483.456,149.505z M53.771,379.952c-0.02-0.022-0.046-0.045-0.068-0.066c-0.033-0.035-0.14-0.151-0.175-0.186
	c-1.098-1.154-2.093-2.423-2.956-3.771c-0.008-0.014-0.018-0.028-0.025-0.041c-1.247-1.955-2.212-4.065-2.862-6.241l-0.076-0.276
	c-0.127-0.441-0.244-0.887-0.35-1.354l-0.094-0.438c-0.081-0.388-0.153-0.781-0.219-1.196l-0.078-0.5
	c-0.054-0.4-0.094-0.804-0.131-1.225l-0.048-0.471c-0.037-0.561-0.063-1.125-0.063-1.699L46.59,149.579
	c0-3.24,0.632-6.427,1.879-9.465c0.732-1.783,1.666-3.476,2.773-5.028c0.774-1.084,1.632-2.088,2.55-3.026l94.63,63.087
	c0.008,0.005,0.017,0.011,0.025,0.017l91.254,60.837l-91.254,60.837c-0.008,0.006-0.017,0.012-0.025,0.017L53.771,379.952z
	 M261.016,263.523c2.516-1.677,4.026-4.499,4.026-7.522c0-3.023-1.511-5.847-4.026-7.522L183.348,196.7h282.034l0.019,118.603
	H183.348L261.016,263.523z M243.461,21.434c3.795-2.193,8.119-3.351,12.504-3.351c4.381,0,8.703,1.157,12.495,3.347l184.408,106.427
	c0.524,0.301,1.087,0.665,1.778,1.145c3.881,2.699,6.908,6.446,8.757,10.826c0.451,1.073,0.827,2.166,1.118,3.259
	c0.567,2.123,0.854,4.282,0.854,6.418l0.005,29.11H156.223l-85.832-57.221L243.461,21.434z M465.348,364.1l-0.051,0.52
	c-0.035,0.408-0.076,0.813-0.128,1.191l-0.064,0.407c0,0.004-0.02,0.125-0.02,0.127c-0.064,0.404-0.137,0.804-0.218,1.191
	l-0.096,0.447c-0.105,0.457-0.224,0.909-0.362,1.386l-0.06,0.217c-1.13,3.762-3.164,7.255-5.905,10.118l-0.083,0.09
	c-0.515,0.532-1.068,1.054-1.635,1.543l-0.293,0.242c-0.671,0.561-1.259,1.015-1.784,1.382c-0.678,0.468-1.226,0.821-1.734,1.114
	l-184.373,106.49c-3.796,2.192-8.12,3.351-12.504,3.351c-4.381,0-8.701-1.159-12.495-3.348l-173.18-99.944l85.861-57.24h309.181
	l0.005,29.053C465.409,363.003,465.384,363.566,465.348,364.1z"/>
<g>
</g>
<g>
</g>
<g>
</g>
<g>
</g>
<g>
</g>
<g>
</g>
<g>
</g>
<g>
</g>
<g>
</g>
<g>
</g>
<g>
</g>
<g>
</g>
<g>
</g>
<g>
</g>
<g>
</g>
</svg>
