<?xml version="1.0" encoding="iso-8859-1"?>
<!-- Generator: Adobe Illustrator 19.0.0, SVG Export Plug-In . SVG Version: 6.00 Build 0)  -->
<svg version="1.1" id="Layer_1" xmlns="http://www.w3.org/2000/svg" xmlns:xlink="http://www.w3.org/1999/xlink" x="0px" y="0px"
	 viewBox="0 0 512.001 512.001" style="enable-background:new 0 0 512.001 512.001;" xml:space="preserve">
<path style="fill:#FFFFFF;" d="M473.119,371.858c0.176-0.611,0.338-1.229,0.479-1.849c0.047-0.201,0.089-0.403,0.131-0.603
	c0.113-0.541,0.213-1.086,0.3-1.634c0.037-0.237,0.076-0.474,0.11-0.711c0.076-0.546,0.131-1.095,0.18-1.644
	c0.021-0.225,0.047-0.447,0.063-0.674c0.052-0.767,0.084-1.537,0.084-2.314l0,0l0,0v-0.006l-0.007-40.908v-0.002l-0.005-26.205
	v-0.002l-0.001-4.214l-0.004-25.576l0,0l-0.008-48.827l-0.005-26.206l-0.007-40.988c0-2.996-0.406-5.93-1.16-8.75
	c-0.405-1.517-0.915-2.997-1.52-4.435c-2.479-5.877-6.575-11.017-11.926-14.741c-0.784-0.545-1.584-1.071-2.421-1.554
	l-22.875-13.201l-21.415-12.359l-17.241-9.949l-65.931-38.051L304.219,31.61l-19.29-11.133l-11.954-6.898
	c-10.533-6.079-23.511-6.077-34.043,0.006l-11.873,6.857l-19.29,11.141l-25.719,14.855l0,0l-65.917,38.076L87.242,101.2
	l-21.409,12.366l-11.283,6.518c-0.811,0.469-1.59,0.979-2.353,1.507c-3.272,2.267-6.074,5.068-8.332,8.237
	c-1.517,2.128-2.781,4.423-3.774,6.842c-1.655,4.032-2.558,8.399-2.557,12.9l0.006,40.915l0.005,26.206l0.012,73.743v4.011v0.85
	v0.001v0.013l0,0v0.005l0,0l0.005,26.2v0.002v1.863l0.002,12.619l0.004,26.498v0.007l0,0c0,0.773,0.033,1.54,0.084,2.305
	c0.016,0.224,0.042,0.445,0.061,0.668c0.048,0.55,0.105,1.096,0.18,1.64c0.033,0.235,0.072,0.47,0.109,0.706
	c0.087,0.544,0.186,1.086,0.298,1.625c0.042,0.203,0.086,0.403,0.131,0.603c0.14,0.615,0.298,1.223,0.471,1.825
	c0.033,0.113,0.061,0.228,0.095,0.34c0.909,3.043,2.24,5.93,3.94,8.589l0.001,0.004l0.001,0.001
	c1.172,1.833,2.517,3.552,4.026,5.137c0.051,0.053,0.099,0.106,0.148,0.159c0.709,0.734,1.454,1.438,2.232,2.112
	c0.125,0.11,0.254,0.215,0.382,0.322c0.786,0.661,1.595,1.298,2.445,1.892c0.784,0.544,1.584,1.069,2.42,1.552L77.145,405
	l21.415,12.36l17.562,10.134l91.65,52.894l19.29,11.133l11.954,6.9c10.533,6.079,23.511,6.076,34.043-0.007l11.873-6.857
	l19.29-11.141l25.719-14.854l55.558-32.088l10.363-5.986l26.362-15.226l21.409-12.366l13.814-7.978
	c0.813-0.469,1.59-0.98,2.353-1.507c0.85-0.588,1.659-1.226,2.445-1.884c0.129-0.107,0.259-0.212,0.386-0.323
	c0.779-0.672,1.526-1.374,2.236-2.109c0.046-0.048,0.09-0.098,0.136-0.145c3.725-3.893,6.475-8.61,8.02-13.768
	C473.061,372.074,473.087,371.965,473.119,371.858z"/>
<path style="fill:#ED1F34;" d="M210.497,255.999h182.006h30.334h51.61l-0.006-39.309l-0.005-26.205l-0.007-40.988
	c0-2.995-0.406-5.932-1.16-8.75c-0.405-1.517-0.914-2.997-1.52-4.435c-2.479-5.876-6.575-11.016-11.926-14.741
	c-0.784-0.545-1.584-1.071-2.421-1.553l-22.875-13.204l-21.415-12.359l-17.241-9.949l-65.931-38.05L304.22,31.611l-19.29-11.133
	l-11.954-6.9c-10.533-6.079-23.511-6.076-34.043,0.007l-11.873,6.857l-19.29,11.141l-25.719,14.854l0,0l-65.918,38.076L87.242,101.2
	l-9.05,5.228L210.497,255.999z"/>
<path style="fill:#103B9B;" d="M474.459,321.517L474.459,321.517v-0.002l-0.005-26.205l0,0v-0.002l-0.001-4.214l-0.004-25.576
	l-0.002-9.518h-51.61h-30.334H210.497L78.175,405.59l20.388,11.768l17.562,10.134l91.65,52.894l19.29,11.133l11.954,6.9
	c10.533,6.079,23.511,6.076,34.043-0.007l11.873-6.857l19.29-11.141l25.719-14.854l55.558-32.088l10.363-5.986l26.362-15.226
	l21.409-12.366l13.814-7.978c0.813-0.469,1.59-0.98,2.353-1.507c0.85-0.588,1.659-1.226,2.445-1.884
	c0.129-0.106,0.259-0.212,0.386-0.322c0.779-0.673,1.526-1.376,2.236-2.11c0.047-0.048,0.09-0.098,0.136-0.146
	c0.467-0.486,0.916-0.985,1.35-1.496c0.87-1.024,1.677-2.095,2.417-3.209c0.74-1.114,1.414-2.271,2.018-3.464
	c0.907-1.79,1.655-3.663,2.235-5.598c0.033-0.106,0.06-0.215,0.09-0.322c0.176-0.611,0.338-1.229,0.479-1.851
	c0.047-0.2,0.089-0.401,0.131-0.603c0.057-0.271,0.1-0.544,0.149-0.817c0.051-0.272,0.107-0.543,0.151-0.817
	c0.037-0.236,0.076-0.473,0.11-0.711c0.076-0.545,0.131-1.092,0.18-1.643c0.011-0.112,0.021-0.225,0.031-0.336
	c0.011-0.112,0.023-0.224,0.03-0.336c0.052-0.767,0.084-1.537,0.084-2.314l0,0v-0.006L474.459,321.517z"/>
<polygon style="fill:#3DB4EA;" points="89.937,217.537 89.937,262.887 103.837,271.817 117.739,262.887 117.739,217.537 "/>
<path style="fill:#ED1F34;" d="M106.249,280.859c-1.7,0-3.399-0.477-4.888-1.433l-13.901-8.93c-2.59-1.664-4.155-4.531-4.155-7.609
	v-45.35c0-4.994,4.048-9.042,9.042-9.042h27.803c4.994,0,9.042,4.048,9.042,9.042v45.35c0,3.078-1.565,5.945-4.155,7.609
	l-13.902,8.93C109.647,280.38,107.947,280.859,106.249,280.859z M101.39,257.949l4.859,3.121l4.86-3.122v-31.37h-9.718V257.949z"/>
<path style="fill:#FFE000;" d="M106.249,303.936c-26.403,0-47.884-21.48-47.884-47.884c0-4.994,4.048-9.042,9.042-9.042
	c4.994,0,9.042,4.048,9.042,9.042c0,16.431,13.368,29.8,29.8,29.8s29.8-13.369,29.8-29.8c0-4.994,4.048-9.042,9.042-9.042
	s9.042,4.048,9.042,9.042C154.133,282.455,132.653,303.936,106.249,303.936z"/>
<path d="M483.474,149.494c-0.001-3.711-0.494-7.439-1.467-11.081c-0.506-1.898-1.154-3.787-1.924-5.615
	c-3.18-7.543-8.399-13.992-15.095-18.653c-1.116-0.775-2.088-1.397-3.063-1.96L277.5,5.75c-13.289-7.669-29.799-7.666-43.085,0.007
	L50.026,112.254c-0.946,0.546-1.892,1.15-2.979,1.904c-4.086,2.831-7.634,6.335-10.547,10.421c-1.912,2.684-3.519,5.596-4.775,8.657
	c-2.147,5.231-3.235,10.726-3.235,16.335l0.035,212.932c0,0.921,0.034,1.875,0.105,2.92c0.016,0.233,0.037,0.467,0.061,0.697
	l0.014,0.148c0.061,0.693,0.134,1.384,0.231,2.093c0.034,0.24,0.071,0.477,0.109,0.716l0.025,0.16c0.11,0.69,0.234,1.377,0.38,2.072
	c0.054,0.256,0.107,0.51,0.163,0.75c0.177,0.778,0.377,1.546,0.608,2.35l0.112,0.393c1.143,3.828,2.82,7.484,4.985,10.872
	c0.013,0.021,0.027,0.041,0.041,0.063c1.478,2.302,3.179,4.469,5.053,6.438c0.039,0.042,0.153,0.163,0.193,0.205
	c0.887,0.921,1.836,1.82,2.828,2.678l0.48,0.405c1.098,0.923,2.111,1.705,3.096,2.389c1.113,0.774,2.086,1.396,3.065,1.962
	l184.424,106.436c6.643,3.835,14.089,5.752,21.536,5.751c7.451-0.001,14.904-1.921,21.549-5.757L461.97,399.749
	c0.949-0.547,1.895-1.153,2.979-1.904c0.995-0.688,1.98-1.444,3.114-2.392l0.474-0.398c0.989-0.852,1.942-1.751,2.808-2.644
	l0.195-0.207c4.697-4.907,8.207-10.932,10.154-17.434l0.113-0.395v-0.001c0.223-0.774,0.427-1.555,0.606-2.344l0.169-0.77
	c0.142-0.682,0.269-1.371,0.379-2.064l0.019-0.119c0.041-0.258,0.081-0.515,0.118-0.781c0.095-0.69,0.169-1.386,0.228-2.072
	l0.016-0.146c0.025-0.237,0.046-0.477,0.063-0.721c0.071-1.043,0.106-1.999,0.106-2.931L483.474,149.494z M57.337,383.005
	c-0.539-0.375-1.109-0.817-1.782-1.382l-0.289-0.241c-0.576-0.5-1.128-1.024-1.596-1.507c-0.027-0.029-0.127-0.135-0.154-0.164
	c-1.098-1.155-2.093-2.426-2.957-3.775c-0.012-0.019-0.024-0.037-0.035-0.057c-1.243-1.953-2.205-4.057-2.861-6.256l-0.068-0.24
	c-0.127-0.445-0.245-0.891-0.351-1.356l-0.093-0.427c-0.082-0.397-0.156-0.794-0.217-1.185l-0.082-0.524
	c-0.054-0.399-0.096-0.802-0.13-1.198l-0.048-0.496c-0.039-0.563-0.064-1.126-0.064-1.7L46.575,149.57
	c0-3.241,0.632-6.426,1.881-9.466c0.731-1.781,1.663-3.471,2.77-5.025c1.696-2.379,3.755-4.415,6.117-6.051
	c0.67-0.463,1.22-0.816,1.729-1.112l17.244-9.96l122.11,138.045L76.295,394.065l-17.18-9.915
	C58.591,383.848,58.025,383.482,57.337,383.005z M465.362,364.106l-0.051,0.521c-0.035,0.403-0.076,0.805-0.129,1.195l-0.082,0.53
	c-0.065,0.404-0.137,0.805-0.227,1.225l-0.089,0.415c-0.104,0.457-0.222,0.909-0.352,1.356l-0.066,0.239
	c-1.127,3.764-3.165,7.26-5.909,10.128l-0.083,0.089c-0.511,0.528-1.065,1.05-1.653,1.556l-0.27,0.224
	c-0.688,0.577-1.259,1.018-1.796,1.389c-0.669,0.464-1.216,0.815-1.728,1.11L268.539,490.581c-7.71,4.452-17.288,4.455-25,0.005
	l-151.26-87.296l122.292-138.249h177.932c4.995,0,9.042-4.047,9.042-9.042c0-4.994-4.047-9.042-9.042-9.042H214.571L92.295,108.724
	L243.46,21.417c7.711-4.454,17.29-4.455,25.001-0.004l184.422,106.435c0.526,0.304,1.091,0.668,1.778,1.145
	c3.882,2.701,6.908,6.446,8.759,10.831c0.448,1.065,0.825,2.159,1.116,3.254c0.567,2.122,0.854,4.281,0.855,6.42l0.016,97.46H422.84
	c-4.994,0-9.042,4.048-9.042,9.042c0,4.995,4.048,9.042,9.042,9.042h42.57l0.017,97.388
	C465.424,363.002,465.398,363.568,465.362,364.106z"/>
<g>
</g>
<g>
</g>
<g>
</g>
<g>
</g>
<g>
</g>
<g>
</g>
<g>
</g>
<g>
</g>
<g>
</g>
<g>
</g>
<g>
</g>
<g>
</g>
<g>
</g>
<g>
</g>
<g>
</g>
</svg>
