<?xml version="1.0" encoding="iso-8859-1"?>
<!-- Generator: Adobe Illustrator 19.0.0, SVG Export Plug-In . SVG Version: 6.00 Build 0)  -->
<svg version="1.1" id="Layer_1" xmlns="http://www.w3.org/2000/svg" xmlns:xlink="http://www.w3.org/1999/xlink" x="0px" y="0px"
	 viewBox="0 0 512 512" style="enable-background:new 0 0 512 512;" xml:space="preserve">
<path style="fill:#3DB4EA;" d="M473.103,371.851c0.176-0.611,0.338-1.228,0.479-1.85c0.047-0.201,0.089-0.401,0.131-0.603
	c0.113-0.541,0.213-1.085,0.3-1.634c0.037-0.236,0.076-0.473,0.11-0.711c0.076-0.545,0.131-1.093,0.18-1.643
	c0.02-0.225,0.047-0.447,0.063-0.674c0.052-0.767,0.084-1.537,0.083-2.313l0,0l0,0v-0.006l-0.006-40.904v-0.001l-0.005-26.204
	v-0.002l-0.001-4.213l-0.004-25.574l0,0l-0.008-48.824l-0.005-26.204l-0.006-40.985c-0.001-2.996-0.409-5.93-1.161-8.75
	c-0.405-1.517-0.915-2.997-1.521-4.435c-2.477-5.877-6.574-11.016-11.924-14.74c-0.784-0.545-1.584-1.071-2.421-1.554l-22.874-13.2
	l-21.414-12.358l-17.24-9.949l-65.921-38.046L304.22,31.629l-19.288-11.132l-11.953-6.898c-10.533-6.078-23.509-6.077-34.04,0.006
	l-11.872,6.857l-19.288,11.14l-25.717,14.854l0,0l-65.915,38.07l-28.89,16.686l-21.408,12.365l-11.282,6.517
	c-0.813,0.469-1.59,0.979-2.353,1.507c-3.272,2.266-6.072,5.068-8.331,8.236c-1.517,2.128-2.781,4.423-3.774,6.841
	c-1.654,4.031-2.557,8.399-2.557,12.899l0.007,40.912l0.005,26.204l0.012,73.738l0.001,4.011v0.85v0.001v0.013l0,0v0.005l0,0
	l0.005,26.2l0,0v1.864l0.002,12.617l0.004,26.497v0.006l0,0c0.001,0.773,0.033,1.539,0.084,2.304
	c0.016,0.224,0.042,0.446,0.061,0.669c0.049,0.55,0.106,1.096,0.18,1.638c0.033,0.236,0.072,0.471,0.11,0.706
	c0.086,0.546,0.184,1.087,0.297,1.626c0.043,0.201,0.086,0.403,0.131,0.603c0.14,0.615,0.298,1.222,0.471,1.825
	c0.033,0.113,0.061,0.227,0.095,0.34c0.909,3.042,2.239,5.93,3.941,8.589v0.001l0.002,0.002c1.172,1.832,2.517,3.551,4.026,5.137
	c0.049,0.052,0.098,0.106,0.147,0.158c0.71,0.735,1.454,1.439,2.233,2.112c0.125,0.11,0.256,0.215,0.382,0.322
	c0.786,0.661,1.594,1.3,2.444,1.89c0.784,0.545,1.584,1.07,2.421,1.554l22.552,13.015l21.414,12.359l17.561,10.135l91.644,52.89
	l19.288,11.132l11.953,6.898c10.533,6.078,23.509,6.077,34.04-0.006l11.872-6.857l19.288-11.14l25.717-14.853l55.554-32.086
	l10.363-5.985l26.36-15.225l21.408-12.365l13.813-7.978c0.813-0.469,1.59-0.979,2.352-1.507c0.851-0.59,1.66-1.226,2.446-1.883
	c0.129-0.107,0.259-0.213,0.386-0.322c0.779-0.673,1.526-1.375,2.236-2.11c0.046-0.048,0.09-0.098,0.136-0.146
	c3.725-3.891,6.475-8.609,8.019-13.765C473.045,372.067,473.073,371.958,473.103,371.851z"/>
<g>
	<path style="fill:#FFE000;" d="M37.584,362.489v0.006l0,0c0.001,0.773,0.033,1.539,0.084,2.304
		c0.016,0.225,0.042,0.446,0.061,0.669c0.049,0.55,0.106,1.096,0.18,1.638c0.033,0.236,0.072,0.471,0.11,0.706
		c0.086,0.546,0.184,1.087,0.297,1.626c0.042,0.201,0.086,0.403,0.131,0.603c0.14,0.615,0.298,1.222,0.471,1.825
		c0.033,0.113,0.061,0.227,0.095,0.34c0.909,3.042,2.239,5.93,3.94,8.589l0.001,0.001l0.002,0.002
		c0.125,0.198,0.276,0.379,0.407,0.575H468.66c1.898-2.825,3.371-5.923,4.352-9.201c0.033-0.106,0.06-0.215,0.09-0.322
		c0.176-0.611,0.338-1.228,0.479-1.85c0.047-0.201,0.089-0.401,0.131-0.603c0.113-0.541,0.213-1.085,0.3-1.633
		c0.037-0.236,0.076-0.473,0.11-0.711c0.076-0.545,0.131-1.093,0.18-1.643c0.02-0.225,0.046-0.447,0.063-0.674
		c0.052-0.767,0.083-1.537,0.083-2.313l0,0v-0.006v-2.741H37.584V362.489z"/>
	<polygon style="fill:#FFE000;" points="474.444,321.512 474.444,321.511 474.443,316.275 37.577,316.275 37.578,321.511 
		37.578,321.512 37.578,323.375 37.581,335.992 37.581,337.975 474.447,337.975 	"/>
</g>
<polygon style="fill:#ED1F34;" points="140.269,123.392 156.71,173.256 206.573,189.696 156.71,206.137 140.269,255.999 
	123.83,206.137 73.966,189.696 123.83,173.256 "/>
<path style="fill:#FFFFFF;" d="M140.269,265.041c-3.902,0-7.365-2.504-8.587-6.21l-15.014-45.535l-45.534-15.014
	c-3.706-1.222-6.21-4.685-6.21-8.587s2.504-7.365,6.21-8.587l45.534-15.012l15.014-45.535c1.222-3.706,4.685-6.21,8.587-6.21
	s7.365,2.504,8.587,6.21l15.014,45.535l45.534,15.014c3.706,1.222,6.21,4.685,6.21,8.587s-2.504,7.365-6.21,8.587l-45.534,15.014
	l-15.014,45.535C147.635,262.537,144.173,265.041,140.269,265.041z M102.84,189.696l23.821,7.854
	c2.722,0.898,4.857,3.033,5.755,5.755l7.854,23.82l7.854-23.82c0.898-2.722,3.034-4.858,5.755-5.755l23.821-7.854l-23.821-7.854
	c-2.722-0.898-4.857-3.033-5.755-5.755l-7.854-23.82l-7.854,23.82c-0.898,2.722-3.034,4.858-5.755,5.755L102.84,189.696z"/>
<path d="M256.036,512L256.036,512c-7.55,0-14.995-1.995-21.534-5.768L50.091,399.803c-0.975-0.563-1.947-1.186-3.062-1.96
	c-0.986-0.687-1.999-1.468-3.097-2.391l-0.481-0.405c-0.984-0.851-1.934-1.75-2.826-2.675c-0.047-0.049-0.169-0.178-0.215-0.228
	c-1.838-1.931-3.529-4.079-4.998-6.363c-0.025-0.039-0.049-0.076-0.075-0.113c-2.165-3.388-3.843-7.045-4.986-10.874
	c-0.031-0.105-0.075-0.254-0.115-0.403c-0.227-0.796-0.427-1.564-0.604-2.341c-0.054-0.237-0.108-0.492-0.163-0.745
	c-0.146-0.697-0.272-1.388-0.382-2.084c-0.055-0.35-0.096-0.606-0.133-0.866c-0.096-0.71-0.17-1.401-0.229-2.094l-0.013-0.127
	c-0.025-0.24-0.047-0.48-0.064-0.721c-0.071-1.036-0.105-1.99-0.105-2.917l-0.036-212.917c0-5.608,1.087-11.103,3.234-16.332
	c1.26-3.066,2.866-5.977,4.776-8.658c2.913-4.083,6.459-7.589,10.545-10.419c1.093-0.757,2.041-1.362,2.985-1.907L234.417,5.776
	C240.959,1.998,248.411,0,255.964,0c7.55,0,14.995,1.995,21.534,5.768l184.411,106.429c0.98,0.565,1.953,1.189,3.066,1.964
	c6.692,4.656,11.911,11.104,15.091,18.646c0.778,1.846,1.425,3.736,1.928,5.623c0.97,3.638,1.464,7.366,1.464,11.075l0.035,212.91
	c0.001,0.911-0.033,1.872-0.105,2.931c-0.016,0.241-0.037,0.48-0.063,0.72l-0.014,0.145c-0.06,0.685-0.134,1.377-0.227,2.063
	c-0.039,0.276-0.078,0.532-0.119,0.787l-0.02,0.121c-0.111,0.696-0.236,1.384-0.379,2.067c-0.055,0.262-0.11,0.515-0.168,0.769
	c-0.181,0.792-0.385,1.572-0.609,2.345c-0.039,0.148-0.087,0.318-0.14,0.486c-1.92,6.413-5.43,12.439-10.124,17.344l-0.153,0.162
	c-0.911,0.941-1.864,1.84-2.85,2.689l-0.475,0.398c-1.11,0.928-2.123,1.706-3.107,2.388c-1.096,0.758-2.043,1.363-2.987,1.908
	l-184.37,106.487C271.041,510.002,263.589,512,256.036,512z M50.602,375.97c0.857,1.335,1.842,2.588,2.929,3.73
	c0.034,0.035,0.139,0.148,0.172,0.183c0.452,0.469,1.004,0.992,1.577,1.486l0.262,0.217c0.706,0.593,1.277,1.036,1.814,1.41
	c0.686,0.477,1.251,0.841,1.777,1.144l184.41,106.428c3.793,2.189,8.114,3.347,12.495,3.347c4.383,0,8.707-1.159,12.504-3.351
	l184.371-106.488c0.509-0.294,1.057-0.646,1.731-1.111c0.528-0.365,1.115-0.82,1.79-1.384l0.286-0.239
	c0.573-0.493,1.126-1.014,1.639-1.546l0.083-0.09c2.738-2.862,4.774-6.351,5.902-10.109l0.061-0.224
	c0.139-0.48,0.258-0.932,0.363-1.389l0.095-0.441c0.081-0.392,0.156-0.793,0.219-1.197l0.082-0.53
	c0.053-0.383,0.094-0.788,0.129-1.195l0.051-0.52c0.036-0.533,0.063-1.096,0.061-1.662l-0.035-212.93
	c0-2.137-0.287-4.296-0.854-6.421c-0.291-1.09-0.667-2.186-1.119-3.26c-1.847-4.378-4.875-8.124-8.756-10.824
	c-0.686-0.477-1.25-0.841-1.777-1.145L268.46,21.429c-3.794-2.188-8.114-3.347-12.495-3.347c-4.383,0-8.707,1.16-12.504,3.351
	L59.087,127.924c-0.509,0.294-1.057,0.646-1.731,1.111c-2.36,1.635-4.418,3.672-6.114,6.05c-1.107,1.553-2.04,3.245-2.773,5.028
	c-1.247,3.038-1.879,6.223-1.879,9.463l0.036,212.909c0,0.576,0.025,1.139,0.063,1.7l0.047,0.475
	c0.037,0.418,0.077,0.822,0.131,1.221l0.078,0.5c0.066,0.417,0.137,0.809,0.219,1.198l0.094,0.436
	c0.107,0.467,0.223,0.914,0.351,1.357l0.075,0.269c0.655,2.192,1.629,4.313,2.887,6.28C50.581,375.939,50.591,375.955,50.602,375.97
	z"/>
<g>
</g>
<g>
</g>
<g>
</g>
<g>
</g>
<g>
</g>
<g>
</g>
<g>
</g>
<g>
</g>
<g>
</g>
<g>
</g>
<g>
</g>
<g>
</g>
<g>
</g>
<g>
</g>
<g>
</g>
</svg>
