<?xml version="1.0" encoding="iso-8859-1"?>
<!-- Generator: Adobe Illustrator 19.0.0, SVG Export Plug-In . SVG Version: 6.00 Build 0)  -->
<svg version="1.1" id="Layer_1" xmlns="http://www.w3.org/2000/svg" xmlns:xlink="http://www.w3.org/1999/xlink" x="0px" y="0px"
	 viewBox="0 0 512 512" style="enable-background:new 0 0 512 512;" xml:space="preserve">
<path style="fill:#259245;" d="M473.103,371.851c0.176-0.611,0.336-1.228,0.479-1.85c0.046-0.201,0.089-0.401,0.131-0.603
	c0.113-0.541,0.213-1.085,0.3-1.634c0.037-0.237,0.076-0.474,0.11-0.711c0.075-0.545,0.131-1.093,0.18-1.643
	c0.021-0.225,0.047-0.448,0.063-0.674c0.052-0.767,0.084-1.537,0.084-2.313l0,0l0,0v-0.006l-0.006-40.904v-0.001l-0.005-26.204
	v-0.002v-4.213l-0.004-25.574l0,0l-0.008-48.824l-0.005-26.204l-0.006-40.985c0-2.996-0.407-5.93-1.16-8.75
	c-0.405-1.517-0.915-2.997-1.521-4.435c-2.477-5.877-6.574-11.016-11.925-14.74c-0.784-0.545-1.584-1.071-2.419-1.554l-22.874-13.2
	l-21.414-12.358l-17.239-9.949l-65.926-38.046L304.22,31.629l-19.288-11.132l-11.953-6.898c-10.533-6.078-23.509-6.077-34.04,0.006
	l-11.872,6.857l-19.288,11.14l-25.717,14.854l0,0l-65.918,38.07l-28.889,16.686l-21.406,12.365l-11.284,6.517
	c-0.811,0.469-1.59,0.979-2.353,1.507c-3.272,2.266-6.073,5.068-8.333,8.236c-1.517,2.128-2.781,4.423-3.773,6.841
	c-1.655,4.031-2.558,8.399-2.557,12.899l0.006,40.912l0.005,26.204l0.012,73.738v4.011v0.85v0.001v0.013l0,0v0.005l0,0l0.005,26.2
	v0.001v1.863l0.002,12.617l0.004,26.497v0.006l0,0c0,0.773,0.033,1.539,0.084,2.304c0.016,0.224,0.042,0.446,0.061,0.669
	c0.048,0.55,0.105,1.096,0.18,1.638c0.033,0.236,0.072,0.471,0.108,0.706c0.087,0.546,0.186,1.087,0.298,1.626
	c0.042,0.201,0.086,0.403,0.131,0.603c0.14,0.615,0.298,1.222,0.471,1.825c0.033,0.113,0.061,0.227,0.095,0.34
	c0.909,3.043,2.24,5.93,3.94,8.589c0,0,0.001,0.001,0.001,0.002l0.001,0.001c1.172,1.832,2.517,3.551,4.025,5.137
	c0.051,0.052,0.099,0.106,0.148,0.158c0.709,0.735,1.454,1.439,2.231,2.112c0.125,0.11,0.254,0.215,0.382,0.322
	c0.786,0.661,1.595,1.3,2.445,1.89c0.784,0.545,1.584,1.071,2.419,1.554l22.552,13.015l21.414,12.359l17.561,10.135l91.644,52.89
	l19.288,11.132l11.953,6.898c10.533,6.078,23.509,6.077,34.04-0.006l11.872-6.857l19.288-11.14l25.717-14.853l55.554-32.086
	l10.363-5.985l26.36-15.225l21.408-12.365l13.813-7.978c0.811-0.469,1.59-0.979,2.353-1.507c0.851-0.59,1.659-1.226,2.446-1.883
	c0.128-0.107,0.258-0.213,0.385-0.322c0.78-0.673,1.526-1.375,2.237-2.11c0.047-0.048,0.09-0.098,0.136-0.146
	c3.724-3.891,6.476-8.609,8.02-13.765C473.044,372.067,473.071,371.958,473.103,371.851z"/>
<path style="fill:#FFFFFF;" d="M357.598,328.042v9.737c0,4.993-4.048,9.041-9.041,9.041c-4.993,0-9.041-4.048-9.041-9.041v-0.696
	h-7.844v8.973c0,4.993-4.048,9.041-9.041,9.041s-9.041-4.048-9.041-9.041v-8.973H163.454c-4.993,0-9.041-4.048-9.041-9.041
	c0-4.993,4.048-9.041,9.041-9.041h150.134v-8.973c0-4.993,4.048-9.041,9.041-9.041s9.041,4.048,9.041,9.041v8.973h16.886
	C353.55,319.001,357.598,323.049,357.598,328.042z M203.732,204.995c4.993,0,9.041-4.048,9.041-9.041v-33.79
	c0-4.993-4.048-9.041-9.041-9.041c-4.993,0-9.041,4.048-9.041,9.041v33.79C194.69,200.947,198.738,204.995,203.732,204.995z
	 M183.175,232.404h20.557c4.993,0,9.041-4.048,9.041-9.041s-4.048-9.041-9.041-9.041h-19.879v-52.157
	c0-4.993-4.048-9.041-9.041-9.041c-4.993,0-9.041,4.048-9.041,9.041v63.456c0,8.883-7.227,16.111-16.109,16.111
	c-0.364,0-0.727,0.022-1.085,0.065c-3.905-0.285-7.528-1.957-10.296-4.774c-3.5-3.561-9.223-3.611-12.786-0.111
	c-3.561,3.5-3.611,9.225-0.111,12.786c6.403,6.513,14.957,10.144,24.09,10.223c0.027,0,0.052,0,0.078,0
	c0.533,0,1.061-0.047,1.579-0.139C167.006,259.107,180.113,247.555,183.175,232.404z M380.167,153.123
	c-4.993,0-9.041,4.048-9.041,9.041v63.456c0,8.883-7.227,16.111-16.109,16.111c-2.372,0-4.65,0.932-6.341,2.597l-0.108,0.107
	c-3.56,3.502-3.607,9.226-0.104,12.786c1.77,1.799,4.107,2.7,6.446,2.7c0.529,0,1.06-0.047,1.584-0.139
	c18.173-0.775,32.718-15.801,32.718-34.162v-63.456C389.208,157.171,385.161,153.123,380.167,153.123z M232.652,193.359
	c5.802,0,11.397-1.929,16.108-5.401c4.711,3.472,10.301,5.401,16.099,5.401c5.797,0,11.39-1.93,16.103-5.404
	c4.712,3.474,10.305,5.404,16.103,5.404c4.993,0,9.041-4.048,9.041-9.041c0-4.993-4.048-9.041-9.041-9.041
	c-3.257,0-6.349-1.914-8.483-5.252c-1.66-2.598-4.532-4.17-7.614-4.171c-0.001,0-0.001,0-0.002,0c-3.083,0-5.953,1.571-7.614,4.166
	c-2.139,3.34-5.234,5.257-8.492,5.257s-6.348-1.914-8.482-5.252c-1.661-2.599-4.533-4.171-7.618-4.171c0,0-0.001,0-0.002,0
	c-3.086,0.001-5.958,1.576-7.618,4.176c-2.129,3.336-5.222,5.248-8.486,5.248c-4.993,0-9.041,4.048-9.041,9.041
	C223.613,189.311,227.659,193.359,232.652,193.359z M325.987,259.921c4.993,0,9.041-4.048,9.041-9.041v-84.771
	c0-4.993-4.048-9.041-9.041-9.041c-4.993,0-9.041,4.048-9.041,9.041v84.771C316.946,255.873,320.994,259.921,325.987,259.921z
	 M297.065,222.28c4.993,0,9.041-4.048,9.041-9.041c0-4.993-4.048-9.041-9.041-9.041h-43.381c-4.993,0-9.041,4.048-9.041,9.041
	v12.382c0,8.883-7.227,16.111-16.109,16.111c-0.457,0-0.91,0.035-1.356,0.102l-23.408-0.102c-0.013,0-0.027,0-0.04,0
	c-4.974,0-9.019,4.022-9.041,9.002c-0.022,4.993,4.008,9.059,9.002,9.081l24.693,0.107c0.013,0,0.027,0,0.04,0
	c0.533,0,1.061-0.047,1.579-0.139c9.352-0.398,17.738-4.576,23.681-11.035c5.942,6.457,14.325,10.635,23.675,11.035
	c0.524,0.093,1.055,0.139,1.584,0.139c2.33,0,4.661-0.896,6.429-2.683c3.512-3.55,3.48-9.274-0.07-12.786l-0.108-0.107
	c-1.693-1.674-3.977-2.614-6.358-2.614c-8.883,0-16.111-7.227-16.111-16.111v-3.34H297.065z M352.278,193.359
	c4.993,0,9.041-4.048,9.041-9.041v-18.209c0-4.993-4.048-9.041-9.041-9.041s-9.041,4.048-9.041,9.041v18.209
	C343.237,189.311,347.285,193.359,352.278,193.359z M145.891,222.28c4.993,0,9.041-4.048,9.041-9.041v-51.074
	c0-4.993-4.048-9.041-9.041-9.041s-9.041,4.048-9.041,9.041v51.074C136.849,218.232,140.896,222.28,145.891,222.28z"/>
<path d="M256.034,512L256.034,512c-7.55,0-14.995-1.995-21.534-5.768L50.089,399.803c-0.978-0.564-1.951-1.187-3.064-1.963
	c-0.985-0.686-1.999-1.467-3.096-2.389l-0.481-0.405c-0.99-0.857-1.938-1.756-2.827-2.677c-0.04-0.042-0.154-0.163-0.194-0.205
	c-1.876-1.97-3.578-4.139-5.054-6.44c-0.012-0.019-0.025-0.039-0.037-0.058c-2.164-3.385-3.842-7.043-4.985-10.871l-0.112-0.392
	c-0.23-0.805-0.429-1.573-0.606-2.348c-0.057-0.247-0.111-0.501-0.164-0.757c-0.145-0.691-0.27-1.377-0.379-2.066l-0.025-0.158
	c-0.039-0.239-0.076-0.476-0.108-0.716c-0.098-0.71-0.171-1.402-0.231-2.096l-0.014-0.143c-0.024-0.234-0.046-0.467-0.061-0.703
	c-0.071-1.043-0.105-1.996-0.105-2.917l-0.035-212.917c0-5.608,1.087-11.103,3.234-16.334c1.256-3.062,2.863-5.975,4.775-8.657
	c2.913-4.084,6.46-7.589,10.546-10.419c1.089-0.753,2.034-1.357,2.979-1.904L234.417,5.776C240.958,1.998,248.409,0,255.963,0
	c7.549,0,14.995,1.995,21.534,5.768l184.41,106.429c0.974,0.562,1.947,1.185,3.062,1.96c6.698,4.661,11.917,11.109,15.096,18.652
	c0.77,1.828,1.419,3.717,1.925,5.614c0.972,3.642,1.465,7.369,1.466,11.08l0.035,212.912c0,0.931-0.034,1.887-0.105,2.931
	c-0.017,0.241-0.039,0.48-0.063,0.72l-0.014,0.145c-0.06,0.687-0.134,1.382-0.228,2.072c-0.037,0.269-0.077,0.523-0.118,0.776
	l-0.021,0.123c-0.11,0.696-0.236,1.384-0.38,2.067l-0.168,0.769c-0.181,0.79-0.383,1.57-0.606,2.344l-0.113,0.398
	c-1.947,6.501-5.457,12.527-10.152,17.432l-0.194,0.205c-0.868,0.897-1.82,1.795-2.81,2.647l-0.381,0.321
	c-0.005,0.004-0.101,0.084-0.106,0.088c-1.098,0.919-2.112,1.697-3.099,2.381c-1.084,0.751-2.03,1.355-2.979,1.904L277.581,506.225
	C271.039,510.002,263.588,512,256.034,512z M50.541,375.879c0.011,0.017,0.022,0.034,0.033,0.051
	c0.862,1.349,1.857,2.618,2.956,3.773c0.027,0.028,0.128,0.136,0.154,0.164c0.468,0.485,1.02,1.008,1.596,1.507l0.288,0.24
	c0.674,0.565,1.244,1.008,1.783,1.383c0.687,0.479,1.253,0.843,1.778,1.146l184.408,106.428c3.794,2.189,8.114,3.346,12.495,3.346
	c4.383,0,8.707-1.158,12.504-3.351l184.375-106.49c0.51-0.295,1.058-0.647,1.728-1.109c0.541-0.375,1.11-0.815,1.794-1.386
	l0.272-0.227c0.588-0.508,1.142-1.028,1.654-1.558l0.083-0.09c2.744-2.867,4.78-6.362,5.908-10.126l0.071-0.254
	c0.125-0.432,0.242-0.885,0.347-1.343l0.089-0.411c0.088-0.422,0.163-0.823,0.227-1.227l0.083-0.533
	c0.053-0.386,0.094-0.788,0.129-1.192l0.051-0.52c0.036-0.538,0.061-1.105,0.061-1.677l-0.035-212.917
	c0-2.137-0.288-4.298-0.854-6.419c-0.292-1.095-0.668-2.189-1.116-3.254c-1.849-4.386-4.876-8.13-8.758-10.83
	c-0.687-0.477-1.253-0.841-1.778-1.145L268.46,21.429c-3.795-2.189-8.116-3.347-12.496-3.347c-4.383,0-8.707,1.159-12.504,3.351
	L59.085,127.924c-0.509,0.294-1.058,0.647-1.73,1.111c-2.36,1.635-4.419,3.672-6.116,6.05c-1.107,1.554-2.04,3.244-2.77,5.025
	c-1.248,3.04-1.881,6.227-1.881,9.466l0.035,212.912c0,0.575,0.025,1.138,0.064,1.7l0.048,0.495c0.035,0.399,0.076,0.802,0.13,1.201
	l0.082,0.523c0.061,0.392,0.134,0.79,0.217,1.185l0.093,0.432c0.105,0.459,0.223,0.907,0.35,1.353l0.066,0.239
	C48.333,371.819,49.297,373.923,50.541,375.879z"/>
<g>
</g>
<g>
</g>
<g>
</g>
<g>
</g>
<g>
</g>
<g>
</g>
<g>
</g>
<g>
</g>
<g>
</g>
<g>
</g>
<g>
</g>
<g>
</g>
<g>
</g>
<g>
</g>
<g>
</g>
</svg>
