<?xml version="1.0" encoding="iso-8859-1"?>
<!-- Generator: Adobe Illustrator 19.0.0, SVG Export Plug-In . SVG Version: 6.00 Build 0)  -->
<svg version="1.1" id="Layer_1" xmlns="http://www.w3.org/2000/svg" xmlns:xlink="http://www.w3.org/1999/xlink" x="0px" y="0px"
	 viewBox="0 0 512 512" style="enable-background:new 0 0 512 512;" xml:space="preserve">
<path style="fill:#FFFFFF;" d="M473.103,371.851c0.176-0.611,0.338-1.227,0.479-1.849c0.047-0.201,0.089-0.401,0.131-0.603
	c0.113-0.541,0.213-1.085,0.3-1.634c0.037-0.237,0.076-0.474,0.11-0.711c0.076-0.545,0.131-1.093,0.18-1.644
	c0.02-0.225,0.047-0.448,0.063-0.674c0.052-0.767,0.084-1.537,0.083-2.313l0,0l0,0v-0.006l-0.006-40.904v-0.001l-0.005-26.204
	v-0.002l-0.001-4.213l-0.004-25.574l0,0l-0.008-48.824l-0.005-26.204l-0.006-40.985c-0.001-2.996-0.409-5.93-1.161-8.75
	c-0.405-1.517-0.915-2.997-1.521-4.435c-2.477-5.877-6.574-11.016-11.924-14.74c-0.784-0.545-1.584-1.071-2.421-1.554l-22.874-13.2
	l-21.414-12.358l-17.24-9.949l-65.921-38.046L304.22,31.629l-19.288-11.132l-11.953-6.898c-10.533-6.078-23.509-6.077-34.04,0.006
	l-11.872,6.857l-19.288,11.14l-25.717,14.854l0,0l-65.915,38.07l-28.89,16.686l-21.408,12.365l-11.282,6.517
	c-0.813,0.469-1.59,0.979-2.353,1.507c-3.272,2.266-6.072,5.068-8.331,8.236c-1.517,2.128-2.781,4.423-3.774,6.841
	c-1.654,4.031-2.557,8.399-2.557,12.899l0.007,40.912l0.005,26.204l0.012,73.738l0.001,4.011v0.85v0.001v0.013l0,0v0.005l0,0
	l0.005,26.2v0.001v1.863l0.002,12.617l0.004,26.497v0.006l0,0c0.001,0.773,0.033,1.539,0.084,2.305
	c0.016,0.224,0.042,0.445,0.061,0.668c0.049,0.55,0.106,1.096,0.18,1.638c0.033,0.236,0.072,0.471,0.11,0.706
	c0.086,0.545,0.184,1.087,0.297,1.625c0.043,0.201,0.086,0.403,0.131,0.603c0.14,0.614,0.298,1.221,0.471,1.825
	c0.033,0.113,0.061,0.227,0.095,0.34c0.909,3.043,2.239,5.929,3.941,8.589v0.001l0.002,0.002c1.172,1.831,2.517,3.551,4.026,5.137
	c0.049,0.052,0.098,0.106,0.147,0.158c0.71,0.735,1.454,1.439,2.233,2.113c0.125,0.108,0.256,0.213,0.382,0.321
	c0.786,0.661,1.594,1.3,2.444,1.89c0.784,0.545,1.584,1.07,2.421,1.554l22.552,13.015l21.414,12.359l17.561,10.135l91.644,52.89
	l19.288,11.132l11.953,6.898c10.533,6.078,23.509,6.077,34.04-0.006l11.872-6.857l19.288-11.14l25.717-14.853l55.554-32.086
	l10.363-5.985l26.36-15.225l21.408-12.365l13.813-7.978c0.813-0.469,1.59-0.979,2.352-1.507c0.851-0.59,1.66-1.226,2.446-1.883
	c0.129-0.107,0.259-0.213,0.386-0.323c0.779-0.672,1.526-1.374,2.236-2.11c0.046-0.048,0.09-0.098,0.136-0.146
	c3.725-3.891,6.475-8.609,8.019-13.766C473.045,372.067,473.073,371.957,473.103,371.851z"/>
<path style="fill:#164FCE;" d="M206.66,193.52v42.679v19.825c0,8.664,1.302,16.243,3.492,22.864
	c11.229,34.125,45.847,42.68,45.847,42.68s34.618-8.556,45.847-42.68c2.19-6.621,3.494-14.2,3.494-22.864v-19.825V193.52H206.66z"/>
<path style="fill:#ED1F34;" d="M305.341,236.199v19.825c0,8.665-1.303,16.243-3.494,22.865h-91.695
	c-2.19-6.622-3.492-14.2-3.492-22.865v-19.825H305.341z"/>
<g>
	<path style="fill:#FFE000;" d="M255.999,151.087c-20.713,0-40.662,3.26-59.367,9.292c0,0.001,10.026,33.141,10.026,33.141h98.681
		l10.025-33.14C296.662,154.346,276.713,151.087,255.999,151.087z"/>
	<path style="fill:#FFE000;" d="M342.499,348.718l-13.768-27.072c-1.466-2.881-4.358-4.761-7.585-4.931
		c-3.226-0.174-6.302,1.397-8.06,4.11c-12.61,19.44-33.95,31.047-57.086,31.047s-44.478-11.607-57.086-31.047
		c-1.758-2.712-4.818-4.277-8.06-4.11c-3.227,0.17-6.119,2.049-7.585,4.931L169.5,348.718c-2.263,4.451-0.489,9.895,3.961,12.158
		c4.45,2.265,9.894,0.491,12.158-3.96l7.332-14.418c16.144,17.404,38.817,27.458,63.049,27.458s46.904-10.054,63.049-27.458
		l7.332,14.418c2.265,4.451,7.709,6.225,12.158,3.96C342.99,358.612,344.762,353.169,342.499,348.718z"/>
</g>
<path d="M321.465,171.443c3.656-0.055,7.066-2.333,8.375-5.977c1.688-4.699-0.753-9.877-5.453-11.565
	c-2.037-0.732-4.088-1.419-6.145-2.083c-0.087-0.029-0.17-0.066-0.258-0.093c-0.041-0.012-0.082-0.019-0.123-0.03
	c-19.933-6.399-40.709-9.649-61.862-9.649s-41.929,3.251-61.862,9.649c-0.04,0.012-0.082,0.018-0.123,0.03
	c-0.088,0.027-0.171,0.063-0.258,0.093c-2.057,0.664-4.107,1.351-6.145,2.083c-4.699,1.688-7.141,6.865-5.453,11.565
	c1.31,3.645,4.718,5.922,8.374,5.977l7.085,23.415v61.169c0,9.686,1.478,18.158,3.895,25.537c0.004,0.01,0.006,0.019,0.01,0.028
	c5.369,16.361,15.375,27.353,24.212,34.315c13.709,10.8,27.515,14.297,28.096,14.441c0.712,0.176,1.441,0.264,2.17,0.264
	c0.729,0,1.457-0.088,2.17-0.264c0.58-0.143,14.387-3.641,28.096-14.441c8.836-6.962,18.842-17.954,24.212-34.315
	c0.002-0.01,0.006-0.019,0.01-0.028c2.418-7.38,3.895-15.85,3.895-25.537v-61.169L321.465,171.443z M227.143,162.381l2.228,22.095
	H213.37l-5.447-18.004C214.251,164.764,220.663,163.4,227.143,162.381z M304.077,166.471l-5.447,18.004h-16.039l2.229-22.101
	C291.313,163.395,297.737,164.761,304.077,166.471z M272.533,202.557c0.024,0,0.047,0.004,0.071,0.004
	c0.025,0,0.049-0.004,0.076-0.004h23.62v24.6h-80.597v-24.6h23.584c0.025,0,0.048,0.004,0.075,0.004c0.023,0,0.047-0.004,0.07-0.004
	H272.533z M215.701,256.027V245.24h80.597v10.787c0,5.017-0.5,9.613-1.389,13.82h-77.82
	C216.202,265.64,215.701,261.044,215.701,256.027z M266.842,160.45l-2.423,24.026h-16.874l-2.423-24.024
	c3.612-0.21,7.238-0.324,10.877-0.324C259.627,160.128,263.241,160.241,266.842,160.45z M255.999,312.137
	c-5.832-1.945-21.623-8.443-31.618-24.207h63.236C277.623,303.693,261.832,310.194,255.999,312.137z M185.945,213.17
	c2.424-4.365,0.852-9.87-3.513-12.294l-33.205-18.447c-3.441-1.911-7.723-1.379-10.589,1.321c-2.866,2.698-3.656,6.94-1.955,10.489
	l18.523,38.657c-12.575-0.375-22.695-10.699-22.695-23.368c0-4.993-4.047-9.041-9.041-9.041H80.607H62.159
	c-4.994,0-9.041,4.048-9.041,9.041c0,4.993,4.047,9.041,9.041,9.041h9.888c3.167,29.919,21.907,55.69,49.336,67.921l-14.774,35.808
	c-1.151,2.788-0.834,5.969,0.843,8.476c1.679,2.509,4.497,4.013,7.514,4.013h40.938c4.994,0,9.041-4.048,9.041-9.041v-30.713
	c12.93-4.051,22.136-16.032,22.136-30.316c0-5.783-1.515-11.184-4.167-15.839l-17.661-36.861l8.396,4.665
	C178.018,219.108,183.519,217.535,185.945,213.17z M155.665,278.415c-4.898,0.13-8.801,4.139-8.801,9.039v29.253h-18.385
	l13.165-31.911c0.967-2.342,0.907-4.982-0.168-7.278c-1.074-2.295-3.061-4.035-5.478-4.796
	c-24.806-7.802-42.329-28.955-45.742-54.151h25.164c4.125,18.499,20.637,32.377,40.343,32.444
	c7.431,0.25,13.237,6.249,13.237,13.703C168.999,272.199,163.142,278.216,155.665,278.415z M449.84,200.488h-18.448h-42.862
	c-4.994,0-9.041,4.048-9.041,9.041c0,12.668-10.122,22.993-22.695,23.368l18.523-38.657c1.701-3.549,0.91-7.791-1.955-10.489
	c-2.867-2.698-7.148-3.232-10.589-1.321l-33.205,18.447c-4.365,2.425-5.937,7.93-3.513,12.294c2.427,4.365,7.929,5.94,12.295,3.513
	l8.396-4.665l-17.662,36.861c-2.652,4.654-4.166,10.055-4.166,15.839c0,14.284,9.207,26.267,22.136,30.316v30.713
	c0,4.993,4.047,9.041,9.041,9.041h40.938c0.01,0,0.019,0,0.024,0c4.994,0,9.041-4.048,9.041-9.041c0-1.456-0.344-2.833-0.956-4.052
	l-14.525-35.204c27.429-12.231,46.169-38.003,49.336-67.921h9.888c4.994,0,9.041-4.048,9.041-9.041
	C458.881,204.536,454.834,200.488,449.84,200.488z M376,272.722c-2.417,0.759-4.404,2.5-5.478,4.796
	c-1.074,2.295-1.133,4.935-0.168,7.278l13.165,31.911h-18.385v-29.253c0-4.899-3.902-8.908-8.801-9.039
	c-7.477-0.199-13.335-6.216-13.335-13.697c0-7.454,5.806-13.455,13.237-13.703c19.705-0.066,36.217-13.945,40.343-32.444h25.164
	C418.331,243.766,400.808,264.919,376,272.722z M256.036,512L256.036,512c-7.55,0-14.995-1.995-21.534-5.768L50.091,399.803
	c-0.975-0.563-1.947-1.186-3.062-1.96c-0.986-0.687-1.999-1.468-3.097-2.391l-0.481-0.405c-0.984-0.851-1.934-1.75-2.826-2.675
	c-0.047-0.049-0.169-0.178-0.215-0.228c-1.838-1.931-3.529-4.079-4.998-6.363c-0.025-0.039-0.049-0.076-0.075-0.115
	c-2.165-3.388-3.843-7.045-4.986-10.873c-0.031-0.105-0.075-0.254-0.115-0.403c-0.227-0.796-0.427-1.564-0.604-2.341
	c-0.054-0.237-0.108-0.492-0.163-0.745c-0.146-0.697-0.272-1.388-0.382-2.084c-0.055-0.351-0.096-0.606-0.133-0.866
	c-0.096-0.71-0.17-1.401-0.229-2.094l-0.013-0.127c-0.025-0.24-0.047-0.48-0.064-0.721c-0.071-1.036-0.105-1.99-0.105-2.917
	l-0.036-212.917c0-5.608,1.087-11.103,3.234-16.332c1.26-3.066,2.866-5.977,4.776-8.658c2.913-4.083,6.459-7.589,10.545-10.419
	c1.093-0.757,2.041-1.362,2.985-1.907L234.417,5.776C240.959,1.998,248.411,0,255.964,0c7.55,0,14.995,1.995,21.534,5.768
	l184.411,106.429c0.98,0.565,1.953,1.189,3.066,1.964c6.692,4.656,11.911,11.104,15.091,18.646c0.778,1.846,1.425,3.736,1.928,5.623
	c0.97,3.638,1.464,7.366,1.464,11.075l0.035,212.91c0.001,0.911-0.033,1.872-0.105,2.931c-0.016,0.241-0.037,0.48-0.063,0.72
	l-0.014,0.145c-0.06,0.685-0.134,1.377-0.227,2.063c-0.039,0.276-0.078,0.532-0.119,0.787l-0.02,0.121
	c-0.111,0.696-0.236,1.384-0.379,2.067c-0.055,0.262-0.11,0.515-0.168,0.769c-0.181,0.791-0.385,1.572-0.609,2.345
	c-0.039,0.148-0.087,0.318-0.14,0.486c-1.92,6.413-5.43,12.439-10.124,17.344l-0.153,0.162c-0.911,0.941-1.864,1.84-2.85,2.689
	l-0.475,0.398c-1.11,0.928-2.123,1.706-3.107,2.388c-1.096,0.758-2.043,1.363-2.987,1.908l-184.37,106.487
	C271.041,510.002,263.589,512,256.036,512z M50.602,375.97c0.857,1.335,1.842,2.588,2.929,3.73c0.034,0.035,0.139,0.148,0.172,0.183
	c0.452,0.469,1.004,0.992,1.577,1.486l0.262,0.217c0.706,0.593,1.277,1.036,1.814,1.41c0.686,0.477,1.251,0.841,1.777,1.144
	l184.41,106.428c3.793,2.189,8.114,3.347,12.495,3.347c4.383,0,8.707-1.159,12.504-3.351l184.371-106.488
	c0.509-0.294,1.057-0.646,1.731-1.111c0.528-0.365,1.115-0.82,1.79-1.384l0.286-0.239c0.573-0.493,1.126-1.014,1.639-1.546
	l0.083-0.09c2.738-2.862,4.774-6.351,5.902-10.109l0.061-0.224c0.139-0.48,0.258-0.932,0.363-1.389l0.095-0.441
	c0.081-0.392,0.156-0.793,0.219-1.197l0.082-0.53c0.053-0.383,0.094-0.788,0.129-1.195l0.051-0.52
	c0.036-0.533,0.063-1.096,0.061-1.662l-0.035-212.93c0-2.137-0.287-4.296-0.854-6.421c-0.291-1.09-0.667-2.186-1.119-3.26
	c-1.847-4.378-4.875-8.124-8.756-10.824c-0.686-0.477-1.25-0.841-1.777-1.145L268.46,21.429c-3.794-2.189-8.114-3.347-12.495-3.347
	c-4.383,0-8.707,1.159-12.504,3.351L59.087,127.924c-0.509,0.294-1.057,0.646-1.731,1.111c-2.36,1.635-4.418,3.672-6.114,6.05
	c-1.107,1.553-2.04,3.245-2.773,5.028c-1.247,3.038-1.879,6.223-1.879,9.463l0.036,212.909c0,0.576,0.025,1.139,0.063,1.7
	l0.047,0.475c0.037,0.418,0.077,0.822,0.131,1.221l0.078,0.5c0.066,0.417,0.137,0.809,0.219,1.198l0.094,0.436
	c0.107,0.467,0.223,0.914,0.351,1.357l0.075,0.268c0.655,2.193,1.629,4.313,2.887,6.28C50.581,375.939,50.591,375.955,50.602,375.97
	z"/>
<g>
</g>
<g>
</g>
<g>
</g>
<g>
</g>
<g>
</g>
<g>
</g>
<g>
</g>
<g>
</g>
<g>
</g>
<g>
</g>
<g>
</g>
<g>
</g>
<g>
</g>
<g>
</g>
<g>
</g>
</svg>
