<?xml version="1.0" encoding="iso-8859-1"?>
<!-- Generator: Adobe Illustrator 19.0.0, SVG Export Plug-In . SVG Version: 6.00 Build 0)  -->
<svg version="1.1" id="Layer_1" xmlns="http://www.w3.org/2000/svg" xmlns:xlink="http://www.w3.org/1999/xlink" x="0px" y="0px"
	 viewBox="0 0 512.001 512.001" style="enable-background:new 0 0 512.001 512.001;" xml:space="preserve">
<path style="fill:#3DB4EA;" d="M473.105,371.851c0.176-0.611,0.338-1.228,0.479-1.85c0.047-0.2,0.089-0.401,0.131-0.603
	c0.113-0.54,0.213-1.085,0.3-1.634c0.037-0.236,0.076-0.473,0.11-0.711c0.076-0.545,0.131-1.092,0.18-1.643
	c0.021-0.225,0.047-0.447,0.063-0.674c0.052-0.767,0.084-1.537,0.083-2.313l0,0l0,0v-0.006l-0.006-40.904v-0.002l-0.005-26.203
	v-0.002l-0.001-4.213l-0.004-25.574l0,0l-0.008-48.824l-0.005-26.204l-0.006-40.984c-0.001-2.995-0.409-5.931-1.161-8.75
	c-0.405-1.518-0.915-2.997-1.521-4.435c-2.477-5.877-6.574-11.017-11.924-14.74c-0.784-0.545-1.584-1.071-2.421-1.553l-22.87-13.202
	l-21.414-12.358l-17.24-9.949l-65.925-38.046l-25.717-14.844l-19.288-11.132l-11.953-6.899c-10.533-6.078-23.509-6.076-34.04,0.007
	l-11.872,6.857l-19.288,11.14l-25.717,14.854v-0.001l-65.915,38.072l-28.89,16.686L65.85,113.578l-11.282,6.517
	c-0.813,0.468-1.59,0.979-2.353,1.506c-3.272,2.266-6.072,5.068-8.331,8.235c-1.517,2.129-2.781,4.424-3.774,6.843
	c-1.654,4.031-2.557,8.399-2.557,12.899l0.007,40.912l0.005,26.204l0.012,73.738l0.001,4.011v0.849v0.002v0.013l0,0v0.005l0,0
	l0.005,26.2l0,0v1.864l0.002,12.617l0.004,26.497v0.006l0,0c0.001,0.773,0.033,1.539,0.084,2.304
	c0.016,0.224,0.042,0.446,0.063,0.669c0.048,0.548,0.105,1.096,0.178,1.638c0.033,0.236,0.072,0.471,0.11,0.706
	c0.086,0.545,0.184,1.087,0.298,1.626c0.042,0.201,0.084,0.403,0.13,0.603c0.14,0.615,0.298,1.222,0.471,1.825
	c0.033,0.113,0.061,0.227,0.095,0.34c0.909,3.042,2.239,5.93,3.941,8.589l0.001,0.001l0.001,0.002
	c1.172,1.832,2.517,3.551,4.026,5.137c0.049,0.052,0.098,0.106,0.147,0.158c0.71,0.735,1.454,1.439,2.233,2.113
	c0.125,0.11,0.254,0.215,0.382,0.322c0.785,0.661,1.594,1.298,2.444,1.89c0.784,0.545,1.584,1.07,2.421,1.553l22.552,13.015
	l21.414,12.36l17.561,10.134l91.644,52.89l19.288,11.132l11.953,6.899c10.533,6.078,23.509,6.076,34.04-0.007l11.872-6.857
	l19.288-11.14l25.717-14.853l55.554-32.086l10.363-5.985l26.36-15.225l21.408-12.365l13.813-7.978
	c0.813-0.468,1.59-0.979,2.353-1.506c0.85-0.588,1.659-1.226,2.445-1.884c0.129-0.107,0.259-0.212,0.386-0.322
	c0.779-0.673,1.526-1.375,2.236-2.11c0.046-0.048,0.09-0.098,0.136-0.146c3.725-3.891,6.475-8.609,8.019-13.765
	C473.047,372.067,473.074,371.958,473.105,371.851z"/>
<path style="fill:#FFFFFF;" d="M157.751,221.642c0,10.518,1.68,20.647,4.753,30.156c0.02,0.069,0.033,0.136,0.055,0.205
	c0.02,0.064,0.054,0.119,0.076,0.181c12.877,39.264,49.852,67.708,93.365,67.708s80.489-28.444,93.365-67.708
	c0.022-0.063,0.054-0.118,0.076-0.181c0.023-0.069,0.035-0.136,0.055-0.205c3.074-9.509,4.753-19.638,4.753-30.156
	c0-32.286-15.659-60.979-39.775-78.899c-0.228-0.206-0.471-0.401-0.726-0.586c-0.291-0.211-0.591-0.397-0.897-0.569
	c-16.06-11.439-35.676-18.196-56.852-18.196c-21.175,0-40.791,6.756-56.851,18.195c-0.306,0.172-0.608,0.358-0.898,0.57
	c-0.254,0.184-0.497,0.38-0.727,0.586C173.41,160.663,157.751,189.356,157.751,221.642z M201.893,162.55l15.737,21.658
	c-9.44,9.673-15.273,22.882-15.273,37.435c0,2.629,0.199,5.211,0.567,7.741l-25.477,8.277c-1.055-5.178-1.611-10.534-1.611-16.018
	C175.834,198.275,185.888,177.216,201.893,162.55z M291.564,221.642c0,0.681-0.024,1.356-0.061,2.029l-20.872-6.782l12.891-17.743
	C288.545,205.28,291.564,213.114,291.564,221.642z M220.438,221.642c0-8.528,3.02-16.363,8.043-22.496l12.891,17.743l-20.872,6.782
	C220.462,222.998,220.438,222.324,220.438,221.642z M246.96,234.087v21.951c-8.7-2.288-16.099-7.801-20.857-15.174L246.96,234.087z
	 M265.043,234.087l20.857,6.777c-4.756,7.373-12.156,12.885-20.857,15.174V234.087z M256.001,206.262l-12.897-17.751
	c4.001-1.564,8.349-2.432,12.897-2.432c4.547,0,8.896,0.868,12.897,2.432L256.001,206.262z M183.064,254.848l25.459-8.272
	c7.647,14.5,21.736,25.087,38.437,27.936v26.775C218.499,298.076,194.517,279.907,183.064,254.848z M265.043,301.286v-26.775
	c16.701-2.849,30.79-13.436,38.437-27.936l25.459,8.272C317.485,279.907,293.504,298.076,265.043,301.286z M336.168,221.642
	c0,5.484-0.556,10.84-1.611,16.018l-25.477-8.277c0.368-2.529,0.567-5.111,0.567-7.741c0-14.552-5.832-27.761-15.273-37.435
	l15.736-21.658C326.114,177.216,336.168,198.275,336.168,221.642z M295.486,151.916l-15.727,21.646
	c-7.166-3.555-15.231-5.565-23.757-5.565s-16.592,2.01-23.757,5.565l-15.727-21.646c11.665-6.632,25.135-10.44,39.484-10.44
	S283.822,145.284,295.486,151.916z M280.642,359.596l17.276,12.682c4.026,2.955,4.894,8.613,1.938,12.637
	c-1.772,2.413-4.515,3.692-7.296,3.692c-1.858,0-3.731-0.571-5.343-1.754L256,363.94l-31.218,22.913
	c-4.023,2.956-9.682,2.09-12.637-1.938c-2.955-4.025-2.087-9.683,1.938-12.637l17.276-12.682
	c-65.555-11.677-115.483-69.092-115.483-137.954c0-29.684,9.211-58.072,26.637-82.098c2.932-4.045,8.587-4.944,12.628-2.011
	c4.043,2.932,4.943,8.586,2.011,12.628c-15.173,20.919-23.192,45.636-23.192,71.481c0,67.291,54.743,122.037,122.034,122.041
	c0.005,0,0.01,0,0.014,0c67.29-0.004,122.034-54.75,122.034-122.041c0-25.844-8.019-50.562-23.192-71.481
	c-2.932-4.042-2.033-9.696,2.011-12.628c4.043-2.933,9.695-2.034,12.628,2.011c17.426,24.026,26.637,52.415,26.637,82.098
	C396.125,290.504,346.197,347.919,280.642,359.596z"/>
<path d="M483.459,149.503c-0.001-3.711-0.494-7.438-1.467-11.079c-0.506-1.896-1.154-3.788-1.924-5.614
	c-3.18-7.543-8.399-13.99-15.096-18.652c-1.115-0.776-2.087-1.397-3.062-1.96L277.5,5.767C270.963,1.995,263.515,0,255.966,0
	c-7.555,0-15.005,1.998-21.546,5.776L50.044,112.265c-0.945,0.546-1.89,1.15-2.979,1.904c-4.087,2.831-7.633,6.335-10.546,10.421
	c-1.912,2.682-3.52,5.595-4.776,8.657c-2.146,5.231-3.234,10.726-3.234,16.335l0.035,212.915c0,0.921,0.035,1.875,0.105,2.917
	c0.018,0.235,0.039,0.469,0.063,0.702l0.014,0.143c0.061,0.694,0.134,1.386,0.23,2.096c0.034,0.24,0.071,0.477,0.11,0.717
	l0.025,0.158c0.111,0.69,0.235,1.375,0.379,2.067c0.054,0.256,0.108,0.51,0.165,0.757c0.176,0.776,0.377,1.543,0.608,2.348
	l0.111,0.392c1.144,3.829,2.821,7.486,4.986,10.873c0.013,0.019,0.025,0.037,0.037,0.058c1.477,2.301,3.179,4.47,5.054,6.441
	c0.04,0.042,0.153,0.163,0.193,0.205c0.888,0.921,1.837,1.82,2.828,2.677l0.48,0.405c1.098,0.923,2.111,1.703,3.096,2.389
	c1.115,0.775,2.087,1.397,3.064,1.961l184.411,106.429c6.539,3.772,13.985,5.766,21.534,5.767l0,0
	c7.554,0,15.005-1.998,21.546-5.776l184.373-106.49c0.949-0.546,1.895-1.151,2.979-1.902c0.986-0.682,2.001-1.462,3.099-2.381
	c0.005-0.004,0.102-0.084,0.106-0.088l0.381-0.322c0.989-0.852,1.941-1.749,2.81-2.646l0.193-0.205
	c4.695-4.906,8.206-10.932,10.153-17.433l0.113-0.398c0.224-0.774,0.427-1.554,0.608-2.342l0.168-0.77
	c0.142-0.682,0.269-1.371,0.379-2.067l0.02-0.123c0.04-0.253,0.08-0.508,0.118-0.776c0.094-0.691,0.168-1.385,0.228-2.073
	l0.014-0.143c0.025-0.239,0.046-0.477,0.063-0.72c0.071-1.044,0.105-2,0.105-2.931L483.459,149.503z M465.349,364.098l-0.051,0.521
	c-0.035,0.403-0.076,0.805-0.128,1.191l-0.083,0.534c-0.064,0.403-0.137,0.804-0.227,1.227l-0.089,0.41
	c-0.105,0.459-0.222,0.911-0.347,1.343l-0.07,0.254c-1.128,3.764-3.166,7.26-5.908,10.125l-0.083,0.092
	c-0.514,0.528-1.066,1.05-1.654,1.556l-0.272,0.227c-0.682,0.571-1.254,1.011-1.794,1.385c-0.669,0.464-1.218,0.815-1.728,1.11
	l-184.375,106.49c-3.795,2.192-8.118,3.351-12.502,3.351c-4.381-0.001-8.703-1.157-12.495-3.347L59.133,384.143
	c-0.526-0.304-1.09-0.669-1.778-1.146c-0.539-0.375-1.109-0.817-1.783-1.383l-0.288-0.24c-0.576-0.499-1.128-1.022-1.595-1.507
	c-0.027-0.028-0.128-0.135-0.154-0.164c-1.101-1.156-2.094-2.425-2.957-3.774c-0.01-0.017-0.022-0.033-0.031-0.049
	c-1.244-1.954-2.207-4.06-2.866-6.265l-0.068-0.237c-0.127-0.445-0.245-0.892-0.348-1.351l-0.094-0.433
	c-0.082-0.395-0.156-0.793-0.217-1.184l-0.081-0.523c-0.055-0.4-0.096-0.803-0.13-1.201l-0.052-0.497
	c-0.037-0.562-0.064-1.125-0.064-1.699l-0.035-212.912c0-3.24,0.633-6.424,1.882-9.467c0.729-1.781,1.662-3.471,2.769-5.025
	c1.696-2.378,3.755-4.415,6.116-6.049c0.673-0.465,1.221-0.82,1.73-1.113l184.376-106.49c3.795-2.192,8.118-3.351,12.502-3.351
	c4.381,0,8.703,1.157,12.495,3.347L452.87,127.856c0.526,0.304,1.091,0.669,1.778,1.145c3.882,2.699,6.909,6.446,8.758,10.829
	c0.448,1.064,0.825,2.159,1.116,3.254c0.567,2.122,0.854,4.282,0.855,6.419l0.034,212.916
	C465.41,362.994,465.386,363.562,465.349,364.098z"/>
<g>
</g>
<g>
</g>
<g>
</g>
<g>
</g>
<g>
</g>
<g>
</g>
<g>
</g>
<g>
</g>
<g>
</g>
<g>
</g>
<g>
</g>
<g>
</g>
<g>
</g>
<g>
</g>
<g>
</g>
</svg>
