<?xml version="1.0" encoding="iso-8859-1"?>
<!-- Generator: Adobe Illustrator 19.0.0, SVG Export Plug-In . SVG Version: 6.00 Build 0)  -->
<svg version="1.1" id="Layer_1" xmlns="http://www.w3.org/2000/svg" xmlns:xlink="http://www.w3.org/1999/xlink" x="0px" y="0px"
	 viewBox="0 0 512 512" style="enable-background:new 0 0 512 512;" xml:space="preserve">
<path style="fill:#259245;" d="M473.103,371.851c0.176-0.611,0.338-1.228,0.479-1.85c0.047-0.2,0.089-0.401,0.131-0.603
	c0.113-0.54,0.213-1.085,0.3-1.634c0.037-0.236,0.076-0.473,0.11-0.711c0.076-0.545,0.131-1.092,0.18-1.643
	c0.02-0.225,0.047-0.447,0.063-0.674c0.052-0.767,0.084-1.537,0.083-2.313l0,0l0,0v-0.006l-0.006-40.904v-0.002l-0.005-26.203
	v-0.002l-0.001-4.213l-0.004-25.574l0,0l-0.008-48.824l-0.005-26.204l-0.006-40.984c-0.001-2.995-0.409-5.931-1.161-8.75
	c-0.405-1.517-0.915-2.997-1.521-4.435c-2.477-5.877-6.574-11.017-11.924-14.74c-0.784-0.545-1.584-1.071-2.421-1.553l-22.87-13.202
	l-21.414-12.358l-17.24-9.949l-65.925-38.046L304.22,31.629l-19.288-11.132l-11.953-6.899c-10.533-6.078-23.509-6.076-34.04,0.007
	l-11.872,6.857l-19.288,11.14l-25.717,14.854v-0.001l-65.915,38.072l-28.89,16.686l-21.408,12.365l-11.282,6.517
	c-0.813,0.468-1.59,0.979-2.353,1.506c-3.272,2.268-6.072,5.068-8.331,8.235c-1.517,2.129-2.781,4.424-3.774,6.843
	c-1.654,4.031-2.557,8.399-2.557,12.899l0.007,40.912l0.005,26.204l0.012,73.738l0.001,4.011v0.85v0.001v0.013l0,0v0.005l0,0
	l0.005,26.2l0,0v1.864l0.002,12.617l0.004,26.497v0.006l0,0c0.001,0.773,0.033,1.539,0.084,2.304
	c0.016,0.224,0.042,0.446,0.061,0.669c0.049,0.548,0.106,1.096,0.18,1.638c0.033,0.236,0.072,0.471,0.11,0.706
	c0.086,0.545,0.184,1.087,0.297,1.626c0.043,0.201,0.086,0.403,0.131,0.603c0.14,0.615,0.298,1.222,0.471,1.825
	c0.033,0.113,0.061,0.227,0.095,0.34c0.909,3.042,2.239,5.93,3.941,8.589v0.001l0.002,0.002c1.172,1.832,2.517,3.551,4.026,5.137
	c0.049,0.052,0.098,0.106,0.147,0.158c0.71,0.735,1.454,1.439,2.233,2.113c0.125,0.11,0.256,0.215,0.382,0.322
	c0.786,0.661,1.594,1.298,2.444,1.89c0.784,0.545,1.584,1.07,2.421,1.553l22.552,13.015l21.414,12.36l17.561,10.134l91.644,52.89
	l19.288,11.132l11.953,6.899c10.533,6.078,23.509,6.076,34.04-0.007l11.872-6.857l19.288-11.14l25.717-14.853l55.554-32.086
	l10.363-5.985l26.36-15.225l21.408-12.365l13.813-7.978c0.813-0.468,1.59-0.979,2.352-1.506c0.851-0.588,1.66-1.226,2.446-1.884
	c0.129-0.107,0.259-0.212,0.386-0.322c0.779-0.673,1.526-1.375,2.236-2.11c0.046-0.048,0.09-0.098,0.136-0.146
	c3.725-3.891,6.475-8.609,8.019-13.765C473.045,372.067,473.073,371.958,473.103,371.851z"/>
<path style="fill:#FF7900;" d="M416.332,415.644l5.882-3.396l21.408-12.365l13.813-7.977c0.813-0.469,1.59-0.98,2.352-1.507
	c0.852-0.588,1.66-1.226,2.446-1.884c0.129-0.107,0.259-0.212,0.386-0.322c0.779-0.673,1.526-1.375,2.236-2.11
	c0.047-0.048,0.09-0.098,0.136-0.146c3.725-3.891,6.475-8.609,8.019-13.766c0.033-0.106,0.06-0.215,0.09-0.322
	c0.176-0.611,0.338-1.228,0.479-1.85c0.047-0.2,0.089-0.401,0.131-0.603c0.113-0.54,0.213-1.085,0.3-1.633
	c0.037-0.236,0.076-0.473,0.11-0.711c0.076-0.545,0.131-1.092,0.18-1.643c0.021-0.225,0.046-0.447,0.063-0.674
	c0.052-0.767,0.083-1.537,0.083-2.313l0,0v-0.006l-0.006-40.905v-0.002l-0.005-26.203v-0.002v-4.213l-0.005-25.574l-0.008-48.824
	l-0.004-20.97h-58.09v219.922H416.332z"/>
<polygon style="fill:#ED1F34;" points="298.193,195.723 298.193,364.496 298.193,400.662 298.193,483.879 304.22,480.397 
	329.938,465.544 356.056,450.458 356.056,195.723 "/>
<polygon style="fill:#333333;" points="356.056,195.723 356.056,450.458 385.492,433.458 395.854,427.473 416.332,415.644 
	416.332,195.723 "/>
<path d="M316.51,148.105c0-4.994,4.047-9.041,9.041-9.041h38.346c2.186,0,4.295,0.791,5.942,2.227l13.945,12.159l13.945-12.159
	c1.647-1.435,3.756-2.227,5.942-2.227h38.346c4.994,0,9.041,4.047,9.041,9.041c0,4.994-4.047,9.041-9.041,9.041h-34.958
	l-17.334,15.112c-1.702,1.484-3.823,2.227-5.942,2.227c-2.119,0-4.24-0.741-5.942-2.227l-17.334-15.112h-34.958
	C320.557,157.147,316.51,153.1,316.51,148.105z M483.491,362.415c0.001,0.913-0.033,1.873-0.105,2.931
	c-0.016,0.24-0.037,0.48-0.063,0.721l-0.014,0.143c-0.06,0.684-0.134,1.374-0.227,2.061c-0.039,0.283-0.08,0.542-0.122,0.802
	c-0.128,0.803-0.254,1.492-0.398,2.177c-0.055,0.265-0.11,0.52-0.168,0.773c-0.18,0.784-0.383,1.566-0.608,2.34
	c-0.041,0.154-0.09,0.327-0.143,0.497c-1.917,6.402-5.426,12.428-10.122,17.332l-0.119,0.127c-0.943,0.974-1.894,1.872-2.881,2.723
	l-0.405,0.339c-1.175,0.981-2.186,1.76-3.177,2.447c-1.104,0.763-2.051,1.367-2.991,1.91l-184.37,106.486
	c-6.542,3.779-13.992,5.777-21.547,5.777c-7.55,0-14.995-1.995-21.534-5.768L50.091,399.803c-0.979-0.565-1.951-1.187-3.062-1.96
	c-0.992-0.692-2.004-1.473-3.097-2.391c-0.209-0.174-0.354-0.294-0.498-0.419c-0.956-0.827-1.908-1.728-2.809-2.661
	c-0.047-0.049-0.169-0.177-0.215-0.228c-1.87-1.964-3.585-4.151-5.069-6.474c-0.012-0.018-0.024-0.036-0.035-0.055
	c-2.148-3.369-3.815-7.009-4.953-10.821c-0.034-0.115-0.076-0.259-0.115-0.405c-0.227-0.792-0.427-1.561-0.604-2.339
	c-0.054-0.237-0.108-0.491-0.163-0.745c-0.146-0.694-0.272-1.386-0.381-2.084c-0.057-0.351-0.098-0.608-0.134-0.867
	c-0.096-0.71-0.17-1.401-0.229-2.093l-0.013-0.127c-0.025-0.24-0.047-0.479-0.064-0.721c-0.071-1.037-0.105-1.99-0.105-2.919
	L28.509,149.58c0-5.608,1.087-11.103,3.234-16.332c1.259-3.066,2.866-5.977,4.776-8.659c2.913-4.084,6.46-7.59,10.546-10.419
	c1.087-0.753,2.035-1.36,2.984-1.906L234.416,5.776C240.959,1.996,248.411,0,255.964,0c7.55,0,14.995,1.994,21.534,5.767
	l184.411,106.428c0.978,0.565,1.951,1.189,3.066,1.965c6.691,4.655,11.911,11.103,15.092,18.647
	c0.776,1.844,1.424,3.735,1.926,5.623c0.97,3.637,1.464,7.365,1.464,11.075L483.491,362.415z M465.408,362.436l-0.025-157.671
	H307.234v195.897c0,4.994-4.047,9.041-9.041,9.041s-9.041-4.047-9.041-9.041V195.723c0-4.994,4.047-9.041,9.041-9.041h167.186
	l-0.006-37.177c0-2.136-0.287-4.295-0.854-6.418c-0.291-1.092-0.667-2.186-1.118-3.259c-1.848-4.381-4.876-8.126-8.757-10.826
	c-0.69-0.48-1.254-0.844-1.778-1.145L268.458,21.431c-3.791-2.19-8.113-3.348-12.494-3.348c-4.384,0-8.709,1.159-12.504,3.351
	L59.087,127.924c-0.51,0.293-1.057,0.645-1.728,1.109c-2.364,1.637-4.422,3.674-6.118,6.053c-1.107,1.553-2.04,3.244-2.773,5.028
	c-1.247,3.038-1.879,6.223-1.879,9.465l0.036,212.909c0,0.576,0.025,1.139,0.063,1.7l0.047,0.473
	c0.037,0.421,0.077,0.825,0.131,1.225l0.078,0.5c0.066,0.415,0.137,0.808,0.219,1.196l0.094,0.438
	c0.106,0.467,0.223,0.913,0.35,1.354l0.076,0.276c0.65,2.176,1.615,4.284,2.862,6.24c0.008,0.014,0.018,0.028,0.025,0.042
	c0.863,1.348,1.858,2.617,2.956,3.771c0.034,0.035,0.141,0.151,0.175,0.186c0.454,0.471,1.005,0.992,1.57,1.479l0.266,0.224
	c0.703,0.59,1.275,1.033,1.818,1.413c0.679,0.471,1.244,0.835,1.773,1.14l184.41,106.427c3.794,2.189,8.114,3.348,12.495,3.348
	c4.383,0,8.707-1.16,12.504-3.351l20.613-11.906V436.83c0-4.994,4.047-9.041,9.041-9.041s9.041,4.047,9.041,9.041v31.388
	l145.679-84.142c0.509-0.293,1.057-0.646,1.734-1.114c0.527-0.366,1.114-0.821,1.784-1.382l0.293-0.242
	c0.568-0.489,1.121-1.011,1.635-1.543l0.083-0.09c2.74-2.863,4.776-6.354,5.905-10.118l0.06-0.218
	c0.137-0.477,0.257-0.929,0.362-1.385l0.096-0.447c0.08-0.387,0.154-0.787,0.218-1.191l0.021-0.127l0.064-0.408
	c0.052-0.379,0.093-0.784,0.128-1.191l0.051-0.52C465.384,363.566,465.409,363.003,465.408,362.436z"/>
<g>
</g>
<g>
</g>
<g>
</g>
<g>
</g>
<g>
</g>
<g>
</g>
<g>
</g>
<g>
</g>
<g>
</g>
<g>
</g>
<g>
</g>
<g>
</g>
<g>
</g>
<g>
</g>
<g>
</g>
</svg>
