<?xml version="1.0" encoding="iso-8859-1"?>
<!-- Generator: Adobe Illustrator 19.0.0, SVG Export Plug-In . SVG Version: 6.00 Build 0)  -->
<svg version="1.1" id="Layer_1" xmlns="http://www.w3.org/2000/svg" xmlns:xlink="http://www.w3.org/1999/xlink" x="0px" y="0px"
	 viewBox="0 0 512 512" style="enable-background:new 0 0 512 512;" xml:space="preserve">
<path style="fill:#FFFFFF;" d="M473.105,371.85c0.176-0.61,0.338-1.227,0.48-1.848c0.046-0.201,0.088-0.403,0.13-0.604
	c0.113-0.54,0.213-1.085,0.3-1.632c0.039-0.237,0.076-0.474,0.11-0.711c0.075-0.546,0.133-1.095,0.181-1.644
	c0.021-0.225,0.047-0.448,0.061-0.674c0.052-0.767,0.084-1.537,0.084-2.313l0,0l0,0v-0.006l-0.006-40.904v-0.002l-0.004-26.203
	v-0.002l-0.001-4.213l-0.004-25.574l0,0l-0.008-48.824l-0.004-26.203l-0.007-40.985c0-2.995-0.408-5.931-1.16-8.75
	c-0.404-1.517-0.915-2.997-1.52-4.435c-2.477-5.876-6.575-11.016-11.925-14.74c-0.784-0.545-1.584-1.071-2.419-1.553l-22.874-13.202
	l-21.414-12.358l-17.239-9.949L329.94,46.473l-25.717-14.844l-19.288-11.132l-11.953-6.899c-10.534-6.078-23.509-6.076-34.04,0.007
	l-11.872,6.857l-19.288,11.14l-25.717,14.853l0,0l-65.917,38.072l-28.89,16.686L65.85,113.578l-11.284,6.516
	c-0.811,0.469-1.59,0.98-2.353,1.507c-3.272,2.268-6.073,5.067-8.333,8.236c-1.517,2.127-2.781,4.422-3.773,6.841
	c-1.655,4.032-2.558,8.399-2.557,12.899l0.007,40.913l0.004,26.203l0.012,73.738l0.001,4.011v0.85v0.001v0.013l0,0v0.005l0,0
	l0.004,26.198v0.002v1.863l0.001,12.617l0.005,26.496v0.007l0,0c0,0.773,0.031,1.539,0.084,2.305
	c0.016,0.224,0.042,0.445,0.061,0.668c0.048,0.55,0.105,1.096,0.18,1.638c0.033,0.236,0.071,0.471,0.108,0.708
	c0.087,0.544,0.186,1.086,0.298,1.625c0.042,0.201,0.084,0.403,0.13,0.603c0.14,0.615,0.298,1.222,0.471,1.825
	c0.033,0.113,0.061,0.228,0.095,0.34c0.908,3.043,2.239,5.93,3.94,8.588c0,0.001,0,0.002,0.001,0.002l0.001,0.002
	c1.172,1.832,2.517,3.551,4.026,5.137c0.049,0.053,0.098,0.106,0.148,0.159c0.71,0.734,1.454,1.438,2.233,2.112
	c0.125,0.11,0.254,0.215,0.382,0.322c0.786,0.661,1.595,1.298,2.445,1.89c0.784,0.545,1.584,1.07,2.419,1.553l22.552,13.016
	l21.414,12.359l17.561,10.134l91.644,52.89l19.288,11.132l11.953,6.899c10.534,6.078,23.509,6.076,34.04-0.007l11.872-6.857
	l19.288-11.14l25.717-14.853l55.554-32.086l10.363-5.985l26.36-15.225l21.408-12.365l13.813-7.977
	c0.811-0.469,1.59-0.98,2.353-1.507c0.851-0.588,1.659-1.226,2.446-1.884c0.129-0.106,0.258-0.212,0.386-0.323
	c0.779-0.671,1.526-1.374,2.237-2.108c0.046-0.048,0.09-0.098,0.136-0.145c3.724-3.893,6.475-8.61,8.019-13.767
	C473.046,372.067,473.074,371.958,473.105,371.85z"/>
<path style="fill:#FF7900;" d="M165.587,364.496V55.972l-49.44,28.555l-28.89,16.686L65.85,113.578l-11.284,6.516
	c-0.811,0.469-1.59,0.98-2.353,1.507c-3.272,2.268-6.073,5.067-8.333,8.236c-1.517,2.127-2.781,4.422-3.773,6.841
	c-1.654,4.032-2.558,8.399-2.557,12.899l0.007,40.913l0.004,26.203l0.013,73.738v4.011v0.849v0.002v0.013l0,0v0.005l0,0
	l0.004,26.198v0.002v1.863l0.001,12.617l0.005,26.496v0.007l0,0c0,0.773,0.031,1.539,0.084,2.305
	c0.016,0.224,0.042,0.445,0.061,0.668c0.048,0.55,0.105,1.096,0.18,1.639c0.033,0.235,0.071,0.47,0.108,0.706
	c0.087,0.544,0.184,1.085,0.298,1.625c0.042,0.201,0.084,0.403,0.13,0.603c0.14,0.615,0.298,1.222,0.471,1.825
	c0.033,0.113,0.061,0.228,0.095,0.34c0.909,3.043,2.239,5.93,3.94,8.588c0,0.001,0.001,0.002,0.001,0.004l0.001,0.001
	c1.172,1.832,2.517,3.551,4.025,5.137c0.051,0.053,0.099,0.106,0.149,0.159c0.709,0.734,1.454,1.438,2.231,2.112
	c0.125,0.11,0.254,0.215,0.382,0.322c0.786,0.661,1.594,1.298,2.445,1.89c0.784,0.545,1.584,1.071,2.419,1.553l22.552,13.016
	l21.414,12.359l17.561,10.134l49.45,28.539v-55.358v-36.167H165.587z"/>
<path style="fill:#259245;" d="M474.446,321.512v-0.002l-0.004-26.203v-0.002l-0.001-4.213l-0.004-25.574l-0.008-48.824
	l-0.004-26.203l-0.007-40.985c0-2.995-0.408-5.931-1.16-8.75c-0.404-1.517-0.915-2.997-1.52-4.435
	c-2.477-5.876-6.574-11.016-11.925-14.74c-0.784-0.545-1.584-1.071-2.419-1.553l-22.874-13.202l-21.414-12.358l-17.239-9.949
	l-49.45-28.539v400.048l39.078-22.571l10.363-5.985l26.36-15.225l21.408-12.365l13.813-7.977c0.811-0.469,1.59-0.98,2.353-1.507
	c0.851-0.588,1.659-1.226,2.446-1.884c0.129-0.106,0.258-0.212,0.386-0.323c0.779-0.672,1.526-1.374,2.237-2.108
	c0.046-0.048,0.09-0.098,0.136-0.145c3.724-3.893,6.475-8.61,8.019-13.767c0.033-0.106,0.06-0.215,0.09-0.322
	c0.176-0.611,0.338-1.228,0.48-1.849c0.046-0.201,0.088-0.403,0.13-0.604c0.113-0.54,0.213-1.084,0.3-1.632
	c0.039-0.237,0.076-0.474,0.11-0.712c0.075-0.545,0.131-1.093,0.181-1.643c0.019-0.225,0.047-0.448,0.061-0.674
	c0.052-0.767,0.084-1.537,0.084-2.313l0,0v-0.006L474.446,321.512z"/>
<path d="M28.509,362.415c-0.001,0.911,0.033,1.872,0.105,2.931c0.016,0.241,0.037,0.48,0.061,0.72l0.014,0.143
	c0.06,0.685,0.134,1.377,0.227,2.063c0.04,0.278,0.08,0.533,0.119,0.786l0.02,0.123c0.111,0.697,0.236,1.384,0.379,2.067
	c0.055,0.262,0.108,0.516,0.168,0.77c0.181,0.788,0.385,1.57,0.609,2.342c0.04,0.153,0.088,0.321,0.14,0.487
	c1.92,6.413,5.43,12.439,10.124,17.344l0.153,0.163c0.91,0.942,1.864,1.838,2.85,2.688l0.475,0.398
	c1.103,0.925,2.116,1.702,3.107,2.389c1.097,0.758,2.043,1.363,2.987,1.907l184.37,106.487c6.542,3.778,13.994,5.776,21.549,5.776
	l0,0c7.549,0,14.994-1.995,21.534-5.767l184.41-106.429c0.978-0.564,1.951-1.186,3.064-1.961c0.985-0.686,1.999-1.467,3.096-2.389
	l0.481-0.405c0.99-0.857,1.938-1.756,2.827-2.677c0.04-0.042,0.154-0.163,0.194-0.205c1.875-1.971,3.578-4.14,5.054-6.441
	c0.012-0.02,0.025-0.039,0.037-0.058c2.164-3.386,3.842-7.044,4.985-10.871l0.111-0.393c0.23-0.805,0.43-1.573,0.608-2.348
	c0.057-0.247,0.111-0.501,0.164-0.757c0.145-0.692,0.269-1.378,0.379-2.067l0.025-0.158c0.039-0.239,0.076-0.477,0.11-0.717
	c0.096-0.71,0.171-1.402,0.231-2.096l0.014-0.143c0.024-0.233,0.046-0.467,0.061-0.702c0.07-1.042,0.105-1.995,0.105-2.917
	l0.035-212.915c0-5.608-1.087-11.104-3.234-16.335c-1.256-3.062-2.863-5.975-4.775-8.657c-2.913-4.084-6.46-7.59-10.546-10.421
	c-1.089-0.753-2.034-1.357-2.979-1.904L277.583,5.776C271.042,1.998,263.591,0,256.037,0c-7.55,0-14.995,1.995-21.534,5.767
	L50.092,112.197c-0.98,0.565-1.953,1.189-3.066,1.964c-6.691,4.655-11.909,11.104-15.089,18.646
	c-0.778,1.846-1.425,3.737-1.928,5.623c-0.97,3.639-1.462,7.367-1.462,11.076L28.509,362.415z M174.628,450.809V61.202
	l68.912-39.771c3.795-2.188,8.116-3.347,12.496-3.347c4.383,0,8.706,1.16,12.502,3.351l68.835,39.757v303.306
	c0,4.994,4.048,9.041,9.041,9.041s9.041-4.047,9.041-9.041V71.636l97.458,56.288c0.509,0.293,1.058,0.647,1.731,1.113
	c2.36,1.633,4.419,3.671,6.114,6.049c1.108,1.554,2.04,3.244,2.77,5.025c1.248,3.042,1.882,6.227,1.881,9.467l-0.035,212.912
	c0,0.575-0.025,1.137-0.064,1.699l-0.048,0.495c-0.035,0.398-0.076,0.8-0.13,1.201l-0.082,0.523
	c-0.061,0.391-0.134,0.788-0.217,1.184l-0.093,0.433c-0.104,0.459-0.223,0.907-0.35,1.351l-0.066,0.237
	c-0.657,2.205-1.621,4.311-2.866,6.265c-0.011,0.017-0.022,0.033-0.031,0.049c-0.863,1.349-1.858,2.618-2.957,3.775
	c-0.027,0.028-0.128,0.135-0.154,0.165c-0.468,0.483-1.02,1.008-1.596,1.507l-0.288,0.239c-0.675,0.567-1.244,1.009-1.783,1.383
	c-0.687,0.477-1.253,0.843-1.779,1.146l-97.413,56.219v-39.7c0-4.994-4.048-9.041-9.041-9.041c-4.993,0-9.041,4.047-9.041,9.041
	v50.136l-68.912,39.771c-3.794,2.189-8.114,3.347-12.495,3.347c-4.383,0-8.707-1.159-12.504-3.351L174.628,450.809z M46.592,362.436
	l0.035-212.93c0-2.137,0.287-4.296,0.854-6.421c0.291-1.09,0.667-2.186,1.119-3.259c1.847-4.38,4.874-8.125,8.756-10.824
	c0.686-0.477,1.25-0.841,1.776-1.145l97.414-56.219v368.726l-97.458-56.288c-0.509-0.293-1.057-0.646-1.731-1.113
	c-0.53-0.368-1.118-0.822-1.787-1.382l-0.289-0.24c-0.573-0.493-1.126-1.014-1.641-1.544l-0.083-0.092
	c-2.74-2.862-4.775-6.353-5.905-10.113l-0.06-0.222c-0.137-0.477-0.257-0.929-0.362-1.389l-0.095-0.44
	c-0.081-0.392-0.156-0.793-0.219-1.196l-0.083-0.534c-0.052-0.379-0.094-0.785-0.129-1.191l-0.051-0.521
	C46.617,363.567,46.591,363.004,46.592,362.436z"/>
<g>
</g>
<g>
</g>
<g>
</g>
<g>
</g>
<g>
</g>
<g>
</g>
<g>
</g>
<g>
</g>
<g>
</g>
<g>
</g>
<g>
</g>
<g>
</g>
<g>
</g>
<g>
</g>
<g>
</g>
</svg>
