<?xml version="1.0" encoding="iso-8859-1"?>
<!-- Generator: Adobe Illustrator 19.0.0, SVG Export Plug-In . SVG Version: 6.00 Build 0)  -->
<svg version="1.1" id="Layer_1" xmlns="http://www.w3.org/2000/svg" xmlns:xlink="http://www.w3.org/1999/xlink" x="0px" y="0px"
	 viewBox="0 0 511.999 511.999" style="enable-background:new 0 0 511.999 511.999;" xml:space="preserve">
<path style="fill:#164FCE;" d="M473.104,371.851c0.176-0.611,0.338-1.228,0.48-1.85c0.046-0.201,0.088-0.401,0.13-0.603
	c0.113-0.541,0.213-1.085,0.3-1.634c0.037-0.236,0.076-0.473,0.11-0.711c0.075-0.545,0.133-1.093,0.181-1.643
	c0.019-0.225,0.047-0.447,0.061-0.674c0.052-0.767,0.084-1.537,0.084-2.313l0,0l0,0v-0.006l-0.006-40.904v-0.001l-0.005-26.204
	v-0.002v-4.213l-0.004-25.574l0,0l-0.008-48.824l-0.004-26.204l-0.007-40.985c0-2.996-0.407-5.93-1.16-8.75
	c-0.404-1.517-0.915-2.997-1.52-4.435c-2.477-5.877-6.575-11.016-11.925-14.74c-0.784-0.545-1.584-1.071-2.419-1.554l-22.874-13.2
	l-21.414-12.358l-17.24-9.949l-65.926-38.046l-25.717-14.842l-19.288-11.132l-11.953-6.898c-10.534-6.078-23.509-6.077-34.04,0.006
	l-11.872,6.857l-19.288,11.14l-25.717,14.854l0,0l-65.917,38.07l-28.89,16.686l-21.406,12.365l-11.284,6.517
	c-0.811,0.469-1.59,0.979-2.353,1.507c-3.272,2.266-6.073,5.068-8.333,8.236c-1.517,2.128-2.781,4.423-3.773,6.841
	c-1.655,4.031-2.558,8.399-2.557,12.899l0.007,40.912l0.004,26.204l0.012,73.738v4.011v0.85v0.001v0.013l0,0v0.005l0,0l0.004,26.2
	l0,0v1.864l0.002,12.617l0.005,26.497v0.006l0,0c0,0.773,0.031,1.539,0.084,2.304c0.016,0.224,0.042,0.446,0.061,0.669
	c0.048,0.55,0.105,1.096,0.18,1.638c0.033,0.236,0.071,0.471,0.108,0.706c0.087,0.546,0.186,1.087,0.298,1.626
	c0.042,0.201,0.084,0.403,0.13,0.603c0.14,0.615,0.298,1.222,0.471,1.825c0.033,0.113,0.061,0.227,0.095,0.34
	c0.908,3.042,2.239,5.93,3.94,8.589v0.001c0.001,0.001,0.001,0.001,0.001,0.001c1.172,1.832,2.517,3.553,4.026,5.137
	c0.049,0.052,0.098,0.106,0.148,0.158c0.709,0.735,1.454,1.439,2.231,2.112c0.125,0.11,0.254,0.215,0.382,0.322
	c0.786,0.661,1.595,1.3,2.445,1.89c0.784,0.545,1.584,1.071,2.419,1.554l22.552,13.015l21.414,12.359l17.561,10.135l91.644,52.89
	l19.288,11.132l11.953,6.898c10.533,6.078,23.509,6.077,34.04-0.006l11.872-6.857l19.288-11.14l25.717-14.853l55.554-32.086
	l10.363-5.985l26.36-15.225l21.408-12.365l13.813-7.978c0.811-0.469,1.59-0.979,2.353-1.507c0.851-0.59,1.659-1.226,2.446-1.883
	c0.129-0.107,0.258-0.213,0.386-0.322c0.779-0.673,1.526-1.375,2.237-2.11c0.046-0.048,0.09-0.098,0.136-0.146
	c3.724-3.891,6.475-8.609,8.019-13.765C473.045,372.067,473.072,371.958,473.104,371.851z"/>
<polygon style="fill:#FFE000;" points="238.39,304.823 474.441,304.823 474.425,207.176 238.39,207.176 238.39,13.923 
	140.743,70.32 140.743,207.176 37.559,207.176 37.575,304.823 140.743,304.823 140.743,441.682 238.845,498.299 238.39,498.038 "/>
<polygon style="fill:#ED1F34;" points="215.787,26.978 207.779,31.603 182.061,46.457 182.061,46.456 163.347,57.266 
	163.347,229.779 106.113,229.779 74.77,229.779 37.563,229.779 37.572,282.219 163.347,282.219 163.347,454.727 207.779,480.371 
	215.787,484.993 215.787,282.219 474.437,282.219 474.435,265.517 474.429,229.779 215.787,229.779 "/>
<path d="M483.457,149.503c0-3.711-0.494-7.438-1.465-11.076c-0.504-1.893-1.152-3.782-1.926-5.619
	c-3.18-7.543-8.399-13.991-15.093-18.649c-1.114-0.775-2.087-1.398-3.064-1.961L277.5,5.768C270.961,1.995,263.515,0,255.966,0
	c-7.555,0-15.005,1.998-21.547,5.776L50.045,112.264c-0.949,0.547-1.895,1.152-2.981,1.905c-4.086,2.831-7.633,6.336-10.546,10.419
	c-1.911,2.682-3.518,5.594-4.775,8.657c-2.147,5.231-3.234,10.726-3.234,16.334l0.036,212.916c0,0.922,0.034,1.876,0.105,2.917
	c0.017,0.24,0.039,0.477,0.063,0.716l0.013,0.131c0.061,0.697,0.134,1.391,0.228,2.072c0.036,0.27,0.078,0.536,0.137,0.897
	c0.11,0.691,0.235,1.375,0.38,2.076c0.053,0.253,0.107,0.508,0.163,0.745c0.177,0.778,0.376,1.546,0.609,2.36l0.11,0.382
	c1.134,3.801,2.796,7.434,4.94,10.8c0.016,0.027,0.033,0.052,0.049,0.078c1.485,2.321,3.199,4.507,5.069,6.472l0.215,0.228
	c0.892,0.925,1.842,1.824,2.809,2.661c0.136,0.119,0.276,0.235,0.498,0.42c1.097,0.921,2.11,1.702,3.098,2.391
	c1.115,0.775,2.087,1.398,3.062,1.96l184.41,106.428c6.539,3.773,13.985,5.768,21.534,5.768l0,0c7.554,0,15.005-1.998,21.547-5.776
	l184.372-106.488c0.949-0.547,1.895-1.152,2.981-1.905c0.986-0.682,1.999-1.461,3.111-2.391l0.474-0.398
	c0.984-0.849,1.936-1.746,2.851-2.69l0.153-0.163c4.695-4.905,8.204-10.93,10.138-17.387c0.045-0.145,0.086-0.291,0.125-0.441
	c0.224-0.773,0.427-1.553,0.608-2.345c0.058-0.253,0.112-0.508,0.165-0.759c0.145-0.687,0.271-1.378,0.381-2.077l0.019-0.121
	c0.041-0.256,0.081-0.511,0.118-0.778c0.095-0.69,0.169-1.385,0.229-2.074l0.014-0.149c0.024-0.237,0.046-0.475,0.061-0.706
	c0.072-1.046,0.106-2.007,0.105-2.938L483.457,149.503z M243.462,21.434c3.796-2.192,8.119-3.351,12.504-3.351
	c4.381,0,8.701,1.159,12.495,3.347l184.408,106.428c0.526,0.303,1.091,0.668,1.777,1.145c3.881,2.7,6.909,6.446,8.757,10.827
	c0.451,1.069,0.827,2.164,1.118,3.256c0.567,2.122,0.854,4.282,0.854,6.421l0.012,71.232h-33.781c-4.993,0-9.041,4.048-9.041,9.041
	s4.048,9.041,9.041,9.041h33.785l0.006,34.357H215.787c-4.993,0-9.041,4.048-9.041,9.041v187.115l-34.357-19.828V282.219
	c0-4.993-4.048-9.041-9.041-9.041H46.611l-0.005-34.357h116.74c4.993,0,9.041-4.048,9.041-9.041V62.485l34.357-19.844v187.139
	c0,4.993,4.048,9.041,9.041,9.041h177.24c4.993,0,9.041-4.048,9.041-9.041c0-4.993-4.048-9.041-9.041-9.041H224.828V32.197
	L243.462,21.434z M48.47,140.113c0.732-1.782,1.664-3.473,2.771-5.026c1.696-2.378,3.755-4.415,6.118-6.053
	c0.668-0.463,1.216-0.815,1.728-1.109l95.218-54.996v147.81H46.603l-0.012-71.162C46.59,146.337,47.223,143.152,48.47,140.113z
	 M57.355,382.999c-0.54-0.376-1.11-0.819-1.801-1.398l-0.275-0.229c-0.573-0.495-1.125-1.019-1.591-1.502
	c-0.03-0.033-0.125-0.135-0.157-0.166c-1.085-1.14-2.069-2.392-2.925-3.721c-0.012-0.018-0.024-0.037-0.035-0.055
	c-1.259-1.969-2.233-4.089-2.893-6.305l-0.069-0.245c-0.127-0.444-0.244-0.891-0.351-1.357l-0.092-0.427
	c-0.083-0.395-0.156-0.793-0.221-1.208c0-0.001-0.019-0.121-0.02-0.123l-0.06-0.387c-0.054-0.397-0.094-0.797-0.13-1.212
	l-0.046-0.475c-0.039-0.561-0.064-1.125-0.064-1.7l-0.012-71.226h107.69v147.809l-95.173-54.927
	C58.606,383.839,58.041,383.475,57.355,382.999z M465.346,364.107l-0.049,0.512c-0.035,0.403-0.076,0.805-0.13,1.195l-0.082,0.53
	c-0.064,0.401-0.136,0.799-0.221,1.197l-0.095,0.441c-0.105,0.457-0.223,0.909-0.348,1.344l-0.07,0.253
	c-1.128,3.765-3.164,7.26-5.907,10.126l-0.081,0.088c-0.517,0.533-1.07,1.056-1.644,1.55l-0.283,0.236
	c-0.685,0.573-1.255,1.013-1.794,1.386c-0.668,0.462-1.216,0.815-1.728,1.109l-184.375,106.49c-3.796,2.193-8.12,3.351-12.504,3.351
	c-4.381,0-8.701-1.157-12.495-3.346l-18.711-10.799V291.261h240.569l0.012,71.168C465.409,362.997,465.384,363.56,465.346,364.107z"
	/>
<g>
</g>
<g>
</g>
<g>
</g>
<g>
</g>
<g>
</g>
<g>
</g>
<g>
</g>
<g>
</g>
<g>
</g>
<g>
</g>
<g>
</g>
<g>
</g>
<g>
</g>
<g>
</g>
<g>
</g>
</svg>
