<?xml version="1.0" encoding="iso-8859-1"?>
<!-- Generator: Adobe Illustrator 19.0.0, SVG Export Plug-In . SVG Version: 6.00 Build 0)  -->
<svg version="1.1" id="Layer_1" xmlns="http://www.w3.org/2000/svg" xmlns:xlink="http://www.w3.org/1999/xlink" x="0px" y="0px"
	 viewBox="0 0 512.001 512.001" style="enable-background:new 0 0 512.001 512.001;" xml:space="preserve">
<path style="fill:#FFE000;stroke:#000000;stroke-width:15;stroke-linecap:round;stroke-linejoin:round;stroke-miterlimit:10;" d="
	M474.445,321.512v-0.002l-0.005-26.203v-0.002v-4.213l-0.005-25.574l-0.008-48.824l-0.004-26.203l-0.007-40.985
	c0-2.995-0.407-5.931-1.16-8.75c-0.405-1.517-0.915-2.997-1.521-4.435c-2.477-5.876-6.574-11.016-11.925-14.74
	c-0.784-0.545-1.584-1.071-2.421-1.553l-22.874-13.202l-21.414-12.358l-17.24-9.949l-65.923-38.046l-25.719-14.844l-19.288-11.132
	l-11.953-6.899c-10.533-6.078-23.509-6.076-34.04,0.007l-11.872,6.857l-19.288,11.14l-25.717,14.853l0,0l-50.391,29.105
	l-15.526,8.967l-28.889,16.686l-21.408,12.365l-11.282,6.516c-0.813,0.469-1.59,0.98-2.353,1.507
	c-3.273,2.268-6.073,5.067-8.333,8.236c-1.517,2.127-2.781,4.422-3.773,6.841c-1.654,4.032-2.557,8.399-2.557,12.899v1.502h0.001
	l0.006,39.41l0.001,1.931c-0.001,0-0.001,0-0.001,0l0.005,24.273l0.005,31.087l0,0l0.007,41.338l0,0v1.313l0.001,4.011v0.849v0.002
	v0.013v0.005l0.004,26.198v0.002l0.001,1.863l0.001,12.617l0.002,8.488l0,0l0.004,18.008v0.007l0,0c0,0.773,0.031,1.539,0.083,2.305
	c0.017,0.224,0.042,0.445,0.063,0.668c0.048,0.55,0.105,1.096,0.178,1.639c0.033,0.235,0.072,0.47,0.11,0.706
	c0.086,0.544,0.184,1.085,0.298,1.625c0.042,0.201,0.084,0.403,0.13,0.603c0.14,0.615,0.298,1.222,0.471,1.825
	c0.033,0.113,0.063,0.228,0.095,0.34c0.909,3.043,2.24,5.93,3.941,8.588c0,0.001,0.001,0.002,0.001,0.002l0.001,0.002
	c1.172,1.832,2.517,3.551,4.026,5.137c0.049,0.053,0.098,0.106,0.148,0.159c0.061,0.064,0.13,0.119,0.192,0.181l0,0
	c0.653,0.668,1.328,1.316,2.039,1.931c0.125,0.11,0.254,0.215,0.381,0.322c0.786,0.661,1.595,1.298,2.445,1.89
	c0.784,0.545,1.584,1.07,2.421,1.553l22.552,13.016l21.414,12.359l11.528,6.653l0,0l6.032,3.482l91.644,52.89l19.288,11.132
	l11.953,6.899c10.533,6.078,23.509,6.076,34.04-0.007l11.872-6.857l19.288-11.14l25.719-14.853l55.553-32.086l10.363-5.985
	l26.36-15.225l21.408-12.365l13.813-7.977c0.813-0.469,1.59-0.98,2.353-1.507c0.851-0.588,1.659-1.226,2.445-1.884
	c0.129-0.106,0.259-0.212,0.386-0.323c0.779-0.671,1.526-1.374,2.236-2.108c0.047-0.048,0.09-0.098,0.136-0.145
	c3.725-3.893,6.475-8.61,8.019-13.767c0.033-0.106,0.06-0.215,0.09-0.322c0.177-0.611,0.338-1.228,0.48-1.849
	c0.046-0.201,0.088-0.403,0.13-0.604c0.113-0.54,0.213-1.084,0.3-1.632c0.037-0.237,0.076-0.474,0.11-0.712
	c0.076-0.545,0.131-1.093,0.18-1.643c0.021-0.225,0.047-0.448,0.063-0.674c0.052-0.767,0.084-1.537,0.084-2.313l0,0v-0.006
	L474.445,321.512z"/>
<g>
	<path style="fill:#164FCE;" d="M474.445,321.512v-0.002l-0.005-26.203v-0.002v-4.213l-0.005-25.574l-0.008-48.824l-0.004-26.203
		l-0.007-40.985c0-2.995-0.407-5.931-1.16-8.75c-0.405-1.517-0.915-2.997-1.521-4.435c-2.477-5.876-6.574-11.016-11.925-14.74
		c-0.784-0.545-1.584-1.071-2.421-1.553l-22.874-13.202l-21.414-12.358l-17.24-9.949l-25.338-14.622v270.71v53.019v48.475
		l14.965-8.645l10.363-5.985l26.36-15.225l21.408-12.365l13.813-7.977c0.813-0.469,1.59-0.98,2.353-1.507
		c0.851-0.588,1.659-1.226,2.445-1.884c0.129-0.106,0.259-0.212,0.386-0.323c0.779-0.671,1.526-1.374,2.236-2.108
		c0.047-0.048,0.09-0.098,0.136-0.145c3.725-3.893,6.475-8.61,8.019-13.767c0.033-0.106,0.06-0.215,0.09-0.322
		c0.177-0.611,0.338-1.228,0.48-1.849c0.046-0.201,0.088-0.403,0.13-0.604c0.113-0.54,0.213-1.084,0.3-1.632
		c0.037-0.237,0.076-0.474,0.11-0.712c0.076-0.545,0.131-1.093,0.18-1.643c0.02-0.225,0.047-0.448,0.063-0.674
		c0.052-0.767,0.084-1.537,0.084-2.313v-0.006L474.445,321.512z"/>
	<path style="fill:#164FCE;" d="M131.672,75.561l-15.526,8.967l-28.89,16.686l-21.408,12.365l-11.282,6.516
		c-0.813,0.469-1.59,0.98-2.353,1.507c-3.273,2.268-6.073,5.067-8.333,8.236c-1.517,2.127-2.781,4.422-3.773,6.841
		c-1.654,4.032-2.557,8.399-2.557,12.899v1.502h0.001l0.006,39.41l0.001,1.931c-0.001,0-0.001,0-0.001,0l0.005,24.273l0.005,31.087
		l0,0l0.007,41.338l0,0v1.313l0.001,4.011v0.849v0.002v0.013v0.005l0.004,26.198v0.002l0.001,1.863l0.001,12.617l0.002,8.488l0,0
		l0.004,18.008v0.007c0,0.773,0.031,1.539,0.083,2.305c0.017,0.224,0.042,0.445,0.063,0.668c0.048,0.55,0.105,1.096,0.178,1.639
		c0.033,0.235,0.072,0.47,0.11,0.706c0.086,0.544,0.184,1.085,0.298,1.625c0.042,0.201,0.084,0.403,0.13,0.603
		c0.14,0.615,0.298,1.222,0.471,1.825c0.033,0.113,0.063,0.228,0.095,0.34c0.909,3.043,2.24,5.93,3.941,8.588l0.001,0.004
		l0.001,0.001c1.172,1.832,2.517,3.551,4.026,5.137c0.049,0.053,0.098,0.106,0.147,0.159c0.063,0.064,0.131,0.119,0.194,0.181
		h-0.001c0.653,0.668,1.328,1.316,2.039,1.931c0.125,0.11,0.254,0.215,0.381,0.322c0.786,0.661,1.595,1.298,2.445,1.89
		c0.784,0.545,1.584,1.07,2.421,1.553l22.552,13.016l21.414,12.359l11.528,6.653l0,0l6.032,3.482l25.341,14.625V69.895
		L131.672,75.561z"/>
</g>
<polygon style="fill:#FFFFFF;" points="313.865,242.664 276.57,242.664 276.57,205.368 242.665,205.368 242.665,242.664 
	205.368,242.664 205.368,276.569 242.665,276.569 242.665,313.864 276.57,313.864 276.57,276.569 313.865,276.569 "/>
<path style="fill:#ED1F34;" d="M313.865,221.567c-4.994,0-9.041,4.047-9.041,9.041v3.014H285.61v-19.214h3.014
	c4.994,0,9.041-4.047,9.041-9.041s-4.047-9.041-9.041-9.041h-58.016c-4.994,0-9.041,4.047-9.041,9.041s4.047,9.041,9.041,9.041
	h3.014v19.214h-19.214v-3.014c0-4.994-4.047-9.041-9.041-9.041s-9.041,4.047-9.041,9.041v58.016c0,4.994,4.047,9.041,9.041,9.041
	s9.041-4.047,9.041-9.041v-3.014h19.214v19.214h-3.014c-4.994,0-9.041,4.047-9.041,9.041s4.047,9.041,9.041,9.041h58.016
	c4.994,0,9.041-4.047,9.041-9.041s-4.047-9.041-9.041-9.041h-3.014v-19.214h19.214v3.014c0,4.994,4.047,9.041,9.041,9.041
	s9.041-4.047,9.041-9.041v-58.016C322.906,225.614,318.859,221.567,313.865,221.567z M276.57,267.528
	c-4.994,0-9.041,4.047-9.041,9.041v28.255h-15.822v-28.255c0-4.994-4.047-9.041-9.041-9.041H214.41v-15.822h28.255
	c4.994,0,9.041-4.047,9.041-9.041v-28.255h15.822v28.255c0,4.994,4.047,9.041,9.041,9.041h28.255v15.822H276.57z"/>
<path d="M483.492,149.585c0-0.925-0.034-1.879-0.106-2.929c-0.016-0.242-0.037-0.48-0.063-0.72l-0.014-0.146
	c-0.061-0.69-0.134-1.388-0.229-2.082c-0.036-0.264-0.077-0.523-0.119-0.781c-0.128-0.802-0.254-1.489-0.397-2.174
	c-0.057-0.269-0.111-0.523-0.169-0.776c-0.18-0.782-0.381-1.561-0.605-2.336l-0.119-0.418c-1.942-6.484-5.451-12.51-10.148-17.415
	l-0.2-0.211c-0.866-0.894-1.819-1.793-2.805-2.643l-0.395-0.333c-1.191-0.995-2.202-1.772-3.185-2.452
	c-1.099-0.761-2.046-1.365-2.987-1.907L277.584,5.777C271.042,1.998,263.59,0,256.036,0c-7.55,0-14.995,1.995-21.534,5.768
	L50.091,112.197c-0.979,0.565-1.951,1.187-3.062,1.96c-1.003,0.699-2.016,1.482-3.102,2.395c-0.204,0.169-0.35,0.289-0.493,0.415
	c-0.784,0.679-1.586,1.433-2.435,2.294c-0.13,0.123-0.257,0.245-0.377,0.373l-0.206,0.218c-1.875,1.969-3.59,4.155-5.074,6.478
	c-0.019,0.029-0.037,0.059-0.057,0.088c-2.139,3.362-3.797,6.991-4.933,10.788l-0.102,0.362c-0.239,0.834-0.438,1.603-0.616,2.382
	c-0.054,0.237-0.108,0.491-0.163,0.745c-0.146,0.698-0.272,1.389-0.381,2.084c-0.057,0.351-0.098,0.609-0.134,0.867
	c-0.096,0.71-0.17,1.401-0.229,2.093l-0.016,0.153c-0.022,0.216-0.042,0.429-0.058,0.646c-0.075,1.085-0.108,2.039-0.108,2.967
	L28.516,319.58l0.001,1.937l-0.008,40.898c0,5.614,1.087,11.109,3.234,16.338c1.256,3.064,2.864,5.978,4.779,8.662
	c2.911,4.084,6.459,7.589,10.545,10.418c1.086,0.752,2.035,1.359,2.982,1.905L234.42,506.225c6.542,3.779,13.991,5.776,21.546,5.776
	c7.55,0,14.995-1.994,21.534-5.767l184.411-106.428c0.973-0.562,1.945-1.184,3.062-1.961c6.697-4.659,11.915-11.108,15.094-18.652
	c0.772-1.828,1.419-3.717,1.925-5.615c0.972-3.637,1.465-7.363,1.466-11.076L483.492,149.585z M132.437,426.439l-73.35-42.364
	c-0.51-0.293-1.057-0.645-1.728-1.109c-2.363-1.636-4.422-3.673-6.118-6.053c-1.109-1.554-2.04-3.244-2.771-5.025
	c-1.248-3.04-1.881-6.227-1.881-9.468l0.025-139.539l-0.001-1.324l0.013-72.047c0-0.577,0.025-1.14,0.063-1.701l0.048-0.477
	c0.036-0.416,0.076-0.82,0.13-1.22l0.078-0.5c0.066-0.417,0.137-0.809,0.221-1.199l0.093-0.434c0.106-0.467,0.223-0.913,0.35-1.354
	l0.076-0.27c0.655-2.193,1.629-4.315,2.887-6.282c0.016-0.024,0.03-0.048,0.046-0.074c0.852-1.324,1.832-2.569,2.913-3.703
	c0.002-0.002,0.005-0.005,0.007-0.007c0.082-0.078,0.164-0.158,0.241-0.239c0.55-0.561,1.037-1.023,1.496-1.421l0.265-0.222
	c0.69-0.579,1.277-1.034,1.818-1.413c0.679-0.471,1.244-0.835,1.773-1.14l73.306-42.308v340.893H132.437z M465.41,149.577
	l-0.035,212.917c-0.001,2.139-0.288,4.299-0.854,6.418c-0.293,1.096-0.669,2.19-1.116,3.252c-1.849,4.389-4.878,8.131-8.758,10.832
	c-0.69,0.479-1.256,0.844-1.779,1.145l-73.3,42.304V171.392c0-4.994-4.047-9.041-9.041-9.041c-4.994,0-9.041,4.047-9.041,9.041
	v265.49l-93.025,53.688c-3.793,2.189-8.114,3.347-12.495,3.347c-4.383,0-8.707-1.159-12.502-3.351l-92.943-53.681V75.116
	l93.02-53.684c3.794-2.189,8.114-3.348,12.495-3.348c4.384,0,8.707,1.16,12.504,3.351l92.947,53.683v43.255
	c0,4.994,4.047,9.041,9.041,9.041c4.994,0,9.041-4.047,9.041-9.041V85.563l73.345,42.362c0.509,0.293,1.057,0.646,1.734,1.114
	c0.529,0.369,1.102,0.81,1.79,1.385l0.282,0.235c0.563,0.483,1.104,0.993,1.609,1.514l0.115,0.123
	c2.744,2.867,4.781,6.362,5.908,10.125l0.083,0.299c0.111,0.385,0.228,0.838,0.334,1.296l0.096,0.447
	c0.08,0.386,0.154,0.786,0.218,1.191c0,0.002,0.02,0.124,0.02,0.127l0.064,0.407c0.054,0.393,0.094,0.792,0.128,1.192l0.051,0.52
	C465.384,148.439,465.41,149.007,465.41,149.577z"/>
<g>
</g>
<g>
</g>
<g>
</g>
<g>
</g>
<g>
</g>
<g>
</g>
<g>
</g>
<g>
</g>
<g>
</g>
<g>
</g>
<g>
</g>
<g>
</g>
<g>
</g>
<g>
</g>
<g>
</g>
</svg>
