<?xml version="1.0" encoding="iso-8859-1"?>
<!-- Generator: Adobe Illustrator 19.0.0, SVG Export Plug-In . SVG Version: 6.00 Build 0)  -->
<svg version="1.1" id="Layer_1" xmlns="http://www.w3.org/2000/svg" xmlns:xlink="http://www.w3.org/1999/xlink" x="0px" y="0px"
	 viewBox="0 0 512.002 512.002" style="enable-background:new 0 0 512.002 512.002;" xml:space="preserve">
<path style="fill:#FFE000;" d="M473.104,371.851c0.176-0.611,0.336-1.227,0.479-1.849c0.046-0.201,0.089-0.401,0.131-0.603
	c0.113-0.541,0.213-1.085,0.3-1.634c0.037-0.237,0.076-0.474,0.11-0.711c0.075-0.545,0.131-1.093,0.18-1.644
	c0.021-0.225,0.047-0.448,0.063-0.674c0.052-0.767,0.084-1.537,0.084-2.313l0,0l0,0v-0.006l-0.006-40.904v-0.001l-0.005-26.204
	v-0.002v-4.213l-0.004-25.574l0,0l-0.008-48.824l-0.005-26.204l-0.006-40.985c0-2.996-0.407-5.93-1.16-8.75
	c-0.405-1.517-0.915-2.997-1.521-4.435c-2.477-5.877-6.574-11.016-11.925-14.74c-0.784-0.545-1.584-1.071-2.419-1.554l-22.874-13.2
	l-21.414-12.358l-17.239-9.949l-65.926-38.046l-25.717-14.842l-19.288-11.132l-11.953-6.898c-10.533-6.078-23.509-6.077-34.04,0.006
	l-11.872,6.857l-19.288,11.14l-25.717,14.854l0,0l-65.918,38.07l-28.889,16.686L65.85,113.578l-11.284,6.517
	c-0.811,0.469-1.59,0.979-2.353,1.507c-3.272,2.266-6.073,5.068-8.333,8.236c-1.517,2.128-2.781,4.423-3.773,6.841
	c-1.655,4.031-2.558,8.399-2.557,12.899l0.006,40.912l0.005,26.204l0.012,73.738v4.011v0.85v0.001v0.013l0,0v0.005l0,0l0.005,26.2
	v0.001v1.863l0.002,12.617l0.004,26.497v0.006l0,0c0,0.773,0.033,1.539,0.084,2.305c0.016,0.224,0.042,0.445,0.061,0.668
	c0.048,0.55,0.105,1.096,0.18,1.638c0.033,0.236,0.072,0.471,0.108,0.706c0.087,0.545,0.186,1.087,0.298,1.625
	c0.042,0.201,0.086,0.403,0.131,0.603c0.14,0.614,0.298,1.221,0.471,1.825c0.033,0.113,0.061,0.227,0.095,0.34
	c0.909,3.043,2.24,5.929,3.94,8.589l0.001,0.001c0,0.001,0.001,0.001,0.001,0.001c1.172,1.832,2.517,3.553,4.026,5.137
	c0.051,0.052,0.099,0.106,0.148,0.158c0.709,0.735,1.454,1.439,2.231,2.113c0.125,0.108,0.254,0.213,0.382,0.321
	c0.786,0.661,1.595,1.3,2.445,1.89c0.784,0.545,1.584,1.071,2.419,1.554l22.552,13.015l21.414,12.359l17.561,10.135l91.644,52.89
	l19.288,11.132l11.953,6.898c10.533,6.078,23.509,6.077,34.04-0.006l11.872-6.857l19.288-11.14l25.717-14.853l55.554-32.086
	l10.363-5.985l26.36-15.225l21.408-12.365l13.813-7.978c0.811-0.469,1.59-0.979,2.353-1.507c0.851-0.59,1.659-1.226,2.446-1.883
	c0.128-0.107,0.258-0.213,0.385-0.323c0.78-0.672,1.526-1.374,2.237-2.11c0.047-0.048,0.09-0.098,0.136-0.146
	c3.724-3.891,6.476-8.609,8.02-13.766C473.045,372.067,473.073,371.957,473.104,371.851z"/>
<path style="fill:#164FCE;" d="M165.588,93.056V55.971l-49.443,28.556l-28.889,16.686L65.85,113.578l-11.284,6.517
	c-0.811,0.469-1.59,0.979-2.353,1.507c-3.272,2.266-6.073,5.068-8.333,8.236c-1.517,2.128-2.781,4.423-3.773,6.841
	c-1.655,4.031-2.558,8.399-2.557,12.899l0.006,40.912l0.005,26.204l0.012,73.738v4.011v0.849v0.002v0.013l0,0v0.005l0,0l0.005,26.2
	v0.001v1.863l0.002,12.617l0.004,26.497v0.006l0,0c0,0.773,0.033,1.539,0.084,2.305c0.016,0.224,0.042,0.445,0.061,0.668
	c0.048,0.55,0.105,1.096,0.18,1.638c0.033,0.236,0.072,0.471,0.108,0.706c0.087,0.545,0.186,1.086,0.298,1.625
	c0.042,0.201,0.086,0.403,0.131,0.603c0.14,0.615,0.298,1.222,0.471,1.825c0.033,0.113,0.061,0.227,0.095,0.34
	c0.909,3.043,2.24,5.93,3.94,8.589l0.001,0.001c0,0.001,0.001,0.001,0.001,0.001c1.172,1.834,2.517,3.553,4.026,5.137
	c0.051,0.052,0.099,0.106,0.148,0.158c0.709,0.735,1.454,1.439,2.231,2.113c0.125,0.108,0.254,0.213,0.382,0.321
	c0.786,0.661,1.595,1.3,2.445,1.89c0.784,0.545,1.584,1.07,2.419,1.554l22.552,13.015l21.414,12.359l17.561,10.135l49.452,28.539
	v-310.72V93.056H165.588z"/>
<g>
	<path style="fill:#ED1F34;" d="M474.445,321.512L474.445,321.512l-0.005-26.206v-0.002v-4.213l-0.004-25.574l-0.008-48.824
		l-0.005-26.204l-0.006-40.985c0-2.996-0.407-5.93-1.16-8.75c-0.405-1.517-0.915-2.997-1.521-4.435
		c-2.477-5.877-6.574-11.016-11.925-14.74c-0.784-0.545-1.584-1.071-2.419-1.554l-22.874-13.2l-21.414-12.358l-17.239-9.949
		L346.418,55.98v400.046l39.077-22.57l10.363-5.985l26.36-15.225l21.408-12.365l13.813-7.978c0.811-0.469,1.59-0.979,2.353-1.507
		c0.851-0.59,1.659-1.226,2.446-1.883c0.128-0.107,0.258-0.213,0.385-0.323c0.78-0.671,1.526-1.374,2.237-2.11
		c0.047-0.048,0.09-0.098,0.136-0.146c3.724-3.891,6.476-8.609,8.02-13.766c0.031-0.106,0.059-0.215,0.09-0.322
		c0.176-0.611,0.336-1.228,0.479-1.85c0.046-0.201,0.089-0.401,0.131-0.603c0.113-0.541,0.213-1.085,0.3-1.633
		c0.037-0.237,0.076-0.474,0.11-0.711c0.075-0.545,0.131-1.093,0.18-1.643c0.021-0.225,0.047-0.448,0.063-0.674
		c0.052-0.767,0.084-1.537,0.084-2.313l0,0v-0.006L474.445,321.512z"/>
	<path style="fill:#ED1F34;" d="M201.752,262.328v16.335c0,41.352,36.087,31.345,54.248,44.296v-60.63L201.752,262.328
		L201.752,262.328z"/>
	<rect x="256.005" y="201.696" style="fill:#ED1F34;" width="54.248" height="60.626"/>
</g>
<path d="M310.25,192.658H201.752c-4.993,0-9.041,4.048-9.041,9.041v76.965c0,35.541,23.428,41.24,40.534,45.4
	c6.816,1.658,13.253,3.224,17.508,6.257c1.571,1.12,3.409,1.681,5.249,1.681c1.84,0,3.678-0.559,5.249-1.681
	c4.254-3.033,10.692-4.599,17.508-6.257c17.106-4.16,40.534-9.859,40.534-45.4v-76.965
	C319.291,196.706,315.243,192.658,310.25,192.658z M301.208,278.664c0,21.329-10.059,23.776-26.724,27.829
	c-6.242,1.519-12.647,3.076-18.483,5.976c-5.836-2.899-12.241-4.457-18.483-5.976c-16.665-4.053-26.724-6.5-26.724-27.829v-67.924
	h90.415v67.924H301.208z M483.457,149.503c0-3.711-0.494-7.438-1.466-11.08c-0.506-1.897-1.155-3.787-1.925-5.614
	c-3.179-7.543-8.398-13.991-15.096-18.652c-1.115-0.775-2.087-1.398-3.062-1.96L277.499,5.768C270.962,1.995,263.514,0,255.965,0
	c-7.555,0-15.005,1.998-21.547,5.776L50.043,112.265c-0.945,0.546-1.89,1.15-2.979,1.904c-4.086,2.831-7.633,6.335-10.546,10.419
	c-1.912,2.683-3.519,5.596-4.775,8.657c-2.147,5.231-3.234,10.726-3.234,16.334l0.035,212.916c0,0.921,0.034,1.875,0.105,2.917
	c0.017,0.235,0.039,0.469,0.061,0.703l0.014,0.143c0.06,0.694,0.134,1.385,0.231,2.096c0.034,0.24,0.071,0.477,0.108,0.716
	l0.025,0.158c0.11,0.691,0.234,1.375,0.38,2.076c0.053,0.253,0.107,0.508,0.163,0.747c0.177,0.776,0.377,1.544,0.608,2.351
	l0.112,0.393c1.143,3.826,2.82,7.485,4.986,10.873c0.014,0.022,0.028,0.043,0.042,0.065c1.477,2.3,3.177,4.466,5.049,6.433
	c0.04,0.042,0.153,0.164,0.194,0.205c0.887,0.921,1.837,1.819,2.827,2.677l0.481,0.405c1.098,0.922,2.111,1.703,3.096,2.389
	c1.114,0.775,2.087,1.398,3.064,1.963l184.411,106.428c6.539,3.773,13.985,5.768,21.534,5.768l0,0
	c7.554,0,15.005-1.998,21.547-5.776l184.372-106.491c0.949-0.548,1.895-1.152,2.979-1.904c0.995-0.688,1.979-1.444,3.097-2.378
	c0.005-0.004,0.104-0.086,0.11-0.09l0.381-0.321c0.989-0.852,1.942-1.75,2.81-2.647l0.194-0.205
	c4.695-4.906,8.205-10.93,10.152-17.432l0.112-0.397c0.224-0.773,0.427-1.554,0.608-2.345l0.168-0.769
	c0.143-0.684,0.27-1.372,0.38-2.067l0.019-0.121c0.041-0.256,0.081-0.511,0.118-0.778c0.095-0.69,0.169-1.385,0.229-2.073
	l0.014-0.145c0.024-0.239,0.047-0.479,0.063-0.72c0.071-1.044,0.105-2,0.105-2.932L483.457,149.503z M268.539,490.566
	c-3.796,2.193-8.119,3.351-12.504,3.351c-4.381,0-8.701-1.157-12.495-3.347l-68.912-39.771V183.668c0-4.993-4.048-9.041-9.041-9.041
	c-4.993,0-9.041,4.048-9.041,9.041v256.694l-97.413-56.219c-0.526-0.303-1.091-0.668-1.778-1.146
	c-0.54-0.375-1.109-0.817-1.783-1.383l-0.288-0.24c-0.576-0.499-1.128-1.022-1.596-1.507c-0.027-0.028-0.128-0.136-0.154-0.164
	c-1.098-1.155-2.093-2.424-2.957-3.773c-0.008-0.014-0.018-0.029-0.028-0.043c-1.247-1.958-2.211-4.066-2.869-6.271l-0.066-0.239
	c-0.127-0.445-0.245-0.891-0.351-1.357l-0.092-0.427c-0.083-0.395-0.156-0.793-0.217-1.185l-0.082-0.523
	c-0.054-0.399-0.095-0.802-0.13-1.201l-0.048-0.495c-0.039-0.561-0.064-1.125-0.064-1.7l-0.035-212.912
	c0-3.24,0.632-6.425,1.881-9.466c0.731-1.781,1.662-3.471,2.77-5.025c1.696-2.378,3.755-4.415,6.116-6.051
	c0.671-0.464,1.221-0.819,1.73-1.111l97.458-56.289v75.868c0,4.993,4.048,9.041,9.041,9.041c4.993,0,9.041-4.048,9.041-9.041V61.191
	l68.834-39.757c3.796-2.192,8.119-3.351,12.504-3.351c4.381,0,8.701,1.157,12.495,3.347l68.912,39.771v389.607L268.539,490.566z
	 M465.348,364.1l-0.051,0.52c-0.035,0.403-0.076,0.805-0.129,1.195l-0.082,0.53c-0.064,0.404-0.139,0.804-0.227,1.227l-0.089,0.411
	c-0.105,0.457-0.223,0.909-0.348,1.344l-0.07,0.253c-1.128,3.765-3.164,7.26-5.908,10.126l-0.083,0.09
	c-0.512,0.529-1.066,1.05-1.654,1.558l-0.269,0.224c-0.69,0.576-1.26,1.017-1.797,1.389c-0.668,0.463-1.216,0.815-1.728,1.109
	l-97.458,56.288V71.638l97.413,56.219c0.526,0.303,1.091,0.668,1.778,1.145c3.881,2.7,6.909,6.445,8.758,10.83
	c0.448,1.064,0.825,2.159,1.116,3.254c0.567,2.122,0.854,4.282,0.854,6.419l0.035,212.917
	C465.41,362.994,465.384,363.562,465.348,364.1z"/>
<g>
</g>
<g>
</g>
<g>
</g>
<g>
</g>
<g>
</g>
<g>
</g>
<g>
</g>
<g>
</g>
<g>
</g>
<g>
</g>
<g>
</g>
<g>
</g>
<g>
</g>
<g>
</g>
<g>
</g>
</svg>
