<?xml version="1.0" encoding="iso-8859-1"?>
<!-- Generator: Adobe Illustrator 19.0.0, SVG Export Plug-In . SVG Version: 6.00 Build 0)  -->
<svg version="1.1" id="Layer_1" xmlns="http://www.w3.org/2000/svg" xmlns:xlink="http://www.w3.org/1999/xlink" x="0px" y="0px"
	 viewBox="0 0 512 512" style="enable-background:new 0 0 512 512;" xml:space="preserve">
<g>
	<path style="fill:#ED1F34;" d="M57.616,145.873c-0.464,2.127-0.713,4.315-0.713,6.542v1.369h0.001l0.005,35.918l0.001,1.76
		c-0.001,0-0.001,0-0.001,0l0.004,22.123l0.004,28.332l0,0l0.007,37.676l0,0v1.197l0.001,3.655v0.773v0.002v0.012v0.004
		l0.003,23.877v0.002l0.001,1.698l0.001,11.499l0.002,7.736l0,0l0.003,16.413v0.007c0,0.704,0.029,1.403,0.076,2.1
		c0.015,0.205,0.038,0.407,0.057,0.61c0.044,0.501,0.096,0.999,0.163,1.493c0.03,0.215,0.066,0.43,0.1,0.644
		c0.078,0.497,0.168,0.99,0.271,1.482c0.01,0.045,0.021,0.09,0.029,0.135L256,249.408L57.616,145.873z"/>
	<path style="fill:#ED1F34;" d="M94.289,385.936l18.233,10.523l10.507,6.064l0,0l5.498,3.173l83.524,48.203l17.579,10.146
		l10.894,6.288c9.599,5.54,21.426,5.538,31.024-0.007l10.82-6.249l17.579-10.153l23.44-13.537l50.631-29.243l9.445-5.455
		l24.024-13.876l10.2-5.891L256,249.408L94.289,385.936z"/>
	<path style="fill:#ED1F34;" d="M417.711,112.88l-18.525-10.692l-15.713-9.068l-60.084-34.676l-23.44-13.527l-17.579-10.146
		l-10.894-6.288c-9.599-5.54-21.426-5.538-31.024,0.007l-10.82,6.248l-17.579,10.153L188.613,58.43l0,0l-45.926,26.526l-14.15,8.172
		l-26.331,15.207l-7.895,4.56L256,243.914L417.711,112.88z"/>
	<path style="fill:#ED1F34;" d="M454.385,352.944c0.014-0.063,0.027-0.123,0.041-0.186c0.103-0.492,0.194-0.989,0.274-1.488
		c0.034-0.216,0.069-0.432,0.1-0.649c0.069-0.497,0.12-0.997,0.164-1.498c0.019-0.205,0.043-0.409,0.057-0.614
		c0.047-0.699,0.077-1.401,0.077-2.108v-0.005l-0.007-37.28v-0.002l-0.004-23.882v-0.002v-3.84l-0.004-23.308l-0.008-44.498
		l-0.003-23.882l-0.007-37.354c0-2.2-0.252-4.36-0.704-6.46L266.987,249.408L454.385,352.944z"/>
</g>
<path style="fill:#259245;" d="M452.621,140.332c-2.258-5.355-5.991-10.04-10.868-13.434c-0.714-0.497-1.444-0.976-2.206-1.415
	L418.7,113.451l-0.99-0.571L256,220.686L94.311,112.895l-11.616,6.709l-10.283,5.939c-0.741,0.427-1.449,0.893-2.145,1.373
	c-2.983,2.067-5.535,4.618-7.594,7.506c-1.382,1.938-2.535,4.03-3.439,6.235c-0.689,1.679-1.227,3.425-1.617,5.214l155.301,103.536
	L57.633,352.932c0.03,0.138,0.058,0.277,0.09,0.414c0.127,0.56,0.271,1.114,0.43,1.663c0.03,0.103,0.057,0.208,0.087,0.31
	c0.828,2.773,2.041,5.405,3.592,7.827c0,0.001,0.001,0.002,0.001,0.002l0.001,0.002c1.068,1.67,2.294,3.237,3.67,4.682
	c0.045,0.048,0.089,0.097,0.135,0.145c0.056,0.058,0.119,0.109,0.175,0.165l0,0c0.596,0.609,1.211,1.2,1.858,1.76
	c0.114,0.1,0.232,0.196,0.347,0.293c0.716,0.602,1.454,1.183,2.228,1.723c0.714,0.497,1.444,0.976,2.206,1.415l20.554,11.863
	l1.283,0.741L256,278.129l161.689,107.791l9.31-5.378l12.589-7.27c0.741-0.427,1.449-0.893,2.145-1.373
	c0.776-0.536,1.512-1.117,2.228-1.717c0.118-0.098,0.236-0.193,0.352-0.294c0.71-0.612,1.391-1.253,2.038-1.922
	c0.043-0.044,0.082-0.089,0.124-0.132c3.395-3.548,5.901-7.847,7.309-12.547c0.03-0.097,0.055-0.196,0.082-0.293
	c0.161-0.557,0.308-1.12,0.437-1.685c0.026-0.122,0.053-0.244,0.078-0.365L299.081,249.408l155.28-103.521
	c-0.11-0.508-0.22-1.014-0.353-1.514C453.639,142.992,453.174,141.642,452.621,140.332z"/>
<polygon style="fill:#FFFFFF;" points="8.79,273.305 232.103,273.305 232.103,512 279.897,512 279.897,273.305 503.21,273.305 
	503.21,225.511 279.897,225.511 279.897,0 232.103,6.592 232.103,225.511 8.79,225.511 "/>
<path d="M463.305,152.344c-0.001-3.384-0.45-6.781-1.336-10.097c-0.463-1.732-1.053-3.453-1.755-5.116
	c-2.898-6.874-7.654-12.751-13.757-16.999c-1.013-0.704-1.9-1.271-2.791-1.787l-168.072-97c-5.959-3.439-12.746-5.256-19.625-5.256
	c-6.886,0-13.677,1.821-19.638,5.264L68.294,118.406c-0.85,0.49-1.713,1.04-2.72,1.737c-3.725,2.581-6.957,5.776-9.607,9.493
	c-1.745,2.445-3.21,5.101-4.356,7.895c-1.956,4.767-2.948,9.774-2.948,14.891l0.008,37.276l-0.001,1.766l0.026,155.005
	c0,0.846,0.031,1.715,0.098,2.701c0.015,0.201,0.034,0.4,0.054,0.598l0.013,0.132c0.056,0.633,0.122,1.262,0.21,1.91
	c0.033,0.236,0.07,0.47,0.122,0.79c0.1,0.633,0.214,1.262,0.347,1.9c0.049,0.232,0.099,0.463,0.148,0.679
	c0.162,0.71,0.344,1.41,0.558,2.16l0.097,0.342c1.033,3.459,2.545,6.766,4.496,9.831c0.018,0.026,0.034,0.054,0.052,0.08
	c1.353,2.117,2.916,4.11,4.609,5.888l0.2,0.212c0.114,0.12,0.235,0.237,0.358,0.353c0.768,0.779,1.496,1.464,2.208,2.08
	c0.131,0.114,0.264,0.224,0.449,0.378c0.99,0.834,1.913,1.546,2.827,2.183c1.013,0.704,1.9,1.271,2.791,1.787l168.072,97
	c5.959,3.438,12.745,5.255,19.625,5.256c0.001,0,0.001,0,0.002,0c6.885,0,13.676-1.821,19.637-5.265l168.035-97.051
	c0.85-0.49,1.713-1.04,2.715-1.733c0.902-0.624,1.801-1.314,2.902-2.235c0.135-0.111,0.269-0.223,0.368-0.309
	c0.899-0.775,1.768-1.593,2.557-2.408l0.182-0.192c4.281-4.472,7.48-9.963,9.249-15.872l0.108-0.377
	c0.204-0.705,0.389-1.416,0.555-2.143c0.052-0.229,0.101-0.457,0.151-0.694c0.131-0.622,0.246-1.25,0.347-1.889l0.019-0.118
	c0.036-0.231,0.073-0.46,0.105-0.69c0.087-0.632,0.154-1.268,0.209-1.897l0.013-0.133c0.023-0.218,0.043-0.435,0.057-0.655
	c0.066-0.956,0.097-1.827,0.097-2.671L463.305,152.344z M362.142,281.545h84.703l0.01,56.475L362.142,281.545z M446.825,160.815
	l0.01,56.455h-84.692L446.825,160.815z M437.046,133.662c3.232,2.249,5.804,5.299,7.513,8.858L332.432,217.27h-44.295v-8.105
	l129.887-86.591l17.404,10.044C435.909,132.897,436.424,133.23,437.046,133.662z M288.137,47.614l113.962,65.77l-113.962,75.975
	V47.614z M223.863,47.586v141.772L109.92,113.396L223.863,47.586z M69.384,139.206c1.544-2.168,3.42-4.022,5.568-5.512
	c0.622-0.431,1.123-0.753,1.58-1.015l17.467-10.089l129.861,86.575v8.105l-44.295-0.001L67.429,142.511
	C67.988,141.354,68.642,140.246,69.384,139.206z M149.857,217.269l-29.41-0.001l-55.291,0.001l-0.011-56.474L149.857,217.269z
	 M149.858,281.545l-84.682,56.454l-0.01-56.454H149.858z M74.957,365.157c-0.493-0.344-1.028-0.759-1.657-1.288l-0.242-0.202
	c-0.419-0.363-0.862-0.784-1.363-1.295c-0.071-0.073-0.145-0.146-0.22-0.216c-0.002-0.003-0.004-0.006-0.007-0.008
	c-0.984-1.034-1.878-2.17-2.654-3.375c-0.014-0.023-0.027-0.044-0.042-0.067c-0.497-0.778-0.936-1.584-1.333-2.408l112.128-74.752
	h44.295v8.105L93.976,376.241l-17.404-10.044C76.091,365.918,75.576,365.586,74.957,365.157z M223.863,451.202l-113.962-65.77
	l113.962-75.974V451.202z M256.033,466.245L256.033,466.245c-3.995,0-7.933-1.055-11.389-3.05l-4.3-2.482v-166.6
	c0-0.008,0-0.016,0-0.016v-20.792c0-4.552-3.688-8.24-8.24-8.24h-54.985c-0.001,0-0.003,0-0.005,0H65.165l-0.005-31.314
	l17.244-0.001l149.7,0.002c2.185,0,4.281-0.868,5.828-2.413c1.545-1.546,2.413-3.641,2.413-5.828v-20.784c0,0,0-0.018,0-0.024
	V38.067l4.23-2.444c3.46-1.997,7.4-3.054,11.396-3.054c3.993,0,7.931,1.055,11.387,3.05l4.3,2.482v166.6c0,0.008,0,0.016,0,0.016
	v20.793c0,4.552,3.688,8.24,8.24,8.24h55.02c0.005,0,0.012,0.001,0.018,0.001s0.01-0.001,0.015-0.001h111.887l0.007,31.313H334.959
	c-0.047,0-0.094-0.001-0.142,0h-54.92c-2.185,0-4.281,0.868-5.828,2.414c-1.545,1.545-2.413,3.641-2.413,5.826l0.007,112.188
	c0,4.552,3.689,8.24,8.24,8.24c4.552,0,8.24-3.689,8.24-8.24l-0.004-76.035L402.08,385.42l-113.939,65.808l0.002-29.321
	c0-4.552-3.688-8.241-8.239-8.241c-0.001,0-0.001,0-0.001,0c-4.551,0-8.24,3.688-8.24,8.239l-0.003,38.843l-4.232,2.445
	C263.968,465.189,260.028,466.245,256.033,466.245z M440.579,362.078l-0.148,0.157c-0.469,0.485-0.972,0.959-1.521,1.432
	l-0.232,0.192c-0.632,0.528-1.151,0.931-1.632,1.262c-0.622,0.431-1.123,0.753-1.58,1.015L418,376.227L288.137,289.65v-8.105h44.296
	l112.135,74.758C443.537,358.432,442.187,360.4,440.579,362.078z"/>
<g>
</g>
<g>
</g>
<g>
</g>
<g>
</g>
<g>
</g>
<g>
</g>
<g>
</g>
<g>
</g>
<g>
</g>
<g>
</g>
<g>
</g>
<g>
</g>
<g>
</g>
<g>
</g>
<g>
</g>
</svg>
