<?xml version="1.0" encoding="iso-8859-1"?>
<!-- Generator: Adobe Illustrator 19.0.0, SVG Export Plug-In . SVG Version: 6.00 Build 0)  -->
<svg version="1.1" id="Layer_1" xmlns="http://www.w3.org/2000/svg" xmlns:xlink="http://www.w3.org/1999/xlink" x="0px" y="0px"
	 viewBox="0 0 512 512" style="enable-background:new 0 0 512 512;" xml:space="preserve">
<path style="fill:#FFFFFF;" d="M473.104,371.851c0.176-0.611,0.336-1.228,0.479-1.85c0.046-0.2,0.089-0.401,0.131-0.603
	c0.113-0.54,0.213-1.085,0.3-1.634c0.037-0.236,0.076-0.473,0.11-0.711c0.075-0.545,0.131-1.092,0.18-1.643
	c0.021-0.225,0.047-0.447,0.063-0.674c0.052-0.767,0.084-1.537,0.084-2.313l0,0l0,0v-0.006l-0.006-40.904v-0.002l-0.005-26.203
	v-0.002v-4.213l-0.004-25.574l0,0l-0.008-48.824l-0.005-26.204l-0.006-40.984c0-2.995-0.408-5.931-1.16-8.75
	c-0.405-1.517-0.915-2.997-1.521-4.435c-2.477-5.877-6.574-11.017-11.925-14.74c-0.784-0.545-1.584-1.071-2.419-1.553
	l-22.874-13.202l-21.414-12.358l-17.239-9.949l-65.926-38.046l-25.717-14.844l-19.288-11.132l-11.953-6.899
	c-10.533-6.078-23.509-6.076-34.04,0.007l-11.872,6.857l-19.288,11.14l-25.717,14.854v-0.001l-65.918,38.072l-28.889,16.686
	l-21.406,12.365l-11.284,6.517c-0.811,0.468-1.59,0.979-2.353,1.506c-3.272,2.268-6.073,5.068-8.333,8.235
	c-1.517,2.129-2.781,4.424-3.773,6.843c-1.655,4.031-2.558,8.399-2.557,12.899l0.006,40.912l0.005,26.204l0.012,73.738v4.011v0.85
	v0.001v0.013l0,0v0.005l0,0l0.005,26.2l0,0v1.864l0.002,12.617l0.004,26.497v0.006l0,0c0,0.773,0.033,1.539,0.084,2.305
	c0.016,0.223,0.042,0.445,0.061,0.668c0.048,0.548,0.105,1.096,0.18,1.638c0.033,0.236,0.072,0.471,0.108,0.708
	c0.087,0.544,0.186,1.086,0.298,1.625c0.042,0.201,0.086,0.403,0.131,0.603c0.14,0.615,0.298,1.222,0.471,1.825
	c0.033,0.113,0.061,0.227,0.095,0.34c0.909,3.042,2.24,5.93,3.94,8.589l0.001,0.001l0.001,0.002
	c1.172,1.832,2.517,3.551,4.025,5.137c0.051,0.052,0.099,0.106,0.148,0.158c0.709,0.735,1.454,1.439,2.231,2.113
	c0.125,0.11,0.254,0.215,0.382,0.322c0.786,0.661,1.595,1.298,2.445,1.89c0.784,0.545,1.584,1.07,2.419,1.553l22.552,13.015
	l21.414,12.36l17.561,10.134l91.644,52.89l19.288,11.132l11.953,6.899c10.533,6.078,23.509,6.076,34.04-0.007l11.872-6.857
	l19.288-11.14l25.717-14.853l55.554-32.086l10.363-5.985l26.36-15.225l21.408-12.365l13.813-7.978
	c0.811-0.468,1.59-0.979,2.353-1.506c0.851-0.588,1.659-1.226,2.446-1.884c0.128-0.107,0.258-0.212,0.385-0.322
	c0.78-0.673,1.526-1.375,2.237-2.11c0.047-0.048,0.09-0.098,0.136-0.146c3.724-3.891,6.476-8.609,8.02-13.765
	C473.045,372.067,473.073,371.958,473.104,371.851z"/>
<path style="fill:#164FCE;" d="M96.484,416.138l2.092,1.208l17.561,10.134l91.644,52.89l19.288,11.132l11.953,6.899
	c10.533,6.078,23.509,6.076,34.04-0.007l11.872-6.857l19.288-11.14l25.717-14.853l55.554-32.086l10.363-5.985l26.36-15.225
	l21.408-12.365l13.813-7.977c0.811-0.469,1.59-0.98,2.353-1.507c0.851-0.588,1.659-1.226,2.446-1.884
	c0.128-0.107,0.258-0.212,0.385-0.322c0.78-0.673,1.526-1.375,2.237-2.11c0.047-0.048,0.09-0.098,0.136-0.146
	c3.724-3.891,6.476-8.609,8.02-13.766c0.031-0.106,0.059-0.215,0.09-0.322c0.176-0.611,0.336-1.228,0.479-1.85
	c0.046-0.2,0.089-0.401,0.131-0.603c0.113-0.54,0.213-1.085,0.3-1.634c0.037-0.236,0.076-0.473,0.11-0.711
	c0.075-0.544,0.131-1.092,0.18-1.643c0.021-0.225,0.047-0.447,0.063-0.674c0.052-0.767,0.084-1.537,0.084-2.313l0,0v-0.006
	l-0.006-40.902v-0.002l-0.004-17.286H285.667L96.484,416.138z"/>
<path style="fill:#ED1F34;" d="M474.424,207.77l-0.002-17.28l-0.006-40.985c0-2.995-0.408-5.931-1.16-8.75
	c-0.405-1.517-0.915-2.997-1.521-4.435c-2.477-5.876-6.574-11.016-11.925-14.74c-0.784-0.545-1.584-1.071-2.419-1.553
	l-22.874-13.202l-21.414-12.358l-17.239-9.949l-65.925-38.046l-25.717-14.844l-19.288-11.132l-11.953-6.899
	c-10.533-6.078-23.509-6.076-34.04,0.007l-11.872,6.857l-19.288,11.14l-25.717,14.853l0,0l-65.918,38.072L96.503,95.873
	l189.155,111.896h188.766V207.77z"/>
<polygon style="fill:#333333;" points="37.554,176.195 37.556,190.49 37.56,216.693 37.572,290.431 37.574,294.442 37.574,295.291 
	37.574,295.293 37.574,295.307 37.574,295.307 37.574,295.311 37.574,295.311 37.578,321.51 37.578,321.511 37.578,323.375 
	37.581,335.789 172.459,255.999 "/>
<path style="fill:#048B7D;" d="M283.194,286.141h191.245l-0.002-20.624l-0.007-39.664H283.185c-1.619,0-3.209-0.435-4.604-1.26
	L78.532,106.252l-12.683,7.326l-11.284,6.516c-0.811,0.469-1.59,0.98-2.353,1.507c-3.272,2.268-6.073,5.067-8.333,8.236
	c-1.517,2.127-2.781,4.422-3.773,6.841c-1.655,4.032-2.558,8.399-2.557,12.899l0.001,5.606l157.27,93.035
	c2.751,1.627,4.439,4.586,4.439,7.782s-1.687,6.154-4.439,7.782L37.585,356.795v5.694v0.006l0,0c0,0.773,0.033,1.539,0.084,2.305
	c0.016,0.223,0.042,0.445,0.061,0.668c0.048,0.548,0.105,1.096,0.18,1.638c0.033,0.236,0.072,0.471,0.108,0.708
	c0.087,0.544,0.186,1.086,0.298,1.625c0.042,0.201,0.086,0.403,0.131,0.603c0.14,0.615,0.298,1.222,0.471,1.825
	c0.033,0.113,0.061,0.227,0.095,0.34c0.909,3.042,2.24,5.93,3.94,8.589l0.001,0.001l0.001,0.002
	c1.172,1.832,2.517,3.551,4.025,5.137c0.051,0.052,0.099,0.106,0.148,0.158c0.709,0.735,1.454,1.441,2.231,2.113
	c0.125,0.11,0.254,0.215,0.382,0.322c0.786,0.661,1.595,1.298,2.445,1.89c0.784,0.545,1.584,1.07,2.419,1.553l22.552,13.016
	l1.345,0.776l200.084-118.363C279.983,286.577,281.573,286.141,283.194,286.141z"/>
<path style="fill:#FFE000;" d="M199.259,255.999c0-3.196-1.687-6.154-4.439-7.782l-157.27-93.034l0.004,21.012l134.905,79.804
	L37.581,335.789v0.203l0.004,20.805l157.236-93.014C197.571,262.155,199.259,259.196,199.259,255.999z"/>
<path d="M256.036,512L256.036,512c-7.55,0-14.997-1.995-21.534-5.768L50.091,399.803c-0.967-0.559-1.969-1.199-3.064-1.963
	c-0.991-0.69-2.004-1.471-3.096-2.388l-0.498-0.419c-0.963-0.833-1.914-1.734-2.81-2.663c-0.041-0.042-0.154-0.164-0.195-0.206
	c-1.872-1.966-3.571-4.131-5.046-6.429c-0.014-0.023-0.029-0.045-0.043-0.068c-2.165-3.386-3.843-7.045-4.986-10.874l-0.112-0.392
	c-0.23-0.804-0.429-1.573-0.608-2.351c-0.054-0.239-0.108-0.492-0.163-0.746c-0.146-0.697-0.271-1.384-0.38-2.075l-0.025-0.16
	c-0.039-0.237-0.076-0.476-0.108-0.716c-0.098-0.71-0.17-1.402-0.231-2.095l-0.014-0.143c-0.024-0.233-0.046-0.468-0.061-0.702
	c-0.071-1.043-0.105-1.998-0.105-2.919l-0.035-212.917c0-5.608,1.087-11.104,3.234-16.334c1.256-3.061,2.863-5.975,4.775-8.658
	c2.914-4.086,6.462-7.59,10.547-10.421c1.081-0.75,2.029-1.354,2.978-1.902L234.417,5.776C240.959,1.996,248.411,0,255.964,0
	c7.549,0,14.995,1.994,21.534,5.767l184.411,106.428c0.972,0.562,1.945,1.184,3.062,1.961c6.698,4.659,11.917,11.108,15.096,18.652
	c0.77,1.828,1.419,3.717,1.925,5.615c0.972,3.641,1.465,7.367,1.465,11.078l0.035,212.913c0,0.931-0.034,1.887-0.105,2.931
	c-0.017,0.24-0.039,0.48-0.063,0.721l-0.014,0.143c-0.06,0.687-0.134,1.382-0.228,2.071c-0.039,0.275-0.078,0.533-0.121,0.792
	c-0.127,0.803-0.254,1.492-0.398,2.177l-0.169,0.773c-0.18,0.784-0.382,1.566-0.605,2.34l-0.116,0.406
	c-1.943,6.492-5.454,12.517-10.149,17.421l-0.159,0.171c-0.901,0.929-1.852,1.828-2.84,2.681c-0.125,0.108-0.265,0.225-0.405,0.34
	c-1.183,0.987-2.195,1.766-3.181,2.448c-1.092,0.756-2.037,1.36-2.982,1.905l-184.372,106.49
	C271.041,510.002,263.589,512,256.036,512z M50.528,375.856c0.016,0.025,0.031,0.048,0.047,0.074
	c0.862,1.348,1.857,2.617,2.956,3.772c0.028,0.029,0.129,0.137,0.157,0.168c0.47,0.487,1.021,1.009,1.589,1.498l0.293,0.246
	c0.662,0.556,1.25,1.011,1.787,1.385c0.68,0.475,1.245,0.838,1.775,1.143l184.408,106.427c3.794,2.189,8.116,3.348,12.496,3.348
	c4.383,0,8.706-1.16,12.502-3.351l184.375-106.49c0.51-0.295,1.06-0.647,1.731-1.113c0.536-0.371,1.107-0.813,1.791-1.384
	l0.276-0.228c0.583-0.504,1.137-1.026,1.649-1.555l0.083-0.09c2.744-2.867,4.78-6.362,5.908-10.125l0.071-0.254
	c0.125-0.432,0.242-0.884,0.347-1.341l0.084-0.387c0.094-0.447,0.168-0.847,0.231-1.251c0-0.002,0.02-0.124,0.02-0.127l0.063-0.408
	c0.053-0.386,0.094-0.787,0.129-1.191l0.051-0.52c0.036-0.539,0.061-1.107,0.061-1.678l-0.035-212.917
	c0-2.137-0.288-4.298-0.854-6.418c-0.293-1.096-0.668-2.19-1.116-3.252c-1.849-4.388-4.876-8.131-8.757-10.832
	c-0.691-0.479-1.256-0.844-1.779-1.145L268.46,21.429c-3.794-2.189-8.114-3.347-12.495-3.347c-4.383,0-8.707,1.159-12.504,3.351
	L59.086,127.924c-0.509,0.294-1.057,0.646-1.725,1.109c-2.364,1.637-4.423,3.674-6.119,6.053c-1.107,1.553-2.04,3.244-2.769,5.025
	c-1.249,3.04-1.882,6.225-1.881,9.467l0.035,212.911c0,0.576,0.025,1.139,0.064,1.7l0.048,0.493c0.035,0.4,0.076,0.803,0.13,1.203
	l0.082,0.524c0.061,0.388,0.134,0.786,0.217,1.181l0.093,0.428c0.106,0.465,0.223,0.911,0.351,1.354l0.069,0.246
	C48.332,371.809,49.291,373.908,50.528,375.856z"/>
<g>
</g>
<g>
</g>
<g>
</g>
<g>
</g>
<g>
</g>
<g>
</g>
<g>
</g>
<g>
</g>
<g>
</g>
<g>
</g>
<g>
</g>
<g>
</g>
<g>
</g>
<g>
</g>
<g>
</g>
</svg>
