<?xml version="1.0" encoding="iso-8859-1"?>
<!-- Generator: Adobe Illustrator 19.0.0, SVG Export Plug-In . SVG Version: 6.00 Build 0)  -->
<svg version="1.1" id="Layer_1" xmlns="http://www.w3.org/2000/svg" xmlns:xlink="http://www.w3.org/1999/xlink" x="0px" y="0px"
	 viewBox="0 0 512.001 512.001" style="enable-background:new 0 0 512.001 512.001;" xml:space="preserve">
<path style="fill:#FFE000;" d="M473.105,371.851c0.176-0.611,0.336-1.228,0.479-1.85c0.046-0.2,0.089-0.401,0.131-0.603
	c0.113-0.54,0.213-1.085,0.3-1.634c0.037-0.236,0.076-0.473,0.11-0.711c0.075-0.545,0.131-1.092,0.18-1.643
	c0.02-0.225,0.047-0.447,0.063-0.674c0.052-0.767,0.084-1.537,0.084-2.313l0,0l0,0v-0.006l-0.006-40.904v-0.002l-0.005-26.203
	v-0.002v-4.213l-0.004-25.574l0,0l-0.008-48.824l-0.005-26.204l-0.006-40.984c0-2.995-0.407-5.931-1.16-8.75
	c-0.405-1.517-0.915-2.997-1.521-4.435c-2.477-5.877-6.574-11.017-11.925-14.74c-0.784-0.545-1.584-1.071-2.419-1.553
	l-22.874-13.202l-21.414-12.358l-17.239-9.949l-65.928-38.046l-25.717-14.844l-19.288-11.132l-11.953-6.899
	c-10.533-6.078-23.509-6.076-34.04,0.007l-11.872,6.857l-19.288,11.14l-25.717,14.854v-0.001l-65.915,38.072l-28.89,16.686
	l-21.408,12.365l-11.282,6.517c-0.811,0.468-1.59,0.979-2.353,1.506c-3.272,2.268-6.073,5.068-8.333,8.235
	c-1.517,2.129-2.781,4.424-3.773,6.843c-1.655,4.031-2.558,8.399-2.557,12.899l0.006,40.912l0.005,26.204l0.012,73.738v4.011v0.85
	v0.001v0.013l0,0v0.005l0,0l0.005,26.2l0,0v1.864l0.002,12.617l0.004,26.497v0.006l0,0c0,0.773,0.033,1.539,0.084,2.305
	c0.016,0.223,0.042,0.445,0.061,0.668c0.048,0.548,0.105,1.096,0.18,1.638c0.033,0.236,0.072,0.471,0.108,0.708
	c0.087,0.544,0.186,1.086,0.298,1.625c0.042,0.201,0.086,0.403,0.131,0.603c0.14,0.615,0.298,1.222,0.471,1.825
	c0.033,0.113,0.061,0.227,0.095,0.34c0.909,3.042,2.24,5.93,3.94,8.589l0.001,0.001l0.001,0.002
	c1.172,1.832,2.517,3.551,4.025,5.137c0.051,0.052,0.099,0.106,0.148,0.158c0.709,0.735,1.454,1.439,2.231,2.113
	c0.125,0.11,0.254,0.215,0.382,0.322c0.786,0.661,1.595,1.298,2.445,1.89c0.784,0.545,1.584,1.07,2.419,1.553l22.552,13.015
	l21.414,12.36l17.561,10.134l91.644,52.89l19.288,11.132l11.953,6.899c10.533,6.078,23.509,6.076,34.04-0.007l11.872-6.857
	l19.288-11.14l25.717-14.853l55.554-32.086l10.363-5.985l26.36-15.225l21.408-12.365l13.813-7.978
	c0.811-0.468,1.59-0.979,2.353-1.506c0.851-0.588,1.659-1.226,2.446-1.884c0.128-0.107,0.258-0.212,0.385-0.322
	c0.78-0.673,1.526-1.375,2.237-2.11c0.047-0.048,0.09-0.098,0.136-0.146c3.724-3.891,6.476-8.609,8.02-13.765
	C473.046,372.067,473.074,371.958,473.105,371.851z"/>
<g>
	<path style="fill:#164FCE;" d="M434.518,106.826l-21.414-12.358l-17.239-9.949l-59.366-34.262l-6.559-3.785l-25.717-14.844
		l-19.288-11.132l-11.953-6.899c-10.533-6.078-23.509-6.076-34.04,0.007l-11.872,6.857l-19.288,11.14l-25.717,14.853l-6.582,3.801
		l-59.334,34.272l-28.89,16.686l-15.087,8.715h367.72L434.518,106.826z"/>
	<path style="fill:#164FCE;" d="M72.113,402.072l5.05,2.915l21.414,12.359l17.561,10.134l59.366,34.262l32.278,18.628l19.288,11.132
		l11.953,6.899c10.533,6.078,23.509,6.076,34.04-0.007l11.872-6.857l19.288-11.14l25.717-14.853l6.582-3.801l48.972-28.285
		l10.363-5.985l26.36-15.225l17.616-10.175L72.113,402.072L72.113,402.072z"/>
</g>
<path style="fill:#B21727;" d="M474.125,367.053c0.075-0.544,0.131-1.092,0.18-1.643c0.02-0.225,0.047-0.447,0.063-0.674
	c0.052-0.767,0.084-1.537,0.084-2.313l0,0v-0.006l-0.006-40.904v-0.002l-0.005-26.203v-0.002v-4.213l-0.004-25.574l-0.008-48.824
	l-0.005-26.203l-0.006-40.985c0-2.028-0.201-4.023-0.555-5.977H38.108c-0.36,1.977-0.557,3.997-0.557,6.05l0.006,40.913
	l0.005,26.203l0.012,73.738v4.011v0.849v0.002v0.013l0,0v0.005l0,0l0.005,26.198v0.001v1.864l0.002,12.617l0.004,26.497v0.006l0,0
	c0,0.773,0.033,1.539,0.084,2.305c0.016,0.223,0.042,0.445,0.061,0.668c0.048,0.548,0.105,1.096,0.18,1.638
	c0.033,0.236,0.072,0.471,0.108,0.708c0.035,0.221,0.082,0.438,0.121,0.658H76.54h41.148h356.197
	c0.043-0.236,0.093-0.471,0.13-0.709C474.053,367.527,474.092,367.292,474.125,367.053z"/>
<g>
	<path style="fill:#FFE000;" d="M447.112,265.041H64.891c-4.993,0-9.041-4.047-9.041-9.041s4.048-9.041,9.041-9.041h382.221
		c4.993,0,9.041,4.047,9.041,9.041S452.105,265.041,447.112,265.041z"/>
	<path style="fill:#FFE000;" d="M410.946,228.875h-309.89c-4.993,0-9.041-4.047-9.041-9.041c0-4.994,4.048-9.041,9.041-9.041h309.89
		c4.993,0,9.041,4.047,9.041,9.041C419.987,224.828,415.939,228.875,410.946,228.875z"/>
</g>
<path style="fill:#FFFFFF;" d="M256.001,195.723c-61.252,0-98.853,60.276-98.853,60.276s37.6,60.276,98.853,60.276
	s98.853-60.276,98.853-60.276S317.254,195.723,256.001,195.723z"/>
<path style="fill:#333333;" d="M157.148,255.999c0,0,37.6,60.276,98.853,60.276V195.723
	C194.748,195.723,157.148,255.999,157.148,255.999z"/>
<path d="M256.001,325.317c65.515,0,104.88-61.897,106.523-64.531c1.828-2.929,1.828-6.642,0-9.571
	c-1.643-2.635-41.008-64.531-106.523-64.531s-104.88,61.897-106.523,64.531c-1.828,2.929-1.828,6.642,0,9.571
	C151.12,263.421,190.485,325.317,256.001,325.317z M256.001,204.765c45.63,0,77.744,37.675,87.823,51.235
	c-10.085,13.569-42.197,51.235-87.823,51.235c-45.63,0-77.744-37.674-87.823-51.235
	C178.264,242.431,210.375,204.765,256.001,204.765z M483.458,149.503c0-3.711-0.494-7.438-1.465-11.078
	c-0.506-1.899-1.155-3.789-1.925-5.615c-3.179-7.544-8.398-13.991-15.096-18.652c-1.117-0.778-2.089-1.4-3.062-1.961L277.5,5.767
	C270.961,1.994,263.515,0,255.966,0c-7.555,0-15.005,1.996-21.547,5.776L50.044,112.265c-0.95,0.549-1.896,1.152-2.978,1.902
	c-4.086,2.831-7.635,6.335-10.547,10.421c-1.912,2.683-3.519,5.597-4.775,8.658c-2.147,5.23-3.234,10.724-3.234,16.334
	l0.035,212.917c0,0.921,0.034,1.876,0.105,2.919c0.016,0.234,0.037,0.469,0.061,0.702l0.014,0.143
	c0.061,0.693,0.134,1.385,0.231,2.095c0.034,0.24,0.071,0.477,0.108,0.716l0.025,0.16c0.11,0.69,0.235,1.378,0.38,2.075
	c0.053,0.254,0.107,0.508,0.163,0.746c0.177,0.779,0.377,1.547,0.608,2.351l0.112,0.392c1.144,3.829,2.821,7.487,4.986,10.874
	c0.014,0.023,0.029,0.045,0.043,0.068c1.476,2.298,3.174,4.463,5.046,6.429c0.04,0.042,0.153,0.164,0.195,0.206
	c0.896,0.929,1.847,1.83,2.81,2.663l0.498,0.42c1.093,0.919,2.105,1.699,3.096,2.388c1.096,0.763,2.096,1.403,3.064,1.963
	l184.411,106.428c6.538,3.773,13.985,5.768,21.534,5.768l0,0c7.554,0,15.005-1.998,21.547-5.776l184.372-106.49
	c0.945-0.545,1.89-1.149,2.982-1.905c0.986-0.682,1.999-1.461,3.181-2.448c0.14-0.116,0.278-0.231,0.405-0.34
	c0.99-0.854,1.941-1.752,2.84-2.681l0.159-0.171c4.695-4.904,8.206-10.929,10.149-17.421l0.116-0.406
	c0.224-0.775,0.427-1.556,0.605-2.34l0.169-0.773c0.143-0.684,0.27-1.374,0.398-2.177c0.042-0.259,0.082-0.518,0.121-0.792
	c0.094-0.69,0.168-1.383,0.228-2.071l0.014-0.143c0.024-0.24,0.047-0.48,0.063-0.721c0.071-1.043,0.105-1.999,0.105-2.931
	L483.458,149.503z M57.362,129.033c0.668-0.463,1.216-0.815,1.725-1.109l184.376-106.49c3.795-2.193,8.119-3.351,12.504-3.351
	c4.381,0,8.701,1.157,12.495,3.347l184.407,106.427c0.522,0.301,1.089,0.667,1.779,1.145c2.182,1.519,4.082,3.377,5.667,5.484H51.71
	C53.314,132.371,55.203,130.528,57.362,129.033z M458.362,379.795c-0.512,0.529-1.066,1.051-1.649,1.555l-0.276,0.228
	c-0.684,0.573-1.255,1.014-1.791,1.384c-0.671,0.465-1.221,0.817-1.731,1.113l-184.375,106.49
	c-3.796,2.192-8.119,3.351-12.502,3.351c-4.381,0-8.701-1.159-12.496-3.348L59.132,384.141c-0.529-0.305-1.095-0.669-1.775-1.143
	c-0.538-0.375-1.126-0.829-1.787-1.385l-0.293-0.246c-0.568-0.489-1.119-1.011-1.589-1.498c-0.027-0.029-0.129-0.137-0.157-0.168
	c-0.655-0.687-1.257-1.426-1.832-2.187h24.84c4.993,0,9.041-4.047,9.041-9.041s-4.048-9.041-9.041-9.041H46.627l-0.034-206.862
	h418.783l0.034,206.862H117.688c-4.993,0-9.041,4.047-9.041,9.041s4.048,9.041,9.041,9.041H460.31
	c-0.579,0.763-1.201,1.496-1.865,2.19L458.362,379.795z"/>
<g>
</g>
<g>
</g>
<g>
</g>
<g>
</g>
<g>
</g>
<g>
</g>
<g>
</g>
<g>
</g>
<g>
</g>
<g>
</g>
<g>
</g>
<g>
</g>
<g>
</g>
<g>
</g>
<g>
</g>
</svg>
