<?xml version="1.0" encoding="iso-8859-1"?>
<!-- Generator: Adobe Illustrator 19.0.0, SVG Export Plug-In . SVG Version: 6.00 Build 0)  -->
<svg version="1.1" id="Layer_1" xmlns="http://www.w3.org/2000/svg" xmlns:xlink="http://www.w3.org/1999/xlink" x="0px" y="0px"
	 viewBox="0 0 512 512" style="enable-background:new 0 0 512 512;" xml:space="preserve">
<path style="fill:#FFE000;" d="M473.103,371.85c0.176-0.61,0.338-1.227,0.479-1.848c0.047-0.201,0.089-0.403,0.131-0.604
	c0.113-0.54,0.213-1.085,0.3-1.632c0.037-0.237,0.076-0.474,0.11-0.711c0.076-0.546,0.131-1.095,0.18-1.644
	c0.02-0.225,0.047-0.448,0.063-0.674c0.052-0.767,0.084-1.537,0.084-2.313l0,0l0,0v-0.006l-0.005-40.904v-0.002l-0.005-26.203
	v-0.002l-0.001-4.213l-0.004-25.574l0,0l-0.008-48.824l-0.005-26.203l-0.007-40.985c0-2.995-0.406-5.931-1.16-8.75
	c-0.405-1.517-0.915-2.997-1.52-4.435c-2.479-5.876-6.575-11.016-11.925-14.74c-0.784-0.545-1.584-1.071-2.421-1.553l-22.874-13.202
	l-21.414-12.358l-17.24-9.949l-65.924-38.046l-25.717-14.844l-19.288-11.132l-11.953-6.899c-10.533-6.078-23.509-6.076-34.04,0.007
	l-11.872,6.857l-19.288,11.14l-25.717,14.853l0,0l-65.915,38.072l-28.89,16.686l-21.408,12.365l-11.282,6.516
	c-0.811,0.469-1.59,0.98-2.353,1.507c-3.272,2.268-6.073,5.067-8.331,8.236c-1.517,2.127-2.781,4.422-3.773,6.841
	c-1.655,4.032-2.558,8.399-2.557,12.899l0.006,40.913l0.005,26.203l0.012,73.738v4.011v0.85v0.001v0.013l0,0v0.005l0,0l0.005,26.198
	v0.002v1.863l0.002,12.617l0.004,26.496v0.007l0,0c0,0.773,0.033,1.539,0.084,2.305c0.016,0.224,0.042,0.445,0.061,0.668
	c0.048,0.55,0.105,1.096,0.18,1.638c0.033,0.236,0.072,0.471,0.108,0.708c0.087,0.544,0.186,1.086,0.298,1.625
	c0.042,0.201,0.086,0.403,0.131,0.603c0.14,0.615,0.298,1.222,0.471,1.825c0.033,0.113,0.061,0.228,0.095,0.34
	c0.909,3.043,2.24,5.93,3.94,8.588l0.001,0.002l0.001,0.002c1.172,1.832,2.517,3.551,4.025,5.137
	c0.051,0.053,0.099,0.106,0.148,0.159c0.709,0.734,1.454,1.438,2.231,2.112c0.125,0.11,0.254,0.215,0.382,0.322
	c0.786,0.661,1.595,1.298,2.445,1.89c0.784,0.545,1.584,1.07,2.419,1.553l22.552,13.016l21.414,12.359l17.561,10.134l91.644,52.89
	l19.288,11.132l11.953,6.899c10.533,6.078,23.509,6.076,34.04-0.007l11.872-6.857l19.288-11.14l25.717-14.853l55.554-32.086
	l10.363-5.985l26.36-15.225l21.408-12.365l13.813-7.977c0.813-0.469,1.59-0.98,2.353-1.507c0.85-0.588,1.659-1.226,2.445-1.884
	c0.129-0.106,0.259-0.212,0.386-0.323c0.779-0.671,1.526-1.374,2.236-2.108c0.046-0.048,0.09-0.098,0.136-0.145
	c3.725-3.893,6.475-8.61,8.019-13.767C473.045,372.067,473.073,371.958,473.103,371.85z"/>
<g>
	<path style="fill:#ED1F34;" d="M77.162,404.987l21.414,12.359l17.561,10.134l91.644,52.89l19.288,11.132l11.953,6.899
		c10.533,6.078,23.509,6.076,34.04-0.007l11.872-6.857l19.288-11.14l25.717-14.853l55.554-32.086l10.363-5.985l26.36-15.225
		l21.408-12.365l12.367-7.144H55.94L77.162,404.987z"/>
	<polygon style="fill:#ED1F34;" points="37.556,190.49 37.561,216.693 37.568,255.999 474.433,255.999 474.427,216.693 
		474.422,190.49 474.422,187.63 37.556,187.63 	"/>
</g>
<g>
	<path style="fill:#333333;" d="M434.517,106.826l-21.414-12.358l-17.24-9.949L337.592,50.89l-7.655-4.417L304.22,31.629
		l-19.288-11.132l-11.953-6.899c-10.533-6.078-23.509-6.076-34.04,0.007l-11.872,6.857l-19.288,11.14l-25.717,14.853l0,0
		l-7.676,4.434l-58.239,33.638l-28.89,16.686l-21.408,12.365l-9.837,5.682h400.049L434.517,106.826z"/>
	<polygon style="fill:#333333;" points="118.964,324.37 474.445,324.37 474.445,321.512 474.445,321.51 474.44,295.307 
		474.44,295.304 474.439,291.091 474.435,265.517 474.433,255.999 37.568,255.999 37.573,290.431 37.574,294.442 37.574,295.291 
		37.574,295.293 37.574,295.307 37.574,295.307 37.574,295.311 37.574,295.311 37.579,321.51 37.579,321.512 37.579,323.375 
		37.579,324.37 80.204,324.37 	"/>
</g>
<circle style="fill:#FFFFFF;" cx="256.005" cy="256.004" r="68.37"/>
<path d="M297.621,262.954c-2.207,4.48-7.626,6.321-12.107,4.113l-8.891-4.382c-2.708,4.364-6.764,7.807-11.58,9.749v20.487
	c0,4.993-4.047,9.041-9.041,9.041c-4.993,0-9.041-4.048-9.041-9.041v-20.499c-8.903-3.592-15.209-12.31-15.209-22.484
	c0-1.385,0.318-2.753,0.931-3.996l9.111-18.484c-3.304-1.345-5.633-4.591-5.633-8.376c0-4.996,4.048-9.041,9.041-9.041h10.8
	c3.125,0,6.028,1.612,7.677,4.265c1.65,2.652,1.814,5.97,0.433,8.771l-14.054,28.513c0.725,2.602,3.114,4.516,5.943,4.516
	c3.401,0,6.167-2.767,6.167-6.167c0-3.125,1.613-6.028,4.266-7.677c2.653-1.652,5.971-1.814,8.771-0.433l18.301,9.018
	C297.987,253.054,299.828,258.474,297.621,262.954z M483.491,362.415c0.001,0.913-0.033,1.873-0.105,2.931
	c-0.016,0.24-0.037,0.48-0.063,0.721l-0.014,0.143c-0.06,0.684-0.134,1.374-0.227,2.061c-0.039,0.283-0.08,0.542-0.122,0.802
	c-0.128,0.803-0.254,1.492-0.398,2.177c-0.055,0.265-0.11,0.52-0.168,0.773c-0.18,0.784-0.383,1.566-0.608,2.34
	c-0.041,0.154-0.09,0.327-0.143,0.497c-1.917,6.402-5.426,12.428-10.122,17.332l-0.119,0.127c-0.943,0.974-1.894,1.872-2.881,2.723
	l-0.405,0.339c-1.175,0.981-2.186,1.76-3.177,2.447c-1.104,0.763-2.051,1.367-2.991,1.91L277.584,506.223
	c-6.542,3.779-13.992,5.777-21.547,5.777l0,0c-7.549,0-14.995-1.995-21.534-5.768L50.091,399.803
	c-0.967-0.559-1.969-1.198-3.064-1.963c-0.991-0.69-2.004-1.471-3.096-2.388l-0.498-0.419c-0.963-0.833-1.914-1.734-2.81-2.663
	c-0.041-0.042-0.154-0.164-0.195-0.206c-1.872-1.966-3.571-4.131-5.046-6.429c-0.014-0.023-0.029-0.045-0.043-0.068
	c-2.165-3.386-3.843-7.045-4.986-10.873l-0.112-0.393c-0.23-0.804-0.429-1.573-0.608-2.351c-0.054-0.239-0.108-0.492-0.163-0.746
	c-0.146-0.697-0.271-1.383-0.38-2.075l-0.025-0.16c-0.039-0.237-0.076-0.476-0.108-0.716c-0.098-0.71-0.17-1.402-0.231-2.095
	l-0.014-0.143c-0.024-0.233-0.046-0.468-0.061-0.702c-0.071-1.043-0.105-1.998-0.105-2.919l-0.035-212.917
	c0-5.608,1.087-11.104,3.234-16.334c1.256-3.061,2.863-5.975,4.775-8.658c2.914-4.086,6.462-7.59,10.547-10.421
	c1.081-0.75,2.029-1.354,2.978-1.902L234.418,5.776C240.96,1.996,248.411,0,255.965,0c7.55,0,14.995,1.994,21.534,5.767
	L461.91,112.195c0.978,0.565,1.951,1.189,3.066,1.965c6.691,4.655,11.911,11.103,15.092,18.647c0.776,1.844,1.424,3.735,1.926,5.623
	c0.97,3.637,1.463,7.366,1.463,11.075L483.491,362.415z M465.405,333.411H256H118.964c-4.993,0-9.041-4.047-9.041-9.04v-0.001
	c0-4.994,4.048-9.041,9.041-9.041h87.382c-14.772-12.383-24.859-30.168-27.211-50.287H46.611l0.008,50.287h33.585
	c4.993,0,9.041,4.047,9.041,9.041v0.001c0,4.993-4.048,9.04-9.041,9.04H46.622l0.005,29.077c0,0.575,0.025,1.138,0.064,1.699
	l0.048,0.493c0.035,0.4,0.076,0.803,0.13,1.203l0.082,0.523c0.061,0.389,0.134,0.787,0.217,1.183l0.093,0.428
	c0.106,0.465,0.223,0.911,0.351,1.354l0.069,0.246c0.653,2.19,1.612,4.29,2.849,6.239c0.016,0.025,0.031,0.048,0.047,0.074
	c0.862,1.348,1.857,2.617,2.956,3.772c0.028,0.029,0.129,0.137,0.157,0.169c0.47,0.486,1.021,1.008,1.589,1.497l0.293,0.246
	c0.662,0.556,1.25,1.011,1.787,1.385c0.383,0.269,0.727,0.494,1.051,0.7h395.121c0.341-0.213,0.7-0.448,1.119-0.737
	c0.527-0.366,1.114-0.821,1.784-1.382l0.293-0.242c0.568-0.489,1.121-1.011,1.635-1.543l0.083-0.09
	c2.74-2.863,4.776-6.354,5.905-10.118l0.06-0.217c0.137-0.477,0.257-0.929,0.362-1.386l0.096-0.447
	c0.08-0.387,0.154-0.787,0.218-1.191l0.021-0.127l0.064-0.407c0.052-0.379,0.093-0.784,0.128-1.191l0.051-0.52
	c0.036-0.534,0.063-1.097,0.061-1.664L465.405,333.411z M46.596,178.589h209.405h209.378l-0.005-29.083
	c0-2.136-0.287-4.295-0.854-6.418c-0.291-1.092-0.667-2.186-1.118-3.259c-1.848-4.381-4.876-8.126-8.757-10.826
	c-0.387-0.27-0.728-0.495-1.052-0.702H58.471c-0.34,0.213-0.698,0.446-1.109,0.732c-2.364,1.637-4.423,3.674-6.119,6.053
	c-1.107,1.553-2.04,3.244-2.769,5.025c-1.249,3.04-1.882,6.225-1.881,9.467L46.596,178.589z M305.655,315.328h159.746l-0.008-50.287
	H332.866C330.514,285.16,320.428,302.945,305.655,315.328z M314.64,265.041c0.453-2.948,0.688-5.969,0.688-9.041
	c0-3.073-0.235-6.094-0.688-9.041c-4.366-28.438-28.999-50.287-58.64-50.287c-29.64,0-54.274,21.849-58.641,50.287
	c-0.452,2.948-0.688,5.969-0.688,9.041c0,3.073,0.235,6.094,0.688,9.041c4.368,28.438,29,50.287,58.641,50.287
	S310.274,293.479,314.64,265.041z M465.39,246.958l-0.008-50.287H305.655c14.772,12.383,24.859,30.168,27.211,50.287H465.39z
	 M46.599,196.672l0.008,50.287h132.528c2.352-20.118,12.437-37.903,27.211-50.287H46.599z M89.742,110.218h332.564L268.46,21.429
	c-3.793-2.189-8.114-3.347-12.495-3.347c-4.383,0-8.707,1.159-12.504,3.351L89.742,110.218z M422.258,401.782H89.697l153.842,88.787
	c3.794,2.189,8.116,3.348,12.496,3.348c4.383,0,8.707-1.16,12.504-3.351L422.258,401.782z"/>
<g>
</g>
<g>
</g>
<g>
</g>
<g>
</g>
<g>
</g>
<g>
</g>
<g>
</g>
<g>
</g>
<g>
</g>
<g>
</g>
<g>
</g>
<g>
</g>
<g>
</g>
<g>
</g>
<g>
</g>
</svg>
