<?xml version="1.0" encoding="iso-8859-1"?>
<!-- Generator: Adobe Illustrator 19.0.0, SVG Export Plug-In . SVG Version: 6.00 Build 0)  -->
<svg version="1.1" id="Layer_1" xmlns="http://www.w3.org/2000/svg" xmlns:xlink="http://www.w3.org/1999/xlink" x="0px" y="0px"
	 viewBox="0 0 511.998 511.998" style="enable-background:new 0 0 511.998 511.998;" xml:space="preserve">
<path style="fill:#FFFFFF;" d="M473.103,371.851c0.176-0.611,0.338-1.228,0.479-1.85c0.047-0.201,0.089-0.401,0.131-0.603
	c0.113-0.541,0.213-1.085,0.3-1.634c0.037-0.236,0.076-0.473,0.11-0.711c0.076-0.545,0.131-1.093,0.18-1.643
	c0.02-0.225,0.047-0.447,0.063-0.674c0.052-0.767,0.084-1.537,0.083-2.313l0,0l0,0v-0.006l-0.006-40.904v-0.001l-0.005-26.204
	v-0.002l-0.001-4.213l-0.004-25.574l0,0l-0.008-48.824l-0.005-26.204l-0.006-40.985c-0.001-2.996-0.409-5.93-1.161-8.75
	c-0.405-1.517-0.915-2.997-1.521-4.435c-2.477-5.877-6.574-11.016-11.924-14.74c-0.784-0.545-1.584-1.071-2.421-1.554l-22.874-13.2
	l-21.414-12.358l-17.24-9.949l-65.921-38.046L304.22,31.629l-19.288-11.132l-11.953-6.898c-10.533-6.078-23.509-6.077-34.04,0.006
	l-11.872,6.857l-19.288,11.14l-25.717,14.854l0,0l-65.915,38.07l-28.89,16.686l-21.408,12.365l-11.282,6.517
	c-0.813,0.469-1.59,0.979-2.353,1.507c-3.272,2.266-6.072,5.068-8.331,8.236c-1.517,2.128-2.781,4.423-3.774,6.841
	c-1.654,4.031-2.557,8.399-2.557,12.899l0.007,40.912l0.005,26.204l0.012,73.738l0.001,4.011v0.85v0.001v0.013l0,0v0.005l0,0
	l0.005,26.2l0,0v1.864l0.002,12.617l0.004,26.497v0.006l0,0c0.001,0.773,0.033,1.539,0.084,2.304
	c0.016,0.224,0.042,0.446,0.061,0.669c0.049,0.55,0.106,1.096,0.18,1.638c0.033,0.236,0.072,0.471,0.11,0.706
	c0.086,0.546,0.184,1.087,0.297,1.626c0.043,0.201,0.086,0.403,0.131,0.603c0.14,0.615,0.298,1.222,0.471,1.825
	c0.033,0.113,0.061,0.227,0.095,0.34c0.909,3.042,2.239,5.93,3.941,8.589v0.001c0.001,0.001,0.002,0.001,0.002,0.001
	c1.172,1.832,2.517,3.553,4.026,5.137c0.049,0.052,0.098,0.106,0.147,0.158c0.71,0.735,1.454,1.439,2.233,2.112
	c0.125,0.11,0.256,0.215,0.382,0.322c0.786,0.661,1.594,1.3,2.444,1.89c0.784,0.545,1.584,1.071,2.421,1.554l22.552,13.015
	l21.414,12.359l17.561,10.135l91.644,52.89l19.288,11.132l11.953,6.898c10.533,6.078,23.509,6.077,34.04-0.006l11.872-6.857
	l19.288-11.14l25.717-14.853l55.554-32.086l10.363-5.985l26.36-15.225l21.408-12.365l13.813-7.978
	c0.813-0.469,1.59-0.979,2.352-1.507c0.851-0.59,1.66-1.226,2.446-1.883c0.129-0.107,0.259-0.213,0.386-0.322
	c0.779-0.673,1.526-1.375,2.236-2.11c0.046-0.048,0.09-0.098,0.136-0.146c3.725-3.891,6.475-8.609,8.019-13.765
	C473.045,372.067,473.073,371.958,473.103,371.851z"/>
<polygon style="fill:#103B9B;" points="474.444,321.511 474.44,295.307 474.44,295.304 474.44,291.091 474.435,265.517 
	474.426,216.693 474.421,190.489 474.421,187.42 37.556,187.42 37.556,190.489 37.56,216.693 37.572,290.431 37.574,294.442 
	37.574,295.292 37.574,295.293 37.574,295.307 37.574,295.307 37.574,295.311 37.574,295.311 37.578,321.511 37.578,321.512 
	37.578,323.375 37.578,324.58 366.425,324.58 407.574,324.58 474.444,324.58 474.444,321.512 "/>
<path style="fill:#ED1F34;" d="M366.425,324.58H37.578l0.002,11.411l0.004,26.497v0.006l0,0c0.001,0.773,0.033,1.539,0.084,2.304
	c0.016,0.225,0.042,0.446,0.061,0.669c0.049,0.55,0.106,1.096,0.18,1.638c0.033,0.236,0.072,0.471,0.11,0.706
	c0.086,0.546,0.184,1.087,0.297,1.626c0.042,0.201,0.086,0.403,0.131,0.603c0.14,0.615,0.298,1.222,0.471,1.825
	c0.033,0.113,0.061,0.227,0.095,0.34c0.909,3.042,2.239,5.93,3.94,8.589c0.001,0,0.001,0.001,0.001,0.001
	c0.001,0.001,0.002,0.001,0.002,0.001c1.172,1.832,2.517,3.553,4.026,5.137c0.049,0.052,0.098,0.106,0.147,0.158
	c0.71,0.735,1.454,1.441,2.233,2.112c0.125,0.11,0.256,0.215,0.382,0.322c0.786,0.661,1.594,1.3,2.444,1.89
	c0.784,0.545,1.584,1.07,2.421,1.554l22.552,13.015l21.414,12.359l17.561,10.135l91.644,52.89l19.288,11.132l11.953,6.898
	c10.533,6.078,23.509,6.077,34.04-0.006l11.872-6.857l19.288-11.14l25.717-14.853l55.554-32.086l10.363-5.985l26.36-15.224
	l21.408-12.365l13.813-7.978c0.813-0.469,1.59-0.979,2.352-1.507c0.852-0.59,1.66-1.226,2.446-1.883
	c0.129-0.107,0.259-0.213,0.386-0.323c0.779-0.671,1.526-1.374,2.236-2.11c0.047-0.048,0.09-0.098,0.136-0.146
	c3.725-3.891,6.475-8.609,8.019-13.765c0.033-0.106,0.06-0.215,0.09-0.322c0.176-0.611,0.338-1.228,0.479-1.85
	c0.047-0.201,0.089-0.401,0.131-0.603c0.113-0.541,0.213-1.085,0.3-1.633c0.037-0.236,0.076-0.473,0.11-0.711
	c0.076-0.545,0.131-1.093,0.18-1.643c0.02-0.225,0.046-0.447,0.063-0.674c0.052-0.767,0.083-1.537,0.083-2.313l0,0v-0.006
	l-0.006-37.836h-66.87h-41.146V324.58z"/>
<path d="M483.456,149.505c0-3.709-0.493-7.437-1.464-11.075c-0.503-1.887-1.15-3.777-1.928-5.623
	c-3.18-7.542-8.399-13.99-15.091-18.646c-1.113-0.775-2.086-1.398-3.066-1.964L277.499,5.768C270.961,1.995,263.515,0,255.964,0
	c-7.555,0-15.005,1.998-21.547,5.776L50.047,112.263c-0.943,0.545-1.89,1.149-2.985,1.907c-4.086,2.831-7.632,6.335-10.545,10.419
	c-1.911,2.681-3.516,5.592-4.776,8.658c-2.146,5.23-3.234,10.724-3.234,16.332l0.036,212.917c0,0.927,0.034,1.882,0.105,2.917
	c0.017,0.241,0.039,0.481,0.064,0.721l0.013,0.127c0.06,0.694,0.133,1.384,0.229,2.094c0.036,0.259,0.077,0.516,0.133,0.866
	c0.111,0.697,0.236,1.389,0.382,2.084c0.054,0.253,0.108,0.508,0.163,0.745c0.176,0.778,0.377,1.545,0.604,2.341
	c0.04,0.149,0.082,0.298,0.115,0.403c1.143,3.828,2.821,7.485,4.99,10.876c1.486,2.324,3.201,4.511,5.069,6.472
	c0.046,0.051,0.168,0.18,0.215,0.228c0.892,0.925,1.841,1.824,2.826,2.675l0.481,0.405c1.098,0.923,2.111,1.705,3.097,2.391
	c1.115,0.775,2.087,1.397,3.062,1.96L234.5,506.229c6.539,3.773,13.985,5.768,21.534,5.768c7.555,0,15.005-1.998,21.547-5.776
	l184.37-106.487c0.943-0.545,1.89-1.149,2.987-1.908c0.984-0.682,1.996-1.46,3.107-2.388l0.475-0.398
	c0.986-0.85,1.939-1.748,2.85-2.69l0.153-0.162c4.695-4.904,8.205-10.929,10.124-17.344c0.053-0.169,0.101-0.339,0.14-0.486
	c0.224-0.773,0.427-1.554,0.609-2.345c0.058-0.253,0.112-0.508,0.168-0.769c0.142-0.684,0.269-1.372,0.379-2.067l0.021-0.121
	c0.04-0.256,0.08-0.511,0.119-0.787c0.093-0.686,0.168-1.379,0.227-2.063l0.014-0.145c0.025-0.239,0.047-0.479,0.063-0.72
	c0.072-1.058,0.106-2.019,0.105-2.931L483.456,149.505z M48.469,140.114c0.732-1.783,1.666-3.476,2.773-5.028
	c1.696-2.378,3.754-4.415,6.114-6.051c0.674-0.465,1.222-0.819,1.731-1.111l184.373-106.49c3.796-2.192,8.12-3.351,12.504-3.351
	c4.381,0,8.701,1.159,12.495,3.347l184.41,106.428c0.527,0.304,1.09,0.667,1.777,1.145c3.881,2.7,6.908,6.446,8.756,10.824
	c0.452,1.074,0.828,2.169,1.119,3.26c0.567,2.124,0.854,4.283,0.854,6.421l0.005,28.872H46.595l-0.005-28.801
	C46.59,146.337,47.223,143.152,48.469,140.114z M465.348,364.1l-0.051,0.52c-0.035,0.406-0.076,0.811-0.129,1.195l-0.082,0.53
	c-0.064,0.404-0.137,0.804-0.219,1.197l-0.095,0.441c-0.105,0.457-0.224,0.909-0.363,1.389l-0.061,0.224
	c-1.13,3.759-3.164,7.249-5.902,10.109l-0.083,0.09c-0.515,0.532-1.068,1.052-1.639,1.546l-0.286,0.239
	c-0.676,0.564-1.263,1.019-1.79,1.384c-0.674,0.465-1.222,0.819-1.731,1.111l-184.373,106.49c-3.796,2.193-8.12,3.351-12.504,3.351
	c-4.381,0-8.703-1.157-12.495-3.347L59.131,384.143c-0.526-0.303-1.09-0.668-1.777-1.144c-0.538-0.375-1.108-0.817-1.814-1.41
	l-0.262-0.217c-0.573-0.495-1.125-1.017-1.577-1.486c-0.033-0.035-0.137-0.148-0.172-0.183c-1.086-1.14-2.072-2.395-2.931-3.731
	c-0.01-0.016-0.019-0.03-0.028-0.046c-1.259-1.966-2.233-4.088-2.887-6.28l-0.075-0.268c-0.128-0.444-0.244-0.891-0.351-1.357
	l-0.094-0.436c-0.081-0.389-0.153-0.781-0.219-1.198l-0.078-0.5c-0.054-0.4-0.094-0.803-0.131-1.221l-0.046-0.476
	c-0.037-0.561-0.063-1.125-0.063-1.7l-0.005-28.865h319.803c4.994,0,9.041-4.048,9.041-9.041s-4.047-9.041-9.041-9.041H46.619
	l-0.02-119.078h418.783l0.019,119.078h-57.826c-4.994,0-9.041,4.048-9.041,9.041s4.047,9.041,9.041,9.041h57.83l0.005,28.814
	C465.409,363.004,465.384,363.567,465.348,364.1z"/>
<g>
</g>
<g>
</g>
<g>
</g>
<g>
</g>
<g>
</g>
<g>
</g>
<g>
</g>
<g>
</g>
<g>
</g>
<g>
</g>
<g>
</g>
<g>
</g>
<g>
</g>
<g>
</g>
<g>
</g>
</svg>
