<?xml version="1.0" encoding="iso-8859-1"?>
<!-- Generator: Adobe Illustrator 19.0.0, SVG Export Plug-In . SVG Version: 6.00 Build 0)  -->
<svg version="1.1" id="Layer_1" xmlns="http://www.w3.org/2000/svg" xmlns:xlink="http://www.w3.org/1999/xlink" x="0px" y="0px"
	 viewBox="0 0 512 512" style="enable-background:new 0 0 512 512;" xml:space="preserve">
<path style="fill:#FFE000;" d="M473.103,371.85c0.176-0.61,0.336-1.227,0.479-1.848c0.046-0.201,0.088-0.403,0.13-0.604
	c0.113-0.54,0.213-1.085,0.3-1.632c0.037-0.237,0.076-0.474,0.11-0.711c0.076-0.546,0.131-1.095,0.18-1.644
	c0.02-0.225,0.047-0.448,0.063-0.674c0.052-0.767,0.084-1.537,0.084-2.313l0,0l0,0v-0.006l-0.005-40.904v-0.002l-0.005-26.203
	v-0.002v-4.213l-0.005-25.574l0,0l-0.008-48.824l-0.004-26.203l-0.007-40.985c-0.001-2.995-0.408-5.931-1.16-8.75
	c-0.405-1.517-0.915-2.997-1.521-4.435c-2.477-5.876-6.574-11.016-11.925-14.74c-0.784-0.545-1.584-1.071-2.421-1.553
	l-22.874-13.202l-21.414-12.358l-17.24-9.949l-65.923-38.046L304.22,31.629l-19.288-11.132l-11.953-6.899
	c-10.533-6.078-23.509-6.076-34.04,0.007l-11.872,6.857l-19.288,11.14l-25.717,14.853l0,0l-65.915,38.072l-28.89,16.686
	l-21.406,12.365l-11.284,6.516c-0.811,0.469-1.59,0.98-2.353,1.507c-3.272,2.268-6.073,5.067-8.333,8.236
	c-1.517,2.127-2.781,4.422-3.773,6.841c-1.655,4.032-2.558,8.399-2.557,12.899l0.007,40.913l0.004,26.203l0.012,73.738v4.011v0.85
	v0.001v0.013l0,0v0.005l0,0l0.004,26.198v0.002v1.863l0.002,12.617l0.005,26.496v0.007l0,0c0,0.773,0.031,1.539,0.084,2.305
	c0.016,0.224,0.042,0.445,0.061,0.668c0.048,0.55,0.105,1.096,0.18,1.638c0.033,0.236,0.071,0.471,0.108,0.708
	c0.087,0.544,0.186,1.086,0.298,1.625c0.042,0.201,0.084,0.403,0.13,0.603c0.14,0.615,0.298,1.222,0.471,1.825
	c0.033,0.113,0.061,0.228,0.095,0.34c0.908,3.043,2.239,5.93,3.94,8.588c0,0.001,0,0.002,0.001,0.002l0.001,0.002
	c1.172,1.832,2.517,3.551,4.026,5.137c0.049,0.053,0.098,0.106,0.148,0.159c0.709,0.734,1.454,1.438,2.231,2.112
	c0.125,0.11,0.254,0.215,0.382,0.322c0.786,0.661,1.594,1.298,2.445,1.89c0.784,0.545,1.584,1.07,2.419,1.553l22.552,13.016
	l21.414,12.359l17.561,10.134l91.644,52.89l19.288,11.132l11.953,6.899c10.533,6.078,23.509,6.076,34.04-0.007l11.872-6.857
	l19.288-11.14l25.719-14.853l55.553-32.086l10.363-5.985l26.36-15.225l21.408-12.365l13.813-7.977
	c0.813-0.469,1.59-0.98,2.353-1.507c0.851-0.588,1.659-1.226,2.445-1.884c0.129-0.106,0.259-0.212,0.386-0.323
	c0.779-0.671,1.526-1.374,2.236-2.108c0.047-0.048,0.09-0.098,0.136-0.145c3.725-3.893,6.476-8.61,8.019-13.767
	C473.044,372.067,473.072,371.958,473.103,371.85z"/>
<path style="fill:#ED1F34;" d="M165.585,364.496V55.972l-49.44,28.555l-28.89,16.686l-21.406,12.365l-11.284,6.516
	c-0.811,0.469-1.59,0.98-2.353,1.507c-3.272,2.268-6.073,5.067-8.333,8.236c-1.517,2.127-2.781,4.422-3.773,6.841
	c-1.655,4.032-2.558,8.399-2.557,12.899l0.007,40.913l0.004,26.203l0.013,73.738v4.011v0.849v0.002v0.013l0,0v0.005l0,0
	l0.004,26.198v0.002v1.863l0.002,12.617l0.005,26.496v0.007l0,0c0,0.773,0.031,1.539,0.084,2.305
	c0.016,0.224,0.042,0.445,0.061,0.668c0.048,0.55,0.105,1.096,0.18,1.639c0.033,0.235,0.071,0.47,0.108,0.706
	c0.087,0.544,0.184,1.085,0.298,1.625c0.042,0.201,0.084,0.403,0.13,0.603c0.14,0.615,0.298,1.222,0.471,1.825
	c0.033,0.113,0.061,0.228,0.095,0.34c0.909,3.043,2.239,5.93,3.94,8.588c0,0.001,0.001,0.002,0.001,0.004l0.001,0.001
	c1.172,1.832,2.517,3.551,4.025,5.137c0.051,0.053,0.099,0.106,0.149,0.159c0.709,0.734,1.454,1.438,2.231,2.112
	c0.125,0.11,0.256,0.215,0.382,0.322c0.786,0.661,1.594,1.298,2.445,1.89c0.784,0.545,1.584,1.071,2.419,1.553l22.552,13.016
	l21.414,12.359l17.561,10.134l49.45,28.539v-55.358v-36.167H165.585z"/>
<path style="fill:#259245;" d="M474.444,321.512v-0.002l-0.005-26.203v-0.002v-4.213l-0.005-25.574l-0.008-48.824l-0.004-26.203
	l-0.007-40.985c-0.001-2.995-0.408-5.931-1.16-8.75c-0.405-1.517-0.915-2.997-1.521-4.435c-2.477-5.876-6.574-11.016-11.925-14.74
	c-0.784-0.545-1.584-1.071-2.421-1.553l-22.874-13.202l-21.414-12.358l-17.24-9.949L346.41,55.98v400.048l39.078-22.571
	l10.363-5.985l26.36-15.225l21.408-12.365l13.813-7.977c0.813-0.469,1.59-0.98,2.353-1.507c0.851-0.588,1.659-1.226,2.445-1.884
	c0.129-0.106,0.259-0.212,0.386-0.323c0.779-0.672,1.526-1.374,2.236-2.108c0.047-0.048,0.09-0.098,0.136-0.145
	c3.725-3.893,6.476-8.61,8.019-13.767c0.033-0.106,0.06-0.215,0.092-0.322c0.176-0.611,0.336-1.228,0.479-1.849
	c0.046-0.201,0.088-0.403,0.13-0.604c0.113-0.54,0.213-1.084,0.3-1.632c0.037-0.237,0.076-0.474,0.11-0.712
	c0.076-0.545,0.131-1.093,0.181-1.643c0.019-0.225,0.046-0.448,0.061-0.674c0.052-0.767,0.084-1.537,0.084-2.313l0,0v-0.006
	L474.444,321.512z"/>
<path d="M28.544,362.495c0,3.708,0.493,7.437,1.464,11.076c0.503,1.885,1.15,3.777,1.928,5.623
	c3.18,7.542,8.399,13.99,15.091,18.646c1.113,0.775,2.086,1.398,3.066,1.964l184.411,106.429c6.539,3.772,13.985,5.767,21.534,5.767
	c7.555,0,15.005-1.998,21.546-5.776l184.376-106.49c0.945-0.546,1.89-1.15,2.979-1.904c4.087-2.831,7.633-6.335,10.546-10.421
	c1.912-2.682,3.519-5.595,4.775-8.657c2.147-5.231,3.236-10.726,3.234-16.335l-0.035-212.915c0-0.921-0.034-1.875-0.105-2.917
	c-0.017-0.235-0.037-0.469-0.061-0.702l-0.014-0.143c-0.061-0.694-0.134-1.386-0.231-2.096c-0.033-0.24-0.071-0.477-0.108-0.717
	l-0.025-0.158c-0.11-0.69-0.234-1.375-0.379-2.067c-0.053-0.256-0.107-0.51-0.164-0.757c-0.177-0.776-0.377-1.543-0.608-2.348
	l-0.112-0.391c-1.143-3.83-2.821-7.487-4.985-10.874c-0.013-0.019-0.025-0.037-0.037-0.058c-1.477-2.301-3.179-4.47-5.054-6.441
	c-0.04-0.042-0.154-0.163-0.194-0.205c-0.887-0.921-1.836-1.82-2.827-2.677l-0.481-0.405c-1.097-0.923-2.111-1.703-3.096-2.389
	c-1.114-0.775-2.086-1.397-3.063-1.961L277.498,5.767C270.961,1.995,263.514,0.001,255.965,0l0,0
	c-7.555,0-15.005,1.998-21.549,5.776L50.047,112.263c-0.944,0.544-1.89,1.149-2.987,1.907c-0.99,0.687-2.004,1.466-3.107,2.389
	l-0.475,0.398c-0.986,0.85-1.938,1.747-2.85,2.688l-0.153,0.163c-4.695,4.904-8.205,10.929-10.124,17.344
	c-0.052,0.168-0.1,0.334-0.14,0.487c-0.224,0.774-0.427,1.554-0.609,2.342c-0.058,0.254-0.112,0.509-0.168,0.77
	c-0.142,0.682-0.269,1.371-0.379,2.067l-0.02,0.123c-0.04,0.253-0.08,0.508-0.119,0.786c-0.093,0.686-0.168,1.378-0.227,2.063
	l-0.014,0.143c-0.025,0.239-0.047,0.477-0.063,0.72c-0.072,1.058-0.106,2.019-0.105,2.931L28.544,362.495z M243.46,21.434
	c3.796-2.192,8.12-3.351,12.504-3.351c4.381,0.001,8.701,1.159,12.495,3.347l68.912,39.771v50.136c0,4.994,4.047,9.041,9.041,9.041
	c4.993,0,9.041-4.047,9.041-9.041V71.638l97.413,56.219c0.527,0.304,1.091,0.669,1.779,1.146c0.539,0.375,1.109,0.817,1.783,1.383
	l0.287,0.241c0.577,0.499,1.13,1.021,1.596,1.507c0.025,0.027,0.127,0.134,0.154,0.163c1.099,1.156,2.094,2.426,2.956,3.774
	c0.011,0.017,0.023,0.033,0.033,0.049c1.244,1.954,2.207,4.06,2.866,6.265l0.066,0.237c0.127,0.445,0.245,0.892,0.35,1.351
	l0.093,0.433c0.083,0.395,0.156,0.793,0.218,1.184l0.081,0.523c0.055,0.4,0.095,0.803,0.13,1.201l0.048,0.495
	c0.039,0.562,0.064,1.125,0.064,1.699l0.035,212.912c0.001,3.24-0.632,6.424-1.881,9.467c-0.729,1.781-1.662,3.471-2.77,5.025
	c-1.695,2.378-3.754,4.415-6.114,6.049c-0.673,0.465-1.222,0.82-1.731,1.113l-97.458,56.288V147.503
	c0-4.994-4.048-9.041-9.041-9.041c-4.994,0-9.041,4.047-9.041,9.041v303.306l-68.835,39.757c-3.795,2.193-8.119,3.351-12.502,3.351
	c-4.381,0-8.701-1.157-12.495-3.347l-68.912-39.771V61.191L243.46,21.434z M46.652,147.902l0.051-0.521
	c0.035-0.406,0.076-0.813,0.128-1.191l0.083-0.534c0.064-0.403,0.137-0.804,0.219-1.196l0.095-0.44
	c0.105-0.458,0.224-0.911,0.362-1.389l0.061-0.222c1.13-3.76,3.164-7.251,5.903-10.113l0.083-0.092
	c0.515-0.53,1.068-1.051,1.64-1.544l0.289-0.24c0.669-0.561,1.256-1.015,1.787-1.382c0.674-0.467,1.222-0.82,1.731-1.113
	l97.458-56.288v368.726L59.13,384.143c-0.527-0.304-1.09-0.668-1.777-1.145c-3.881-2.699-6.908-6.446-8.756-10.824
	c-0.452-1.074-0.828-2.169-1.119-3.259c-0.567-2.124-0.854-4.283-0.854-6.421l-0.035-212.93
	C46.589,148.996,46.616,148.434,46.652,147.902z"/>
<g>
</g>
<g>
</g>
<g>
</g>
<g>
</g>
<g>
</g>
<g>
</g>
<g>
</g>
<g>
</g>
<g>
</g>
<g>
</g>
<g>
</g>
<g>
</g>
<g>
</g>
<g>
</g>
<g>
</g>
</svg>
