<?xml version="1.0" encoding="iso-8859-1"?>
<!-- Generator: Adobe Illustrator 19.0.0, SVG Export Plug-In . SVG Version: 6.00 Build 0)  -->
<svg version="1.1" id="Layer_1" xmlns="http://www.w3.org/2000/svg" xmlns:xlink="http://www.w3.org/1999/xlink" x="0px" y="0px"
	 viewBox="0 0 512 512" style="enable-background:new 0 0 512 512;" xml:space="preserve">
<path style="fill:#FFFFFF;" d="M473.104,371.851c0.176-0.611,0.338-1.228,0.479-1.85c0.047-0.201,0.089-0.401,0.131-0.603
	c0.113-0.541,0.213-1.085,0.3-1.634c0.037-0.236,0.076-0.473,0.11-0.711c0.076-0.545,0.131-1.093,0.18-1.643
	c0.021-0.225,0.047-0.447,0.063-0.674c0.052-0.767,0.084-1.537,0.083-2.313l0,0l0,0v-0.006l-0.006-40.904v-0.001l-0.005-26.204
	v-0.002l-0.001-4.213l-0.004-25.574l0,0l-0.008-48.824l-0.005-26.204l-0.006-40.985c-0.001-2.996-0.409-5.93-1.161-8.75
	c-0.405-1.517-0.915-2.997-1.521-4.435c-2.477-5.877-6.574-11.016-11.924-14.74c-0.784-0.545-1.584-1.071-2.421-1.554l-22.874-13.2
	l-21.414-12.358l-17.24-9.949l-65.921-38.046l-25.717-14.842l-19.288-11.132l-11.953-6.898c-10.533-6.078-23.509-6.077-34.04,0.006
	l-11.872,6.857l-19.288,11.14l-25.717,14.854l0,0l-65.915,38.07l-28.89,16.686L65.85,113.578l-11.282,6.517
	c-0.813,0.469-1.59,0.979-2.353,1.507c-3.272,2.266-6.072,5.068-8.331,8.236c-1.517,2.128-2.781,4.423-3.774,6.841
	c-1.654,4.031-2.557,8.399-2.557,12.899l0.007,40.912l0.005,26.204l0.012,73.738l0.001,4.011v0.849v0.002v0.013l0,0v0.005l0,0
	l0.005,26.2l0,0v1.864l0.002,12.617l0.004,26.497v0.006l0,0c0.001,0.773,0.033,1.539,0.084,2.304
	c0.016,0.224,0.042,0.446,0.061,0.669c0.049,0.55,0.106,1.096,0.18,1.638c0.033,0.236,0.072,0.471,0.11,0.706
	c0.086,0.546,0.184,1.087,0.297,1.626c0.043,0.201,0.086,0.403,0.131,0.603c0.14,0.615,0.298,1.222,0.471,1.825
	c0.033,0.113,0.061,0.227,0.095,0.34c0.909,3.042,2.239,5.93,3.941,8.589c0,0,0,0.001,0,0.002l0.002,0.001
	c1.172,1.832,2.517,3.551,4.026,5.137c0.049,0.052,0.098,0.106,0.147,0.158c0.71,0.735,1.454,1.441,2.233,2.112
	c0.125,0.11,0.256,0.215,0.382,0.322c0.786,0.661,1.594,1.3,2.444,1.89c0.784,0.545,1.584,1.07,2.421,1.554l22.552,13.015
	l21.414,12.359l17.561,10.135l91.644,52.89l19.288,11.132l11.953,6.898c10.533,6.078,23.509,6.077,34.04-0.006l11.872-6.857
	l19.288-11.14l25.717-14.853l55.554-32.086l10.363-5.985l26.36-15.224l21.408-12.365l13.813-7.978
	c0.813-0.469,1.59-0.979,2.352-1.507c0.851-0.59,1.66-1.226,2.446-1.883c0.129-0.107,0.259-0.213,0.386-0.322
	c0.779-0.673,1.526-1.375,2.236-2.11c0.046-0.048,0.09-0.098,0.136-0.146c3.725-3.891,6.475-8.609,8.019-13.765
	C473.047,372.067,473.074,371.958,473.104,371.851z"/>
<path style="fill:#ED1F34;" d="M433.303,187.42h41.12l-0.006-37.915c-0.001-2.996-0.409-5.93-1.161-8.75
	c-0.405-1.517-0.915-2.997-1.52-4.435c-2.479-5.877-6.575-11.016-11.925-14.74c-0.784-0.545-1.584-1.071-2.421-1.554l-22.874-13.2
	l-21.414-12.358l-17.24-9.949l-65.924-38.047l-25.717-14.842l-19.288-11.132l-11.953-6.898c-10.533-6.078-23.509-6.077-34.04,0.006
	l-11.872,6.857l-19.288,11.14l-25.717,14.854l0,0l-65.915,38.07l-28.89,16.686L65.85,113.578l-11.282,6.517
	c-0.813,0.469-1.59,0.979-2.353,1.507c-3.273,2.266-6.072,5.068-8.331,8.236c-1.517,2.128-2.781,4.423-3.774,6.841
	c-1.654,4.031-2.557,8.399-2.557,12.899l0.007,37.842h354.598h41.147V187.42z"/>
<path style="fill:#333333;" d="M474.446,324.58H37.58l0.002,11.411l0.004,26.497v0.006l0,0c0.001,0.773,0.033,1.539,0.084,2.304
	c0.016,0.224,0.042,0.446,0.061,0.669c0.049,0.55,0.106,1.096,0.18,1.638c0.033,0.236,0.072,0.471,0.11,0.706
	c0.086,0.546,0.184,1.087,0.297,1.626c0.042,0.201,0.086,0.403,0.131,0.603c0.14,0.615,0.298,1.222,0.471,1.825
	c0.033,0.113,0.061,0.227,0.095,0.34c0.909,3.042,2.239,5.93,3.94,8.589c0.001,0,0.001,0.001,0.001,0.002l0.002,0.001
	c1.172,1.832,2.517,3.551,4.026,5.137c0.049,0.052,0.098,0.106,0.147,0.158c0.71,0.735,1.454,1.441,2.233,2.112
	c0.125,0.11,0.256,0.215,0.382,0.322c0.786,0.661,1.594,1.3,2.444,1.89c0.784,0.545,1.584,1.071,2.421,1.554l22.552,13.015
	l21.414,12.359l17.561,10.135l91.644,52.89l19.288,11.132l11.953,6.898c10.533,6.078,23.509,6.077,34.04-0.006l11.872-6.857
	l19.288-11.14l25.717-14.853l55.554-32.086l10.363-5.985l26.36-15.225l21.408-12.365l13.813-7.978
	c0.813-0.469,1.59-0.979,2.352-1.507c0.852-0.59,1.66-1.226,2.446-1.883c0.129-0.107,0.259-0.213,0.386-0.322
	c0.779-0.673,1.526-1.375,2.236-2.11c0.047-0.048,0.09-0.098,0.136-0.146c3.725-3.891,6.475-8.609,8.019-13.765
	c0.033-0.106,0.06-0.215,0.09-0.322c0.176-0.611,0.338-1.228,0.479-1.85c0.047-0.201,0.089-0.401,0.131-0.603
	c0.113-0.541,0.213-1.085,0.3-1.633c0.037-0.236,0.076-0.473,0.11-0.711c0.076-0.545,0.131-1.093,0.18-1.643
	c0.02-0.225,0.046-0.447,0.063-0.674c0.052-0.767,0.083-1.537,0.083-2.313l0,0v-0.006L474.446,324.58z"/>
<g>
	<polygon style="fill:#259245;" points="104.625,246.53 135.681,244.925 146.803,215.887 157.926,244.925 188.982,246.53 
		164.8,266.082 172.87,296.113 146.803,279.157 120.736,296.113 128.807,266.082 	"/>
	<polygon style="fill:#259245;" points="323.022,246.53 354.077,244.925 365.2,215.887 376.323,244.925 407.378,246.53 
		383.197,266.082 391.268,296.113 365.2,279.157 339.133,296.113 347.204,266.082 	"/>
</g>
<path d="M483.457,149.505c0-3.709-0.493-7.437-1.463-11.075c-0.503-1.887-1.15-3.776-1.928-5.623
	c-3.18-7.543-8.399-13.99-15.091-18.647c-1.113-0.775-2.086-1.398-3.066-1.964L277.5,5.768C270.963,1.995,263.516,0,255.966,0
	c-7.555,0-15.005,1.998-21.547,5.776L50.049,112.263c-0.943,0.545-1.89,1.149-2.985,1.906c-4.086,2.831-7.632,6.336-10.545,10.421
	c-1.911,2.68-3.516,5.592-4.776,8.658c-2.146,5.23-3.234,10.724-3.234,16.332l0.036,212.917c0,0.927,0.034,1.882,0.105,2.917
	c0.017,0.241,0.039,0.48,0.064,0.72l0.013,0.129c0.06,0.693,0.133,1.384,0.23,2.095c0.036,0.26,0.076,0.52,0.131,0.863
	c0.111,0.697,0.236,1.389,0.381,2.08c0.054,0.256,0.108,0.51,0.164,0.753c0.177,0.776,0.377,1.544,0.604,2.339
	c0.04,0.148,0.082,0.297,0.115,0.403c1.138,3.811,2.804,7.451,4.952,10.821c0.013,0.019,0.025,0.037,0.036,0.057l0,0
	c0.002,0.004,0.005,0.007,0.007,0.011c1.484,2.319,3.197,4.503,5.051,6.45c0.048,0.052,0.176,0.19,0.227,0.241
	c0.897,0.929,1.847,1.829,2.816,2.667l0.489,0.412c1.098,0.923,2.111,1.703,3.097,2.391c1.115,0.775,2.087,1.397,3.062,1.96
	l184.411,106.428c6.539,3.773,13.985,5.768,21.534,5.768c7.555,0,15.005-1.998,21.547-5.776l184.37-106.487
	c0.943-0.545,1.89-1.149,2.987-1.907c0.987-0.686,2-1.464,3.107-2.389l0.475-0.398c0.986-0.851,1.938-1.749,2.85-2.69l0.153-0.163
	c4.695-4.904,8.205-10.929,10.126-17.35c0.051-0.165,0.098-0.33,0.137-0.481c0.224-0.774,0.427-1.554,0.609-2.344
	c0.058-0.252,0.111-0.504,0.168-0.769c0.142-0.684,0.269-1.372,0.379-2.064l0.019-0.121c0.041-0.257,0.081-0.512,0.121-0.791
	c0.093-0.687,0.168-1.379,0.227-2.063l0.014-0.143c0.025-0.24,0.047-0.479,0.063-0.72c0.072-1.058,0.106-2.019,0.105-2.931
	L483.457,149.505z M48.471,140.114c0.732-1.783,1.666-3.474,2.773-5.027c1.696-2.378,3.754-4.415,6.114-6.051
	c0.674-0.465,1.222-0.819,1.731-1.111L243.463,21.434c3.796-2.192,8.12-3.351,12.504-3.351c4.381,0,8.701,1.157,12.495,3.347
	l184.41,106.428c0.527,0.304,1.09,0.667,1.777,1.145c3.881,2.7,6.908,6.446,8.756,10.824c0.452,1.074,0.828,2.169,1.119,3.26
	c0.567,2.124,0.854,4.283,0.854,6.419l0.005,28.872h-32.076c-4.994,0-9.041,4.047-9.041,9.041c0,4.993,4.047,9.041,9.041,9.041
	h32.08l0.019,119.078H46.62L46.6,196.461h345.555c4.994,0,9.041-4.048,9.041-9.041c0-4.994-4.047-9.041-9.041-9.041H46.596
	l-0.005-28.801C46.592,146.337,47.224,143.152,48.471,140.114z M465.349,364.1l-0.051,0.518c-0.035,0.406-0.076,0.813-0.128,1.193
	l-0.083,0.533c-0.064,0.404-0.137,0.805-0.218,1.191l-0.096,0.446c-0.105,0.457-0.224,0.909-0.362,1.386l-0.063,0.224
	c-1.13,3.76-3.163,7.25-5.908,10.118l-0.077,0.084c-0.515,0.532-1.068,1.052-1.639,1.546l-0.288,0.24
	c-0.671,0.562-1.259,1.016-1.788,1.383c-0.674,0.465-1.222,0.819-1.731,1.111l-184.373,106.49c-3.796,2.193-8.12,3.351-12.504,3.351
	c-4.381,0-8.703-1.157-12.495-3.347L59.133,384.143c-0.526-0.303-1.09-0.668-1.777-1.144c-0.538-0.375-1.108-0.817-1.814-1.41
	l-0.264-0.221c-0.568-0.491-1.12-1.013-1.574-1.484c-0.035-0.037-0.136-0.147-0.172-0.184c-1.085-1.138-2.069-2.391-2.926-3.723
	c-0.011-0.018-0.023-0.035-0.034-0.053c-1.257-1.966-2.231-4.087-2.886-6.281l-0.076-0.269c-0.127-0.444-0.244-0.891-0.348-1.354
	l-0.095-0.44c-0.081-0.389-0.153-0.78-0.219-1.199c0-0.002-0.02-0.122-0.02-0.124l-0.059-0.374c-0.054-0.4-0.094-0.804-0.131-1.22
	l-0.045-0.475c-0.037-0.561-0.063-1.125-0.063-1.7l-0.005-28.865h418.782l0.005,28.814
	C465.411,363.003,465.386,363.566,465.349,364.1z M172.87,305.154c-1.713,0-3.428-0.486-4.931-1.462l-21.136-13.748l-21.136,13.748
	c-3.142,2.042-7.214,1.937-10.245-0.264s-4.391-6.044-3.418-9.661l6.545-24.352L98.94,253.561c-2.913-2.354-4.071-6.261-2.914-9.824
	c1.157-3.562,4.392-6.042,8.132-6.235l25.182-1.301l9.018-23.547c1.339-3.498,4.697-5.807,8.443-5.807
	c3.747,0,7.104,2.31,8.443,5.807l9.019,23.547l25.182,1.301c3.742,0.193,6.975,2.673,8.132,6.235s-0.001,7.469-2.914,9.824
	l-19.609,15.855l6.545,24.352c0.973,3.617-0.387,7.46-3.418,9.661C176.603,304.577,174.738,305.154,172.87,305.154z
	 M146.803,270.116c1.715,0,3.432,0.487,4.931,1.462l6.28,4.086l-1.945-7.236c-0.928-3.453,0.266-7.128,3.046-9.377l5.825-4.71
	l-7.48-0.387c-3.572-0.184-6.699-2.456-7.977-5.795l-2.68-6.996l-2.68,6.996c-1.279,3.339-4.405,5.611-7.977,5.795l-7.48,0.387
	l5.825,4.71c2.781,2.248,3.975,5.924,3.046,9.377l-1.945,7.236l6.28-4.086C143.372,270.604,145.089,270.116,146.803,270.116z
	 M391.268,305.154c-1.713,0-3.428-0.486-4.931-1.462l-21.136-13.748l-21.136,13.748c-3.142,2.042-7.215,1.937-10.244-0.264
	c-3.031-2.201-4.391-6.044-3.418-9.661l6.545-24.352l-19.609-15.855c-2.913-2.354-4.071-6.261-2.914-9.824s4.392-6.042,8.132-6.235
	l25.182-1.301l9.018-23.547c1.339-3.498,4.697-5.807,8.443-5.807s7.104,2.31,8.443,5.807l9.018,23.547l25.182,1.301
	c3.742,0.193,6.975,2.673,8.132,6.235s-0.001,7.469-2.914,9.824l-19.609,15.855l6.545,24.352c0.973,3.617-0.387,7.46-3.418,9.661
	C395,304.577,393.135,305.154,391.268,305.154z M365.2,270.116c1.715,0,3.432,0.487,4.931,1.462l6.28,4.086l-1.945-7.236
	c-0.928-3.453,0.266-7.128,3.046-9.377l5.825-4.71l-7.48-0.387c-3.572-0.184-6.699-2.456-7.977-5.795l-2.68-6.996l-2.68,6.996
	c-1.279,3.339-4.405,5.611-7.977,5.795l-7.48,0.387l5.825,4.71c2.781,2.248,3.975,5.924,3.046,9.377l-1.944,7.236l6.28-4.086
	C361.769,270.604,363.485,270.116,365.2,270.116z"/>
<g>
</g>
<g>
</g>
<g>
</g>
<g>
</g>
<g>
</g>
<g>
</g>
<g>
</g>
<g>
</g>
<g>
</g>
<g>
</g>
<g>
</g>
<g>
</g>
<g>
</g>
<g>
</g>
<g>
</g>
</svg>
