<?xml version="1.0" encoding="iso-8859-1"?>
<!-- Generator: Adobe Illustrator 19.0.0, SVG Export Plug-In . SVG Version: 6.00 Build 0)  -->
<svg version="1.1" id="Layer_1" xmlns="http://www.w3.org/2000/svg" xmlns:xlink="http://www.w3.org/1999/xlink" x="0px" y="0px"
	 viewBox="0 0 512 512" style="enable-background:new 0 0 512 512;" xml:space="preserve">
<path style="fill:#048B7D;" d="M473.102,371.85c0.176-0.61,0.338-1.227,0.479-1.848c0.047-0.201,0.089-0.403,0.131-0.604
	c0.113-0.54,0.213-1.085,0.3-1.632c0.037-0.237,0.076-0.474,0.11-0.711c0.076-0.546,0.131-1.095,0.18-1.644
	c0.02-0.225,0.047-0.448,0.063-0.674c0.052-0.767,0.084-1.537,0.083-2.313l0,0l0,0v-0.006l-0.006-40.904v-0.002l-0.005-26.203
	v-0.002l-0.001-4.213l-0.004-25.574l0,0l-0.008-48.824l-0.005-26.203l-0.006-40.985c-0.001-2.995-0.409-5.931-1.161-8.75
	c-0.405-1.517-0.915-2.997-1.521-4.435c-2.477-5.876-6.574-11.016-11.924-14.74c-0.784-0.545-1.584-1.071-2.421-1.553l-22.87-13.202
	l-21.414-12.358l-17.24-9.949l-65.925-38.046L304.22,31.629l-19.288-11.132l-11.953-6.899c-10.533-6.078-23.509-6.076-34.04,0.007
	l-11.872,6.857l-19.288,11.14l-25.717,14.853l0,0l-65.915,38.072l-28.89,16.686l-21.408,12.365l-11.282,6.516
	c-0.813,0.469-1.59,0.98-2.353,1.507c-3.272,2.268-6.072,5.067-8.331,8.236c-1.517,2.127-2.781,4.422-3.774,6.841
	c-1.654,4.032-2.557,8.399-2.557,12.899l0.007,40.913l0.005,26.203l0.012,73.738l0.001,4.011v0.85v0.001v0.013l0,0v0.005l0,0
	l0.005,26.198v0.002v1.863l0.002,12.617l0.004,26.496v0.007l0,0c0.001,0.773,0.033,1.539,0.084,2.305
	c0.016,0.224,0.042,0.445,0.063,0.668c0.048,0.55,0.105,1.096,0.178,1.638c0.033,0.236,0.072,0.471,0.11,0.708
	c0.086,0.544,0.184,1.086,0.298,1.625c0.042,0.201,0.084,0.403,0.13,0.603c0.14,0.615,0.298,1.222,0.471,1.825
	c0.033,0.113,0.061,0.228,0.095,0.34c0.909,3.043,2.239,5.93,3.941,8.588c0,0.001,0,0.002,0.001,0.002l0.001,0.002
	c1.172,1.832,2.517,3.551,4.026,5.137c0.049,0.053,0.098,0.106,0.147,0.159c0.71,0.734,1.454,1.438,2.233,2.112
	c0.125,0.11,0.254,0.215,0.382,0.322c0.785,0.661,1.594,1.298,2.444,1.89c0.784,0.545,1.584,1.07,2.421,1.553l22.552,13.016
	l21.414,12.359l17.561,10.134l91.644,52.89l19.288,11.132l11.953,6.899c10.533,6.078,23.509,6.076,34.04-0.007l11.872-6.857
	l19.288-11.14l25.717-14.853l55.554-32.086l10.363-5.985l26.36-15.225l21.408-12.365l13.813-7.977
	c0.813-0.469,1.59-0.98,2.353-1.507c0.85-0.588,1.659-1.226,2.445-1.884c0.129-0.106,0.259-0.212,0.386-0.323
	c0.779-0.671,1.526-1.374,2.236-2.108c0.046-0.048,0.09-0.098,0.136-0.145c3.725-3.893,6.475-8.61,8.019-13.767
	C473.044,372.067,473.072,371.958,473.102,371.85z"/>
<g>
	<circle style="fill:#FFE610;" cx="256.002" cy="135.103" r="18.083"/>
	<circle style="fill:#FFE610;" cx="203.864" cy="155.657" r="12.055"/>
	<circle style="fill:#FFE610;" cx="171.64" cy="191.569" r="12.052"/>
	<circle style="fill:#FFE610;" cx="340.353" cy="191.569" r="12.052"/>
	<circle style="fill:#FFE610;" cx="308.129" cy="155.657" r="12.055"/>
</g>
<g>
	<path style="fill:#FFFFFF;" d="M255.999,394.981c26.026,0,49.596-10.496,66.724-27.48H189.276
		C206.404,384.485,229.974,394.981,255.999,394.981z"/>
	<path style="fill:#FFFFFF;" d="M353.924,252.367c-15.802-12.142-40.778-13.663-63.148-2.093c-1.385,0.718-2.738,1.473-4.051,2.262
		c0.096-1.53,0.146-3.076,0.146-4.638c0-25.185-12.828-46.669-30.872-55.127c-18.045,8.458-30.872,29.943-30.872,55.127
		c0,1.561,0.049,3.108,0.146,4.638c-1.314-0.788-2.665-1.543-4.051-2.262c-22.37-11.571-47.344-10.049-63.148,2.093
		c-0.78,19.914,12.408,41.178,34.778,52.749c22.368,11.573,47.344,10.052,63.148-2.09c15.802,12.142,40.779,13.663,63.148,2.09
		C341.516,293.545,354.704,272.28,353.924,252.367z"/>
</g>
<path d="M287.636,322.056c-0.001,0-0.002,0-0.004,0c-11.548-0.001-22.547-2.868-31.633-8.167
	c-9.086,5.299-20.085,8.167-31.633,8.167c-12.068,0-24.402-3.081-35.669-8.91c-25.04-12.952-40.606-36.948-39.657-61.134
	c0.105-2.682,1.396-5.179,3.525-6.815c9.955-7.65,23.145-11.862,37.141-11.862c9.014,0,18.174,1.719,26.929,5.016
	c2.799-24.153,16.125-44.675,35.529-53.767c2.433-1.139,5.242-1.139,7.673,0c19.404,9.092,32.729,29.614,35.529,53.767
	c8.756-3.297,17.915-5.016,26.929-5.016c13.995,0,27.186,4.212,37.141,11.862c2.129,1.636,3.42,4.134,3.525,6.815
	c0.948,24.186-14.618,48.182-39.657,61.134C312.035,318.976,299.701,322.056,287.636,322.056z M255.999,293.982
	c1.942,0,3.885,0.624,5.509,1.872c6.811,5.236,16.09,8.118,26.125,8.119c0,0,0.001,0,0.002,0c9.187,0,18.647-2.382,27.356-6.887
	c16.953-8.77,28.45-24.42,29.792-39.986c-6.317-3.688-14.142-5.683-22.49-5.683c-9.19,0-18.652,2.382-27.362,6.887
	c-1.206,0.624-2.4,1.29-3.551,1.982c-2.88,1.732-6.481,1.721-9.354-0.027c-2.87-1.744-4.535-4.94-4.324-8.293
	c0.084-1.348,0.128-2.717,0.128-4.069c0-19.092-8.621-36.494-21.831-44.836c-13.21,8.342-21.831,25.744-21.831,44.836
	c0,1.351,0.043,2.721,0.128,4.069c0.211,3.353-1.454,6.548-4.324,8.293c-2.872,1.748-6.472,1.759-9.354,0.027
	c-1.151-0.691-2.346-1.357-3.551-1.982c-8.711-4.505-18.172-6.887-27.362-6.887c-8.348,0-16.173,1.995-22.49,5.683
	c1.342,15.566,12.838,31.216,29.792,39.986c8.71,4.505,18.17,6.887,27.359,6.887c10.032,0,19.311-2.884,26.124-8.119
	C252.115,294.606,254.057,293.982,255.999,293.982z M255.999,404.022c-27.556,0-53.514-10.689-73.089-30.101
	c-2.602-2.581-3.391-6.475-1.995-9.864s4.697-5.6,8.361-5.6h133.447c3.664,0,6.966,2.211,8.361,5.6
	c1.396,3.389,0.606,7.283-1.995,9.864C309.513,393.331,283.556,404.022,255.999,404.022z M216.899,376.542
	c11.959,6.143,25.287,9.397,39.101,9.397s27.142-3.254,39.101-9.397H216.899z M354.197,340.257c0-4.994-4.047-9.041-9.041-9.041
	H166.842c-4.994,0-9.041,4.047-9.041,9.041s4.047,9.041,9.041,9.041h178.313C350.15,349.298,354.197,345.251,354.197,340.257z
	 M256.035,512L256.035,512c-7.551-0.001-14.995-1.995-21.534-5.767L50.09,399.803c-0.979-0.565-1.951-1.187-3.062-1.96
	c-0.992-0.692-2.004-1.473-3.097-2.391c-0.209-0.174-0.354-0.294-0.498-0.419c-0.956-0.827-1.908-1.728-2.809-2.661
	c-0.047-0.049-0.169-0.177-0.215-0.228c-1.87-1.964-3.585-4.151-5.069-6.474c-0.012-0.018-0.024-0.036-0.035-0.055
	c-2.148-3.369-3.815-7.009-4.953-10.82c-0.034-0.116-0.076-0.26-0.115-0.406c-0.227-0.792-0.427-1.561-0.604-2.339
	c-0.054-0.237-0.108-0.491-0.163-0.745c-0.146-0.694-0.272-1.386-0.381-2.084c-0.057-0.351-0.098-0.606-0.134-0.867
	c-0.096-0.71-0.17-1.401-0.229-2.093l-0.013-0.127c-0.025-0.24-0.047-0.479-0.064-0.721c-0.071-1.037-0.105-1.99-0.105-2.919
	L28.509,149.58c0-5.607,1.087-11.102,3.234-16.332c1.26-3.067,2.867-5.979,4.777-8.659c2.908-4.081,6.456-7.585,10.542-10.418
	c1.107-0.766,2.052-1.369,2.986-1.907L234.416,5.777C240.959,1.998,248.411,0,255.965,0c7.549,0,14.994,1.994,21.533,5.767
	l184.411,106.429c0.97,0.561,1.972,1.202,3.066,1.964c6.692,4.656,11.911,11.105,15.091,18.646c0.776,1.843,1.424,3.733,1.926,5.623
	c0.972,3.638,1.465,7.367,1.465,11.076l0.035,212.911c0.001,0.913-0.033,1.873-0.105,2.931c-0.016,0.24-0.037,0.48-0.063,0.721
	l-0.014,0.143c-0.06,0.684-0.134,1.374-0.227,2.061c-0.039,0.278-0.078,0.536-0.121,0.794c-0.129,0.81-0.256,1.5-0.399,2.184
	c-0.055,0.265-0.11,0.52-0.168,0.773c-0.18,0.784-0.383,1.566-0.608,2.34c-0.041,0.154-0.09,0.327-0.143,0.497
	c-1.917,6.402-5.426,12.428-10.122,17.332l-0.119,0.127c-0.943,0.974-1.894,1.872-2.881,2.723l-0.405,0.339
	c-1.184,0.99-2.199,1.77-3.184,2.452c-1.104,0.763-2.049,1.367-2.984,1.905L277.58,506.223C271.04,510.002,263.589,512,256.035,512z
	 M50.548,375.887c0.008,0.014,0.018,0.028,0.025,0.042c0.863,1.348,1.858,2.617,2.956,3.771c0.034,0.035,0.141,0.151,0.175,0.186
	c0.454,0.471,1.005,0.992,1.57,1.479l0.266,0.224c0.703,0.591,1.275,1.033,1.818,1.413c0.679,0.471,1.244,0.835,1.773,1.14
	l184.41,106.428c3.793,2.189,8.113,3.346,12.494,3.346c0.001,0,0.001,0,0.001,0c4.383,0,8.707-1.16,12.504-3.351l184.372-106.49
	c0.501-0.288,1.051-0.641,1.734-1.114c0.53-0.369,1.099-0.808,1.784-1.382l0.293-0.242c0.568-0.489,1.121-1.011,1.635-1.543
	l0.083-0.09c2.74-2.863,4.776-6.354,5.905-10.118l0.06-0.217c0.137-0.477,0.257-0.929,0.362-1.386l0.096-0.447
	c0.08-0.387,0.154-0.787,0.218-1.191l0.082-0.528c0.053-0.385,0.094-0.79,0.129-1.197l0.051-0.52
	c0.036-0.534,0.063-1.097,0.061-1.664l-0.035-212.931c0-2.136-0.287-4.295-0.854-6.418c-0.291-1.093-0.667-2.187-1.118-3.259
	c-1.847-4.378-4.876-8.125-8.758-10.826c-0.682-0.476-1.245-0.837-1.776-1.144L268.459,21.429
	c-3.793-2.189-8.113-3.347-12.494-3.347c-4.384,0-8.709,1.16-12.505,3.351L59.087,127.924c-0.501,0.288-1.051,0.641-1.734,1.114
	c-2.357,1.633-4.416,3.671-6.11,6.048c-1.109,1.554-2.041,3.244-2.774,5.028c-1.247,3.039-1.879,6.223-1.879,9.465l0.036,212.911
	c0,0.575,0.025,1.138,0.063,1.699l0.047,0.473c0.037,0.421,0.077,0.825,0.131,1.225l0.078,0.5c0.066,0.415,0.137,0.808,0.219,1.196
	l0.094,0.438c0.106,0.467,0.223,0.913,0.35,1.354l0.076,0.276C48.336,371.823,49.3,373.932,50.548,375.887z"/>
<g>
</g>
<g>
</g>
<g>
</g>
<g>
</g>
<g>
</g>
<g>
</g>
<g>
</g>
<g>
</g>
<g>
</g>
<g>
</g>
<g>
</g>
<g>
</g>
<g>
</g>
<g>
</g>
<g>
</g>
</svg>
