<?xml version="1.0" encoding="iso-8859-1"?>
<!-- Generator: Adobe Illustrator 19.0.0, SVG Export Plug-In . SVG Version: 6.00 Build 0)  -->
<svg version="1.1" id="Layer_1" xmlns="http://www.w3.org/2000/svg" xmlns:xlink="http://www.w3.org/1999/xlink" x="0px" y="0px"
	 viewBox="0 0 512.001 512.001" style="enable-background:new 0 0 512.001 512.001;" xml:space="preserve">
<path style="fill:#FFE000;" d="M473.103,371.851c0.176-0.611,0.338-1.228,0.479-1.85c0.047-0.2,0.089-0.401,0.131-0.603
	c0.113-0.54,0.213-1.085,0.3-1.634c0.037-0.236,0.076-0.473,0.11-0.711c0.076-0.545,0.131-1.092,0.18-1.643
	c0.02-0.225,0.047-0.447,0.063-0.674c0.052-0.767,0.084-1.537,0.083-2.313l0,0l0,0v-0.006l-0.006-40.904v-0.002l-0.005-26.203
	v-0.002l-0.001-4.213l-0.004-25.574l0,0l-0.008-48.824l-0.005-26.204l-0.006-40.984c-0.001-2.995-0.409-5.931-1.161-8.75
	c-0.405-1.518-0.915-2.997-1.521-4.435c-2.477-5.877-6.574-11.017-11.924-14.74c-0.784-0.545-1.584-1.071-2.421-1.553l-22.87-13.202
	l-21.414-12.358l-17.24-9.949l-65.925-38.046l-25.717-14.844l-19.288-11.132l-11.953-6.899c-10.533-6.078-23.509-6.076-34.04,0.007
	l-11.872,6.857l-19.288,11.14l-25.717,14.854v-0.001l-65.915,38.072l-28.89,16.686l-21.408,12.365l-11.282,6.517
	c-0.813,0.468-1.59,0.979-2.353,1.506c-3.272,2.266-6.072,5.068-8.331,8.235c-1.517,2.129-2.781,4.424-3.774,6.843
	c-1.654,4.031-2.557,8.399-2.557,12.899l0.007,40.912l0.005,26.204l0.012,73.738l0.001,4.011v0.849v0.002v0.013l0,0v0.005l0,0
	l0.005,26.2l0,0v1.864l0.002,12.617l0.004,26.497v0.006l0,0c0.001,0.773,0.033,1.539,0.084,2.304
	c0.016,0.224,0.042,0.446,0.063,0.669c0.048,0.548,0.105,1.096,0.178,1.638c0.033,0.236,0.072,0.471,0.11,0.706
	c0.086,0.545,0.184,1.087,0.298,1.626c0.042,0.201,0.084,0.403,0.13,0.603c0.14,0.615,0.298,1.222,0.471,1.825
	c0.033,0.113,0.061,0.227,0.095,0.34c0.909,3.042,2.239,5.93,3.941,8.589l0.001,0.001l0.001,0.002
	c1.172,1.832,2.517,3.551,4.026,5.137c0.049,0.052,0.098,0.106,0.147,0.158c0.71,0.735,1.454,1.439,2.233,2.113
	c0.125,0.11,0.254,0.215,0.382,0.322c0.785,0.661,1.594,1.298,2.444,1.89c0.784,0.545,1.584,1.07,2.421,1.553l22.552,13.015
	l21.414,12.36l17.561,10.134l91.644,52.89l19.288,11.132l11.953,6.899c10.533,6.078,23.509,6.076,34.04-0.007l11.872-6.857
	l19.288-11.14l25.717-14.853l55.554-32.086l10.363-5.985l26.36-15.225l21.408-12.365l13.813-7.978
	c0.813-0.468,1.59-0.979,2.353-1.506c0.85-0.588,1.659-1.226,2.445-1.884c0.129-0.107,0.259-0.212,0.386-0.322
	c0.779-0.673,1.526-1.375,2.236-2.11c0.046-0.048,0.09-0.098,0.136-0.146c3.725-3.891,6.475-8.609,8.019-13.765
	C473.045,372.067,473.073,371.958,473.103,371.851z"/>
<path style="fill:#ED1F34;" d="M154.175,324.58L154.175,324.58l82.297-68.581L65.681,113.676l-11.116,6.419
	c-0.813,0.468-1.59,0.979-2.353,1.506c-3.272,2.266-6.072,5.068-8.331,8.235c-1.517,2.129-2.781,4.424-3.774,6.843
	c-1.654,4.031-2.557,8.399-2.557,12.899l0.007,40.912l0.005,26.204l0.012,73.738l0.001,4.011v0.849v0.002v0.013l0,0v0.005l0,0
	l0.005,26.2v0.001v1.863l0.002,12.617l0.004,26.497v0.006l0,0c0.001,0.773,0.033,1.539,0.084,2.304
	c0.016,0.224,0.042,0.445,0.063,0.669c0.048,0.548,0.105,1.096,0.178,1.638c0.033,0.236,0.072,0.471,0.11,0.706
	c0.086,0.545,0.184,1.086,0.298,1.626c0.042,0.201,0.084,0.403,0.13,0.603c0.14,0.615,0.298,1.222,0.471,1.826
	c0.033,0.112,0.061,0.227,0.095,0.339c0.909,3.042,2.239,5.93,3.941,8.588l0.001,0.004l0.001,0.001
	c1.172,1.832,2.517,3.551,4.026,5.137c0.049,0.052,0.098,0.106,0.147,0.158c0.71,0.737,1.454,1.441,2.233,2.114
	c0.125,0.108,0.254,0.213,0.382,0.321c0.785,0.661,1.594,1.298,2.444,1.89c0.784,0.545,1.584,1.07,2.421,1.553l11.045,6.375
	L154.175,324.58L154.175,324.58z"/>
<g>
	<path style="fill:#259245;" d="M65.656,398.347l11.507,6.64l21.414,12.36l17.561,10.134l91.644,52.89l19.288,11.132l11.953,6.899
		c10.533,6.078,23.509,6.076,34.04-0.007l11.872-6.857l19.288-11.14l25.717-14.853l55.554-32.086l10.363-5.985l26.36-15.225
		l21.408-12.365l13.813-7.978c0.813-0.468,1.59-0.979,2.353-1.506c0.85-0.588,1.659-1.226,2.445-1.884
		c0.129-0.107,0.259-0.212,0.386-0.323c0.779-0.671,1.526-1.374,2.236-2.108c0.046-0.047,0.09-0.096,0.136-0.146
		c3.725-3.891,6.475-8.609,8.019-13.765c0.033-0.107,0.06-0.216,0.09-0.323c0.176-0.611,0.338-1.228,0.479-1.85
		c0.047-0.2,0.089-0.401,0.131-0.603c0.113-0.54,0.213-1.085,0.3-1.633c0.037-0.236,0.076-0.473,0.11-0.711
		c0.076-0.544,0.131-1.092,0.18-1.643c0.02-0.225,0.047-0.447,0.063-0.674c0.052-0.768,0.084-1.537,0.083-2.313l0,0v-0.006
		l-0.006-37.836H154.171L65.656,398.347z"/>
	<path style="fill:#259245;" d="M474.416,149.505c-0.001-2.995-0.409-5.931-1.161-8.75c-0.405-1.518-0.915-2.997-1.521-4.435
		c-2.477-5.877-6.574-11.017-11.924-14.74c-0.784-0.545-1.584-1.071-2.421-1.553l-22.872-13.202l-21.414-12.358l-17.24-9.949
		l-65.925-38.046l-25.717-14.844l-19.288-11.132l-11.953-6.899c-10.533-6.078-23.509-6.076-34.04,0.007l-11.872,6.857l-19.288,11.14
		l-25.717,14.854v-0.001l-65.915,38.072l-28.89,16.686l-21.408,12.365l-0.168,0.098l88.492,73.744h320.248L474.416,149.505z"/>
</g>
<g>
	<polygon style="fill:#333333;" points="262.259,248.717 286.14,247.484 294.694,225.153 303.248,247.484 327.129,248.717 
		308.534,263.753 314.74,286.847 294.694,273.809 274.647,286.847 280.854,263.753 	"/>
	<polygon style="fill:#333333;" points="378.453,248.717 402.334,247.484 410.889,225.153 419.443,247.484 443.324,248.717 
		424.728,263.753 430.935,286.847 410.889,273.809 390.842,286.847 397.048,263.753 	"/>
</g>
<path d="M483.457,149.503c-0.001-3.711-0.494-7.438-1.466-11.078c-0.508-1.899-1.155-3.789-1.925-5.615
	c-3.18-7.544-8.399-13.991-15.096-18.652c-1.118-0.778-2.089-1.4-3.062-1.961L277.499,5.767C270.96,1.994,263.514,0,255.965,0
	c-7.555,0-15.005,1.996-21.547,5.776L50.043,112.265c-0.949,0.549-1.895,1.152-2.979,1.902c-4.086,2.831-7.633,6.335-10.546,10.421
	c-1.913,2.683-3.52,5.597-4.776,8.658c-2.146,5.23-3.234,10.724-3.234,16.334l0.035,212.917c0,0.921,0.035,1.876,0.106,2.919
	c0.017,0.234,0.037,0.469,0.061,0.702l0.014,0.143c0.061,0.693,0.134,1.385,0.23,2.095c0.034,0.24,0.071,0.477,0.11,0.716
	l0.025,0.16c0.111,0.69,0.235,1.378,0.381,2.075c0.053,0.254,0.107,0.508,0.162,0.746c0.177,0.779,0.377,1.547,0.609,2.351
	l0.111,0.392c1.144,3.829,2.822,7.487,4.987,10.874c0.014,0.023,0.029,0.045,0.043,0.068c1.476,2.298,3.174,4.463,5.048,6.429
	c0.04,0.042,0.153,0.164,0.194,0.206c0.896,0.929,1.847,1.83,2.81,2.663l0.497,0.42c1.093,0.919,2.105,1.699,3.096,2.388
	c1.096,0.763,2.096,1.403,3.064,1.963l184.411,106.428c6.539,3.773,13.985,5.768,21.534,5.768l0,0
	c7.554,0,15.005-1.998,21.546-5.776l184.373-106.49c0.944-0.545,1.89-1.149,2.982-1.905c0.986-0.682,1.999-1.461,3.181-2.448
	c0.14-0.116,0.278-0.231,0.405-0.34c0.99-0.854,1.941-1.752,2.84-2.681l0.16-0.171c4.695-4.904,8.206-10.929,10.149-17.421
	l0.117-0.406c0.224-0.775,0.427-1.556,0.605-2.34l0.169-0.773c0.142-0.684,0.27-1.374,0.397-2.177
	c0.042-0.259,0.082-0.518,0.122-0.792c0.094-0.69,0.168-1.383,0.228-2.071l0.014-0.143c0.025-0.24,0.046-0.48,0.063-0.721
	c0.071-1.043,0.105-1.999,0.105-2.931L483.457,149.503z M465.402,315.539H179.147l63.113-52.593c2.06-1.718,3.252-4.263,3.252-6.946
	c0-2.683-1.192-5.228-3.252-6.946l-63.113-52.593h286.235L465.402,315.539z M243.463,21.434c3.795-2.193,8.118-3.351,12.502-3.351
	c4.381,0,8.703,1.157,12.495,3.347l184.407,106.427c0.523,0.301,1.089,0.667,1.781,1.145c3.881,2.7,6.908,6.445,8.757,10.832
	c0.448,1.062,0.825,2.157,1.116,3.252c0.567,2.121,0.854,4.281,0.855,6.418l0.005,28.872H157.447l-76.025-63.352L243.463,21.434z
	 M59.131,384.141c-0.528-0.305-1.093-0.669-1.775-1.143c-0.536-0.375-1.126-0.829-1.787-1.385l-0.293-0.246
	c-0.569-0.489-1.119-1.011-1.589-1.498c-0.025-0.029-0.128-0.137-0.156-0.168c-1.101-1.155-2.094-2.424-2.957-3.772
	c-0.016-0.025-0.03-0.048-0.047-0.074c-1.236-1.948-2.195-4.047-2.849-6.239l-0.069-0.246c-0.127-0.442-0.244-0.888-0.351-1.354
	l-0.092-0.428c-0.082-0.395-0.156-0.793-0.217-1.183l-0.081-0.523c-0.055-0.4-0.096-0.803-0.13-1.203l-0.052-0.493
	c-0.037-0.561-0.064-1.125-0.064-1.7L46.59,149.577c0-3.24,0.633-6.425,1.882-9.467c0.729-1.781,1.662-3.472,2.769-5.025
	c1.696-2.378,3.755-4.415,6.119-6.053c0.669-0.463,1.218-0.815,1.726-1.109l5.653-3.265l83.673,69.727
	c0.006,0.006,0.013,0.012,0.019,0.017l73.915,61.597l-73.915,61.597c-0.006,0.005-0.013,0.011-0.019,0.017l-83.7,69.749
	L59.131,384.141z M465.348,364.1l-0.051,0.52c-0.035,0.404-0.076,0.805-0.128,1.191l-0.064,0.407c0,0.004-0.021,0.125-0.021,0.127
	c-0.064,0.404-0.137,0.804-0.23,1.251l-0.084,0.387c-0.105,0.457-0.222,0.909-0.347,1.341l-0.07,0.254
	c-1.128,3.764-3.166,7.258-5.908,10.125l-0.083,0.09c-0.512,0.529-1.067,1.051-1.649,1.555l-0.276,0.228
	c-0.682,0.573-1.255,1.014-1.79,1.384c-0.671,0.465-1.221,0.817-1.731,1.113l-184.375,106.49c-3.795,2.192-8.119,3.351-12.502,3.351
	c-4.381,0-8.703-1.159-12.495-3.348L81.401,396.993l76.047-63.372h307.957l0.004,28.801
	C465.408,362.993,465.384,363.561,465.348,364.1z M256.574,255.747l14.023,11.338l-4.681,17.415
	c-0.973,3.617,0.387,7.46,3.418,9.661c3.031,2.201,7.104,2.307,10.245,0.265l15.116-9.832l15.116,9.832
	c1.502,0.978,3.218,1.462,4.931,1.462c1.869,0,3.733-0.577,5.314-1.728c3.031-2.201,4.391-6.044,3.418-9.661l-4.681-17.415
	l14.024-11.338c2.913-2.354,4.071-6.261,2.914-9.824c-1.157-3.562-4.392-6.043-8.132-6.236l-18.008-0.929l-6.451-16.84
	c-1.339-3.497-4.698-5.807-8.443-5.807s-7.104,2.31-8.443,5.807l-6.45,16.84l-18.008,0.929c-3.742,0.193-6.975,2.674-8.132,6.236
	C252.503,249.486,253.661,253.392,256.574,255.747z M286.607,256.513c3.572-0.184,6.699-2.457,7.977-5.796l0.11-0.287l0.111,0.287
	c1.28,3.339,4.406,5.611,7.977,5.796l0.307,0.016l-0.24,0.194c-2.781,2.248-3.975,5.924-3.046,9.377l0.08,0.298l-0.258-0.169
	c-1.498-0.975-3.215-1.462-4.931-1.462s-3.432,0.487-4.931,1.462l-0.258,0.169l0.08-0.298c0.928-3.453-0.266-7.128-3.046-9.377
	l-0.24-0.194L286.607,256.513z M372.768,255.747l14.024,11.338l-4.681,17.415c-0.973,3.617,0.387,7.46,3.418,9.661
	c3.031,2.201,7.104,2.307,10.244,0.265l15.116-9.832l15.116,9.832c1.502,0.978,3.218,1.462,4.931,1.462
	c1.869,0,3.733-0.577,5.314-1.728c3.031-2.201,4.391-6.044,3.418-9.661l-4.681-17.415l14.024-11.338
	c2.913-2.354,4.071-6.261,2.914-9.824c-1.157-3.562-4.392-6.043-8.132-6.236l-18.008-0.929l-6.451-16.84
	c-1.339-3.497-4.698-5.807-8.443-5.807s-7.104,2.31-8.443,5.807l-6.45,16.84l-18.009,0.929c-3.742,0.193-6.975,2.674-8.132,6.236
	C368.697,249.486,369.855,253.393,372.768,255.747z M402.802,256.513c3.572-0.184,6.699-2.457,7.977-5.796l0.11-0.287l0.111,0.287
	c1.28,3.339,4.406,5.611,7.977,5.796l0.307,0.016l-0.24,0.194c-2.781,2.248-3.975,5.924-3.046,9.377l0.08,0.298l-0.258-0.169
	c-1.498-0.975-3.215-1.462-4.931-1.462s-3.432,0.487-4.931,1.462l-0.258,0.169l0.08-0.298c0.928-3.453-0.266-7.128-3.046-9.377
	l-0.24-0.194L402.802,256.513z"/>
<g>
</g>
<g>
</g>
<g>
</g>
<g>
</g>
<g>
</g>
<g>
</g>
<g>
</g>
<g>
</g>
<g>
</g>
<g>
</g>
<g>
</g>
<g>
</g>
<g>
</g>
<g>
</g>
<g>
</g>
</svg>
