<?xml version="1.0" encoding="iso-8859-1"?>
<!-- Generator: Adobe Illustrator 19.0.0, SVG Export Plug-In . SVG Version: 6.00 Build 0)  -->
<svg version="1.1" id="Layer_1" xmlns="http://www.w3.org/2000/svg" xmlns:xlink="http://www.w3.org/1999/xlink" x="0px" y="0px"
	 viewBox="0 0 512 512" style="enable-background:new 0 0 512 512;" xml:space="preserve">
<path style="fill:#ED1F34;" d="M473.104,371.851c0.176-0.611,0.336-1.228,0.479-1.85c0.046-0.201,0.089-0.401,0.131-0.603
	c0.113-0.541,0.213-1.085,0.3-1.634c0.037-0.236,0.076-0.473,0.11-0.711c0.075-0.545,0.131-1.093,0.18-1.643
	c0.02-0.225,0.047-0.447,0.063-0.674c0.052-0.767,0.084-1.537,0.084-2.313l0,0l0,0v-0.006l-0.006-40.904v-0.001l-0.005-26.204
	v-0.002v-4.213l-0.004-25.574l0,0l-0.008-48.824l-0.005-26.204l-0.006-40.985c0-2.996-0.407-5.93-1.16-8.75
	c-0.405-1.517-0.915-2.997-1.521-4.435c-2.477-5.877-6.574-11.016-11.925-14.74c-0.784-0.545-1.584-1.071-2.419-1.554l-22.874-13.2
	l-21.414-12.358l-17.239-9.949l-65.926-38.046l-25.717-14.842l-19.288-11.132l-11.953-6.898c-10.533-6.078-23.509-6.077-34.04,0.006
	l-11.872,6.857l-19.288,11.14l-25.717,14.854l0,0l-65.918,38.07l-28.889,16.686l-21.406,12.365l-11.284,6.517
	c-0.811,0.469-1.59,0.979-2.353,1.507c-3.272,2.266-6.073,5.068-8.333,8.236c-1.517,2.128-2.781,4.423-3.773,6.841
	c-1.655,4.031-2.558,8.399-2.557,12.899l0.006,40.912l0.005,26.204l0.012,73.738v4.011v0.85v0.001v0.013l0,0v0.005l0,0l0.005,26.2
	l0,0v1.864l0.002,12.617l0.004,26.497v0.006l0,0c0,0.773,0.033,1.539,0.084,2.304c0.016,0.224,0.042,0.446,0.061,0.669
	c0.048,0.55,0.105,1.096,0.18,1.638c0.033,0.236,0.072,0.471,0.108,0.706c0.087,0.546,0.186,1.087,0.298,1.626
	c0.042,0.201,0.086,0.403,0.131,0.603c0.14,0.615,0.298,1.222,0.471,1.825c0.033,0.113,0.061,0.227,0.095,0.34
	c0.909,3.042,2.24,5.93,3.94,8.589l0.001,0.001c0,0.001,0.001,0.001,0.001,0.001c1.172,1.832,2.517,3.553,4.026,5.137
	c0.051,0.052,0.099,0.106,0.148,0.158c0.709,0.735,1.454,1.439,2.231,2.112c0.125,0.11,0.254,0.215,0.382,0.322
	c0.786,0.661,1.595,1.3,2.445,1.89c0.784,0.545,1.584,1.071,2.419,1.554l22.552,13.015l21.414,12.359l17.561,10.135l91.644,52.89
	l19.288,11.132l11.953,6.898c10.533,6.078,23.509,6.077,34.04-0.006l11.872-6.857l19.288-11.14l25.717-14.853l55.554-32.086
	l10.363-5.985l26.36-15.225l21.408-12.365l13.813-7.978c0.811-0.469,1.59-0.979,2.353-1.507c0.851-0.59,1.659-1.226,2.446-1.883
	c0.128-0.107,0.258-0.213,0.385-0.322c0.78-0.673,1.526-1.375,2.237-2.11c0.047-0.048,0.09-0.098,0.136-0.146
	c3.724-3.891,6.476-8.609,8.02-13.765C473.045,372.067,473.073,371.958,473.104,371.851z"/>
<path style="fill:#FFFFFF;" d="M306.383,263.769c-1.068,2.022-2.037,4.064-2.922,6.122c-9.501-6.265-21.833-14.396-32.23-21.251
	l-5.561-66.33c-0.523-6.233-5.785-11.091-12.136-11.014l-82.204,3.046c13.63,17.17,36.707,28.036,62.491,27.08
	c2.286-0.084,4.539-0.268,6.762-0.529c-0.675,11.361-1.55,26.106-2.289,38.537l-54.662,37.981
	c-5.137,3.568-6.712,10.556-3.469,16.018l43.741,69.668c8.055-20.389,5.926-45.806-7.794-67.659c-1.216-1.935-2.5-3.796-3.84-5.591
	c10.175-5.096,23.383-11.709,34.518-17.286l60.224,28.349c5.659,2.663,12.498,0.536,15.607-5.004l38.463-72.715
	C339.396,226.409,318.448,240.962,306.383,263.769z"/>
<path d="M390.444,222.629l-36.23-10.963c-4.777-1.445-9.826,1.256-11.273,6.035c-0.119,0.394-0.2,0.791-0.264,1.186
	c-17.458,6.978-32.678,20.306-42.74,37.849l-20.062-13.228l-5.195-61.954c-0.908-10.823-10.13-19.3-20.997-19.3l-0.26,0.001
	c-0.075,0.001-0.149,0.002-0.224,0.006l-74.763,2.77l-4.668-19.956c-1.137-4.863-6.002-7.883-10.863-6.745
	c-4.862,1.137-7.882,6.001-6.745,10.863l8.619,36.858c0.975,4.17,4.691,6.984,8.795,6.984c0.681,0,1.374-0.077,2.066-0.24
	c0.413-0.096,0.809-0.229,1.195-0.377c14.696,11.522,33.809,18.105,53.837,18.105c0.092,0,0.183,0,0.275,0l-1.425,23.989
	l-51.056,35.476c-9.029,6.274-11.702,18.598-6.085,28.058c0.039,0.064,0.077,0.128,0.117,0.192l39.781,63.36l-14.948,14.02
	c-3.642,3.416-3.825,9.138-0.41,12.781c1.781,1.897,4.186,2.856,6.597,2.856c2.217,0,4.439-0.81,6.183-2.446l27.609-25.893
	c3.642-3.416,3.825-9.138,0.41-12.781c-0.282-0.301-0.585-0.569-0.896-0.822c2.687-18.608-1.245-38.452-11.407-55.939l21.487-10.76
	l56.252,26.479c2.823,1.328,5.836,2.002,8.952,2.002c7.618,0,14.664-4.123,18.389-10.762c0.036-0.065,0.072-0.131,0.107-0.198
	l34.981-66.131l19.616,5.936c0.873,0.264,1.755,0.389,2.622,0.389c3.881,0,7.468-2.518,8.651-6.425
	C397.925,229.122,395.222,224.076,390.444,222.629z M314.694,291.547c-0.64,1.077-1.747,1.462-2.582,1.462
	c-0.434,0-0.855-0.094-1.251-0.281l-60.224-28.349c-2.509-1.181-5.421-1.146-7.899,0.096l-34.519,17.286
	c-2.393,1.198-4.131,3.395-4.749,5.999s-0.049,5.348,1.552,7.492c1.231,1.649,2.385,3.33,3.428,4.992
	c7.627,12.148,11.411,25.79,11.12,38.948l-31.671-50.444c-0.749-1.335-0.365-3.039,0.892-3.913l54.662-37.981
	c2.277-1.583,3.702-4.12,3.866-6.888l2.289-38.537c0.158-2.671-0.874-5.275-2.821-7.113c-1.947-1.836-4.605-2.716-7.264-2.403
	c-2.047,0.241-4.078,0.401-6.037,0.474c-14.285,0.53-27.977-3.042-39.23-9.845l59.466-2.205c1.525,0.018,2.812,1.21,2.94,2.728
	l5.561,66.329c0.231,2.763,1.718,5.267,4.032,6.793l32.23,21.251c2.235,1.473,5.008,1.882,7.571,1.113
	c2.564-0.768,4.656-2.633,5.713-5.091c0.809-1.884,1.686-3.723,2.608-5.463c6.706-12.68,16.628-22.778,28.169-29.104
	L314.694,291.547z M256.036,512L256.036,512c-7.55,0-14.995-1.995-21.534-5.768L50.091,399.803
	c-0.978-0.564-1.951-1.187-3.064-1.963c-0.985-0.686-1.999-1.467-3.096-2.389l-0.481-0.405c-0.99-0.857-1.938-1.756-2.827-2.677
	c-0.04-0.042-0.154-0.163-0.194-0.205c-1.888-1.984-3.602-4.17-5.089-6.493c-0.001-0.001-0.002-0.004-0.004-0.006l0,0
	c-2.164-3.386-3.842-7.044-4.985-10.871l-0.112-0.392c-0.23-0.805-0.43-1.574-0.608-2.351c-0.054-0.239-0.108-0.493-0.163-0.747
	c-0.146-0.7-0.271-1.385-0.38-2.076l-0.025-0.158c-0.039-0.239-0.076-0.476-0.108-0.716c-0.098-0.71-0.171-1.402-0.231-2.096
	l-0.014-0.143c-0.024-0.234-0.046-0.467-0.061-0.703c-0.071-1.042-0.105-1.995-0.105-2.917l-0.035-212.917
	c0-5.608,1.087-11.103,3.234-16.334c1.256-3.062,2.863-5.975,4.775-8.657c2.913-4.083,6.46-7.589,10.546-10.419
	c1.089-0.753,2.034-1.357,2.979-1.904L234.418,5.776C240.959,1.998,248.411,0,255.964,0c7.549,0,14.995,1.995,21.534,5.768
	l184.41,106.429c0.974,0.562,1.947,1.185,3.062,1.96c6.698,4.661,11.917,11.109,15.096,18.652c0.77,1.828,1.419,3.717,1.925,5.614
	c0.972,3.642,1.465,7.369,1.466,11.08l0.035,212.912c0,0.932-0.034,1.888-0.105,2.932c-0.017,0.241-0.039,0.48-0.063,0.72
	l-0.014,0.145c-0.06,0.688-0.134,1.383-0.229,2.074c-0.036,0.266-0.077,0.522-0.118,0.778l-0.019,0.121
	c-0.11,0.696-0.236,1.384-0.38,2.067l-0.168,0.769c-0.181,0.792-0.383,1.572-0.608,2.345l-0.112,0.397
	c-1.947,6.501-5.457,12.527-10.152,17.432l-0.194,0.205c-0.868,0.897-1.82,1.795-2.81,2.647l-0.381,0.321
	c-0.006,0.005-0.104,0.087-0.11,0.09c-1.118,0.934-2.102,1.69-3.097,2.378c-1.084,0.751-2.03,1.355-2.979,1.904L277.581,506.227
	C271.041,510.002,263.589,512,256.036,512z M50.553,375.897c0.006,0.01,0.013,0.021,0.019,0.03c0.864,1.35,1.859,2.621,2.958,3.774
	c0.027,0.028,0.128,0.136,0.154,0.164c0.468,0.485,1.02,1.008,1.596,1.507l0.288,0.24c0.674,0.565,1.244,1.008,1.783,1.383
	c0.687,0.479,1.253,0.843,1.778,1.146l184.408,106.428c3.794,2.189,8.114,3.347,12.495,3.347c4.383,0,8.707-1.159,12.504-3.351
	l184.375-106.49c0.51-0.295,1.058-0.647,1.728-1.109c0.538-0.372,1.108-0.813,1.797-1.389l0.269-0.224
	c0.588-0.506,1.142-1.028,1.654-1.558l0.083-0.09c2.744-2.867,4.78-6.362,5.908-10.126l0.07-0.253
	c0.125-0.434,0.244-0.887,0.348-1.344l0.089-0.411c0.088-0.422,0.163-0.823,0.227-1.227l0.082-0.53
	c0.053-0.389,0.094-0.792,0.129-1.195l0.051-0.52c0.036-0.538,0.061-1.105,0.061-1.677l-0.035-212.917
	c0-2.137-0.288-4.298-0.854-6.419c-0.292-1.095-0.668-2.189-1.116-3.254c-1.849-4.386-4.876-8.13-8.758-10.83
	c-0.687-0.477-1.253-0.841-1.778-1.145L268.46,21.428c-3.794-2.187-8.114-3.345-12.495-3.345c-4.383,0-8.707,1.16-12.504,3.351
	L59.086,127.924c-0.509,0.294-1.058,0.647-1.73,1.111c-2.36,1.635-4.419,3.672-6.116,6.05c-1.107,1.554-2.04,3.244-2.77,5.025
	c-1.248,3.04-1.881,6.227-1.881,9.466l0.035,212.912c0,0.575,0.025,1.138,0.064,1.7l0.048,0.495c0.035,0.399,0.076,0.802,0.13,1.201
	l0.082,0.523c0.061,0.392,0.134,0.79,0.217,1.185l0.092,0.427c0.106,0.467,0.224,0.913,0.351,1.357l0.066,0.239
	C48.337,371.823,49.303,373.935,50.553,375.897z"/>
<g>
</g>
<g>
</g>
<g>
</g>
<g>
</g>
<g>
</g>
<g>
</g>
<g>
</g>
<g>
</g>
<g>
</g>
<g>
</g>
<g>
</g>
<g>
</g>
<g>
</g>
<g>
</g>
<g>
</g>
</svg>
