<?xml version="1.0" encoding="iso-8859-1"?>
<!-- Generator: Adobe Illustrator 19.0.0, SVG Export Plug-In . SVG Version: 6.00 Build 0)  -->
<svg version="1.1" id="Layer_1" xmlns="http://www.w3.org/2000/svg" xmlns:xlink="http://www.w3.org/1999/xlink" x="0px" y="0px"
	 viewBox="0 0 511.999 511.999" style="enable-background:new 0 0 511.999 511.999;" xml:space="preserve">
<g>
	<path style="fill:#FFFFFF;" d="M473.104,371.851c0.176-0.611,0.336-1.227,0.479-1.849c0.046-0.201,0.088-0.401,0.13-0.603
		c0.115-0.541,0.213-1.085,0.301-1.634c0.037-0.237,0.076-0.474,0.109-0.711c0.076-0.545,0.131-1.093,0.181-1.644
		c0.019-0.225,0.047-0.448,0.061-0.674c0.053-0.767,0.084-1.537,0.084-2.313l0,0l0,0v-0.006l-0.007-40.904v-0.001l-0.005-26.204
		v-0.002v-4.213l-0.005-25.574l0,0l-0.008-48.824l-0.004-26.204l-0.007-40.985c0-2.996-0.408-5.93-1.16-8.75
		c-0.405-1.517-0.915-2.997-1.521-4.435c-2.477-5.877-6.574-11.016-11.925-14.74c-0.784-0.545-1.584-1.071-2.421-1.554l-22.872-13.2
		L413.1,94.467l-17.24-9.949L329.935,46.47l-25.719-14.842l-19.288-11.132l-11.952-6.898c-10.534-6.078-23.51-6.077-34.04,0.006
		l-11.873,6.857l-19.288,11.14l-25.717,14.854l0,0l-65.911,38.072l-28.889,16.686L65.85,113.578l-11.284,6.517
		c-0.811,0.469-1.589,0.979-2.352,1.507c-3.273,2.268-6.073,5.068-8.333,8.236c-1.517,2.128-2.781,4.423-3.773,6.841
		c-1.655,4.031-2.558,8.399-2.557,12.899l0.007,40.912l0.004,26.204l0.013,73.738l0.001,4.011v0.85v0.001v0.013l0,0v0.005l0,0
		l0.004,26.2v0.001l0.001,1.863l0.001,12.617l0.005,26.497v0.006l0,0c0,0.773,0.031,1.539,0.083,2.304
		c0.017,0.224,0.042,0.446,0.063,0.669c0.048,0.55,0.105,1.096,0.18,1.638c0.031,0.236,0.071,0.471,0.108,0.706
		c0.087,0.546,0.186,1.087,0.298,1.626c0.042,0.201,0.084,0.403,0.13,0.603c0.14,0.614,0.298,1.221,0.471,1.825
		c0.033,0.113,0.063,0.227,0.096,0.34c0.908,3.043,2.239,5.929,3.94,8.589c0,0,0.001,0.001,0.001,0.002l0.001,0.001
		c1.172,1.831,2.517,3.551,4.026,5.137c0.049,0.052,0.098,0.106,0.148,0.158c0.71,0.735,1.454,1.439,2.233,2.113
		c0.125,0.108,0.254,0.213,0.381,0.321c0.786,0.661,1.595,1.3,2.445,1.89c0.784,0.545,1.584,1.07,2.421,1.554l22.55,13.015
		l21.415,12.359l17.56,10.135l91.644,52.89l19.288,11.132l11.953,6.898c10.533,6.078,23.51,6.077,34.04-0.006l11.872-6.857
		l19.288-11.14l25.719-14.853l55.553-32.086l10.364-5.985l26.36-15.225l21.408-12.365l13.812-7.978
		c0.813-0.469,1.591-0.979,2.353-1.507c0.851-0.59,1.659-1.226,2.446-1.883c0.128-0.107,0.258-0.213,0.385-0.323
		c0.779-0.672,1.526-1.374,2.236-2.11c0.047-0.048,0.092-0.098,0.137-0.146c3.724-3.891,6.475-8.609,8.019-13.766
		C473.045,372.067,473.074,371.957,473.104,371.851z"/>
	<path style="fill:#FFFFFF;" d="M256,9.044c-2.94-0.004-5.882,0.375-8.748,1.132c-0.004,0.001-0.008,0.001-0.012,0.002
		c-0.665,0.176-1.325,0.377-1.982,0.596c-0.052,0.017-0.105,0.029-0.157,0.047c-0.614,0.206-1.221,0.439-1.826,0.682
		c-0.09,0.036-0.183,0.065-0.275,0.102c-0.528,0.217-1.046,0.461-1.566,0.705c-0.163,0.077-0.329,0.142-0.492,0.223
		c-0.563,0.277-1.116,0.58-1.667,0.89c-0.112,0.063-0.227,0.116-0.336,0.18l-11.873,6.857L207.777,31.6l-25.717,14.854l0,0
		l-65.913,38.073l-28.889,16.686L65.85,113.578l-11.284,6.517c-0.811,0.469-1.589,0.979-2.352,1.507
		c-1.636,1.133-3.155,2.4-4.546,3.781c-1.391,1.379-2.656,2.872-3.787,4.456c-0.948,1.33-1.784,2.732-2.532,4.182
		c-0.447,0.869-0.87,1.753-1.242,2.659c-0.251,0.61-0.479,1.228-0.692,1.854c-0.019,0.054-0.035,0.11-0.054,0.164
		c-0.205,0.608-0.394,1.221-0.567,1.841v0.001c-0.001,0.001-0.001,0.001-0.001,0.002c-0.398,1.433-0.704,2.899-0.915,4.387
		c-0.008,0.066-0.016,0.133-0.025,0.199c-0.082,0.616-0.145,1.237-0.194,1.861c-0.012,0.162-0.025,0.324-0.035,0.486
		c-0.045,0.698-0.075,1.398-0.075,2.104l0.001,7.842l-0.001,98.58h21.505h34.72h14.965v-66.914l88.984,66.914H256v-28.591v-15.231
		l-72.822-54.76H256v-16.88v-39.163V84.496h-72.822L256,29.737V9.044z"/>
</g>
<g>
	<polygon style="fill:#ED1F34;" points="124.902,157.419 256,255.999 256,227.409 163.145,157.419 	"/>
	<path style="fill:#ED1F34;" d="M59.055,140.54v115.461h34.72V140.54H256v-39.163H93.776v-3.929l-6.518,3.765L65.85,113.578
		l-11.284,6.517c-0.811,0.469-1.589,0.979-2.352,1.507c-1.636,1.133-3.155,2.4-4.546,3.781c-1.391,1.379-2.656,2.872-3.787,4.456
		c-0.948,1.33-1.784,2.732-2.532,4.182c-0.447,0.869-0.87,1.753-1.242,2.659c-0.251,0.61-0.479,1.228-0.692,1.854
		c-0.019,0.054-0.035,0.11-0.054,0.164c-0.205,0.608-0.394,1.221-0.567,1.841v0.001H59.055z"/>
</g>
<path style="fill:#103B9B;" d="M474.445,321.512L474.445,321.512l-0.005-26.206v-0.002v-4.213l-0.005-25.574l-0.007-48.824
	l-0.005-26.204l-0.007-40.985c0-2.996-0.407-5.93-1.16-8.75c-0.405-1.517-0.915-2.997-1.521-4.435
	c-2.477-5.877-6.574-11.016-11.925-14.74c-0.784-0.545-1.584-1.071-2.421-1.554l-22.872-13.2l-21.415-12.358l-17.24-9.949
	L329.937,46.47l-25.719-14.842L284.93,20.496l-11.952-6.898c-7.891-4.553-17.152-5.694-25.729-3.422l0,0
	c2.867-0.758,5.807-1.136,8.748-1.132v20.693l-72.819,54.76H256v16.88v39.163v16.88h-72.822L256,212.178v15.231v28.591h-58.275
	l-88.984-66.914v66.914H93.776h-34.72H37.568l0.006,34.432l0.001,4.011v0.85v0.001v0.013l0,0v0.005l0,0l0.004,26.2v0.001
	l0.001,1.863l0.001,12.617l0.005,26.497v0.006l0,0c0,0.773,0.031,1.539,0.084,2.304c0.016,0.224,0.042,0.446,0.061,0.669
	c0.048,0.55,0.105,1.096,0.18,1.639c0.033,0.236,0.071,0.47,0.108,0.705c0.087,0.546,0.184,1.087,0.298,1.626
	c0.042,0.201,0.084,0.403,0.13,0.603c0.14,0.614,0.298,1.221,0.471,1.825c0.033,0.113,0.063,0.227,0.095,0.34
	c0.909,3.043,2.24,5.929,3.941,8.589c0.001,0.001,0.001,0.001,0.001,0.002l0.001,0.001c1.173,1.831,2.517,3.551,4.026,5.136
	c0.051,0.053,0.098,0.106,0.148,0.159c0.709,0.735,1.454,1.439,2.231,2.112c0.125,0.11,0.256,0.215,0.382,0.322
	c0.786,0.661,1.595,1.3,2.445,1.89c0.784,0.545,1.584,1.071,2.421,1.554l22.55,13.015l21.415,12.359l17.561,10.135l91.642,52.89
	l19.288,11.132l11.953,6.898c10.533,6.078,23.51,6.077,34.04-0.006l11.872-6.857l19.288-11.14l25.719-14.853l55.553-32.086
	l10.364-5.985l26.36-15.225l21.408-12.365l13.812-7.978c0.813-0.469,1.591-0.979,2.353-1.507c0.851-0.59,1.659-1.226,2.446-1.883
	c0.128-0.107,0.258-0.213,0.385-0.323c0.779-0.672,1.526-1.374,2.236-2.11c0.047-0.048,0.09-0.098,0.137-0.146
	c3.724-3.891,6.475-8.609,8.019-13.766c0.031-0.106,0.06-0.216,0.09-0.323c0.176-0.611,0.336-1.227,0.479-1.849
	c0.046-0.201,0.088-0.401,0.13-0.603c0.113-0.541,0.213-1.086,0.3-1.635c0.039-0.236,0.076-0.473,0.11-0.71
	c0.076-0.545,0.131-1.093,0.181-1.644c0.019-0.225,0.046-0.447,0.061-0.674c0.053-0.767,0.084-1.537,0.084-2.313l0,0v-0.006
	L474.445,321.512z"/>
<path style="fill:#F2A643;" d="M361.488,182.435c-4.994,0-9.041-4.048-9.041-9.041v-22.806c0-4.993,4.047-9.041,9.041-9.041
	s9.041,4.048,9.041,9.041v22.806C370.529,178.387,366.482,182.435,361.488,182.435z"/>
<path style="fill:#ED1F34;" d="M304.471,207.736v51.708c0,61.648,57.016,75.74,57.016,75.74s57.015-14.093,57.015-75.74v-51.708
	L304.471,207.736L304.471,207.736z"/>
<path style="fill:#103B9B;" d="M361.509,335.185c0,0,57.016-14.093,57.016-75.74v-9.692c-5.134-2.418-9.732-5.095-19.904-5.095
	c-18.559,0-18.559,8.908-37.117,8.908c-18.558,0-18.558-8.908-37.114-8.908c-10.169,0-14.765,2.674-19.897,5.092v9.695
	C304.493,321.093,361.509,335.185,361.509,335.185z"/>
<g>
	<path style="fill:#FFFFFF;" d="M376.13,280.141c-4.31,2.069-7.425,3.564-14.646,3.564s-10.335-1.495-14.645-3.564
		c-4.96-2.381-11.133-5.344-22.47-5.344c-8.41,0-13.831,1.599-17.979,3.306c1.375,6.351,3.422,12.035,5.931,17.118
		c0.049-0.02,0.099-0.035,0.147-0.055c2.526-1.105,5.736-2.286,11.901-2.286c7.221,0,10.335,1.495,14.645,3.564
		c4.96,2.381,11.133,5.344,22.47,5.344c11.337,0,17.51-2.963,22.471-5.344c4.31-2.069,7.424-3.564,14.645-3.564
		c6.17,0,9.381,1.18,11.908,2.287c0.048,0.022,0.098,0.035,0.146,0.055c2.509-5.082,4.557-10.768,5.931-17.117
		c-4.148-1.708-9.572-3.308-17.985-3.308C387.263,274.797,381.09,277.76,376.13,280.141z"/>
	<path style="fill:#FFFFFF;" d="M398.6,235.616c-11.336,0-17.509,2.963-22.47,5.344c-4.31,2.069-7.425,3.565-14.646,3.565
		s-10.335-1.495-14.645-3.565c-4.96-2.381-11.133-5.344-22.47-5.344c-9.469,0-15.331,2.067-19.897,4.137v19.012
		c1.307,0.007,2.635-0.26,3.895-0.855l1.359-0.649c4.31-2.069,7.422-3.564,14.642-3.564c7.221,0,10.335,1.495,14.645,3.564
		c4.96,2.381,11.133,5.345,22.47,5.345c11.337,0,17.51-2.963,22.471-5.345c4.31-2.069,7.424-3.564,14.645-3.564
		c7.221,0,10.335,1.495,14.645,3.564l1.41,0.673c1.245,0.586,2.557,0.854,3.848,0.854v-19.034
		C413.935,237.686,408.074,235.616,398.6,235.616z"/>
</g>
<path style="fill:#259245;" d="M361.488,173.394c-18.966,0-34.343,15.376-34.343,34.343h68.686
	C395.831,188.77,380.455,173.394,361.488,173.394z"/>
<path style="fill:#F2A643;" d="M361.488,370.454c-29.316,0-56.436-13.058-74.606-35.061l-2.213,7.886
	c-1.349,4.808-6.339,7.612-11.147,6.263c-4.808-1.349-7.61-6.34-6.261-11.147l7.539-26.871c1.002-3.574,4.089-6.173,7.782-6.552
	c3.689-0.379,7.242,1.538,8.951,4.834c13.605,26.255,40.411,42.565,69.956,42.565c29.545,0,56.35-16.309,69.955-42.564
	c1.708-3.296,5.265-5.213,8.951-4.834c3.692,0.379,6.779,2.978,7.782,6.552l7.541,26.871c1.349,4.808-1.454,9.798-6.261,11.149
	c-4.809,1.348-9.798-1.455-11.147-6.263l-2.215-7.888C417.927,357.396,390.805,370.454,361.488,370.454z"/>
<path d="M418.503,198.695h-14.587c-4.171-19.596-21.607-34.343-42.428-34.343c-20.821,0-38.258,14.746-42.43,34.343h-14.587
	c-4.994,0-9.041,4.048-9.041,9.041v51.708c0,35.471,17.376,56.606,31.955,68.09c15.607,12.295,31.274,16.264,31.933,16.426
	c0.712,0.176,1.441,0.264,2.17,0.264s1.457-0.088,2.17-0.264c0.659-0.163,16.326-4.133,31.933-16.426
	c14.577-11.484,31.954-32.619,31.954-68.09v-51.708C427.544,202.743,423.497,198.695,418.503,198.695z M361.488,182.435
	c10.768,0,19.985,6.761,23.632,16.26h-47.264C341.503,189.195,350.721,182.435,361.488,182.435z M409.461,259.445
	c0,47.724-38.179,63.15-47.974,66.32c-9.795-3.171-47.975-18.598-47.975-66.32v-42.667h13.632h68.686h13.632v42.667H409.461z
	 M483.457,149.505c0-3.709-0.494-7.437-1.465-11.075c-0.501-1.887-1.149-3.777-1.926-5.623c-3.181-7.542-8.399-13.99-15.091-18.646
	c-1.114-0.775-2.086-1.398-3.066-1.964L277.499,5.768C270.962,1.995,263.516,0,255.965,0c-7.554,0-15.005,1.998-21.546,5.776
	L50.049,112.263c-0.944,0.545-1.891,1.149-2.985,1.907c-4.087,2.831-7.633,6.335-10.546,10.419c-1.91,2.681-3.515,5.592-4.776,8.658
	c-2.146,5.23-3.234,10.724-3.234,16.332l0.037,212.917c0,0.927,0.033,1.882,0.105,2.917c0.016,0.241,0.037,0.481,0.063,0.721
	l0.014,0.127c0.06,0.694,0.131,1.384,0.228,2.094c0.036,0.259,0.078,0.516,0.133,0.866c0.112,0.697,0.236,1.389,0.382,2.076
	c0.052,0.256,0.106,0.51,0.163,0.756c0.178,0.776,0.377,1.544,0.604,2.339c0.04,0.149,0.082,0.298,0.115,0.403
	c1.139,3.811,2.805,7.45,4.953,10.82c0.012,0.019,0.024,0.037,0.036,0.057c1.483,2.323,3.198,4.511,5.068,6.474
	c0.046,0.051,0.168,0.18,0.216,0.228c0.891,0.925,1.84,1.824,2.825,2.675l0.481,0.405c1.098,0.923,2.111,1.705,3.097,2.391
	c1.116,0.775,2.087,1.397,3.062,1.96L234.499,506.23c6.539,3.773,13.986,5.768,21.534,5.768c7.556,0,15.006-1.998,21.549-5.776
	l184.37-106.487c0.943-0.545,1.89-1.149,2.988-1.908c0.989-0.687,2.004-1.465,3.107-2.388l0.474-0.398
	c0.986-0.85,1.938-1.748,2.85-2.69l0.153-0.162c4.695-4.904,8.206-10.929,10.124-17.344c0.052-0.166,0.101-0.335,0.141-0.487
	c0.224-0.774,0.427-1.554,0.608-2.344c0.059-0.253,0.113-0.508,0.168-0.769c0.142-0.684,0.269-1.372,0.379-2.067l0.022-0.123
	c0.04-0.253,0.08-0.508,0.118-0.786c0.094-0.687,0.168-1.378,0.227-2.063l0.016-0.145c0.024-0.239,0.046-0.479,0.061-0.72
	c0.074-1.058,0.106-2.019,0.105-2.931L483.457,149.505z M465.348,364.1l-0.051,0.52c-0.035,0.406-0.076,0.813-0.128,1.192
	l-0.083,0.533c-0.064,0.404-0.137,0.804-0.219,1.197l-0.094,0.441c-0.106,0.458-0.224,0.91-0.363,1.388l-0.061,0.222
	c-1.13,3.761-3.164,7.251-5.902,10.114l-0.084,0.09c-0.514,0.532-1.068,1.052-1.638,1.545l-0.289,0.241
	c-0.67,0.561-1.257,1.014-1.787,1.382c-0.674,0.465-1.222,0.819-1.731,1.111l-184.376,106.49c-3.797,2.193-8.12,3.351-12.505,3.351
	c-4.38,0-8.703-1.157-12.495-3.347L59.131,384.143c-0.526-0.303-1.09-0.668-1.776-1.144c-0.539-0.375-1.109-0.817-1.816-1.41
	l-0.262-0.217c-0.573-0.495-1.124-1.017-1.577-1.486c-0.031-0.035-0.136-0.148-0.171-0.183c-1.086-1.142-2.075-2.397-2.929-3.73
	c-0.011-0.016-0.022-0.031-0.031-0.047c-1.256-1.965-2.23-4.087-2.886-6.28l-0.074-0.268c-0.129-0.445-0.245-0.891-0.351-1.353
	l-0.094-0.441c-0.082-0.389-0.154-0.781-0.219-1.198l-0.078-0.5c-0.054-0.4-0.095-0.803-0.133-1.221l-0.046-0.476
	c-0.036-0.561-0.061-1.125-0.061-1.7L46.59,149.579c0-3.24,0.633-6.427,1.879-9.463c0.732-1.783,1.667-3.476,2.774-5.028
	c1.695-2.378,3.753-4.415,6.114-6.051c0.674-0.465,1.221-0.819,1.73-1.111L243.463,21.434c3.795-2.192,8.119-3.351,12.502-3.351
	c4.382,0,8.703,1.159,12.495,3.347l184.41,106.428c0.528,0.304,1.09,0.667,1.778,1.145c3.881,2.7,6.908,6.446,8.754,10.824
	c0.452,1.074,0.829,2.169,1.119,3.26c0.567,2.124,0.855,4.283,0.855,6.421l0.034,212.93
	C465.41,363.004,465.384,363.566,465.348,364.1z"/>
<g>
</g>
<g>
</g>
<g>
</g>
<g>
</g>
<g>
</g>
<g>
</g>
<g>
</g>
<g>
</g>
<g>
</g>
<g>
</g>
<g>
</g>
<g>
</g>
<g>
</g>
<g>
</g>
<g>
</g>
</svg>
