<?xml version="1.0" encoding="iso-8859-1"?>
<!-- Generator: Adobe Illustrator 19.0.0, SVG Export Plug-In . SVG Version: 6.00 Build 0)  -->
<svg version="1.1" id="Layer_1" xmlns="http://www.w3.org/2000/svg" xmlns:xlink="http://www.w3.org/1999/xlink" x="0px" y="0px"
	 viewBox="0 0 512 512" style="enable-background:new 0 0 512 512;" xml:space="preserve">
<path style="fill:#ED1F34;" d="M473.102,371.85c0.176-0.61,0.338-1.227,0.479-1.848c0.047-0.201,0.089-0.403,0.131-0.604
	c0.113-0.54,0.213-1.085,0.3-1.632c0.037-0.237,0.076-0.474,0.11-0.711c0.076-0.546,0.131-1.095,0.18-1.644
	c0.02-0.225,0.047-0.448,0.063-0.674c0.052-0.767,0.084-1.537,0.083-2.313l0,0l0,0v-0.006l-0.006-40.904v-0.002l-0.005-26.203
	v-0.002l-0.001-4.213l-0.004-25.574l0,0l-0.008-48.824l-0.005-26.203l-0.006-40.985c-0.001-2.995-0.409-5.931-1.161-8.75
	c-0.405-1.517-0.915-2.997-1.521-4.435c-2.477-5.876-6.574-11.016-11.924-14.74c-0.784-0.545-1.584-1.071-2.421-1.553l-22.87-13.202
	l-21.414-12.358l-17.24-9.949l-65.925-38.046L304.22,31.629l-19.288-11.132l-11.953-6.899c-10.533-6.078-23.509-6.076-34.04,0.007
	l-11.872,6.857l-19.288,11.14l-25.717,14.853l0,0l-65.915,38.072l-28.89,16.686l-21.408,12.365l-11.282,6.516
	c-0.813,0.469-1.59,0.98-2.353,1.507c-3.272,2.268-6.072,5.067-8.331,8.236c-1.517,2.127-2.781,4.422-3.774,6.841
	c-1.654,4.032-2.557,8.399-2.557,12.899l0.007,40.913l0.005,26.203l0.012,73.738l0.001,4.011v0.85v0.001v0.013l0,0v0.005l0,0
	l0.005,26.198v0.002v1.863l0.002,12.617l0.004,26.496v0.007l0,0c0.001,0.773,0.033,1.539,0.084,2.305
	c0.016,0.224,0.042,0.445,0.063,0.668c0.048,0.55,0.105,1.096,0.178,1.638c0.033,0.236,0.072,0.471,0.11,0.708
	c0.086,0.544,0.184,1.086,0.298,1.625c0.042,0.201,0.084,0.403,0.13,0.603c0.14,0.615,0.298,1.222,0.471,1.825
	c0.033,0.113,0.061,0.228,0.095,0.34c0.909,3.043,2.239,5.93,3.941,8.588c0,0.001,0,0.002,0.001,0.002l0.001,0.002
	c1.172,1.832,2.517,3.551,4.026,5.137c0.049,0.053,0.098,0.106,0.147,0.159c0.71,0.734,1.454,1.438,2.233,2.112
	c0.125,0.11,0.254,0.215,0.382,0.322c0.785,0.661,1.594,1.298,2.444,1.89c0.784,0.545,1.584,1.07,2.421,1.553l22.552,13.016
	l21.414,12.359l17.561,10.134l91.644,52.89l19.288,11.132l11.953,6.899c10.533,6.078,23.509,6.076,34.04-0.007l11.872-6.857
	l19.288-11.14l25.717-14.853l55.554-32.086l10.363-5.985l26.36-15.225l21.408-12.365l13.813-7.977
	c0.813-0.469,1.59-0.98,2.353-1.507c0.85-0.588,1.659-1.226,2.445-1.884c0.129-0.106,0.259-0.212,0.386-0.323
	c0.779-0.671,1.526-1.374,2.236-2.108c0.046-0.048,0.09-0.098,0.136-0.145c3.725-3.893,6.475-8.61,8.019-13.767
	C473.044,372.067,473.072,371.958,473.102,371.85z"/>
<path style="fill:#259245;" d="M37.572,290.431l0.001,4.011v0.849v0.002v0.013l0,0v0.005l0,0l0.005,26.198v0.002v1.863l0.002,12.617
	l0.004,26.496v0.007l0,0c0.001,0.773,0.033,1.539,0.084,2.305c0.016,0.224,0.042,0.445,0.063,0.668
	c0.048,0.55,0.105,1.096,0.178,1.638c0.033,0.236,0.072,0.471,0.11,0.708c0.086,0.544,0.184,1.085,0.298,1.625
	c0.042,0.201,0.084,0.403,0.13,0.603c0.14,0.615,0.298,1.222,0.471,1.825c0.033,0.113,0.061,0.228,0.095,0.34
	c0.909,3.043,2.239,5.93,3.94,8.588c0.001,0.001,0.001,0.002,0.002,0.004l0.001,0.001c1.172,1.832,2.517,3.551,4.026,5.137
	c0.049,0.053,0.098,0.106,0.147,0.159c0.71,0.734,1.454,1.438,2.233,2.112c0.125,0.11,0.254,0.215,0.382,0.322
	c0.785,0.661,1.594,1.298,2.444,1.89c0.784,0.545,1.584,1.07,2.421,1.553l22.552,13.016l21.414,12.359l17.561,10.134l91.644,52.89
	l19.288,11.132l11.953,6.899c10.533,6.078,23.509,6.076,34.04-0.007l11.872-6.857l19.288-11.14l25.717-14.853l55.554-32.086
	l10.363-5.985l26.36-15.225l21.408-12.365l13.813-7.977c0.813-0.469,1.59-0.98,2.353-1.507c0.851-0.588,1.659-1.226,2.445-1.884
	c0.129-0.106,0.259-0.212,0.386-0.323c0.779-0.671,1.526-1.374,2.236-2.108c0.047-0.048,0.09-0.098,0.136-0.145
	c3.725-3.893,6.475-8.61,8.019-13.767c0.033-0.106,0.06-0.215,0.09-0.322c0.176-0.611,0.338-1.228,0.479-1.849
	c0.047-0.201,0.089-0.403,0.131-0.604c0.113-0.54,0.213-1.085,0.3-1.632c0.037-0.237,0.076-0.474,0.11-0.712
	c0.076-0.545,0.131-1.093,0.18-1.643c0.021-0.225,0.046-0.448,0.063-0.674c0.052-0.767,0.083-1.537,0.083-2.313l0,0v-0.006
	l-0.006-40.905v-0.002l-0.005-26.203v-0.002v-4.213l-0.005-25.574l-0.002-9.518H37.567L37.572,290.431z"/>
<polygon style="fill:#FFE000;" points="160.933,234.656 230.93,231.039 255.999,165.585 281.069,231.039 351.066,234.656 
	296.563,278.726 314.755,346.413 255.999,308.197 197.244,346.413 215.435,278.726 "/>
<path d="M314.755,355.455c-1.713,0-3.428-0.485-4.931-1.462L256,318.982l-53.824,35.011c-3.14,2.042-7.214,1.936-10.245-0.265
	s-4.391-6.044-3.418-9.661l16.665-62.01l-49.93-40.37c-2.913-2.354-4.071-6.261-2.914-9.824c1.157-3.562,4.392-6.043,8.132-6.236
	l64.123-3.313l22.966-59.961c1.339-3.497,4.697-5.807,8.443-5.807s7.104,2.31,8.443,5.807l22.966,59.961l64.123,3.313
	c3.742,0.193,6.975,2.674,8.132,6.236s-0.001,7.469-2.914,9.824l-49.93,40.37l16.665,62.01c0.973,3.617-0.387,7.46-3.418,9.661
	C318.487,354.877,316.623,355.455,314.755,355.455z M255.999,299.155c1.715,0,3.432,0.487,4.931,1.462l38.966,25.346l-12.065-44.892
	c-0.928-3.453,0.266-7.128,3.046-9.377l36.146-29.227l-46.422-2.398c-3.572-0.184-6.699-2.457-7.977-5.796l-16.627-43.41
	l-16.627,43.41c-1.279,3.339-4.405,5.61-7.977,5.796l-46.422,2.398l36.146,29.227c2.781,2.248,3.975,5.924,3.046,9.377
	L212.1,325.963l38.966-25.346C252.568,299.643,254.285,299.155,255.999,299.155z M256.035,512L256.035,512
	c-7.551-0.001-14.995-1.995-21.534-5.767L50.09,399.803c-0.979-0.565-1.951-1.187-3.062-1.96c-0.992-0.692-2.004-1.473-3.097-2.391
	c-0.209-0.174-0.354-0.294-0.498-0.419c-0.956-0.827-1.908-1.728-2.809-2.661c-0.047-0.049-0.169-0.177-0.215-0.228
	c-1.87-1.964-3.585-4.151-5.069-6.474c-0.012-0.018-0.024-0.036-0.035-0.055c-2.148-3.369-3.815-7.009-4.953-10.82
	c-0.034-0.116-0.076-0.26-0.115-0.406c-0.227-0.792-0.427-1.561-0.604-2.339c-0.054-0.237-0.108-0.491-0.163-0.745
	c-0.146-0.694-0.272-1.386-0.381-2.084c-0.057-0.351-0.098-0.608-0.134-0.867c-0.096-0.71-0.17-1.401-0.229-2.093l-0.013-0.127
	c-0.025-0.24-0.047-0.479-0.064-0.721c-0.071-1.037-0.105-1.99-0.105-2.919L28.509,149.58c0-5.607,1.087-11.102,3.234-16.332
	c1.26-3.067,2.867-5.979,4.777-8.659c2.908-4.081,6.456-7.585,10.542-10.418c1.107-0.766,2.052-1.369,2.986-1.907L234.416,5.777
	C240.959,1.998,248.411,0,255.965,0c7.549,0,14.994,1.994,21.533,5.767l184.411,106.429c0.97,0.561,1.972,1.202,3.066,1.964
	c6.692,4.656,11.911,11.105,15.091,18.646c0.776,1.843,1.424,3.733,1.926,5.623c0.972,3.638,1.465,7.367,1.465,11.076l0.035,212.911
	c0.001,0.913-0.033,1.873-0.105,2.931c-0.016,0.24-0.037,0.48-0.063,0.721l-0.014,0.143c-0.06,0.684-0.134,1.374-0.227,2.061
	c-0.039,0.278-0.078,0.536-0.121,0.794c-0.129,0.81-0.256,1.5-0.399,2.184c-0.055,0.265-0.11,0.52-0.168,0.773
	c-0.18,0.784-0.383,1.566-0.608,2.34c-0.041,0.154-0.09,0.327-0.143,0.497c-1.917,6.402-5.426,12.428-10.122,17.332l-0.119,0.127
	c-0.943,0.974-1.894,1.872-2.881,2.723l-0.405,0.339c-1.184,0.99-2.199,1.77-3.184,2.452c-1.104,0.763-2.049,1.367-2.984,1.905
	L277.58,506.223C271.04,510.002,263.589,512,256.035,512z M50.548,375.887c0.008,0.014,0.018,0.028,0.025,0.042
	c0.863,1.348,1.858,2.617,2.956,3.771c0.034,0.035,0.141,0.151,0.175,0.186c0.454,0.471,1.005,0.992,1.57,1.479l0.266,0.224
	c0.703,0.591,1.275,1.033,1.818,1.413c0.679,0.471,1.244,0.835,1.773,1.14l184.41,106.428c3.793,2.189,8.113,3.346,12.494,3.346
	c0.001,0,0.001,0,0.001,0c4.383,0,8.707-1.16,12.504-3.351l184.372-106.49c0.501-0.288,1.051-0.641,1.734-1.114
	c0.53-0.369,1.099-0.808,1.784-1.382l0.293-0.242c0.568-0.489,1.121-1.011,1.635-1.543l0.083-0.09
	c2.74-2.863,4.776-6.354,5.905-10.118l0.06-0.217c0.137-0.477,0.257-0.929,0.362-1.386l0.096-0.447
	c0.08-0.387,0.154-0.787,0.218-1.191l0.082-0.528c0.053-0.385,0.094-0.79,0.129-1.197l0.051-0.52
	c0.036-0.534,0.063-1.097,0.061-1.664l-0.035-212.931c0-2.136-0.287-4.295-0.854-6.418c-0.291-1.093-0.667-2.187-1.118-3.259
	c-1.847-4.378-4.876-8.125-8.758-10.826c-0.682-0.476-1.245-0.837-1.776-1.144L268.459,21.429
	c-3.793-2.189-8.113-3.347-12.494-3.347c-4.384,0-8.709,1.16-12.505,3.351L59.087,127.924c-0.501,0.288-1.051,0.641-1.734,1.114
	c-2.357,1.633-4.416,3.671-6.11,6.048c-1.109,1.554-2.041,3.244-2.774,5.028c-1.247,3.039-1.879,6.223-1.879,9.465l0.036,212.911
	c0,0.575,0.025,1.138,0.063,1.699l0.047,0.473c0.037,0.421,0.077,0.825,0.131,1.225l0.078,0.5c0.066,0.415,0.137,0.808,0.219,1.196
	l0.094,0.438c0.106,0.467,0.223,0.913,0.35,1.354l0.076,0.276C48.336,371.823,49.3,373.932,50.548,375.887z"/>
<g>
</g>
<g>
</g>
<g>
</g>
<g>
</g>
<g>
</g>
<g>
</g>
<g>
</g>
<g>
</g>
<g>
</g>
<g>
</g>
<g>
</g>
<g>
</g>
<g>
</g>
<g>
</g>
<g>
</g>
</svg>
