<?xml version="1.0" encoding="iso-8859-1"?>
<!-- Generator: Adobe Illustrator 19.0.0, SVG Export Plug-In . SVG Version: 6.00 Build 0)  -->
<svg version="1.1" id="Layer_1" xmlns="http://www.w3.org/2000/svg" xmlns:xlink="http://www.w3.org/1999/xlink" x="0px" y="0px"
	 viewBox="0 0 512.001 512.001" style="enable-background:new 0 0 512.001 512.001;" xml:space="preserve">
<path style="fill:#FFFFFF;" d="M474.444,321.512v-0.002l0,0l-0.005-26.203v-0.002l0,0v-4.213l-0.004-25.574l-0.008-48.824
	l-0.005-26.203l-0.006-40.985c0-2.995-0.408-5.931-1.16-8.75c-0.405-1.517-0.915-2.997-1.521-4.435
	c-2.477-5.876-6.574-11.016-11.925-14.74c-0.784-0.545-1.584-1.071-2.419-1.553l-22.874-13.202l-21.414-12.358l-17.239-9.949
	l-65.928-38.046L304.22,31.629l-19.288-11.132l-11.953-6.899c-10.533-6.078-23.509-6.076-34.04,0.007l-11.872,6.857l-19.288,11.14
	l-25.717,14.853l0,0l-65.915,38.072l-28.89,16.686l-21.408,12.365l-11.282,6.516c-0.811,0.469-1.59,0.98-2.353,1.507
	c-3.272,2.268-6.073,5.067-8.333,8.236c-1.517,2.127-2.781,4.422-3.773,6.841c-1.655,4.032-2.558,8.399-2.557,12.899l0.006,40.913
	l0.005,26.203l0.006,39.306l0,0l0.006,34.432v4.011v0.849v0.002v0.013l0,0v0.005l0,0l0.005,26.198v0.001v0.001v1.863l0.002,12.617
	l0.004,26.496v0.007l0,0c0,0.773,0.033,1.539,0.084,2.304c0.016,0.225,0.042,0.446,0.061,0.669c0.048,0.55,0.105,1.096,0.18,1.638
	c0.033,0.236,0.072,0.471,0.108,0.706c0.087,0.545,0.186,1.087,0.298,1.626c0.042,0.201,0.086,0.403,0.131,0.603
	c0.14,0.615,0.298,1.222,0.471,1.825c0.017,0.057,0.033,0.115,0.048,0.171c0.016,0.057,0.03,0.113,0.048,0.17
	c0.909,3.042,2.24,5.93,3.94,8.589l0.001,0.001v0.001v0.001c0.586,0.916,1.215,1.803,1.887,2.661
	c0.671,0.857,1.385,1.683,2.14,2.476c0.025,0.025,0.049,0.053,0.075,0.078c0.024,0.027,0.049,0.053,0.075,0.08
	c0.354,0.368,0.744,0.704,1.115,1.056c0.371,0.352,0.728,0.72,1.116,1.056c0.125,0.11,0.254,0.215,0.382,0.322
	c0.198,0.165,0.4,0.324,0.6,0.485c0.599,0.486,1.207,0.962,1.846,1.406c0.784,0.545,1.584,1.07,2.419,1.553l22.552,13.016
	l21.414,12.359l17.561,10.134l91.644,52.89l19.288,11.132l11.953,6.899c10.533,6.078,23.509,6.076,34.04-0.007l11.872-6.857
	l19.288-11.14l25.717-14.853l55.554-32.086l10.363-5.985l26.36-15.225l21.408-12.365l13.813-7.977
	c0.811-0.469,1.59-0.98,2.353-1.507c0.851-0.588,1.659-1.226,2.446-1.884c0.128-0.107,0.258-0.212,0.385-0.322
	c0.78-0.673,1.526-1.375,2.237-2.11c0.047-0.048,0.09-0.098,0.136-0.146c0.465-0.486,0.916-0.985,1.351-1.496
	c0.434-0.512,0.854-1.036,1.256-1.571c0.805-1.07,1.547-2.186,2.221-3.34c0.674-1.155,1.279-2.35,1.811-3.578
	c0.534-1.23,0.996-2.489,1.382-3.78c0.031-0.106,0.059-0.215,0.09-0.322c0.176-0.611,0.336-1.228,0.479-1.849
	c0.046-0.201,0.089-0.403,0.131-0.604c0.057-0.271,0.1-0.544,0.151-0.817c0.049-0.272,0.106-0.543,0.151-0.817
	c0.037-0.236,0.076-0.473,0.11-0.711c0.075-0.545,0.131-1.093,0.18-1.643c0.01-0.112,0.021-0.225,0.031-0.336
	c0.011-0.111,0.024-0.224,0.031-0.336c0.052-0.767,0.084-1.537,0.084-2.313l0,0v-0.006L474.444,321.512z"/>
<path style="fill:#B21727;" d="M86.343,255.999h41.148h346.941l-0.006-39.306l-0.005-26.203l-0.006-40.985
	c0-1.497-0.102-2.981-0.298-4.441c-0.196-1.461-0.486-2.899-0.862-4.309c-0.405-1.517-0.915-2.997-1.521-4.435
	c-2.477-5.876-6.574-11.016-11.925-14.74c-0.784-0.545-1.584-1.071-2.419-1.553l-11.437-6.601l-11.437-6.601l-21.414-12.358
	l-17.239-9.949l-65.926-38.045L304.22,31.629l-19.288-11.132l-11.953-6.899c-5.267-3.039-11.144-4.558-17.021-4.557
	c-0.734,0-1.47,0.025-2.202,0.072c-5.134,0.333-10.21,1.831-14.817,4.493l-11.872,6.857l-19.288,11.14l-25.717,14.853l0,0
	l-65.915,38.07l-28.89,16.686l-21.408,12.365l-11.282,6.516c-0.811,0.469-1.59,0.98-2.353,1.507
	c-3.272,2.268-6.073,5.067-8.333,8.236c-0.336,0.473-0.656,0.956-0.968,1.444c-1.092,1.712-2.033,3.515-2.805,5.397
	c-1.655,4.032-2.558,8.399-2.557,12.899l0.006,40.913l0.005,26.203l0.006,39.306L86.343,255.999L86.343,255.999z"/>
<path d="M483.457,149.504c0-3.711-0.494-7.438-1.466-11.08c-0.506-1.897-1.155-3.787-1.925-5.614
	c-3.179-7.543-8.398-13.99-15.096-18.652c-1.115-0.776-2.087-1.397-3.062-1.96L277.499,5.767C270.961,1.994,263.513,0,255.964,0
	c-7.555,0-15.005,1.998-21.547,5.776L50.042,112.265c-0.945,0.546-1.89,1.15-2.979,1.904c-4.086,2.831-7.633,6.335-10.546,10.421
	c-1.912,2.683-3.519,5.595-4.775,8.657c-2.147,5.231-3.234,10.726-3.234,16.335l0.035,212.915c0,0.921,0.034,1.875,0.105,2.917
	c0.017,0.235,0.039,0.469,0.061,0.703l0.014,0.142c0.06,0.696,0.134,1.385,0.231,2.096c0.034,0.24,0.071,0.477,0.108,0.716
	l0.025,0.159c0.11,0.69,0.234,1.377,0.38,2.076c0.053,0.253,0.107,0.508,0.163,0.747c0.177,0.776,0.377,1.543,0.608,2.35
	l0.112,0.392c1.143,3.826,2.82,7.485,4.986,10.873c0.014,0.023,0.028,0.045,0.042,0.065c1.477,2.3,3.177,4.466,5.049,6.434
	c0.04,0.041,0.153,0.163,0.194,0.205c0.887,0.921,1.837,1.82,2.827,2.677l0.481,0.405c1.098,0.923,2.111,1.703,3.096,2.389
	c1.114,0.774,2.087,1.397,3.064,1.963l184.411,106.428c6.539,3.773,13.985,5.767,21.534,5.767l0,0
	c7.554,0,15.005-1.998,21.547-5.776l184.372-106.49c0.949-0.547,1.895-1.152,2.979-1.904c0.995-0.688,1.979-1.443,3.097-2.378
	c0.005-0.004,0.104-0.086,0.11-0.09l0.381-0.321c0.989-0.854,1.942-1.752,2.81-2.647l0.194-0.205
	c4.695-4.906,8.205-10.93,10.152-17.433l0.112-0.397c0.224-0.774,0.427-1.554,0.608-2.344l0.168-0.769
	c0.143-0.684,0.27-1.373,0.38-2.067l0.019-0.122c0.041-0.256,0.081-0.511,0.118-0.779c0.095-0.688,0.169-1.384,0.229-2.074
	l0.014-0.143c0.024-0.239,0.047-0.479,0.063-0.72c0.071-1.043,0.105-2,0.105-2.932L483.457,149.504z M465.348,364.098l-0.051,0.521
	c-0.035,0.403-0.076,0.804-0.129,1.195l-0.082,0.529c-0.064,0.405-0.139,0.805-0.227,1.228l-0.089,0.41
	c-0.105,0.457-0.223,0.91-0.348,1.344l-0.07,0.253c-1.128,3.765-3.164,7.26-5.908,10.125l-0.083,0.09
	c-0.512,0.529-1.066,1.05-1.654,1.558l-0.269,0.225c-0.69,0.576-1.26,1.016-1.797,1.388c-0.668,0.464-1.216,0.816-1.728,1.11
	l-184.375,106.49c-3.796,2.192-8.119,3.351-12.504,3.351c-4.381,0-8.701-1.157-12.495-3.347L59.131,384.143
	c-0.526-0.304-1.091-0.668-1.778-1.146c-0.54-0.375-1.109-0.817-1.783-1.383l-0.288-0.24c-0.576-0.499-1.128-1.022-1.596-1.507
	c-0.027-0.028-0.128-0.136-0.154-0.164c-1.098-1.155-2.093-2.424-2.957-3.774c-0.008-0.016-0.018-0.029-0.028-0.043
	c-1.247-1.958-2.211-4.066-2.869-6.271l-0.066-0.237c-0.127-0.445-0.245-0.891-0.351-1.357l-0.092-0.427
	c-0.083-0.395-0.156-0.793-0.217-1.185l-0.082-0.524c-0.054-0.399-0.095-0.8-0.13-1.201l-0.048-0.494
	c-0.039-0.562-0.064-1.125-0.064-1.699l-0.016-97.447h39.733c4.993,0,9.041-4.047,9.041-9.041s-4.048-9.041-9.041-9.041H46.607
	l-0.016-97.382c0-3.24,0.632-6.425,1.881-9.466c0.731-1.782,1.662-3.472,2.77-5.026c1.696-2.377,3.755-4.413,6.116-6.049
	c0.671-0.465,1.221-0.82,1.73-1.113l184.375-106.49c3.796-2.192,8.119-3.351,12.504-3.351c4.381,0,8.701,1.157,12.495,3.347
	l184.408,106.427c0.526,0.304,1.091,0.668,1.778,1.145c3.881,2.7,6.909,6.445,8.758,10.829c0.448,1.064,0.825,2.159,1.116,3.254
	c0.567,2.123,0.854,4.282,0.854,6.419l0.016,97.453h-337.9c-4.993,0-9.041,4.047-9.041,9.041c0,4.994,4.048,9.041,9.041,9.041
	h337.901l0.016,97.381C465.409,362.993,465.384,363.561,465.348,364.098z"/>
<g>
</g>
<g>
</g>
<g>
</g>
<g>
</g>
<g>
</g>
<g>
</g>
<g>
</g>
<g>
</g>
<g>
</g>
<g>
</g>
<g>
</g>
<g>
</g>
<g>
</g>
<g>
</g>
<g>
</g>
</svg>
