<?xml version="1.0" encoding="iso-8859-1"?>
<!-- Generator: Adobe Illustrator 19.0.0, SVG Export Plug-In . SVG Version: 6.00 Build 0)  -->
<svg version="1.1" id="Layer_1" xmlns="http://www.w3.org/2000/svg" xmlns:xlink="http://www.w3.org/1999/xlink" x="0px" y="0px"
	 viewBox="0 0 511.997 511.997" style="enable-background:new 0 0 511.997 511.997;" xml:space="preserve">
<path style="fill:#ED1F34;" d="M473.118,371.86c0.176-0.611,0.336-1.229,0.479-1.851c0.046-0.201,0.089-0.401,0.131-0.603
	c0.113-0.541,0.213-1.085,0.3-1.634c0.037-0.237,0.076-0.474,0.11-0.711c0.075-0.545,0.131-1.094,0.18-1.643
	c0.02-0.225,0.047-0.449,0.063-0.674c0.052-0.767,0.084-1.537,0.084-2.314l0,0l0,0v-0.006l-0.006-40.907v-0.001l-0.005-26.206
	v-0.002v-4.214l-0.004-25.576l0,0l-0.008-48.827l-0.005-26.206l-0.006-40.988c0-2.996-0.408-5.93-1.16-8.75
	c-0.405-1.517-0.915-2.997-1.521-4.435c-2.478-5.877-6.574-11.017-11.926-14.741c-0.784-0.545-1.584-1.071-2.42-1.554
	l-22.875-13.201l-21.415-12.359l-17.24-9.95l-65.931-38.05l-25.719-14.843l-19.29-11.133l-11.954-6.898
	c-10.533-6.079-23.511-6.077-34.043,0.006l-11.873,6.857l-19.29,11.141l-25.719,14.856l0,0l-65.921,38.076l-28.892,16.686
	l-21.409,12.366l-11.283,6.518c-0.811,0.469-1.59,0.979-2.353,1.507c-3.272,2.267-6.074,5.068-8.333,8.237
	c-1.517,2.128-2.781,4.423-3.774,6.842c-1.655,4.032-2.558,8.399-2.557,12.9l0.006,40.915l0.005,26.206l0.012,73.743v4.011v0.85
	v0.001v0.013l0,0v0.005l0,0l0.005,26.201v0.001v1.863l0.002,12.618l0.004,26.499v0.006l0,0c0,0.773,0.033,1.54,0.084,2.304
	c0.016,0.224,0.042,0.446,0.061,0.669c0.048,0.55,0.105,1.096,0.18,1.638c0.033,0.236,0.072,0.471,0.109,0.706
	c0.087,0.546,0.186,1.087,0.298,1.626c0.042,0.201,0.086,0.403,0.131,0.603c0.14,0.615,0.298,1.223,0.471,1.825
	c0.033,0.113,0.061,0.227,0.095,0.34c0.909,3.043,2.24,5.93,3.94,8.59l0.001,0.001c0,0.001,0.001,0.001,0.001,0.001
	c1.172,1.833,2.517,3.553,4.027,5.137c0.051,0.052,0.099,0.106,0.148,0.158c0.709,0.735,1.454,1.439,2.232,2.112
	c0.125,0.11,0.254,0.215,0.382,0.322c0.786,0.661,1.595,1.3,2.445,1.89c0.784,0.545,1.584,1.071,2.42,1.554l22.553,13.016
	l21.415,12.36l17.562,10.136l91.65,52.894l19.29,11.133l11.954,6.898c10.533,6.079,23.511,6.077,34.043-0.006l11.873-6.857
	l19.29-11.141l25.719-14.854l55.558-32.088l10.363-5.986l26.362-15.226l21.409-12.366l13.814-7.979
	c0.811-0.469,1.59-0.979,2.353-1.507c0.851-0.59,1.659-1.226,2.446-1.883c0.128-0.107,0.258-0.213,0.385-0.322
	c0.78-0.673,1.526-1.376,2.238-2.11c0.047-0.048,0.09-0.098,0.136-0.146c3.724-3.892,6.477-8.609,8.021-13.766
	C473.059,372.075,473.086,371.967,473.118,371.86z"/>
<g>
	<path style="fill:#FFE000;" d="M183.678,297.029L51.492,389.927c0.227,0.169,0.448,0.341,0.681,0.503
		c0.784,0.545,1.584,1.071,2.42,1.554l22.553,13.016l21.415,12.36l5.006,2.889l99.378-100.225
		C195.215,313.606,188.679,305.809,183.678,297.029z"/>
	<path style="fill:#FFE000;" d="M172.812,256.001c0-5.124,0.489-10.132,1.382-15.001L37.545,228.361l0.01,55.278l136.638-12.637
		C173.301,266.133,172.812,261.125,172.812,256.001z"/>
	<path style="fill:#FFE000;" d="M202.946,191.979L103.581,91.766l-16.338,9.436l-21.41,12.366l-11.283,6.518
		c-0.811,0.469-1.59,0.979-2.353,1.507c-0.23,0.16-0.441,0.342-0.668,0.508l132.149,92.873
		C188.679,206.191,195.215,198.396,202.946,191.979z"/>
	<path style="fill:#FFE000;" d="M255.999,172.814c5.124,0,10.132,0.489,15.001,1.382l21.799-149.173l-7.865-4.54l-11.954-6.898
		c-10.533-6.079-23.511-6.077-34.043,0.006l-11.873,6.857l-8.467,4.891l22.4,148.859
		C245.867,173.303,250.875,172.814,255.999,172.814z"/>
	<path style="fill:#FFE000;" d="M474.443,228.362l-136.638,12.637c0.891,4.871,1.382,9.878,1.382,15.001s-0.49,10.132-1.382,15.001
		l136.647,12.638l-0.002-18.123L474.443,228.362z"/>
	<path style="fill:#FFE000;" d="M328.319,214.973l132.179-92.893c-0.227-0.166-0.444-0.346-0.675-0.506
		c-0.784-0.545-1.584-1.071-2.42-1.554l-22.875-13.201l-21.415-12.359l-4.685-2.703l-99.377,100.225
		C316.78,198.396,323.318,206.191,328.319,214.973z"/>
	<path style="fill:#FFE000;" d="M255.999,339.188c-5.124,0-10.132-0.489-15.001-1.382l-22.001,149.058l8.068,4.656l11.954,6.898
		c10.533,6.079,23.511,6.077,34.043-0.006l11.873-6.857l8.935-5.16l-22.867-148.589C266.13,338.698,261.121,339.188,255.999,339.188
		z"/>
	<path style="fill:#FFE000;" d="M309.051,320.022l99.365,100.214l13.809-7.975l21.409-12.366l13.814-7.979
		c0.811-0.469,1.59-0.979,2.353-1.507c0.231-0.16,0.453-0.332,0.68-0.499l-132.161-92.881
		C323.318,305.809,316.78,313.606,309.051,320.022z"/>
	<circle style="fill:#FFE000;" cx="255.997" cy="256" r="47.019"/>
</g>
<path d="M218.022,256.001c0,20.94,17.036,37.977,37.977,37.977c15.379,0,29.142-9.175,35.064-23.373
	c1.922-4.609,7.216-6.786,11.826-4.865c4.609,1.922,6.786,7.217,4.865,11.826c-8.741,20.955-29.055,34.496-51.754,34.496
	c-30.912,0-56.061-25.149-56.061-56.061s25.149-56.061,56.061-56.061c22.699,0,43.015,13.54,51.754,34.496
	c1.923,4.609-0.256,9.904-4.865,11.826c-4.608,1.921-9.904-0.254-11.826-4.865c-5.922-14.198-19.686-23.373-35.064-23.373
	C235.058,218.024,218.022,235.061,218.022,256.001z M483.506,362.422c0,0.931-0.034,1.887-0.105,2.931
	c-0.017,0.244-0.039,0.482-0.063,0.721l-0.014,0.146c-0.06,0.686-0.134,1.382-0.228,2.071c-0.037,0.268-0.077,0.524-0.118,0.781
	l-0.019,0.119c-0.11,0.692-0.236,1.38-0.379,2.063l-0.168,0.77c-0.181,0.79-0.383,1.57-0.606,2.344l0,0l-0.112,0.397
	c-1.947,6.502-5.457,12.527-10.152,17.433l-0.197,0.207c-0.866,0.895-1.818,1.793-2.808,2.645l-0.474,0.398
	c-1.133,0.948-2.118,1.704-3.114,2.392c-1.083,0.75-2.03,1.355-2.979,1.904L277.585,506.24c-6.645,3.837-14.097,5.757-21.549,5.757
	c-7.447,0-14.893-1.916-21.536-5.751L50.073,399.814c-0.978-0.565-1.951-1.189-3.065-1.963c-0.985-0.685-1.999-1.467-3.096-2.389
	l-0.48-0.404c-0.991-0.858-1.941-1.758-2.828-2.679c-0.04-0.041-0.154-0.163-0.193-0.204c-1.877-1.971-3.581-4.142-5.059-6.448
	c-0.011-0.017-0.022-0.034-0.033-0.051c-2.165-3.388-3.843-7.046-4.986-10.873l-0.112-0.393c-0.23-0.804-0.43-1.573-0.608-2.35
	c-0.055-0.241-0.109-0.496-0.163-0.75c-0.146-0.697-0.27-1.382-0.38-2.072l-0.025-0.16c-0.037-0.237-0.075-0.476-0.109-0.715
	c-0.098-0.709-0.17-1.401-0.231-2.094l-0.014-0.147c-0.024-0.231-0.046-0.464-0.061-0.698c-0.071-1.045-0.105-1.999-0.105-2.92
	l-0.035-212.932c0-5.607,1.087-11.104,3.235-16.335c1.256-3.061,2.863-5.974,4.775-8.657c2.913-4.085,6.461-7.591,10.547-10.421
	c1.087-0.754,2.034-1.356,2.979-1.904L234.415,5.758C247.7-1.916,264.21-1.92,277.499,5.75l184.423,106.436
	c0.975,0.563,1.947,1.185,3.062,1.96c6.697,4.661,11.916,11.11,15.095,18.653c0.77,1.828,1.419,3.717,1.925,5.615
	c0.972,3.642,1.465,7.37,1.466,11.081L483.506,362.422z M465.411,291.884l-128.439-11.879c-2.527-0.234-4.839-1.518-6.372-3.541
	c-1.534-2.022-2.146-4.596-1.689-7.091c0.819-4.472,1.233-8.971,1.233-13.374c0-4.403-0.415-8.902-1.233-13.374
	c-0.457-2.496,0.156-5.07,1.689-7.091c1.532-2.022,3.845-3.307,6.372-3.541l128.427-11.878l-0.012-70.618
	c0-2.138-0.288-4.298-0.854-6.42c-0.292-1.095-0.668-2.189-1.116-3.254c-0.942-2.233-2.192-4.297-3.701-6.144l-126.197,88.689
	c-1.536,1.079-3.354,1.644-5.2,1.644c-0.659,0-1.321-0.072-1.975-0.218c-2.486-0.556-4.621-2.135-5.882-4.349
	c-4.476-7.859-10.259-14.76-17.187-20.511c-1.952-1.62-3.133-3.986-3.256-6.52c-0.123-2.534,0.825-5.002,2.611-6.804l91.116-91.893
	L299.82,39.511l-19.872,135.99c-0.354,2.428-1.682,4.608-3.676,6.039c-1.994,1.431-4.485,1.988-6.898,1.548
	c-8.952-1.636-17.8-1.636-26.75,0c-0.54,0.099-1.085,0.148-1.626,0.148c-1.871,0-3.711-0.581-5.255-1.684
	c-1.992-1.423-3.321-3.592-3.686-6.012L211.63,39.801l-93.37,53.927l91.107,91.883c1.786,1.801,2.734,4.27,2.611,6.804
	c-0.123,2.534-1.304,4.9-3.256,6.52c-6.929,5.751-12.711,12.652-17.186,20.51c-1.26,2.213-3.396,3.793-5.881,4.349
	c-0.653,0.147-1.317,0.218-1.976,0.218c-1.845,0-3.664-0.565-5.2-1.644L52.301,133.695c-0.37,0.451-0.737,0.904-1.078,1.383
	c-1.107,1.554-2.04,3.244-2.77,5.025c-1.248,3.041-1.881,6.226-1.881,9.466l0.012,70.547l128.439,11.879
	c2.526,0.234,4.838,1.518,6.372,3.54c1.532,2.022,2.146,4.595,1.689,7.09c-0.819,4.475-1.233,8.976-1.233,13.375
	c0,4.399,0.415,8.9,1.233,13.375c0.457,2.496-0.157,5.068-1.689,7.09c-1.534,2.022-3.846,3.306-6.372,3.54L46.596,291.883
	l0.012,70.612c0,0.575,0.025,1.138,0.064,1.7l0.048,0.497c0.035,0.397,0.076,0.799,0.13,1.198l0.082,0.524
	c0.061,0.392,0.135,0.79,0.217,1.185l0.093,0.428c0.106,0.464,0.223,0.91,0.351,1.355l0.068,0.241
	c0.656,2.2,1.618,4.303,2.861,6.257c0.012,0.019,0.024,0.037,0.035,0.055c0.529,0.827,1.122,1.611,1.745,2.369l126.176-88.675
	c2.085-1.465,4.689-1.983,7.175-1.426c2.486,0.556,4.621,2.135,5.882,4.349c4.476,7.859,10.259,14.76,17.187,20.511
	c1.952,1.62,3.133,3.986,3.256,6.52c0.123,2.534-0.825,5.002-2.611,6.804l-91.116,91.893l92.957,53.648l20.852-135.498
	c0.371-2.414,1.704-4.575,3.693-5.992c1.99-1.415,4.469-1.966,6.871-1.527c8.943,1.636,17.806,1.636,26.749,0
	c2.393-0.439,4.862,0.106,6.85,1.513c1.987,1.406,3.323,3.552,3.707,5.954l21.589,135.155l92.218-53.264l-91.107-91.883
	c-1.785-1.801-2.734-4.27-2.611-6.804c0.123-2.534,1.304-4.9,3.256-6.52c6.929-5.751,12.711-12.652,17.187-20.511
	c1.261-2.214,3.396-3.793,5.882-4.349c2.486-0.557,5.091-0.039,7.175,1.426l126.178,88.675c2.118-2.575,3.719-5.548,4.669-8.718
	l0.066-0.239c0.129-0.449,0.247-0.901,0.352-1.356l0.09-0.414c0.088-0.42,0.162-0.821,0.227-1.225l0.082-0.53
	c0.053-0.391,0.094-0.792,0.129-1.195l0.051-0.521c0.036-0.536,0.061-1.104,0.061-1.676L465.411,291.884z M330.826,309.842
	c-2.663,3.701-5.59,7.193-8.767,10.456l87.871,88.621l33.962-19.615L330.826,309.842z M189.938,320.298
	c-3.177-3.264-6.104-6.755-8.767-10.456L68.076,389.324l33.978,19.609L189.938,320.298z M163.77,256.001
	c0-2.273,0.088-4.563,0.264-6.861L46.589,238.278l0.006,35.445l117.438-10.861C163.858,260.563,163.77,258.273,163.77,256.001z
	 M181.171,202.16c2.663-3.702,5.59-7.193,8.766-10.456l-87.871-88.622l-33.962,19.615L181.171,202.16z M322.059,191.702
	c3.177,3.264,6.104,6.755,8.767,10.456l113.096-79.482l-33.978-19.608L322.059,191.702z M348.228,256.001
	c0,2.273-0.088,4.563-0.263,6.861l117.444,10.861l-0.006-35.445L347.965,249.14C348.14,251.438,348.228,253.728,348.228,256.001z
	 M228.455,30.084l20.163,133.992c4.932-0.404,9.792-0.405,14.723-0.002l19.622-134.289l-14.505-8.371
	c-7.711-4.45-17.291-4.449-25.001,0.005L228.455,30.084z M284.751,481.218l-21.292-133.299c-4.98,0.411-9.891,0.414-14.87,0.004
	l-20.576,133.704l15.526,8.96c7.711,4.45,17.291,4.449,25.001-0.005L284.751,481.218z"/>
<g>
</g>
<g>
</g>
<g>
</g>
<g>
</g>
<g>
</g>
<g>
</g>
<g>
</g>
<g>
</g>
<g>
</g>
<g>
</g>
<g>
</g>
<g>
</g>
<g>
</g>
<g>
</g>
<g>
</g>
</svg>
