<?xml version="1.0" encoding="iso-8859-1"?>
<!-- Generator: Adobe Illustrator 19.0.0, SVG Export Plug-In . SVG Version: 6.00 Build 0)  -->
<svg version="1.1" id="Layer_1" xmlns="http://www.w3.org/2000/svg" xmlns:xlink="http://www.w3.org/1999/xlink" x="0px" y="0px"
	 viewBox="0 0 512 512" style="enable-background:new 0 0 512 512;" xml:space="preserve">
<path style="fill:#FFFFFF;" d="M473.119,371.858c0.176-0.611,0.338-1.229,0.479-1.851c0.047-0.201,0.089-0.401,0.131-0.603
	c0.113-0.541,0.213-1.085,0.3-1.634c0.037-0.237,0.076-0.474,0.11-0.711c0.076-0.545,0.131-1.094,0.18-1.643
	c0.021-0.225,0.047-0.449,0.063-0.674c0.052-0.767,0.084-1.537,0.084-2.314l0,0l0,0v-0.006l-0.007-40.908v-0.001l-0.005-26.206
	v-0.002l-0.001-4.214l-0.004-25.576l0,0l-0.008-48.827l-0.005-26.206l-0.007-40.988c0-2.996-0.406-5.93-1.16-8.75
	c-0.405-1.517-0.915-2.997-1.52-4.435c-2.479-5.877-6.575-11.017-11.926-14.741c-0.784-0.545-1.584-1.071-2.421-1.554
	l-22.875-13.201l-21.415-12.359l-17.241-9.95l-65.931-38.05L304.219,31.61l-19.29-11.133l-11.954-6.898
	c-10.533-6.079-23.511-6.077-34.043,0.006l-11.873,6.857l-19.29,11.141l-25.719,14.855l0,0l-65.917,38.076L87.243,101.2
	l-21.409,12.366l-11.283,6.518c-0.811,0.469-1.59,0.979-2.353,1.507c-3.272,2.267-6.074,5.068-8.332,8.237
	c-1.517,2.128-2.781,4.423-3.774,6.842c-1.655,4.032-2.558,8.399-2.557,12.9l0.006,40.915l0.005,26.206l0.012,73.743v4.011v0.85
	v0.001v0.013l0,0v0.005l0,0l0.005,26.201v0.001v1.863l0.002,12.618l0.004,26.499v0.006l0,0c0,0.773,0.033,1.54,0.084,2.304
	c0.016,0.224,0.042,0.446,0.061,0.669c0.048,0.55,0.105,1.096,0.18,1.638c0.033,0.236,0.072,0.471,0.109,0.706
	c0.087,0.546,0.186,1.087,0.298,1.626c0.042,0.201,0.086,0.403,0.131,0.603c0.14,0.615,0.298,1.222,0.471,1.825
	c0.033,0.113,0.061,0.227,0.095,0.34c0.909,3.043,2.24,5.93,3.94,8.59v0.001c0.001,0.001,0.001,0.001,0.001,0.001
	c1.172,1.833,2.517,3.553,4.027,5.137c0.051,0.052,0.099,0.106,0.148,0.158c0.709,0.735,1.454,1.439,2.232,2.112
	c0.125,0.11,0.254,0.215,0.382,0.322c0.786,0.661,1.595,1.3,2.445,1.89c0.784,0.545,1.584,1.071,2.42,1.554l22.553,13.016
	l21.415,12.36l17.562,10.136l91.65,52.894l19.29,11.133l11.954,6.898c10.533,6.079,23.511,6.077,34.043-0.006l11.873-6.857
	l19.29-11.141l25.719-14.854l55.558-32.088l10.363-5.986l26.362-15.226l21.409-12.366l13.814-7.979
	c0.813-0.469,1.59-0.979,2.353-1.507c0.85-0.59,1.659-1.226,2.445-1.883c0.129-0.107,0.259-0.213,0.386-0.322
	c0.779-0.673,1.526-1.376,2.236-2.11c0.046-0.048,0.09-0.098,0.136-0.146c3.725-3.892,6.475-8.609,8.02-13.766
	C473.061,372.073,473.088,371.965,473.119,371.858z"/>
<polygon style="fill:#103B9B;" points="474.46,321.378 474.455,294.011 474.455,294.009 474.454,289.61 474.45,262.901 
	474.442,211.912 474.437,184.546 474.437,181.34 438.93,181.34 397.778,181.34 37.54,181.34 37.54,184.546 37.545,211.912 
	37.557,288.92 37.557,293.11 37.557,293.996 37.557,293.998 37.557,294.011 37.557,294.011 37.557,294.016 37.557,294.016 
	37.562,321.378 37.562,321.379 37.562,323.325 37.562,324.583 474.46,324.583 474.46,321.38 "/>
<path style="fill:#ED1F34;" d="M438.93,187.413h35.506l-0.007-37.918c0-2.996-0.406-5.93-1.16-8.75
	c-0.405-1.517-0.914-2.997-1.52-4.435c-2.479-5.877-6.575-11.017-11.926-14.741c-0.784-0.545-1.584-1.071-2.421-1.554
	l-22.875-13.201l-21.415-12.359l-17.241-9.95l-65.931-38.05l-25.719-14.843l-19.29-11.133l-11.954-6.898
	c-10.533-6.079-23.511-6.077-34.043,0.006l-11.873,6.857l-19.29,11.141L182.053,46.44l0,0l-65.918,38.074L87.243,101.2
	l-21.409,12.366l-11.283,6.518c-0.811,0.469-1.59,0.979-2.353,1.507c-3.272,2.267-6.074,5.068-8.332,8.237
	c-1.517,2.128-2.781,4.423-3.774,6.842c-1.655,4.032-2.558,8.399-2.557,12.9l0.006,37.845h360.238h41.152V187.413z"/>
<path style="fill:#FFE000;" d="M247.511,145.098l0.33-1.189l-0.728,0.439c-11.071-19.989-30.907-33.284-53.205-36.139v-4.004
	c0-4.994-4.047-9.042-9.041-9.043l0,0c-4.994,0-9.042,4.047-9.042,9.041v4.006c-22.298,2.854-42.132,16.15-53.203,36.139
	l-0.728-0.439l0.33,1.189c-1.978,4.097-0.597,9.017,3.192,11.487l8.532,30.694h101.835l8.532-30.694
	C248.108,154.114,249.49,149.194,247.511,145.098z M138.084,153.687c0.068-0.112,0.146-0.212,0.209-0.327
	c7.851-14.361,21.753-24.112,37.531-26.844l-0.001,17.392c0,1.712,0.483,3.307,1.309,4.672l-23.752,14.346L138.084,153.687z
	 M192.597,148.578c0.826-1.364,1.309-2.957,1.309-4.668l0.001-17.395c15.78,2.731,29.683,12.482,37.535,26.844
	c0.063,0.115,0.136,0.219,0.203,0.33l-15.293,9.236L192.597,148.578z"/>
<path style="fill:#ED1F34;" d="M99.871,187.279v118.638c0,46.943,38.054,84.997,84.997,84.997s84.997-38.054,84.997-84.997V187.279
	H99.871z"/>
<g>
	<path style="fill:#FFFFFF;" d="M151.843,246.688c-8.726,0-15.801,7.075-15.801,15.801v51.602l31.601-17.217v-34.385
		C167.643,253.762,160.569,246.688,151.843,246.688z"/>
	<path style="fill:#FFFFFF;" d="M217.895,246.688c8.726,0,15.801,7.075,15.801,15.801v51.602l-31.601-17.217v-34.385
		C202.095,253.762,209.169,246.688,217.895,246.688z"/>
</g>
<path d="M131.424,321.866c1.421,0.844,3.019,1.268,4.617,1.268c1.487,0,2.975-0.366,4.326-1.102l25.468-13.875
	c2.657,2.197,6.015,4.251,9.991,5.563v41.028c0,4.994,4.048,9.042,9.042,9.042s9.042-4.048,9.042-9.042V313.72
	c3.976-1.312,7.334-3.366,9.991-5.563l25.468,13.875c1.35,0.735,2.838,1.102,4.326,1.102c1.599,0,3.196-0.424,4.617-1.268
	c2.743-1.63,4.425-4.584,4.425-7.774V262.49c0-13.698-11.145-24.843-24.843-24.843c-6.688,0-12.754,2.668-17.225,6.98l4.23-12.136
	h3.513c4.994,0,9.042-4.048,9.042-9.042s-4.048-9.042-9.042-9.042h-9.937c-3.846,0-7.272,2.434-8.538,6.065l-5.071,14.547
	l-5.071-14.547c-1.266-3.632-4.692-6.065-8.538-6.065h-9.937c-4.994,0-9.042,4.048-9.042,9.042s4.048,9.042,9.042,9.042h3.513
	l4.23,12.136c-4.47-4.312-10.537-6.98-17.225-6.98c-13.698,0-24.843,11.145-24.843,24.843v51.602
	C127,317.282,128.68,320.236,131.424,321.866z M211.137,262.488c0-3.727,3.032-6.759,6.759-6.759c3.727,0,6.759,3.032,6.759,6.759
	v36.379l-13.517-7.364V262.488z M176.685,271.53h16.367v22.088c-1.564,1.505-4.341,3.469-8.184,3.469s-6.62-1.965-8.184-3.469
	L176.685,271.53L176.685,271.53z M145.084,262.488c0-3.727,3.032-6.759,6.759-6.759c3.727,0,6.759,3.032,6.759,6.759v29.015
	l-13.517,7.364C145.084,298.868,145.084,262.488,145.084,262.488z M483.473,149.495c0-3.71-0.493-7.437-1.464-11.076
	c-0.503-1.888-1.15-3.777-1.928-5.623c-3.18-7.542-8.4-13.991-15.092-18.647c-1.096-0.763-2.099-1.406-3.066-1.964L277.501,5.749
	c-13.287-7.669-29.798-7.665-43.085,0.007L50.027,112.254c-0.946,0.546-1.892,1.15-2.979,1.904
	c-4.086,2.831-7.634,6.335-10.547,10.421c-1.912,2.684-3.519,5.596-4.775,8.657c-2.147,5.231-3.235,10.726-3.235,16.335
	l0.035,212.932c0,0.921,0.034,1.875,0.105,2.92c0.016,0.234,0.037,0.465,0.061,0.698l0.014,0.147
	c0.061,0.694,0.134,1.385,0.231,2.094c0.034,0.24,0.071,0.477,0.109,0.715l0.025,0.16c0.11,0.691,0.234,1.376,0.38,2.072
	c0.054,0.254,0.107,0.509,0.163,0.75c0.177,0.778,0.377,1.546,0.608,2.35l0.112,0.393c1.143,3.828,2.821,7.486,4.986,10.873
	c0.011,0.017,0.022,0.034,0.033,0.051c1.479,2.305,3.183,4.476,5.059,6.448c0.039,0.042,0.153,0.163,0.193,0.204
	c0.887,0.921,1.836,1.82,2.828,2.679l0.48,0.404c1.098,0.922,2.111,1.705,3.096,2.39c1.113,0.774,2.086,1.397,3.065,1.963
	l184.424,106.436c6.643,3.834,14.089,5.751,21.536,5.751c7.451,0,14.905-1.919,21.55-5.757l184.383-106.495
	c0.945-0.545,1.892-1.15,2.987-1.908c0.985-0.682,1.998-1.46,3.108-2.388l0.476-0.398c0.986-0.851,1.939-1.749,2.846-2.687
	l0.156-0.165c4.696-4.904,8.205-10.93,10.126-17.346c0.051-0.163,0.096-0.328,0.151-0.524c0.219-0.761,0.42-1.529,0.597-2.305
	c0.058-0.253,0.112-0.506,0.168-0.77c0.142-0.682,0.269-1.371,0.379-2.063l0.019-0.119c0.041-0.257,0.081-0.514,0.121-0.791
	c0.093-0.687,0.168-1.379,0.227-2.062l0.014-0.146c0.024-0.239,0.047-0.477,0.064-0.721c0.071-1.057,0.105-2.018,0.104-2.931
	L483.473,149.495z M48.456,140.1c0.731-1.781,1.663-3.471,2.77-5.025c1.696-2.379,3.755-4.415,6.117-6.051
	c0.67-0.464,1.22-0.817,1.729-1.112L243.46,21.416c7.71-4.454,17.291-4.455,25.001-0.005l184.422,106.435
	c0.528,0.304,1.091,0.668,1.778,1.145c3.881,2.701,6.909,6.446,8.756,10.825c0.452,1.074,0.828,2.169,1.119,3.259
	c0.567,2.123,0.854,4.284,0.854,6.421l0.005,28.874h-26.462c-4.995,0-9.042,4.048-9.042,9.042s4.047,9.042,9.042,9.042h26.465
	l0.019,119.086H278.418c0.324-3.165,0.489-6.376,0.489-9.624V196.455h118.872c4.995,0,9.042-4.048,9.042-9.042
	s-4.047-9.042-9.042-9.042H271.364h-23.717l8.907-32.04c0.992-3.57-0.294-7.384-3.244-9.623c-2.949-2.24-6.968-2.453-10.142-0.538
	l-26.814,16.194l-26.814-16.194c-2.875-1.736-6.475-1.735-9.35,0l-26.809,16.194l-26.81-16.194
	c-3.171-1.916-7.19-1.702-10.142,0.538c-2.951,2.24-4.238,6.053-3.244,9.623l8.907,32.04H98.374H46.581l-0.005-28.804
	C46.575,146.327,47.208,143.142,48.456,140.1z M136.703,163.415l12.003,7.251c2.874,1.736,6.475,1.736,9.35,0l26.809-16.194
	l26.814,16.194c2.875,1.736,6.474,1.736,9.35,0l12.007-7.252l-4.121,14.822h-88.091L136.703,163.415z M133.951,196.321h101.835
	h25.037v0.134v109.462c0,3.262-0.229,6.469-0.631,9.624c-0.801,6.301-2.374,12.359-4.625,18.084
	c-11.098,28.214-38.594,48.246-70.698,48.246c-32.105,0-59.602-20.032-70.699-48.246c-2.252-5.725-3.824-11.784-4.625-18.084
	c-0.401-3.155-0.631-6.362-0.631-9.624V196.455v-0.134H133.951z M91.319,315.541H46.603l-0.02-119.086h44.247v109.462
	C90.829,309.166,90.996,312.376,91.319,315.541z M465.362,364.104l-0.051,0.521c-0.035,0.406-0.076,0.811-0.129,1.195l-0.082,0.53
	c-0.064,0.404-0.137,0.805-0.219,1.195l-0.095,0.444c-0.105,0.457-0.224,0.909-0.353,1.356c-0.002,0.008-0.005,0.018-0.008,0.027
	l-0.063,0.227c-1.13,3.76-3.164,7.251-5.905,10.115l-0.081,0.088c-0.515,0.53-1.067,1.052-1.637,1.544l-0.288,0.24
	c-0.675,0.564-1.263,1.019-1.792,1.385c-0.673,0.465-1.22,0.817-1.73,1.112L268.542,490.58c-7.711,4.451-17.291,4.454-25.001,0.005
	L59.119,384.15c-0.526-0.304-1.091-0.668-1.779-1.147c-0.539-0.375-1.109-0.817-1.782-1.382l-0.289-0.241
	c-0.576-0.5-1.128-1.022-1.596-1.507c-0.027-0.029-0.127-0.136-0.154-0.164c-1.098-1.155-2.093-2.424-2.957-3.775
	c-0.012-0.018-0.024-0.036-0.035-0.055c-1.243-1.954-2.205-4.058-2.861-6.257l-0.068-0.241c-0.127-0.444-0.245-0.89-0.351-1.355
	l-0.093-0.428c-0.082-0.395-0.156-0.793-0.217-1.185l-0.082-0.524c-0.054-0.399-0.096-0.802-0.13-1.198l-0.048-0.497
	c-0.039-0.562-0.064-1.125-0.064-1.7l-0.005-28.868h48.394c11.855,38.371,47.655,66.33,89.868,66.33
	c42.212,0,78.012-27.959,89.867-66.33H465.42l0.005,28.816C465.425,363.01,465.398,363.573,465.362,364.104z"/>
<g>
</g>
<g>
</g>
<g>
</g>
<g>
</g>
<g>
</g>
<g>
</g>
<g>
</g>
<g>
</g>
<g>
</g>
<g>
</g>
<g>
</g>
<g>
</g>
<g>
</g>
<g>
</g>
<g>
</g>
</svg>
