<?xml version="1.0" encoding="iso-8859-1"?>
<!-- Generator: Adobe Illustrator 19.0.0, SVG Export Plug-In . SVG Version: 6.00 Build 0)  -->
<svg version="1.1" id="Layer_1" xmlns="http://www.w3.org/2000/svg" xmlns:xlink="http://www.w3.org/1999/xlink" x="0px" y="0px"
	 viewBox="0 0 512.001 512.001" style="enable-background:new 0 0 512.001 512.001;" xml:space="preserve">
<path style="fill:#FFFFFF;" d="M473.105,371.85c0.176-0.61,0.336-1.227,0.479-1.848c0.046-0.201,0.089-0.403,0.131-0.604
	c0.113-0.54,0.213-1.085,0.3-1.632c0.037-0.237,0.076-0.474,0.11-0.711c0.075-0.546,0.131-1.095,0.18-1.644
	c0.021-0.225,0.047-0.448,0.063-0.674c0.052-0.767,0.084-1.537,0.084-2.313l0,0l0,0v-0.006l-0.006-40.904v-0.002l-0.005-26.203
	v-0.002v-4.213l-0.004-25.574l0,0l-0.008-48.824l-0.005-26.203l-0.006-40.985c0-2.995-0.408-5.931-1.16-8.75
	c-0.405-1.517-0.915-2.997-1.521-4.435c-2.477-5.876-6.574-11.016-11.925-14.74c-0.784-0.545-1.584-1.071-2.419-1.553
	l-22.874-13.202l-21.414-12.358l-17.239-9.949l-65.928-38.046l-25.717-14.844l-19.288-11.132l-11.953-6.899
	c-10.533-6.078-23.509-6.076-34.04,0.007l-11.872,6.857l-19.288,11.14l-25.717,14.853l0,0l-65.915,38.072l-28.89,16.686
	l-21.408,12.365l-11.282,6.516c-0.811,0.469-1.59,0.98-2.353,1.507c-3.272,2.268-6.073,5.067-8.333,8.236
	c-1.517,2.127-2.781,4.422-3.773,6.841c-1.655,4.032-2.558,8.399-2.557,12.899l0.006,40.913l0.005,26.203l0.012,73.738v4.011v0.85
	v0.001v0.013l0,0v0.005l0,0l0.005,26.198v0.002v1.863l0.002,12.617l0.004,26.496v0.007l0,0c0,0.773,0.033,1.539,0.084,2.305
	c0.016,0.224,0.042,0.445,0.061,0.668c0.048,0.55,0.105,1.096,0.18,1.638c0.033,0.236,0.072,0.471,0.108,0.708
	c0.087,0.544,0.186,1.086,0.298,1.625c0.042,0.201,0.086,0.403,0.131,0.603c0.14,0.615,0.298,1.222,0.471,1.825
	c0.033,0.113,0.061,0.228,0.095,0.34c0.909,3.043,2.24,5.93,3.94,8.588l0.001,0.002l0.001,0.002
	c1.172,1.832,2.517,3.551,4.025,5.137c0.051,0.053,0.099,0.106,0.148,0.159c0.709,0.734,1.454,1.438,2.231,2.112
	c0.125,0.11,0.254,0.215,0.382,0.322c0.786,0.661,1.595,1.298,2.445,1.89c0.784,0.545,1.584,1.07,2.419,1.553l22.552,13.016
	l21.414,12.359l17.561,10.134l91.644,52.89l19.288,11.132l11.953,6.899c10.533,6.078,23.509,6.076,34.04-0.007l11.872-6.857
	l19.288-11.14l25.717-14.853l55.554-32.086l10.363-5.985l26.36-15.225l21.408-12.365l13.813-7.977
	c0.811-0.469,1.59-0.98,2.353-1.507c0.851-0.588,1.659-1.226,2.446-1.884c0.128-0.106,0.258-0.212,0.385-0.323
	c0.78-0.671,1.526-1.374,2.237-2.108c0.047-0.048,0.09-0.098,0.136-0.145c3.724-3.893,6.476-8.61,8.02-13.767
	C473.046,372.067,473.074,371.958,473.105,371.85z"/>
<g>
	<path style="fill:#164FCE;" d="M204.662,33.404l-22.6,13.052l0,0l-65.915,38.072l-28.89,16.686l-21.408,12.365l-11.282,6.516
		c-0.811,0.469-1.59,0.98-2.353,1.507c-3.272,2.268-6.073,5.067-8.333,8.236c-1.517,2.127-2.781,4.422-3.773,6.841
		c-1.655,4.032-2.558,8.399-2.557,12.899v2.188h167.112V33.404z"/>
	<path style="fill:#164FCE;" d="M474.417,151.767v-2.262c0-2.995-0.408-5.931-1.16-8.75c-0.405-1.517-0.915-2.997-1.521-4.435
		c-2.477-5.876-6.574-11.016-11.925-14.74c-0.784-0.545-1.584-1.071-2.419-1.553l-22.874-13.202l-21.414-12.358l-17.239-9.949
		l-65.926-38.046l-22.597-13.041v118.335C307.341,151.767,474.417,151.767,474.417,151.767z"/>
</g>
<g>
	<polygon style="fill:#259245;" points="474.446,326.235 474.441,298.185 474.441,298.183 474.44,293.672 474.436,266.296 
		474.434,254.445 307.342,254.445 307.342,364.36 474.45,364.36 	"/>
	<polygon style="fill:#259245;" points="204.66,254.445 37.569,254.445 37.574,292.967 37.575,297.26 37.575,298.168 
		37.575,298.171 37.575,298.185 37.575,298.185 37.575,298.19 37.575,298.19 37.58,326.235 37.58,326.235 37.58,328.229 
		37.582,341.736 37.586,364.36 204.66,364.36 	"/>
</g>
<g>
	<path style="fill:#FFE000;" d="M307.342,478.595l22.597-13.051l55.554-32.086l10.363-5.985l26.36-15.225l21.408-12.365
		l13.813-7.977c0.811-0.469,1.59-0.98,2.353-1.507c0.851-0.588,1.659-1.226,2.446-1.884c0.128-0.106,0.258-0.212,0.385-0.323
		c0.78-0.671,1.526-1.374,2.237-2.108c0.047-0.048,0.09-0.098,0.136-0.145c3.724-3.893,6.476-8.61,8.02-13.767
		c0.031-0.106,0.059-0.215,0.09-0.322c0.176-0.611,0.336-1.228,0.479-1.849c0.046-0.201,0.089-0.403,0.131-0.604
		c0.113-0.54,0.213-1.084,0.3-1.632c0.037-0.237,0.076-0.474,0.11-0.712c0.075-0.545,0.131-1.093,0.18-1.643
		c0.021-0.225,0.047-0.448,0.063-0.674c0.052-0.767,0.084-1.537,0.084-2.313l0,0v-0.006v-5.29H307.342V478.595z"/>
	<path style="fill:#FFE000;" d="M204.66,357.127H37.586v5.361v0.007c0,0.773,0.033,1.539,0.084,2.305
		c0.016,0.224,0.042,0.445,0.061,0.668c0.048,0.55,0.105,1.096,0.18,1.639c0.033,0.235,0.072,0.47,0.108,0.706
		c0.087,0.544,0.186,1.085,0.298,1.625c0.042,0.201,0.086,0.403,0.131,0.603c0.14,0.615,0.298,1.222,0.471,1.825
		c0.033,0.113,0.061,0.228,0.095,0.34c0.909,3.043,2.24,5.93,3.94,8.588l0.001,0.004l0.001,0.001
		c1.172,1.832,2.517,3.551,4.025,5.137c0.051,0.053,0.099,0.106,0.148,0.159c0.709,0.734,1.454,1.438,2.231,2.112
		c0.125,0.11,0.254,0.215,0.382,0.322c0.786,0.661,1.595,1.298,2.445,1.89c0.784,0.545,1.584,1.07,2.419,1.553l22.552,13.016
		l21.414,12.359l17.561,10.134l88.525,51.091V357.127z"/>
</g>
<path style="fill:#ED1F34;" d="M307.342,357.127V254.445h-0.001l0.001-102.68V33.43l-3.12-1.801l-19.288-11.132l-11.953-6.899
	c-10.533-6.078-23.509-6.076-34.04,0.007l-11.872,6.857l-19.288,11.14l-3.119,1.801v118.363v326.806l3.119,1.799l19.288,11.132
	l11.953,6.899c10.533,6.078,23.509,6.076,34.04-0.007l11.872-6.857l19.288-11.14l3.12-1.801l-0.001-121.469L307.342,357.127
	L307.342,357.127z"/>
<circle style="fill:#FFE000;" cx="154.742" cy="113.126" r="20.542"/>
<path d="M483.458,149.503c0-3.711-0.494-7.438-1.466-11.08c-0.508-1.9-1.155-3.789-1.925-5.613
	c-3.179-7.542-8.398-13.99-15.096-18.652c-1.111-0.773-2.084-1.395-3.062-1.96L277.5,5.767C270.962,1.994,263.516,0,255.967,0
	c-7.555,0-15.006,1.998-21.547,5.776L50.044,112.265c-0.935,0.54-1.879,1.143-2.98,1.904c-4.088,2.833-7.636,6.339-10.543,10.419
	c-1.913,2.682-3.52,5.596-4.776,8.658c-2.147,5.232-3.234,10.727-3.234,16.334l0.035,212.917c0,0.921,0.034,1.876,0.105,2.919
	c0.016,0.234,0.037,0.469,0.061,0.702l0.014,0.143c0.061,0.693,0.134,1.385,0.231,2.095c0.034,0.24,0.071,0.477,0.108,0.716
	l0.025,0.16c0.11,0.691,0.235,1.378,0.38,2.075c0.053,0.254,0.107,0.508,0.163,0.746c0.177,0.779,0.377,1.547,0.608,2.351
	l0.112,0.393c1.144,3.827,2.821,7.486,4.986,10.873c0.014,0.023,0.029,0.045,0.043,0.068c1.476,2.298,3.174,4.463,5.046,6.429
	c0.04,0.042,0.153,0.164,0.195,0.206c0.896,0.929,1.847,1.83,2.81,2.663l0.498,0.42c1.093,0.919,2.105,1.699,3.096,2.388
	c1.096,0.764,2.096,1.403,3.064,1.963l184.411,106.429c6.538,3.772,13.983,5.766,21.532,5.767c0.001,0,0.001,0,0.002,0
	c7.554,0,15.005-1.998,21.546-5.776l184.373-106.49c0.938-0.541,1.884-1.145,2.975-1.9c0.996-0.688,1.982-1.445,3.189-2.454
	c0.14-0.116,0.278-0.231,0.405-0.34c0.99-0.854,1.941-1.752,2.84-2.681l0.159-0.171c4.695-4.904,8.206-10.929,10.149-17.421
	l0.116-0.406c0.224-0.775,0.427-1.556,0.605-2.34l0.169-0.773c0.143-0.684,0.27-1.374,0.399-2.184
	c0.042-0.258,0.082-0.516,0.119-0.785c0.094-0.69,0.168-1.383,0.228-2.071l0.014-0.143c0.024-0.24,0.047-0.48,0.063-0.721
	c0.071-1.043,0.105-1.999,0.105-2.931L483.458,149.503z M316.384,160.808h148.993l0.014,84.597H316.384V160.808z M454.646,129.003
	c3.882,2.7,6.909,6.446,8.758,10.832c0.399,0.944,0.729,1.914,1.005,2.89H316.384V49.088l136.485,78.771
	C453.398,128.162,453.964,128.528,454.646,129.003z M51.243,135.086c1.694-2.377,3.753-4.413,6.111-6.048
	c0.681-0.47,1.232-0.826,1.732-1.114l136.535-78.857v93.657H47.575c0.254-0.88,0.545-1.755,0.898-2.615
	C49.202,138.33,50.134,136.64,51.243,135.086z M46.625,348.085l-0.014-84.599h149.011v84.599H46.625z M46.608,245.404l-0.014-84.597
	H195.62v84.597H46.608z M57.357,382.999c-0.538-0.375-1.126-0.829-1.787-1.385l-0.293-0.246c-0.568-0.489-1.119-1.011-1.589-1.497
	c-0.027-0.03-0.129-0.139-0.157-0.169c-1.099-1.155-2.094-2.424-2.956-3.772c-0.016-0.025-0.031-0.048-0.047-0.074
	c-1.237-1.948-2.195-4.047-2.849-6.239l-0.069-0.246c-0.127-0.442-0.244-0.888-0.351-1.354l-0.093-0.428
	c-0.082-0.395-0.154-0.793-0.217-1.183l-0.037-0.237h148.707v96.745L59.132,384.141C58.603,383.836,58.039,383.473,57.357,382.999z
	 M268.539,490.566c-3.796,2.192-8.119,3.351-12.502,3.351h-0.001c-4.381,0-8.701-1.157-12.495-3.347l-29.838-17.221V38.622
	l29.761-17.188c3.796-2.192,8.119-3.351,12.504-3.351c4.381,0,8.701,1.157,12.495,3.347l29.839,17.221v215.76
	c0,0.012-0.001,0.024-0.001,0.035c0,0.011,0.001,0.024,0.001,0.035v102.61c0,0.012-0.001,0.024-0.001,0.035
	c0,0.011,0.001,0.024,0.001,0.035v116.213L268.539,490.566z M464.854,367.597l-0.084,0.387c-0.104,0.457-0.222,0.909-0.347,1.341
	l-0.071,0.254c-1.128,3.764-3.164,7.258-5.908,10.125l-0.083,0.09c-0.512,0.529-1.066,1.051-1.649,1.555l-0.276,0.228
	c-0.69,0.577-1.257,1.016-1.791,1.384c-0.679,0.471-1.227,0.825-1.731,1.113l-136.529,78.858v-96.763h74.636
	c4.993,0,9.041-4.047,9.041-9.041s-4.048-9.041-9.041-9.041h-74.636v-84.599h149.009l0.014,84.599h-34.607
	c-4.993,0-9.041,4.047-9.041,9.041s4.048,9.041,9.041,9.041h34.312l-0.028,0.176C465.022,366.749,464.949,367.15,464.854,367.597z"
	/>
<g>
</g>
<g>
</g>
<g>
</g>
<g>
</g>
<g>
</g>
<g>
</g>
<g>
</g>
<g>
</g>
<g>
</g>
<g>
</g>
<g>
</g>
<g>
</g>
<g>
</g>
<g>
</g>
<g>
</g>
</svg>
