<?xml version="1.0" encoding="iso-8859-1"?>
<!-- Generator: Adobe Illustrator 19.0.0, SVG Export Plug-In . SVG Version: 6.00 Build 0)  -->
<svg version="1.1" id="Layer_1" xmlns="http://www.w3.org/2000/svg" xmlns:xlink="http://www.w3.org/1999/xlink" x="0px" y="0px"
	 viewBox="0 0 512.001 512.001" style="enable-background:new 0 0 512.001 512.001;" xml:space="preserve">
<path style="fill:#FFE000;" d="M474.446,321.512L474.446,321.512l-0.005-26.206v-0.002v-4.213l-0.004-25.574l-0.008-48.824
	l-0.004-26.204l-0.007-40.984c0-2.995-0.406-5.931-1.16-8.75c-0.404-1.517-0.915-2.997-1.521-4.435
	c-2.477-5.877-6.574-11.017-11.925-14.74c-0.784-0.545-1.584-1.071-2.419-1.553l-22.874-13.202l-21.414-12.358l-17.24-9.949
	l-65.925-38.046l-25.717-14.844l-19.288-11.132l-11.953-6.899c-10.534-6.078-23.509-6.076-34.04,0.007l-11.872,6.857l-19.288,11.14
	l-25.717,14.854v-0.001l-50.39,29.105l-15.527,8.967l-28.89,16.686L65.85,113.578l-11.284,6.517
	c-0.811,0.468-1.59,0.979-2.353,1.506c-3.273,2.268-6.073,5.068-8.333,8.235c-1.517,2.129-2.781,4.424-3.773,6.843
	c-1.655,4.031-2.558,8.399-2.558,12.899v1.503l0,0l0.006,39.407v1.932l0,0l0.004,24.273l0.005,31.087l0,0l0.007,41.338l0,0v1.313
	l0.001,4.011v0.849v0.002v0.013v0.005l0.004,26.2v0.001v1.863l0.001,12.617l0.001,8.488l0,0l0.004,18.009v0.006l0,0
	c0,0.773,0.031,1.539,0.084,2.304c0.016,0.225,0.042,0.445,0.061,0.669c0.048,0.548,0.105,1.096,0.18,1.638
	c0.033,0.236,0.071,0.471,0.108,0.706c0.087,0.545,0.184,1.086,0.298,1.626c0.042,0.201,0.084,0.403,0.13,0.603
	c0.14,0.615,0.298,1.222,0.471,1.826c0.033,0.112,0.061,0.227,0.095,0.339c0.909,3.042,2.24,5.93,3.94,8.588
	c0,0.001,0.001,0.002,0.001,0.002l0.001,0.002c1.172,1.832,2.517,3.551,4.025,5.137c0.051,0.052,0.099,0.106,0.148,0.158
	c0.061,0.065,0.131,0.121,0.193,0.183l0,0c0.653,0.667,1.328,1.315,2.039,1.931c0.125,0.108,0.254,0.213,0.382,0.321
	c0.786,0.661,1.594,1.298,2.445,1.89c0.784,0.545,1.584,1.07,2.421,1.553l22.552,13.015l21.414,12.36l11.528,6.653l0,0l6.032,3.482
	l91.644,52.89l19.288,11.132l11.953,6.899c10.533,6.078,23.509,6.076,34.04-0.007l11.872-6.857l19.288-11.14l25.717-14.853
	l55.554-32.086l10.363-5.985l26.36-15.225l21.408-12.365l13.813-7.978c0.811-0.468,1.59-0.979,2.353-1.506
	c0.851-0.588,1.659-1.226,2.446-1.884c0.129-0.107,0.258-0.212,0.386-0.323c0.779-0.671,1.526-1.374,2.236-2.108
	c0.047-0.047,0.09-0.096,0.136-0.146c3.725-3.891,6.476-8.609,8.02-13.765c0.031-0.107,0.059-0.216,0.09-0.323
	c0.176-0.611,0.336-1.228,0.48-1.85c0.046-0.2,0.088-0.401,0.13-0.603c0.113-0.54,0.213-1.085,0.3-1.634
	c0.037-0.236,0.076-0.473,0.11-0.711c0.076-0.544,0.131-1.092,0.18-1.643c0.021-0.225,0.047-0.447,0.063-0.674
	c0.052-0.767,0.084-1.537,0.084-2.313l0,0v-0.006L474.446,321.512z"/>
<path style="fill:#103B9B;" d="M438.054,310.597L438.054,310.597l-0.004-21.839v-0.002v-3.512l-0.004-21.314l-0.007-40.69
	l-0.002-21.838l-0.006-34.157c0-2.495-0.339-4.943-0.966-7.292c-0.338-1.263-0.762-2.497-1.267-3.695
	c-2.064-4.898-5.479-9.181-9.938-12.283c-0.653-0.454-1.32-0.892-2.017-1.295l-19.063-11.002l-17.846-10.299l-14.367-8.293
	l-54.943-31.709l-21.433-12.37l-16.074-9.278l-9.961-5.749c-8.779-5.066-19.592-5.063-28.37,0.005l-9.895,5.714l-16.074,9.285
	l-21.433,12.379l0,0l-41.995,24.255l-12.94,7.473l-24.077,13.906l-17.843,10.305l-9.403,5.432c-0.676,0.389-1.326,0.815-1.96,1.255
	c-2.728,1.889-5.062,4.223-6.944,6.863c-1.265,1.773-2.318,3.688-3.145,5.701c-1.379,3.36-2.131,7-2.131,10.751v1.253l0,0
	l0.005,32.843v1.609l0,0l0.004,20.229l0.004,25.908l0,0l0.006,34.451l0,0v1.095v3.342v0.708v0.002v0.011v0.004l0.004,21.834v0.001
	v1.553l0.001,10.515l0.001,7.074l0,0l0.002,15.009v0.006l0,0c0,0.643,0.027,1.283,0.07,1.92c0.013,0.186,0.035,0.371,0.052,0.557
	c0.04,0.458,0.087,0.914,0.149,1.366c0.027,0.198,0.059,0.392,0.09,0.59c0.072,0.453,0.154,0.905,0.248,1.355
	c0.035,0.168,0.071,0.334,0.108,0.501c0.117,0.512,0.248,1.019,0.393,1.521c0.027,0.094,0.051,0.189,0.08,0.282
	c0.757,2.536,1.866,4.943,3.284,7.158c0,0,0,0.001,0.001,0.001l0.001,0.001c0.976,1.527,2.098,2.961,3.355,4.282
	c0.041,0.043,0.081,0.088,0.124,0.131c0.051,0.053,0.108,0.099,0.16,0.152l0,0c0.545,0.556,1.107,1.096,1.699,1.609
	c0.105,0.09,0.212,0.177,0.319,0.268c0.655,0.55,1.328,1.083,2.037,1.577c0.653,0.453,1.32,0.891,2.017,1.294l18.794,10.846
	l17.847,10.3l9.608,5.545l0,0l5.027,2.902l76.376,44.077l16.074,9.278l9.961,5.749c8.779,5.066,19.592,5.064,28.37-0.005
	l9.895-5.714l16.074-9.285l21.433-12.379l46.298-26.741l8.636-4.988l21.969-12.688l17.841-10.305l11.512-6.65
	c0.676-0.389,1.326-0.815,1.96-1.255c0.709-0.491,1.383-1.022,2.039-1.57c0.107-0.089,0.216-0.176,0.322-0.269
	c0.65-0.559,1.272-1.145,1.864-1.758c0.039-0.04,0.076-0.081,0.115-0.122c3.104-3.243,5.396-7.175,6.683-11.473
	c0.027-0.089,0.051-0.178,0.076-0.269c0.147-0.51,0.281-1.023,0.399-1.542c0.039-0.168,0.075-0.334,0.11-0.503
	c0.094-0.451,0.177-0.904,0.251-1.361c0.031-0.198,0.064-0.394,0.092-0.593c0.063-0.454,0.11-0.911,0.151-1.371
	c0.017-0.187,0.039-0.374,0.052-0.561c0.043-0.639,0.07-1.281,0.07-1.929l0,0v-0.005L438.054,310.597z"/>
<g>
	<polygon style="fill:#ED1F34;" points="255.979,256.022 73.95,199.996 73.95,201.403 73.951,203.012 73.95,203.012 73.953,223.242 
		73.958,249.15 73.958,249.15 73.959,256.037 256.001,256.037 	"/>
	<polygon style="fill:#ED1F34;" points="256.024,256.037 255.995,256.027 256.001,256.037 	"/>
	<path style="fill:#ED1F34;" d="M73.968,312.062v0.088l0.001,10.515l0.001,7.074l0,0l0.002,15.009v0.006
		c0,0.643,0.027,1.283,0.07,1.92c0.013,0.186,0.035,0.371,0.052,0.557c0.04,0.458,0.087,0.914,0.149,1.366
		c0.027,0.198,0.059,0.393,0.09,0.588c0.072,0.454,0.154,0.907,0.248,1.355c0.035,0.169,0.071,0.335,0.108,0.503
		c0.117,0.512,0.248,1.019,0.393,1.521c0.027,0.094,0.051,0.189,0.08,0.282c0.757,2.536,1.866,4.943,3.284,7.158
		c0,0,0,0.001,0.001,0.001l0.001,0.001c0.81,1.269,1.744,2.454,2.751,3.583l174.763-107.547L73.968,312.062z"/>
	<path style="fill:#ED1F34;" d="M255.995,256.027L139.9,112.833l-0.453,0.262L115.37,127l-17.842,10.304l-9.403,5.432
		c-0.676,0.389-1.326,0.815-1.96,1.255c-1.85,1.281-3.503,2.782-4.974,4.43l174.79,107.601L255.995,256.027z"/>
	<polygon style="fill:#ED1F34;" points="256.001,256.037 255.995,256.027 255.979,256.022 	"/>
	<polygon style="fill:#ED1F34;" points="256.001,256.037 256.039,256.044 438.054,312.056 438.054,310.597 438.054,310.597 
		438.05,288.758 438.05,288.756 438.049,285.244 438.046,263.932 438.044,256.037 256.024,256.037 	"/>
	<polygon style="fill:#ED1F34;" points="256.001,256.03 256.008,256.027 372.11,112.825 369.533,111.337 256.001,50.185 	"/>
	<path style="fill:#ED1F34;" d="M437.063,159.954c-0.338-1.263-0.762-2.497-1.267-3.695c-1.206-2.862-2.886-5.503-4.952-7.833
		l-174.82,107.597l182.011-56.01l-0.006-32.767C438.03,164.75,437.69,162.304,437.063,159.954z"/>
</g>
<g>
	<path style="fill:#FFE000;" d="M256.001,366.706c-60.998,0-110.623-49.625-110.623-110.623s49.625-110.623,110.623-110.623
		s110.623,49.625,110.623,110.623S317,366.706,256.001,366.706z M256.001,163.543c-51.027,0-92.541,41.514-92.541,92.541
		s41.513,92.541,92.541,92.541s92.541-41.514,92.541-92.541S307.03,163.543,256.001,163.543z"/>
	<circle style="fill:#FFE000;" cx="256.006" cy="256.089" r="65.412"/>
</g>
<path style="fill:#FFFFFF;" d="M81.93,364.421c0.051,0.053,0.108,0.099,0.16,0.152l0,0c0.545,0.556,1.107,1.096,1.699,1.609
	c0.105,0.09,0.212,0.177,0.319,0.268c0.655,0.55,1.328,1.081,2.037,1.576c0.653,0.454,1.32,0.892,2.017,1.295l18.794,10.846
	l17.847,10.3l9.608,5.545l0,0l5.027,2.902l76.376,44.077l16.074,9.278l9.961,5.749c8.779,5.066,19.592,5.064,28.37-0.005
	l9.895-5.714l16.074-9.285l21.433-12.38l46.298-26.741l8.636-4.988l21.969-12.688l17.841-10.305l11.512-6.65
	c0.676-0.389,1.326-0.815,1.96-1.255c0.709-0.491,1.383-1.022,2.039-1.57c0.107-0.089,0.216-0.177,0.322-0.269
	c0.65-0.561,1.272-1.145,1.864-1.758c0.039-0.04,0.076-0.081,0.115-0.122c0.227-0.237,0.44-0.486,0.658-0.729L256.135,255.998
	L81.212,363.6c0.201,0.227,0.386,0.468,0.596,0.688C81.848,364.333,81.888,364.378,81.93,364.421z"/>
<path style="fill:#FF7900;" d="M256.137,307.837c-15.313,0-27.727,12.414-27.727,27.727h55.454
	C283.864,320.251,271.45,307.837,256.137,307.837z"/>
<path style="fill:#103B9B;" d="M228.41,335.564c0,15.313,12.414,27.727,27.727,27.727c15.314,0,27.727-12.414,27.727-27.727H228.41z
	"/>
<path d="M445.798,157.622c-0.44-1.647-1.002-3.287-1.671-4.875c-2.761-6.551-7.292-12.149-13.108-16.195
	c-0.963-0.67-1.808-1.21-2.661-1.703L274.672,46.151c-5.678-3.277-12.144-5.008-18.7-5.008c-6.559,0-13.03,1.734-18.711,5.015
	L83.611,134.901c-0.831,0.479-1.656,1.007-2.595,1.658c-3.549,2.458-6.63,5.502-9.157,9.046c-1.661,2.33-3.057,4.858-4.148,7.519
	c-1.864,4.542-2.809,9.315-2.808,14.188l0.03,177.442c0,0.798,0.029,1.625,0.092,2.548c0.014,0.207,0.034,0.413,0.064,0.717
	c0.053,0.608,0.117,1.213,0.199,1.802c0.031,0.233,0.069,0.465,0.119,0.785c0.096,0.6,0.204,1.198,0.328,1.787
	c0.047,0.223,0.094,0.445,0.142,0.656c0.153,0.676,0.327,1.343,0.52,2.013l0.106,0.371c0.993,3.325,2.45,6.501,4.328,9.44
	c0.02,0.031,0.041,0.064,0.061,0.094c1.274,1.982,2.743,3.849,4.345,5.532c0.045,0.047,0.151,0.16,0.195,0.207
	c0.108,0.112,0.222,0.223,0.336,0.33c0.718,0.728,1.407,1.375,2.105,1.981l0.424,0.357c0.949,0.796,1.826,1.473,2.687,2.072
	c0.963,0.67,1.808,1.21,2.661,1.703l153.688,88.699c5.677,3.277,12.143,5.008,18.7,5.008c0,0,0,0,0.001,0
	c6.559,0,13.029-1.734,18.71-5.014l153.651-88.744c0.831-0.479,1.656-1.007,2.592-1.655c0.862-0.595,1.715-1.251,2.769-2.131
	l0.35-0.294c0.862-0.743,1.689-1.524,2.45-2.31l0.156-0.165c4.077-4.26,7.125-9.492,8.806-15.108l0.107-0.377
	c0.194-0.671,0.37-1.347,0.528-2.035l0.143-0.657c0.125-0.598,0.235-1.199,0.341-1.861c0.037-0.235,0.076-0.471,0.112-0.734
	c0.081-0.594,0.145-1.191,0.207-1.901c0.022-0.207,0.041-0.416,0.055-0.641c0.061-0.905,0.09-1.734,0.09-2.54l-0.029-177.443
	C447.071,164.022,446.643,160.785,445.798,157.622z M84.439,159.989c0.565-1.378,1.285-2.685,2.142-3.887
	c1.31-1.838,2.903-3.413,4.733-4.681c0.518-0.36,0.939-0.629,1.332-0.857l153.658-88.749c5.87-3.388,13.461-3.389,19.329-0.002
	l153.684,88.696c0.401,0.231,0.839,0.515,1.377,0.887c2.999,2.087,5.34,4.982,6.769,8.372c0.348,0.826,0.638,1.672,0.863,2.516
	c0.439,1.642,0.661,3.312,0.661,4.962l0.029,177.445c0,0.442-0.02,0.884-0.055,1.368l-0.03,0.324c-0.028,0.318-0.06,0.634-0.1,0.923
	l-0.066,0.423c-0.049,0.307-0.104,0.612-0.169,0.919l-0.074,0.341c-0.081,0.354-0.172,0.705-0.271,1.046
	c-0.011,0.036-0.042,0.153-0.053,0.189c-0.09,0.304-0.221,0.594-0.327,0.893l-104.157-64.129c4.318-9.421,6.745-19.883,6.745-30.907
	c0-41.056-33.403-74.458-74.458-74.458s-74.458,33.401-74.458,74.458c0,11.063,2.444,21.561,6.791,31.008L84.139,351.184
	c-0.105-0.295-0.211-0.591-0.3-0.89c-0.01-0.036-0.052-0.186-0.061-0.223c-0.099-0.341-0.188-0.686-0.27-1.045l-0.075-0.342
	c-0.064-0.305-0.119-0.611-0.186-1.033l-0.045-0.288c-0.042-0.304-0.072-0.61-0.1-0.925l-0.037-0.371
	c-0.029-0.434-0.049-0.873-0.049-1.319l-0.03-177.44C82.985,164.803,83.474,162.341,84.439,159.989z M312.377,256.084
	c0,7.549-1.502,14.75-4.206,21.335l-47.294-29.118c-2.906-1.789-6.571-1.79-9.478-0.001l-47.523,29.233
	c-2.733-6.616-4.249-13.857-4.249-21.449c0-31.084,25.291-56.375,56.375-56.375S312.377,224.999,312.377,256.084z M265.698,450.185
	c-5.868,3.391-13.46,3.39-19.328,0.002L97.439,364.235l100.392-61.754l15.548-9.565l42.756-26.3l42.569,26.209l15.538,9.567
	l100.358,61.79L265.698,450.185z M483.459,149.505c0-3.711-0.493-7.439-1.465-11.08c-0.506-1.899-1.155-3.789-1.925-5.615
	c-3.179-7.544-8.398-13.991-15.094-18.652c-1.118-0.778-2.089-1.4-3.062-1.961L277.5,5.767C270.963,1.994,263.516,0,255.967,0
	c-7.555,0-15.005,1.996-21.549,5.776L50.044,112.265c-0.95,0.549-1.896,1.152-2.978,1.902c-4.086,2.831-7.635,6.335-10.547,10.421
	c-1.912,2.683-3.519,5.597-4.775,8.658c-2.147,5.23-3.234,10.724-3.234,16.336l0.036,212.914c0,0.921,0.034,1.876,0.105,2.919
	c0.016,0.237,0.039,0.475,0.061,0.711l0.013,0.136c0.061,0.696,0.134,1.39,0.228,2.071c0.036,0.27,0.078,0.536,0.137,0.898
	c0.11,0.688,0.234,1.373,0.38,2.075c0.053,0.254,0.107,0.508,0.163,0.745c0.177,0.78,0.377,1.553,0.603,2.333
	c0.04,0.148,0.082,0.295,0.117,0.411c1.127,3.773,2.771,7.38,4.891,10.723c0.051,0.083,0.104,0.166,0.157,0.247
	c1.47,2.286,3.164,4.441,5.013,6.383c0.052,0.057,0.184,0.198,0.239,0.252c0.113,0.117,0.229,0.23,0.351,0.345
	c0.846,0.857,1.647,1.611,2.417,2.277c0.136,0.121,0.276,0.236,0.415,0.352l0.096,0.08c1.093,0.919,2.105,1.699,3.096,2.388
	c1.096,0.763,2.096,1.403,3.064,1.963l184.411,106.428c6.539,3.773,13.985,5.768,21.534,5.768l0,0
	c7.554,0,15.005-1.998,21.547-5.776l184.372-106.488c0.945-0.546,1.891-1.15,2.986-1.907c0.991-0.687,2.004-1.466,3.156-2.43
	c0.148-0.122,0.294-0.244,0.422-0.354c0.989-0.851,1.942-1.75,2.846-2.685l0.159-0.171c4.695-4.904,8.205-10.929,10.135-17.375
	c0.046-0.151,0.088-0.301,0.13-0.457c0.223-0.775,0.427-1.553,0.605-2.336c0.058-0.253,0.112-0.508,0.166-0.767
	c0.145-0.687,0.271-1.378,0.388-2.112c0.046-0.282,0.09-0.565,0.131-0.863c0.094-0.69,0.168-1.384,0.228-2.071l0.016-0.157
	c0.023-0.227,0.045-0.454,0.061-0.709c0.071-1.043,0.105-1.999,0.105-2.929L483.459,149.505z M465.351,364.089l-0.051,0.529
	c-0.035,0.404-0.076,0.806-0.129,1.192l-0.084,0.534c-0.064,0.401-0.136,0.799-0.218,1.191l-0.096,0.447
	c-0.105,0.458-0.223,0.911-0.36,1.385l-0.058,0.21c-1.128,3.765-3.164,7.26-5.907,10.125l-0.083,0.09
	c-0.512,0.529-1.064,1.05-1.656,1.559l-0.272,0.227c-0.67,0.561-1.257,1.015-1.788,1.382c-0.671,0.465-1.22,0.817-1.731,1.113
	l-184.375,106.49c-3.796,2.192-8.119,3.351-12.502,3.351c-4.381,0-8.701-1.158-12.496-3.348L59.133,384.141
	c-0.529-0.305-1.095-0.669-1.775-1.143c-0.538-0.375-1.126-0.829-1.787-1.385l-0.292-0.243c-0.461-0.399-0.95-0.863-1.53-1.455
	c-0.07-0.071-0.142-0.141-0.215-0.211c0-0.001-0.001-0.001-0.002-0.002c-1.084-1.138-2.065-2.386-2.916-3.709
	c-0.014-0.024-0.029-0.046-0.043-0.07c-1.257-1.966-2.231-4.087-2.89-6.296l-0.074-0.262c-0.127-0.44-0.242-0.882-0.348-1.347
	l-0.092-0.426c-0.082-0.397-0.156-0.796-0.221-1.209c0-0.004-0.019-0.121-0.02-0.124l-0.06-0.387
	c-0.054-0.397-0.094-0.797-0.13-1.209l-0.047-0.475c-0.039-0.561-0.064-1.125-0.064-1.701l-0.036-212.909
	c0-3.24,0.632-6.425,1.881-9.467c0.729-1.781,1.662-3.472,2.769-5.025c1.696-2.378,3.755-4.415,6.119-6.053
	c0.668-0.463,1.216-0.815,1.725-1.109l184.377-106.49c3.796-2.193,8.12-3.351,12.505-3.351c4.381,0,8.701,1.157,12.495,3.347
	L452.87,127.856c0.523,0.301,1.089,0.667,1.779,1.145c3.881,2.7,6.908,6.445,8.757,10.832c0.448,1.062,0.825,2.157,1.116,3.252
	c0.565,2.121,0.854,4.28,0.854,6.418l0.036,212.916C465.411,362.993,465.386,363.561,465.351,364.089z"/>
<g>
</g>
<g>
</g>
<g>
</g>
<g>
</g>
<g>
</g>
<g>
</g>
<g>
</g>
<g>
</g>
<g>
</g>
<g>
</g>
<g>
</g>
<g>
</g>
<g>
</g>
<g>
</g>
<g>
</g>
</svg>
