<?xml version="1.0" encoding="iso-8859-1"?>
<!-- Generator: Adobe Illustrator 19.0.0, SVG Export Plug-In . SVG Version: 6.00 Build 0)  -->
<svg version="1.1" id="Layer_1" xmlns="http://www.w3.org/2000/svg" xmlns:xlink="http://www.w3.org/1999/xlink" x="0px" y="0px"
	 viewBox="0 0 512 512" style="enable-background:new 0 0 512 512;" xml:space="preserve">
<g>
	<path style="fill:#FFFFFF;" d="M473.103,371.85c0.176-0.61,0.336-1.227,0.479-1.848c0.046-0.201,0.088-0.403,0.13-0.604
		c0.113-0.54,0.213-1.085,0.301-1.632c0.037-0.237,0.076-0.474,0.11-0.711c0.075-0.546,0.131-1.095,0.18-1.644
		c0.02-0.225,0.047-0.448,0.063-0.674c0.052-0.767,0.084-1.537,0.084-2.313l0,0l0,0v-0.006l-0.006-40.904v-0.002l-0.004-26.203
		v-0.002v-4.213l-0.005-25.574l0,0l-0.007-48.824l-0.004-26.203l-0.007-40.985c0-2.995-0.408-5.931-1.16-8.75
		c-0.405-1.517-0.915-2.997-1.521-4.435c-2.477-5.876-6.574-11.016-11.925-14.74c-0.784-0.545-1.584-1.071-2.421-1.553
		l-22.874-13.202l-21.414-12.358l-17.239-9.949l-65.926-38.046L304.22,31.629l-19.288-11.132l-11.953-6.899
		c-10.533-6.078-23.509-6.076-34.04,0.007l-11.872,6.857l-19.288,11.14l-25.717,14.853l0,0l-65.917,38.072l-28.889,16.686
		l-21.408,12.365l-11.284,6.516c-0.811,0.469-1.59,0.98-2.353,1.507c-3.272,2.268-6.073,5.067-8.333,8.236
		c-1.517,2.127-2.781,4.422-3.773,6.841c-1.655,4.032-2.558,8.399-2.557,12.899l0.007,40.913l0.004,26.203l0.012,73.738v4.011v0.85
		v0.001v0.013l0,0v0.005l0,0l0.004,26.198v0.002v1.863l0.002,12.617l0.004,26.496v0.007l0,0c0,0.773,0.033,1.539,0.084,2.305
		c0.016,0.224,0.042,0.445,0.061,0.668c0.048,0.55,0.105,1.096,0.18,1.638c0.033,0.236,0.072,0.471,0.108,0.708
		c0.087,0.544,0.186,1.086,0.298,1.625c0.042,0.201,0.084,0.403,0.13,0.603c0.14,0.615,0.299,1.222,0.471,1.825
		c0.033,0.113,0.061,0.228,0.095,0.34c0.909,3.043,2.24,5.93,3.94,8.588c0,0.001,0.001,0.002,0.001,0.002l0.001,0.002
		c1.172,1.832,2.517,3.551,4.026,5.137c0.051,0.053,0.098,0.106,0.148,0.159c0.709,0.734,1.454,1.438,2.231,2.112
		c0.125,0.11,0.254,0.215,0.382,0.322c0.786,0.661,1.595,1.298,2.445,1.89c0.784,0.545,1.584,1.07,2.421,1.553l22.552,13.016
		l21.414,12.359l17.561,10.134l91.644,52.89l19.288,11.132l11.953,6.899c10.534,6.078,23.509,6.076,34.04-0.007l11.872-6.857
		l19.288-11.14l25.717-14.853l55.554-32.086l10.363-5.985l26.36-15.225l21.408-12.365l13.813-7.977
		c0.811-0.469,1.59-0.98,2.353-1.507c0.851-0.588,1.659-1.226,2.446-1.884c0.128-0.106,0.258-0.212,0.385-0.323
		c0.779-0.671,1.526-1.374,2.237-2.108c0.047-0.048,0.09-0.098,0.136-0.145c3.724-3.893,6.476-8.61,8.02-13.767
		C473.044,372.067,473.071,371.958,473.103,371.85z"/>
	<path style="fill:#FFFFFF;" d="M255.999,9.044c-2.941-0.004-5.883,0.374-8.748,1.131c-0.004,0.002-0.008,0.002-0.012,0.004
		c-0.665,0.176-1.325,0.377-1.982,0.594c-0.052,0.019-0.104,0.03-0.156,0.048c-0.615,0.206-1.221,0.439-1.826,0.682
		c-0.09,0.036-0.183,0.065-0.275,0.102c-0.528,0.217-1.046,0.462-1.565,0.706c-0.163,0.076-0.33,0.141-0.492,0.222
		c-0.563,0.277-1.116,0.58-1.667,0.89c-0.111,0.064-0.227,0.118-0.336,0.181l-11.872,6.857l-19.288,11.14l-25.717,14.853l0,0
		l-65.918,38.073l-28.889,16.686l-21.408,12.365l-11.284,6.516c-0.811,0.469-1.59,0.98-2.353,1.507
		c-1.636,1.133-3.155,2.4-4.546,3.781c-1.391,1.379-2.657,2.872-3.787,4.456c-0.948,1.33-1.784,2.732-2.53,4.182
		c-0.447,0.869-0.87,1.752-1.243,2.659c-0.251,0.61-0.479,1.228-0.693,1.854c-0.018,0.054-0.035,0.108-0.053,0.164
		c-0.204,0.609-0.394,1.221-0.567,1.84c0,0.001,0,0.002,0,0.002c0,0.001-0.001,0.002-0.001,0.002
		c-0.398,1.433-0.704,2.898-0.914,4.387c-0.008,0.066-0.016,0.133-0.025,0.199c-0.083,0.616-0.146,1.237-0.195,1.861
		c-0.012,0.163-0.025,0.324-0.036,0.486c-0.045,0.698-0.074,1.398-0.074,2.104l0.001,7.842l-0.001,98.58h21.504h34.72h14.965
		v-66.914l88.985,66.914h58.275v-28.59V212.18l-72.823-54.761h72.823v-16.881v-39.161V84.496h-72.819l72.822-54.76V9.044z"/>
</g>
<g>
	<polygon style="fill:#ED1F34;" points="124.901,157.419 255.999,255.999 262.321,242.824 255.999,227.409 163.144,157.419 	"/>
	<path style="fill:#ED1F34;" d="M59.054,140.538v115.461l17.309,6.193l17.411-6.193V140.538h162.226l6.322-18.922l-6.322-20.239
		H93.774v-3.929l-6.518,3.765l-21.408,12.365l-11.284,6.516c-0.811,0.469-1.59,0.98-2.353,1.507c-1.636,1.133-3.155,2.4-4.546,3.781
		c-1.391,1.379-2.657,2.872-3.787,4.456c-0.948,1.33-1.784,2.732-2.53,4.182c-0.447,0.869-0.87,1.752-1.243,2.659
		c-0.251,0.61-0.479,1.228-0.693,1.854c-0.018,0.054-0.035,0.108-0.053,0.164c-0.204,0.609-0.394,1.221-0.567,1.84
		c0,0.001,0,0.002,0,0.002H59.054z"/>
</g>
<path style="fill:#103B9B;" d="M474.443,321.512v-0.002l-0.004-26.203v-0.002v-4.213l-0.005-25.574l-0.007-48.824l-0.004-26.203
	l-0.007-40.985c0-2.995-0.408-5.931-1.16-8.75c-0.405-1.517-0.915-2.997-1.521-4.435c-2.477-5.876-6.574-11.016-11.925-14.74
	c-0.784-0.545-1.584-1.071-2.421-1.553l-22.874-13.202l-21.414-12.358l-17.239-9.949l-65.926-38.046L304.22,31.629l-19.288-11.132
	l-11.953-6.899c-7.89-4.552-17.152-5.694-25.729-3.424l0,0c2.866-0.758,5.807-1.134,8.748-1.131v20.693l-72.821,54.76h72.822v16.881
	v39.161v16.881h-72.823l72.823,54.761v15.229v28.591h-58.275l-88.985-66.914v66.914H93.774h-34.72H37.566l0.006,34.432v4.011v0.85
	v0.001v0.013l0,0v0.005l0,0l0.004,26.198v0.002v1.863l0.001,12.617l0.005,26.496v0.007l0,0c0,0.773,0.033,1.539,0.084,2.305
	c0.016,0.224,0.042,0.445,0.061,0.668c0.048,0.55,0.105,1.096,0.18,1.639c0.033,0.235,0.071,0.47,0.108,0.706
	c0.087,0.544,0.186,1.086,0.299,1.625c0.042,0.201,0.084,0.403,0.13,0.603c0.14,0.615,0.298,1.222,0.471,1.825
	c0.033,0.113,0.061,0.228,0.095,0.34c0.909,3.043,2.24,5.93,3.94,8.588c0,0.002,0,0.002,0.001,0.004l0.001,0.001
	c1.172,1.832,2.517,3.551,4.026,5.136c0.051,0.054,0.098,0.107,0.148,0.16c0.709,0.734,1.454,1.438,2.231,2.112
	c0.125,0.11,0.254,0.215,0.382,0.322c0.786,0.661,1.595,1.298,2.445,1.89c0.784,0.545,1.584,1.071,2.421,1.553l22.552,13.016
	l21.414,12.359l17.561,10.134l91.644,52.89l19.288,11.132l11.953,6.899c10.534,6.078,23.509,6.076,34.04-0.007l11.872-6.857
	l19.288-11.14l25.717-14.853l55.554-32.086l10.364-5.985l26.36-15.224l21.408-12.365l13.813-7.977
	c0.811-0.469,1.59-0.98,2.352-1.507c0.851-0.588,1.659-1.226,2.446-1.884c0.128-0.106,0.258-0.212,0.385-0.323
	c0.779-0.671,1.526-1.374,2.237-2.108c0.047-0.048,0.09-0.098,0.137-0.145c3.724-3.893,6.475-8.61,8.019-13.767
	c0.031-0.106,0.059-0.215,0.09-0.323c0.176-0.61,0.336-1.227,0.479-1.848c0.046-0.201,0.088-0.403,0.13-0.603
	c0.113-0.541,0.213-1.085,0.3-1.635c0.039-0.236,0.077-0.473,0.11-0.71c0.075-0.546,0.131-1.095,0.18-1.644
	c0.021-0.225,0.047-0.447,0.063-0.674c0.052-0.767,0.084-1.537,0.084-2.313l0,0v-0.006L474.443,321.512z"/>
<path style="fill:#259245;" d="M437.864,338.634c-4.993,0-9.041-4.047-9.041-9.041v-38.767c0-31.931-25.978-57.908-57.91-57.908
	s-57.908,25.978-57.908,57.908v38.767c0,4.994-4.048,9.041-9.041,9.041s-9.041-4.047-9.041-9.041v-38.767
	c0-41.901,34.09-75.991,75.991-75.991s75.992,34.09,75.992,75.991v38.767C446.906,334.587,442.857,338.634,437.864,338.634z"/>
<path style="fill:#FFE000;" d="M370.913,299.964c-41.901,0-75.991-34.09-75.991-75.991v-38.767c0-4.994,4.048-9.041,9.041-9.041
	c4.993,0,9.041,4.047,9.041,9.041v38.767c0,31.931,25.978,57.908,57.908,57.908s57.91-25.978,57.91-57.908v-38.767
	c0-4.994,4.048-9.041,9.041-9.041c4.993,0,9.041,4.047,9.041,9.041v38.767C446.906,265.874,412.815,299.964,370.913,299.964z"/>
<path style="fill:#3DB4EA;" d="M322.575,228.714v51.421c0,61.305,48.339,75.32,48.339,75.32s48.338-14.014,48.338-75.32v-51.421
	L322.575,228.714L322.575,228.714z"/>
<path style="fill:#259245;" d="M370.913,355.455c0,0,28.48-8.257,41.718-39.82l-41.722-72.811l-41.711,72.818
	C342.439,347.201,370.913,355.455,370.913,355.455z"/>
<path style="fill:#FFE000;" d="M329.19,324.685c-1.524,0-3.068-0.385-4.486-1.197c-4.333-2.482-5.833-8.007-3.351-12.339
	l41.711-72.819c1.611-2.812,4.604-4.547,7.844-4.547s6.234,1.734,7.846,4.546l41.722,72.812c2.483,4.333,0.983,9.859-3.35,12.34
	c-4.331,2.48-9.856,0.984-12.34-3.35l-33.876-59.119l-33.867,59.125C335.374,323.053,332.326,324.685,329.19,324.685z"/>
<path style="fill:#B3B3B3;" d="M370.914,169.732c-10.822,0-19.593,8.773-19.593,19.593v39.388h39.185v-39.388
	C390.506,178.505,381.734,169.732,370.914,169.732z"/>
<path d="M419.252,219.672h-19.704v-30.347c0-15.789-12.845-28.634-28.635-28.634c-15.789,0-28.634,12.845-28.634,28.634v30.347
	h-19.704c-4.993,0-9.041,4.047-9.041,9.041v51.421c0,34.937,14.723,55.877,27.074,67.29c13.497,12.472,27.21,16.547,27.787,16.713
	c0.822,0.239,1.67,0.358,2.517,0.358c0.848,0,1.695-0.119,2.517-0.358c0.577-0.168,14.29-4.242,27.787-16.713
	c12.352-11.413,27.075-32.353,27.075-67.29v-51.421C428.294,223.719,424.245,219.672,419.252,219.672z M360.362,189.326
	c0-5.818,4.733-10.551,10.551-10.551s10.552,4.733,10.552,10.551v30.347h-21.103V189.326z M410.211,280.135
	c0,46.234-30.092,61.982-39.282,65.713c-9.021-3.711-39.311-19.615-39.311-65.713v-42.38h19.704h39.185h19.704v42.38H410.211z
	 M256.034,512L256.034,512c-7.55,0-14.995-1.995-21.534-5.767L50.089,399.803c-0.975-0.563-1.947-1.185-3.062-1.96
	c-0.986-0.686-1.999-1.468-3.097-2.391l-0.481-0.405c-0.984-0.851-1.934-1.749-2.826-2.675c-0.047-0.049-0.169-0.178-0.215-0.228
	c-1.87-1.964-3.585-4.151-5.069-6.474c-0.013-0.019-0.025-0.037-0.036-0.057c-2.148-3.368-3.814-7.008-4.952-10.818
	c-0.031-0.106-0.075-0.256-0.115-0.405c-0.227-0.793-0.427-1.562-0.604-2.337c-0.057-0.246-0.111-0.5-0.164-0.756
	c-0.145-0.687-0.271-1.38-0.381-2.077c-0.055-0.35-0.096-0.605-0.133-0.866c-0.096-0.71-0.17-1.4-0.229-2.094l-0.013-0.127
	c-0.025-0.24-0.047-0.479-0.064-0.721c-0.071-1.036-0.105-1.989-0.105-2.917l-0.036-212.915c0-5.608,1.087-11.104,3.234-16.334
	c1.26-3.066,2.866-5.978,4.776-8.658c2.913-4.084,6.459-7.589,10.545-10.419c1.093-0.758,2.041-1.363,2.985-1.907L234.417,5.776
	C240.958,1.998,248.409,0,255.964,0c7.55,0,14.995,1.995,21.534,5.767l184.411,106.429c0.98,0.565,1.953,1.189,3.066,1.964
	c6.692,4.655,11.911,11.104,15.091,18.646c0.778,1.846,1.425,3.737,1.928,5.623c0.97,3.639,1.464,7.367,1.464,11.076l0.035,212.911
	c0.001,0.911-0.033,1.872-0.105,2.931c-0.016,0.241-0.037,0.48-0.063,0.72l-0.014,0.143c-0.06,0.685-0.134,1.377-0.227,2.063
	c-0.039,0.278-0.078,0.533-0.119,0.786l-0.02,0.123c-0.111,0.697-0.236,1.384-0.379,2.067c-0.055,0.262-0.11,0.516-0.168,0.77
	c-0.181,0.788-0.385,1.57-0.609,2.342c-0.04,0.153-0.088,0.321-0.14,0.487c-1.92,6.413-5.43,12.439-10.124,17.344l-0.153,0.163
	c-0.911,0.942-1.864,1.838-2.85,2.688l-0.475,0.398c-1.103,0.925-2.117,1.702-3.107,2.389c-1.096,0.758-2.043,1.363-2.987,1.907
	L277.582,506.224C271.039,510.002,263.589,512,256.034,512z M50.6,375.97c0.856,1.332,1.842,2.587,2.929,3.73
	c0.034,0.035,0.139,0.148,0.172,0.183c0.452,0.469,1.004,0.991,1.577,1.486l0.262,0.218c0.706,0.592,1.277,1.034,1.814,1.41
	c0.686,0.476,1.251,0.84,1.777,1.144l184.41,106.427c3.793,2.189,8.114,3.347,12.495,3.347c4.383,0,8.707-1.159,12.504-3.351
	l184.372-106.488c0.509-0.293,1.057-0.646,1.731-1.113c0.53-0.368,1.119-0.822,1.787-1.382l0.289-0.24
	c0.573-0.493,1.126-1.014,1.639-1.544l0.083-0.092c2.739-2.862,4.775-6.353,5.903-10.113l0.061-0.222
	c0.137-0.477,0.257-0.929,0.362-1.389l0.095-0.44c0.081-0.392,0.156-0.793,0.219-1.196l0.083-0.534
	c0.052-0.379,0.093-0.785,0.128-1.191l0.051-0.521c0.036-0.532,0.063-1.095,0.061-1.662l-0.035-212.93
	c0-2.137-0.287-4.296-0.854-6.421c-0.291-1.09-0.667-2.186-1.119-3.259c-1.847-4.38-4.875-8.125-8.756-10.824
	c-0.686-0.477-1.25-0.841-1.777-1.145L268.46,21.429c-3.795-2.188-8.116-3.347-12.495-3.347c-4.383,0-8.707,1.16-12.504,3.351
	L59.086,127.924c-0.509,0.293-1.057,0.646-1.731,1.113c-2.36,1.633-4.418,3.671-6.114,6.049c-1.107,1.554-2.04,3.245-2.773,5.029
	c-1.247,3.038-1.879,6.222-1.879,9.463l0.036,212.91c0,0.575,0.025,1.137,0.063,1.699l0.047,0.475
	c0.037,0.419,0.077,0.822,0.131,1.222l0.078,0.499c0.066,0.418,0.137,0.81,0.219,1.198l0.095,0.442
	c0.105,0.461,0.222,0.907,0.35,1.351l0.075,0.269c0.655,2.192,1.629,4.313,2.886,6.28C50.58,375.939,50.59,375.953,50.6,375.97z"/>
<path style="fill:#259245;" d="M398.145,207.456h-54.461c-4.993,0-9.041-4.046-9.041-9.041c0-4.994,4.048-9.041,9.041-9.041h54.461
	c4.993,0,9.041,4.047,9.041,9.041S403.138,207.456,398.145,207.456z"/>
<g>
</g>
<g>
</g>
<g>
</g>
<g>
</g>
<g>
</g>
<g>
</g>
<g>
</g>
<g>
</g>
<g>
</g>
<g>
</g>
<g>
</g>
<g>
</g>
<g>
</g>
<g>
</g>
<g>
</g>
</svg>
