<?xml version="1.0" encoding="iso-8859-1"?>
<!-- Generator: Adobe Illustrator 19.0.0, SVG Export Plug-In . SVG Version: 6.00 Build 0)  -->
<svg version="1.1" id="Layer_1" xmlns="http://www.w3.org/2000/svg" xmlns:xlink="http://www.w3.org/1999/xlink" x="0px" y="0px"
	 viewBox="0 0 512.001 512.001" style="enable-background:new 0 0 512.001 512.001;" xml:space="preserve">
<path style="fill:#FFFFFF;" d="M473.104,371.851c0.176-0.611,0.336-1.228,0.479-1.85c0.046-0.201,0.089-0.401,0.131-0.603
	c0.113-0.541,0.213-1.085,0.3-1.634c0.037-0.236,0.076-0.473,0.11-0.711c0.075-0.545,0.131-1.093,0.18-1.643
	c0.02-0.225,0.047-0.447,0.063-0.674c0.052-0.767,0.084-1.537,0.084-2.313l0,0l0,0v-0.006l-0.006-40.904v-0.001l-0.005-26.204
	v-0.002v-4.213l-0.004-25.574l0,0l-0.008-48.824l-0.005-26.204l-0.006-40.985c0-2.996-0.407-5.93-1.16-8.75
	c-0.405-1.517-0.915-2.997-1.521-4.435c-2.477-5.877-6.574-11.016-11.925-14.74c-0.784-0.545-1.584-1.071-2.419-1.554l-22.874-13.2
	l-21.414-12.358l-17.239-9.949L329.939,46.47l-25.717-14.842l-19.288-11.132l-11.953-6.898c-10.533-6.078-23.509-6.077-34.04,0.006
	l-11.872,6.857l-19.288,11.14l-25.717,14.854l0,0l-65.917,38.072l-28.89,16.686l-21.408,12.365l-11.282,6.517
	c-0.811,0.469-1.59,0.979-2.353,1.507c-3.272,2.266-6.073,5.068-8.333,8.236c-1.517,2.128-2.781,4.423-3.773,6.841
	c-1.655,4.031-2.558,8.399-2.557,12.899l0.006,40.912l0.005,26.204l0.012,73.738v4.011v0.849v0.002v0.013l0,0v0.005l0,0l0.005,26.2
	l0,0v1.864l0.002,12.617l0.004,26.497v0.006l0,0c0,0.773,0.033,1.539,0.084,2.304c0.016,0.224,0.042,0.446,0.061,0.669
	c0.048,0.55,0.105,1.096,0.18,1.638c0.033,0.236,0.072,0.471,0.108,0.706c0.087,0.546,0.186,1.087,0.298,1.626
	c0.042,0.201,0.086,0.403,0.131,0.603c0.14,0.615,0.298,1.222,0.471,1.825c0.033,0.113,0.061,0.227,0.095,0.34
	c0.909,3.042,2.24,5.93,3.94,8.589l0.001,0.001l0.001,0.002c1.172,1.832,2.517,3.551,4.025,5.137
	c0.051,0.052,0.099,0.106,0.148,0.158c0.709,0.735,1.454,1.439,2.231,2.112c0.125,0.11,0.254,0.215,0.382,0.322
	c0.786,0.661,1.595,1.3,2.445,1.89c0.784,0.545,1.584,1.07,2.419,1.554l22.552,13.015l21.414,12.359l17.561,10.135l91.644,52.89
	l19.288,11.132l11.953,6.898c10.533,6.078,23.509,6.077,34.04-0.006l11.872-6.857l19.288-11.14l25.717-14.853l55.554-32.086
	l10.363-5.985l26.36-15.224l21.408-12.365l13.813-7.978c0.811-0.469,1.59-0.979,2.353-1.507c0.851-0.59,1.659-1.226,2.446-1.883
	c0.128-0.107,0.258-0.213,0.385-0.322c0.78-0.673,1.526-1.375,2.237-2.11c0.047-0.048,0.09-0.098,0.136-0.146
	c3.724-3.891,6.476-8.609,8.02-13.765C473.045,372.067,473.073,371.958,473.104,371.851z"/>
<g>
	<polygon style="fill:#164FCE;" points="212.297,28.993 199.948,240.534 474.428,228.184 474.426,216.693 474.424,203.62 
		236.862,203.62 236.862,14.805 227.067,20.462 	"/>
	<polygon style="fill:#164FCE;" points="474.44,295.304 474.438,291.091 474.437,285.175 201.785,274.662 212.297,482.978 
		227.067,491.503 236.862,497.155 236.862,309.74 474.442,309.74 474.44,295.307 	"/>
	<polygon style="fill:#164FCE;" points="37.563,228.184 165.82,238.698 155.307,61.908 130.742,76.097 130.742,203.62 
		37.558,203.62 37.56,216.693 	"/>
	<polygon style="fill:#164FCE;" points="163.983,276.498 37.572,285.175 37.572,290.431 37.574,294.442 37.574,295.291 
		37.574,295.293 37.574,295.307 37.574,295.307 37.574,295.311 37.574,295.311 37.576,309.74 130.742,309.74 130.742,435.91 
		155.307,450.087 	"/>
</g>
<polygon style="fill:#ED1F34;" points="212.297,28.993 207.779,31.603 182.061,46.457 182.061,46.456 155.307,61.908 
	155.307,228.184 37.563,228.184 37.572,285.175 71.273,285.175 109.267,285.175 155.307,285.175 155.307,450.087 207.779,480.371 
	212.297,482.978 212.297,285.175 474.437,285.175 474.435,265.517 474.428,228.184 212.297,228.184 "/>
<path d="M483.457,149.503c0-3.711-0.494-7.438-1.466-11.08c-0.506-1.897-1.155-3.787-1.925-5.614
	c-3.179-7.543-8.398-13.991-15.096-18.652c-1.115-0.775-2.087-1.398-3.062-1.96L277.499,5.768C270.961,1.995,263.513,0,255.964,0
	c-7.555,0-15.005,1.998-21.547,5.776L50.042,112.265c-0.945,0.546-1.89,1.15-2.979,1.904c-4.086,2.831-7.633,6.336-10.546,10.419
	c-1.912,2.683-3.519,5.596-4.775,8.657c-2.147,5.231-3.234,10.726-3.234,16.334l0.035,212.916c0,0.922,0.034,1.875,0.105,2.917
	c0.017,0.235,0.039,0.469,0.061,0.703l0.014,0.143c0.06,0.694,0.134,1.385,0.231,2.096c0.034,0.24,0.071,0.477,0.108,0.716
	l0.025,0.158c0.11,0.691,0.234,1.375,0.38,2.076c0.053,0.253,0.107,0.508,0.163,0.747c0.177,0.776,0.377,1.544,0.608,2.351
	l0.112,0.392c1.143,3.826,2.82,7.485,4.986,10.873c0.017,0.025,0.033,0.051,0.049,0.076c1.474,2.295,3.173,4.458,5.041,6.422
	c0.04,0.042,0.153,0.164,0.194,0.205c0.887,0.921,1.837,1.819,2.827,2.677l0.481,0.405c1.098,0.922,2.111,1.703,3.096,2.389
	c1.114,0.775,2.087,1.398,3.064,1.963l184.411,106.428c6.539,3.773,13.985,5.768,21.534,5.768l0,0
	c7.554,0,15.005-1.998,21.547-5.776l184.372-106.49c0.949-0.548,1.895-1.152,2.979-1.904c0.995-0.688,1.979-1.444,3.097-2.378
	c0.005-0.004,0.104-0.086,0.11-0.09l0.381-0.321c0.989-0.852,1.942-1.75,2.81-2.647l0.194-0.205
	c4.695-4.906,8.205-10.93,10.152-17.432l0.112-0.397c0.224-0.773,0.427-1.554,0.608-2.345l0.168-0.769
	c0.143-0.684,0.27-1.372,0.38-2.067l0.019-0.121c0.041-0.256,0.081-0.511,0.118-0.778c0.095-0.69,0.169-1.385,0.229-2.073
	l0.014-0.145c0.024-0.239,0.047-0.479,0.063-0.72c0.071-1.044,0.105-2,0.105-2.932L483.457,149.503z M243.462,21.434
	c3.796-2.192,8.119-3.351,12.504-3.351c4.381,0,8.701,1.159,12.495,3.347l184.408,106.428c0.526,0.303,1.091,0.668,1.778,1.145
	c3.881,2.7,6.909,6.445,8.758,10.83c0.448,1.064,0.825,2.159,1.116,3.254c0.567,2.122,0.854,4.282,0.854,6.419l0.012,69.638H221.338
	V34.211L243.462,21.434z M48.472,140.11c0.731-1.781,1.662-3.471,2.77-5.025c1.696-2.378,3.755-4.415,6.116-6.051
	c0.671-0.464,1.221-0.819,1.73-1.111l87.18-50.352v141.571H46.603l-0.012-69.567C46.59,146.337,47.223,143.152,48.472,140.11z
	 M57.353,382.996c-0.54-0.375-1.109-0.817-1.783-1.383l-0.288-0.24c-0.576-0.499-1.128-1.022-1.596-1.507
	c-0.027-0.028-0.128-0.136-0.154-0.164c-1.098-1.155-2.093-2.424-2.957-3.773c-0.008-0.014-0.018-0.029-0.028-0.043
	c-1.247-1.958-2.211-4.065-2.869-6.271l-0.066-0.239c-0.127-0.445-0.245-0.891-0.351-1.357l-0.092-0.427
	c-0.083-0.395-0.156-0.793-0.217-1.185l-0.082-0.523c-0.054-0.399-0.095-0.802-0.13-1.201l-0.048-0.495
	c-0.039-0.561-0.064-1.125-0.064-1.7l-0.011-68.271h24.658c4.993,0,9.041-4.048,9.041-9.041c0-4.993-4.048-9.041-9.041-9.041H46.613
	l-0.006-38.907h108.702c4.993,0,9.041-4.048,9.041-9.041V67.128l38.907-22.472v183.528c0,4.993,4.048,9.041,9.041,9.041h253.09
	l0.006,38.907H212.297c-4.993,0-9.041,4.048-9.041,9.041v182.147l-38.907-22.455v-159.69c0-4.993-4.048-9.041-9.041-9.041h-46.04
	c-4.993,0-9.041,4.048-9.041,9.041s4.048,9.041,9.041,9.041h36.999v140.214l-87.135-50.288
	C58.605,383.839,58.041,383.475,57.353,382.996z M465.348,364.1l-0.051,0.52c-0.035,0.403-0.076,0.805-0.129,1.195l-0.082,0.53
	c-0.064,0.404-0.139,0.804-0.227,1.227l-0.089,0.411c-0.105,0.457-0.223,0.909-0.348,1.344l-0.07,0.253
	c-1.128,3.765-3.164,7.26-5.908,10.126l-0.083,0.09c-0.512,0.529-1.066,1.051-1.654,1.558l-0.269,0.224
	c-0.69,0.576-1.26,1.017-1.797,1.389c-0.668,0.463-1.216,0.815-1.728,1.109l-184.375,106.49c-3.796,2.193-8.119,3.351-12.504,3.351
	c-4.381,0-8.701-1.157-12.495-3.347l-22.201-12.812v-183.54h244.059l0.011,68.206C465.409,362.994,465.384,363.562,465.348,364.1z"
	/>
<g>
</g>
<g>
</g>
<g>
</g>
<g>
</g>
<g>
</g>
<g>
</g>
<g>
</g>
<g>
</g>
<g>
</g>
<g>
</g>
<g>
</g>
<g>
</g>
<g>
</g>
<g>
</g>
<g>
</g>
</svg>
