<?xml version="1.0" encoding="iso-8859-1"?>
<!-- Generator: Adobe Illustrator 19.0.0, SVG Export Plug-In . SVG Version: 6.00 Build 0)  -->
<svg version="1.1" id="Layer_1" xmlns="http://www.w3.org/2000/svg" xmlns:xlink="http://www.w3.org/1999/xlink" x="0px" y="0px"
	 viewBox="0 0 511.999 511.999" style="enable-background:new 0 0 511.999 511.999;" xml:space="preserve">
<g>
	<path style="fill:#FFFFFF;" d="M473.104,371.851c0.176-0.611,0.336-1.227,0.479-1.849c0.046-0.201,0.088-0.401,0.13-0.603
		c0.115-0.541,0.213-1.085,0.3-1.634c0.039-0.237,0.076-0.474,0.11-0.711c0.076-0.545,0.131-1.093,0.181-1.644
		c0.019-0.225,0.046-0.448,0.061-0.674c0.053-0.767,0.084-1.537,0.084-2.313l0,0l0,0v-0.006l-0.005-40.904v-0.001l-0.005-26.204
		v-0.002v-4.213l-0.005-25.574l0,0l-0.008-48.824l-0.004-26.204l-0.007-40.985c-0.001-2.996-0.407-5.93-1.16-8.75
		c-0.405-1.517-0.915-2.997-1.521-4.435c-2.477-5.877-6.574-11.016-11.925-14.74c-0.784-0.545-1.584-1.071-2.421-1.554l-22.872-13.2
		l-21.415-12.358l-17.24-9.949l-65.923-38.046L304.22,31.629l-19.288-11.132l-11.952-6.898c-10.534-6.078-23.51-6.077-34.04,0.006
		l-11.872,6.857l-19.288,11.14l-25.717,14.854l0,0l-65.917,38.07l-28.889,16.686l-21.408,12.365l-11.284,6.517
		c-0.811,0.469-1.59,0.979-2.353,1.507c-3.272,2.268-6.073,5.068-8.333,8.236c-1.517,2.128-2.781,4.423-3.773,6.841
		c-1.655,4.031-2.558,8.399-2.557,12.899l0.007,40.912l0.004,26.204l0.012,73.738v4.011v0.85v0.001v0.013l0,0v0.005l0,0l0.004,26.2
		v0.001v1.863l0.001,12.617l0.005,26.497v0.006l0,0c0,0.773,0.033,1.539,0.084,2.304c0.016,0.224,0.042,0.446,0.061,0.669
		c0.048,0.55,0.105,1.096,0.18,1.638c0.033,0.236,0.071,0.471,0.108,0.706c0.087,0.546,0.186,1.087,0.298,1.626
		c0.042,0.201,0.084,0.403,0.13,0.603c0.14,0.614,0.298,1.221,0.471,1.825c0.033,0.113,0.061,0.227,0.095,0.34
		c0.909,3.043,2.24,5.929,3.94,8.589c0,0,0.001,0.001,0.001,0.002l0.001,0.001c1.172,1.831,2.517,3.551,4.026,5.137
		c0.051,0.052,0.098,0.106,0.148,0.158c0.709,0.735,1.454,1.439,2.231,2.113c0.125,0.108,0.254,0.213,0.382,0.321
		c0.786,0.661,1.595,1.3,2.445,1.89c0.784,0.545,1.584,1.07,2.421,1.554l22.55,13.015l21.415,12.359l17.561,10.135l91.644,52.89
		l19.288,11.132l11.953,6.898c10.534,6.078,23.51,6.077,34.04-0.006l11.872-6.857l19.288-11.14l25.719-14.853l55.553-32.086
		l10.364-5.985l26.36-15.225l21.408-12.365l13.813-7.978c0.811-0.469,1.59-0.979,2.352-1.507c0.851-0.59,1.659-1.226,2.446-1.883
		c0.128-0.107,0.258-0.213,0.385-0.323c0.779-0.672,1.526-1.374,2.237-2.11c0.046-0.048,0.09-0.098,0.136-0.146
		c3.724-3.891,6.475-8.609,8.019-13.766C473.045,372.067,473.074,371.957,473.104,371.851z"/>
	<path style="fill:#FFFFFF;" d="M256.001,9.044c-2.941-0.004-5.883,0.375-8.748,1.132c-0.004,0.001-0.008,0.001-0.012,0.002
		c-0.665,0.176-1.325,0.377-1.982,0.596c-0.052,0.017-0.104,0.029-0.156,0.047c-0.614,0.206-1.221,0.439-1.826,0.682
		c-0.09,0.036-0.183,0.065-0.275,0.102c-0.528,0.217-1.046,0.461-1.565,0.705c-0.163,0.077-0.33,0.142-0.492,0.223
		c-0.563,0.277-1.116,0.58-1.667,0.89c-0.111,0.063-0.227,0.116-0.336,0.18l-11.872,6.857L207.781,31.6l-25.717,14.854l0,0
		l-65.918,38.073l-28.889,16.686l-21.408,12.365l-11.284,6.517c-0.811,0.469-1.59,0.979-2.353,1.507
		c-1.636,1.133-3.155,2.4-4.546,3.781c-1.391,1.379-2.656,2.872-3.787,4.456c-0.948,1.33-1.784,2.732-2.53,4.182
		c-0.447,0.869-0.87,1.753-1.243,2.659c-0.251,0.61-0.479,1.228-0.692,1.854c-0.019,0.054-0.036,0.11-0.054,0.164
		c-0.204,0.608-0.394,1.221-0.567,1.841v0.001c0,0.001-0.001,0.001-0.001,0.002c-0.398,1.433-0.704,2.899-0.914,4.387
		c-0.008,0.066-0.016,0.133-0.025,0.199c-0.083,0.616-0.146,1.237-0.195,1.861c-0.012,0.162-0.025,0.324-0.036,0.486
		c-0.045,0.698-0.074,1.398-0.074,2.104l0.001,7.842l-0.001,98.58h21.504h34.72h14.965v-66.914l88.985,66.914h58.275v-28.591
		v-15.231l-72.823-54.76h72.823v-16.88v-39.163V84.496h-72.819l72.822-54.76V9.044z"/>
</g>
<g>
	<polygon style="fill:#ED1F34;" points="124.903,157.419 256.001,255.999 256.001,227.409 163.145,157.419 	"/>
	<path style="fill:#ED1F34;" d="M59.055,140.54v115.461h34.72V140.54h162.226v-39.163H93.775v-3.929l-6.518,3.765l-21.408,12.365
		l-11.284,6.517c-0.811,0.469-1.59,0.979-2.353,1.507c-1.636,1.133-3.155,2.4-4.546,3.781c-1.391,1.379-2.656,2.872-3.787,4.456
		c-0.948,1.33-1.784,2.732-2.53,4.182c-0.447,0.869-0.87,1.753-1.243,2.659c-0.251,0.61-0.479,1.228-0.692,1.854
		c-0.019,0.054-0.036,0.11-0.054,0.164c-0.204,0.608-0.394,1.221-0.567,1.841v0.001H59.055z"/>
</g>
<path style="fill:#103B9B;" d="M474.444,321.512L474.444,321.512l-0.005-26.206v-0.002v-4.213l-0.005-25.574l-0.007-48.824
	l-0.005-26.204l-0.007-40.985c0-2.996-0.408-5.93-1.16-8.75c-0.405-1.517-0.915-2.997-1.521-4.435
	c-2.477-5.877-6.574-11.016-11.925-14.74c-0.784-0.545-1.584-1.071-2.421-1.554l-22.872-13.2l-21.415-12.358l-17.24-9.949
	l-65.923-38.046L304.22,31.629l-19.288-11.132l-11.952-6.898c-7.89-4.553-17.152-5.694-25.729-3.422l0,0
	c2.866-0.758,5.807-1.136,8.748-1.132v20.693l-72.821,54.758h72.822v16.88v39.163v16.88h-72.823l72.823,54.76v15.231v28.591h-58.275
	l-88.985-66.914v66.914H93.775h-34.72H37.568l0.006,34.432v4.011v0.85v0.001v0.013l0,0v0.005l0,0l0.004,26.2v0.001v1.863
	l0.001,12.617l0.005,26.497v0.006l0,0c0,0.773,0.033,1.539,0.084,2.304c0.016,0.224,0.042,0.446,0.061,0.669
	c0.048,0.55,0.105,1.096,0.18,1.639c0.033,0.236,0.071,0.47,0.108,0.705c0.087,0.546,0.186,1.087,0.299,1.626
	c0.042,0.201,0.084,0.403,0.13,0.603c0.14,0.614,0.298,1.221,0.471,1.825c0.033,0.113,0.061,0.227,0.095,0.34
	c0.909,3.043,2.24,5.929,3.94,8.589c0,0.001,0.001,0.001,0.001,0.002l0.001,0.001c1.172,1.831,2.517,3.551,4.026,5.136
	c0.051,0.053,0.098,0.106,0.148,0.159c0.709,0.735,1.454,1.439,2.231,2.112c0.125,0.11,0.254,0.215,0.382,0.322
	c0.786,0.661,1.595,1.3,2.445,1.89c0.784,0.545,1.584,1.071,2.421,1.554l22.552,13.015l21.414,12.359l17.561,10.135l91.644,52.89
	l19.288,11.132l11.953,6.898c10.534,6.078,23.51,6.077,34.04-0.006l11.872-6.857l19.288-11.14l25.719-14.853l55.553-32.086
	l10.364-5.985l26.36-15.225l21.406-12.365l13.814-7.978c0.811-0.469,1.59-0.979,2.352-1.507c0.851-0.59,1.659-1.226,2.446-1.883
	c0.128-0.107,0.258-0.213,0.385-0.323c0.779-0.672,1.526-1.374,2.236-2.11c0.047-0.048,0.092-0.098,0.137-0.146
	c3.724-3.891,6.475-8.609,8.019-13.766c0.031-0.106,0.06-0.216,0.09-0.323c0.176-0.611,0.336-1.227,0.479-1.849
	c0.046-0.201,0.088-0.401,0.13-0.603c0.113-0.541,0.213-1.086,0.3-1.635c0.039-0.236,0.076-0.473,0.111-0.71
	c0.075-0.545,0.13-1.093,0.18-1.644c0.021-0.225,0.046-0.447,0.061-0.674c0.053-0.767,0.084-1.537,0.084-2.313l0,0v-0.006
	L474.444,321.512z"/>
<path style="fill:#259245;" d="M304.689,190.731v88.683c0,41.762,54.784,55.691,54.784,55.691s54.784-13.93,54.784-55.691v-88.683
	H304.689z"/>
<path style="fill:#FFE000;" d="M335.368,295.735c-4.994,0-9.041-4.048-9.041-9.041v-63.091c0-4.993,4.047-9.041,9.041-9.041
	s9.041,4.048,9.041,9.041v63.091C344.41,291.686,340.363,295.735,335.368,295.735z"/>
<path style="fill:#FFFFFF;" d="M359.473,306.691c-4.994,0-9.041-4.048-9.041-9.041v-74.048c0-4.993,4.047-9.041,9.041-9.041
	s9.041,4.048,9.041,9.041v74.048C368.514,302.643,364.467,306.691,359.473,306.691z"/>
<g>
	<path style="fill:#FFE000;" d="M383.58,295.735c-4.994,0-9.041-4.048-9.041-9.041v-63.091c0-4.993,4.047-9.041,9.041-9.041
		s9.041,4.048,9.041,9.041v63.091C392.621,291.686,388.573,295.735,383.58,295.735z"/>
	<path style="fill:#FFE000;" d="M359.473,369.348c-21.232,0-42.017-7.32-58.524-20.611c-5.724-4.609-10.863-9.871-15.321-15.636
		c-1.374,3.244-4.587,5.52-8.33,5.52c-4.994,0-9.041-4.048-9.041-9.041v-34.542c0-4.597,3.449-8.463,8.016-8.984
		c4.575-0.526,8.799,2.468,9.835,6.946c7.93,34.306,38.099,58.264,73.366,58.264c35.267,0,65.437-23.958,73.367-58.263
		c1.036-4.48,5.274-7.467,9.835-6.946c4.566,0.521,8.016,4.387,8.016,8.984v34.541c0,4.993-4.047,9.041-9.041,9.041
		c-3.743,0-6.957-2.276-8.33-5.52c-4.458,5.765-9.597,11.027-15.322,15.636C401.49,362.028,380.706,369.348,359.473,369.348z"/>
</g>
<path d="M359.473,344.148c-0.749,0-1.497-0.093-2.228-0.278c-2.516-0.639-61.598-16.217-61.598-64.453v-88.683
	c0-4.993,4.047-9.041,9.041-9.041h109.57c4.994,0,9.041,4.048,9.041,9.041v88.683c0,48.238-59.084,63.814-61.6,64.453
	C360.971,344.054,360.223,344.148,359.473,344.148z M313.73,199.773v79.641c0,29.84,36.26,43.269,45.742,46.267
	c9.483-2.999,45.743-16.426,45.743-46.267v-79.641H313.73z M483.457,149.505c0-3.709-0.494-7.437-1.465-11.075
	c-0.503-1.887-1.15-3.777-1.926-5.623c-3.18-7.542-8.399-13.99-15.091-18.646c-1.114-0.775-2.086-1.398-3.066-1.964L277.499,5.768
	C270.961,1.995,263.516,0,255.966,0c-7.555,0-15.005,1.998-21.547,5.776L50.047,112.263c-0.943,0.545-1.89,1.149-2.985,1.907
	c-4.086,2.831-7.632,6.335-10.545,10.419c-1.911,2.681-3.517,5.592-4.776,8.658c-2.146,5.23-3.234,10.724-3.234,16.332
	l0.036,212.917c0,0.927,0.034,1.882,0.105,2.917c0.017,0.241,0.039,0.481,0.064,0.721l0.013,0.127
	c0.06,0.694,0.133,1.384,0.229,2.094c0.036,0.259,0.077,0.516,0.133,0.866c0.111,0.697,0.236,1.389,0.381,2.076
	c0.053,0.256,0.107,0.51,0.164,0.756c0.177,0.776,0.377,1.544,0.604,2.339c0.04,0.149,0.082,0.298,0.115,0.403
	c1.138,3.811,2.804,7.45,4.952,10.82c0.012,0.019,0.024,0.037,0.036,0.057c1.484,2.323,3.199,4.511,5.069,6.474
	c0.046,0.051,0.168,0.18,0.215,0.228c0.892,0.925,1.841,1.824,2.826,2.675l0.481,0.405c1.098,0.923,2.111,1.705,3.097,2.391
	c1.115,0.775,2.087,1.397,3.062,1.96L234.499,506.23c6.539,3.773,13.985,5.768,21.534,5.768c7.555,0,15.005-1.998,21.549-5.776
	l184.37-106.487c0.944-0.545,1.89-1.149,2.987-1.908c0.99-0.687,2.004-1.465,3.108-2.388l0.474-0.398
	c0.987-0.85,1.939-1.748,2.85-2.69l0.153-0.162c4.695-4.904,8.206-10.929,10.124-17.344c0.052-0.166,0.101-0.335,0.141-0.487
	c0.223-0.774,0.427-1.554,0.608-2.344c0.059-0.253,0.113-0.508,0.168-0.769c0.143-0.684,0.269-1.372,0.379-2.067l0.022-0.123
	c0.04-0.253,0.08-0.508,0.118-0.786c0.094-0.687,0.168-1.378,0.228-2.063l0.013-0.145c0.025-0.239,0.048-0.479,0.063-0.72
	c0.074-1.058,0.106-2.019,0.106-2.931L483.457,149.505z M465.349,364.1l-0.052,0.52c-0.035,0.406-0.076,0.813-0.127,1.192
	l-0.084,0.533c-0.064,0.404-0.136,0.804-0.219,1.197l-0.094,0.441c-0.106,0.458-0.224,0.91-0.363,1.388l-0.061,0.222
	c-1.128,3.761-3.164,7.251-5.902,10.114l-0.084,0.09c-0.514,0.532-1.067,1.052-1.638,1.545l-0.291,0.241
	c-0.669,0.561-1.256,1.014-1.785,1.382c-0.674,0.465-1.224,0.819-1.731,1.111l-184.373,106.49c-3.797,2.193-8.12,3.351-12.505,3.351
	c-4.381,0-8.703-1.157-12.495-3.347L59.131,384.143c-0.526-0.303-1.09-0.668-1.777-1.144c-0.538-0.375-1.108-0.817-1.814-1.41
	l-0.262-0.217c-0.573-0.495-1.125-1.017-1.577-1.486c-0.033-0.035-0.137-0.148-0.172-0.183c-1.086-1.142-2.073-2.397-2.929-3.73
	c-0.011-0.016-0.02-0.031-0.03-0.047c-1.257-1.965-2.231-4.087-2.886-6.28l-0.075-0.268c-0.128-0.445-0.245-0.891-0.35-1.353
	l-0.095-0.441c-0.081-0.389-0.153-0.781-0.219-1.198l-0.078-0.5c-0.054-0.4-0.094-0.803-0.131-1.221l-0.045-0.476
	c-0.037-0.561-0.063-1.125-0.063-1.7l-0.036-212.909c0-3.24,0.632-6.427,1.879-9.463c0.732-1.783,1.666-3.476,2.773-5.028
	c1.696-2.378,3.754-4.415,6.114-6.051c0.674-0.465,1.222-0.819,1.731-1.111L243.462,21.434c3.796-2.192,8.12-3.351,12.504-3.351
	c4.381,0,8.701,1.159,12.495,3.347l184.41,106.428c0.528,0.304,1.09,0.667,1.778,1.145c3.881,2.7,6.906,6.446,8.754,10.824
	c0.452,1.074,0.829,2.169,1.119,3.26c0.568,2.124,0.855,4.283,0.855,6.421l0.035,212.93
	C465.409,363.004,465.385,363.566,465.349,364.1z"/>
<g>
</g>
<g>
</g>
<g>
</g>
<g>
</g>
<g>
</g>
<g>
</g>
<g>
</g>
<g>
</g>
<g>
</g>
<g>
</g>
<g>
</g>
<g>
</g>
<g>
</g>
<g>
</g>
<g>
</g>
</svg>
