<?xml version="1.0" encoding="iso-8859-1"?>
<!-- Generator: Adobe Illustrator 19.0.0, SVG Export Plug-In . SVG Version: 6.00 Build 0)  -->
<svg version="1.1" id="Layer_1" xmlns="http://www.w3.org/2000/svg" xmlns:xlink="http://www.w3.org/1999/xlink" x="0px" y="0px"
	 viewBox="0 0 512.099 512.099" style="enable-background:new 0 0 512.099 512.099;" xml:space="preserve">
<path style="fill:#FFFFFF;" d="M473.1,371.9c0.2-0.6,0.3-1.2,0.5-1.8c0-0.2,0.1-0.4,0.1-0.6c0.1-0.5,0.2-1.1,0.3-1.6
	c0-0.2,0.1-0.5,0.1-0.7c0.1-0.5,0.1-1.1,0.2-1.6c0-0.2,0-0.4,0.1-0.7c0.1-0.8,0.1-1.5,0.1-2.3l0,0l0,0l0,0v-40.9l0,0v-26.2l0,0v-4.2
	v-25.6l0,0v-48.8v-26.2v-41c0-3-0.4-5.9-1.2-8.7c-0.4-1.5-0.9-3-1.5-4.4c-2.5-5.9-6.6-11-11.9-14.7c-0.8-0.5-1.6-1.1-2.4-1.6
	l-22.9-13.2l-21.4-12.4l-17.2-9.9l-65.9-38l-25.7-14.8l-19.3-11.1l-12-6.9c-10.5-6.1-23.5-6.1-34,0l-11.9,6.9l-19.3,11.1l-25.7,14.9
	l0,0l-65.9,38.1l-28.9,16.7l-21.4,12.4l-11.3,6.5c-0.8,0.5-1.6,1-2.4,1.5c-3.3,2.3-6.1,5.1-8.3,8.2c-1.5,2.1-2.8,4.4-3.8,6.8
	c-1.7,4-2.6,8.4-2.6,12.9v40.9v26.2v73.7v4v0.8l0,0l0,0l0,0l0,0l0,0v26.2l0,0v1.9v12.6v26.5l0,0l0,0c0,0.8,0,1.5,0.1,2.3
	c0,0.2,0,0.4,0.1,0.7c0,0.5,0.1,1.1,0.2,1.6c0,0.2,0.1,0.5,0.1,0.7c0.1,0.5,0.2,1.1,0.3,1.6c0,0.2,0.1,0.4,0.1,0.6
	c0.1,0.6,0.3,1.2,0.5,1.8c0,0.1,0.1,0.2,0.1,0.3c0.9,3,2.2,5.9,3.9,8.6l0,0l0,0c1.2,1.8,2.5,3.6,4,5.1c0.1,0.1,0.1,0.1,0.1,0.2
	c0.7,0.7,1.5,1.4,2.2,2.1c0.1,0.1,0.3,0.2,0.4,0.3c0.8,0.7,1.6,1.3,2.4,1.9c0.8,0.5,1.6,1.1,2.4,1.6l22.6,13l21.4,12.4l17.6,10.1
	l91.6,52.9l19.3,11.1l12,6.9c10.5,6.1,23.5,6.1,34,0l11.9-6.9l19.3-11.1l25.7-14.9l55.6-32.1l10.4-6l26.4-15.2l21.4-12.4l13.8-8
	c0.8-0.5,1.6-1,2.4-1.5c0.9-0.6,1.7-1.2,2.4-1.9c0.1-0.1,0.3-0.2,0.4-0.3c0.8-0.7,1.5-1.4,2.2-2.1l0.1-0.1c3.7-3.9,6.5-8.6,8-13.8
	C473,372.1,473.1,372,473.1,371.9z"/>
<path style="fill:#FFE000;" d="M304.2,31.7l-19.3-11.1l-12-6.9c-10.5-6.1-23.5-6.1-34,0L227,20.6l-19.3,11.1L182,46.6l0,0
	l-65.9,38.1l-28.9,16.7l-21.4,12.4l-11.3,6.5c-0.8,0.5-1.6,1-2.4,1.5c-3.3,2.3-6.1,5.1-8.3,8.2c-1.5,2.1-2.8,4.4-3.8,6.8
	c-1.7,4-2.6,8.4-2.6,12.9v40.9v24.2l270.2-181L304.2,31.7z"/>
<path style="fill:#164FCE;" d="M474.4,321.5v-26.2l0,0v-4.2v-25.6v-48.8v-26.2v-41c0-3-0.4-5.9-1.2-8.7c-0.4-1.5-0.9-3-1.5-4.4
	c-2.5-5.9-6.6-11-11.9-14.7c-0.4-0.3-0.7-0.5-1.1-0.7l-46.3,30.8L381,173.3L53.5,391.2c0.4,0.3,0.8,0.5,1.2,0.8l22.6,13l21.4,12.4
	l17.6,10.1l91.6,52.9l19.3,11.1l12,6.9c10.5,6.1,23.5,6.1,34,0l11.9-6.9l19.3-11.1l25.7-14.9l55.6-32.1l10.4-6l26.4-15.2l21.4-12.4
	l13.8-8c0.8-0.5,1.6-1,2.4-1.5c0.9-0.6,1.7-1.2,2.4-1.9c0.1-0.1,0.3-0.2,0.4-0.3c0.8-0.7,1.5-1.4,2.2-2.1l0.1-0.1
	c3.7-3.9,6.5-8.6,8-13.8c0-0.1,0.1-0.2,0.1-0.3c0.2-0.6,0.3-1.2,0.5-1.9c0-0.2,0.1-0.4,0.1-0.6c0.1-0.5,0.2-1.1,0.3-1.6
	c0-0.2,0.1-0.5,0.1-0.7c0.1-0.5,0.1-1.1,0.2-1.6c0-0.2,0-0.4,0.1-0.7c0.1-0.8,0.1-1.5,0.1-2.3l0,0l0,0L474.4,321.5L474.4,321.5z"/>
<path style="fill:#ED1F34;" d="M140.4,221.2c-10.8,0-19.6,8.8-19.6,19.6c0,10.8,8.8,19.6,19.6,19.6c10.8,0,19.6-8.8,19.6-19.6
	C159.9,230,151.1,221.2,140.4,221.2z"/>
<path d="M140.4,189.5c-28.3,0-51.2,23-51.2,51.2c0,28.3,23,51.2,51.2,51.2s51.2-23,51.2-51.2C191.5,212.5,168.6,189.5,140.4,189.5z
	 M140.4,273.9c-18.3,0-33.2-14.9-33.2-33.2c0-18.3,14.9-33.2,33.2-33.2s33.2,14.9,33.2,33.2C173.5,259,158.6,273.9,140.4,273.9z"/>
<path d="M483.5,149.5c0-3.7-0.5-7.4-1.5-11.1c-0.5-1.9-1.2-3.8-1.9-5.6c-3.2-7.5-8.4-14-15.1-18.7c-1.1-0.8-2.1-1.4-3.1-2L277.5,5.8
	C271,2,263.5,0,256,0c-7.6,0-15,2-21.5,5.8L50,112.3c-0.9,0.5-1.9,1.2-3,1.9c-4.1,2.8-7.6,6.3-10.5,10.4c-1.9,2.7-3.5,5.6-4.8,8.7
	c-2.1,5.2-3.2,10.7-3.2,16.3v212.9c0,0.9,0,1.9,0.1,2.9c0,0.2,0,0.5,0.1,0.7v0.1c0.1,0.7,0.1,1.4,0.2,2.1c0,0.2,0.1,0.5,0.1,0.7v0.2
	c0.1,0.7,0.2,1.4,0.4,2.1c0.1,0.3,0.1,0.5,0.2,0.7c0.2,0.8,0.4,1.5,0.6,2.4l0.1,0.4c1.1,3.8,2.8,7.5,5,10.9v0.1
	c1.5,2.3,3.2,4.5,5,6.4l0.2,0.2c0.9,0.9,1.8,1.8,2.8,2.7l0.5,0.4c1.1,0.9,2.1,1.7,3.1,2.4c1.1,0.8,2.1,1.4,3.1,2l184.4,106.4
	c6.5,3.8,14,5.8,21.5,5.8l0,0c7.6,0,15-2,21.5-5.8L462,399.7c0.9-0.5,1.9-1.2,3-1.9c1-0.7,2-1.4,3.1-2.4l0.1-0.1l0.4-0.3
	c1-0.9,1.9-1.8,2.8-2.6l0.2-0.2c4.7-4.9,8.2-10.9,10.2-17.4l0.1-0.4c0.2-0.8,0.4-1.6,0.6-2.3l0.2-0.8c0.1-0.7,0.3-1.4,0.4-2.1v-0.1
	c0-0.3,0.1-0.5,0.1-0.8c0.1-0.7,0.2-1.4,0.2-2.1v-0.1c0-0.2,0-0.5,0.1-0.7c0.1-1,0.1-2,0.1-2.9L483.5,149.5z M48.6,140.2
	c0.7-1.8,1.7-3.5,2.8-5c1.7-2.4,3.8-4.4,6.1-6.1c0.7-0.5,1.2-0.8,1.7-1.1L243.6,21.5c3.8-2.2,8.1-3.4,12.5-3.4
	c4.4,0,8.7,1.2,12.5,3.3l22.3,12.9L46.7,197.9v-48.2C46.7,146.3,47.3,143.3,48.6,140.2z M465.3,364.1l-0.1,0.5
	c0,0.4-0.1,0.8-0.1,1.2l-0.1,0.5c-0.1,0.4-0.1,0.8-0.2,1.2l-0.1,0.4c-0.1,0.5-0.2,0.9-0.3,1.3l-0.1,0.3c-1.1,3.8-3.2,7.3-5.9,10.1
	l-0.1,0.1c-0.5,0.5-1.1,1.1-1.7,1.6l-0.3,0.2c-0.7,0.6-1.3,1-1.8,1.4c-0.7,0.5-1.2,0.8-1.7,1.1L268.5,490.6
	c-3.8,2.2-8.1,3.4-12.5,3.4c-4.4,0-8.7-1.2-12.5-3.3l-173-100L386,180.8c4.2-2.8,5.3-8.4,2.5-12.5c-2.8-4.2-8.4-5.3-12.5-2.5
	L53.9,380c-0.1-0.1-0.1-0.1-0.2-0.2c0,0-0.1-0.1-0.2-0.2c-1.1-1.2-2.1-2.4-3-3.8l0,0c-1.2-2-2.2-4.1-2.9-6.3l-0.1-0.2
	c-0.1-0.4-0.2-0.9-0.4-1.4l-0.1-0.4c-0.1-0.4-0.2-0.8-0.2-1.2l-0.1-0.5c-0.1-0.4-0.1-0.8-0.1-1.2v-0.5c0-0.6-0.1-1.1-0.1-1.7v-143
	l261.8-175l133.4,77l-34.2,22.8c-4.2,2.8-5.3,8.4-2.5,12.5c1.7,2.6,4.6,4,7.5,4c1.7,0,3.5-0.5,5-1.5l40.8-27.2
	c2.2,2.2,3.9,4.9,5.2,7.8c0.4,1.1,0.8,2.2,1.1,3.3c0.6,2.1,0.9,4.3,0.9,6.4v212.9C465.4,363,465.4,363.6,465.3,364.1z"/>
<g>
</g>
<g>
</g>
<g>
</g>
<g>
</g>
<g>
</g>
<g>
</g>
<g>
</g>
<g>
</g>
<g>
</g>
<g>
</g>
<g>
</g>
<g>
</g>
<g>
</g>
<g>
</g>
<g>
</g>
</svg>
