<?xml version="1.0" encoding="iso-8859-1"?>
<!-- Generator: Adobe Illustrator 19.0.0, SVG Export Plug-In . SVG Version: 6.00 Build 0)  -->
<svg version="1.1" id="Layer_1" xmlns="http://www.w3.org/2000/svg" xmlns:xlink="http://www.w3.org/1999/xlink" x="0px" y="0px"
	 viewBox="0 0 512 512" style="enable-background:new 0 0 512 512;" xml:space="preserve">
<path style="fill:#ED1F34;" d="M473.103,371.851c0.176-0.611,0.338-1.228,0.479-1.85c0.047-0.2,0.089-0.401,0.131-0.603
	c0.113-0.54,0.213-1.085,0.3-1.634c0.037-0.236,0.076-0.473,0.11-0.711c0.076-0.545,0.131-1.092,0.18-1.643
	c0.02-0.225,0.047-0.447,0.063-0.674c0.052-0.767,0.084-1.537,0.083-2.313l0,0l0,0v-0.006l-0.006-40.904v-0.002l-0.005-26.203
	v-0.002l-0.001-4.213l-0.004-25.574l0,0l-0.008-48.824l-0.005-26.204l-0.006-40.984c-0.001-2.995-0.409-5.931-1.161-8.75
	c-0.405-1.517-0.915-2.997-1.521-4.435c-2.477-5.877-6.574-11.017-11.924-14.74c-0.784-0.545-1.584-1.071-2.421-1.553l-22.87-13.202
	l-21.414-12.358l-17.24-9.949l-65.925-38.046l-25.717-14.844l-19.288-11.132l-11.953-6.899c-10.533-6.078-23.509-6.076-34.04,0.007
	l-11.872,6.857l-19.288,11.14l-25.717,14.854v-0.001l-65.915,38.072l-28.89,16.686l-21.408,12.365l-11.282,6.517
	c-0.813,0.468-1.59,0.979-2.353,1.506c-3.272,2.268-6.072,5.068-8.331,8.235c-1.517,2.129-2.781,4.424-3.774,6.843
	c-1.654,4.031-2.557,8.399-2.557,12.899l0.007,40.912l0.005,26.204l0.012,73.738l0.001,4.011v0.85v0.001v0.013l0,0v0.005l0,0
	l0.005,26.2l0,0v1.864l0.002,12.617l0.004,26.497v0.006l0,0c0.001,0.773,0.033,1.539,0.084,2.304
	c0.016,0.224,0.042,0.446,0.063,0.669c0.048,0.548,0.105,1.096,0.178,1.638c0.033,0.236,0.072,0.471,0.11,0.706
	c0.086,0.545,0.184,1.087,0.298,1.626c0.042,0.201,0.084,0.403,0.13,0.603c0.14,0.615,0.298,1.222,0.471,1.825
	c0.033,0.113,0.061,0.227,0.095,0.34c0.909,3.042,2.239,5.93,3.941,8.589l0.001,0.001l0.001,0.002
	c1.172,1.832,2.517,3.551,4.026,5.137c0.049,0.052,0.098,0.106,0.147,0.158c0.71,0.735,1.454,1.439,2.233,2.113
	c0.125,0.11,0.254,0.215,0.382,0.322c0.785,0.661,1.594,1.298,2.444,1.89c0.784,0.545,1.584,1.07,2.421,1.553l22.552,13.015
	l21.414,12.36l17.561,10.134l91.644,52.89l19.288,11.132l11.953,6.899c10.533,6.078,23.509,6.076,34.04-0.007l11.872-6.857
	l19.288-11.14l25.717-14.853l55.554-32.086l10.363-5.985l26.36-15.225l21.408-12.365l13.813-7.978
	c0.813-0.468,1.59-0.979,2.353-1.506c0.85-0.588,1.659-1.226,2.445-1.884c0.129-0.107,0.259-0.212,0.386-0.322
	c0.779-0.673,1.526-1.375,2.236-2.11c0.046-0.048,0.09-0.098,0.136-0.146c3.725-3.891,6.475-8.609,8.019-13.765
	C473.045,372.067,473.073,371.958,473.103,371.851z"/>
<path style="fill:#333333;" d="M474.445,321.51l-0.005-26.203v-0.002v-4.213l-0.005-25.574l-0.002-9.518H105.31H69.144H37.568
	l0.005,34.432l0.001,4.011v0.849v0.002v0.013l0,0v0.005l0,0l0.005,26.198v0.001v1.864l0.002,12.617l0.004,26.496v0.007l0,0
	c0.001,0.773,0.033,1.539,0.084,2.304c0.016,0.224,0.042,0.446,0.063,0.669c0.048,0.548,0.105,1.096,0.178,1.638
	c0.033,0.236,0.072,0.471,0.11,0.706c0.086,0.545,0.184,1.087,0.298,1.626c0.042,0.201,0.084,0.403,0.13,0.603
	c0.14,0.615,0.298,1.222,0.471,1.825c0.033,0.113,0.061,0.227,0.095,0.34c0.909,3.042,2.239,5.93,3.94,8.589l0.002,0.001
	l0.001,0.002c1.172,1.832,2.517,3.551,4.026,5.137c0.049,0.052,0.098,0.106,0.147,0.158c0.71,0.735,1.454,1.441,2.233,2.113
	c0.125,0.11,0.254,0.215,0.382,0.322c0.785,0.661,1.594,1.298,2.444,1.89c0.784,0.545,1.584,1.07,2.421,1.553l22.552,13.016
	l21.414,12.359l17.561,10.134l91.644,52.89l19.288,11.132l11.953,6.899c10.533,6.078,23.509,6.076,34.04-0.007l11.872-6.857
	l19.288-11.14l25.717-14.853l55.554-32.086l10.363-5.985l26.36-15.225l21.408-12.365l13.813-7.977
	c0.813-0.469,1.59-0.98,2.353-1.507c0.851-0.588,1.659-1.226,2.445-1.884c0.129-0.107,0.259-0.212,0.386-0.322
	c0.779-0.673,1.526-1.375,2.236-2.11c0.047-0.048,0.09-0.098,0.136-0.146c3.725-3.891,6.475-8.609,8.019-13.766
	c0.033-0.106,0.06-0.215,0.09-0.322c0.176-0.611,0.338-1.228,0.479-1.85c0.047-0.2,0.089-0.401,0.131-0.603
	c0.113-0.54,0.213-1.085,0.3-1.634c0.037-0.236,0.076-0.473,0.11-0.711c0.076-0.545,0.131-1.092,0.18-1.643
	c0.02-0.225,0.046-0.447,0.063-0.674c0.052-0.767,0.083-1.537,0.083-2.313l0,0v-0.006l-0.006-40.904v-0.001H474.445z"/>
<path style="fill:#FFE000;" d="M429.996,358.241l-29.611-20.734c-0.005-0.004-0.008-0.007-0.013-0.011s-0.01-0.006-0.014-0.008
	l-55.278-38.707c1.288-1.62,2.546-3.271,3.744-4.981c15.422-22.026,21.344-48.738,16.676-75.216
	c-4.669-26.479-19.369-49.554-41.395-64.976c-11.282-7.901-23.81-13.32-37.234-16.107c-4.875-1.011-9.674,2.124-10.691,7.015
	c-1.015,4.89,2.127,9.674,7.015,10.691c11.003,2.284,21.277,6.73,30.537,13.214c18.068,12.652,30.128,31.582,33.958,53.304
	c3.83,21.722-1.028,43.635-13.68,61.705c-1.199,1.713-2.473,3.353-3.782,4.956l-97.06-67.962c-4.09-2.863-9.727-1.87-12.592,2.221
	c-11.756,16.788-7.661,40.011,9.127,51.767l58.843,41.202c-2.568,0.711-5.183,1.307-7.841,1.776
	c-21.723,3.831-43.635-1.028-61.705-13.68c-9.26-6.483-16.951-14.617-22.861-24.177c-2.626-4.246-8.199-5.561-12.445-2.935
	c-4.247,2.626-5.561,8.198-2.935,12.445c7.209,11.661,16.587,21.578,27.869,29.479c17.114,11.983,37.056,18.231,57.523,18.231
	c5.872,0,11.79-0.516,17.693-1.556c7.964-1.404,15.613-3.733,22.845-6.879l30.947,21.669c4.094,2.866,9.729,1.871,12.592-2.221
	c2.864-4.09,1.871-9.727-2.221-12.592l-23.807-16.669c2.862-2.01,5.619-4.17,8.263-6.478l50.124,35.098l-2.65,3.787
	c-2.864,4.09-1.871,9.727,2.221,12.592c1.579,1.105,3.387,1.636,5.178,1.636c2.85,0,5.655-1.344,7.414-3.856l2.651-3.785
	l22.219,15.557c1.579,1.105,3.388,1.636,5.178,1.636c2.85-0.001,5.655-1.344,7.414-3.856
	C435.081,366.743,434.088,361.105,429.996,358.241z M308.197,307.293l-68.118-47.695c-5.943-4.161-8.788-11.123-8.005-17.869
	l85.025,59.536C314.268,303.473,311.291,305.479,308.197,307.293z M237.254,173.608c7.448-10.635,22.106-13.221,32.74-5.773
	c10.635,7.446,13.22,22.104,5.773,32.74c-7.448,10.635-22.106,13.22-32.74,5.773C232.391,198.9,229.808,184.242,237.254,173.608z"/>
<path d="M296.895,265.041h46.826c2.201-5.846,3.713-11.906,4.528-18.083H271.07L296.895,265.041z"/>
<path d="M232.191,246.958c0.785,4.933,3.484,9.555,7.888,12.639l7.774,5.444h17.516l-25.826-18.083H232.191z"/>
<path d="M105.31,246.958c-4.994,0-9.041,4.047-9.041,9.041s4.047,9.041,9.041,9.041h115.105c-3.713-5.403-5.895-11.661-6.419-18.083
	H105.31z"/>
<path d="M483.456,149.505c0-3.709-0.493-7.438-1.464-11.075c-0.503-1.888-1.15-3.778-1.926-5.623
	c-3.181-7.544-8.401-13.991-15.092-18.647c-1.115-0.776-2.088-1.4-3.066-1.965L277.499,5.767C270.962,1.994,263.515,0,255.965,0
	c-7.555,0-15.005,1.996-21.549,5.776L50.048,112.263c-0.948,0.546-1.895,1.152-2.984,1.906c-4.086,2.829-7.633,6.335-10.546,10.419
	c-1.911,2.682-3.518,5.594-4.776,8.659c-2.146,5.23-3.234,10.724-3.234,16.332l0.036,212.917c0,0.928,0.034,1.882,0.105,2.919
	c0.017,0.241,0.039,0.48,0.064,0.721l0.013,0.127c0.06,0.692,0.133,1.383,0.229,2.093c0.036,0.259,0.077,0.516,0.134,0.867
	c0.11,0.697,0.235,1.389,0.381,2.084c0.054,0.254,0.108,0.508,0.163,0.745c0.177,0.779,0.377,1.547,0.604,2.339
	c0.039,0.146,0.08,0.291,0.115,0.405c1.138,3.811,2.805,7.451,4.953,10.821c0.012,0.019,0.024,0.037,0.035,0.055
	c1.484,2.323,3.199,4.51,5.069,6.474c0.046,0.051,0.168,0.178,0.215,0.228c0.901,0.933,1.853,1.834,2.809,2.661
	c0.143,0.125,0.289,0.246,0.498,0.42c1.093,0.919,2.105,1.699,3.097,2.391c1.111,0.773,2.084,1.395,3.062,1.96L234.5,506.232
	c6.539,3.773,13.985,5.768,21.534,5.768c7.555,0,15.005-1.998,21.547-5.777l184.37-106.486c0.94-0.542,1.887-1.146,2.991-1.91
	c0.99-0.687,2.001-1.466,3.177-2.447l0.405-0.339c0.986-0.851,1.937-1.749,2.881-2.723l0.119-0.127
	c4.695-4.904,8.205-10.929,10.122-17.332c0.053-0.171,0.102-0.342,0.143-0.497c0.224-0.775,0.427-1.556,0.608-2.34
	c0.058-0.253,0.112-0.508,0.168-0.773c0.143-0.684,0.27-1.374,0.398-2.177c0.041-0.259,0.082-0.518,0.122-0.802
	c0.093-0.687,0.168-1.378,0.227-2.061l0.014-0.143c0.025-0.24,0.047-0.48,0.063-0.721c0.072-1.057,0.106-2.018,0.105-2.931
	L483.456,149.505z M465.348,364.1l-0.051,0.52c-0.035,0.408-0.076,0.813-0.128,1.191l-0.064,0.407l-0.021,0.127
	c-0.064,0.404-0.137,0.804-0.218,1.191l-0.096,0.447c-0.105,0.457-0.224,0.909-0.362,1.385l-0.06,0.218
	c-1.13,3.762-3.164,7.255-5.905,10.118l-0.083,0.09c-0.515,0.532-1.068,1.054-1.635,1.543l-0.293,0.242
	c-0.671,0.561-1.259,1.015-1.784,1.382c-0.678,0.468-1.226,0.821-1.734,1.114l-184.373,106.49c-3.796,2.192-8.12,3.351-12.504,3.351
	c-4.381,0-8.701-1.159-12.495-3.348L59.131,384.141c-0.528-0.305-1.093-0.67-1.773-1.14c-0.542-0.379-1.115-0.823-1.818-1.413
	l-0.266-0.224c-0.564-0.486-1.115-1.008-1.57-1.479c-0.033-0.035-0.14-0.151-0.175-0.186c-1.098-1.154-2.093-2.423-2.956-3.771
	c-0.008-0.014-0.018-0.028-0.025-0.042c-1.247-1.955-2.212-4.064-2.862-6.24l-0.076-0.276c-0.127-0.441-0.244-0.887-0.35-1.354
	l-0.094-0.438c-0.081-0.388-0.153-0.781-0.219-1.196l-0.078-0.5c-0.054-0.4-0.094-0.804-0.131-1.225l-0.048-0.47
	c-0.037-0.561-0.063-1.125-0.063-1.7l-0.017-97.446h22.534c4.994,0,9.041-4.047,9.041-9.041s-4.047-9.041-9.041-9.041H46.607
	l-0.017-97.381c0-3.24,0.632-6.427,1.879-9.465c0.732-1.783,1.666-3.476,2.773-5.028c1.696-2.378,3.754-4.415,6.118-6.053
	c0.67-0.464,1.218-0.816,1.728-1.109l184.373-106.49c3.795-2.193,8.119-3.351,12.504-3.351c4.381,0,8.703,1.157,12.495,3.347
	l184.408,106.427c0.524,0.301,1.087,0.665,1.778,1.145c3.881,2.699,6.908,6.446,8.757,10.826c0.451,1.073,0.827,2.166,1.117,3.259
	c0.567,2.123,0.854,4.282,0.854,6.418l0.016,97.453h-98.927c-0.659,6.136-1.891,12.182-3.672,18.083h102.602l0.017,97.395
	C465.41,363.003,465.384,363.566,465.348,364.1z"/>
<g>
</g>
<g>
</g>
<g>
</g>
<g>
</g>
<g>
</g>
<g>
</g>
<g>
</g>
<g>
</g>
<g>
</g>
<g>
</g>
<g>
</g>
<g>
</g>
<g>
</g>
<g>
</g>
<g>
</g>
</svg>
