<?xml version="1.0" encoding="iso-8859-1"?>
<!-- Generator: Adobe Illustrator 19.0.0, SVG Export Plug-In . SVG Version: 6.00 Build 0)  -->
<svg version="1.1" id="Layer_1" xmlns="http://www.w3.org/2000/svg" xmlns:xlink="http://www.w3.org/1999/xlink" x="0px" y="0px"
	 viewBox="0 0 512.001 512.001" style="enable-background:new 0 0 512.001 512.001;" xml:space="preserve">
<path style="fill:#FFFFFF;" d="M474.444,321.512L474.444,321.512l-0.005-26.206v-0.002l-0.001-4.213l-0.004-25.574l-0.008-48.824
	l-0.004-26.204l-0.007-40.984c-0.001-2.995-0.407-5.931-1.16-8.75c-0.405-1.517-0.915-2.997-1.521-4.435
	c-2.477-5.877-6.574-11.017-11.925-14.74c-0.784-0.545-1.584-1.071-2.421-1.553l-22.874-13.202l-21.414-12.358l-17.24-9.949
	l-65.923-38.046L304.22,31.629l-19.288-11.132l-11.953-6.899c-10.533-6.078-23.509-6.076-34.04,0.007l-11.872,6.857l-19.288,11.14
	l-25.717,14.854v-0.001l-50.39,29.105l-15.527,8.967l-28.889,16.686l-21.408,12.365l-11.284,6.517
	c-0.811,0.468-1.59,0.979-2.353,1.506c-3.273,2.268-6.073,5.068-8.333,8.235c-1.517,2.129-2.781,4.424-3.773,6.843
	c-1.654,4.031-2.557,8.399-2.557,12.899v1.503l0,0l0.006,39.407v1.932h-0.001l0.004,24.273l0.005,31.087l0,0l0.007,41.338l0,0v1.313
	l0.001,4.011v0.849v0.002v0.013v0.005l0.004,26.2v0.001v1.863l0.001,12.617l0.001,8.488l0,0l0.004,18.009v0.006l0,0
	c0,0.773,0.031,1.539,0.084,2.304c0.016,0.225,0.042,0.445,0.061,0.669c0.048,0.548,0.105,1.096,0.18,1.638
	c0.033,0.236,0.071,0.471,0.108,0.706c0.087,0.545,0.184,1.086,0.298,1.626c0.042,0.201,0.084,0.403,0.13,0.603
	c0.14,0.615,0.298,1.222,0.471,1.826c0.033,0.112,0.061,0.227,0.095,0.339c0.909,3.042,2.24,5.93,3.94,8.588
	c0,0.001,0.001,0.002,0.001,0.002l0.001,0.002c1.172,1.832,2.517,3.551,4.025,5.137c0.051,0.052,0.099,0.106,0.148,0.158
	c0.061,0.065,0.131,0.121,0.193,0.183l0,0c0.653,0.667,1.328,1.315,2.039,1.931c0.125,0.108,0.254,0.213,0.382,0.321
	c0.786,0.661,1.595,1.298,2.445,1.89c0.784,0.545,1.584,1.07,2.421,1.553l22.552,13.015l21.414,12.36l11.528,6.653l0,0l6.032,3.482
	l91.644,52.89l19.288,11.132l11.953,6.899c10.533,6.078,23.509,6.076,34.04-0.007l11.872-6.857l19.288-11.14l25.719-14.853
	l55.553-32.086l10.363-5.985l26.36-15.225l21.408-12.365l13.813-7.978c0.813-0.468,1.59-0.979,2.353-1.506
	c0.851-0.588,1.659-1.226,2.445-1.884c0.129-0.107,0.259-0.212,0.386-0.323c0.779-0.671,1.526-1.374,2.236-2.108
	c0.047-0.047,0.09-0.096,0.136-0.146c3.725-3.891,6.475-8.609,8.019-13.765c0.033-0.107,0.06-0.216,0.092-0.323
	c0.176-0.611,0.336-1.228,0.479-1.85c0.046-0.2,0.088-0.401,0.13-0.603c0.113-0.54,0.213-1.085,0.3-1.634
	c0.037-0.236,0.076-0.473,0.11-0.711c0.076-0.544,0.131-1.092,0.18-1.643c0.021-0.225,0.047-0.447,0.063-0.674
	c0.052-0.767,0.084-1.537,0.084-2.313l0,0v-0.006L474.444,321.512z"/>
<path style="fill:#333333;" d="M232.178,138.817c49.129,0,88.954,39.826,88.954,88.954c0,24.901-10.245,47.4-26.734,63.548
	l22.612,57.941c-0.001,0.002-87.145,34.011-87.145,34.011c0.005-0.004-21.991-56.364-21.991-56.364l-39.436,0.14
	c-13.926,0-25.216-11.289-25.216-25.215v-74.061C143.224,178.644,183.05,138.817,232.178,138.817z"/>
<path style="fill:#FFFFFF;" d="M183.885,153.084l131.385,42.923c0.002,0.008-166.187,0.008-166.187,0.008
	C155.867,178.273,168.165,163.272,183.885,153.084z"/>
<path d="M256.045,231.905c5.016,7.009,7.003,15.551,5.594,24.054c-1.409,8.503-6.044,15.948-13.053,20.964
	c-5.537,3.963-12.032,6.035-18.71,6.035c-1.775,0-3.56-0.146-5.345-0.441c-4.926-0.817-8.258-5.473-7.44-10.399
	c0.816-4.927,5.479-8.251,10.398-7.442c3.737,0.621,7.491-0.253,10.574-2.458c3.081-2.205,5.119-5.477,5.738-9.215
	c0.581-3.512-0.153-7.038-2.072-10.006c-1.509,2.753-4.413,4.644-7.778,4.702c-0.053,0.001-0.107,0.001-0.16,0.001
	c-4.921,0-8.951-3.944-9.038-8.885l-0.189-10.887c-0.047-2.683,1.102-5.249,3.133-7.002c2.033-1.754,4.735-2.514,7.385-2.076
	C243.583,220.261,251.027,224.897,256.045,231.905z M373.463,196.016c11.016,8.265,18.158,21.429,18.158,36.231v62.856
	c0,4.994-4.047,9.041-9.041,9.041s-9.041-4.047-9.041-9.041v-62.856c0-13.093-9.303-24.055-21.646-26.621
	c5.453,7.477,8.674,16.68,8.674,26.622v107.971h12.973v-12.622c0-4.994,4.047-9.041,9.041-9.041s9.041,4.047,9.041,9.041v21.663
	c0,4.994-4.047,9.041-9.041,9.041h-31.055c-4.994,0-9.041-4.047-9.041-9.041V232.247c0-10.312-5.771-19.3-14.252-23.908
	c1.271,6.283,1.942,12.781,1.942,19.432c0,24.524-8.922,47.607-25.251,65.644l20.512,52.558c1.306,3.343,0.509,7.143-2.029,9.68
	c-1.342,1.341-1.342,1.341-16.724,7.344l-73.528,28.696c-1.079,0.422-2.19,0.622-3.285,0.622c-3.547,0-6.905-2.1-8.348-5.567
	c-0.039-0.092-0.076-0.184-0.11-0.276c-0.524-1.355-12.049-30.888-19.702-50.5l-33.236,0.118c-18.922,0-34.289-15.368-34.289-34.257
	v-5.644c-3.187-1.397-5.416-4.576-5.416-8.28s2.229-6.882,5.416-8.28v-16.803c-1.429,0.884-3.081,1.365-4.77,1.365
	c-1.369,0-2.758-0.312-4.064-0.97c-4.458-2.248-6.251-7.686-4.002-12.144l12.893-25.57c0.162-7.034,1.062-13.888,2.638-20.484
	c-4.667-0.357-8.345-4.247-8.345-9.006c0-4.994,4.048-9.041,9.041-9.041h5.539c5.404-11.751,13.058-22.256,22.42-30.959
	c-2.903-2.28-4.23-6.202-3.017-9.914c1.552-4.746,6.657-7.337,11.402-5.787l8.839,2.888c14.52-8.518,31.404-13.428,49.421-13.428
	c39.247,0,73.159,23.2,88.793,56.598c12.276-2.62,21.513-13.544,21.513-26.59v-31.055c0-4.994,4.047-9.041,9.041-9.041h31.055
	c4.994,0,9.041,4.047,9.041,9.041v31.055C391.62,174.586,384.479,187.75,373.463,196.016z M208.234,151.527l88.216,28.822
	c-14.569-19.693-37.951-32.49-64.272-32.49C223.839,147.858,215.796,149.147,208.234,151.527z M163.499,186.975h95.007
	l-73.155-23.899C176.547,169.465,169.09,177.598,163.499,186.975z M312.09,227.77c0-7.89-1.167-15.508-3.307-22.713H155.573
	c-1.31,4.412-2.251,8.98-2.782,13.673h21.488c3.103,0,5.99,1.591,7.647,4.216c1.656,2.626,1.85,5.915,0.515,8.716l-3.227,6.769
	c-1.55,3.251-4.791,5.152-8.167,5.152c-1.304,0-2.629-0.283-3.884-0.882c-2.507-1.195-4.212-3.395-4.861-5.889h-10.035v42.815
	c3.187,1.397,5.416,4.576,5.416,8.28c0,3.703-2.229,6.882-5.416,8.28v5.644c0,8.918,7.256,16.174,16.174,16.174l39.405-0.14
	c0.011,0,0.022,0,0.033,0c3.724,0,7.068,2.284,8.423,5.754l18.706,47.94c16.663-6.504,53.648-20.936,70.297-27.435l-19.326-49.518
	c-1.319-3.375-0.493-7.211,2.096-9.747C303.561,269.692,312.09,249.417,312.09,227.77z M373.537,137.77h-12.973v22.014
	c0,9.942-3.221,19.146-8.675,26.623c12.345-2.567,21.648-13.53,21.648-26.623V137.77z M277.582,506.223l184.37-106.486
	c0.933-0.538,1.879-1.142,2.979-1.901c0.99-0.685,1.976-1.442,3.184-2.452c0.148-0.122,0.295-0.245,0.404-0.339
	c0.986-0.85,1.94-1.748,2.805-2.642l0.2-0.211c4.697-4.906,8.207-10.932,10.148-17.415l0.118-0.413
	c0.224-0.774,0.427-1.554,0.609-2.351c0.057-0.251,0.111-0.501,0.165-0.762c0.143-0.682,0.27-1.372,0.381-2.072l0.02-0.129
	c0.04-0.253,0.08-0.505,0.116-0.757c0.095-0.693,0.169-1.391,0.229-2.082l0.014-0.146c0.025-0.239,0.047-0.477,0.063-0.719
	c0.072-1.049,0.106-2.005,0.106-2.931l-0.035-212.914c-0.001-3.713-0.494-7.44-1.466-11.079c-0.508-1.9-1.155-3.789-1.925-5.613
	c-3.18-7.542-8.398-13.99-15.094-18.652c-1.111-0.773-2.084-1.395-3.062-1.96L277.498,5.767C270.96,1.994,263.514,0,255.965,0
	c-7.555,0-15.006,1.998-21.549,5.777L50.042,112.265c-0.935,0.54-1.879,1.143-2.98,1.904c-4.088,2.833-7.636,6.339-10.543,10.419
	c-1.913,2.682-3.52,5.596-4.776,8.658c-2.147,5.232-3.234,10.727-3.234,16.336l0.036,212.914c0,0.921,0.034,1.876,0.105,2.915
	c0.017,0.242,0.039,0.481,0.063,0.721l0.013,0.128c0.061,0.698,0.134,1.391,0.228,2.073c0.036,0.27,0.078,0.536,0.137,0.898
	c0.11,0.688,0.234,1.373,0.38,2.075c0.053,0.254,0.107,0.508,0.163,0.745c0.177,0.78,0.377,1.553,0.6,2.324
	c0.043,0.159,0.088,0.319,0.119,0.418c1.126,3.773,2.77,7.38,4.891,10.724c0.051,0.083,0.102,0.166,0.157,0.247
	c1.47,2.286,3.163,4.441,5.003,6.374l0.157,0.168c0.029,0.03,0.058,0.061,0.087,0.092c0.119,0.123,0.241,0.241,0.368,0.359
	c0.843,0.852,1.638,1.602,2.406,2.265c0.136,0.121,0.276,0.236,0.415,0.352l0.096,0.08c1.093,0.919,2.105,1.699,3.096,2.388
	c1.096,0.763,2.096,1.403,3.064,1.963l184.411,106.429c6.538,3.772,13.984,5.766,21.533,5.767c0,0,0,0,0.001,0
	C263.589,512,271.041,510.002,277.582,506.223z M53.53,379.701c-1.084-1.138-2.065-2.386-2.916-3.709
	c-0.014-0.024-0.029-0.046-0.043-0.07c-1.259-1.966-2.231-4.087-2.888-6.292l-0.075-0.266c-0.127-0.44-0.242-0.882-0.348-1.347
	l-0.092-0.426c-0.082-0.397-0.156-0.796-0.221-1.209c0-0.004-0.019-0.121-0.02-0.124l-0.06-0.387
	c-0.054-0.395-0.094-0.794-0.131-1.214l-0.046-0.47c-0.039-0.561-0.064-1.125-0.064-1.701l-0.036-212.909
	c0-3.24,0.632-6.424,1.881-9.467c0.729-1.781,1.661-3.471,2.77-5.025c1.694-2.377,3.753-4.413,6.111-6.048
	c0.681-0.471,1.232-0.826,1.732-1.114l184.378-106.49c3.796-2.192,8.119-3.351,12.504-3.351c4.381,0,8.701,1.157,12.494,3.347
	l184.41,106.428c0.528,0.305,1.093,0.67,1.777,1.144c3.882,2.7,6.909,6.446,8.759,10.832c0.447,1.061,0.823,2.155,1.116,3.252
	c0.565,2.119,0.852,4.28,0.854,6.418l0.035,212.916c0,0.571-0.025,1.138-0.063,1.677l-0.051,0.52
	c-0.034,0.4-0.075,0.799-0.129,1.198l-0.082,0.528c-0.064,0.403-0.136,0.804-0.218,1.192l-0.096,0.445
	c-0.105,0.457-0.223,0.91-0.334,1.298l-0.083,0.299c-1.128,3.764-3.164,7.26-5.83,10.044l-0.163,0.172
	c-0.515,0.532-1.067,1.052-1.668,1.571l-0.254,0.211c-0.693,0.58-1.263,1.021-1.79,1.385c-0.682,0.473-1.232,0.826-1.734,1.114
	l-184.373,106.49c-3.796,2.192-8.119,3.351-12.502,3.351c0,0,0,0-0.001,0c-4.381,0-8.703-1.157-12.495-3.347L59.13,384.141
	c-0.529-0.305-1.095-0.669-1.775-1.143c-0.538-0.375-1.126-0.829-1.787-1.385l-0.292-0.243c-0.461-0.399-0.95-0.863-1.53-1.455
	c-0.07-0.071-0.141-0.14-0.215-0.21C53.533,379.704,53.532,379.703,53.53,379.701z"/>
<g>
</g>
<g>
</g>
<g>
</g>
<g>
</g>
<g>
</g>
<g>
</g>
<g>
</g>
<g>
</g>
<g>
</g>
<g>
</g>
<g>
</g>
<g>
</g>
<g>
</g>
<g>
</g>
<g>
</g>
</svg>
