<?xml version="1.0" encoding="iso-8859-1"?>
<!-- Generator: Adobe Illustrator 19.0.0, SVG Export Plug-In . SVG Version: 6.00 Build 0)  -->
<svg version="1.1" id="Layer_1" xmlns="http://www.w3.org/2000/svg" xmlns:xlink="http://www.w3.org/1999/xlink" x="0px" y="0px"
	 viewBox="0 0 512.001 512.001" style="enable-background:new 0 0 512.001 512.001;" xml:space="preserve">
<path style="fill:#3DB4EA;" d="M473.105,371.852c0.176-0.611,0.338-1.227,0.479-1.849c0.047-0.201,0.089-0.401,0.131-0.603
	c0.113-0.541,0.213-1.085,0.3-1.633c0.037-0.236,0.076-0.473,0.11-0.711c0.076-0.545,0.131-1.093,0.18-1.643
	c0.02-0.225,0.047-0.448,0.063-0.674c0.052-0.767,0.084-1.538,0.083-2.313l0,0l0,0v-0.006l-0.004-40.906v-0.001l-0.005-26.204
	v-0.002l-0.001-4.213l-0.004-25.574l0,0l-0.008-48.824l-0.005-26.204l-0.006-40.984c-0.001-2.996-0.409-5.931-1.161-8.75
	c-0.405-1.517-0.915-2.997-1.521-4.435c-2.477-5.877-6.574-11.016-11.924-14.739c-0.784-0.546-1.584-1.071-2.421-1.554
	l-22.874-13.202l-21.414-12.358l-17.24-9.949l-65.926-38.048L304.22,31.629l-19.288-11.132l-11.953-6.899
	c-10.533-6.078-23.509-6.077-34.04,0.006l-11.872,6.857l-19.288,11.14L182.06,46.456l0,0l-65.913,38.072l-28.89,16.686
	l-21.408,12.365l-11.282,6.517c-0.813,0.469-1.59,0.979-2.353,1.507c-3.272,2.266-6.072,5.068-8.331,8.235
	c-1.517,2.128-2.781,4.423-3.774,6.841c-1.654,4.031-2.557,8.399-2.557,12.899l0.007,40.912l0.005,26.204l0.012,73.738l0.001,4.011
	v0.85v0.001v0.013l0,0v0.004l0,0l0.005,26.2l0,0v1.863l0.002,12.617l0.004,26.497v0.006l0,0c0.001,0.773,0.033,1.539,0.084,2.304
	c0.016,0.224,0.042,0.446,0.061,0.669c0.049,0.548,0.106,1.096,0.18,1.638c0.033,0.236,0.072,0.471,0.11,0.706
	c0.086,0.545,0.184,1.087,0.297,1.626c0.043,0.201,0.086,0.403,0.131,0.603c0.14,0.614,0.298,1.222,0.471,1.825
	c0.033,0.113,0.061,0.227,0.095,0.34c0.909,3.042,2.239,5.929,3.941,8.589v0.001c0.001,0.001,0.002,0.001,0.002,0.002
	c1.172,1.832,2.517,3.551,4.026,5.137c0.049,0.052,0.098,0.106,0.147,0.158c0.71,0.735,1.454,1.441,2.233,2.113
	c0.125,0.108,0.256,0.213,0.382,0.322c0.786,0.659,1.594,1.298,2.444,1.89c0.784,0.546,1.584,1.07,2.421,1.554l22.552,13.015
	l21.414,12.359l17.561,10.135l91.644,52.89l19.288,11.132l11.953,6.899c10.533,6.078,23.509,6.076,34.04-0.006l11.872-6.857
	l19.288-11.141l25.717-14.853l55.554-32.086l10.363-5.984l26.36-15.225l21.408-12.365l13.813-7.977
	c0.813-0.469,1.59-0.979,2.352-1.507c0.851-0.588,1.66-1.225,2.446-1.883c0.129-0.107,0.259-0.212,0.386-0.322
	c0.779-0.672,1.526-1.374,2.236-2.11c0.046-0.048,0.09-0.098,0.136-0.146c3.725-3.891,6.475-8.609,8.019-13.765
	C473.047,372.067,473.075,371.958,473.105,371.852z"/>
<polygon style="fill:#ED1F34;" points="474.447,325.306 474.442,298.345 474.442,298.343 474.442,294.008 474.437,267.696 
	474.429,217.464 474.424,190.503 474.424,190.004 37.557,190.004 37.557,190.503 37.562,217.464 37.574,293.329 37.575,297.457 
	37.575,298.329 37.575,298.332 37.575,298.345 37.575,298.345 37.575,298.35 37.575,298.35 37.58,325.306 37.58,325.307 
	37.58,327.224 37.581,331.123 382.099,331.123 423.248,331.123 474.447,331.123 474.447,325.307 "/>
<path style="fill:#259245;" d="M382.099,327.166H37.581l0.001,8.827l0.004,26.496v0.006l0,0c0.001,0.773,0.033,1.539,0.084,2.304
	c0.016,0.224,0.042,0.446,0.061,0.669c0.049,0.548,0.106,1.096,0.18,1.638c0.033,0.236,0.072,0.471,0.11,0.706
	c0.086,0.545,0.184,1.087,0.297,1.626c0.042,0.201,0.086,0.403,0.131,0.603c0.14,0.614,0.298,1.222,0.471,1.825
	c0.033,0.113,0.061,0.227,0.095,0.341c0.909,3.042,2.239,5.929,3.94,8.588c0.001,0.001,0.001,0.001,0.001,0.001
	c0.001,0.001,0.002,0.001,0.002,0.002c1.172,1.831,2.517,3.551,4.026,5.136c0.049,0.052,0.098,0.106,0.147,0.158
	c0.71,0.735,1.454,1.441,2.233,2.113c0.125,0.108,0.256,0.213,0.382,0.322c0.786,0.661,1.594,1.298,2.444,1.89
	c0.784,0.545,1.584,1.07,2.421,1.553l22.552,13.015l21.414,12.359l17.561,10.135l91.644,52.89l19.288,11.132l11.953,6.898
	c10.533,6.079,23.509,6.077,34.04-0.006l11.872-6.857l19.288-11.14l25.717-14.853l55.554-32.086l10.363-5.985l26.36-15.225
	l21.408-12.365l13.813-7.978c0.813-0.469,1.59-0.979,2.352-1.506c0.852-0.59,1.66-1.226,2.446-1.884
	c0.129-0.107,0.259-0.212,0.386-0.322c0.779-0.671,1.526-1.374,2.236-2.11c0.047-0.048,0.09-0.098,0.136-0.146
	c3.725-3.891,6.475-8.609,8.019-13.766c0.033-0.106,0.06-0.215,0.09-0.322c0.176-0.611,0.338-1.227,0.479-1.85
	c0.047-0.2,0.089-0.401,0.131-0.603c0.113-0.541,0.213-1.085,0.3-1.634c0.037-0.236,0.076-0.474,0.11-0.711
	c0.076-0.545,0.131-1.093,0.18-1.644c0.021-0.224,0.046-0.447,0.063-0.673c0.052-0.767,0.083-1.538,0.083-2.313l0,0v-0.006
	l-0.006-35.252h-51.199h-41.146V327.166z"/>
<g>
	<path style="fill:#FFFFFF;" d="M241.376,300.419c-23.066,0-41.833-18.766-41.833-41.834c0-23.068,18.766-41.834,41.833-41.834
		c8.909,0,17.411,2.765,24.597,7.996c4.593,3.344,5.603,9.779,2.259,14.372c-3.343,4.592-9.777,5.603-14.371,2.26
		c-3.642-2.653-7.96-4.055-12.486-4.055c-11.724,0-21.259,9.537-21.259,21.261c0,11.724,9.536,21.261,21.259,21.261
		c4.527,0,8.844-1.403,12.487-4.055c4.592-3.344,11.026-2.334,14.371,2.259c3.344,4.593,2.334,11.027-2.259,14.372
		C258.791,297.653,250.283,300.419,241.376,300.419z"/>
	<circle style="fill:#FFFFFF;" cx="288.362" cy="258.585" r="11.753"/>
</g>
<path d="M483.458,149.505c0-3.709-0.493-7.438-1.463-11.074c-0.503-1.889-1.15-3.779-1.926-5.624
	c-3.181-7.543-8.401-13.991-15.092-18.647c-1.115-0.776-2.088-1.401-3.066-1.964L277.501,5.767C270.963,1.994,263.516,0,255.966,0
	c-7.555,0-15.005,1.998-21.549,5.776L50.048,112.263c-0.948,0.547-1.895,1.152-2.984,1.906c-4.086,2.831-7.633,6.335-10.546,10.419
	c-1.911,2.681-3.518,5.594-4.776,8.658c-2.146,5.23-3.234,10.724-3.234,16.334l0.036,212.917c0,0.927,0.034,1.882,0.105,2.919
	c0.017,0.24,0.039,0.479,0.064,0.717l0.013,0.129c0.06,0.693,0.133,1.383,0.229,2.094c0.036,0.259,0.077,0.516,0.134,0.867
	c0.11,0.696,0.235,1.388,0.381,2.083c0.054,0.254,0.108,0.509,0.163,0.749c0.177,0.776,0.377,1.545,0.604,2.337
	c0.039,0.146,0.08,0.291,0.115,0.405c1.144,3.829,2.822,7.486,4.986,10.873c0.02,0.03,0.04,0.06,0.059,0.09
	c1.473,2.29,3.168,4.447,4.998,6.369c0.049,0.054,0.178,0.193,0.229,0.246c0.897,0.929,1.847,1.829,2.828,2.677l0.479,0.403
	c1.093,0.919,2.105,1.699,3.097,2.391c1.111,0.773,2.084,1.395,3.062,1.959l184.411,106.428c6.539,3.773,13.985,5.768,21.534,5.768
	c7.555,0,15.005-1.998,21.548-5.776l184.37-106.487c0.94-0.543,1.887-1.146,2.991-1.91c0.99-0.687,2.001-1.465,3.179-2.45
	l0.399-0.335c0.986-0.85,1.938-1.748,2.885-2.724l0.119-0.128c4.695-4.904,8.205-10.929,10.125-17.345
	c0.052-0.166,0.099-0.334,0.139-0.483c0.224-0.774,0.427-1.555,0.608-2.339c0.058-0.253,0.112-0.508,0.169-0.774
	c0.142-0.684,0.269-1.372,0.397-2.175c0.041-0.259,0.082-0.518,0.122-0.802c0.093-0.687,0.168-1.378,0.227-2.06l0.014-0.143
	c0.024-0.24,0.047-0.48,0.063-0.722c0.072-1.058,0.106-2.019,0.105-2.931L483.458,149.505z M48.47,140.113
	c0.732-1.783,1.666-3.474,2.773-5.027c1.696-2.378,3.754-4.415,6.118-6.053c0.67-0.464,1.218-0.815,1.728-1.109l184.374-106.49
	c3.795-2.192,8.119-3.351,12.504-3.351c4.381,0,8.703,1.157,12.495,3.347L452.87,127.857c0.524,0.303,1.087,0.667,1.778,1.146
	c3.881,2.699,6.908,6.445,8.757,10.824c0.451,1.073,0.827,2.166,1.117,3.259c0.567,2.123,0.854,4.282,0.854,6.419l0.006,31.456
	H46.596l-0.005-31.385C46.591,146.337,47.224,143.151,48.47,140.113z M465.35,364.1l-0.051,0.52
	c-0.035,0.407-0.076,0.813-0.128,1.192l-0.064,0.408c0,0.004-0.021,0.124-0.021,0.128c-0.064,0.404-0.137,0.804-0.218,1.19
	l-0.096,0.448c-0.105,0.456-0.224,0.908-0.363,1.388l-0.06,0.221c-1.13,3.76-3.164,7.251-5.903,10.113l-0.083,0.092
	c-0.515,0.532-1.068,1.052-1.638,1.546l-0.289,0.24c-0.672,0.561-1.259,1.015-1.784,1.38c-0.678,0.468-1.226,0.821-1.734,1.114
	l-184.374,106.49c-3.796,2.193-8.12,3.351-12.504,3.351c-4.381,0-8.701-1.157-12.495-3.348L59.132,384.142
	c-0.528-0.305-1.093-0.669-1.773-1.142c-0.542-0.379-1.115-0.822-1.799-1.397l-0.282-0.236c-0.568-0.491-1.12-1.013-1.57-1.478
	c-0.035-0.04-0.139-0.151-0.176-0.19c-1.087-1.142-2.074-2.397-2.931-3.731c-0.01-0.014-0.019-0.03-0.028-0.045
	c-1.259-1.966-2.233-4.088-2.886-6.277l-0.076-0.275c-0.127-0.444-0.244-0.89-0.35-1.355l-0.094-0.436
	c-0.081-0.391-0.153-0.782-0.219-1.198l-0.078-0.499c-0.054-0.401-0.094-0.804-0.131-1.222l-0.047-0.475
	c-0.037-0.561-0.063-1.125-0.063-1.7l-0.005-26.282H382.1c4.995,0,9.041-4.048,9.041-9.041c0-4.993-4.047-9.041-9.041-9.041H46.62
	l-0.02-119.078h418.784l0.02,119.078h-42.156c-4.994,0-9.041,4.048-9.041,9.041c0,4.993,4.047,9.041,9.041,9.041h42.158
	l0.005,26.231C465.411,363.003,465.386,363.566,465.35,364.1z"/>
<g>
</g>
<g>
</g>
<g>
</g>
<g>
</g>
<g>
</g>
<g>
</g>
<g>
</g>
<g>
</g>
<g>
</g>
<g>
</g>
<g>
</g>
<g>
</g>
<g>
</g>
<g>
</g>
<g>
</g>
</svg>
