<?xml version="1.0" encoding="iso-8859-1"?>
<!-- Generator: Adobe Illustrator 19.0.0, SVG Export Plug-In . SVG Version: 6.00 Build 0)  -->
<svg version="1.1" id="Layer_1" xmlns="http://www.w3.org/2000/svg" xmlns:xlink="http://www.w3.org/1999/xlink" x="0px" y="0px"
	 viewBox="0 0 512.001 512.001" style="enable-background:new 0 0 512.001 512.001;" xml:space="preserve">
<path style="fill:#FFFFFF;" d="M473.105,371.851c0.176-0.611,0.336-1.228,0.479-1.85c0.046-0.2,0.089-0.401,0.131-0.603
	c0.113-0.54,0.213-1.085,0.3-1.634c0.037-0.236,0.076-0.473,0.11-0.711c0.075-0.545,0.131-1.092,0.18-1.643
	c0.02-0.225,0.047-0.447,0.063-0.674c0.052-0.767,0.084-1.537,0.084-2.313l0,0l0,0v-0.006l-0.006-40.904v-0.002l-0.005-26.203
	v-0.002v-4.213l-0.004-25.574l0,0l-0.008-48.824l-0.005-26.204l-0.006-40.984c0-2.995-0.407-5.931-1.16-8.75
	c-0.405-1.518-0.915-2.997-1.521-4.435c-2.477-5.877-6.574-11.017-11.925-14.74c-0.784-0.545-1.584-1.071-2.419-1.553
	l-22.874-13.202l-21.414-12.358l-17.239-9.949L329.94,46.473l-25.717-14.844l-19.288-11.132l-11.953-6.899
	c-10.533-6.078-23.509-6.076-34.04,0.007l-11.872,6.857l-19.288,11.14l-25.717,14.854v-0.001l-65.918,38.072l-28.889,16.686
	L65.85,113.578l-11.284,6.517c-0.811,0.468-1.59,0.979-2.353,1.506c-3.272,2.266-6.073,5.068-8.333,8.235
	c-1.517,2.129-2.781,4.424-3.773,6.843c-1.655,4.031-2.558,8.399-2.557,12.899l0.006,40.912l0.005,26.204l0.012,73.738v4.011v0.849
	v0.002v0.013l0,0v0.005l0,0l0.005,26.2l0,0v1.864l0.002,12.617l0.004,26.497v0.006l0,0c0,0.773,0.033,1.539,0.084,2.304
	c0.016,0.224,0.042,0.446,0.061,0.669c0.048,0.548,0.105,1.096,0.18,1.638c0.033,0.236,0.072,0.471,0.108,0.706
	c0.087,0.545,0.186,1.087,0.298,1.626c0.042,0.201,0.086,0.403,0.131,0.603c0.14,0.615,0.298,1.222,0.471,1.825
	c0.033,0.113,0.061,0.227,0.095,0.34c0.909,3.042,2.24,5.93,3.94,8.589l0.001,0.001l0.001,0.002
	c1.172,1.832,2.517,3.551,4.025,5.137c0.051,0.052,0.099,0.106,0.148,0.158c0.709,0.735,1.454,1.439,2.231,2.113
	c0.125,0.11,0.254,0.215,0.382,0.322c0.786,0.661,1.595,1.298,2.445,1.89c0.784,0.545,1.584,1.07,2.419,1.553l22.552,13.015
	l21.414,12.36l17.561,10.134l91.644,52.89l19.288,11.132l11.953,6.899c10.533,6.078,23.509,6.076,34.04-0.007l11.872-6.857
	l19.288-11.14l25.717-14.853l55.554-32.086l10.363-5.985l26.36-15.225l21.408-12.365l13.813-7.978
	c0.811-0.468,1.59-0.979,2.353-1.506c0.851-0.588,1.659-1.226,2.446-1.884c0.128-0.107,0.258-0.212,0.385-0.322
	c0.78-0.673,1.526-1.375,2.237-2.11c0.047-0.048,0.09-0.098,0.136-0.146c3.724-3.891,6.476-8.609,8.02-13.765
	C473.046,372.067,473.074,371.958,473.105,371.851z"/>
<path style="fill:#FFE000;" d="M474.417,153.129v-3.625c0-2.995-0.407-5.931-1.16-8.75c-0.405-1.517-0.915-2.997-1.521-4.435
	c-2.477-5.876-6.574-11.016-11.925-14.74c-0.784-0.545-1.584-1.071-2.419-1.553l-22.874-13.202l-21.414-12.358l-17.239-9.949
	L329.94,46.473l-25.717-14.844l-19.288-11.132l-11.953-6.899c-10.533-6.078-23.509-6.076-34.04,0.007l-11.872,6.857l-19.288,11.14
	l-25.717,14.853l0,0l-65.918,38.072l-28.889,16.686L65.85,113.578l-11.284,6.516c-0.427,0.247-0.826,0.527-1.236,0.792
	l48.364,32.243C101.695,153.129,474.417,153.129,474.417,153.129z"/>
<path style="fill:#259245;" d="M101.694,153.129L53.33,120.886c-0.371,0.239-0.755,0.464-1.118,0.715
	c-3.272,2.268-6.073,5.067-8.333,8.236c-1.517,2.127-2.781,4.422-3.773,6.841c-1.655,4.032-2.558,8.399-2.557,12.899v3.551
	l0.006,37.36l0.005,26.203l0.006,39.306l0.006,34.432v4.011v0.849v0.002v0.013v0.005l0.005,26.198v0.001v1.864l0.002,12.617
	l0.004,22.88v3.618v0.007c0,0.773,0.033,1.539,0.084,2.304c0.016,0.224,0.042,0.446,0.061,0.669c0.048,0.548,0.105,1.096,0.18,1.638
	c0.033,0.236,0.072,0.471,0.108,0.706c0.087,0.545,0.186,1.087,0.298,1.626c0.042,0.201,0.086,0.403,0.131,0.603
	c0.14,0.615,0.298,1.222,0.471,1.825c0.033,0.113,0.061,0.227,0.095,0.34c0.909,3.042,2.24,5.93,3.94,8.589l0.001,0.001l0.001,0.002
	c1.172,1.832,2.517,3.551,4.025,5.137c0.051,0.052,0.099,0.106,0.148,0.158c0.709,0.735,1.454,1.441,2.231,2.113
	c0.125,0.11,0.254,0.215,0.382,0.322c0.786,0.661,1.595,1.298,2.445,1.89c0.359,0.251,0.743,0.474,1.111,0.714l48.392-32.262
	l154.307-102.871L101.694,153.129z"/>
<polygon style="fill:#ED1F34;" points="101.694,358.87 474.45,358.87 474.446,321.512 474.446,321.51 474.441,295.307 
	474.441,295.304 474.44,291.091 474.436,265.517 474.434,255.999 256.001,255.999 "/>
<path style="fill:#164FCE;" d="M53.302,391.132c0.434,0.282,0.857,0.579,1.308,0.839l22.552,13.016l21.414,12.359l17.561,10.134
	l91.644,52.89l19.288,11.132l11.953,6.899c10.533,6.078,23.509,6.076,34.04-0.007l11.872-6.857l19.288-11.14l25.717-14.853
	l55.554-32.086l10.363-5.985l26.36-15.225l21.408-12.365l13.813-7.977c0.811-0.469,1.59-0.98,2.353-1.507
	c0.851-0.588,1.659-1.226,2.446-1.884c0.128-0.107,0.258-0.212,0.385-0.322c0.78-0.673,1.526-1.375,2.237-2.11
	c0.047-0.048,0.09-0.098,0.136-0.146c3.724-3.891,6.476-8.609,8.02-13.766c0.031-0.106,0.059-0.215,0.09-0.322
	c0.176-0.611,0.336-1.228,0.479-1.85c0.046-0.2,0.089-0.401,0.131-0.603c0.113-0.54,0.213-1.085,0.3-1.634
	c0.037-0.236,0.076-0.473,0.11-0.711c0.075-0.545,0.131-1.092,0.18-1.643c0.021-0.225,0.047-0.447,0.063-0.674
	c0.052-0.767,0.084-1.537,0.084-2.313l0,0v-0.006v-3.545H101.694L53.302,391.132z"/>
<g>
	<path style="fill:#FFFFFF;" d="M137.822,280.106c-4.993,0-9.041-4.047-9.041-9.041v-30.13c0-4.994,4.048-9.041,9.041-9.041
		c4.993,0,9.041,4.047,9.041,9.041v30.128C146.864,276.058,142.815,280.106,137.822,280.106z"/>
	<path style="fill:#FFFFFF;" d="M135.723,213.637c-23.396,0-42.363,18.966-42.363,42.363s18.966,42.363,42.363,42.363
		c0.704,0,1.403-0.02,2.099-0.053c-7.019,3.947-15.112,6.207-23.738,6.207c-26.796,0-48.517-21.722-48.517-48.517
		c0-26.795,21.722-48.517,48.517-48.517c8.625,0,16.719,2.26,23.738,6.207C137.127,213.657,136.427,213.637,135.723,213.637z"/>
</g>
<path d="M114.084,313.559c9.858,0,19.599-2.547,28.171-7.368c3.653-2.054,5.415-6.351,4.258-10.377
	c-1.157-4.029-4.94-6.734-9.117-6.534c-0.553,0.025-1.11,0.042-1.671,0.042c-18.373,0-33.322-14.947-33.322-33.322
	s14.947-33.322,33.322-33.322c0.561,0,1.118,0.017,1.671,0.042c0.163,0.008,0.324,0.005,0.483,0.011
	c4.979-0.017,9.01-4.058,9.01-9.041c0-3.577-2.076-6.667-5.09-8.134c-8.46-4.656-18.031-7.115-27.715-7.115
	c-31.738,0-57.559,25.821-57.559,57.559S82.347,313.559,114.084,313.559z M99.916,219.153c-9.616,9.346-15.597,22.411-15.597,36.847
	c0,14.436,5.981,27.502,15.597,36.847c-14.788-5.706-25.309-20.071-25.309-36.847S85.128,224.858,99.916,219.153z M483.458,149.503
	c0-3.711-0.494-7.438-1.465-11.078c-0.506-1.899-1.155-3.789-1.925-5.615c-3.179-7.544-8.398-13.991-15.096-18.652
	c-1.117-0.778-2.089-1.4-3.062-1.961L277.5,5.767C270.961,1.994,263.515,0,255.966,0c-7.555,0-15.005,1.996-21.547,5.776
	L50.044,112.265c-0.95,0.549-1.896,1.152-2.978,1.902c-4.086,2.831-7.635,6.335-10.547,10.421c-1.912,2.683-3.519,5.597-4.775,8.658
	c-2.147,5.23-3.234,10.724-3.234,16.334l0.035,212.917c0,0.921,0.034,1.876,0.105,2.919c0.016,0.234,0.037,0.469,0.061,0.702
	l0.014,0.143c0.061,0.693,0.134,1.385,0.231,2.095c0.034,0.24,0.071,0.477,0.108,0.716l0.025,0.16c0.11,0.69,0.235,1.378,0.38,2.075
	c0.053,0.254,0.107,0.508,0.163,0.746c0.177,0.779,0.377,1.547,0.608,2.351l0.112,0.392c1.144,3.829,2.821,7.487,4.986,10.874
	c0.014,0.023,0.029,0.045,0.043,0.068c1.476,2.298,3.174,4.463,5.046,6.429c0.04,0.042,0.153,0.164,0.195,0.206
	c0.896,0.929,1.847,1.83,2.81,2.663l0.498,0.42c1.093,0.919,2.105,1.699,3.096,2.388c1.096,0.763,2.096,1.403,3.064,1.963
	l184.411,106.428c6.538,3.773,13.985,5.768,21.534,5.768l0,0c7.554,0,15.005-1.998,21.547-5.776l184.372-106.49
	c0.945-0.545,1.89-1.149,2.982-1.905c0.986-0.682,1.999-1.461,3.181-2.448c0.14-0.116,0.278-0.231,0.405-0.34
	c0.99-0.854,1.941-1.752,2.84-2.681l0.159-0.171c4.695-4.904,8.206-10.929,10.149-17.421l0.116-0.406
	c0.224-0.775,0.427-1.556,0.605-2.34l0.169-0.773c0.143-0.684,0.27-1.374,0.398-2.177c0.042-0.259,0.082-0.518,0.121-0.792
	c0.094-0.69,0.168-1.383,0.228-2.071l0.014-0.143c0.024-0.24,0.047-0.48,0.063-0.721c0.071-1.043,0.105-1.999,0.105-2.931
	L483.458,149.503z M131.556,349.829l127.182-84.788h206.656l0.014,84.788H131.556z M53.773,379.952
	c-0.027-0.027-0.059-0.057-0.086-0.083c-0.027-0.029-0.129-0.137-0.157-0.168c-1.099-1.155-2.094-2.424-2.956-3.772
	c-0.016-0.025-0.031-0.048-0.047-0.074c-1.237-1.948-2.195-4.047-2.849-6.239l-0.069-0.246c-0.127-0.442-0.244-0.888-0.351-1.354
	l-0.093-0.428c-0.082-0.395-0.154-0.793-0.217-1.183l-0.082-0.523c-0.054-0.4-0.096-0.803-0.13-1.203l-0.048-0.493
	c-0.039-0.561-0.064-1.125-0.064-1.7l-0.035-212.91c0-3.24,0.632-6.425,1.881-9.467c0.729-1.781,1.662-3.472,2.769-5.025
	c0.774-1.084,1.632-2.088,2.551-3.026l18.041,12.029l27.124,18.083l127.181,84.788l13.562,9.041l-13.562,9.041l-127.18,84.787
	l-27.124,18.083L53.773,379.952z M465.378,162.17l0.013,84.788H258.738L131.556,162.17L465.378,162.17L465.378,162.17z
	 M243.463,21.434c3.795-2.193,8.119-3.351,12.504-3.351c4.381,0,8.701,1.157,12.495,3.347l184.407,106.427
	c0.522,0.301,1.089,0.667,1.779,1.145c3.881,2.7,6.908,6.445,8.757,10.832c0.448,1.062,0.825,2.157,1.116,3.252
	c0.089,0.332,0.158,0.667,0.233,1.001H104.432l-34.04-22.693L243.463,21.434z M464.424,369.324l-0.071,0.254
	c-1.128,3.764-3.164,7.258-5.908,10.125l-0.083,0.09c-0.512,0.529-1.066,1.051-1.649,1.555l-0.276,0.228
	c-0.684,0.573-1.255,1.014-1.791,1.384c-0.671,0.465-1.221,0.817-1.731,1.113l-184.375,106.49
	c-3.796,2.192-8.119,3.351-12.502,3.351c-4.381,0-8.701-1.159-12.496-3.348L70.364,390.623l34.068-22.712h360.354l-0.016,0.072
	C464.666,368.441,464.548,368.893,464.424,369.324z"/>
<g>
</g>
<g>
</g>
<g>
</g>
<g>
</g>
<g>
</g>
<g>
</g>
<g>
</g>
<g>
</g>
<g>
</g>
<g>
</g>
<g>
</g>
<g>
</g>
<g>
</g>
<g>
</g>
<g>
</g>
</svg>
