<?xml version="1.0" encoding="iso-8859-1"?>
<!-- Generator: Adobe Illustrator 19.0.0, SVG Export Plug-In . SVG Version: 6.00 Build 0)  -->
<svg version="1.1" id="Layer_1" xmlns="http://www.w3.org/2000/svg" xmlns:xlink="http://www.w3.org/1999/xlink" x="0px" y="0px"
	 viewBox="0 0 512.001 512.001" style="enable-background:new 0 0 512.001 512.001;" xml:space="preserve">
<path style="fill:#FFFFFF;" d="M473.105,371.851c0.176-0.611,0.336-1.228,0.479-1.85c0.046-0.2,0.088-0.401,0.13-0.603
	c0.113-0.54,0.213-1.085,0.3-1.634c0.037-0.236,0.076-0.473,0.11-0.711c0.076-0.545,0.131-1.092,0.18-1.643
	c0.021-0.225,0.047-0.447,0.063-0.674c0.052-0.767,0.084-1.537,0.084-2.313l0,0l0,0v-0.006l-0.007-40.904v-0.002l-0.005-26.203
	v-0.002v-4.213l-0.005-25.574l0,0l-0.008-48.824l-0.004-26.204l-0.007-40.984c-0.001-2.995-0.407-5.931-1.16-8.75
	c-0.405-1.517-0.915-2.997-1.521-4.435c-2.477-5.877-6.575-11.017-11.925-14.74c-0.784-0.545-1.584-1.071-2.421-1.553l-22.87-13.202
	l-21.414-12.358l-17.24-9.949L329.94,46.473l-25.719-14.844l-19.288-11.132l-11.953-6.899c-10.533-6.078-23.509-6.076-34.04,0.007
	l-11.872,6.857l-19.288,11.14l-25.717,14.854v-0.001l-65.915,38.072l-28.89,16.686l-21.408,12.365l-11.282,6.517
	c-0.811,0.468-1.59,0.979-2.352,1.506c-3.273,2.268-6.073,5.068-8.333,8.235c-1.517,2.129-2.781,4.424-3.773,6.843
	c-1.655,4.031-2.558,8.399-2.558,12.899l0.007,40.912l0.005,26.204l0.013,73.738v4.011l0.001,0.85v0.001v0.013l0,0v0.005l0,0
	l0.004,26.2l0,0v1.864l0.002,12.617l0.005,26.497v0.006l0,0c0,0.773,0.031,1.539,0.083,2.305c0.017,0.223,0.042,0.445,0.063,0.668
	c0.048,0.548,0.105,1.096,0.178,1.638c0.033,0.236,0.072,0.471,0.11,0.708c0.086,0.544,0.184,1.086,0.298,1.625
	c0.042,0.201,0.084,0.403,0.13,0.603c0.14,0.615,0.298,1.222,0.471,1.825c0.033,0.113,0.063,0.227,0.095,0.34
	c0.909,3.042,2.24,5.93,3.941,8.589l0.001,0.001l0.001,0.002c1.172,1.832,2.517,3.551,4.026,5.137
	c0.049,0.052,0.098,0.106,0.148,0.158c0.709,0.735,1.454,1.439,2.231,2.113c0.125,0.11,0.256,0.215,0.382,0.322
	c0.786,0.661,1.594,1.298,2.445,1.89c0.782,0.545,1.583,1.07,2.419,1.553l22.552,13.015l21.415,12.36l17.56,10.134l91.644,52.89
	l19.288,11.132l11.953,6.899c10.533,6.078,23.509,6.076,34.04-0.007l11.872-6.857l19.288-11.14l25.719-14.853l55.553-32.086
	l10.363-5.985l26.36-15.225l21.408-12.365l13.813-7.978c0.813-0.468,1.59-0.979,2.353-1.506c0.851-0.588,1.659-1.226,2.445-1.884
	c0.129-0.107,0.259-0.212,0.386-0.322c0.779-0.673,1.526-1.375,2.236-2.11c0.047-0.048,0.09-0.098,0.136-0.146
	c3.725-3.891,6.476-8.609,8.019-13.765C473.046,372.067,473.074,371.958,473.105,371.851z"/>
<path style="fill:#ED1F34;" d="M153.13,255.999h321.302l-0.006-39.306l-0.004-26.203l-0.007-40.985c0-2.995-0.408-5.931-1.16-8.75
	c-0.405-1.517-0.915-2.997-1.521-4.435c-2.477-5.876-6.574-11.016-11.925-14.74c-0.784-0.545-1.584-1.071-2.421-1.553
	l-22.871-13.202l-21.414-12.358l-17.24-9.949L329.94,46.473l-25.719-14.844l-19.288-11.132l-11.953-6.899
	c-10.533-6.078-23.509-6.076-34.04,0.007l-11.872,6.857l-19.288,11.14l-25.717,14.853l0,0l-28.932,16.71L153.13,255.999
	L153.13,255.999z"/>
<path style="fill:#259245;" d="M474.446,321.512L474.446,321.512v-0.002l-0.005-26.203l0,0v-0.002v-1.685v-2.528v-0.013
	l-0.005-25.561l-0.001-5.814l-0.001-3.702H153.13v123.445v41.148v28.237l54.65,31.54l19.288,11.132l11.953,6.899
	c0.658,0.379,1.327,0.735,2.002,1.068c1.353,0.665,2.738,1.234,4.147,1.709c5.639,1.899,11.66,2.278,17.451,1.137
	c2.172-0.427,4.311-1.071,6.386-1.925c0.692-0.284,1.377-0.594,2.052-0.927c0.677-0.333,1.344-0.69,2.002-1.07l11.872-6.857
	l19.288-11.14l25.719-14.853l55.553-32.086l10.363-5.985l26.36-15.225l21.409-12.365l13.812-7.977
	c0.813-0.469,1.59-0.98,2.353-1.507c0.18-0.125,0.352-0.259,0.528-0.387c0.657-0.48,1.297-0.978,1.917-1.496
	c0.129-0.107,0.259-0.212,0.386-0.323c0.779-0.671,1.526-1.374,2.236-2.108c0.017-0.016,0.03-0.031,0.046-0.048
	c0.029-0.031,0.06-0.065,0.09-0.098c3.725-3.891,6.475-8.609,8.019-13.766c0.033-0.106,0.06-0.215,0.09-0.322
	c0.122-0.418,0.223-0.84,0.328-1.263c0.048-0.197,0.106-0.389,0.152-0.586c0.046-0.201,0.088-0.403,0.13-0.604
	c0.113-0.54,0.213-1.085,0.3-1.632c0.023-0.139,0.042-0.277,0.065-0.416c0.014-0.099,0.03-0.198,0.045-0.297
	c0.076-0.544,0.131-1.092,0.181-1.643c0.019-0.225,0.046-0.447,0.061-0.674c0.052-0.767,0.084-1.537,0.084-2.313l0,0v-0.006
	l-0.005-23.375L474.446,321.512z"/>
<path d="M483.492,149.585c0.001-0.913-0.033-1.873-0.105-2.931c-0.016-0.24-0.037-0.48-0.063-0.721l-0.014-0.143
	c-0.06-0.684-0.134-1.374-0.227-2.061c-0.039-0.283-0.08-0.542-0.122-0.802c-0.128-0.803-0.254-1.492-0.398-2.177
	c-0.055-0.265-0.11-0.52-0.168-0.773c-0.18-0.784-0.383-1.566-0.608-2.34c-0.041-0.154-0.09-0.327-0.143-0.497
	c-1.917-6.403-5.426-12.428-10.122-17.332l-0.119-0.127c-0.943-0.974-1.894-1.872-2.881-2.723l-0.405-0.339
	c-1.175-0.981-2.186-1.76-3.177-2.447c-1.104-0.763-2.051-1.367-2.991-1.91L277.584,5.777C271.042,1.998,263.591,0,256.037,0l0,0
	c-7.55,0-14.995,1.995-21.534,5.768L50.092,112.197c-0.967,0.559-1.969,1.199-3.063,1.963c-0.991,0.69-2.004,1.471-3.096,2.388
	l-0.498,0.42c-0.963,0.833-1.914,1.734-2.81,2.663c-0.041,0.042-0.154,0.164-0.194,0.206c-1.872,1.966-3.572,4.131-5.048,6.429
	c-0.014,0.023-0.029,0.045-0.043,0.068c-2.165,3.386-3.843,7.045-4.986,10.874l-0.112,0.392c-0.23,0.804-0.429,1.573-0.608,2.351
	c-0.055,0.239-0.11,0.492-0.163,0.746c-0.146,0.697-0.271,1.385-0.38,2.075l-0.025,0.16c-0.037,0.237-0.076,0.476-0.108,0.716
	c-0.098,0.71-0.171,1.402-0.231,2.095l-0.014,0.143c-0.024,0.233-0.045,0.468-0.061,0.702c-0.071,1.043-0.105,1.998-0.105,2.919
	l-0.036,212.917c0,5.608,1.087,11.104,3.236,16.334c1.255,3.061,2.862,5.975,4.775,8.658c2.913,4.086,6.46,7.59,10.547,10.421
	c1.081,0.75,2.029,1.354,2.978,1.902l184.375,106.49c6.542,3.779,13.992,5.776,21.547,5.776c7.55,0,14.995-1.994,21.534-5.767
	l184.411-106.428c0.978-0.565,1.951-1.189,3.066-1.965c6.691-4.655,11.911-11.103,15.092-18.647
	c0.776-1.844,1.424-3.735,1.926-5.623c0.97-3.637,1.464-7.365,1.464-11.075L483.492,149.585z M162.171,443.614V265.041h303.22
	l-0.017,97.453c0,2.136-0.287,4.295-0.854,6.418c-0.291,1.092-0.667,2.186-1.118,3.259c-1.848,4.381-4.876,8.126-8.757,10.826
	c-0.69,0.48-1.254,0.844-1.778,1.145L268.46,490.568c-3.793,2.189-8.114,3.347-12.495,3.347c-4.383,0-8.707-1.159-12.502-3.351
	L162.171,443.614z M465.409,149.563l-0.016,97.395H162.171V132.554c0-4.994-4.048-9.041-9.041-9.041
	c-4.994,0-9.041,4.047-9.041,9.041V433.17l-85.002-49.095c-0.509-0.294-1.057-0.646-1.726-1.109
	c-2.364-1.637-4.423-3.674-6.118-6.053c-1.108-1.553-2.04-3.244-2.77-5.025c-1.248-3.04-1.882-6.225-1.882-9.467l0.036-212.91
	c0-0.576,0.025-1.139,0.064-1.7l0.048-0.493c0.034-0.4,0.076-0.803,0.13-1.203l0.081-0.523c0.061-0.389,0.134-0.787,0.217-1.183
	l0.093-0.428c0.106-0.465,0.223-0.911,0.35-1.354l0.07-0.245c0.653-2.192,1.612-4.292,2.849-6.24
	c0.016-0.025,0.03-0.048,0.047-0.074c0.862-1.348,1.857-2.617,2.956-3.772c0.027-0.029,0.129-0.137,0.157-0.168
	c0.47-0.487,1.021-1.009,1.588-1.498l0.293-0.246c0.662-0.556,1.25-1.011,1.787-1.385c0.68-0.475,1.245-0.838,1.776-1.143
	l84.957-49.031v12.58c0,4.994,4.047,9.041,9.041,9.041c4.993,0,9.041-4.047,9.041-9.041V68.392l81.369-46.961
	c3.794-2.189,8.114-3.348,12.495-3.348c4.383,0,8.707,1.16,12.504,3.351l184.377,106.49c0.509,0.294,1.057,0.646,1.734,1.114
	c0.527,0.366,1.114,0.821,1.784,1.382l0.293,0.242c0.568,0.489,1.121,1.011,1.635,1.543l0.083,0.09
	c2.74,2.863,4.776,6.354,5.905,10.118l0.06,0.218c0.137,0.477,0.257,0.929,0.362,1.385l0.096,0.447
	c0.08,0.387,0.154,0.787,0.218,1.191l0.021,0.127l0.064,0.407c0.052,0.379,0.093,0.784,0.128,1.191l0.051,0.52
	C465.385,148.434,465.41,148.997,465.409,149.563z"/>
<g>
</g>
<g>
</g>
<g>
</g>
<g>
</g>
<g>
</g>
<g>
</g>
<g>
</g>
<g>
</g>
<g>
</g>
<g>
</g>
<g>
</g>
<g>
</g>
<g>
</g>
<g>
</g>
<g>
</g>
</svg>
