<?xml version="1.0" encoding="iso-8859-1"?>
<!-- Generator: Adobe Illustrator 19.0.0, SVG Export Plug-In . SVG Version: 6.00 Build 0)  -->
<svg version="1.1" id="Layer_1" xmlns="http://www.w3.org/2000/svg" xmlns:xlink="http://www.w3.org/1999/xlink" x="0px" y="0px"
	 viewBox="0 0 511.996 511.996" style="enable-background:new 0 0 511.996 511.996;" xml:space="preserve">
<path style="fill:#FFFFFF;" d="M256.001,9.044c-2.941-0.004-5.883,0.375-8.748,1.132c-0.004,0.001-0.008,0.001-0.012,0.002
	c-0.664,0.176-1.325,0.377-1.981,0.596c-0.052,0.017-0.105,0.029-0.157,0.047c-0.615,0.206-1.222,0.439-1.826,0.682
	c-0.092,0.036-0.184,0.065-0.275,0.102c-0.528,0.217-1.046,0.461-1.565,0.705c-0.163,0.077-0.329,0.142-0.492,0.223
	c-0.563,0.277-1.116,0.58-1.667,0.89c-0.112,0.063-0.227,0.116-0.338,0.18l-11.872,6.857L207.78,31.6l-25.717,14.854l0,0
	l-65.917,38.073l-28.889,16.686l-21.406,12.365l-11.284,6.517c-0.811,0.469-1.59,0.979-2.353,1.507
	c-1.636,1.133-3.155,2.4-4.546,3.781c-1.391,1.379-2.657,2.872-3.787,4.456c-0.948,1.33-1.784,2.732-2.53,4.182
	c-0.447,0.869-0.87,1.753-1.243,2.659c-0.251,0.61-0.479,1.228-0.693,1.854c-0.019,0.054-0.035,0.11-0.054,0.164
	c-0.204,0.608-0.394,1.221-0.565,1.841v0.001c0,0.001,0,0.001-0.001,0.002c-0.398,1.433-0.704,2.899-0.914,4.387
	c-0.008,0.066-0.016,0.133-0.025,0.199c-0.083,0.616-0.146,1.237-0.194,1.861c-0.013,0.162-0.027,0.324-0.036,0.486
	c-0.045,0.698-0.074,1.398-0.074,2.104l0.001,7.842l-0.001,98.58h21.504h34.72h14.965v-66.914l88.984,66.914h58.276v-28.591v-15.231
	l-72.823-54.76h72.823v-16.88v-39.163V84.496h-72.822l72.822-54.76V9.044L256.001,9.044z"/>
<g>
	<polygon style="fill:#103B9B;" points="183.179,84.496 256.001,84.496 256.001,29.737 	"/>
	<polygon style="fill:#103B9B;" points="183.179,157.419 256.001,212.179 256.001,157.419 	"/>
	<polygon style="fill:#103B9B;" points="108.741,189.087 108.741,255.999 197.726,255.999 	"/>
</g>
<path style="fill:#ED1F34;" d="M474.446,321.512v-0.001l-0.005-26.204v-0.002v-4.213l-0.004-25.574l-0.008-48.824l-0.005-26.204
	l-0.006-40.985c0-2.996-0.407-5.93-1.16-8.75c-0.405-1.517-0.915-2.997-1.521-4.435c-2.477-5.877-6.574-11.016-11.925-14.74
	c-0.784-0.545-1.584-1.071-2.419-1.554l-22.874-13.2l-21.414-12.358l-17.239-9.949l-65.926-38.046l-25.717-14.842l-19.288-11.132
	l-11.953-6.898c-5.254-3.032-11.116-4.542-16.98-4.547v20.686v54.76v16.88H93.776v-3.929l-6.518,3.765l-21.406,12.365l-11.284,6.517
	c-0.811,0.469-1.59,0.979-2.353,1.507c-1.636,1.133-3.155,2.4-4.546,3.781c-1.391,1.379-2.657,2.872-3.787,4.456
	c-0.948,1.33-1.784,2.732-2.53,4.182c-0.447,0.869-0.87,1.753-1.243,2.659c-0.251,0.61-0.479,1.228-0.693,1.854
	c-0.019,0.054-0.035,0.11-0.054,0.164c-0.204,0.608-0.393,1.221-0.565,1.841v0.001h20.26v115.461H37.569l0.006,34.432v4.011v0.849
	v0.002v0.013v0.005l0.005,26.2v0.001v1.863l0.001,12.617l0.005,26.497v0.006c0,0.773,0.033,1.539,0.084,2.304
	c0.016,0.224,0.042,0.446,0.061,0.669c0.049,0.55,0.105,1.096,0.18,1.638c0.033,0.236,0.071,0.471,0.108,0.706
	c0.087,0.546,0.184,1.087,0.298,1.626c0.042,0.201,0.084,0.403,0.13,0.603c0.14,0.615,0.298,1.222,0.471,1.825
	c0.033,0.113,0.061,0.227,0.095,0.34c0.909,3.042,2.239,5.93,3.94,8.589c0,0,0,0.001,0.001,0.002l0.001,0.001
	c1.172,1.832,2.517,3.551,4.025,5.137c0.051,0.052,0.099,0.106,0.148,0.158c0.709,0.735,1.454,1.441,2.231,2.112
	c0.125,0.11,0.254,0.215,0.382,0.322c0.786,0.661,1.594,1.3,2.445,1.89c0.784,0.545,1.584,1.07,2.419,1.554l22.552,13.015
	l21.414,12.359l17.561,10.135l91.644,52.89l19.288,11.132l11.953,6.898c10.533,6.078,23.509,6.077,34.04-0.006l11.872-6.857
	l19.288-11.14l25.717-14.853l55.554-32.086l10.363-5.985l26.36-15.225l21.408-12.365l13.813-7.978
	c0.811-0.469,1.59-0.979,2.353-1.507c0.851-0.59,1.659-1.226,2.446-1.883c0.128-0.107,0.258-0.213,0.385-0.323
	c0.78-0.672,1.526-1.374,2.237-2.11c0.047-0.048,0.09-0.098,0.136-0.146c3.724-3.891,6.476-8.609,8.02-13.765
	c0.031-0.106,0.059-0.215,0.09-0.322c0.176-0.611,0.336-1.228,0.479-1.85c0.047-0.201,0.089-0.401,0.13-0.603
	c0.113-0.541,0.213-1.085,0.3-1.633c0.039-0.236,0.077-0.473,0.11-0.711c0.075-0.545,0.131-1.093,0.181-1.643
	c0.019-0.225,0.046-0.447,0.061-0.674c0.052-0.767,0.084-1.537,0.084-2.313v-0.006L474.446,321.512z M256.001,157.419v54.76v15.231
	l-92.855-69.99h-38.243l131.098,98.58h-58.276h-88.984H93.776V140.54h162.226V157.419z"/>
<path style="fill:#FFFFFF;" d="M311.668,196.125v101.569c0,42.569,37.147,43.436,55.845,56.768
	c18.696-13.332,55.845-14.199,55.845-56.768V196.125H311.668z"/>
<path style="fill:#259245;" d="M311.668,297.694c0,42.569,37.147,43.436,55.845,56.768c18.696-13.332,55.845-14.199,55.845-56.768
	H311.668L311.668,297.694z"/>
<path style="fill:#ED1F34;" d="M367.512,228.013c-12.758,0-23.103,10.343-23.103,23.101v46.58h46.204v-46.58
	C390.614,238.357,380.271,228.013,367.512,228.013z"/>
<path d="M367.512,363.503c-1.84,0-3.678-0.559-5.249-1.681c-4.09-2.916-9.753-5.343-15.748-7.912
	c-18.522-7.936-43.889-18.805-43.889-56.218V196.126c0-4.993,4.048-9.041,9.041-9.041h111.688c4.993,0,9.041,4.048,9.041,9.041
	v101.567c0,37.413-25.367,48.282-43.889,56.218c-5.995,2.569-11.657,4.996-15.748,7.912
	C371.191,362.943,369.351,363.503,367.512,363.503z M320.71,205.167v92.526c0,25.488,15.259,32.026,32.928,39.596
	c4.675,2.004,9.465,4.055,13.874,6.516c4.411-2.462,9.199-4.513,13.874-6.516c17.669-7.571,32.928-14.108,32.928-39.597v-92.526
	H320.71z M483.459,149.503c0-3.711-0.494-7.438-1.466-11.08c-0.506-1.896-1.155-3.787-1.925-5.614
	c-3.179-7.543-8.398-13.991-15.094-18.652c-1.115-0.775-2.087-1.397-3.062-1.96L277.5,5.768C270.963,1.995,263.516,0,255.966,0
	c-7.555,0-15.005,1.998-21.547,5.776L50.043,112.265c-0.945,0.546-1.89,1.15-2.979,1.904c-4.086,2.831-7.633,6.336-10.546,10.419
	c-1.912,2.683-3.519,5.596-4.775,8.657c-2.147,5.231-3.234,10.726-3.234,16.334l0.035,212.916c0,0.921,0.034,1.875,0.105,2.917
	c0.017,0.234,0.039,0.467,0.061,0.699l0.014,0.148c0.061,0.694,0.134,1.384,0.231,2.094c0.034,0.24,0.071,0.477,0.108,0.716
	l0.025,0.158c0.11,0.691,0.235,1.375,0.379,2.066c0.053,0.256,0.107,0.51,0.164,0.756c0.176,0.776,0.377,1.544,0.606,2.35
	l0.112,0.392c1.143,3.828,2.821,7.485,4.985,10.871c0.014,0.022,0.028,0.043,0.042,0.065c1.476,2.299,3.175,4.465,5.049,6.433
	c0.04,0.042,0.153,0.164,0.194,0.205c0.887,0.921,1.837,1.819,2.827,2.677l0.481,0.405c1.098,0.922,2.111,1.705,3.096,2.389
	c1.114,0.775,2.087,1.398,3.064,1.963l184.41,106.428c6.539,3.773,13.985,5.768,21.534,5.768l0,0c7.554,0,15.005-1.998,21.547-5.776
	l184.372-106.488c0.949-0.547,1.895-1.152,2.979-1.904c0.987-0.684,2.002-1.462,3.099-2.381c0.005-0.004,0.101-0.084,0.106-0.088
	l0.381-0.322c0.989-0.852,1.941-1.75,2.81-2.647l0.194-0.205c4.695-4.906,8.205-10.93,10.15-17.426l0.115-0.404
	c0.223-0.774,0.426-1.554,0.606-2.344l0.168-0.769c0.143-0.684,0.27-1.372,0.398-2.181c0.041-0.257,0.082-0.514,0.119-0.785
	c0.094-0.691,0.168-1.385,0.228-2.072l0.014-0.145c0.024-0.239,0.047-0.479,0.063-0.72c0.071-1.044,0.105-2,0.105-2.931
	L483.459,149.503z M48.473,140.11c0.731-1.781,1.662-3.471,2.77-5.025c1.696-2.378,3.755-4.415,6.116-6.051
	c0.671-0.464,1.221-0.819,1.73-1.111l184.375-106.49c1.12-0.646,2.289-1.192,3.489-1.655v227.179H46.608l-0.016-97.382
	C46.592,146.336,47.224,143.152,48.473,140.11z M465.349,364.1l-0.051,0.52c-0.035,0.404-0.076,0.807-0.129,1.192l-0.083,0.534
	c-0.064,0.404-0.137,0.804-0.227,1.226l-0.089,0.411c-0.105,0.458-0.223,0.91-0.347,1.343l-0.071,0.254
	c-1.128,3.765-3.164,7.26-5.908,10.126l-0.083,0.09c-0.512,0.529-1.066,1.05-1.656,1.559l-0.27,0.225
	c-0.684,0.571-1.253,1.011-1.794,1.386c-0.668,0.462-1.216,0.815-1.728,1.109l-184.375,106.49
	c-3.796,2.193-8.119,3.351-12.504,3.351c-4.381,0-8.701-1.157-12.495-3.347L59.133,384.143c-0.526-0.303-1.091-0.668-1.779-1.146
	c-0.539-0.375-1.109-0.817-1.783-1.383l-0.288-0.24c-0.576-0.499-1.128-1.022-1.596-1.507c-0.027-0.028-0.128-0.136-0.154-0.164
	c-1.099-1.155-2.094-2.424-2.956-3.773c-0.012-0.019-0.025-0.039-0.037-0.058c-1.242-1.953-2.204-4.057-2.861-6.257l-0.066-0.24
	c-0.128-0.444-0.245-0.891-0.35-1.351l-0.093-0.432c-0.083-0.395-0.156-0.793-0.217-1.185l-0.082-0.523
	c-0.054-0.4-0.096-0.803-0.13-1.197l-0.048-0.499c-0.039-0.561-0.064-1.125-0.064-1.7l-0.016-97.446h209.381
	c4.993,0,9.041-4.048,9.041-9.041V19.798c1.178,0.458,2.327,0.996,3.427,1.631L452.87,127.857c0.526,0.303,1.091,0.668,1.778,1.145
	c3.881,2.7,6.909,6.445,8.758,10.83c0.448,1.064,0.825,2.159,1.116,3.254c0.567,2.122,0.854,4.282,0.854,6.419l0.035,212.917
	C465.411,362.994,465.386,363.562,465.349,364.1z"/>
<g>
</g>
<g>
</g>
<g>
</g>
<g>
</g>
<g>
</g>
<g>
</g>
<g>
</g>
<g>
</g>
<g>
</g>
<g>
</g>
<g>
</g>
<g>
</g>
<g>
</g>
<g>
</g>
<g>
</g>
</svg>
