<?xml version="1.0" encoding="iso-8859-1"?>
<!-- Generator: Adobe Illustrator 19.0.0, SVG Export Plug-In . SVG Version: 6.00 Build 0)  -->
<svg version="1.1" id="Layer_1" xmlns="http://www.w3.org/2000/svg" xmlns:xlink="http://www.w3.org/1999/xlink" x="0px" y="0px"
	 viewBox="0 0 512 512" style="enable-background:new 0 0 512 512;" xml:space="preserve">
<path style="fill:#259245;" d="M473.058,371.827c0.2-0.6,0.3-1.2,0.5-1.9c0-0.2,0.1-0.4,0.1-0.6c0.1-0.5,0.2-1.1,0.3-1.6
	c0-0.2,0.1-0.5,0.1-0.7c0.1-0.5,0.1-1.1,0.2-1.6c0-0.2,0-0.4,0.1-0.7c0.1-0.8,0.1-1.5,0.1-2.3l0,0l0,0l0,0v-40.892l0,0v-26.195l0,0
	v-4.199v-25.595l0,0v-48.79v-26.195v-40.992c0-2.999-0.4-5.899-1.2-8.698c-0.4-1.5-0.9-2.999-1.5-4.399
	c-2.5-5.899-6.599-10.998-11.898-14.697c-0.8-0.5-1.6-1.1-2.4-1.6l-22.896-13.197l-21.396-12.398l-17.197-9.898l-65.887-37.993
	l-25.695-14.797l-19.296-11.098l-11.998-6.899c-10.498-6.099-23.495-6.099-33.993,0l-11.898,6.899l-19.296,11.098l-25.695,14.897
	l0,0l-65.887,38.093L87.433,101.58l-21.396,12.398l-11.298,6.499c-0.8,0.5-1.6,1-2.4,1.5c-3.299,2.3-6.099,5.099-8.298,8.198
	c-1.5,2.1-2.799,4.399-3.799,6.799c-1.7,3.999-2.599,8.398-2.599,12.897v40.892v26.195v73.686v3.999v0.8l0,0l0,0l0,0l0,0l0,0v26.195
	l0,0v1.9v12.598v26.495l0,0l0,0c0,0.8,0,1.5,0.1,2.3c0,0.2,0,0.4,0.1,0.7c0,0.5,0.1,1.1,0.2,1.6c0,0.2,0.1,0.5,0.1,0.7
	c0.1,0.5,0.2,1.1,0.3,1.6c0,0.2,0.1,0.4,0.1,0.6c0.1,0.6,0.3,1.2,0.5,1.8c0,0.1,0.1,0.2,0.1,0.3c0.9,2.999,2.2,5.899,3.899,8.598
	l0,0l0,0c1.2,1.8,2.5,3.599,3.999,5.099c0.1,0.1,0.1,0.1,0.1,0.2c0.7,0.7,1.5,1.4,2.2,2.1c0.1,0.1,0.3,0.2,0.4,0.3
	c0.8,0.7,1.6,1.3,2.4,1.9c0.8,0.5,1.6,1.1,2.4,1.6l22.596,12.997l21.396,12.398l17.597,10.098l91.582,52.89l19.296,11.098
	l11.998,6.899c10.498,6.099,23.495,6.099,33.993,0l11.898-6.899l19.296-11.098l25.695-14.897l55.589-32.094l10.398-5.999
	l26.395-15.197l21.396-12.398l13.797-7.998c0.8-0.5,1.6-1,2.4-1.5c0.9-0.6,1.7-1.2,2.4-1.9c0.1-0.1,0.3-0.2,0.4-0.3
	c0.8-0.7,1.5-1.4,2.2-2.1l0.1-0.1c3.699-3.899,6.499-8.598,7.998-13.797C472.958,372.027,473.058,371.927,473.058,371.827z"/>
<path style="fill:#FFFFFF;" d="M170.417,257.75c0-0.6,0-1.3,0-1.9H37.643v34.593v3.899h140.972
	C173.316,283.145,170.417,270.847,170.417,257.75z"/>
<path style="fill:#FFE000;" d="M180.515,217.458H37.643v38.392h132.874C170.817,241.953,174.416,228.855,180.515,217.458z"/>
<path style="fill:#FFFFFF;" d="M294.393,181.265V25.995l-9.498-5.499l-11.998-6.899c-5.299-2.999-11.098-4.499-16.997-4.599v163.168
	C269.797,172.166,282.895,175.466,294.393,181.265z"/>
<path style="fill:#FFE000;" d="M256,172.166V8.998c-5.899,0-11.798,1.5-17.097,4.599l-11.898,6.899l-9.498,5.499v155.37
	C229.105,175.466,242.203,172.166,256,172.166z"/>
<path style="fill:#FFFFFF;" d="M341.583,257.75c0,12.997-2.899,25.395-8.198,36.493h140.973v-3.199v-25.595v-9.598H341.483
	C341.583,256.45,341.583,257.15,341.583,257.75z"/>
<g>
	<path style="fill:#FFE000;" d="M447.063,217.458H409.67h-78.185c6.199,11.498,9.698,24.495,10.098,38.392h132.874v-38.392H447.063z
		"/>
	<path style="fill:#FFE000;" d="M217.607,334.235v151.67l9.498,5.499l11.998,6.899c5.299,2.999,11.098,4.499,16.997,4.599V343.333
		C242.203,343.333,229.105,340.034,217.607,334.235z"/>
</g>
<path style="fill:#FFFFFF;" d="M256,343.333v159.569c5.899,0,11.798-1.5,17.097-4.599l11.898-6.899l9.498-5.499v-151.67
	C282.895,340.034,269.797,343.333,256,343.333z"/>
<path style="fill:#ED1F34;" d="M344.583,255.75c-0.3-14.397-3.999-27.895-10.398-39.792c-8.598-16.097-22.096-29.194-38.392-37.393
	c-11.998-5.999-25.495-9.398-39.792-9.398c-14.297,0-27.795,3.399-39.792,9.398c-16.297,8.198-29.794,21.296-38.393,37.393
	c-6.399,11.898-10.098,25.395-10.398,39.792c0,0.7-0.1,1.3-0.1,2c0,13.497,2.999,26.295,8.398,37.793
	c8.498,17.897,22.696,32.494,40.392,41.392c11.998,5.999,25.495,9.398,39.792,9.398c14.297,0,27.795-3.399,39.792-9.398
	c17.697-8.898,31.894-23.495,40.392-41.392c5.399-11.498,8.398-24.295,8.398-37.793C344.583,257.05,344.583,256.45,344.583,255.75z"
	/>
<path style="fill:#259245;" d="M256,309.84c-29.77,0-53.989-24.22-53.989-53.989S226.23,201.861,256,201.861
	c29.769,0,53.989,24.219,53.989,53.989S285.769,309.84,256,309.84z M256,216.858c-21.501,0-38.992,17.492-38.992,38.992
	s17.492,38.992,38.992,38.992s38.992-17.492,38.992-38.992C294.992,234.349,277.501,216.858,256,216.858z"/>
<path d="M483.456,149.471c0-3.699-0.5-7.399-1.5-11.098c-0.5-1.9-1.2-3.799-1.9-5.599c-3.199-7.499-8.398-13.997-15.097-18.696
	c-1.1-0.8-2.1-1.4-3.099-2L277.496,5.799C270.997,2,263.499,0,256,0c-7.599,0-14.997,2-21.496,5.799L50.04,112.278
	c-0.9,0.5-1.9,1.1-2.999,1.9c-4.099,2.799-7.599,6.299-10.498,10.398c-1.9,2.699-3.499,5.599-4.799,8.698
	c-2.1,5.199-3.199,10.698-3.199,16.297v212.858c0,0.9,0,1.9,0.1,2.899c0,0.2,0,0.5,0.1,0.7v0.1c0.1,0.7,0.1,1.4,0.2,2.1
	c0,0.2,0.1,0.5,0.1,0.7v0.2c0.1,0.7,0.2,1.4,0.4,2.1c0.1,0.3,0.1,0.5,0.2,0.7c0.2,0.8,0.4,1.5,0.6,2.4l0.1,0.4
	c1.1,3.799,2.799,7.499,4.999,10.898c0,0,0,0,0,0.1c1.5,2.3,3.199,4.499,4.999,6.399l0.2,0.2c0.9,0.9,1.8,1.8,2.799,2.699l0.5,0.4
	c1.1,0.9,2.1,1.7,3.099,2.4c1.1,0.8,2.1,1.4,3.099,2l184.364,106.379C240.903,510,248.401,512,255.9,512l0,0
	c7.599,0,14.997-2,21.496-5.799L461.96,399.622c0.9-0.5,1.9-1.1,2.999-1.9c1-0.7,2-1.4,3.199-2.5c0.1-0.1,0.3-0.2,0.4-0.3
	c1-0.9,1.9-1.8,2.799-2.699l0.2-0.2c4.699-4.899,8.198-10.898,10.098-17.397l0.1-0.4c0.2-0.8,0.4-1.6,0.6-2.3l0.2-0.8
	c0.1-0.7,0.3-1.4,0.4-2.2c0-0.3,0.1-0.5,0.1-0.8c0.1-0.7,0.2-1.4,0.2-2.1v-0.1c0-0.2,0-0.5,0.1-0.7c0.1-1,0.1-2,0.1-2.899
	L483.456,149.471z M465.359,285.144H345.583c2.1-6.499,3.599-13.297,4.299-20.296h115.577L465.359,285.144z M454.561,128.975
	c3.899,2.699,6.899,6.399,8.798,10.798c0.4,1.1,0.8,2.2,1.1,3.299c0.6,2.1,0.9,4.299,0.9,6.399v58.889h-18.296
	c-4.999,0-8.998,3.999-8.998,8.998s3.999,8.998,8.998,8.998h18.296v20.296H349.782c-0.7-6.999-2.1-13.797-4.299-20.296h64.087
	c4.999,0,8.998-3.999,8.998-8.998s-3.999-8.998-8.998-8.998h-72.286c-8.198-13.997-19.896-25.695-33.893-33.893V41.592
	l149.371,86.183C453.361,128.175,453.961,128.475,454.561,128.975z M256,332.035c-3.099,0-6.099-0.2-8.998-0.6
	c-7.099-0.8-13.897-2.699-20.296-5.299c-6.499-2.699-12.598-6.399-18.096-10.798c-4.499-3.599-8.498-7.599-12.098-12.098
	c-4.399-5.499-7.998-11.498-10.798-18.096c-2.699-6.399-4.499-13.197-5.299-20.296c-0.4-2.999-0.6-5.999-0.6-8.998
	c0-2.999,0.2-6.099,0.6-8.998c0.8-7.099,2.699-13.897,5.299-20.296c2.699-6.499,6.399-12.598,10.798-18.096
	c3.599-4.499,7.599-8.498,12.098-12.098c5.499-4.399,11.498-7.998,18.096-10.798c6.399-2.699,13.197-4.499,20.296-5.299
	c2.999-0.4,5.999-0.6,8.998-0.6c2.999,0,6.099,0.2,8.998,0.6c7.099,0.8,13.897,2.699,20.296,5.299
	c6.499,2.699,12.598,6.399,18.096,10.798c4.499,3.599,8.498,7.599,12.098,12.098c4.399,5.499,7.998,11.498,10.798,18.096
	c2.699,6.399,4.499,13.197,5.299,20.296c0.4,2.999,0.6,5.999,0.6,8.998c0,2.999-0.2,6.099-0.6,8.998
	c-0.8,7.099-2.699,13.897-5.299,20.296c-2.699,6.499-6.399,12.598-10.798,18.096c-3.599,4.499-7.599,8.498-12.098,12.098
	c-5.499,4.399-11.498,7.998-18.096,10.798c-6.399,2.699-13.197,4.499-20.296,5.299C262.099,331.735,259.099,332.035,256,332.035z
	 M285.394,31.194v135.074c-6.499-2.1-13.297-3.599-20.296-4.299V19.796c1.2,0.5,2.3,1,3.399,1.6L285.394,31.194z M243.502,21.396
	c1.1-0.6,2.3-1.2,3.499-1.7v142.272c-6.999,0.7-13.797,2.1-20.296,4.299V31.194L243.502,21.396z M48.541,140.073
	c0.7-1.8,1.7-3.499,2.799-4.999c1.7-2.4,3.799-4.399,6.099-5.999c0.7-0.5,1.2-0.8,1.7-1.1l149.471-86.283v132.874
	c-13.997,8.198-25.695,19.896-33.893,33.893H46.741v-58.789C46.641,146.271,47.241,143.172,48.541,140.073z M162.218,246.752H46.641
	v-20.296h119.777C164.318,232.955,162.918,239.753,162.218,246.752z M166.417,285.144H46.641v-20.296h115.577
	C162.918,271.847,164.318,278.646,166.417,285.144z M57.439,382.925c-0.5-0.4-1.1-0.8-1.8-1.4l-0.3-0.2c-0.6-0.5-1.1-1-1.6-1.5
	c0,0-0.1-0.1-0.2-0.2c-1.1-1.2-2.1-2.4-2.999-3.799c0,0,0,0,0-0.1c-1.2-1.9-2.2-3.999-2.799-6.199l-0.1-0.2
	c-0.1-0.4-0.2-0.9-0.4-1.4l-0.1-0.4c-0.1-0.4-0.2-0.8-0.2-1.2l-0.1-0.5c-0.1-0.4-0.1-0.8-0.1-1.2v-0.5c0-0.6-0.1-1.1-0.1-1.7
	v-59.188h127.975c8.198,13.997,19.896,25.695,33.893,33.893v133.074L59.138,384.025C58.639,383.725,58.039,383.425,57.439,382.925z
	 M226.606,480.706V345.333c6.499,2.1,13.297,3.599,20.296,4.299v142.472c-1.2-0.5-2.3-1-3.399-1.6L226.606,480.706z
	 M268.498,490.504c-1.1,0.6-2.3,1.2-3.499,1.7V349.632c6.999-0.7,13.797-2.1,20.296-4.299v135.374L268.498,490.504z
	 M465.259,364.029l-0.1,0.5c0,0.4-0.1,0.8-0.1,1.2l-0.1,0.5c-0.1,0.4-0.1,0.8-0.2,1.3l-0.1,0.4c-0.1,0.5-0.2,0.9-0.3,1.3l-0.1,0.3
	c-1.1,3.799-3.199,7.299-5.899,10.098l-0.1,0.1c-0.5,0.5-1.1,1.1-1.6,1.6l-0.3,0.2c-0.7,0.6-1.3,1-1.8,1.4c-0.7,0.5-1.2,0.8-1.7,1.1
	l-149.471,86.283V337.234c13.997-8.198,25.695-19.896,33.893-33.893h127.975v59.088
	C465.359,362.929,465.359,363.529,465.259,364.029z"/>
<g>
</g>
<g>
</g>
<g>
</g>
<g>
</g>
<g>
</g>
<g>
</g>
<g>
</g>
<g>
</g>
<g>
</g>
<g>
</g>
<g>
</g>
<g>
</g>
<g>
</g>
<g>
</g>
<g>
</g>
</svg>
