<?xml version="1.0" encoding="iso-8859-1"?>
<!-- Generator: Adobe Illustrator 19.0.0, SVG Export Plug-In . SVG Version: 6.00 Build 0)  -->
<svg version="1.1" id="Layer_1" xmlns="http://www.w3.org/2000/svg" xmlns:xlink="http://www.w3.org/1999/xlink" x="0px" y="0px"
	 viewBox="0 0 511.999 511.999" style="enable-background:new 0 0 511.999 511.999;" xml:space="preserve">
<path style="fill:#FFFFFF;" d="M474.449,362.423l-0.006-40.912l-0.005-26.204l-0.013-78.613l-0.005-26.204l-0.006-40.985
	c-0.001-2.996-0.409-5.93-1.161-8.75c-0.405-1.517-0.915-2.997-1.521-4.435c-2.477-5.877-6.574-11.016-11.924-14.74
	c-0.784-0.545-1.584-1.071-2.421-1.554l-22.874-13.2L413.1,94.467l-17.24-9.949l-65.923-38.046l0,0L304.22,31.629l-19.288-11.132
	l-11.953-6.898c-10.533-6.078-23.509-6.077-34.04,0.006l-11.872,6.857l-19.288,11.14l-25.717,14.854l0,0l-65.915,38.07
	l-28.89,16.686l-21.408,12.365l-11.282,6.517c-0.813,0.469-1.59,0.979-2.353,1.507c-3.272,2.266-6.072,5.068-8.331,8.236
	c-1.517,2.128-2.781,4.423-3.774,6.841c-1.654,4.031-2.557,8.399-2.557,12.899l0.007,40.912l0.005,26.204l0.013,78.6v0.013v0.005
	l0.005,26.2l0.006,40.978v0.006c0.002,11.197,5.513,21.598,14.605,27.923c0.784,0.545,1.584,1.071,2.421,1.554l22.552,13.015
	l21.414,12.359l17.561,10.135l91.644,52.89l19.288,11.132l11.953,6.898c10.533,6.078,23.509,6.077,34.04-0.006l11.872-6.857
	l19.288-11.14l25.717-14.853l0,0l55.554-32.086l10.363-5.985l26.36-15.225l21.408-12.365l13.813-7.978
	c0.813-0.469,1.59-0.979,2.353-1.507C468.918,384.075,474.452,373.647,474.449,362.423L474.449,362.423L474.449,362.423z"/>
<g>
	<path style="fill:#164FCE;" d="M273.061,498.394l11.872-6.857l19.288-11.14l25.717-14.853l55.554-32.086l10.363-5.985l26.36-15.225
		l21.408-12.365l13.813-7.978c0.813-0.469,1.59-0.979,2.353-1.507c9.129-6.324,14.664-16.752,14.662-27.977l-0.006-40.912
		l-0.005-26.204l-0.006-36.859L256.958,502.927C262.526,502.778,268.068,501.278,273.061,498.394z"/>
	<path style="fill:#164FCE;" d="M37.574,295.293v0.013v0.005l0.005,26.2l0.006,40.978v0.006
		c0.002,11.197,5.513,21.598,14.605,27.923c0.784,0.545,1.584,1.07,2.421,1.554l22.552,13.015l21.414,12.359l17.561,10.135
		l91.644,52.89l19.288,11.132l11.953,6.898c4.967,2.867,10.478,4.364,16.02,4.526L37.568,258.448L37.574,295.293z"/>
</g>
<g>
	<path style="fill:#ED1F34;" d="M238.939,13.605l-11.872,6.857l-19.288,11.14l-25.717,14.854l0,0l-65.915,38.07l-28.89,16.686
		l-21.408,12.365l-11.282,6.517c-0.813,0.469-1.59,0.979-2.353,1.507c-3.272,2.266-6.072,5.068-8.331,8.236
		c-1.517,2.128-2.781,4.423-3.774,6.841c-1.654,4.031-2.557,8.399-2.557,12.899l0.007,40.912l0.005,26.204l0.006,36.859
		L255.043,9.073C249.473,9.222,243.931,10.722,238.939,13.605z"/>
	<path style="fill:#ED1F34;" d="M474.426,216.693l-0.005-26.204l-0.006-40.985c-0.001-2.996-0.409-5.93-1.161-8.75
		c-0.405-1.517-0.915-2.997-1.521-4.435c-2.477-5.877-6.574-11.016-11.924-14.74c-0.784-0.545-1.584-1.071-2.421-1.554l-22.874-13.2
		l-21.414-12.358l-17.24-9.949l-65.924-38.046L304.22,31.629l-19.288-11.132l-11.953-6.898c-4.967-2.867-10.478-4.364-16.02-4.526
		l217.472,244.478L474.426,216.693z"/>
</g>
<polygon style="fill:#FFE000;" points="175.037,230.088 234.648,227.008 255.999,171.265 277.349,227.008 336.962,230.088 
	290.546,267.618 306.037,325.265 255.999,292.717 205.963,325.265 221.454,267.618 "/>
<path d="M345.56,227.294c-1.157-3.562-4.392-6.042-8.132-6.235l-53.738-2.776l-19.246-50.251c-1.339-3.497-4.697-5.807-8.443-5.807
	s-7.104,2.311-8.443,5.807l-19.246,50.251l-53.738,2.776c-3.742,0.194-6.975,2.674-8.132,6.235
	c-1.157,3.562,0.001,7.469,2.914,9.825l41.844,33.833l-13.966,51.966c-0.973,3.617,0.387,7.46,3.418,9.661
	c3.029,2.201,7.103,2.305,10.245,0.264l45.107-29.34l45.107,29.34c1.502,0.976,3.218,1.462,4.931,1.462
	c1.869,0,3.733-0.577,5.314-1.726c3.031-2.202,4.391-6.044,3.418-9.661l-13.966-51.966l41.844-33.833
	C345.559,234.763,346.717,230.856,345.56,227.294z M284.861,260.588c-2.781,2.248-3.975,5.924-3.046,9.377l9.366,34.849
	l-30.249-19.676c-1.498-0.975-3.215-1.462-4.931-1.462c-1.715,0-3.432,0.487-4.931,1.462l-30.249,19.676l9.366-34.849
	c0.928-3.453-0.266-7.129-3.046-9.377l-28.06-22.689l36.038-1.861c3.572-0.184,6.699-2.457,7.977-5.796l12.906-33.698l12.906,33.698
	c1.279,3.339,4.405,5.61,7.977,5.796l36.038,1.861L284.861,260.588z M483.456,149.505c0-3.709-0.493-7.437-1.463-11.075
	c-0.503-1.887-1.15-3.777-1.928-5.623c-3.18-7.542-8.399-13.99-15.091-18.646c-1.113-0.775-2.086-1.398-3.066-1.964L277.499,5.768
	c-6.088-3.513-12.964-5.461-19.975-5.717c-0.049-0.002-0.099-0.002-0.149-0.005C256.904,0.031,256.436,0,255.964,0
	c-0.454,0-0.908,0.03-1.361,0.045c-0.039,0.001-0.076,0.001-0.116,0.004c-7.045,0.242-13.956,2.195-20.071,5.726L50.047,112.263
	c-0.943,0.545-1.89,1.149-2.985,1.907c-4.086,2.831-7.632,6.335-10.545,10.419c-1.911,2.681-3.517,5.592-4.776,8.658
	c-2.146,5.23-3.234,10.724-3.234,16.332l0.036,212.917c0,0.927,0.034,1.882,0.105,2.917c0.017,0.241,0.039,0.481,0.064,0.721
	l0.013,0.127c0.06,0.694,0.133,1.384,0.229,2.094c0.036,0.259,0.077,0.516,0.133,0.866c0.111,0.697,0.236,1.388,0.382,2.084
	c0.054,0.253,0.108,0.508,0.163,0.745c0.176,0.778,0.377,1.545,0.604,2.341c0.04,0.149,0.082,0.298,0.115,0.403
	c1.143,3.828,2.821,7.485,4.986,10.873c0.025,0.039,0.049,0.076,0.075,0.115c1.471,2.283,3.16,4.431,4.998,6.363
	c0.046,0.051,0.168,0.18,0.215,0.228c0.892,0.925,1.841,1.824,2.826,2.675l0.481,0.405c1.098,0.923,2.111,1.705,3.097,2.391
	c1.115,0.775,2.087,1.397,3.062,1.96L234.5,506.23c6.247,3.604,13.323,5.565,20.524,5.735c0.007,0,0.013,0.001,0.019,0.001
	c0.001,0,0.004,0,0.005,0c0.329,0.007,0.657,0.033,0.986,0.033c0.306,0,0.61-0.024,0.915-0.03c0.001,0,0.002,0,0.004,0
	c0.005,0,0.01,0,0.014,0c7.233-0.158,14.342-2.123,20.616-5.746l184.37-106.487c0.943-0.545,1.89-1.149,2.987-1.908
	c0.984-0.682,1.996-1.46,3.107-2.388l0.475-0.398c0.986-0.85,1.938-1.748,2.85-2.69l0.153-0.162
	c4.695-4.904,8.205-10.929,10.124-17.344c0.053-0.169,0.101-0.339,0.14-0.486c0.224-0.773,0.427-1.554,0.609-2.345
	c0.058-0.253,0.112-0.508,0.168-0.769c0.142-0.684,0.269-1.372,0.379-2.067l0.021-0.121c0.04-0.256,0.08-0.511,0.119-0.787
	c0.093-0.687,0.168-1.379,0.227-2.063l0.014-0.145c0.025-0.239,0.047-0.479,0.063-0.72c0.072-1.058,0.106-2.019,0.105-2.931
	L483.456,149.505z M255.999,490.401L47.49,255.999l208.509-234.4l208.51,234.401L255.999,490.401z M454.646,129.003
	c3.881,2.7,6.908,6.446,8.756,10.824c0.452,1.074,0.828,2.169,1.119,3.26c0.567,2.124,0.854,4.283,0.854,6.421l0.013,80.273
	L292.28,35.177l160.59,92.68C453.396,128.161,453.959,128.524,454.646,129.003z M48.469,140.114
	c0.732-1.783,1.666-3.476,2.773-5.028c1.696-2.378,3.754-4.415,6.114-6.051c0.674-0.465,1.222-0.819,1.731-1.111l160.689-92.809
	L46.604,229.789l-0.014-80.212C46.59,146.337,47.223,143.152,48.469,140.114z M57.354,382.999c-0.538-0.375-1.108-0.817-1.814-1.41
	l-0.262-0.217c-0.573-0.495-1.125-1.017-1.577-1.486c-0.033-0.035-0.137-0.148-0.172-0.183c-1.086-1.14-2.072-2.395-2.929-3.73
	c-0.011-0.016-0.02-0.031-0.029-0.047c-1.259-1.966-2.233-4.088-2.887-6.28l-0.075-0.268c-0.128-0.444-0.244-0.891-0.351-1.357
	l-0.094-0.436c-0.081-0.389-0.153-0.781-0.219-1.198l-0.078-0.5c-0.054-0.4-0.094-0.803-0.131-1.221l-0.046-0.476
	c-0.037-0.561-0.063-1.125-0.063-1.7l-0.014-80.267l173.108,194.603l-160.59-92.68C58.605,383.839,58.04,383.475,57.354,382.999z
	 M465.348,364.1l-0.051,0.52c-0.035,0.406-0.076,0.811-0.129,1.195l-0.082,0.53c-0.064,0.404-0.137,0.804-0.219,1.197l-0.095,0.441
	c-0.105,0.457-0.224,0.909-0.363,1.389l-0.061,0.224c-1.13,3.759-3.164,7.249-5.902,10.109l-0.083,0.09
	c-0.515,0.532-1.068,1.052-1.639,1.546l-0.286,0.239c-0.676,0.564-1.263,1.019-1.79,1.384c-0.674,0.465-1.222,0.819-1.731,1.111
	l-160.689,92.809L465.397,282.21l0.013,80.225C465.409,363.004,465.384,363.566,465.348,364.1z"/>
<g>
</g>
<g>
</g>
<g>
</g>
<g>
</g>
<g>
</g>
<g>
</g>
<g>
</g>
<g>
</g>
<g>
</g>
<g>
</g>
<g>
</g>
<g>
</g>
<g>
</g>
<g>
</g>
<g>
</g>
</svg>
