<?xml version="1.0" encoding="iso-8859-1"?>
<!-- Generator: Adobe Illustrator 19.0.0, SVG Export Plug-In . SVG Version: 6.00 Build 0)  -->
<svg version="1.1" id="Layer_1" xmlns="http://www.w3.org/2000/svg" xmlns:xlink="http://www.w3.org/1999/xlink" x="0px" y="0px"
	 viewBox="0 0 512 512" style="enable-background:new 0 0 512 512;" xml:space="preserve">
<path style="fill:#FFE000;" d="M473.102,371.851c0.176-0.611,0.338-1.228,0.479-1.85c0.047-0.201,0.089-0.401,0.131-0.603
	c0.113-0.541,0.213-1.085,0.3-1.634c0.037-0.236,0.076-0.473,0.11-0.711c0.076-0.545,0.131-1.093,0.18-1.643
	c0.021-0.225,0.047-0.447,0.063-0.674c0.052-0.767,0.084-1.537,0.084-2.313l0,0l0,0v-0.006l-0.005-40.904v-0.001l-0.005-26.204
	v-0.002l-0.001-4.213l-0.004-25.574l0,0l-0.008-48.824l-0.005-26.204l-0.007-40.985c0-2.996-0.406-5.93-1.16-8.75
	c-0.405-1.517-0.915-2.997-1.52-4.435c-2.479-5.877-6.575-11.016-11.925-14.74c-0.784-0.545-1.584-1.071-2.421-1.554l-22.874-13.2
	l-21.414-12.358l-17.24-9.949L329.935,46.47l-25.717-14.842l-19.288-11.132l-11.953-6.898c-10.533-6.078-23.509-6.077-34.04,0.006
	l-11.872,6.857l-19.288,11.14l-25.717,14.854l0,0l-65.913,38.072l-28.89,16.686l-21.408,12.365l-11.282,6.517
	c-0.811,0.469-1.59,0.979-2.353,1.507c-3.272,2.266-6.073,5.068-8.331,8.236c-1.517,2.128-2.781,4.423-3.773,6.841
	c-1.655,4.031-2.558,8.399-2.557,12.899l0.006,40.912l0.005,26.204l0.012,73.738v4.011v0.849v0.002v0.013l0,0v0.005l0,0l0.005,26.2
	l0,0v1.864l0.002,12.617l0.004,26.497v0.006l0,0c0,0.773,0.033,1.539,0.084,2.304c0.016,0.224,0.042,0.446,0.061,0.669
	c0.048,0.55,0.105,1.096,0.18,1.638c0.033,0.236,0.072,0.471,0.108,0.706c0.087,0.546,0.186,1.087,0.298,1.626
	c0.042,0.201,0.086,0.403,0.131,0.603c0.14,0.615,0.298,1.222,0.471,1.825c0.033,0.113,0.061,0.227,0.095,0.34
	c0.909,3.043,2.24,5.93,3.94,8.589c0,0,0,0.001,0.001,0.002l0.001,0.001c1.172,1.832,2.517,3.551,4.025,5.137
	c0.051,0.052,0.099,0.106,0.148,0.158c0.709,0.735,1.454,1.441,2.231,2.112c0.125,0.11,0.254,0.215,0.382,0.322
	c0.786,0.661,1.595,1.3,2.445,1.89c0.784,0.545,1.584,1.07,2.419,1.554l22.552,13.015l21.414,12.359l17.561,10.135l91.644,52.89
	l19.288,11.132l11.953,6.898c10.533,6.078,23.509,6.077,34.04-0.006l11.872-6.857l19.288-11.14l25.717-14.853l55.554-32.086
	l10.363-5.985l26.36-15.224l21.408-12.365l13.813-7.978c0.813-0.469,1.59-0.979,2.353-1.507c0.85-0.59,1.659-1.226,2.445-1.883
	c0.129-0.107,0.259-0.213,0.386-0.322c0.779-0.673,1.526-1.375,2.236-2.11c0.046-0.048,0.09-0.098,0.136-0.146
	c3.725-3.891,6.475-8.609,8.019-13.765C473.044,372.067,473.072,371.958,473.102,371.851z"/>
<path style="fill:#FF7900;" d="M474.444,321.511l-0.005-26.204v-0.002l-0.001-4.213l-0.004-25.574l-0.008-48.824l-0.005-26.204
	l-0.007-40.985c0-2.996-0.406-5.93-1.16-8.75c-0.405-1.517-0.914-2.997-1.52-4.435c-2.479-5.877-6.575-11.016-11.925-14.74
	c-0.36-0.251-0.743-0.474-1.111-0.714L53.3,391.132c0.434,0.282,0.856,0.579,1.308,0.84l22.552,13.015l21.414,12.359l17.561,10.135
	l91.644,52.89l19.288,11.132l11.953,6.898c10.533,6.078,23.509,6.077,34.04-0.006l11.872-6.857l19.288-11.14l25.717-14.853
	l55.554-32.086l10.363-5.985l26.36-15.225l21.408-12.365l13.813-7.978c0.813-0.469,1.59-0.979,2.353-1.507
	c0.85-0.59,1.659-1.226,2.445-1.883c0.129-0.107,0.259-0.213,0.386-0.322c0.779-0.673,1.526-1.375,2.236-2.11
	c0.047-0.048,0.09-0.098,0.136-0.146c3.724-3.891,6.475-8.609,8.019-13.765c0.033-0.106,0.06-0.215,0.09-0.322
	c0.176-0.611,0.338-1.228,0.479-1.85c0.047-0.201,0.089-0.401,0.131-0.603c0.113-0.541,0.213-1.085,0.3-1.634
	c0.037-0.236,0.076-0.473,0.11-0.711c0.076-0.545,0.131-1.093,0.18-1.643c0.021-0.225,0.047-0.447,0.063-0.674
	c0.052-0.767,0.084-1.537,0.084-2.313l0,0v-0.006l-0.003-40.904V321.511z"/>
<path style="fill:#FFFFFF;" d="M278.53,234.251c32.902,0,59.574,26.672,59.574,59.574c0,32.901-26.672,59.574-59.574,59.574H138.694
	c-12.012,0-21.749-9.737-21.749-21.749c0-12.011,9.737-21.749,21.749-21.749H278.53c8.879,0,16.077-7.198,16.077-16.077
	c0-8.88-7.198-16.077-16.077-16.077h-46.995c-32.902,0-59.574-26.672-59.574-59.574s26.672-59.574,59.574-59.574h156.768v21.749
	c0,12.011-9.737,21.749-21.749,21.749H231.535c-8.879,0-16.077,7.198-16.077,16.077s7.198,16.077,16.077,16.077L278.53,234.251
	L278.53,234.251z"/>
<path d="M400.646,180.348c0-2.814-1.285-5.326-3.301-6.985v-14.764v-8.779c0-4.993-4.047-9.041-9.041-9.041
	c-4.904,0-8.887,3.908-9.028,8.779h-37.631v-10.214c0-4.993-4.047-9.041-9.041-9.041s-9.041,4.048-9.041,9.041v10.214h-4.656
	v-10.214c0-4.993-4.047-9.041-9.041-9.041s-9.041,4.048-9.041,9.041v10.214h-4.657v-21.217c0-4.993-4.047-9.041-9.041-9.041
	s-9.041,4.048-9.041,9.041v21.217h-4.656v-21.217c0-4.993-4.047-9.041-9.041-9.041s-9.041,4.048-9.041,9.041v21.217h-23.809
	c-37.835,0-68.616,30.782-68.616,68.616s30.781,68.616,68.616,68.616h46.995c3.879,0,7.035,3.156,7.035,7.035
	s-3.156,7.035-7.035,7.035H138.694h-29.451c-4.993,0-9.041,4.048-9.041,9.041s4.048,9.041,9.041,9.041h1.416
	c-0.539,1.185-1.011,2.407-1.4,3.666H98.24c-4.993,0-9.041,4.048-9.041,9.041s4.048,9.041,9.041,9.041h11.021
	c0.388,1.259,0.86,2.481,1.398,3.666h-1.415c-4.993,0-9.041,4.048-9.041,9.041c0,4.993,4.048,9.041,9.041,9.041h29.451h37.978v4.712
	c0,14.086,11.46,25.546,25.546,25.546h22.555c4.993,0,9.041-4.048,9.041-9.041c0-4.994-4.048-9.041-9.041-9.041h-22.555
	c-4.116,0-7.463-3.348-7.463-7.463v-4.712h47.935v4.712c0,14.086,11.46,25.546,25.545,25.546h22.556
	c4.994,0,9.041-4.048,9.041-9.041c0-4.994-4.047-9.041-9.041-9.041h-22.556c-4.114,0-7.462-3.348-7.462-7.463v-4.712h17.756
	c37.835,0,68.617-30.782,68.617-68.616s-30.782-68.616-68.617-68.616h-46.995c-3.879,0-7.035-3.156-7.035-7.035
	s3.156-7.035,7.035-7.035h92.027v4.724c0,14.087,11.461,25.546,25.546,25.546h22.555c4.994,0,9.041-4.048,9.041-9.041
	c0-4.993-4.047-9.041-9.041-9.041h-22.555c-4.116,0-7.463-3.348-7.463-7.463v-4.724h24.91c14.331,0,26.406-9.842,29.822-23.122
	C398.937,186.42,400.646,183.587,400.646,180.348z M231.535,193.056c-13.85,0-25.118,11.268-25.118,25.118
	s11.268,25.118,25.118,25.118h46.995c27.864,0,50.534,22.67,50.534,50.533c0,27.864-22.67,50.533-50.534,50.533h-83.787
	c-0.128-4.881-4.117-8.801-9.029-8.801c-4.913,0-8.902,3.92-9.029,8.801h-37.99c-7.008,0-12.707-5.701-12.707-12.707
	s5.701-12.707,12.707-12.707H278.53c13.85,0,25.118-11.268,25.118-25.118s-11.268-25.118-25.118-25.118h-46.995
	c-27.864,0-50.533-22.67-50.533-50.533c0-27.864,22.669-50.533,50.533-50.533h69.631c1.066,3.807,4.551,6.601,8.699,6.601
	c4.148,0,7.633-2.794,8.699-6.601h5.342c1.066,3.807,4.551,6.601,8.699,6.601c4.148,0,7.633-2.794,8.699-6.601h37.959v3.666h-13.649
	c-4.994,0-9.041,4.048-9.041,9.041s4.047,9.041,9.041,9.041h9.858c-2.295,2.264-5.444,3.666-8.916,3.666L231.535,193.056
	L231.535,193.056z M256.035,512L256.035,512c-7.55,0-14.995-1.995-21.534-5.768L50.09,399.803c-0.978-0.564-1.951-1.187-3.064-1.961
	c-0.985-0.686-1.999-1.467-3.096-2.389l-0.489-0.412c-0.976-0.844-1.926-1.743-2.817-2.669c-0.042-0.045-0.163-0.172-0.204-0.217
	c-1.864-1.958-3.565-4.124-5.043-6.425c-0.013-0.021-0.027-0.042-0.04-0.063c-2.164-3.385-3.842-7.043-4.985-10.871l-0.112-0.392
	c-0.23-0.804-0.429-1.573-0.606-2.348c-0.055-0.245-0.11-0.499-0.164-0.755c-0.145-0.693-0.27-1.379-0.379-2.07l-0.025-0.152
	c-0.039-0.24-0.076-0.48-0.11-0.721c-0.098-0.712-0.17-1.403-0.231-2.096l-0.014-0.146c-0.024-0.233-0.046-0.467-0.061-0.702
	c-0.071-1.042-0.105-1.996-0.105-2.917L28.509,149.58c0-5.607,1.087-11.103,3.234-16.334c1.256-3.061,2.863-5.975,4.775-8.657
	c2.913-4.084,6.46-7.59,10.546-10.421c1.089-0.753,2.034-1.357,2.979-1.904L234.418,5.776C240.959,1.998,248.41,0,255.964,0
	c7.55,0,14.995,1.995,21.534,5.768l184.411,106.428c0.98,0.565,1.953,1.189,3.066,1.964c6.692,4.656,11.911,11.104,15.091,18.647
	c0.778,1.846,1.425,3.735,1.928,5.623c0.97,3.638,1.464,7.366,1.464,11.075l0.035,212.911c0.001,0.911-0.033,1.872-0.105,2.931
	c-0.016,0.241-0.037,0.48-0.063,0.72l-0.014,0.143c-0.06,0.685-0.134,1.375-0.227,2.063c-0.039,0.278-0.078,0.534-0.121,0.791
	l-0.019,0.121c-0.111,0.692-0.236,1.38-0.379,2.064c-0.057,0.265-0.11,0.517-0.168,0.769c-0.181,0.791-0.385,1.571-0.609,2.344
	c-0.04,0.151-0.087,0.316-0.137,0.481c-1.923,6.421-5.432,12.445-10.126,17.35l-0.153,0.163c-0.911,0.94-1.864,1.838-2.85,2.689
	l-0.475,0.398c-1.107,0.927-2.119,1.705-3.107,2.389c-1.096,0.758-2.043,1.362-2.987,1.907l-184.37,106.487
	C271.04,510.002,263.589,512,256.035,512z M50.543,375.882c0.01,0.016,0.02,0.03,0.03,0.046c0.863,1.35,1.858,2.618,2.956,3.772
	c0.029,0.03,0.128,0.136,0.157,0.166c0.469,0.486,1.02,1.008,1.591,1.503l0.291,0.243c0.674,0.565,1.244,1.008,1.783,1.383
	c0.687,0.479,1.253,0.843,1.778,1.146l184.408,106.428c3.794,2.189,8.114,3.346,12.495,3.346c4.383,0,8.707-1.158,12.504-3.351
	l184.373-106.49c0.509-0.293,1.057-0.646,1.731-1.111c0.529-0.368,1.118-0.822,1.788-1.383l0.288-0.24
	c0.573-0.493,1.126-1.014,1.639-1.546l0.077-0.084c2.745-2.868,4.78-6.358,5.908-10.118l0.063-0.224
	c0.137-0.477,0.257-0.929,0.362-1.386l0.096-0.446c0.08-0.386,0.154-0.787,0.218-1.191l0.083-0.533
	c0.052-0.381,0.093-0.787,0.128-1.193l0.051-0.518c0.036-0.534,0.063-1.097,0.061-1.664l-0.035-212.931
	c0-2.136-0.287-4.295-0.854-6.419c-0.291-1.09-0.667-2.186-1.119-3.26c-1.847-4.378-4.875-8.124-8.756-10.824
	c-0.686-0.477-1.25-0.841-1.777-1.145L268.459,21.429c-3.794-2.189-8.114-3.347-12.495-3.347c-4.383,0-8.707,1.159-12.504,3.351
	L59.086,127.924c-0.509,0.294-1.058,0.647-1.73,1.111c-2.36,1.636-4.419,3.672-6.116,6.05c-1.107,1.554-2.04,3.244-2.77,5.025
	c-1.248,3.042-1.881,6.227-1.881,9.466l0.035,212.91c0,0.576,0.025,1.139,0.064,1.7l0.048,0.497c0.035,0.398,0.076,0.8,0.13,1.199
	l0.081,0.521c0.063,0.393,0.135,0.791,0.217,1.186l0.093,0.429c0.105,0.463,0.223,0.91,0.351,1.354l0.066,0.239
	C48.335,371.819,49.299,373.926,50.543,375.882z"/>
<g>
</g>
<g>
</g>
<g>
</g>
<g>
</g>
<g>
</g>
<g>
</g>
<g>
</g>
<g>
</g>
<g>
</g>
<g>
</g>
<g>
</g>
<g>
</g>
<g>
</g>
<g>
</g>
<g>
</g>
</svg>
