<?xml version="1.0" encoding="iso-8859-1"?>
<!-- Generator: Adobe Illustrator 19.0.0, SVG Export Plug-In . SVG Version: 6.00 Build 0)  -->
<svg version="1.1" id="Layer_1" xmlns="http://www.w3.org/2000/svg" xmlns:xlink="http://www.w3.org/1999/xlink" x="0px" y="0px"
	 viewBox="0 0 512 512" style="enable-background:new 0 0 512 512;" xml:space="preserve">
<path style="fill:#FFFFFF;" d="M474.446,321.512v-0.002l-0.005-26.203v-0.002v-4.213l-0.005-25.574l-0.008-48.824l-0.004-26.203
	l-0.007-40.985c0-2.995-0.407-5.931-1.16-8.75c-0.405-1.517-0.915-2.997-1.521-4.435c-2.477-5.876-6.574-11.016-11.925-14.74
	c-0.784-0.545-1.584-1.071-2.421-1.553l-22.872-13.202l-21.415-12.358l-17.24-9.949L329.94,46.473l-25.719-14.844l-19.288-11.132
	l-11.952-6.899c-10.534-6.078-23.51-6.076-34.04,0.007l-11.873,6.857l-19.288,11.14l-25.717,14.853l0,0l-50.39,29.105l-15.527,8.967
	l-28.889,16.686l-21.408,12.365l-11.282,6.516c-0.813,0.469-1.59,0.98-2.353,1.507c-3.273,2.268-6.072,5.067-8.331,8.236
	c-1.517,2.127-2.782,4.422-3.774,6.841c-1.654,4.032-2.557,8.399-2.557,12.899v1.502h0.001l0.007,39.41v1.931h-0.001l0.005,24.273
	l0.005,31.087h0.001l0.007,41.338h-0.001v1.313l0.001,4.011v0.849v0.002v0.013v0.005l0.005,26.198v0.002v1.863l0.002,12.617
	l0.001,8.488l0,0l0.004,18.008v0.007l0,0c0,0.773,0.031,1.539,0.083,2.305c0.017,0.224,0.042,0.445,0.063,0.668
	c0.048,0.55,0.105,1.096,0.18,1.639c0.031,0.235,0.071,0.47,0.108,0.706c0.087,0.544,0.184,1.085,0.298,1.625
	c0.042,0.201,0.084,0.403,0.13,0.603c0.14,0.615,0.298,1.222,0.471,1.825c0.033,0.113,0.063,0.228,0.095,0.34
	c0.909,3.043,2.24,5.93,3.941,8.588c0,0.001,0.001,0.002,0.001,0.004l0.001,0.001c1.172,1.832,2.517,3.551,4.026,5.137
	c0.049,0.053,0.098,0.106,0.148,0.159c0.061,0.064,0.13,0.119,0.193,0.181h-0.001c0.653,0.668,1.33,1.316,2.039,1.931
	c0.125,0.11,0.254,0.215,0.382,0.322c0.785,0.661,1.594,1.298,2.444,1.89c0.784,0.545,1.584,1.07,2.421,1.553l22.552,13.016
	l21.414,12.359l11.528,6.653l0,0l6.032,3.482l91.644,52.89l19.288,11.132l11.953,6.899c10.533,6.078,23.51,6.076,34.04-0.007
	l11.872-6.857l19.288-11.14l25.719-14.853l55.553-32.086l10.363-5.985l26.361-15.225l21.408-12.365l13.812-7.977
	c0.813-0.469,1.591-0.98,2.353-1.507c0.851-0.588,1.659-1.226,2.446-1.884c0.128-0.106,0.258-0.212,0.385-0.323
	c0.779-0.672,1.526-1.374,2.236-2.108c0.047-0.048,0.09-0.098,0.136-0.145c3.725-3.893,6.476-8.61,8.02-13.767
	c0.031-0.106,0.06-0.215,0.09-0.322c0.176-0.611,0.336-1.228,0.479-1.849c0.046-0.201,0.088-0.403,0.13-0.604
	c0.113-0.54,0.213-1.084,0.3-1.632c0.039-0.237,0.076-0.474,0.11-0.712c0.076-0.545,0.131-1.093,0.181-1.643
	c0.019-0.225,0.046-0.448,0.061-0.674c0.052-0.767,0.084-1.537,0.084-2.313l0,0v-0.006L474.446,321.512z"/>
<path style="fill:#ED1F34;" d="M65.849,113.578l-11.282,6.516c-0.813,0.469-1.59,0.98-2.353,1.507
	c-3.273,2.268-6.072,5.067-8.331,8.236c-1.517,2.127-2.782,4.422-3.774,6.841c-1.654,4.032-2.557,8.399-2.557,12.899v0.442h436.867
	v-0.516c0-2.995-0.408-5.931-1.16-8.75c-0.405-1.517-0.915-2.997-1.521-4.435c-2.477-5.876-6.574-11.016-11.925-14.74
	c-0.784-0.545-1.584-1.07-2.421-1.553l-22.872-13.202l-14.283-8.241H91.808l-4.551,2.628L65.849,113.578z"/>
<polygon style="fill:#103B9B;" points="474.417,150.02 37.55,150.02 37.55,151.079 37.551,151.079 37.558,190.49 37.558,192.42 
	37.557,192.42 37.559,201.456 474.425,201.456 474.424,190.49 "/>
<polygon style="fill:#ED1F34;" points="37.575,289.119 37.574,289.119 37.574,290.431 37.575,294.442 37.575,295.291 
	37.575,295.293 37.575,295.307 37.575,295.311 37.576,304.326 474.443,304.326 474.441,295.307 474.441,295.304 474.441,291.091 
	474.436,265.517 474.434,252.892 37.569,252.892 "/>
<polygon style="fill:#103B9B;" points="474.446,321.51 474.443,304.326 37.576,304.326 37.58,321.51 37.58,321.512 37.58,323.375 
	37.582,335.992 37.583,344.48 37.583,344.48 37.586,355.762 474.45,355.762 474.446,321.512 "/>
<polygon style="fill:#ED1F34;" points="98.577,417.346 110.105,423.999 110.105,423.999 116.137,427.481 170.117,458.633 
	341.904,458.633 385.493,433.458 395.855,427.473 422.216,412.248 430.959,407.198 80.994,407.198 "/>
<path style="fill:#FFFFFF;" d="M256.001,9.044c-2.94-0.004-5.882,0.374-8.748,1.131c-0.004,0.002-0.008,0.002-0.012,0.004
	c-0.665,0.176-1.325,0.377-1.982,0.594c-0.052,0.019-0.105,0.03-0.157,0.048c-0.614,0.206-1.221,0.439-1.826,0.682
	c-0.09,0.036-0.183,0.065-0.275,0.102c-0.528,0.217-1.046,0.462-1.566,0.706c-0.163,0.076-0.329,0.141-0.492,0.222
	c-0.563,0.277-1.116,0.58-1.667,0.89c-0.112,0.064-0.227,0.118-0.336,0.181l-11.873,6.857l-19.288,11.14L182.06,46.455l0,0
	l-65.913,38.073l-28.89,16.686L65.85,113.578l-11.284,6.516c-0.811,0.469-1.589,0.98-2.352,1.507
	c-1.636,1.133-3.155,2.4-4.546,3.781c-1.391,1.379-2.656,2.872-3.787,4.456c-0.948,1.33-1.784,2.732-2.532,4.182
	c-0.447,0.869-0.87,1.752-1.242,2.659c-0.251,0.61-0.479,1.228-0.692,1.854c-0.019,0.054-0.035,0.108-0.054,0.164
	c-0.205,0.609-0.394,1.221-0.567,1.84c0,0.001,0,0.002,0,0.002c-0.001,0.001-0.001,0.002-0.001,0.002
	c-0.398,1.433-0.704,2.898-0.915,4.387c-0.01,0.066-0.016,0.133-0.025,0.199c-0.082,0.616-0.145,1.237-0.194,1.861
	c-0.012,0.163-0.025,0.324-0.035,0.486c-0.045,0.698-0.075,1.398-0.075,2.104l0.001,7.842l-0.001,98.58h21.505h34.72h14.965v-66.914
	l88.984,66.914h58.275v-28.59V212.18l-72.822-54.761h72.822v-16.881v-39.161V84.496h-72.822l72.822-54.76V9.044z"/>
<g>
	<polygon style="fill:#ED1F34;" points="124.903,157.419 256.001,255.999 256.001,227.409 163.145,157.419 	"/>
	<path style="fill:#ED1F34;" d="M59.056,140.538v115.461h34.72V140.538h162.224v-39.161H93.776v-3.929l-6.519,3.765L65.85,113.578
		l-11.284,6.516c-0.811,0.469-1.589,0.98-2.352,1.507c-1.636,1.133-3.155,2.4-4.546,3.781c-1.391,1.379-2.656,2.872-3.787,4.456
		c-0.948,1.33-1.784,2.732-2.532,4.182c-0.447,0.869-0.87,1.752-1.242,2.659c-0.251,0.61-0.479,1.228-0.692,1.854
		c-0.019,0.054-0.035,0.108-0.054,0.164c-0.205,0.609-0.394,1.221-0.567,1.84c0,0.001,0,0.002,0,0.002H59.056z"/>
</g>
<g>
	<polygon style="fill:#103B9B;" points="183.179,84.496 256.001,84.496 256.001,29.737 	"/>
	<polygon style="fill:#103B9B;" points="183.179,157.419 256.001,212.18 256.001,157.419 	"/>
	<polygon style="fill:#103B9B;" points="108.741,189.087 108.741,255.999 197.727,255.999 	"/>
</g>
<path d="M483.458,149.505c0-3.708-0.494-7.437-1.465-11.076c-0.501-1.885-1.149-3.777-1.926-5.623
	c-3.181-7.542-8.399-13.99-15.091-18.646c-1.114-0.775-2.086-1.398-3.066-1.964L277.5,5.767C270.962,1.995,263.517,0,255.966,0
	c-7.554,0-15.005,1.998-21.546,5.776L50.05,112.263c-0.944,0.544-1.891,1.149-2.985,1.907c-4.087,2.831-7.633,6.335-10.546,10.419
	c-1.91,2.68-3.515,5.592-4.776,8.658c-2.146,5.23-3.234,10.724-3.234,16.334l0.037,212.915c0,0.928,0.033,1.882,0.105,2.917
	c0.016,0.241,0.037,0.48,0.063,0.721l0.014,0.127c0.06,0.694,0.131,1.384,0.228,2.094c0.036,0.26,0.078,0.516,0.133,0.866
	c0.112,0.697,0.236,1.389,0.382,2.077c0.052,0.256,0.106,0.51,0.163,0.756c0.178,0.776,0.377,1.544,0.604,2.337
	c0.04,0.149,0.082,0.299,0.115,0.405c1.139,3.809,2.805,7.45,4.953,10.818c0.012,0.019,0.024,0.037,0.036,0.057
	c1.483,2.323,3.198,4.51,5.068,6.474c0.046,0.049,0.168,0.178,0.216,0.228c0.891,0.926,1.84,1.824,2.825,2.675l0.481,0.405
	c1.098,0.923,2.111,1.705,3.097,2.391c1.116,0.775,2.087,1.397,3.062,1.96L234.5,506.233c6.539,3.772,13.986,5.767,21.534,5.767
	c7.556,0,15.006-1.998,21.549-5.776l184.37-106.487c0.943-0.544,1.89-1.149,2.988-1.907c0.989-0.687,2.004-1.466,3.107-2.389
	l0.474-0.398c0.986-0.85,1.938-1.747,2.85-2.688l0.153-0.163c4.695-4.904,8.206-10.929,10.124-17.344
	c0.052-0.168,0.101-0.334,0.141-0.487c0.224-0.774,0.427-1.554,0.608-2.342c0.059-0.254,0.113-0.509,0.168-0.77
	c0.142-0.682,0.269-1.371,0.379-2.067l0.022-0.123c0.04-0.253,0.08-0.508,0.118-0.786c0.094-0.686,0.168-1.378,0.227-2.063
	l0.016-0.143c0.024-0.239,0.046-0.477,0.061-0.72c0.074-1.058,0.106-2.019,0.105-2.931L483.458,149.505z M46.591,149.577
	c0-3.24,0.633-6.425,1.879-9.463c0.732-1.783,1.667-3.476,2.774-5.029c1.695-2.378,3.753-4.415,6.114-6.049
	c0.674-0.467,1.221-0.82,1.73-1.113L243.463,21.434c1.122-0.647,2.294-1.193,3.496-1.659v227.183H46.609L46.591,149.577z
	 M465.349,364.098l-0.051,0.521c-0.035,0.406-0.076,0.813-0.128,1.191l-0.083,0.534c-0.064,0.403-0.137,0.804-0.219,1.196
	l-0.094,0.44c-0.106,0.459-0.224,0.911-0.363,1.389l-0.061,0.222c-1.13,3.76-3.164,7.251-5.902,10.113l-0.084,0.092
	c-0.514,0.53-1.068,1.051-1.638,1.544l-0.289,0.24c-0.67,0.561-1.257,1.015-1.787,1.382c-0.674,0.467-1.222,0.82-1.731,1.113
	L268.542,490.566c-3.797,2.193-8.12,3.351-12.505,3.351c-4.38,0-8.703-1.157-12.495-3.347L59.132,384.143
	c-0.526-0.304-1.09-0.669-1.776-1.144c-0.539-0.376-1.109-0.819-1.816-1.41l-0.262-0.218c-0.573-0.495-1.124-1.019-1.577-1.486
	c-0.031-0.035-0.136-0.148-0.171-0.183c-1.086-1.142-2.075-2.397-2.929-3.73c-0.011-0.017-0.022-0.031-0.031-0.047
	c-1.256-1.966-2.23-4.088-2.886-6.28l-0.074-0.269c-0.129-0.445-0.245-0.891-0.351-1.351l-0.094-0.442
	c-0.082-0.388-0.154-0.78-0.219-1.198l-0.078-0.499c-0.054-0.4-0.095-0.803-0.133-1.222l-0.046-0.474
	c-0.036-0.562-0.061-1.125-0.061-1.699l-0.018-97.447h209.389c4.994,0,9.041-4.047,9.041-9.041V19.803
	c1.175,0.457,2.322,0.993,3.419,1.627l184.41,106.427c0.528,0.304,1.09,0.668,1.778,1.145c3.881,2.699,6.908,6.446,8.754,10.824
	c0.452,1.074,0.829,2.169,1.119,3.259c0.567,2.124,0.855,4.283,0.855,6.421l0.034,212.93
	C465.41,363.004,465.385,363.567,465.349,364.098z"/>
<g>
</g>
<g>
</g>
<g>
</g>
<g>
</g>
<g>
</g>
<g>
</g>
<g>
</g>
<g>
</g>
<g>
</g>
<g>
</g>
<g>
</g>
<g>
</g>
<g>
</g>
<g>
</g>
<g>
</g>
</svg>
