<?xml version="1.0" encoding="iso-8859-1"?>
<!-- Generator: Adobe Illustrator 19.0.0, SVG Export Plug-In . SVG Version: 6.00 Build 0)  -->
<svg version="1.1" id="Layer_1" xmlns="http://www.w3.org/2000/svg" xmlns:xlink="http://www.w3.org/1999/xlink" x="0px" y="0px"
	 viewBox="0 0 512 512" style="enable-background:new 0 0 512 512;" xml:space="preserve">
<path style="fill:#FFFFFF;" d="M473.103,371.851c0.176-0.611,0.336-1.228,0.479-1.85c0.046-0.2,0.088-0.401,0.13-0.603
	c0.115-0.54,0.213-1.085,0.3-1.634c0.039-0.236,0.076-0.473,0.11-0.711c0.076-0.545,0.131-1.092,0.181-1.643
	c0.019-0.225,0.046-0.447,0.061-0.674c0.053-0.767,0.084-1.537,0.084-2.313l0,0l0,0v-0.006l-0.005-40.904v-0.002l-0.005-26.203
	v-0.002v-4.213l-0.005-25.574l0,0l-0.008-48.824l-0.004-26.204l-0.007-40.984c-0.001-2.995-0.408-5.931-1.16-8.75
	c-0.405-1.517-0.915-2.997-1.521-4.435c-2.477-5.877-6.574-11.017-11.925-14.74c-0.784-0.545-1.584-1.071-2.421-1.553
	l-22.871-13.202l-21.415-12.358l-17.24-9.949l-65.924-38.046L304.22,31.629l-19.288-11.132l-11.952-6.899
	c-10.534-6.078-23.51-6.076-34.04,0.007l-11.872,6.857l-19.288,11.14l-25.717,14.854v-0.001l-65.917,38.072l-28.889,16.686
	l-21.408,12.365l-11.284,6.517c-0.811,0.468-1.59,0.979-2.353,1.506c-3.272,2.268-6.073,5.068-8.333,8.235
	c-1.517,2.129-2.781,4.424-3.773,6.843c-1.655,4.031-2.558,8.399-2.557,12.899l0.007,40.912l0.004,26.204l0.012,73.738v4.011v0.85
	v0.001v0.013l0,0v0.005l0,0l0.004,26.2l0,0v1.864l0.001,12.617l0.005,26.497v0.006l0,0c0,0.773,0.033,1.539,0.084,2.305
	c0.016,0.223,0.042,0.445,0.061,0.668c0.048,0.548,0.105,1.096,0.18,1.638c0.033,0.236,0.071,0.471,0.108,0.708
	c0.087,0.544,0.186,1.086,0.298,1.625c0.042,0.201,0.084,0.403,0.13,0.603c0.14,0.615,0.298,1.222,0.471,1.825
	c0.033,0.113,0.061,0.227,0.095,0.34c0.909,3.042,2.24,5.93,3.94,8.589l0.001,0.001l0.001,0.002
	c1.172,1.832,2.517,3.551,4.026,5.137c0.051,0.052,0.098,0.106,0.148,0.158c0.709,0.735,1.454,1.439,2.231,2.113
	c0.125,0.11,0.254,0.215,0.382,0.322c0.786,0.661,1.595,1.298,2.445,1.89c0.784,0.545,1.584,1.07,2.421,1.553l22.55,13.015
	l21.415,12.36l17.561,10.134l91.644,52.89l19.288,11.132l11.953,6.899c10.534,6.078,23.51,6.076,34.04-0.007l11.872-6.857
	l19.288-11.14l25.719-14.853l55.553-32.086l10.364-5.985l26.36-15.225l21.408-12.365l13.813-7.978
	c0.811-0.468,1.59-0.979,2.352-1.506c0.851-0.588,1.659-1.226,2.446-1.884c0.128-0.107,0.258-0.212,0.385-0.322
	c0.779-0.673,1.526-1.375,2.237-2.11c0.046-0.048,0.09-0.098,0.136-0.146c3.724-3.891,6.475-8.609,8.019-13.765
	C473.044,372.067,473.073,371.958,473.103,371.851z"/>
<path style="fill:#259245;" d="M37.58,335.992l0.005,26.497v0.006l0,0c0,0.773,0.033,1.539,0.084,2.305
	c0.016,0.223,0.042,0.444,0.061,0.668c0.048,0.548,0.105,1.096,0.18,1.638c0.033,0.236,0.071,0.471,0.108,0.708
	c0.087,0.544,0.186,1.086,0.298,1.625c0.042,0.201,0.084,0.403,0.13,0.603c0.14,0.615,0.298,1.222,0.471,1.826
	c0.033,0.112,0.061,0.227,0.095,0.339c0.909,3.042,2.24,5.93,3.94,8.588c0,0.001,0.001,0.002,0.001,0.004l0.001,0.001
	c1.172,1.832,2.517,3.551,4.026,5.137c0.051,0.052,0.098,0.106,0.148,0.158c0.709,0.735,1.454,1.441,2.231,2.113
	c0.125,0.11,0.254,0.215,0.382,0.322c0.786,0.661,1.595,1.298,2.445,1.89c0.784,0.545,1.584,1.071,2.421,1.553l22.55,13.015
	l21.415,12.36l17.561,10.134l91.644,52.89l19.288,11.132l11.953,6.899c10.534,6.078,23.51,6.076,34.04-0.007l11.872-6.857
	l19.288-11.14l25.719-14.853l55.553-32.086l10.364-5.985l26.36-15.225l21.406-12.365l13.814-7.978
	c0.811-0.468,1.59-0.979,2.352-1.506c0.851-0.588,1.659-1.226,2.446-1.884c0.128-0.107,0.258-0.212,0.385-0.323
	c0.779-0.671,1.526-1.374,2.236-2.108c0.047-0.047,0.092-0.098,0.137-0.146c3.724-3.891,6.475-8.609,8.019-13.765
	c0.031-0.107,0.06-0.216,0.09-0.323c0.176-0.611,0.336-1.228,0.479-1.85c0.046-0.2,0.088-0.401,0.13-0.603
	c0.113-0.54,0.213-1.085,0.3-1.634c0.039-0.236,0.076-0.473,0.111-0.711c0.075-0.544,0.13-1.092,0.18-1.643
	c0.021-0.225,0.046-0.447,0.061-0.674c0.053-0.767,0.084-1.537,0.084-2.313l0,0v-0.006l-0.006-37.836H37.578L37.58,335.992z"/>
<path style="fill:#103B9B;" d="M114.673,187.42h359.748l-0.006-37.915c0-2.995-0.407-5.931-1.16-8.75
	c-0.405-1.517-0.915-2.997-1.521-4.435c-2.477-5.877-6.574-11.017-11.925-14.74c-0.784-0.545-1.584-1.071-2.421-1.553
	l-22.871-13.202l-21.415-12.358l-17.24-9.949l-65.924-38.046L304.22,31.629l-19.288-11.132l-11.952-6.899
	c-10.534-6.078-23.51-6.076-34.04,0.007l-11.872,6.857l-19.288,11.14l-25.717,14.854v-0.001l-65.917,38.072l-28.889,16.686
	l-21.408,12.365l-11.284,6.517c-0.811,0.468-1.59,0.979-2.353,1.506c-3.272,2.268-6.073,5.068-8.333,8.235
	c-1.517,2.129-2.781,4.424-3.773,6.843c-1.655,4.031-2.558,8.399-2.557,12.899l0.006,37.842h35.969H114.673z"/>
<path style="fill:#333333;" d="M220.15,278.408c9.143,9.237,21.825,14.963,35.849,14.963c14.024,0,26.706-5.726,35.849-14.963
	l-35.849-40.78L220.15,278.408z"/>
<path d="M298.639,272.438l-33.598-38.22v-15.59c0-4.994-4.047-9.041-9.041-9.041c-4.993,0-9.041,4.047-9.041,9.041v15.59
	l-33.598,38.22c-3.137,3.568-2.978,8.955,0.364,12.331C224.987,296.147,240,302.413,256,302.413
	c15.998,0,31.013-6.266,42.274-17.644C301.616,281.392,301.775,276.006,298.639,272.438z M255.999,284.329
	c-8.289,0-16.197-2.417-22.933-6.92l22.933-26.089l22.933,26.089C272.197,281.913,264.288,284.329,255.999,284.329z
	 M483.491,149.585c0-0.911-0.034-1.872-0.106-2.931c-0.014-0.24-0.037-0.48-0.063-0.72l-0.013-0.143
	c-0.061-0.685-0.134-1.377-0.228-2.063c-0.037-0.278-0.077-0.533-0.118-0.787l-0.022-0.123c-0.111-0.694-0.235-1.383-0.379-2.067
	c-0.054-0.262-0.108-0.515-0.168-0.769c-0.181-0.79-0.385-1.57-0.608-2.342c-0.04-0.152-0.089-0.322-0.141-0.487
	c-1.919-6.413-5.43-12.439-10.124-17.344l-0.153-0.162c-0.911-0.943-1.863-1.84-2.85-2.691l-0.474-0.398
	c-1.104-0.923-2.118-1.701-3.108-2.387c-1.096-0.759-2.042-1.365-2.987-1.908L277.584,5.776C271.04,1.998,263.59,0,256.035,0
	c-7.55,0.001-14.995,1.994-21.534,5.767L50.09,112.195c-0.975,0.564-1.947,1.186-3.062,1.961c-0.986,0.687-1.999,1.468-3.097,2.391
	l-0.481,0.405c-0.984,0.851-1.934,1.75-2.826,2.676c-0.047,0.048-0.169,0.176-0.215,0.227c-1.87,1.963-3.585,4.151-5.069,6.474
	c-0.013,0.019-0.025,0.037-0.036,0.057c-2.148,3.368-3.814,7.009-4.952,10.82c-0.031,0.105-0.075,0.254-0.115,0.404
	c-0.227,0.794-0.427,1.562-0.604,2.337c-0.057,0.246-0.111,0.5-0.164,0.757c-0.145,0.687-0.271,1.379-0.381,2.076
	c-0.055,0.35-0.096,0.608-0.133,0.866c-0.096,0.71-0.17,1.4-0.229,2.094l-0.013,0.127c-0.025,0.239-0.047,0.479-0.064,0.721
	c-0.071,1.036-0.105,1.989-0.105,2.917l-0.036,212.915c0,5.609,1.087,11.104,3.234,16.334c1.26,3.066,2.866,5.978,4.776,8.658
	c2.913,4.084,6.459,7.589,10.545,10.421c1.093,0.757,2.041,1.362,2.985,1.906l184.37,106.487c6.542,3.778,13.992,5.776,21.547,5.776
	c7.55,0,14.995-1.994,21.534-5.767l184.411-106.429c0.98-0.565,1.953-1.189,3.067-1.964c6.692-4.654,11.911-11.104,15.091-18.647
	c0.776-1.844,1.424-3.735,1.926-5.621c0.97-3.639,1.465-7.367,1.465-11.076L483.491,149.585z M46.59,362.423l0.005-28.801h26.93
	c4.994,0,9.041-4.047,9.041-9.041c0-4.993-4.047-9.041-9.041-9.041H46.598l0.022-119.078h418.782l-0.021,119.078H114.673
	c-4.994,0-9.041,4.048-9.041,9.041c0,4.994,4.047,9.041,9.041,9.041h350.705l-0.005,28.872c0,2.136-0.287,4.295-0.855,6.419
	c-0.289,1.09-0.667,2.186-1.119,3.26c-1.847,4.378-4.874,8.123-8.756,10.824c-0.686,0.477-1.25,0.84-1.777,1.145l-184.41,106.427
	c-3.793,2.189-8.113,3.347-12.495,3.347c-4.383,0-8.707-1.16-12.504-3.351L59.087,384.076c-0.509-0.293-1.057-0.646-1.731-1.113
	c-2.36-1.635-4.418-3.672-6.114-6.049c-1.107-1.554-2.04-3.245-2.773-5.028C47.222,368.849,46.59,365.663,46.59,362.423z
	 M465.408,149.563l-0.005,28.814H46.622l0.005-28.865c0-0.576,0.025-1.138,0.063-1.7l0.047-0.475
	c0.037-0.42,0.077-0.822,0.131-1.221l0.078-0.5c0.066-0.418,0.137-0.809,0.219-1.199l0.095-0.441
	c0.105-0.461,0.222-0.907,0.35-1.351l0.075-0.268c0.655-2.194,1.629-4.315,2.886-6.28c0.011-0.017,0.02-0.033,0.03-0.048
	c0.856-1.332,1.842-2.588,2.929-3.73c0.034-0.035,0.139-0.148,0.172-0.183c0.452-0.469,1.004-0.991,1.577-1.486l0.262-0.217
	c0.706-0.593,1.277-1.036,1.814-1.412c0.686-0.477,1.251-0.84,1.777-1.144l184.41-106.427c3.793-2.188,8.114-3.345,12.495-3.347
	c4.383,0,8.706,1.16,12.504,3.351l184.373,106.49c0.509,0.293,1.058,0.646,1.732,1.113c0.529,0.368,1.117,0.822,1.785,1.382
	l0.291,0.241c0.573,0.493,1.126,1.014,1.638,1.545l0.083,0.09c2.739,2.862,4.776,6.352,5.903,10.113l0.061,0.222
	c0.137,0.477,0.257,0.931,0.363,1.389l0.094,0.44c0.082,0.392,0.155,0.792,0.219,1.197l0.084,0.533
	c0.051,0.379,0.092,0.785,0.127,1.191l0.052,0.521C465.384,148.434,465.408,148.997,465.408,149.563z"/>
<g>
</g>
<g>
</g>
<g>
</g>
<g>
</g>
<g>
</g>
<g>
</g>
<g>
</g>
<g>
</g>
<g>
</g>
<g>
</g>
<g>
</g>
<g>
</g>
<g>
</g>
<g>
</g>
<g>
</g>
</svg>
