<?xml version="1.0" encoding="iso-8859-1"?>
<!-- Generator: Adobe Illustrator 19.0.0, SVG Export Plug-In . SVG Version: 6.00 Build 0)  -->
<svg version="1.1" id="Layer_1" xmlns="http://www.w3.org/2000/svg" xmlns:xlink="http://www.w3.org/1999/xlink" x="0px" y="0px"
	 viewBox="0 0 512 512" style="enable-background:new 0 0 512 512;" xml:space="preserve">
<path style="fill:#ED1F34;" d="M473.119,371.859c0.176-0.611,0.338-1.229,0.479-1.851c0.047-0.201,0.089-0.401,0.131-0.603
	c0.113-0.541,0.213-1.085,0.3-1.634c0.037-0.236,0.076-0.473,0.11-0.711c0.076-0.545,0.131-1.094,0.18-1.643
	c0.02-0.225,0.047-0.447,0.063-0.674c0.052-0.767,0.084-1.537,0.083-2.314l0,0l0,0v-0.006l-0.006-40.907v-0.001l-0.005-26.206
	v-0.002l-0.001-4.214l-0.004-25.576l0,0l-0.008-48.827l-0.005-26.206l-0.006-40.988c-0.001-2.996-0.409-5.93-1.161-8.75
	c-0.405-1.517-0.915-2.997-1.521-4.435c-2.478-5.877-6.574-11.017-11.925-14.741c-0.784-0.545-1.584-1.071-2.421-1.554
	l-22.875-13.201l-21.415-12.359l-17.241-9.95l-65.931-38.05l-25.719-14.843l-19.29-11.133l-11.954-6.898
	c-10.533-6.079-23.511-6.077-34.043,0.006l-11.873,6.857l-19.29,11.141L182.052,46.44l0,0l-65.917,38.076l-28.892,16.686
	l-21.409,12.366l-11.283,6.518c-0.813,0.469-1.59,0.979-2.353,1.507c-3.272,2.267-6.073,5.068-8.332,8.237
	c-1.517,2.128-2.781,4.423-3.775,6.842c-1.654,4.032-2.557,8.399-2.557,12.9l0.007,40.915l0.005,26.206l0.012,73.743l0.001,4.011
	v0.849v0.002v0.013l0,0v0.005l0,0l0.005,26.201l0,0v1.864l0.002,12.618l0.004,26.499v0.006l0,0c0.001,0.773,0.033,1.54,0.084,2.304
	c0.016,0.224,0.042,0.446,0.061,0.669c0.049,0.55,0.106,1.096,0.18,1.638c0.033,0.236,0.072,0.471,0.11,0.706
	c0.086,0.546,0.184,1.087,0.297,1.626c0.043,0.201,0.086,0.403,0.131,0.603c0.14,0.615,0.298,1.222,0.471,1.825
	c0.033,0.113,0.061,0.227,0.095,0.34c0.909,3.042,2.239,5.93,3.941,8.59c0,0,0,0.001,0,0.002l0.002,0.001
	c1.172,1.833,2.517,3.552,4.027,5.137c0.049,0.052,0.098,0.106,0.147,0.158c0.71,0.735,1.454,1.441,2.233,2.112
	c0.125,0.11,0.256,0.215,0.382,0.322c0.786,0.661,1.594,1.3,2.444,1.89c0.784,0.545,1.584,1.071,2.421,1.554l22.553,13.016
	l21.415,12.36l17.562,10.136l91.65,52.894l19.29,11.133l11.954,6.898c10.533,6.079,23.511,6.077,34.043-0.006l11.873-6.857
	l19.29-11.141l25.719-14.854l55.558-32.088l10.363-5.986l26.362-15.226l21.409-12.366l13.814-7.979
	c0.813-0.469,1.59-0.979,2.352-1.507c0.851-0.59,1.66-1.226,2.446-1.883c0.129-0.107,0.259-0.213,0.386-0.322
	c0.779-0.673,1.526-1.376,2.236-2.11c0.046-0.048,0.09-0.098,0.136-0.146c3.725-3.892,6.475-8.609,8.02-13.766
	C473.061,372.075,473.088,371.966,473.119,371.859z"/>
<polygon style="fill:#FFFFFF;" points="370.533,215.913 296.086,215.913 296.086,141.467 215.913,141.467 215.913,215.913 
	141.467,215.913 141.467,296.086 215.913,296.086 215.913,370.533 296.086,370.533 296.086,296.086 370.533,296.086 "/>
<path d="M296.086,379.575h-80.173c-4.995,0-9.042-4.048-9.042-9.042v-65.404h-65.404c-4.995,0-9.042-4.048-9.042-9.042v-80.173
	c0-4.994,4.047-9.042,9.042-9.042h65.404v-65.404c0-4.994,4.047-9.042,9.042-9.042h80.173c4.995,0,9.042,4.048,9.042,9.042v65.404
	h65.404c4.995,0,9.042,4.048,9.042,9.042v80.173c0,4.994-4.047,9.042-9.042,9.042h-65.404v65.404
	C305.128,375.526,301.08,379.575,296.086,379.575z M224.955,361.491h62.089v-65.404c0-4.994,4.047-9.042,9.042-9.042h65.404v-62.089
	h-65.404c-4.995,0-9.042-4.048-9.042-9.042v-65.404h-62.089v65.404c0,4.994-4.047,9.042-9.042,9.042h-65.404v62.089h65.404
	c4.995,0,9.042,4.048,9.042,9.042L224.955,361.491L224.955,361.491z M256.035,512c-7.448,0-14.894-1.917-21.536-5.751
	L50.075,399.813c-0.975-0.563-1.947-1.185-3.062-1.96c-0.99-0.69-2.001-1.471-3.097-2.391l-0.481-0.405
	c-0.978-0.845-1.929-1.745-2.825-2.674c-0.049-0.051-0.176-0.187-0.224-0.239c-1.855-1.947-3.566-4.128-5.049-6.446
	c-0.017-0.025-0.033-0.051-0.048-0.076c-2.148-3.37-3.815-7.008-4.953-10.82c-0.033-0.111-0.075-0.257-0.115-0.401
	c-0.227-0.794-0.427-1.564-0.604-2.339c-0.055-0.246-0.11-0.5-0.164-0.755c-0.145-0.69-0.271-1.382-0.38-2.078
	c-0.057-0.348-0.098-0.605-0.133-0.864c-0.098-0.713-0.171-1.402-0.23-2.095l-0.013-0.128c-0.025-0.237-0.047-0.477-0.064-0.716
	c-0.071-1.04-0.105-1.994-0.105-2.92l-0.036-212.932c0-5.608,1.087-11.104,3.235-16.334c1.259-3.066,2.866-5.977,4.777-8.659
	c2.913-4.085,6.46-7.589,10.545-10.421c1.093-0.756,2.04-1.361,2.986-1.906L234.415,5.757c13.287-7.674,29.798-7.675,43.085-0.007
	l184.424,106.436c0.967,0.558,1.97,1.201,3.066,1.964c6.692,4.656,11.911,11.105,15.092,18.648c0.778,1.845,1.425,3.735,1.928,5.622
	c0.971,3.64,1.464,7.367,1.464,11.077l0.035,212.926c0.001,0.911-0.033,1.872-0.104,2.93c-0.017,0.244-0.04,0.482-0.064,0.721
	l-0.014,0.145c-0.06,0.682-0.134,1.374-0.227,2.062c-0.039,0.28-0.08,0.538-0.122,0.796c-0.128,0.807-0.254,1.495-0.397,2.179
	c-0.057,0.269-0.111,0.522-0.169,0.774c-0.176,0.775-0.377,1.543-0.597,2.306c-0.053,0.193-0.098,0.353-0.147,0.514
	c-1.924,6.422-5.434,12.448-10.128,17.354l-0.136,0.145c-0.927,0.958-1.88,1.857-2.866,2.707l-0.476,0.399
	c-1.107,0.926-2.119,1.704-3.108,2.388c-1.095,0.757-2.041,1.362-2.988,1.907L277.583,506.242
	C270.939,510.079,263.486,512,256.035,512z M50.592,375.988c0.856,1.331,1.839,2.582,2.924,3.719
	c0.035,0.037,0.139,0.148,0.174,0.186c0.453,0.469,1.005,0.991,1.573,1.482l0.264,0.221c0.705,0.592,1.276,1.034,1.817,1.412
	c0.684,0.476,1.249,0.84,1.776,1.144l184.422,106.435c7.711,4.45,17.291,4.447,25.001-0.005l184.387-106.497
	c0.51-0.294,1.057-0.646,1.73-1.112c0.53-0.368,1.119-0.822,1.79-1.384l0.289-0.241c0.571-0.492,1.124-1.013,1.637-1.544
	l0.081-0.089c2.742-2.865,4.778-6.355,5.905-10.115l0.063-0.227c0.004-0.008,0.006-0.017,0.008-0.025
	c0.129-0.448,0.248-0.901,0.352-1.358l0.098-0.449c0.08-0.385,0.154-0.786,0.218-1.19l0.083-0.532
	c0.052-0.382,0.093-0.787,0.128-1.194l0.051-0.521c0.036-0.533,0.063-1.096,0.061-1.663l-0.035-212.947
	c0-2.136-0.287-4.296-0.854-6.42c-0.291-1.09-0.667-2.186-1.119-3.259c-1.846-4.38-4.875-8.125-8.756-10.825
	c-0.686-0.477-1.25-0.842-1.778-1.145L268.46,21.411c-7.711-4.45-17.291-4.447-25.001,0.005L59.072,127.915
	c-0.51,0.294-1.057,0.646-1.73,1.112c-2.362,1.636-4.42,3.672-6.116,6.051c-1.107,1.554-2.04,3.245-2.773,5.027
	c-1.247,3.038-1.88,6.223-1.88,9.465l0.036,212.925c0,0.576,0.025,1.139,0.063,1.701l0.047,0.474
	c0.037,0.42,0.077,0.822,0.131,1.223l0.078,0.499c0.066,0.417,0.137,0.809,0.219,1.198l0.095,0.441
	c0.105,0.459,0.222,0.907,0.348,1.35l0.076,0.27c0.655,2.194,1.629,4.315,2.886,6.281C50.568,375.951,50.58,375.97,50.592,375.988z"
	/>
<g>
</g>
<g>
</g>
<g>
</g>
<g>
</g>
<g>
</g>
<g>
</g>
<g>
</g>
<g>
</g>
<g>
</g>
<g>
</g>
<g>
</g>
<g>
</g>
<g>
</g>
<g>
</g>
<g>
</g>
</svg>
