<?xml version="1.0" encoding="iso-8859-1"?>
<!-- Generator: Adobe Illustrator 19.0.0, SVG Export Plug-In . SVG Version: 6.00 Build 0)  -->
<svg version="1.1" id="Layer_1" xmlns="http://www.w3.org/2000/svg" xmlns:xlink="http://www.w3.org/1999/xlink" x="0px" y="0px"
	 viewBox="0 0 511.999 511.999" style="enable-background:new 0 0 511.999 511.999;" xml:space="preserve">
<g>
	<path style="fill:#FFFFFF;" d="M473.105,371.851c0.176-0.611,0.336-1.227,0.479-1.849c0.046-0.201,0.088-0.401,0.13-0.603
		c0.113-0.541,0.213-1.085,0.3-1.634c0.039-0.237,0.077-0.474,0.11-0.711c0.075-0.545,0.131-1.093,0.18-1.644
		c0.02-0.225,0.047-0.448,0.063-0.674c0.052-0.767,0.084-1.537,0.084-2.313l0,0l0,0v-0.006l-0.005-40.904v-0.001l-0.004-26.204
		v-0.002v-4.213l-0.004-25.574l0,0l-0.008-48.824l-0.004-26.204l-0.007-40.985c0-2.996-0.407-5.93-1.16-8.75
		c-0.405-1.517-0.915-2.997-1.521-4.435c-2.477-5.877-6.574-11.016-11.925-14.74c-0.784-0.545-1.584-1.071-2.421-1.554l-22.872-13.2
		l-21.414-12.358l-17.239-9.949L329.94,46.472l-25.717-14.842l-19.288-11.132l-11.953-6.898c-10.533-6.078-23.509-6.077-34.04,0.006
		l-11.872,6.857l-19.288,11.14l-25.717,14.854l0,0l-65.917,38.07l-28.89,16.686L65.85,113.578l-11.282,6.517
		c-0.811,0.469-1.59,0.979-2.353,1.507c-3.272,2.266-6.073,5.068-8.333,8.236c-1.517,2.128-2.781,4.423-3.773,6.841
		c-1.655,4.031-2.558,8.399-2.557,12.899l0.006,40.912l0.005,26.204l0.012,73.738v4.011v0.85v0.001v0.013l0,0v0.005l0,0l0.004,26.2
		v0.001v1.863l0.002,12.617l0.004,26.497v0.006l0,0c0,0.773,0.033,1.539,0.084,2.305c0.016,0.224,0.042,0.445,0.061,0.668
		c0.048,0.55,0.105,1.096,0.18,1.638c0.033,0.236,0.072,0.471,0.108,0.706c0.087,0.545,0.186,1.087,0.298,1.625
		c0.042,0.201,0.084,0.403,0.13,0.603c0.14,0.614,0.298,1.221,0.471,1.825c0.033,0.113,0.061,0.227,0.095,0.34
		c0.909,3.043,2.24,5.929,3.94,8.589c0,0,0,0.001,0.001,0.002l0.001,0.001c1.172,1.831,2.517,3.551,4.025,5.137
		c0.051,0.052,0.099,0.106,0.148,0.158c0.709,0.735,1.454,1.439,2.231,2.113c0.125,0.108,0.254,0.213,0.382,0.321
		c0.786,0.661,1.595,1.3,2.445,1.89c0.784,0.545,1.584,1.07,2.421,1.554l22.552,13.015l21.414,12.359l17.561,10.135l91.644,52.89
		l19.288,11.132l11.953,6.898c10.533,6.078,23.509,6.077,34.04-0.006l11.872-6.857l19.288-11.14l25.717-14.853l55.554-32.086
		l10.363-5.985l26.36-15.225l21.408-12.365l13.813-7.978c0.811-0.469,1.59-0.979,2.353-1.507c0.851-0.59,1.659-1.226,2.446-1.883
		c0.128-0.107,0.258-0.213,0.385-0.323c0.779-0.672,1.526-1.374,2.237-2.11c0.047-0.048,0.09-0.098,0.136-0.146
		c3.724-3.891,6.476-8.609,8.02-13.766C473.046,372.067,473.074,371.957,473.105,371.851z"/>
	<path style="fill:#FFFFFF;" d="M256.002,9.043c-2.941-0.002-5.883,0.375-8.748,1.132c-0.004,0.001-0.008,0.002-0.012,0.002
		c-0.664,0.176-1.325,0.377-1.981,0.596c-0.052,0.018-0.105,0.03-0.157,0.048c-0.615,0.206-1.222,0.439-1.826,0.682
		c-0.09,0.036-0.183,0.065-0.275,0.102c-0.528,0.217-1.046,0.462-1.565,0.706c-0.163,0.077-0.33,0.142-0.492,0.223
		c-0.563,0.276-1.116,0.58-1.667,0.89c-0.111,0.063-0.227,0.116-0.336,0.18l-11.872,6.857l-19.288,11.14l-25.717,14.854l0,0
		l-65.918,38.072l-28.89,16.686L65.85,113.578l-11.282,6.517c-0.811,0.469-1.59,0.979-2.353,1.507
		c-1.636,1.133-3.155,2.4-4.546,3.781c-1.391,1.379-2.657,2.872-3.787,4.456c-0.948,1.33-1.784,2.732-2.53,4.182
		c-0.447,0.869-0.87,1.753-1.243,2.659c-0.251,0.61-0.479,1.228-0.693,1.854c-0.018,0.054-0.035,0.11-0.053,0.164
		c-0.204,0.608-0.394,1.221-0.567,1.841v0.001c0,0.001,0,0.001-0.001,0.002c-0.398,1.433-0.704,2.898-0.914,4.386
		c-0.01,0.066-0.016,0.133-0.025,0.199c-0.083,0.616-0.146,1.237-0.195,1.861c-0.012,0.162-0.025,0.324-0.036,0.486
		c-0.045,0.698-0.074,1.398-0.074,2.104l0.001,7.842l-0.001,98.58h21.504h34.72h14.965v-66.914l88.984,66.914h58.276v-28.59V212.18
		l-72.823-54.76h72.823V140.54v-39.163V84.496H183.18l72.822-54.76V9.043z"/>
</g>
<g>
	<polygon style="fill:#ED1F34;" points="124.904,157.419 256.002,255.999 256.002,227.409 163.147,157.419 	"/>
	<path style="fill:#ED1F34;" d="M59.056,140.54v115.461h34.72V140.54h162.226v-39.163H93.776v-3.928l-6.518,3.765L65.85,113.578
		l-11.282,6.517c-0.811,0.469-1.59,0.979-2.353,1.507c-1.636,1.133-3.155,2.4-4.546,3.781c-1.391,1.379-2.657,2.872-3.787,4.456
		c-0.948,1.33-1.784,2.732-2.53,4.182c-0.447,0.869-0.87,1.753-1.243,2.659c-0.251,0.61-0.479,1.228-0.693,1.854
		c-0.018,0.054-0.035,0.11-0.053,0.164c-0.204,0.608-0.394,1.221-0.567,1.841v0.001H59.056z"/>
</g>
<path style="fill:#103B9B;" d="M474.446,321.512L474.446,321.512l-0.004-26.206v-0.002v-4.213l-0.005-25.574l-0.007-48.824
	l-0.004-26.204l-0.007-40.985c0-2.996-0.407-5.93-1.16-8.75c-0.405-1.517-0.915-2.997-1.521-4.435
	c-2.477-5.877-6.574-11.016-11.925-14.74c-0.784-0.545-1.584-1.071-2.421-1.554l-22.872-13.2l-21.414-12.358l-17.239-9.949
	L329.94,46.472l-25.717-14.842l-19.288-11.132l-11.953-6.898c-7.89-4.553-19.921-4.559-16.98-4.556v20.694L183.18,84.496h72.822
	v16.88v39.163v16.88h-72.823l72.823,54.76v15.229v28.591h-58.276l-88.984-66.914v66.914H93.776h-34.72H37.569l0.006,34.432v4.011
	v0.85v0.001v0.013l0,0v0.005l0,0l0.004,26.2v0.001v1.863l0.001,12.617l0.005,26.497v0.006l0,0c0,0.773,0.033,1.539,0.084,2.305
	c0.016,0.224,0.042,0.445,0.061,0.668c0.048,0.55,0.105,1.096,0.18,1.639c0.033,0.236,0.071,0.47,0.11,0.706
	c0.086,0.545,0.184,1.087,0.298,1.625c0.042,0.201,0.084,0.403,0.13,0.603c0.14,0.614,0.298,1.221,0.471,1.825
	c0.033,0.113,0.061,0.227,0.095,0.34c0.909,3.043,2.24,5.929,3.94,8.589c0,0.001,0,0.001,0.001,0.002l0.001,0.001
	c1.172,1.831,2.517,3.551,4.025,5.136c0.051,0.053,0.099,0.106,0.148,0.159c0.709,0.735,1.454,1.439,2.231,2.112
	c0.125,0.11,0.254,0.215,0.382,0.322c0.786,0.661,1.595,1.3,2.445,1.89c0.784,0.545,1.584,1.071,2.421,1.554l22.552,13.015
	l21.414,12.359l17.561,10.135l91.644,52.89l19.288,11.132l11.953,6.898c10.533,6.078,23.509,6.077,34.04-0.006l11.872-6.857
	l19.288-11.14l25.717-14.853l55.554-32.086l10.363-5.985l26.36-15.225l21.408-12.365l13.813-7.978
	c0.811-0.469,1.59-0.979,2.352-1.507c0.851-0.59,1.659-1.226,2.446-1.883c0.128-0.107,0.258-0.213,0.385-0.323
	c0.779-0.672,1.526-1.374,2.237-2.11c0.047-0.048,0.09-0.098,0.137-0.146c3.724-3.891,6.475-8.609,8.019-13.766
	c0.031-0.106,0.059-0.216,0.09-0.323c0.176-0.611,0.336-1.227,0.479-1.849c0.046-0.201,0.088-0.401,0.13-0.603
	c0.113-0.541,0.213-1.086,0.3-1.635c0.039-0.236,0.077-0.473,0.11-0.71c0.075-0.545,0.131-1.093,0.18-1.644
	c0.02-0.225,0.047-0.447,0.063-0.674c0.052-0.767,0.084-1.537,0.084-2.313l0,0v-0.006L474.446,321.512z"/>
<path style="fill:#3DB4EA;" d="M306.042,171.767v92.577c0,58.644,54.236,72.049,54.236,72.049s54.236-13.405,54.236-72.049v-92.577
	L306.042,171.767L306.042,171.767z"/>
<path style="fill:#103B9B;" d="M360.278,336.393c0,0,54.236-13.405,54.236-72.049v-9.219c-4.884-2.301-9.257-4.846-18.934-4.846
	c-17.654,0-17.654,8.472-35.307,8.472c-17.652,0-17.652-8.472-35.306-8.472c-9.672,0-14.046,2.544-18.927,4.844v9.221
	C306.042,322.988,360.278,336.393,360.278,336.393z"/>
<g>
	<path style="fill:#FFFFFF;" d="M374.015,283.635c-4.047,1.942-6.971,3.347-13.741,3.347c-6.769,0-9.692-1.404-13.739-3.347
		c-4.759-2.284-10.681-5.127-21.566-5.127c-8.023,0-13.216,1.517-17.192,3.145c1.342,6.383,3.396,12.067,5.93,17.118
		c0.039-0.017,0.078-0.028,0.118-0.045c2.36-1.033,5.365-2.136,11.145-2.136c6.769,0,9.694,1.404,13.741,3.347
		c4.758,2.284,10.681,5.127,21.566,5.127c10.885,0,16.806-2.843,21.566-5.127c4.047-1.942,6.971-3.347,13.741-3.347
		c5.784,0,8.789,1.104,11.151,2.139c0.039,0.017,0.078,0.028,0.118,0.045c2.534-5.051,4.588-10.735,5.93-17.118
		c-3.977-1.63-9.173-3.148-17.199-3.148C384.697,278.508,378.774,281.35,374.015,283.635z"/>
	<path style="fill:#FFFFFF;" d="M395.582,241.237c-10.885,0-16.807,2.843-21.567,5.127c-4.047,1.942-6.972,3.347-13.741,3.347
		s-9.692-1.404-13.739-3.347c-4.758-2.284-10.681-5.127-21.566-5.127c-8.973,0-14.57,1.932-18.927,3.891v19.012
		c1.307,0.005,2.634-0.262,3.894-0.856l1.295-0.617c4.047-1.942,6.97-3.347,13.738-3.347c6.769,0,9.694,1.404,13.741,3.347
		c4.758,2.284,10.681,5.127,21.566,5.127c10.885,0,16.806-2.843,21.566-5.127c4.047-1.942,6.971-3.347,13.741-3.347
		c6.768,0,9.692,1.404,13.739,3.345l1.345,0.641c1.245,0.586,2.557,0.854,3.848,0.854v-19.03
		C410.158,243.171,404.558,241.237,395.582,241.237z"/>
</g>
<path style="fill:#F2A643;" d="M360.278,370.384c-27.732,0-53.412-12.226-70.771-32.867l-1.879,6.697
	c-1.349,4.808-6.341,7.61-11.149,6.263c-4.808-1.349-7.612-6.34-6.263-11.149l7.173-25.561c1.003-3.574,4.089-6.173,7.783-6.552
	c3.695-0.377,7.243,1.538,8.951,4.834c12.867,24.828,38.215,40.252,66.154,40.252c27.939,0,53.289-15.423,66.154-40.252
	c1.708-3.297,5.258-5.21,8.951-4.834c3.693,0.379,6.78,2.978,7.783,6.552l7.173,25.561c1.349,4.808-1.455,9.798-6.263,11.149
	c-4.812,1.347-9.798-1.456-11.149-6.263l-1.879-6.697C413.69,358.158,388.011,370.384,360.278,370.384z"/>
<path style="fill:#FFFFFF;" d="M380.229,229.068h-28.28c-6.418,0-11.622-5.203-11.622-11.622v-11.622h28.28
	c6.419,0,11.622,5.203,11.622,11.622V229.068z"/>
<path d="M351.949,238.109h28.28c4.993,0,9.041-4.048,9.041-9.041v-11.622c0-11.393-9.269-20.664-20.664-20.664h-19.239v-0.257
	c0-4.993-4.048-9.041-9.041-9.041s-9.041,4.048-9.041,9.041v9.298v11.622C331.286,228.84,340.556,238.109,351.949,238.109z
	 M371.188,217.446v2.581h-19.239c-1.422,0-2.581-1.157-2.581-2.581v-2.581h19.239C370.031,214.865,371.188,216.023,371.188,217.446z
	 M414.516,162.726H306.043c-4.993,0-9.041,4.048-9.041,9.041v92.577c0,33.92,16.622,54.133,30.565,65.117
	c14.92,11.754,29.913,15.552,30.543,15.708c0.712,0.176,1.441,0.264,2.17,0.264s1.456-0.088,2.17-0.264
	c0.63-0.156,15.624-3.954,30.543-15.708c13.943-10.985,30.565-31.198,30.565-65.117v-92.577
	C423.557,166.774,419.509,162.726,414.516,162.726z M405.474,264.344c0,44.851-35.7,59.517-45.174,62.617
	c-9.26-3.09-45.215-17.98-45.215-62.617v-83.535h90.39L405.474,264.344L405.474,264.344z M483.458,149.505
	c0-3.709-0.493-7.437-1.463-11.075c-0.503-1.887-1.15-3.777-1.928-5.623c-3.18-7.542-8.399-13.99-15.091-18.646
	c-1.113-0.775-2.086-1.398-3.066-1.964L277.501,5.768C270.962,1.995,263.516,0,255.967,0c-7.555,0-15.005,1.998-21.547,5.776
	L50.048,112.263c-0.943,0.545-1.89,1.149-2.985,1.907c-4.086,2.831-7.632,6.335-10.545,10.419c-1.911,2.681-3.517,5.592-4.776,8.658
	c-2.146,5.23-3.234,10.724-3.234,16.332l0.036,212.917c0,0.927,0.034,1.882,0.105,2.917c0.017,0.241,0.039,0.481,0.064,0.721
	l0.013,0.127c0.06,0.694,0.133,1.384,0.229,2.094c0.036,0.259,0.077,0.516,0.133,0.866c0.111,0.697,0.236,1.388,0.381,2.076
	c0.053,0.256,0.107,0.51,0.164,0.756c0.177,0.776,0.377,1.544,0.604,2.339c0.04,0.149,0.082,0.298,0.115,0.403
	c1.138,3.811,2.804,7.45,4.952,10.82c0.012,0.019,0.024,0.037,0.036,0.057c1.484,2.323,3.199,4.511,5.069,6.474
	c0.046,0.051,0.168,0.18,0.215,0.228c0.892,0.925,1.841,1.824,2.826,2.675l0.481,0.405c1.098,0.923,2.111,1.705,3.097,2.391
	c1.115,0.775,2.087,1.397,3.062,1.96L234.5,506.23c6.539,3.773,13.985,5.768,21.534,5.768c7.555,0,15.005-1.998,21.547-5.776
	l184.37-106.487c0.943-0.545,1.89-1.149,2.987-1.908c0.99-0.687,2.004-1.465,3.107-2.388l0.475-0.398
	c0.986-0.85,1.938-1.748,2.85-2.69l0.153-0.162c4.695-4.904,8.205-10.929,10.124-17.344c0.052-0.166,0.1-0.335,0.14-0.487
	c0.224-0.774,0.427-1.554,0.609-2.344c0.058-0.253,0.112-0.508,0.168-0.769c0.142-0.684,0.269-1.372,0.379-2.067l0.021-0.123
	c0.04-0.253,0.08-0.508,0.119-0.786c0.093-0.687,0.168-1.378,0.227-2.063l0.014-0.145c0.025-0.239,0.047-0.479,0.063-0.72
	c0.072-1.058,0.106-2.019,0.105-2.931L483.458,149.505z M465.349,364.1l-0.051,0.52c-0.035,0.406-0.076,0.813-0.128,1.192
	l-0.083,0.533c-0.064,0.404-0.137,0.804-0.219,1.197l-0.095,0.441c-0.105,0.458-0.224,0.91-0.362,1.388l-0.061,0.222
	c-1.13,3.761-3.164,7.251-5.903,10.114l-0.083,0.09c-0.515,0.532-1.068,1.052-1.639,1.545l-0.289,0.241
	c-0.669,0.561-1.256,1.014-1.787,1.382c-0.674,0.465-1.222,0.819-1.731,1.111l-184.373,106.49c-3.796,2.193-8.12,3.351-12.504,3.351
	c-4.381,0-8.703-1.157-12.495-3.347L59.132,384.143c-0.526-0.303-1.09-0.668-1.777-1.144c-0.538-0.375-1.108-0.817-1.814-1.41
	l-0.262-0.217c-0.573-0.495-1.125-1.017-1.577-1.486c-0.033-0.035-0.137-0.148-0.172-0.183c-1.086-1.142-2.073-2.397-2.929-3.73
	c-0.011-0.016-0.02-0.031-0.03-0.047c-1.257-1.965-2.231-4.087-2.886-6.28l-0.075-0.268c-0.128-0.445-0.245-0.891-0.35-1.353
	l-0.095-0.441c-0.081-0.389-0.153-0.781-0.219-1.198l-0.078-0.5c-0.054-0.4-0.094-0.803-0.131-1.221l-0.045-0.476
	c-0.037-0.561-0.063-1.125-0.063-1.7l-0.036-212.909c0-3.24,0.632-6.427,1.879-9.463c0.732-1.783,1.666-3.476,2.773-5.028
	c1.696-2.378,3.754-4.415,6.114-6.051c0.674-0.465,1.222-0.819,1.731-1.111L243.463,21.434c3.796-2.193,8.12-3.351,12.504-3.351
	c4.381,0,8.701,1.157,12.495,3.347l184.41,106.428c0.527,0.304,1.09,0.667,1.777,1.145c3.881,2.7,6.908,6.446,8.756,10.824
	c0.452,1.074,0.828,2.169,1.119,3.26c0.567,2.124,0.854,4.283,0.854,6.421l0.035,212.93
	C465.411,363.004,465.385,363.566,465.349,364.1z"/>
<g>
</g>
<g>
</g>
<g>
</g>
<g>
</g>
<g>
</g>
<g>
</g>
<g>
</g>
<g>
</g>
<g>
</g>
<g>
</g>
<g>
</g>
<g>
</g>
<g>
</g>
<g>
</g>
<g>
</g>
</svg>
