<?xml version="1.0" encoding="iso-8859-1"?>
<!-- Generator: Adobe Illustrator 19.0.0, SVG Export Plug-In . SVG Version: 6.00 Build 0)  -->
<svg version="1.1" id="Layer_1" xmlns="http://www.w3.org/2000/svg" xmlns:xlink="http://www.w3.org/1999/xlink" x="0px" y="0px"
	 viewBox="0 0 512 512" style="enable-background:new 0 0 512 512;" xml:space="preserve">
<path style="fill:#FFFFFF;" d="M473.105,371.85c0.176-0.61,0.336-1.227,0.479-1.848c0.046-0.201,0.088-0.403,0.13-0.604
	c0.115-0.54,0.213-1.085,0.301-1.632c0.037-0.237,0.076-0.474,0.108-0.711c0.076-0.546,0.131-1.095,0.181-1.644
	c0.02-0.225,0.046-0.448,0.061-0.674c0.053-0.767,0.084-1.537,0.084-2.313l0,0l0,0v-0.006l-0.007-40.904v-0.002l-0.005-26.203
	v-0.002v-4.213l-0.005-25.574l0,0l-0.008-48.824l-0.004-26.204l-0.007-40.985c0-2.996-0.408-5.93-1.16-8.75
	c-0.405-1.517-0.915-2.997-1.521-4.435c-2.477-5.877-6.574-11.016-11.925-14.74c-0.784-0.545-1.584-1.071-2.421-1.554l-22.872-13.2
	L413.1,94.467l-17.24-9.949L329.935,46.47l-25.719-14.842l-19.288-11.132l-11.952-6.898c-10.534-6.078-23.51-6.077-34.04,0.006
	l-11.873,6.857l-19.288,11.14l-25.717,14.854l0,0l-65.911,38.072l-28.89,16.686L65.85,113.578l-11.284,6.517
	c-0.811,0.469-1.589,0.979-2.352,1.507c-3.273,2.266-6.073,5.068-8.333,8.236c-1.517,2.128-2.781,4.423-3.773,6.841
	c-1.655,4.031-2.558,8.399-2.557,12.899l0.007,40.912l0.004,26.204l0.013,73.738l0.001,4.011v0.85v0.001v0.013l0,0v0.005l0,0
	l0.004,26.198v0.002l0.001,1.863l0.001,12.617l0.005,26.496v0.007l0,0c0,0.773,0.031,1.539,0.083,2.305
	c0.017,0.224,0.042,0.445,0.063,0.668c0.048,0.55,0.105,1.096,0.18,1.638c0.031,0.236,0.071,0.471,0.108,0.708
	c0.087,0.544,0.186,1.086,0.298,1.625c0.042,0.201,0.084,0.403,0.13,0.603c0.14,0.615,0.298,1.222,0.471,1.825
	c0.033,0.113,0.063,0.228,0.096,0.34c0.909,3.043,2.239,5.93,3.94,8.588c0,0.001,0.001,0.002,0.001,0.002l0.001,0.002
	c1.172,1.832,2.517,3.551,4.026,5.137c0.049,0.053,0.098,0.106,0.148,0.159c0.709,0.734,1.454,1.438,2.231,2.112
	c0.125,0.11,0.256,0.215,0.382,0.322c0.786,0.661,1.595,1.298,2.445,1.89c0.782,0.545,1.584,1.07,2.419,1.553l22.552,13.016
	l21.415,12.359l17.56,10.134l91.644,52.89l19.288,11.132l11.953,6.899c10.533,6.078,23.51,6.076,34.04-0.007l11.872-6.857
	l19.288-11.14l25.719-14.853l55.553-32.086l10.364-5.985l26.36-15.224l21.408-12.365l13.812-7.977
	c0.813-0.469,1.591-0.98,2.353-1.507c0.851-0.588,1.659-1.226,2.446-1.884c0.128-0.106,0.258-0.212,0.385-0.323
	c0.779-0.671,1.526-1.374,2.236-2.108c0.047-0.048,0.092-0.098,0.137-0.145c3.724-3.893,6.475-8.61,8.019-13.767
	C473.046,372.067,473.075,371.958,473.105,371.85z"/>
<g>
	<path style="fill:#103B9B;" d="M401.403,371.932c-12.012-5.766-21.499-10.32-42.537-10.32c-21.038,0-30.524,4.553-42.534,10.32
		c-14.033,6.735-29.938,14.37-60.34,14.37c-30.4,0-46.304-7.636-60.337-14.37c-12.009-5.766-21.497-10.32-42.532-10.32
		c-21.034,0-30.52,4.553-42.53,10.32c-14.032,6.734-29.938,14.37-60.335,14.37c-0.993,0-1.97-0.01-2.933-0.025
		c0.653,0.668,1.33,1.316,2.039,1.931c0.125,0.11,0.256,0.215,0.382,0.322c0.786,0.661,1.594,1.298,2.444,1.89
		c0.784,0.545,1.584,1.071,2.421,1.553l22.552,13.016l21.414,12.359l11.528,6.653c10.744-3.867,24.063-6.836,43.018-6.836
		c30.4,0,46.305,7.635,60.339,14.37c12.009,5.766,21.496,10.32,42.531,10.32c21.036,0,30.524-4.553,42.533-10.32
		c14.035-6.735,29.941-14.37,60.341-14.37c18.951,0,32.267,2.967,43.011,6.833l20.34-11.748l21.408-12.365l13.813-7.977
		c0.813-0.469,1.59-0.98,2.352-1.507c0.852-0.588,1.66-1.226,2.446-1.884c0.129-0.106,0.259-0.212,0.386-0.323
		c0.708-0.61,1.38-1.253,2.033-1.916c-0.955,0.016-1.924,0.025-2.908,0.025C431.343,386.302,415.437,378.667,401.403,371.932z"/>
	<path style="fill:#103B9B;" d="M316.331,81.838c-14.033,6.736-29.938,14.37-60.34,14.37c-30.4,0-46.304-7.635-60.337-14.37
		c-12.009-5.765-21.497-10.318-42.532-10.318c-6.465,0-11.835,0.433-16.526,1.197l-20.449,11.81l-28.889,16.686l-21.408,12.365
		l-11.282,6.517c-0.813,0.469-1.59,0.979-2.353,1.507c-3.273,2.266-6.072,5.068-8.331,8.236c-1.517,2.128-2.781,4.423-3.774,6.841
		c-1.654,4.031-2.557,8.399-2.557,12.899v1.503c3.756,0.432,7.921,0.679,12.707,0.679c21.033,0,30.519-4.553,42.527-10.318
		c14.033-6.736,29.939-14.371,60.337-14.371c30.4,0,46.305,7.635,60.339,14.37c12.009,5.765,21.496,10.318,42.531,10.318
		c21.036,0,30.524-4.553,42.533-10.318c14.035-6.735,29.941-14.37,60.341-14.37c30.402,0,46.308,7.635,60.342,14.37
		c12.012,5.765,21.499,10.318,42.537,10.318c4.77,0,8.924-0.245,12.672-0.674v-1.58c-0.001-2.996-0.409-5.93-1.161-8.75
		c-0.405-1.517-0.915-2.997-1.52-4.435c-2.479-5.877-6.575-11.016-11.925-14.74c-0.784-0.545-1.584-1.071-2.421-1.554l-22.874-13.2
		l-21.414-12.358l-17.24-9.949l-20.444-11.798c-4.698-0.767-10.075-1.201-16.554-1.201C337.828,71.52,328.341,76.073,316.331,81.838
		z"/>
	<path style="fill:#103B9B;" d="M401.403,178.536c-12.012-5.765-21.499-10.318-42.537-10.318c-21.038,0-30.524,4.553-42.534,10.318
		c-14.033,6.736-29.938,14.37-60.34,14.37c-30.4,0-46.304-7.635-60.337-14.37c-12.009-5.765-21.497-10.318-42.532-10.318
		c-21.034,0-30.52,4.553-42.53,10.318c-14.032,6.735-29.938,14.37-60.335,14.37c-4.546,0-8.762-0.174-12.7-0.486l0.005,24.273
		l0.005,31.087c3.752,0.43,7.912,0.676,12.691,0.676c21.033,0,30.519-4.553,42.527-10.318c14.033-6.736,29.939-14.371,60.337-14.371
		c30.4,0,46.305,7.635,60.339,14.37c12.009,5.765,21.496,10.318,42.531,10.318c21.036,0,30.524-4.553,42.533-10.318
		c14.035-6.735,29.941-14.37,60.341-14.37c30.402,0,46.308,7.635,60.342,14.37c12.012,5.765,21.499,10.318,42.537,10.318
		c4.777,0,8.937-0.245,12.687-0.676l-0.005-31.087l-0.004-24.272c-3.935,0.312-8.142,0.485-12.68,0.485
		C431.343,192.906,415.437,185.273,401.403,178.536z"/>
	<path style="fill:#103B9B;" d="M401.403,275.235c-12.012-5.765-21.499-10.319-42.537-10.319c-21.038,0-30.524,4.553-42.534,10.319
		c-14.033,6.736-29.938,14.37-60.34,14.37c-30.4,0-46.304-7.633-60.337-14.37c-12.009-5.765-21.497-10.319-42.532-10.319
		c-21.034,0-30.52,4.553-42.53,10.319c-14.032,6.736-29.938,14.37-60.335,14.37c-4.54,0-8.75-0.174-12.683-0.485v1.313l0.001,4.011
		v0.849v0.002v0.013l0,0v0.005l0,0l0.005,26.198v0.002v1.863l0.002,12.617l0.001,8.488c3.747,0.429,7.902,0.675,12.675,0.675
		c21.033,0,30.519-4.553,42.527-10.318c14.033-6.736,29.939-14.372,60.337-14.372c30.4,0,46.305,7.636,60.339,14.371
		c12.009,5.765,21.496,10.319,42.531,10.319c21.036,0,30.524-4.553,42.533-10.319c14.035-6.735,29.941-14.371,60.341-14.371
		c30.402,0,46.308,7.635,60.342,14.371c12.012,5.765,21.499,10.319,42.537,10.319c4.785,0,8.949-0.245,12.704-0.679l-0.004-22.964
		v-0.002l-0.005-26.203v-0.002v-4.213l-0.001-1.973c-3.938,0.313-8.152,0.486-12.694,0.486
		C431.343,289.603,415.437,281.97,401.403,275.235z"/>
</g>
<path style="fill:#FFFFFF;" d="M256.001,9.043c-2.94-0.002-5.882,0.375-8.747,1.132c-0.005,0.001-0.01,0.002-0.013,0.002
	c-0.665,0.176-1.325,0.377-1.982,0.596c-0.052,0.018-0.104,0.03-0.156,0.048c-0.615,0.206-1.222,0.439-1.828,0.682
	c-0.09,0.036-0.183,0.065-0.275,0.102c-0.528,0.217-1.046,0.462-1.565,0.706c-0.164,0.077-0.33,0.142-0.492,0.223
	c-0.564,0.276-1.118,0.58-1.668,0.89c-0.112,0.063-0.227,0.117-0.336,0.18l-11.873,6.857l-19.288,11.14L182.06,46.456l0,0
	l-65.913,38.072l-28.889,16.686L65.85,113.578l-11.284,6.517c-0.811,0.469-1.589,0.979-2.352,1.507
	c-1.636,1.133-3.155,2.4-4.546,3.781c-1.391,1.379-2.656,2.872-3.787,4.456c-0.948,1.33-1.784,2.732-2.532,4.182
	c-0.447,0.869-0.87,1.753-1.242,2.659c-0.251,0.61-0.479,1.228-0.692,1.854c-0.019,0.054-0.036,0.11-0.055,0.164
	c-0.204,0.608-0.393,1.221-0.565,1.841v0.001c-0.001,0.001-0.001,0.001-0.001,0.002c-0.398,1.433-0.704,2.898-0.915,4.386
	c-0.008,0.066-0.016,0.133-0.024,0.199c-0.083,0.616-0.146,1.237-0.195,1.861c-0.012,0.162-0.025,0.324-0.035,0.486
	c-0.045,0.698-0.075,1.398-0.075,2.104l0.001,7.842l-0.001,98.58h21.505h34.72h14.965v-66.914l88.984,66.914h58.275v-28.59V212.18
	l-72.822-54.76h72.822V140.54v-39.163V84.496h-72.822l72.822-54.76V9.043z"/>
<g>
	<polygon style="fill:#ED1F34;" points="124.903,157.419 256.001,255.999 256.001,227.409 163.145,157.419 	"/>
	<path style="fill:#ED1F34;" d="M59.056,140.54v115.461h34.72V140.54h162.224v-39.163H93.776v-3.928l-6.518,3.765L65.85,113.578
		l-11.284,6.517c-0.811,0.469-1.589,0.979-2.352,1.507c-1.636,1.133-3.155,2.4-4.546,3.781c-1.391,1.379-2.656,2.872-3.787,4.456
		c-0.948,1.33-1.784,2.732-2.532,4.182c-0.447,0.869-0.87,1.753-1.242,2.659c-0.251,0.61-0.479,1.228-0.692,1.854
		c-0.019,0.054-0.036,0.11-0.055,0.164c-0.204,0.608-0.393,1.221-0.565,1.841v0.001H59.056z"/>
</g>
<g>
	<polygon style="fill:#103B9B;" points="183.179,84.496 256.001,84.496 256.001,29.737 	"/>
	<polygon style="fill:#103B9B;" points="183.179,157.419 256.001,212.179 256.001,157.419 	"/>
	<polygon style="fill:#103B9B;" points="108.741,189.087 108.741,255.999 197.727,255.999 	"/>
</g>
<circle style="fill:#259245;" cx="370.468" cy="201.286" r="55.466"/>
<path style="fill:#ED1F34;" d="M392.282,298.686c-9.613,0-17.913,5.606-21.816,13.727c-3.901-8.12-12.203-13.727-21.816-13.727
	c-13.36,0-24.189,10.83-24.189,24.19c0,13.36,8.904,24.19,8.904,24.19h74.205c0,0,8.904-10.83,8.904-24.19
	C416.473,309.516,405.643,298.686,392.282,298.686z"/>
<path d="M392.282,289.644c-4.45,0-8.783,0.914-12.775,2.587v-27.083c31.301-4.411,55.464-31.36,55.464-63.859
	c0-35.568-28.937-64.505-64.505-64.505s-64.505,28.936-64.505,64.505c0,32.498,24.162,59.448,55.464,63.859v27.083
	c-3.991-1.674-8.324-2.587-12.775-2.587c-18.323,0-33.23,14.907-33.23,33.231c0,16.133,9.839,28.566,10.962,29.931
	c1.717,2.089,4.28,3.299,6.984,3.299h28.06v37.317c0,4.994,4.047,9.041,9.041,9.041s9.041-4.047,9.041-9.041v-37.317h28.06
	c2.704,0,5.266-1.21,6.984-3.298c1.122-1.365,10.963-13.798,10.963-29.932C425.515,304.552,410.606,289.644,392.282,289.644z
	 M324.045,201.29c0-25.597,20.824-46.422,46.422-46.422s46.422,20.824,46.422,46.422s-20.824,46.422-46.422,46.422
	S324.045,226.887,324.045,201.29z M402.783,338.023h-23.276h-18.083H338.14c-2.001-3.384-4.638-9.009-4.638-15.147
	c0-8.353,6.796-15.149,15.147-15.149c5.183,0,10.015,2.708,12.775,7.02c0.326,0.508,0.627,1.031,0.891,1.582
	c1.506,3.133,4.674,5.126,8.151,5.126c3.475,0,6.644-1.992,8.149-5.125c0.265-0.55,0.568-1.075,0.892-1.583
	c2.761-4.311,7.594-7.019,12.775-7.019c8.353,0,15.149,6.797,15.149,15.149C407.432,328.99,404.792,334.622,402.783,338.023z
	 M483.458,149.505c0-3.709-0.494-7.437-1.465-11.075c-0.501-1.887-1.149-3.777-1.926-5.623c-3.18-7.542-8.399-13.99-15.091-18.646
	c-1.114-0.775-2.086-1.398-3.066-1.964L277.5,5.768C270.962,1.995,263.517,0,255.966,0c-7.554,0-15.005,1.998-21.546,5.776
	L50.048,112.263c-0.943,0.545-1.89,1.149-2.984,1.907c-4.086,2.831-7.633,6.335-10.546,10.419c-1.91,2.681-3.515,5.592-4.776,8.658
	c-2.146,5.23-3.234,10.724-3.234,16.332l0.037,212.917c0,0.928,0.033,1.882,0.104,2.917c0.017,0.241,0.039,0.48,0.064,0.721
	l0.014,0.127c0.06,0.694,0.131,1.384,0.228,2.094c0.036,0.259,0.077,0.516,0.133,0.866c0.112,0.697,0.236,1.389,0.382,2.077
	c0.052,0.256,0.106,0.51,0.163,0.756c0.178,0.776,0.377,1.544,0.604,2.337c0.04,0.149,0.083,0.299,0.115,0.405
	c1.139,3.809,2.805,7.45,4.953,10.818c0.012,0.019,0.024,0.037,0.035,0.057c1.484,2.323,3.199,4.51,5.069,6.474
	c0.047,0.049,0.168,0.178,0.215,0.228c0.892,0.926,1.841,1.824,2.826,2.675l0.482,0.405c1.097,0.923,2.11,1.705,3.096,2.391
	c1.116,0.775,2.088,1.397,3.063,1.96L234.5,506.233c6.539,3.772,13.986,5.767,21.534,5.767c7.556,0,15.005-1.998,21.549-5.776
	l184.37-106.487c0.943-0.544,1.89-1.149,2.988-1.907c0.989-0.687,2.004-1.466,3.107-2.389l0.474-0.398
	c0.986-0.85,1.938-1.747,2.85-2.688l0.153-0.163c4.695-4.904,8.206-10.929,10.124-17.344c0.052-0.168,0.101-0.334,0.141-0.487
	c0.224-0.774,0.427-1.554,0.608-2.342c0.059-0.254,0.113-0.509,0.168-0.77c0.142-0.682,0.269-1.371,0.379-2.067l0.022-0.123
	c0.04-0.253,0.08-0.508,0.118-0.786c0.094-0.686,0.168-1.378,0.227-2.063l0.016-0.143c0.024-0.239,0.046-0.477,0.061-0.72
	c0.074-1.058,0.106-2.019,0.105-2.931L483.458,149.505z M46.591,149.577c0-3.24,0.633-6.427,1.879-9.463
	c0.732-1.783,1.667-3.476,2.774-5.028c1.695-2.378,3.753-4.415,6.114-6.051c0.674-0.465,1.222-0.819,1.73-1.111l184.375-106.49
	c1.122-0.649,2.294-1.195,3.496-1.659v227.183H46.609L46.591,149.577z M465.349,364.098l-0.051,0.521
	c-0.035,0.406-0.076,0.813-0.128,1.191l-0.083,0.534c-0.064,0.403-0.137,0.804-0.219,1.196l-0.094,0.44
	c-0.106,0.459-0.224,0.911-0.363,1.389l-0.061,0.222c-1.13,3.76-3.164,7.251-5.902,10.113l-0.084,0.092
	c-0.514,0.53-1.068,1.051-1.638,1.544l-0.289,0.24c-0.67,0.561-1.257,1.015-1.787,1.382c-0.674,0.467-1.222,0.82-1.732,1.113
	l-184.372,106.49c-3.797,2.192-8.12,3.351-12.505,3.351c-4.38,0-8.703-1.157-12.495-3.347L59.132,384.143
	c-0.526-0.304-1.09-0.669-1.776-1.144c-0.539-0.376-1.109-0.819-1.816-1.41l-0.262-0.218c-0.573-0.495-1.124-1.019-1.577-1.486
	c-0.031-0.035-0.137-0.148-0.171-0.183c-1.086-1.142-2.075-2.397-2.929-3.73c-0.012-0.017-0.022-0.031-0.03-0.047
	c-1.257-1.966-2.233-4.088-2.887-6.28l-0.074-0.269c-0.129-0.445-0.245-0.891-0.351-1.351l-0.094-0.442
	c-0.082-0.388-0.154-0.78-0.219-1.198l-0.078-0.499c-0.055-0.4-0.095-0.803-0.133-1.222l-0.046-0.474
	c-0.037-0.562-0.061-1.125-0.061-1.699l-0.018-97.447h209.389c4.994,0,9.041-4.047,9.041-9.041V19.802
	c1.175,0.457,2.322,0.995,3.419,1.627l184.41,106.428c0.528,0.304,1.09,0.667,1.778,1.145c3.881,2.7,6.908,6.446,8.754,10.824
	c0.452,1.074,0.829,2.169,1.119,3.26c0.567,2.124,0.855,4.283,0.855,6.421l0.034,212.93
	C465.41,363.004,465.386,363.567,465.349,364.098z"/>
<g>
</g>
<g>
</g>
<g>
</g>
<g>
</g>
<g>
</g>
<g>
</g>
<g>
</g>
<g>
</g>
<g>
</g>
<g>
</g>
<g>
</g>
<g>
</g>
<g>
</g>
<g>
</g>
<g>
</g>
</svg>
