<?xml version="1.0" encoding="iso-8859-1"?>
<!-- Generator: Adobe Illustrator 19.0.0, SVG Export Plug-In . SVG Version: 6.00 Build 0)  -->
<svg version="1.1" id="Layer_1" xmlns="http://www.w3.org/2000/svg" xmlns:xlink="http://www.w3.org/1999/xlink" x="0px" y="0px"
	 viewBox="0 0 512.001 512.001" style="enable-background:new 0 0 512.001 512.001;" xml:space="preserve">
<path style="fill:#ED1F34;" d="M473.105,371.851c0.176-0.611,0.336-1.228,0.479-1.85c0.046-0.2,0.089-0.401,0.131-0.603
	c0.113-0.54,0.213-1.085,0.3-1.634c0.037-0.236,0.076-0.473,0.11-0.711c0.075-0.545,0.131-1.092,0.18-1.643
	c0.021-0.225,0.047-0.447,0.063-0.674c0.052-0.767,0.084-1.537,0.084-2.313l0,0l0,0v-0.006l-0.006-40.904v-0.002l-0.005-26.203
	v-0.002v-4.213l-0.004-25.574l0,0l-0.008-48.824l-0.005-26.204l-0.006-40.984c0-2.995-0.407-5.931-1.16-8.75
	c-0.405-1.517-0.915-2.997-1.521-4.435c-2.477-5.877-6.574-11.017-11.925-14.74c-0.784-0.545-1.584-1.071-2.419-1.553
	l-22.874-13.202l-21.414-12.358l-17.239-9.949l-65.928-38.046l-25.717-14.844l-19.288-11.132l-11.953-6.899
	c-10.533-6.078-23.509-6.076-34.04,0.007l-11.872,6.857l-19.288,11.14l-25.717,14.854v-0.001l-65.915,38.072l-28.89,16.686
	l-21.408,12.365l-11.282,6.517c-0.811,0.468-1.59,0.979-2.353,1.506c-3.272,2.268-6.073,5.068-8.333,8.235
	c-1.517,2.129-2.781,4.424-3.773,6.843c-1.655,4.031-2.558,8.399-2.557,12.899l0.006,40.912l0.005,26.204l0.012,73.738v4.011v0.85
	v0.001v0.013l0,0v0.005l0,0l0.005,26.2l0,0v1.864l0.002,12.617l0.004,26.497v0.006l0,0c0,0.773,0.033,1.539,0.084,2.304
	c0.016,0.224,0.042,0.446,0.061,0.669c0.048,0.548,0.105,1.096,0.18,1.638c0.033,0.236,0.072,0.471,0.108,0.706
	c0.087,0.545,0.186,1.087,0.298,1.626c0.042,0.201,0.086,0.403,0.131,0.603c0.14,0.615,0.298,1.222,0.471,1.825
	c0.033,0.113,0.061,0.227,0.095,0.34c0.909,3.042,2.24,5.93,3.94,8.589l0.001,0.001l0.001,0.002
	c1.172,1.832,2.517,3.551,4.025,5.137c0.051,0.052,0.099,0.106,0.148,0.158c0.709,0.735,1.454,1.439,2.231,2.113
	c0.125,0.11,0.254,0.215,0.382,0.322c0.786,0.661,1.595,1.298,2.445,1.89c0.784,0.545,1.584,1.07,2.419,1.553l22.552,13.015
	l21.414,12.36l17.561,10.134l91.644,52.89l19.288,11.132l11.953,6.899c10.533,6.078,23.509,6.076,34.04-0.007l11.872-6.857
	l19.288-11.14l25.717-14.853l55.554-32.086l10.363-5.985l26.36-15.225l21.408-12.365l13.813-7.978
	c0.811-0.468,1.59-0.979,2.353-1.506c0.851-0.588,1.659-1.226,2.446-1.884c0.128-0.107,0.258-0.212,0.385-0.322
	c0.78-0.673,1.526-1.375,2.237-2.11c0.047-0.048,0.09-0.098,0.136-0.146c3.724-3.891,6.476-8.609,8.02-13.765
	C473.046,372.067,473.074,371.958,473.105,371.851z"/>
<g>
	<circle style="fill:#FFE000;" cx="132.56" cy="107.448" r="10.287"/>
	<circle style="fill:#FFE000;" cx="256.005" cy="43.555" r="10.287"/>
	<circle style="fill:#FFE000;" cx="379.451" cy="107.448" r="10.287"/>
	<circle style="fill:#FFE000;" cx="132.56" cy="405.754" r="10.287"/>
	<circle style="fill:#FFE000;" cx="256.005" cy="470.852" r="10.287"/>
	<circle style="fill:#FFE000;" cx="379.451" cy="405.754" r="10.287"/>
	<path style="fill:#FFE000;" d="M418.993,304.881L418.993,304.881l-0.002-19.554v-0.002v-3.142l-0.004-19.083l-0.006-36.428
		l-0.002-19.552l-0.005-30.582c0-2.235-0.304-4.424-0.866-6.528c-0.301-1.131-0.682-2.235-1.134-3.309
		c-0.303-0.718-0.65-1.416-1.016-2.104c-1.871-3.502-4.542-6.57-7.88-8.894c-0.585-0.405-1.183-0.798-1.806-1.157l-17.067-9.852
		l-15.978-9.22l-10.944-6.316l-1.919-1.108L311.17,99.662l-19.188-11.076l-14.392-8.306l-8.918-5.148
		c-7.86-4.536-17.542-4.535-25.399,0.005l-8.858,5.116l-14.391,8.313l-19.189,11.082l-49.183,28.407l-1.908,1.101l-19.649,11.348
		l-15.973,9.226l-8.418,4.863c-0.605,0.35-1.186,0.728-1.756,1.124c-2.441,1.691-4.532,3.782-6.217,6.145
		c-0.622,0.874-1.181,1.788-1.688,2.732c-0.415,0.772-0.794,1.562-1.128,2.375c-1.234,3.009-1.908,6.266-1.908,9.625l0.005,30.526
		l0.002,19.552l0.01,55.02v2.992v0.633v0.001v0.01v0.004l0.002,19.55l0,0v1.39l0.001,9.414l0.004,19.771v0.006
		c0,0.576,0.024,1.148,0.063,1.719c0.011,0.166,0.031,0.332,0.046,0.499c0.036,0.41,0.078,0.817,0.134,1.222
		c0.024,0.176,0.053,0.352,0.081,0.528c0.064,0.406,0.139,0.813,0.222,1.214c0.031,0.149,0.064,0.3,0.098,0.45
		c0.105,0.458,0.223,0.911,0.352,1.361c0.025,0.084,0.047,0.17,0.071,0.254c0.488,1.632,1.145,3.204,1.945,4.697
		c0.311,0.581,0.64,1.155,0.996,1.711v0.001c0,0.001,0.001,0.001,0.001,0.001c0.874,1.367,1.878,2.651,3.004,3.834
		c0.037,0.039,0.074,0.08,0.111,0.119c0.529,0.548,1.085,1.075,1.665,1.577c0.094,0.08,0.19,0.159,0.285,0.239
		c0.587,0.492,1.19,0.969,1.824,1.412c0.585,0.406,1.181,0.798,1.806,1.159l16.827,9.712l15.978,9.221l11.184,6.454l1.919,1.108
		l68.38,39.464l14.392,8.306l8.918,5.148c7.86,4.536,17.542,4.535,25.399-0.005l8.858-5.115l14.391-8.313l19.188-11.084
		l41.451-23.94l7.732-4.466l1.908-1.101l17.761-10.259l15.973-9.225l10.306-5.953c0.605-0.35,1.186-0.728,1.756-1.124
		c0.634-0.44,1.238-0.915,1.825-1.406c0.096-0.078,0.193-0.159,0.288-0.241c0.581-0.5,1.138-1.025,1.67-1.573
		c0.034-0.035,0.068-0.072,0.101-0.108c1.591-1.664,2.937-3.536,4.019-5.55c0.806-1.5,1.472-3.079,1.965-4.721
		c0.024-0.081,0.045-0.162,0.068-0.241c0.131-0.456,0.251-0.916,0.357-1.38c0.035-0.151,0.066-0.3,0.098-0.45
		c0.084-0.404,0.159-0.81,0.224-1.22c0.028-0.177,0.057-0.353,0.082-0.53c0.055-0.406,0.099-0.816,0.134-1.226
		c0.016-0.169,0.035-0.334,0.047-0.503c0.039-0.573,0.063-1.148,0.063-1.728v-0.004L418.993,304.881z"/>
</g>
<g>
	<path style="fill:#259245;" d="M94.912,166.968c-1.234,3.009-1.908,6.266-1.908,9.625l0.005,30.526l0.002,19.552l0.01,55.02v2.992
		v0.633v0.001v0.01l0,0v0.004l0.002,19.55l0,0v1.39l0.001,9.414l0.004,19.771v0.006l0,0c0,0.576,0.024,1.148,0.063,1.719
		c0.011,0.166,0.031,0.332,0.046,0.499c0.036,0.41,0.078,0.817,0.134,1.222c0.024,0.176,0.053,0.352,0.081,0.528
		c0.064,0.406,0.139,0.813,0.222,1.214c0.031,0.149,0.064,0.3,0.098,0.45c0.105,0.458,0.223,0.911,0.352,1.361
		c0.025,0.084,0.047,0.17,0.071,0.254c0.488,1.632,1.145,3.204,1.945,4.697l159.959-91.405l-159.96-91.406
		C95.625,165.365,95.246,166.156,94.912,166.968z"/>
	<path style="fill:#259245;" d="M417.992,342.442c0.131-0.456,0.251-0.916,0.357-1.38c0.035-0.151,0.066-0.3,0.098-0.45
		c0.084-0.404,0.159-0.81,0.224-1.22c0.028-0.177,0.057-0.353,0.082-0.53c0.055-0.406,0.099-0.816,0.134-1.226
		c0.016-0.169,0.035-0.334,0.047-0.503c0.039-0.573,0.063-1.148,0.063-1.728l0,0v-0.004l-0.005-30.521l0,0l-0.002-19.554v-0.002
		v-3.142l-0.004-19.083l-0.006-36.428l-0.002-19.552l-0.005-30.582c0-2.235-0.304-4.424-0.866-6.528
		c-0.301-1.131-0.682-2.235-1.134-3.309c-0.303-0.718-0.65-1.416-1.016-2.104l-159.953,91.403l159.959,91.404
		c0.807-1.5,1.472-3.079,1.965-4.721C417.949,342.602,417.969,342.522,417.992,342.442z"/>
</g>
<path style="fill:#FFE000;" d="M138.278,221.572c-12.575,6.371-21.233,19.393-21.233,34.428s8.659,28.056,21.233,34.43
	c12.575-6.372,21.233-19.394,21.233-34.43S150.853,227.943,138.278,221.572z"/>
<circle style="fill:#ED1F34;" cx="256.005" cy="256.004" r="53.996"/>
<path style="fill:#FFE000;" d="M256.001,283.69c-15.268,0-27.691-12.422-27.691-27.691s12.423-27.691,27.691-27.691
	c15.268,0,27.691,12.422,27.691,27.691S271.268,283.69,256.001,283.69z"/>
<path d="M428.013,176.535l0.027,158.866c0,0.79-0.031,1.571-0.083,2.344c-0.013,0.198-0.033,0.411-0.054,0.626
	c-0.054,0.614-0.113,1.172-0.19,1.725c-0.03,0.219-0.063,0.424-0.095,0.63c-0.102,0.645-0.204,1.196-0.319,1.743l-0.135,0.623
	c-0.14,0.612-0.301,1.234-0.48,1.852c-0.011,0.041-0.06,0.215-0.072,0.256c-0.679,2.263-1.574,4.419-2.687,6.488
	c-1.484,2.761-3.318,5.291-5.45,7.516l-0.133,0.141c-0.714,0.737-1.476,1.455-2.265,2.136l-0.451,0.377
	c-0.809,0.677-1.617,1.297-2.412,1.849c-0.849,0.587-1.629,1.085-2.389,1.525l-137.569,79.459
	c-5.31,3.068-11.268,4.601-17.224,4.601c-5.953,0.001-11.906-1.532-17.216-4.597l-137.598-79.41
	c-0.779-0.451-1.555-0.946-2.442-1.562c-0.803-0.559-1.607-1.18-2.477-1.911l-0.352-0.297c-0.817-0.706-1.578-1.426-2.295-2.17
	c-0.046-0.048-0.133-0.141-0.192-0.204c-1.502-1.583-2.857-3.315-4.032-5.152c-0.457-0.715-0.899-1.472-1.351-2.318
	c-1.097-2.048-1.984-4.194-2.636-6.376l-0.088-0.31c-0.187-0.653-0.345-1.262-0.485-1.878l-0.119-0.548
	c-0.13-0.624-0.23-1.172-0.317-1.721c-0.041-0.254-0.077-0.483-0.108-0.714c-0.075-0.541-0.134-1.098-0.183-1.66
	c-0.027-0.272-0.046-0.475-0.059-0.679c-0.052-0.769-0.083-1.544-0.083-2.327l-0.027-158.868c0-4.482,0.869-8.874,2.585-13.057
	c0.433-1.055,0.946-2.137,1.526-3.219c0.703-1.309,1.473-2.555,2.289-3.701c2.331-3.267,5.167-6.067,8.433-8.33
	c0.844-0.583,1.624-1.081,2.386-1.521l137.569-79.457c10.619-6.134,23.817-6.135,34.441-0.006l54.218,31.292
	c4.325,2.495,5.808,8.025,3.313,12.351c-2.497,4.324-8.028,5.806-12.351,3.312l-54.223-31.29
	c-5.045-2.914-11.314-2.911-16.356,0.002l-137.572,79.457c-0.329,0.19-0.698,0.427-1.13,0.727c-1.547,1.072-2.894,2.405-4.006,3.964
	c-0.373,0.522-0.738,1.115-1.081,1.756c-0.286,0.532-0.53,1.048-0.728,1.529c-0.817,1.993-1.232,4.077-1.231,6.193l0.027,158.863
	c0,0.377,0.017,0.745,0.042,1.113l0.031,0.313c0.024,0.271,0.049,0.528,0.084,0.784l0.041,0.268c0.055,0.35,0.104,0.612,0.158,0.874
	l0.06,0.275c0.068,0.297,0.146,0.594,0.229,0.89l0.061,0.219c0.285,0.951,0.705,1.967,1.231,2.949
	c0.197,0.368,0.401,0.729,0.626,1.081c0.006,0.01,0.012,0.019,0.018,0.028c0.565,0.884,1.215,1.714,1.934,2.468
	c0.027,0.028,0.075,0.078,0.117,0.124c0.335,0.345,0.675,0.665,1.025,0.967l0.187,0.156c0.459,0.385,0.837,0.679,1.184,0.921
	c0.448,0.311,0.82,0.551,1.154,0.744l137.596,79.41c5.045,2.914,11.314,2.911,16.356-0.002l137.572-79.457
	c0.329-0.19,0.698-0.427,1.13-0.727c0.34-0.235,0.726-0.533,1.173-0.909l0.205-0.17c0.353-0.305,0.709-0.639,1.037-0.978
	l0.117-0.125c0.973-1.016,1.843-2.221,2.557-3.547c0.536-0.997,0.962-2.017,1.267-3.034l0.054-0.198
	c0.071-0.246,0.149-0.542,0.217-0.841l0.052-0.244c0.065-0.311,0.113-0.573,0.156-0.837l0.054-0.352
	c0.034-0.247,0.06-0.509,0.083-0.77l0.028-0.297c0.029-0.399,0.047-0.77,0.047-1.142l-0.027-158.868
	c0-1.395-0.188-2.808-0.559-4.196c-0.192-0.716-0.438-1.433-0.732-2.134c-0.16-0.377-0.371-0.813-0.662-1.357
	c-1.222-2.288-2.976-4.272-5.069-5.729c-0.454-0.316-0.827-0.556-1.16-0.749l-45.906-26.494c-4.324-2.495-5.807-8.025-3.312-12.351
	c2.495-4.324,8.023-5.808,12.351-3.312l45.907,26.495c0.779,0.451,1.555,0.946,2.442,1.562c4.439,3.09,8.135,7.258,10.699,12.062
	c0.556,1.042,0.992,1.946,1.372,2.846c0.618,1.47,1.136,2.98,1.539,4.494C427.617,170.587,428.011,173.567,428.013,176.535z
	 M483.493,362.415c0,0.931-0.034,1.887-0.105,2.931c-0.017,0.24-0.039,0.48-0.063,0.721l-0.014,0.143
	c-0.06,0.687-0.134,1.382-0.228,2.071c-0.039,0.275-0.078,0.533-0.121,0.792c-0.127,0.803-0.254,1.492-0.398,2.177l-0.169,0.773
	c-0.18,0.784-0.382,1.566-0.605,2.34l-0.116,0.406c-1.943,6.492-5.454,12.517-10.149,17.421l-0.159,0.171
	c-0.901,0.929-1.852,1.828-2.84,2.681c-0.125,0.108-0.265,0.225-0.405,0.34c-1.183,0.987-2.195,1.766-3.181,2.448
	c-1.092,0.756-2.037,1.36-2.982,1.905l-184.372,106.49c-6.541,3.778-13.992,5.776-21.547,5.776l0,0
	c-7.549,0-14.995-1.995-21.534-5.768L50.092,399.803c-0.967-0.559-1.969-1.199-3.064-1.963c-0.991-0.69-2.004-1.471-3.096-2.388
	l-0.498-0.419c-0.963-0.833-1.914-1.734-2.81-2.663c-0.041-0.042-0.154-0.164-0.195-0.206c-1.889-1.984-3.603-4.172-5.089-6.494
	c-2.166-3.389-3.844-7.047-4.988-10.875l-0.112-0.392c-0.23-0.804-0.429-1.573-0.608-2.351c-0.054-0.239-0.108-0.492-0.163-0.746
	c-0.146-0.697-0.271-1.384-0.38-2.075l-0.025-0.16c-0.039-0.237-0.076-0.476-0.108-0.716c-0.098-0.71-0.17-1.402-0.231-2.095
	l-0.014-0.143c-0.024-0.233-0.046-0.468-0.061-0.702c-0.071-1.043-0.105-1.998-0.105-2.919L28.508,149.58
	c0-5.608,1.087-11.104,3.234-16.334c1.256-3.061,2.863-5.975,4.775-8.658c2.914-4.086,6.462-7.59,10.547-10.421
	c1.081-0.75,2.029-1.354,2.978-1.902L234.418,5.776C240.961,1.996,248.412,0,255.966,0c7.549,0,14.995,1.994,21.534,5.767
	l184.411,106.428c0.972,0.562,1.945,1.184,3.062,1.961c6.698,4.659,11.917,11.108,15.096,18.652c0.77,1.828,1.419,3.717,1.925,5.615
	c0.972,3.641,1.465,7.367,1.465,11.078L483.493,362.415z M465.41,362.423l-0.035-212.917c0-2.137-0.288-4.298-0.854-6.418
	c-0.293-1.096-0.668-2.19-1.116-3.252c-1.849-4.388-4.876-8.131-8.757-10.832c-0.691-0.479-1.256-0.844-1.779-1.145L268.461,21.429
	c-3.794-2.189-8.114-3.347-12.495-3.347c-4.383,0-8.707,1.159-12.504,3.351L59.087,127.924c-0.509,0.294-1.057,0.646-1.725,1.109
	c-2.364,1.637-4.423,3.674-6.119,6.053c-1.107,1.553-2.04,3.244-2.769,5.025c-1.249,3.04-1.882,6.225-1.881,9.467l0.035,212.911
	c0,0.576,0.025,1.139,0.064,1.7l0.048,0.493c0.035,0.4,0.076,0.803,0.13,1.203l0.082,0.523c0.061,0.389,0.134,0.787,0.217,1.183
	l0.093,0.428c0.106,0.465,0.223,0.911,0.351,1.354l0.069,0.246c0.653,2.19,1.612,4.29,2.849,6.239
	c0.016,0.024,0.031,0.048,0.047,0.074c0.862,1.348,1.857,2.617,2.956,3.772c0.028,0.029,0.129,0.137,0.157,0.168
	c0.47,0.487,1.021,1.009,1.589,1.498l0.293,0.246c0.662,0.556,1.25,1.011,1.787,1.385c0.68,0.475,1.245,0.838,1.775,1.143
	l184.408,106.427c3.794,2.189,8.116,3.348,12.496,3.348c4.383,0,8.706-1.16,12.502-3.351l184.375-106.49
	c0.51-0.295,1.06-0.647,1.731-1.113c0.536-0.371,1.107-0.813,1.791-1.384l0.276-0.228c0.583-0.504,1.137-1.026,1.649-1.555
	l0.083-0.09c2.744-2.867,4.78-6.362,5.908-10.125l0.071-0.254c0.125-0.432,0.242-0.884,0.347-1.341l0.084-0.387
	c0.094-0.447,0.168-0.847,0.231-1.251c0-0.002,0.021-0.124,0.021-0.127l0.063-0.407c0.053-0.386,0.094-0.787,0.129-1.191l0.051-0.52
	C465.385,363.561,465.41,362.993,465.41,362.423z"/>
<g>
</g>
<g>
</g>
<g>
</g>
<g>
</g>
<g>
</g>
<g>
</g>
<g>
</g>
<g>
</g>
<g>
</g>
<g>
</g>
<g>
</g>
<g>
</g>
<g>
</g>
<g>
</g>
<g>
</g>
</svg>
