<?xml version="1.0" encoding="iso-8859-1"?>
<!-- Generator: Adobe Illustrator 19.0.0, SVG Export Plug-In . SVG Version: 6.00 Build 0)  -->
<svg version="1.1" id="Layer_1" xmlns="http://www.w3.org/2000/svg" xmlns:xlink="http://www.w3.org/1999/xlink" x="0px" y="0px"
	 viewBox="0 0 512 512" style="enable-background:new 0 0 512 512;" xml:space="preserve">
<path style="fill:#FFE000;" d="M473.103,371.851c0.176-0.611,0.336-1.228,0.479-1.85c0.046-0.201,0.089-0.401,0.131-0.603
	c0.113-0.541,0.213-1.085,0.3-1.634c0.037-0.236,0.076-0.473,0.11-0.711c0.075-0.545,0.131-1.093,0.18-1.643
	c0.021-0.225,0.047-0.447,0.063-0.674c0.052-0.767,0.084-1.537,0.084-2.313l0,0l0,0v-0.006l-0.006-40.904v-0.001l-0.005-26.204
	v-0.002v-4.213l-0.004-25.574l0,0l-0.008-48.824l-0.005-26.204l-0.006-40.985c0-2.996-0.407-5.93-1.16-8.75
	c-0.405-1.517-0.915-2.997-1.521-4.435c-2.477-5.877-6.574-11.016-11.925-14.74c-0.784-0.545-1.584-1.071-2.419-1.554l-22.874-13.2
	l-21.414-12.358l-17.239-9.949l-65.926-38.046l-25.717-14.842l-19.288-11.132l-11.953-6.898c-10.533-6.078-23.509-6.077-34.04,0.006
	l-11.872,6.857l-19.288,11.14l-25.717,14.854l0,0l-65.918,38.07l-28.889,16.686l-21.406,12.365l-11.284,6.517
	c-0.811,0.469-1.59,0.979-2.353,1.507c-3.272,2.266-6.073,5.068-8.333,8.236c-1.517,2.128-2.781,4.423-3.773,6.841
	c-1.655,4.031-2.558,8.399-2.557,12.899l0.006,40.912l0.005,26.204l0.012,73.738v4.011v0.849v0.002v0.013l0,0v0.005l0,0l0.005,26.2
	l0,0v1.864l0.002,12.617l0.004,26.497v0.006l0,0c0,0.773,0.033,1.539,0.084,2.304c0.016,0.224,0.042,0.446,0.061,0.669
	c0.048,0.55,0.105,1.096,0.18,1.638c0.033,0.236,0.072,0.471,0.108,0.706c0.087,0.546,0.186,1.087,0.298,1.626
	c0.042,0.201,0.086,0.403,0.131,0.603c0.14,0.615,0.298,1.222,0.471,1.825c0.033,0.113,0.061,0.227,0.095,0.34
	c0.909,3.042,2.24,5.93,3.94,8.589c0,0,0.001,0.001,0.001,0.002l0.001,0.001c1.172,1.832,2.517,3.551,4.025,5.137
	c0.051,0.052,0.099,0.106,0.148,0.158c0.709,0.735,1.454,1.441,2.231,2.112c0.125,0.11,0.254,0.215,0.382,0.322
	c0.786,0.661,1.595,1.3,2.445,1.89c0.784,0.545,1.584,1.07,2.419,1.554l22.552,13.015l21.414,12.359l17.561,10.135l91.644,52.89
	l19.288,11.132l11.953,6.898c10.533,6.078,23.509,6.077,34.04-0.006l11.872-6.857l19.288-11.14l25.717-14.853l55.554-32.086
	l10.363-5.985l26.36-15.224l21.408-12.365l13.813-7.978c0.811-0.469,1.59-0.979,2.353-1.507c0.851-0.59,1.659-1.226,2.446-1.883
	c0.128-0.107,0.258-0.213,0.385-0.322c0.78-0.673,1.526-1.375,2.237-2.11c0.047-0.048,0.09-0.098,0.136-0.146
	c3.724-3.891,6.476-8.609,8.02-13.765C473.044,372.067,473.072,371.958,473.103,371.851z"/>
<polygon style="fill:#259245;" points="37.555,190.489 37.56,216.693 37.572,290.431 37.573,294.442 37.573,295.291 37.573,295.293 
	37.573,295.307 37.573,295.307 37.573,295.311 37.573,295.311 37.578,321.511 37.578,321.511 37.578,323.375 37.578,325.516 
	474.444,325.516 474.444,321.512 474.444,321.511 474.439,295.307 474.439,295.304 474.438,291.091 474.434,265.517 
	474.426,216.693 474.421,190.489 474.421,186.484 37.555,186.484 "/>
<path style="fill:#ED1F34;" d="M474.444,325.516H37.578l0.001,10.476l0.004,26.497v0.006l0,0c0,0.773,0.033,1.539,0.084,2.304
	c0.016,0.224,0.042,0.446,0.061,0.669c0.048,0.55,0.105,1.096,0.18,1.638c0.033,0.236,0.072,0.471,0.108,0.706
	c0.087,0.546,0.186,1.087,0.298,1.626c0.042,0.201,0.086,0.403,0.131,0.603c0.14,0.615,0.298,1.222,0.471,1.825
	c0.033,0.113,0.061,0.227,0.095,0.34c0.909,3.042,2.24,5.93,3.94,8.589c0,0,0.001,0.001,0.001,0.002l0.001,0.001
	c1.172,1.832,2.517,3.551,4.025,5.137c0.051,0.052,0.099,0.106,0.148,0.158c0.709,0.735,1.454,1.441,2.231,2.112
	c0.125,0.11,0.254,0.215,0.382,0.322c0.786,0.661,1.595,1.3,2.445,1.89c0.784,0.545,1.584,1.071,2.419,1.554l22.552,13.015
	l21.414,12.359l17.561,10.135l64.222,37.065l27.421,15.825l19.288,11.132l11.953,6.898c10.533,6.078,23.509,6.077,34.04-0.006
	l11.872-6.857l19.288-11.14l25.717-14.853l1.729-0.999l53.824-31.088l10.363-5.985l26.36-15.225l21.408-12.365l13.813-7.978
	c0.811-0.469,1.59-0.979,2.353-1.507c0.851-0.59,1.659-1.226,2.446-1.883c0.128-0.107,0.258-0.213,0.385-0.322
	c0.78-0.673,1.526-1.375,2.237-2.11c0.047-0.048,0.09-0.098,0.136-0.146c3.724-3.891,6.476-8.609,8.02-13.765
	c0.031-0.106,0.059-0.215,0.09-0.322c0.176-0.611,0.336-1.228,0.479-1.85c0.046-0.201,0.089-0.401,0.131-0.603
	c0.113-0.541,0.213-1.085,0.3-1.633c0.037-0.236,0.076-0.473,0.11-0.711c0.075-0.545,0.131-1.093,0.18-1.643
	c0.021-0.225,0.047-0.447,0.063-0.674c0.052-0.767,0.084-1.537,0.084-2.313l0,0v-0.006V325.516z"/>
<polygon style="fill:#FFFFFF;" points="146.36,231.385 227.087,227.214 255.999,151.727 284.912,227.214 365.638,231.385 
	302.78,282.209 323.76,360.273 255.999,316.197 188.239,360.273 209.219,282.209 "/>
<path d="M323.759,369.315c-1.712,0-3.427-0.486-4.929-1.462l-62.83-40.868l-62.83,40.868c-3.139,2.043-7.214,1.937-10.245-0.264
	c-3.031-2.201-4.389-6.044-3.418-9.661l19.452-72.384l-58.284-47.126c-2.913-2.356-4.071-6.261-2.914-9.824
	c1.157-3.562,4.392-6.043,8.132-6.236l74.853-3.867l26.808-69.995c1.339-3.497,4.698-5.807,8.443-5.807
	c3.746,0,7.104,2.31,8.443,5.807l26.808,69.995l74.853,3.867c3.741,0.193,6.975,2.674,8.132,6.236
	c1.157,3.562-0.001,7.469-2.914,9.824l-58.284,47.126l19.452,72.384c0.972,3.617-0.387,7.46-3.418,9.661
	C327.493,368.736,325.627,369.315,323.759,369.315z M255.999,307.156c1.715,0,3.431,0.487,4.929,1.462l47.972,31.205l-14.852-55.267
	c-0.928-3.454,0.266-7.129,3.046-9.378l44.502-35.982l-57.151-2.952c-3.571-0.184-6.698-2.457-7.977-5.796L256,177.005
	l-20.469,53.442c-1.279,3.339-4.406,5.61-7.977,5.796l-57.151,2.952l44.502,35.982c2.78,2.248,3.975,5.924,3.046,9.378
	l-14.852,55.267l47.972-31.205C252.568,307.643,254.283,307.156,255.999,307.156z M256.035,512L256.035,512
	c-7.55,0-14.995-1.995-21.534-5.768L50.09,399.803c-0.978-0.564-1.951-1.187-3.064-1.961c-0.985-0.686-1.999-1.467-3.096-2.389
	l-0.489-0.412c-0.976-0.844-1.926-1.743-2.817-2.669c-0.042-0.045-0.163-0.172-0.204-0.217c-1.864-1.958-3.565-4.124-5.043-6.425
	c-0.013-0.021-0.027-0.042-0.04-0.063c-2.164-3.385-3.842-7.043-4.985-10.871l-0.112-0.392c-0.23-0.804-0.429-1.573-0.606-2.348
	c-0.055-0.245-0.11-0.499-0.164-0.755c-0.145-0.693-0.27-1.379-0.379-2.07l-0.025-0.152c-0.039-0.24-0.076-0.48-0.11-0.721
	c-0.098-0.712-0.17-1.403-0.231-2.096l-0.014-0.146c-0.024-0.233-0.046-0.467-0.061-0.702c-0.071-1.042-0.105-1.996-0.105-2.917
	L28.509,149.58c0-5.607,1.087-11.103,3.234-16.334c1.256-3.061,2.863-5.975,4.775-8.657c2.913-4.084,6.46-7.59,10.546-10.421
	c1.089-0.753,2.034-1.357,2.979-1.904L234.418,5.776C240.959,1.998,248.41,0,255.964,0c7.549,0,14.995,1.995,21.534,5.768
	l184.41,106.428c0.974,0.563,1.947,1.185,3.062,1.96c6.698,4.659,11.917,11.109,15.096,18.652c0.77,1.829,1.419,3.717,1.925,5.614
	c0.972,3.642,1.465,7.369,1.466,11.08l0.035,212.912c0,0.931-0.034,1.887-0.105,2.931c-0.017,0.241-0.039,0.48-0.063,0.72
	l-0.014,0.143c-0.06,0.688-0.134,1.383-0.228,2.072c-0.037,0.27-0.077,0.526-0.119,0.781l-0.019,0.121
	c-0.11,0.692-0.236,1.38-0.38,2.064l-0.168,0.769c-0.181,0.791-0.383,1.571-0.608,2.344l-0.111,0.392
	c-1.949,6.507-5.459,12.533-10.154,17.438l-0.194,0.205c-0.868,0.896-1.82,1.794-2.81,2.646l-0.381,0.322
	c-0.005,0.004-0.102,0.086-0.107,0.089c-1.101,0.92-2.113,1.699-3.098,2.38c-1.084,0.751-2.03,1.355-2.979,1.902L277.58,506.221
	C271.04,510.002,263.589,512,256.035,512z M50.543,375.882c0.01,0.016,0.02,0.03,0.03,0.046c0.863,1.35,1.858,2.618,2.956,3.772
	c0.029,0.03,0.128,0.136,0.157,0.166c0.469,0.486,1.02,1.008,1.591,1.503l0.291,0.243c0.674,0.565,1.244,1.008,1.783,1.383
	c0.687,0.479,1.253,0.843,1.778,1.146l184.408,106.428c3.794,2.189,8.114,3.346,12.495,3.346c4.383,0,8.707-1.158,12.504-3.351
	l184.375-106.49c0.51-0.294,1.058-0.647,1.728-1.11c0.54-0.374,1.109-0.814,1.795-1.386l0.271-0.227
	c0.588-0.506,1.142-1.028,1.654-1.558l0.077-0.084c2.75-2.873,4.786-6.368,5.914-10.132l0.071-0.254
	c0.125-0.433,0.242-0.885,0.347-1.342l0.084-0.389c0.093-0.444,0.166-0.845,0.23-1.249l0.083-0.533
	c0.053-0.388,0.094-0.791,0.129-1.193l0.051-0.518c0.036-0.539,0.061-1.107,0.061-1.678l-0.035-212.917
	c0-2.137-0.288-4.298-0.854-6.419c-0.292-1.095-0.668-2.189-1.116-3.253c-1.849-4.386-4.876-8.13-8.758-10.83
	c-0.687-0.477-1.253-0.841-1.778-1.145L268.458,21.429c-3.793-2.189-8.113-3.347-12.494-3.347c-4.383,0-8.707,1.159-12.504,3.351
	L59.086,127.924c-0.509,0.294-1.058,0.647-1.73,1.111c-2.36,1.636-4.419,3.672-6.116,6.05c-1.107,1.554-2.04,3.244-2.77,5.025
	c-1.248,3.042-1.881,6.227-1.881,9.466l0.035,212.91c0,0.576,0.025,1.139,0.064,1.7l0.048,0.497c0.035,0.398,0.076,0.8,0.13,1.199
	l0.081,0.521c0.063,0.393,0.135,0.791,0.217,1.186l0.093,0.429c0.105,0.463,0.223,0.91,0.351,1.354l0.066,0.239
	C48.335,371.819,49.299,373.926,50.543,375.882z"/>
<g>
</g>
<g>
</g>
<g>
</g>
<g>
</g>
<g>
</g>
<g>
</g>
<g>
</g>
<g>
</g>
<g>
</g>
<g>
</g>
<g>
</g>
<g>
</g>
<g>
</g>
<g>
</g>
<g>
</g>
</svg>
