<?xml version="1.0" encoding="iso-8859-1"?>
<!-- Generator: Adobe Illustrator 19.0.0, SVG Export Plug-In . SVG Version: 6.00 Build 0)  -->
<svg version="1.1" id="Layer_1" xmlns="http://www.w3.org/2000/svg" xmlns:xlink="http://www.w3.org/1999/xlink" x="0px" y="0px"
	 viewBox="0 0 512 512" style="enable-background:new 0 0 512 512;" xml:space="preserve">
<path style="fill:#FFFFFF;" d="M473.103,371.851c0.176-0.611,0.336-1.228,0.479-1.85c0.046-0.201,0.089-0.401,0.131-0.603
	c0.113-0.541,0.213-1.085,0.3-1.634c0.037-0.236,0.076-0.473,0.11-0.711c0.075-0.545,0.131-1.093,0.18-1.643
	c0.02-0.225,0.047-0.447,0.063-0.674c0.052-0.767,0.084-1.537,0.084-2.313l0,0l0,0v-0.006l-0.006-40.904v-0.001l-0.005-26.204
	v-0.002v-4.213l-0.004-25.574l0,0l-0.008-48.824l-0.005-26.204l-0.006-40.985c0-2.996-0.407-5.93-1.16-8.75
	c-0.405-1.517-0.915-2.997-1.521-4.435c-2.477-5.877-6.574-11.016-11.925-14.74c-0.784-0.545-1.584-1.071-2.419-1.554l-22.874-13.2
	l-21.414-12.358l-17.239-9.949l-65.926-38.046L304.22,31.629l-19.288-11.132l-11.953-6.898c-10.533-6.078-23.509-6.077-34.04,0.006
	l-11.872,6.857l-19.288,11.14l-25.717,14.854l0,0l-65.918,38.07l-28.889,16.686l-21.406,12.365l-11.284,6.517
	c-0.811,0.469-1.59,0.979-2.353,1.507c-3.272,2.268-6.073,5.068-8.333,8.236c-1.517,2.128-2.781,4.423-3.773,6.841
	c-1.655,4.031-2.558,8.399-2.557,12.899l0.006,40.912l0.005,26.204l0.012,73.738v4.011v0.85v0.001v0.013l0,0v0.005l0,0l0.005,26.2
	l0,0v1.864l0.002,12.617l0.004,26.497v0.006l0,0c0,0.773,0.033,1.539,0.084,2.304c0.016,0.224,0.042,0.446,0.061,0.669
	c0.048,0.55,0.105,1.096,0.18,1.638c0.033,0.236,0.072,0.471,0.108,0.706c0.087,0.546,0.186,1.087,0.298,1.626
	c0.042,0.201,0.086,0.403,0.131,0.603c0.14,0.615,0.298,1.222,0.471,1.825c0.033,0.113,0.061,0.227,0.095,0.34
	c0.909,3.042,2.24,5.93,3.94,8.589c0,0,0.001,0.001,0.001,0.002l0.001,0.001c1.172,1.832,2.517,3.551,4.025,5.137
	c0.051,0.052,0.099,0.106,0.148,0.158c0.709,0.735,1.454,1.439,2.231,2.112c0.125,0.11,0.254,0.215,0.382,0.322
	c0.786,0.661,1.595,1.3,2.445,1.89c0.784,0.545,1.584,1.07,2.419,1.554l22.552,13.015l21.414,12.359l17.561,10.135l91.644,52.89
	l19.288,11.132l11.953,6.898c10.533,6.078,23.509,6.077,34.04-0.006l11.872-6.857l19.288-11.14l25.717-14.853l55.554-32.086
	l10.363-5.985l26.36-15.225l21.408-12.365l13.813-7.978c0.811-0.469,1.59-0.979,2.353-1.507c0.851-0.59,1.659-1.226,2.446-1.883
	c0.128-0.107,0.258-0.213,0.385-0.322c0.78-0.673,1.526-1.375,2.237-2.11c0.047-0.048,0.09-0.098,0.136-0.146
	c3.724-3.891,6.476-8.609,8.02-13.765C473.044,372.067,473.071,371.958,473.103,371.851z"/>
<path style="fill:#ED1F34;" d="M116.456,247.849c11.464-5.503,24.458-11.741,49.118-11.741c24.661,0,37.656,6.237,49.12,11.741
	c11.133,5.344,20.748,9.959,41.294,9.959c20.547,0,30.163-4.616,41.296-9.96c11.465-5.502,24.46-11.739,49.121-11.739
	c24.663,0,37.658,6.237,49.123,11.739c11.134,5.344,20.751,9.96,41.299,9.96c18.25,0,27.878-3.642,37.604-8.202l-0.005-32.913
	l-0.005-26.204l-0.006-40.985c0-2.996-0.407-5.93-1.16-8.75c-0.405-1.517-0.915-2.997-1.521-4.435
	c-2.477-5.877-6.574-11.016-11.925-14.74c-0.784-0.545-1.584-1.071-2.419-1.554l-22.874-13.2l-21.414-12.358l-17.239-9.949
	l-65.925-38.045L304.22,31.629l-19.288-11.132l-11.953-6.898c-10.533-6.078-23.509-6.077-34.04,0.006l-11.872,6.857l-19.288,11.14
	l-25.717,14.854l0,0l-65.918,38.07l-28.889,16.686l-21.406,12.365l-11.284,6.517c-0.811,0.469-1.59,0.979-2.353,1.507
	c-3.272,2.268-6.073,5.068-8.333,8.236c-1.517,2.128-2.781,4.423-3.773,6.841c-1.655,4.031-2.558,8.399-2.557,12.899l0.006,40.912
	l0.005,26.204l0.005,32.914c9.725,4.558,19.351,8.201,37.599,8.201C95.709,257.808,105.323,253.193,116.456,247.849z"/>
<path style="fill:#FFE000;" d="M255.989,269.863c24.663,0,37.657-6.237,49.121-11.741c4.928-2.365,9.565-4.586,14.979-6.329
	c-0.037-35.313-28.776-64.03-64.096-64.03s-64.06,28.718-64.096,64.031c5.412,1.743,10.046,3.964,14.973,6.328
	C218.333,263.627,231.327,269.863,255.989,269.863z"/>
<g>
	<path style="fill:#103B9B;" d="M387.704,312.372c-11.134-5.344-20.751-9.959-41.299-9.959c-20.547,0-30.162,4.616-41.295,9.959
		c-11.464,5.503-24.46,11.741-49.121,11.741s-37.654-6.237-49.12-11.741c-11.133-5.344-20.748-9.959-41.295-9.959
		c-20.544,0-30.16,4.616-41.293,9.959c-11.464,5.503-24.458,11.741-49.118,11.741c-16.939,0-28.372-2.943-37.588-6.569l0.001,3.967
		v0.001v1.863l0.002,12.617l0.001,10.065c9.72,4.554,19.345,8.194,37.583,8.194c20.544,0,30.16-4.616,41.291-9.959
		c11.464-5.503,24.458-11.741,49.118-11.741c24.661,0,37.656,6.237,49.12,11.741c11.133,5.344,20.748,9.959,41.294,9.959
		c20.547,0,30.163-4.616,41.296-9.96c11.465-5.502,24.46-11.739,49.121-11.739c24.663,0,37.658,6.237,49.123,11.739
		c11.134,5.344,20.751,9.96,41.299,9.96c18.26,0,27.889-3.647,37.619-8.21l-0.001-24.529v-0.001l-0.001-3.977
		c-9.22,3.63-20.66,6.579-37.615,6.579C412.164,324.111,399.168,317.875,387.704,312.372z"/>
	<path style="fill:#103B9B;" d="M116.456,296.07c11.464-5.503,24.458-11.741,49.118-11.741c24.661,0,37.656,6.237,49.12,11.741
		c11.133,5.344,20.748,9.959,41.294,9.959c20.547,0,30.163-4.616,41.296-9.96c11.465-5.502,24.46-11.739,49.121-11.739
		c24.663,0,37.658,6.237,49.123,11.739c11.134,5.344,20.751,9.96,41.299,9.96c18.255,0,27.882-3.644,37.612-8.206v-2.517v-0.002
		v-4.213l-0.004-21.775c-9.219,3.629-20.658,6.575-37.607,6.575c-24.663,0-37.658-6.237-49.124-11.741
		c-11.134-5.344-20.751-9.959-41.299-9.959c-20.547,0-30.162,4.616-41.295,9.959c-11.465,5.503-24.46,11.741-49.121,11.741
		s-37.654-6.237-49.12-11.741c-11.133-5.344-20.748-9.959-41.295-9.959c-20.544,0-30.16,4.616-41.293,9.959
		c-11.464,5.503-24.458,11.741-49.118,11.741c-16.944,0-28.379-2.944-37.595-6.571l0.004,21.112v4.011v0.85v0.001v0.013l0,0v0.005
		l0,0v2.521c9.721,4.556,19.347,8.198,37.591,8.198C95.709,306.028,105.323,301.414,116.456,296.07z"/>
	<path style="fill:#103B9B;" d="M436.826,372.332c-24.663,0-37.658-6.237-49.124-11.741c-11.134-5.344-20.751-9.959-41.299-9.959
		c-20.547,0-30.162,4.616-41.295,9.959c-11.465,5.503-24.46,11.741-49.121,11.741s-37.654-6.237-49.12-11.741
		c-11.133-5.344-20.748-9.959-41.295-9.959c-20.544,0-30.16,4.616-41.293,9.959c-11.464,5.503-24.458,11.741-49.118,11.741
		c-16.822,0-28.21-2.904-37.394-6.495c0.041,0.424,0.081,0.85,0.139,1.269c0.033,0.236,0.072,0.471,0.108,0.706
		c0.087,0.546,0.186,1.087,0.298,1.626c0.042,0.201,0.086,0.403,0.131,0.603c0.14,0.615,0.298,1.222,0.471,1.825
		c0.033,0.113,0.061,0.227,0.095,0.34c0.909,3.042,2.24,5.93,3.94,8.589c0,0,0.001,0.001,0.001,0.002l0.001,0.001
		c1.172,1.832,2.517,3.551,4.025,5.137c0.051,0.052,0.099,0.106,0.148,0.158c0.709,0.735,1.454,1.441,2.231,2.112
		c0.125,0.11,0.254,0.215,0.382,0.322c0.786,0.661,1.595,1.3,2.445,1.89c0.784,0.545,1.584,1.07,2.419,1.554l22.552,13.015
		l21.414,12.359l17.561,10.135l16.206,9.354l75.437,43.536l19.288,11.132l11.953,6.898c10.533,6.078,23.509,6.077,34.04-0.006
		l11.872-6.857l19.288-11.14l25.717-14.853l49.707-28.709l5.846-3.377l10.363-5.985l26.36-15.225l21.408-12.365l13.813-7.978
		c0.811-0.469,1.59-0.979,2.353-1.507c0.851-0.59,1.659-1.226,2.446-1.883c0.128-0.107,0.258-0.213,0.385-0.323
		c0.78-0.672,1.526-1.374,2.237-2.11c0.047-0.048,0.09-0.098,0.136-0.146c3.724-3.891,6.476-8.609,8.02-13.765
		c0.031-0.106,0.059-0.215,0.09-0.322c0.176-0.611,0.336-1.228,0.479-1.85c0.046-0.201,0.089-0.401,0.131-0.603
		c0.113-0.541,0.213-1.085,0.3-1.633c0.037-0.236,0.076-0.473,0.11-0.711c0.055-0.408,0.095-0.817,0.135-1.228
		C465.069,369.422,453.671,372.332,436.826,372.332z"/>
</g>
<path style="fill:#FFFFFF;" d="M474.434,265.517l-0.001-5.99l-0.001-9.92c-9.726,4.559-19.353,8.202-37.604,8.202
	c-20.548,0-30.165-4.616-41.299-9.96c-11.465-5.502-24.46-11.739-49.122-11.739c-7.134,0-13.268,0.533-18.695,1.408
	c-6.839,1.103-12.527,2.761-17.534,4.646c-4.756,1.791-8.922,3.779-12.891,5.684c-11.133,5.344-20.749,9.96-41.296,9.96
	c-20.546,0-30.161-4.616-41.294-9.959c-3.967-1.905-8.132-3.891-12.886-5.683c-5.009-1.888-10.695-3.544-17.534-4.647
	c-5.428-0.876-11.563-1.409-18.7-1.409c-24.66,0-37.653,6.237-49.118,11.741c-11.133,5.344-20.747,9.959-41.291,9.959
	c-18.248,0-27.874-3.642-37.599-8.201l0.001,9.921l0.001,9.79c9.217,3.627,20.652,6.571,37.595,6.571
	c24.66,0,37.653-6.237,49.118-11.741c11.133-5.344,20.747-9.959,41.293-9.959c6.862,0,12.487,0.524,17.374,1.408
	c7.52,1.362,13.268,3.594,18.9,6.181c1.667,0.766,3.327,1.558,5.021,2.37c11.464,5.503,24.459,11.741,49.12,11.741
	c24.663,0,37.657-6.237,49.121-11.741c1.696-0.814,3.357-1.607,5.027-2.374c5.631-2.586,11.379-4.817,18.9-6.178
	c4.886-0.884,10.51-1.407,17.369-1.407c20.548,0,30.163,4.616,41.299,9.959c11.465,5.503,24.46,11.741,49.124,11.741
	c16.95,0,28.389-2.946,37.607-6.575L474.434,265.517z"/>
<path d="M338.939,127.618c0,4.994-4.048,9.041-9.041,9.041h-50.631l-17.334,15.112c-1.702,1.484-3.822,2.227-5.941,2.227
	c-2.119,0-4.239-0.741-5.942-2.227l-17.333-15.112h-50.631c-4.993,0-9.041-4.047-9.041-9.041c0-4.993,4.048-9.041,9.041-9.041
	h54.018c2.184,0,4.295,0.791,5.942,2.227l13.945,12.159l13.947-12.159c1.647-1.436,3.758-2.227,5.942-2.227h54.018
	C334.891,118.576,338.939,122.624,338.939,127.618z M255.992,178.723c-35.421,0-65.032,25.312-71.718,58.796
	c6.839,1.103,12.525,2.761,17.534,4.647c4.597-25.747,27.135-45.36,54.183-45.36s49.587,19.611,54.183,45.358
	c5.009-1.887,10.697-3.543,17.534-4.646C321.024,204.034,291.412,178.723,255.992,178.723z M483.491,362.414
	c0,0.931-0.034,1.887-0.105,2.931c-0.017,0.241-0.039,0.48-0.063,0.72l-0.014,0.145c-0.06,0.687-0.134,1.382-0.228,2.072
	c-0.037,0.269-0.077,0.523-0.118,0.776l-0.02,0.123c-0.11,0.696-0.236,1.384-0.38,2.067l-0.168,0.769
	c-0.181,0.79-0.383,1.57-0.606,2.344l-0.113,0.398c-1.947,6.501-5.457,12.527-10.152,17.432l-0.194,0.205
	c-0.868,0.897-1.82,1.795-2.81,2.647l-0.381,0.321c-0.005,0.004-0.101,0.084-0.106,0.088c-1.098,0.919-2.112,1.697-3.099,2.381
	c-1.084,0.751-2.03,1.355-2.979,1.904L277.581,506.224c-6.541,3.778-13.992,5.776-21.547,5.776l0,0
	c-7.549,0-14.995-1.995-21.534-5.768L50.089,399.803c-0.978-0.564-1.951-1.187-3.064-1.963c-0.985-0.686-1.999-1.467-3.096-2.389
	l-0.481-0.405c-0.99-0.857-1.938-1.756-2.827-2.677c-0.04-0.042-0.154-0.163-0.194-0.205c-1.876-1.97-3.578-4.139-5.054-6.44
	c-0.012-0.019-0.025-0.039-0.037-0.058c-2.164-3.385-3.842-7.043-4.985-10.871l-0.112-0.392c-0.23-0.805-0.429-1.573-0.606-2.348
	c-0.057-0.247-0.111-0.501-0.164-0.757c-0.145-0.691-0.27-1.377-0.379-2.066l-0.025-0.158c-0.039-0.239-0.076-0.476-0.108-0.716
	c-0.098-0.71-0.171-1.402-0.231-2.096l-0.014-0.143c-0.024-0.234-0.046-0.467-0.061-0.703c-0.071-1.042-0.105-1.995-0.105-2.917
	l-0.035-212.917c0-5.608,1.087-11.103,3.234-16.334c1.256-3.062,2.863-5.975,4.775-8.657c2.913-4.083,6.46-7.589,10.546-10.419
	c1.089-0.753,2.034-1.357,2.979-1.904L234.417,5.776C240.958,1.998,248.409,0,255.963,0c7.549,0,14.995,1.995,21.534,5.768
	l184.41,106.429c0.974,0.562,1.947,1.185,3.062,1.96c6.698,4.661,11.917,11.109,15.096,18.652c0.77,1.828,1.419,3.718,1.925,5.614
	c0.972,3.642,1.465,7.369,1.466,11.08L483.491,362.414z M465.408,362.423l-0.035-212.917c0-2.137-0.288-4.298-0.854-6.419
	c-0.292-1.095-0.668-2.189-1.116-3.254c-1.849-4.386-4.876-8.13-8.758-10.83c-0.687-0.477-1.253-0.841-1.778-1.145L268.458,21.429
	c-3.794-2.188-8.114-3.347-12.495-3.347c-4.383,0-8.707,1.16-12.504,3.351L59.085,127.924c-0.509,0.294-1.058,0.647-1.73,1.111
	c-2.36,1.635-4.419,3.672-6.116,6.05c-1.107,1.554-2.04,3.244-2.77,5.025c-1.248,3.04-1.881,6.227-1.881,9.466l0.035,212.912
	c0,0.575,0.025,1.138,0.064,1.7l0.048,0.495c0.035,0.399,0.076,0.802,0.13,1.201l0.082,0.523c0.061,0.392,0.134,0.79,0.217,1.185
	l0.093,0.432c0.105,0.459,0.223,0.907,0.35,1.353l0.066,0.239c0.657,2.205,1.621,4.31,2.866,6.265
	c0.011,0.017,0.022,0.034,0.033,0.051c0.862,1.349,1.857,2.618,2.956,3.773c0.027,0.028,0.128,0.136,0.154,0.164
	c0.468,0.485,1.02,1.008,1.596,1.507l0.288,0.24c0.674,0.565,1.244,1.008,1.783,1.383c0.687,0.479,1.253,0.843,1.778,1.146
	l184.408,106.428c3.794,2.189,8.114,3.347,12.495,3.347c4.383,0,8.707-1.159,12.504-3.351l184.375-106.49
	c0.51-0.295,1.058-0.647,1.728-1.109c0.541-0.375,1.11-0.814,1.794-1.386l0.272-0.227c0.588-0.506,1.142-1.028,1.654-1.558
	l0.083-0.09c2.744-2.867,4.78-6.362,5.908-10.126l0.071-0.254c0.125-0.432,0.242-0.884,0.347-1.343l0.089-0.411
	c0.088-0.422,0.163-0.823,0.227-1.227l0.083-0.533c0.053-0.386,0.094-0.788,0.129-1.192l0.051-0.52
	C465.383,363.562,465.408,362.994,465.408,362.423z"/>
<g>
</g>
<g>
</g>
<g>
</g>
<g>
</g>
<g>
</g>
<g>
</g>
<g>
</g>
<g>
</g>
<g>
</g>
<g>
</g>
<g>
</g>
<g>
</g>
<g>
</g>
<g>
</g>
<g>
</g>
</svg>
