<?xml version="1.0" encoding="iso-8859-1"?>
<!-- Generator: Adobe Illustrator 19.0.0, SVG Export Plug-In . SVG Version: 6.00 Build 0)  -->
<svg version="1.1" id="Layer_1" xmlns="http://www.w3.org/2000/svg" xmlns:xlink="http://www.w3.org/1999/xlink" x="0px" y="0px"
	 viewBox="0 0 512 512" style="enable-background:new 0 0 512 512;" xml:space="preserve">
<path style="fill:#FFE000;" d="M473.119,371.859c0.176-0.611,0.338-1.229,0.479-1.851c0.047-0.201,0.089-0.401,0.131-0.603
	c0.113-0.541,0.213-1.085,0.3-1.634c0.037-0.237,0.076-0.474,0.11-0.711c0.076-0.545,0.131-1.094,0.18-1.643
	c0.02-0.225,0.047-0.448,0.063-0.674c0.052-0.767,0.084-1.537,0.083-2.314l0,0l0,0v-0.006l-0.006-40.907v-0.001l-0.005-26.206
	v-0.002l-0.001-4.214l-0.004-25.576l0,0l-0.008-48.827l-0.005-26.206l-0.006-40.988c-0.001-2.996-0.409-5.93-1.161-8.75
	c-0.405-1.517-0.915-2.997-1.521-4.435c-2.478-5.877-6.574-11.017-11.925-14.741c-0.784-0.545-1.584-1.071-2.421-1.554
	l-22.875-13.201l-21.415-12.359l-17.241-9.95l-65.931-38.05l-25.719-14.843l-19.29-11.133l-11.954-6.898
	c-10.533-6.079-23.511-6.077-34.043,0.006l-11.873,6.857l-19.29,11.141L182.052,46.44l0,0l-65.917,38.076l-28.892,16.686
	l-21.409,12.366l-11.283,6.518c-0.813,0.469-1.59,0.979-2.353,1.507c-3.272,2.267-6.073,5.068-8.332,8.237
	c-1.517,2.128-2.781,4.423-3.775,6.842c-1.654,4.032-2.557,8.399-2.557,12.9l0.007,40.915l0.005,26.206l0.012,73.743l0.001,4.011
	v0.849v0.002v0.013l0,0v0.005l0,0l0.005,26.201v0.001v1.863l0.002,12.618l0.004,26.499v0.006l0,0
	c0.001,0.773,0.033,1.54,0.084,2.304c0.016,0.224,0.042,0.446,0.063,0.669c0.048,0.55,0.105,1.096,0.178,1.638
	c0.033,0.236,0.072,0.471,0.11,0.706c0.086,0.546,0.184,1.087,0.298,1.626c0.042,0.201,0.084,0.403,0.13,0.603
	c0.14,0.615,0.298,1.223,0.471,1.825c0.033,0.113,0.061,0.227,0.095,0.34c0.909,3.043,2.239,5.93,3.941,8.59
	c0,0,0,0.001,0.001,0.002l0.001,0.001c1.172,1.833,2.517,3.552,4.027,5.137c0.049,0.052,0.098,0.106,0.147,0.158
	c0.71,0.735,1.454,1.439,2.233,2.113c0.125,0.109,0.254,0.213,0.382,0.321c0.785,0.661,1.594,1.3,2.444,1.89
	c0.784,0.545,1.584,1.071,2.421,1.554l22.553,13.016l21.415,12.36l17.562,10.136l91.65,52.894l19.29,11.133l11.954,6.898
	c10.533,6.079,23.511,6.077,34.043-0.006l11.873-6.857l19.29-11.141l25.719-14.854l55.558-32.088l10.363-5.986l26.362-15.226
	l21.409-12.366l13.814-7.979c0.813-0.469,1.59-0.979,2.353-1.507c0.85-0.59,1.659-1.226,2.445-1.883
	c0.129-0.107,0.259-0.213,0.386-0.323c0.779-0.672,1.526-1.374,2.236-2.11c0.046-0.048,0.09-0.098,0.136-0.146
	c3.725-3.892,6.475-8.609,8.02-13.766C473.061,372.075,473.088,371.966,473.119,371.859z"/>
<path style="fill:#ED1F34;" d="M436.056,352.082c0.146-0.506,0.28-1.019,0.398-1.535c0.037-0.166,0.074-0.333,0.109-0.5
	c0.094-0.448,0.176-0.901,0.25-1.355c0.03-0.197,0.064-0.392,0.09-0.59c0.063-0.452,0.11-0.907,0.149-1.364
	c0.017-0.186,0.039-0.371,0.052-0.558c0.042-0.637,0.07-1.276,0.07-1.919l0,0l0,0v-0.005l-0.006-33.925v-0.001l-0.004-21.732v-0.001
	l-0.001-3.494l-0.002-21.21l0,0l-0.007-40.493l-0.004-21.732l-0.006-33.991c0-2.485-0.338-4.919-0.962-7.257
	c-0.335-1.257-0.758-2.486-1.261-3.678c-2.054-4.873-5.452-9.136-9.89-12.225c-0.65-0.452-1.314-0.887-2.007-1.288l-18.969-10.948
	l-17.76-10.249l-14.297-8.251l-54.677-31.556l-21.328-12.309l-15.997-9.233l-9.914-5.722c-8.736-5.042-19.498-5.039-28.232,0.005
	l-9.846,5.687l-15.997,9.24l-21.328,12.319l0,0l-54.669,31.575l-23.958,13.838L98.294,137.88l-9.358,5.405
	c-0.674,0.389-1.319,0.811-1.951,1.25c-2.714,1.88-5.037,4.203-6.911,6.831c-1.257,1.764-2.306,3.667-3.13,5.674
	c-1.372,3.343-2.122,6.966-2.121,10.699l0.006,33.931l0.004,21.732l0.01,61.156l0.001,3.326v0.704v0.001v0.011l0,0v0.004l0,0
	l0.004,21.729v0.001v1.546l0.002,10.465l0.004,21.976v0.005l0,0c0,0.641,0.027,1.278,0.07,1.911c0.013,0.186,0.035,0.37,0.052,0.555
	c0.04,0.455,0.087,0.908,0.148,1.359c0.027,0.197,0.06,0.391,0.09,0.586c0.072,0.452,0.153,0.902,0.247,1.349
	c0.035,0.168,0.07,0.334,0.109,0.5c0.116,0.509,0.247,1.014,0.391,1.513c0.027,0.094,0.051,0.188,0.078,0.282
	c0.754,2.523,1.857,4.918,3.267,7.123c0.001,0,0.001,0.001,0.001,0.001l0.001,0.001c0.972,1.519,2.087,2.945,3.34,4.259
	c0.041,0.043,0.081,0.088,0.124,0.131c0.587,0.61,1.206,1.195,1.849,1.753c0.105,0.09,0.212,0.177,0.318,0.266
	c0.652,0.547,1.323,1.078,2.028,1.569c0.65,0.452,1.314,0.887,2.007,1.288l18.704,10.794l17.759,10.25l14.565,8.405l76.005,43.865
	l15.997,9.233l9.914,5.722c8.736,5.042,19.497,5.039,28.232-0.005l9.846-5.687l15.997-9.24l21.328-12.319l46.075-26.611l8.595-4.965
	l21.862-12.626l17.755-10.255l11.456-6.616c0.674-0.389,1.319-0.811,1.951-1.25c0.706-0.488,1.377-1.016,2.029-1.561
	c0.107-0.089,0.215-0.176,0.32-0.268c0.647-0.557,1.267-1.139,1.855-1.749c0.039-0.04,0.076-0.081,0.115-0.121
	c3.089-3.227,5.37-7.14,6.651-11.417C436.008,352.26,436.031,352.17,436.056,352.082z"/>
<path style="fill:#FFE000;" d="M354.421,198.621h-56.025c0,23.414-18.981,42.396-42.396,42.396s-42.396-18.982-42.396-42.396
	h-56.025c0,48.361,34.889,88.545,80.864,96.827c-5.953,5.008-9.744,12.505-9.744,20.893v34.185H283.3v-34.185
	c0-8.389-3.792-15.885-9.744-20.893C319.531,287.165,354.421,246.981,354.421,198.621z"/>
<path d="M366.477,189.579h-12.056h-56.025c-4.995,0-9.042,4.048-9.042,9.042c0,9.228-3.769,17.591-9.845,23.636v-51.742h5.425
	c4.995,0,9.042-4.048,9.042-9.042c0-4.994-4.047-9.042-9.042-9.042h-14.467c-4.995,0-9.042,4.048-9.042,9.042v70.055
	c-1.767,0.291-3.578,0.448-5.425,0.448c-1.847,0-3.658-0.158-5.425-0.448v-70.055c0-4.994-4.047-9.042-9.042-9.042h-14.467
	c-4.995,0-9.042,4.048-9.042,9.042c0,4.994,4.047,9.042,9.042,9.042h5.425v51.742c-6.076-6.045-9.845-14.408-9.845-23.636
	c0-4.994-4.047-9.042-9.042-9.042h-56.025h-12.056c-4.995,0-9.042,4.048-9.042,9.042s4.047,9.042,9.042,9.042h3.394
	c3.622,43.378,33.064,80.122,74.17,93.265c-2.235,4.765-3.43,10.013-3.43,15.414v34.185c0,4.994,4.047,9.042,9.042,9.042H283.3
	c4.995,0,9.042-4.048,9.042-9.042v-34.185c0-5.401-1.195-10.649-3.43-15.414c41.106-13.144,70.549-49.887,74.169-93.265h3.395
	c4.995,0,9.042-4.048,9.042-9.042S371.471,189.579,366.477,189.579z M271.953,286.55c-3.449,0.622-6.229,3.182-7.134,6.569
	c-0.903,3.388,0.233,6.991,2.916,9.248c4.145,3.488,6.522,8.582,6.522,13.974v25.143h-36.517v-25.143
	c0-5.393,2.377-10.486,6.522-13.974c2.684-2.257,3.819-5.86,2.916-9.248c-0.904-3.388-3.684-5.947-7.134-6.569
	c-39.55-7.125-69.017-39.584-72.973-78.887h38.284c3.219,18.078,15.914,32.917,32.747,39.183c0.283,0.117,0.576,0.217,0.874,0.305
	c5.331,1.876,11.058,2.908,17.022,2.908s11.691-1.032,17.022-2.908c0.299-0.088,0.591-0.189,0.875-0.306
	c16.833-6.267,29.527-21.107,32.746-39.182h38.284C340.97,246.966,311.502,279.425,271.953,286.55z M256.035,512
	c-7.448,0-14.894-1.916-21.536-5.751L50.075,399.813c-0.975-0.563-1.947-1.186-3.062-1.96c-0.986-0.687-1.999-1.468-3.097-2.391
	l-0.481-0.404c-0.984-0.852-1.934-1.752-2.826-2.675c-0.047-0.049-0.168-0.177-0.213-0.227c-1.87-1.963-3.584-4.15-5.071-6.474
	c-0.012-0.018-0.023-0.036-0.034-0.054c-2.15-3.371-3.817-7.012-4.955-10.824c-0.033-0.107-0.075-0.256-0.115-0.404
	c-0.227-0.793-0.427-1.562-0.604-2.339c-0.055-0.241-0.11-0.496-0.163-0.75c-0.146-0.693-0.272-1.385-0.381-2.082
	c-0.058-0.352-0.098-0.608-0.134-0.866c-0.096-0.709-0.17-1.401-0.229-2.094l-0.013-0.125c-0.025-0.239-0.047-0.477-0.064-0.719
	c-0.071-1.039-0.105-1.993-0.105-2.92l-0.036-212.932c0-5.608,1.087-11.104,3.235-16.334c1.259-3.066,2.866-5.977,4.777-8.659
	c2.913-4.085,6.46-7.589,10.545-10.421c1.093-0.756,2.04-1.361,2.986-1.906L234.415,5.757c13.287-7.674,29.798-7.675,43.085-0.007
	l184.424,106.436c0.967,0.558,1.97,1.201,3.066,1.964c6.692,4.656,11.911,11.105,15.092,18.647c0.778,1.846,1.425,3.735,1.928,5.623
	c0.971,3.639,1.464,7.366,1.464,11.076l0.035,212.926c0.001,0.911-0.033,1.872-0.104,2.931c-0.017,0.244-0.04,0.482-0.064,0.721
	l-0.014,0.146c-0.06,0.682-0.134,1.376-0.227,2.062c-0.039,0.277-0.078,0.534-0.121,0.791l-0.019,0.119
	c-0.111,0.692-0.236,1.38-0.379,2.063c-0.055,0.264-0.11,0.517-0.168,0.77c-0.177,0.776-0.377,1.543-0.597,2.305
	c-0.054,0.197-0.1,0.36-0.151,0.524c-1.922,6.416-5.431,12.442-10.126,17.346l-0.156,0.165c-0.908,0.938-1.86,1.836-2.846,2.687
	l-0.476,0.398c-1.11,0.928-2.123,1.706-3.108,2.388c-1.095,0.758-2.041,1.364-2.987,1.908L277.583,506.242
	C270.939,510.079,263.486,511.999,256.035,512z M50.585,375.976c0.858,1.336,1.843,2.591,2.931,3.733
	c0.034,0.035,0.14,0.151,0.174,0.186c0.451,0.467,1.003,0.99,1.577,1.485l0.26,0.217c0.706,0.593,1.277,1.036,1.814,1.411
	c0.686,0.477,1.251,0.842,1.778,1.145l184.422,106.435c7.711,4.45,17.291,4.447,25.001-0.005l184.387-106.497
	c0.51-0.294,1.057-0.646,1.73-1.112c0.528-0.366,1.118-0.821,1.792-1.385l0.288-0.24c0.571-0.492,1.124-1.013,1.637-1.544
	l0.081-0.088c2.742-2.865,4.777-6.355,5.905-10.115l0.063-0.227c0.004-0.008,0.006-0.018,0.008-0.027
	c0.129-0.448,0.248-0.901,0.353-1.356l0.095-0.444c0.081-0.389,0.156-0.791,0.219-1.195l0.082-0.53
	c0.053-0.383,0.094-0.788,0.129-1.195l0.051-0.521c0.036-0.532,0.063-1.096,0.061-1.663l-0.035-212.945
	c0-2.138-0.287-4.297-0.854-6.421c-0.291-1.09-0.667-2.186-1.119-3.259c-1.846-4.38-4.875-8.126-8.756-10.825
	c-0.686-0.477-1.25-0.842-1.778-1.145L268.46,21.414c-7.711-4.45-17.291-4.447-25.001,0.005L59.072,127.915
	c-0.51,0.294-1.057,0.646-1.73,1.112c-2.362,1.636-4.42,3.672-6.116,6.051c-1.107,1.553-2.04,3.245-2.773,5.029
	c-1.247,3.038-1.88,6.223-1.88,9.464l0.036,212.925c0,0.576,0.025,1.139,0.063,1.701l0.047,0.473
	c0.037,0.421,0.077,0.823,0.131,1.223l0.08,0.503c0.065,0.417,0.136,0.808,0.218,1.198l0.095,0.438
	c0.105,0.464,0.222,0.91,0.348,1.355l0.076,0.27c0.655,2.192,1.629,4.314,2.887,6.28C50.566,375.947,50.575,375.961,50.585,375.976z
	"/>
<g>
</g>
<g>
</g>
<g>
</g>
<g>
</g>
<g>
</g>
<g>
</g>
<g>
</g>
<g>
</g>
<g>
</g>
<g>
</g>
<g>
</g>
<g>
</g>
<g>
</g>
<g>
</g>
<g>
</g>
</svg>
