<?xml version="1.0" encoding="iso-8859-1"?>
<!-- Generator: Adobe Illustrator 19.0.0, SVG Export Plug-In . SVG Version: 6.00 Build 0)  -->
<svg version="1.1" id="Layer_1" xmlns="http://www.w3.org/2000/svg" xmlns:xlink="http://www.w3.org/1999/xlink" x="0px" y="0px"
	 viewBox="0 0 511.996 511.996" style="enable-background:new 0 0 511.996 511.996;" xml:space="preserve">
<g>
	<path style="fill:#FFFFFF;" d="M473.106,371.851c0.176-0.611,0.336-1.227,0.479-1.849c0.046-0.201,0.088-0.401,0.13-0.603
		c0.113-0.541,0.213-1.085,0.301-1.634c0.037-0.237,0.076-0.474,0.11-0.711c0.075-0.545,0.131-1.093,0.18-1.644
		c0.021-0.225,0.047-0.448,0.063-0.674c0.052-0.767,0.084-1.537,0.084-2.313l0,0l0,0v-0.006l-0.007-40.904v-0.001l-0.004-26.204
		v-0.002v-4.213l-0.004-25.574l0,0l-0.008-48.824l-0.004-26.204l-0.007-40.985c0-2.996-0.407-5.93-1.16-8.75
		c-0.405-1.517-0.915-2.997-1.521-4.435c-2.477-5.877-6.574-11.016-11.925-14.74c-0.784-0.545-1.584-1.071-2.421-1.554l-22.872-13.2
		l-21.414-12.358l-17.239-9.949L329.941,46.47l-25.717-14.842l-19.288-11.132l-11.953-6.898c-10.533-6.078-23.509-6.077-34.04,0.006
		l-11.872,6.857l-19.288,11.14l-25.717,14.854l0,0l-65.918,38.072l-28.889,16.686L65.85,113.578l-11.282,6.517
		c-0.811,0.469-1.59,0.979-2.353,1.507c-3.272,2.266-6.073,5.068-8.333,8.236c-1.517,2.128-2.781,4.423-3.773,6.841
		c-1.655,4.031-2.558,8.399-2.557,12.899l0.006,40.912l0.005,26.204l0.012,73.738v4.011v0.85v0.001v0.013l0,0v0.005l0,0l0.004,26.2
		v0.001v1.863l0.002,12.617l0.004,26.497v0.006l0,0c0,0.773,0.033,1.539,0.084,2.304c0.016,0.224,0.042,0.446,0.061,0.669
		c0.048,0.55,0.105,1.096,0.18,1.638c0.033,0.236,0.072,0.471,0.108,0.706c0.087,0.546,0.186,1.087,0.298,1.626
		c0.042,0.201,0.084,0.403,0.13,0.603c0.14,0.614,0.299,1.221,0.471,1.825c0.033,0.113,0.061,0.227,0.095,0.34
		c0.909,3.043,2.24,5.929,3.94,8.589c0,0,0.001,0.001,0.001,0.002l0.001,0.001c1.172,1.831,2.517,3.551,4.025,5.137
		c0.051,0.052,0.099,0.106,0.148,0.158c0.709,0.735,1.454,1.439,2.231,2.113c0.125,0.108,0.254,0.213,0.382,0.321
		c0.786,0.661,1.595,1.3,2.445,1.89c0.784,0.545,1.584,1.07,2.421,1.554l22.552,13.015l21.414,12.359l17.561,10.135l91.644,52.89
		l19.288,11.132l11.953,6.898c10.533,6.078,23.509,6.077,34.04-0.006l11.872-6.857l19.288-11.14l25.717-14.853l55.554-32.086
		l10.363-5.985l26.36-15.225l21.408-12.365l13.813-7.978c0.811-0.469,1.59-0.979,2.353-1.507c0.851-0.59,1.659-1.226,2.446-1.883
		c0.128-0.107,0.258-0.213,0.385-0.323c0.779-0.672,1.526-1.374,2.237-2.11c0.047-0.048,0.09-0.098,0.136-0.146
		c3.724-3.891,6.476-8.609,8.02-13.766C473.047,372.067,473.074,371.957,473.106,371.851z"/>
	<path style="fill:#FFFFFF;" d="M256.001,9.043c-2.941-0.002-5.883,0.375-8.748,1.132c-0.004,0.001-0.008,0.002-0.012,0.002
		c-0.664,0.176-1.325,0.377-1.981,0.596c-0.052,0.018-0.105,0.03-0.157,0.048c-0.615,0.206-1.222,0.439-1.826,0.682
		c-0.09,0.036-0.183,0.065-0.275,0.102c-0.528,0.217-1.046,0.462-1.565,0.706c-0.163,0.077-0.33,0.142-0.492,0.223
		c-0.563,0.276-1.116,0.58-1.667,0.89c-0.112,0.063-0.227,0.116-0.338,0.18l-11.872,6.857l-19.288,11.14l-25.717,14.854l0,0
		l-65.917,38.072l-28.889,16.686L65.85,113.578l-11.282,6.517c-0.811,0.469-1.59,0.979-2.353,1.507
		c-1.636,1.133-3.155,2.4-4.546,3.781c-1.391,1.379-2.657,2.872-3.787,4.456c-0.948,1.33-1.784,2.732-2.53,4.182
		c-0.447,0.87-0.87,1.753-1.243,2.661c-0.251,0.61-0.479,1.228-0.693,1.854c-0.018,0.054-0.035,0.11-0.053,0.164
		c-0.204,0.608-0.394,1.221-0.567,1.841v0.001c0,0.001,0,0.001-0.001,0.002c-0.398,1.433-0.704,2.898-0.914,4.386
		c-0.008,0.066-0.016,0.133-0.025,0.199c-0.083,0.616-0.146,1.237-0.195,1.861c-0.012,0.162-0.025,0.324-0.036,0.486
		c-0.045,0.698-0.074,1.398-0.074,2.104l0.001,7.842l-0.001,98.58h21.504h34.72h14.965v-66.914l88.984,66.914H256v-28.591V212.18
		l-72.823-54.76H256V140.54v-39.163V84.496h-72.822L256,29.737V9.043H256.001z"/>
</g>
<g>
	<polygon style="fill:#ED1F34;" points="124.903,157.419 256.001,255.999 256.001,227.409 163.146,157.419 	"/>
	<path style="fill:#ED1F34;" d="M59.055,140.54v115.461h34.72V140.54h162.226v-39.163H93.776v-3.928l-6.518,3.765L65.85,113.578
		l-11.282,6.517c-0.811,0.469-1.59,0.979-2.353,1.507c-1.636,1.133-3.155,2.4-4.546,3.781c-1.391,1.379-2.657,2.872-3.787,4.456
		c-0.948,1.33-1.784,2.732-2.53,4.182c-0.447,0.87-0.87,1.753-1.243,2.661c-0.251,0.61-0.479,1.228-0.693,1.854
		c-0.018,0.054-0.035,0.11-0.053,0.164c-0.204,0.608-0.394,1.221-0.567,1.841v0.001L59.055,140.54z"/>
</g>
<g>
	<polygon style="fill:#103B9B;" points="183.179,84.496 256.001,84.496 256.001,29.737 	"/>
	<polygon style="fill:#103B9B;" points="183.179,157.419 256.001,212.179 256.001,157.419 	"/>
	<polygon style="fill:#103B9B;" points="108.741,189.087 108.741,255.999 197.726,255.999 	"/>
</g>
<path style="fill:#3DB4EA;" d="M474.446,321.512L474.446,321.512l-0.005-26.206v-0.002v-4.213l-0.005-25.574l-0.007-48.824
	l-0.004-26.204l-0.007-40.985c0-2.996-0.407-5.93-1.16-8.75c-0.405-1.517-0.915-2.997-1.521-4.435
	c-2.477-5.877-6.574-11.016-11.925-14.74c-0.784-0.545-1.584-1.071-2.421-1.554l-22.872-13.2l-21.414-12.358l-17.239-9.949
	L329.941,46.47l-25.717-14.842l-19.288-11.132l-11.953-6.898c-5.255-3.033-11.117-4.542-16.98-4.547v20.686v54.76v16.88v39.163
	v16.88v54.76v15.229v28.591h-58.276h-88.985H93.776h-34.72H37.569l0.006,34.432v4.011v0.85v0.001v0.013v0.005l0.005,26.2v0.001
	v1.863l0.001,12.617l0.005,26.497v0.006c0,0.773,0.033,1.539,0.084,2.304c0.016,0.224,0.042,0.446,0.061,0.669
	c0.049,0.55,0.105,1.096,0.18,1.639c0.033,0.236,0.071,0.47,0.11,0.705c0.086,0.546,0.184,1.087,0.298,1.626
	c0.042,0.201,0.086,0.403,0.13,0.603c0.141,0.614,0.298,1.221,0.471,1.825c0.033,0.113,0.061,0.227,0.095,0.34
	c0.909,3.043,2.24,5.929,3.94,8.589c0,0.001,0,0.001,0.001,0.002l0.001,0.001c1.172,1.831,2.517,3.551,4.025,5.136
	c0.051,0.053,0.099,0.106,0.148,0.159c0.709,0.735,1.454,1.439,2.231,2.112c0.125,0.11,0.254,0.215,0.382,0.322
	c0.786,0.661,1.595,1.3,2.445,1.89c0.784,0.545,1.584,1.07,2.421,1.554l22.552,13.015l21.414,12.359l17.561,10.135l91.644,52.89
	l19.288,11.132l11.953,6.898c10.533,6.078,23.509,6.077,34.04-0.006l11.872-6.857l19.288-11.14l25.717-14.853l55.554-32.086
	l10.363-5.985l26.36-15.224l21.408-12.365l13.813-7.978c0.811-0.469,1.59-0.979,2.352-1.507c0.851-0.59,1.659-1.226,2.446-1.883
	c0.128-0.107,0.258-0.213,0.385-0.323c0.779-0.671,1.526-1.374,2.237-2.11c0.047-0.048,0.09-0.098,0.137-0.146
	c3.724-3.891,6.475-8.609,8.019-13.766c0.031-0.106,0.059-0.216,0.09-0.323c0.176-0.611,0.336-1.227,0.479-1.849
	c0.046-0.201,0.088-0.401,0.13-0.603c0.113-0.541,0.213-1.086,0.3-1.635c0.039-0.236,0.077-0.473,0.11-0.71
	c0.075-0.545,0.131-1.093,0.18-1.644c0.021-0.225,0.047-0.447,0.063-0.674c0.052-0.767,0.084-1.537,0.084-2.313v-0.006
	L474.446,321.512z"/>
<g>
	<circle style="fill:#FFE000;" cx="198.262" cy="401.595" r="15.069"/>
	<circle style="fill:#FFE000;" cx="267.567" cy="326.395" r="15.069"/>
	<circle style="fill:#FFE000;" cx="267.567" cy="386.851" r="15.069"/>
	<circle style="fill:#FFE000;" cx="330.977" cy="240.718" r="15.069"/>
	<circle style="fill:#FFE000;" cx="375.449" cy="225.975" r="15.069"/>
	<circle style="fill:#FFE000;" cx="419.933" cy="171.895" r="15.069"/>
	<circle style="fill:#FFE000;" cx="330.977" cy="372.108" r="15.069"/>
	<circle style="fill:#FFE000;" cx="375.449" cy="326.395" r="14.746"/>
	<circle style="fill:#FFE000;" cx="419.933" cy="299.704" r="15.069"/>
</g>
<path d="M483.459,149.503c0-3.711-0.494-7.438-1.466-11.08c-0.506-1.897-1.155-3.787-1.925-5.614
	c-3.179-7.543-8.398-13.991-15.094-18.652c-1.115-0.775-2.087-1.397-3.062-1.96L277.5,5.768C270.963,1.995,263.516,0,255.966,0
	c-7.555,0-15.005,1.998-21.547,5.776L50.043,112.265c-0.945,0.546-1.89,1.15-2.979,1.904c-4.086,2.831-7.633,6.335-10.546,10.419
	c-1.912,2.683-3.519,5.596-4.775,8.657c-2.147,5.231-3.234,10.726-3.234,16.334l0.035,212.916c0,0.921,0.034,1.875,0.105,2.917
	c0.017,0.234,0.039,0.467,0.061,0.699l0.014,0.148c0.061,0.694,0.134,1.384,0.231,2.094c0.034,0.24,0.071,0.477,0.108,0.716
	l0.025,0.158c0.11,0.691,0.235,1.375,0.379,2.066c0.053,0.256,0.107,0.51,0.164,0.756c0.176,0.776,0.377,1.544,0.606,2.35
	l0.112,0.392c1.143,3.828,2.821,7.485,4.985,10.871c0.014,0.022,0.028,0.043,0.042,0.065c1.476,2.299,3.175,4.465,5.049,6.433
	c0.04,0.042,0.153,0.164,0.194,0.205c0.887,0.921,1.837,1.819,2.827,2.677l0.481,0.405c1.098,0.922,2.111,1.705,3.096,2.389
	c1.114,0.775,2.087,1.398,3.064,1.963l184.41,106.428c6.539,3.773,13.985,5.768,21.534,5.768l0,0c7.554,0,15.005-1.998,21.547-5.776
	l184.372-106.488c0.949-0.547,1.895-1.152,2.979-1.904c0.987-0.684,2.002-1.462,3.099-2.381c0.005-0.004,0.101-0.084,0.106-0.088
	l0.381-0.322c0.989-0.852,1.941-1.75,2.81-2.647l0.194-0.205c4.695-4.906,8.205-10.93,10.15-17.426l0.115-0.404
	c0.223-0.774,0.426-1.554,0.606-2.344l0.168-0.769c0.143-0.684,0.27-1.372,0.398-2.181c0.041-0.257,0.082-0.514,0.119-0.785
	c0.094-0.691,0.168-1.385,0.228-2.072l0.014-0.145c0.024-0.239,0.047-0.479,0.063-0.72c0.071-1.044,0.105-2,0.105-2.931
	L483.459,149.503z M48.473,140.11c0.731-1.781,1.662-3.471,2.77-5.025c1.696-2.378,3.755-4.415,6.116-6.051
	c0.671-0.464,1.221-0.819,1.73-1.111l184.375-106.49c1.12-0.646,2.289-1.192,3.489-1.655v227.179H46.608l-0.016-97.382
	C46.592,146.336,47.224,143.152,48.473,140.11z M465.349,364.1l-0.051,0.52c-0.035,0.404-0.076,0.807-0.129,1.192l-0.083,0.534
	c-0.064,0.404-0.137,0.804-0.227,1.226l-0.089,0.411c-0.105,0.458-0.223,0.91-0.347,1.343l-0.071,0.254
	c-1.128,3.765-3.164,7.26-5.908,10.126l-0.083,0.09c-0.512,0.529-1.066,1.05-1.656,1.559l-0.27,0.225
	c-0.684,0.571-1.253,1.011-1.794,1.386c-0.668,0.462-1.216,0.815-1.728,1.109l-184.375,106.49
	c-3.796,2.193-8.119,3.351-12.504,3.351c-4.381,0-8.701-1.157-12.495-3.347L59.133,384.143c-0.526-0.303-1.091-0.668-1.779-1.146
	c-0.539-0.375-1.109-0.816-1.783-1.383l-0.288-0.24c-0.576-0.499-1.128-1.022-1.596-1.507c-0.027-0.028-0.128-0.136-0.154-0.164
	c-1.099-1.155-2.094-2.424-2.956-3.773c-0.012-0.019-0.025-0.039-0.037-0.058c-1.242-1.953-2.204-4.057-2.861-6.257l-0.066-0.24
	c-0.128-0.444-0.245-0.891-0.35-1.351l-0.093-0.432c-0.083-0.395-0.156-0.793-0.217-1.185l-0.082-0.523
	c-0.054-0.4-0.096-0.803-0.13-1.197l-0.048-0.499c-0.039-0.561-0.064-1.125-0.064-1.7l-0.016-97.446h209.381
	c4.993,0,9.041-4.048,9.041-9.041V19.798c1.178,0.458,2.327,0.996,3.427,1.631L452.87,127.857c0.526,0.303,1.091,0.668,1.778,1.145
	c3.881,2.7,6.909,6.445,8.758,10.83c0.448,1.064,0.825,2.159,1.116,3.254c0.567,2.122,0.854,4.282,0.854,6.419l0.035,212.917
	C465.411,362.994,465.386,363.562,465.349,364.1z"/>
<g>
</g>
<g>
</g>
<g>
</g>
<g>
</g>
<g>
</g>
<g>
</g>
<g>
</g>
<g>
</g>
<g>
</g>
<g>
</g>
<g>
</g>
<g>
</g>
<g>
</g>
<g>
</g>
<g>
</g>
</svg>
