<?xml version="1.0" encoding="iso-8859-1"?>
<!-- Generator: Adobe Illustrator 19.0.0, SVG Export Plug-In . SVG Version: 6.00 Build 0)  -->
<svg version="1.1" id="Layer_1" xmlns="http://www.w3.org/2000/svg" xmlns:xlink="http://www.w3.org/1999/xlink" x="0px" y="0px"
	 viewBox="0 0 512 512" style="enable-background:new 0 0 512 512;" xml:space="preserve">
<path style="fill:#3DB4EA;" d="M473.103,371.85c0.176-0.61,0.336-1.227,0.479-1.848c0.046-0.201,0.089-0.403,0.131-0.604
	c0.113-0.54,0.213-1.085,0.3-1.632c0.037-0.237,0.076-0.474,0.11-0.711c0.075-0.546,0.131-1.095,0.18-1.644
	c0.021-0.225,0.047-0.448,0.063-0.674c0.052-0.767,0.084-1.537,0.084-2.313l0,0l0,0v-0.006l-0.006-40.904v-0.002l-0.005-26.203
	v-0.002v-4.213l-0.004-25.574l0,0l-0.008-48.824l-0.005-26.203l-0.006-40.985c0-2.995-0.407-5.931-1.16-8.75
	c-0.405-1.517-0.915-2.997-1.521-4.435c-2.477-5.876-6.574-11.016-11.925-14.74c-0.784-0.545-1.584-1.071-2.419-1.553
	l-22.874-13.202l-21.414-12.358l-17.239-9.949l-65.926-38.046L304.22,31.629l-19.288-11.132l-11.953-6.899
	c-10.533-6.078-23.509-6.076-34.04,0.007l-11.872,6.857l-19.288,11.14l-25.717,14.853l0,0l-65.918,38.072l-28.889,16.686
	l-21.406,12.365l-11.284,6.516c-0.811,0.469-1.59,0.98-2.353,1.507c-3.272,2.268-6.073,5.067-8.333,8.236
	c-1.517,2.127-2.781,4.422-3.773,6.841c-1.655,4.032-2.558,8.399-2.557,12.899l0.006,40.913l0.005,26.203l0.012,73.738v4.011v0.85
	v0.001v0.013l0,0v0.005l0,0l0.005,26.198v0.002v1.863l0.002,12.617l0.004,26.496v0.007l0,0c0,0.773,0.033,1.539,0.084,2.305
	c0.016,0.224,0.042,0.445,0.061,0.668c0.048,0.55,0.105,1.096,0.18,1.638c0.033,0.236,0.072,0.471,0.108,0.708
	c0.087,0.544,0.186,1.086,0.298,1.625c0.042,0.201,0.086,0.403,0.131,0.603c0.14,0.615,0.298,1.222,0.471,1.825
	c0.033,0.113,0.061,0.228,0.095,0.34c0.909,3.043,2.24,5.93,3.94,8.588l0.001,0.002l0.001,0.002
	c1.172,1.832,2.517,3.551,4.025,5.137c0.051,0.053,0.099,0.106,0.148,0.159c0.709,0.734,1.454,1.438,2.231,2.112
	c0.125,0.11,0.254,0.215,0.382,0.322c0.786,0.661,1.595,1.298,2.445,1.89c0.784,0.545,1.584,1.07,2.419,1.553l22.552,13.016
	l21.414,12.359l17.561,10.134l91.644,52.89l19.288,11.132l11.953,6.899c10.533,6.078,23.509,6.076,34.04-0.007l11.872-6.857
	l19.288-11.14l25.717-14.853l55.554-32.086l10.363-5.985l26.36-15.225l21.408-12.365l13.813-7.977
	c0.811-0.469,1.59-0.98,2.353-1.507c0.851-0.588,1.659-1.226,2.446-1.884c0.128-0.106,0.258-0.212,0.385-0.323
	c0.78-0.671,1.526-1.374,2.237-2.108c0.047-0.048,0.09-0.098,0.136-0.145c3.724-3.893,6.476-8.61,8.02-13.767
	C473.044,372.067,473.071,371.958,473.103,371.85z"/>
<polygon style="fill:#FFFFFF;" points="160.932,234.656 230.929,231.039 255.998,165.585 281.068,231.039 351.065,234.656 
	296.563,278.726 314.753,346.413 255.998,308.197 197.245,346.413 215.435,278.726 "/>
<path d="M314.753,355.455c-1.712,0-3.427-0.485-4.929-1.462l-53.824-35.011l-53.824,35.011c-3.139,2.045-7.214,1.937-10.245-0.265
	c-3.031-2.201-4.389-6.044-3.418-9.661l16.664-62.01l-49.929-40.37c-2.914-2.354-4.072-6.261-2.914-9.824
	c1.157-3.562,4.392-6.043,8.132-6.236l64.124-3.313l22.966-59.961c1.339-3.497,4.698-5.807,8.443-5.807
	c3.746,0,7.104,2.31,8.443,5.807l22.966,59.961l64.124,3.313c3.741,0.193,6.975,2.674,8.132,6.236s-0.001,7.469-2.914,9.824
	l-49.929,40.37l16.664,62.01c0.972,3.617-0.387,7.46-3.418,9.661C318.486,354.877,316.621,355.455,314.753,355.455z
	 M255.998,299.155c1.715,0,3.431,0.487,4.929,1.462l38.967,25.346l-12.065-44.892c-0.928-3.453,0.266-7.128,3.048-9.377
	l36.146-29.227L280.6,240.07c-3.571-0.184-6.698-2.457-7.977-5.796l-16.627-43.41l-16.627,43.41
	c-1.279,3.339-4.406,5.61-7.977,5.796l-46.423,2.398l36.146,29.227c2.781,2.248,3.975,5.924,3.048,9.377l-12.065,44.892
	l38.967-25.346C252.567,299.643,254.283,299.155,255.998,299.155z M256.034,512L256.034,512c-7.55,0-14.995-1.994-21.534-5.767
	L50.089,399.803c-0.978-0.564-1.951-1.186-3.064-1.961c-0.985-0.686-1.999-1.467-3.096-2.389l-0.481-0.405
	c-0.99-0.857-1.938-1.756-2.827-2.677c-0.04-0.042-0.154-0.163-0.194-0.205c-1.876-1.971-3.578-4.14-5.054-6.441
	c-0.012-0.021-0.025-0.039-0.037-0.058c-2.164-3.386-3.842-7.044-4.985-10.871l-0.112-0.393c-0.23-0.805-0.429-1.573-0.606-2.348
	c-0.057-0.247-0.111-0.501-0.164-0.757c-0.145-0.692-0.27-1.378-0.379-2.067l-0.025-0.158c-0.039-0.239-0.076-0.477-0.108-0.717
	c-0.098-0.71-0.171-1.402-0.231-2.096l-0.014-0.143c-0.024-0.233-0.046-0.467-0.061-0.702c-0.071-1.042-0.105-1.995-0.105-2.917
	L28.509,149.58c0-5.608,1.087-11.104,3.234-16.335c1.256-3.062,2.863-5.975,4.775-8.657c2.913-4.084,6.46-7.59,10.546-10.421
	c1.089-0.753,2.034-1.357,2.979-1.904L234.417,5.776C240.958,1.998,248.409,0,255.963,0c7.549,0,14.995,1.995,21.534,5.767
	l184.41,106.429c0.974,0.563,1.947,1.184,3.062,1.96c6.698,4.661,11.917,11.109,15.096,18.652c0.77,1.828,1.419,3.718,1.925,5.614
	c0.972,3.642,1.465,7.368,1.466,11.079l0.035,212.913c0,0.929-0.034,1.885-0.105,2.931c-0.017,0.241-0.039,0.48-0.063,0.72
	l-0.014,0.143c-0.06,0.687-0.134,1.382-0.228,2.073c-0.037,0.269-0.077,0.523-0.118,0.776l-0.021,0.123
	c-0.11,0.697-0.236,1.384-0.38,2.067l-0.168,0.77c-0.181,0.788-0.383,1.57-0.606,2.342l-0.113,0.398
	c-1.947,6.501-5.457,12.527-10.152,17.433l-0.194,0.205c-0.868,0.897-1.82,1.794-2.81,2.646l-0.381,0.322
	c-0.005,0.004-0.101,0.084-0.106,0.088c-1.098,0.919-2.112,1.697-3.099,2.381c-1.084,0.751-2.03,1.356-2.979,1.904L277.581,506.225
	C271.039,510.002,263.588,512,256.034,512z M50.541,375.879c0.011,0.017,0.022,0.033,0.033,0.049
	c0.862,1.349,1.857,2.618,2.956,3.775c0.027,0.028,0.128,0.135,0.154,0.165c0.468,0.483,1.02,1.008,1.596,1.507l0.288,0.239
	c0.674,0.567,1.244,1.009,1.783,1.383c0.687,0.477,1.253,0.843,1.778,1.146l184.408,106.427c3.794,2.189,8.114,3.347,12.495,3.347
	c4.383,0,8.707-1.159,12.504-3.351l184.375-106.49c0.51-0.295,1.058-0.646,1.728-1.11c0.541-0.375,1.11-0.814,1.794-1.385
	l0.272-0.227c0.588-0.506,1.142-1.028,1.654-1.556l0.083-0.092c2.744-2.866,4.78-6.362,5.908-10.125l0.071-0.254
	c0.125-0.432,0.242-0.884,0.347-1.343l0.089-0.41c0.088-0.423,0.163-0.825,0.227-1.227l0.083-0.534
	c0.053-0.386,0.094-0.787,0.129-1.191l0.051-0.521c0.036-0.536,0.061-1.104,0.061-1.677l-0.035-212.917
	c0-2.137-0.288-4.298-0.854-6.419c-0.292-1.095-0.668-2.189-1.116-3.254c-1.849-4.384-4.876-8.13-8.758-10.829
	c-0.687-0.477-1.253-0.841-1.778-1.145L268.46,21.432c-3.795-2.191-8.116-3.349-12.496-3.349c-4.383,0-8.707,1.16-12.504,3.351
	L59.085,127.924c-0.509,0.293-1.058,0.647-1.73,1.113c-2.36,1.633-4.419,3.671-6.116,6.049c-1.107,1.554-2.04,3.244-2.77,5.025
	c-1.248,3.042-1.881,6.227-1.881,9.467l0.035,212.912c0,0.575,0.025,1.137,0.064,1.699l0.048,0.495
	c0.035,0.398,0.076,0.8,0.13,1.201l0.082,0.523c0.061,0.391,0.134,0.788,0.217,1.184l0.093,0.433
	c0.105,0.459,0.223,0.907,0.35,1.351l0.066,0.237C48.333,371.819,49.297,373.925,50.541,375.879z"/>
<g>
</g>
<g>
</g>
<g>
</g>
<g>
</g>
<g>
</g>
<g>
</g>
<g>
</g>
<g>
</g>
<g>
</g>
<g>
</g>
<g>
</g>
<g>
</g>
<g>
</g>
<g>
</g>
<g>
</g>
</svg>
