<?xml version="1.0" encoding="iso-8859-1"?>
<!-- Generator: Adobe Illustrator 19.0.0, SVG Export Plug-In . SVG Version: 6.00 Build 0)  -->
<svg version="1.1" id="Layer_1" xmlns="http://www.w3.org/2000/svg" xmlns:xlink="http://www.w3.org/1999/xlink" x="0px" y="0px"
	 viewBox="0 0 512 512" style="enable-background:new 0 0 512 512;" xml:space="preserve">
<path style="fill:#FFFFFF;" d="M473.103,371.851c0.176-0.611,0.338-1.228,0.479-1.85c0.047-0.2,0.089-0.401,0.131-0.603
	c0.113-0.54,0.213-1.085,0.3-1.634c0.037-0.236,0.076-0.473,0.11-0.711c0.076-0.545,0.131-1.092,0.18-1.643
	c0.021-0.225,0.047-0.447,0.063-0.674c0.052-0.767,0.084-1.537,0.083-2.313l0,0l0,0v-0.006l-0.006-40.904v-0.002l-0.005-26.203
	v-0.002l-0.001-4.213l-0.004-25.574l0,0l-0.008-48.824l-0.005-26.204l-0.006-40.984c-0.001-2.995-0.409-5.931-1.161-8.75
	c-0.405-1.518-0.915-2.997-1.521-4.435c-2.477-5.877-6.574-11.017-11.924-14.74c-0.784-0.545-1.584-1.071-2.421-1.553l-22.87-13.202
	l-21.414-12.358l-17.24-9.949l-65.925-38.046L304.22,31.629l-19.288-11.132l-11.953-6.899c-10.533-6.078-23.509-6.076-34.04,0.007
	l-11.872,6.857l-19.288,11.14l-25.717,14.854v-0.001l-65.915,38.072l-28.89,16.686l-21.408,12.365l-11.282,6.517
	c-0.813,0.468-1.59,0.979-2.353,1.506c-3.272,2.266-6.072,5.068-8.331,8.235c-1.517,2.129-2.781,4.424-3.774,6.843
	c-1.654,4.031-2.557,8.399-2.557,12.899l0.007,40.912l0.005,26.204l0.012,73.738l0.001,4.011v0.849v0.002v0.013l0,0v0.005l0,0
	l0.005,26.2l0,0v1.864l0.002,12.617l0.004,26.497v0.006l0,0c0.001,0.773,0.033,1.539,0.084,2.304
	c0.016,0.224,0.042,0.446,0.061,0.669c0.049,0.548,0.106,1.096,0.18,1.638c0.033,0.236,0.072,0.471,0.11,0.706
	c0.086,0.545,0.184,1.087,0.297,1.626c0.043,0.201,0.086,0.403,0.131,0.603c0.14,0.615,0.298,1.222,0.471,1.825
	c0.033,0.113,0.061,0.227,0.095,0.34c0.909,3.042,2.239,5.93,3.941,8.589v0.001l0.002,0.001c1.172,1.834,2.517,3.553,4.026,5.138
	c0.049,0.052,0.098,0.106,0.147,0.158c0.71,0.735,1.454,1.439,2.233,2.113c0.125,0.11,0.256,0.215,0.382,0.322
	c0.786,0.661,1.594,1.298,2.444,1.89c0.784,0.545,1.584,1.07,2.421,1.553l22.552,13.015l21.414,12.36l17.561,10.134l91.644,52.89
	l19.288,11.132l11.953,6.899c10.533,6.078,23.509,6.076,34.04-0.007l11.872-6.857l19.288-11.14l25.717-14.853l55.554-32.086
	l10.363-5.985l26.36-15.225l21.408-12.365l13.813-7.978c0.813-0.468,1.59-0.979,2.352-1.506c0.851-0.588,1.66-1.226,2.446-1.884
	c0.129-0.107,0.259-0.212,0.386-0.322c0.779-0.673,1.526-1.375,2.236-2.11c0.046-0.048,0.09-0.098,0.136-0.146
	c3.725-3.891,6.475-8.609,8.019-13.765C473.045,372.067,473.072,371.958,473.103,371.851z"/>
<g>
	<path style="fill:#ED1F34;" d="M426.671,102.298l-13.567-7.83l-17.24-9.949l-65.926-38.046L304.22,31.629l-19.288-11.132
		l-11.953-6.899c-10.533-6.078-23.509-6.076-34.04,0.007l-0.551,0.318v88.375h188.283V102.298z"/>
	<path style="fill:#ED1F34;" d="M116.136,427.481l91.644,52.89l19.288,11.132l11.953,6.899c10.533,6.078,23.509,6.076,34.04-0.007
		l11.872-6.857l19.288-11.14l25.717-14.853l55.554-32.086l10.363-5.985l14.869-8.588H101.241L116.136,427.481z"/>
	<path style="fill:#ED1F34;" d="M37.581,335.992l0.004,26.497v0.006l0,0c0.001,0.773,0.033,1.539,0.084,2.304
		c0.016,0.224,0.042,0.445,0.061,0.669c0.049,0.548,0.106,1.096,0.18,1.638c0.033,0.236,0.072,0.471,0.11,0.706
		c0.086,0.545,0.184,1.086,0.297,1.626c0.043,0.201,0.086,0.403,0.131,0.603c0.14,0.615,0.298,1.222,0.471,1.826
		c0.033,0.112,0.061,0.227,0.095,0.339c0.146,0.488,0.321,0.964,0.487,1.444h419.88h13.139c0.172-0.491,0.342-0.98,0.491-1.478
		c0.033-0.107,0.06-0.216,0.09-0.323c0.176-0.611,0.338-1.228,0.479-1.85c0.047-0.2,0.089-0.401,0.131-0.603
		c0.113-0.54,0.213-1.085,0.3-1.633c0.037-0.236,0.076-0.473,0.11-0.711c0.076-0.544,0.131-1.092,0.18-1.643
		c0.02-0.225,0.047-0.447,0.063-0.674c0.052-0.768,0.084-1.537,0.083-2.313l0,0v-0.006l-0.005-33.987H37.58L37.581,335.992z"/>
	<polygon style="fill:#ED1F34;" points="474.435,265.517 474.43,237.974 238.388,237.974 238.388,283.209 474.437,283.209 	"/>
	<path style="fill:#ED1F34;" d="M238.388,192.754h88.29h147.745l-0.001-2.265l-0.006-40.984c0-0.661-0.028-1.318-0.068-1.972
		h-235.96V192.754z"/>
</g>
<path style="fill:#103B9B;" d="M227.067,20.462l-19.288,11.14l-25.717,14.854v-0.001l-65.915,38.072l-28.89,16.686l-1.879,1.085
	l-19.528,11.279l-11.282,6.517c-0.813,0.468-1.59,0.979-2.353,1.506c-3.272,2.266-6.072,5.068-8.331,8.235
	c-1.517,2.129-2.781,4.424-3.774,6.843c-1.402,3.418-2.258,7.078-2.487,10.855c-0.041,0.679-0.07,1.36-0.07,2.045l0.007,40.912
	v2.265l0.005,23.939l0.004,21.281l0.008,45.234h200.816v-45.234v-45.221V147.53v-45.232V13.924L227.067,20.462z"/>
<g>
	<circle style="fill:#FFE000;" cx="178.597" cy="188.929" r="30.887"/>
	<path style="fill:#FFE000;" d="M149.396,239.149c-27.735,0-50.22-22.484-50.22-50.22s22.484-50.218,50.22-50.218
		c0.834,0,1.664,0.023,2.487,0.063c-8.319-4.679-17.915-7.359-28.142-7.359c-31.765,0-57.515,25.751-57.515,57.515
		c0,31.765,25.75,57.515,57.515,57.515c10.225,0,19.821-2.68,28.142-7.359C151.06,239.125,150.231,239.149,149.396,239.149z"/>
</g>
<path d="M178.592,228.855c-22.016,0-39.928-17.912-39.928-39.929c0-22.016,17.912-39.928,39.928-39.928
	c22.018,0,39.929,17.912,39.929,39.928C218.522,210.942,200.609,228.855,178.592,228.855z M178.592,167.08
	c-12.046,0-21.845,9.8-21.845,21.845s9.8,21.846,21.845,21.846s21.846-9.801,21.846-21.846
	C200.438,176.88,190.638,167.08,178.592,167.08z M123.742,255.487c-36.698,0-66.557-29.858-66.557-66.558
	s29.858-66.557,66.557-66.557c11.225,0,22.32,2.857,32.122,8.269c3.01,1.467,5.084,4.557,5.084,8.131c0,4.98-4.026,9.02-9.002,9.041
	c-0.169,0-0.334-0.002-0.501-0.011c-0.679-0.033-1.362-0.052-2.049-0.052c-22.706,0-41.178,18.472-41.178,41.177
	c0,22.706,18.472,41.178,41.178,41.178c0.692,0,1.379-0.02,2.061-0.052c4.181-0.209,7.96,2.507,9.117,6.535
	c1.156,4.028-0.606,8.323-4.259,10.376C146.402,252.541,135.139,255.487,123.742,255.487z M113.982,141.442
	c-22.067,4.529-38.713,24.1-38.713,47.487s16.648,42.959,38.713,47.488c-14.465-10.816-23.846-28.079-23.846-47.488
	S99.517,152.258,113.982,141.442z M483.457,149.503c-0.001-3.711-0.494-7.438-1.466-11.078c-0.508-1.899-1.155-3.789-1.925-5.615
	c-3.18-7.544-8.399-13.991-15.096-18.652c-1.118-0.778-2.089-1.4-3.062-1.961L277.499,5.767C270.96,1.994,263.513,0,255.964,0
	c-7.555,0-15.005,1.996-21.547,5.776L50.042,112.265c-0.949,0.549-1.895,1.152-2.979,1.902c-4.086,2.831-7.633,6.335-10.546,10.421
	c-1.913,2.683-3.52,5.597-4.776,8.658c-2.146,5.23-3.234,10.724-3.234,16.334l0.035,212.917c0,0.921,0.035,1.876,0.106,2.919
	c0.017,0.234,0.037,0.469,0.061,0.702l0.014,0.143c0.061,0.693,0.134,1.385,0.23,2.095c0.034,0.24,0.071,0.477,0.11,0.716
	l0.025,0.16c0.111,0.69,0.235,1.378,0.381,2.075c0.053,0.254,0.107,0.508,0.162,0.746c0.177,0.779,0.377,1.547,0.609,2.351
	l0.111,0.392c1.144,3.829,2.822,7.487,4.988,10.875c1.484,2.322,3.198,4.509,5.09,6.494c0.04,0.042,0.153,0.164,0.194,0.206
	c0.896,0.929,1.847,1.83,2.81,2.663l0.497,0.42c1.093,0.919,2.105,1.699,3.096,2.388c1.096,0.763,2.096,1.403,3.064,1.963
	l184.411,106.428c6.539,3.773,13.985,5.768,21.534,5.768l0,0c7.554,0,15.005-1.998,21.546-5.776l184.372-106.49
	c0.945-0.545,1.891-1.149,2.984-1.905c0.986-0.682,1.999-1.461,3.181-2.448c0.14-0.116,0.28-0.231,0.405-0.34
	c0.99-0.854,1.941-1.752,2.84-2.681l0.16-0.171c4.695-4.904,8.206-10.929,10.149-17.421l0.117-0.406
	c0.224-0.775,0.427-1.556,0.605-2.34l0.169-0.773c0.142-0.684,0.27-1.374,0.397-2.177c0.042-0.259,0.082-0.518,0.122-0.792
	c0.094-0.69,0.168-1.383,0.228-2.071l0.014-0.143c0.025-0.24,0.046-0.48,0.063-0.721c0.071-1.043,0.105-1.999,0.105-2.931
	L483.457,149.503z M465.374,156.574l0.005,27.139H326.678c-4.994,0-9.041,4.047-9.041,9.041s4.047,9.041,9.041,9.041h138.705
	l0.004,27.139H248.18v-27.139h37.795c4.993,0,9.041-4.047,9.041-9.041s-4.048-9.041-9.041-9.041H248.18v-27.139H465.374z
	 M465.39,247.016l0.005,27.151H248.18v-27.151H465.39z M465.398,292.251l0.005,27.139H46.619l-0.005-27.139H465.398z
	 M454.647,129.003c3.477,2.419,6.26,5.682,8.135,9.489H248.18v-27.152h176.069l28.618,16.517
	C453.39,128.159,453.955,128.523,454.647,129.003z M268.46,21.429l124.455,71.827H248.18V19.334
	c2.504-0.821,5.133-1.251,7.784-1.251C260.345,18.083,264.667,19.24,268.46,21.429z M48.471,140.11
	c0.729-1.781,1.662-3.472,2.769-5.025c1.696-2.378,3.755-4.415,6.119-6.053c0.669-0.463,1.218-0.815,1.726-1.109l171.011-98.772
	v245.015H46.611L46.59,149.575C46.59,146.336,47.224,143.151,48.471,140.11z M268.538,490.566
	c-3.795,2.192-8.119,3.351-12.502,3.351c-4.381,0-8.703-1.159-12.495-3.348l-108.541-62.642H376.99L268.538,490.566z
	 M452.913,384.076l-44.615,25.768H103.665l-44.534-25.702c-0.528-0.305-1.093-0.669-1.775-1.143
	c-0.131-0.092-0.277-0.205-0.417-0.307h308.499c4.993,0,9.041-4.047,9.041-9.041s-4.048-9.041-9.041-9.041H46.731l-0.041-0.422
	c-0.037-0.561-0.064-1.125-0.064-1.7l-0.004-25.016h418.783l0.004,24.951c0,0.571-0.025,1.138-0.061,1.678l-0.049,0.509h-59.759
	c-4.994,0-9.041,4.047-9.041,9.041s4.047,9.041,9.041,9.041h49.476c-0.123,0.089-0.253,0.19-0.371,0.272
	C453.972,383.429,453.422,383.781,452.913,384.076z"/>
<g>
</g>
<g>
</g>
<g>
</g>
<g>
</g>
<g>
</g>
<g>
</g>
<g>
</g>
<g>
</g>
<g>
</g>
<g>
</g>
<g>
</g>
<g>
</g>
<g>
</g>
<g>
</g>
<g>
</g>
</svg>
