<?xml version="1.0" encoding="iso-8859-1"?>
<!-- Generator: Adobe Illustrator 19.0.0, SVG Export Plug-In . SVG Version: 6.00 Build 0)  -->
<svg version="1.1" id="Layer_1" xmlns="http://www.w3.org/2000/svg" xmlns:xlink="http://www.w3.org/1999/xlink" x="0px" y="0px"
	 viewBox="0 0 512 512" style="enable-background:new 0 0 512 512;" xml:space="preserve">
<path style="fill:#FFFFFF;" d="M473.103,371.85c0.176-0.61,0.338-1.227,0.479-1.848c0.047-0.201,0.089-0.403,0.131-0.604
	c0.113-0.54,0.213-1.085,0.3-1.632c0.037-0.237,0.076-0.474,0.11-0.711c0.076-0.546,0.131-1.095,0.18-1.644
	c0.02-0.225,0.047-0.448,0.063-0.674c0.052-0.767,0.084-1.537,0.083-2.313l0,0l0,0v-0.006l-0.006-40.904v-0.002l-0.005-26.203
	v-0.002l-0.001-4.213l-0.004-25.574l0,0l-0.008-48.824l-0.005-26.203l-0.006-40.985c-0.001-2.995-0.409-5.931-1.161-8.75
	c-0.405-1.517-0.915-2.997-1.521-4.435c-2.477-5.876-6.574-11.016-11.924-14.74c-0.784-0.545-1.584-1.071-2.421-1.553l-22.87-13.202
	l-21.414-12.358l-17.24-9.949l-65.925-38.046l-25.717-14.844l-19.288-11.132l-11.953-6.899c-10.533-6.078-23.509-6.076-34.04,0.007
	l-11.872,6.857l-19.288,11.14l-25.717,14.853l0,0l-65.915,38.072l-28.89,16.686l-21.408,12.365l-11.282,6.516
	c-0.813,0.469-1.59,0.98-2.353,1.507c-3.272,2.268-6.072,5.067-8.331,8.236c-1.517,2.127-2.781,4.422-3.774,6.841
	c-1.654,4.032-2.557,8.399-2.557,12.899l0.007,40.913l0.005,26.203l0.012,73.738l0.001,4.011v0.85v0.001v0.013l0,0v0.005l0,0
	l0.005,26.198v0.002v1.863l0.002,12.617l0.004,26.496v0.007l0,0c0.001,0.773,0.033,1.539,0.084,2.305
	c0.016,0.224,0.042,0.445,0.063,0.668c0.048,0.55,0.105,1.096,0.178,1.638c0.033,0.236,0.072,0.471,0.11,0.708
	c0.086,0.544,0.184,1.086,0.298,1.625c0.042,0.201,0.084,0.403,0.13,0.603c0.14,0.615,0.298,1.222,0.471,1.825
	c0.033,0.113,0.061,0.228,0.095,0.34c0.909,3.043,2.239,5.93,3.941,8.588l0.001,0.002l0.001,0.002
	c1.172,1.832,2.517,3.551,4.026,5.137c0.049,0.053,0.098,0.106,0.147,0.159c0.71,0.734,1.454,1.438,2.233,2.112
	c0.125,0.11,0.254,0.215,0.382,0.322c0.785,0.661,1.594,1.298,2.444,1.89c0.784,0.545,1.584,1.07,2.421,1.553l22.552,13.016
	l21.414,12.359l17.561,10.134l91.644,52.89l19.288,11.132l11.953,6.899c10.533,6.078,23.509,6.076,34.04-0.007l11.872-6.857
	l19.288-11.14l25.717-14.853l55.554-32.086l10.363-5.985l26.36-15.225l21.408-12.365l13.813-7.977
	c0.813-0.469,1.59-0.98,2.353-1.507c0.85-0.588,1.659-1.226,2.445-1.884c0.129-0.106,0.259-0.212,0.386-0.323
	c0.779-0.671,1.526-1.374,2.236-2.108c0.046-0.048,0.09-0.098,0.136-0.145c3.725-3.893,6.475-8.61,8.019-13.767
	C473.045,372.067,473.073,371.958,473.103,371.85z"/>
<path style="fill:#3DB4EA;" d="M376.337,255.999h43.964h54.131l-0.006-39.306l-0.005-26.203l-0.006-40.985
	c-0.001-2.995-0.409-5.931-1.161-8.75c-0.405-1.517-0.915-2.997-1.52-4.435c-2.479-5.876-6.575-11.016-11.925-14.74
	c-0.784-0.545-1.584-1.071-2.421-1.553l-22.872-13.202l-21.414-12.358l-17.24-9.949l-65.925-38.046l-25.717-14.844l-19.288-11.132
	l-11.953-6.899c-10.533-6.078-23.509-6.076-34.04,0.007l-11.872,6.857l-19.288,11.14l-25.717,14.853l0,0l-65.915,38.072
	l-28.89,16.686l-21.408,12.365l-11.282,6.516c-0.427,0.247-0.826,0.527-1.236,0.791l202.671,135.115L376.337,255.999
	L376.337,255.999z"/>
<path style="fill:#259245;" d="M474.445,321.51l-0.005-26.203v-0.002v-4.213l-0.005-25.574l-0.002-9.518h-54.131h-43.964H256.001
	l-202.7,135.133c0.435,0.282,0.857,0.579,1.309,0.839l22.552,13.016l21.414,12.359l17.561,10.134l91.644,52.89l19.288,11.132
	l11.953,6.899c10.533,6.078,23.509,6.076,34.04-0.007l11.872-6.857l19.288-11.14l25.717-14.853l55.554-32.086l10.363-5.985
	l26.36-15.225l21.408-12.365l13.813-7.977c0.813-0.469,1.59-0.98,2.353-1.507c0.851-0.588,1.659-1.226,2.445-1.884
	c0.129-0.106,0.259-0.212,0.386-0.323c0.779-0.671,1.526-1.374,2.236-2.108c0.047-0.048,0.09-0.098,0.136-0.145
	c3.725-3.893,6.475-8.61,8.019-13.767c0.033-0.106,0.06-0.215,0.09-0.322c0.176-0.611,0.338-1.228,0.479-1.849
	c0.047-0.201,0.089-0.403,0.131-0.604c0.113-0.54,0.213-1.084,0.3-1.632c0.037-0.237,0.076-0.474,0.11-0.712
	c0.076-0.545,0.131-1.093,0.18-1.643c0.02-0.225,0.046-0.448,0.063-0.674c0.052-0.767,0.083-1.537,0.083-2.313l0,0v-0.006
	l-0.006-40.904v0H474.445z"/>
<polygon style="fill:#ED1F34;" points="64.821,238.365 100.148,236.54 112.801,203.506 125.453,236.54 160.781,238.365 
	133.273,260.607 142.454,294.77 112.801,275.482 83.148,294.77 92.329,260.607 "/>
<path d="M83.148,303.812c-1.869,0-3.733-0.577-5.314-1.728c-3.031-2.201-4.391-6.044-3.418-9.661l7.656-28.484l-22.935-18.543
	c-2.913-2.353-4.071-6.261-2.914-9.824c1.157-3.562,4.392-6.042,8.132-6.236l29.454-1.523l10.549-27.543
	c1.339-3.497,4.698-5.807,8.443-5.807l0,0c3.746,0,7.104,2.31,8.443,5.807l10.548,27.543l29.454,1.523
	c3.742,0.194,6.975,2.674,8.132,6.236c1.157,3.562-0.001,7.471-2.914,9.824l-22.934,18.543l7.655,28.484
	c0.973,3.618-0.387,7.46-3.418,9.661c-3.032,2.201-7.105,2.307-10.245,0.265l-24.723-16.082l-24.725,16.082
	C86.575,303.326,84.861,303.812,83.148,303.812z M88.862,246.177l9.152,7.399c2.781,2.248,3.975,5.924,3.046,9.377l-3.055,11.367
	l9.866-6.417c2.997-1.949,6.861-1.949,9.861,0l9.866,6.417l-3.055-11.367c-0.928-3.453,0.266-7.128,3.046-9.377l9.152-7.399
	l-11.754-0.608c-3.572-0.184-6.699-2.457-7.977-5.796l-4.208-10.99l-4.21,10.99c-1.28,3.339-4.405,5.61-7.977,5.796L88.862,246.177z
	 M483.456,149.505c0-3.708-0.493-7.438-1.465-11.076c-0.503-1.889-1.15-3.779-1.926-5.623c-3.18-7.541-8.399-13.989-15.091-18.646
	c-1.093-0.762-2.095-1.403-3.066-1.964L277.499,5.767C270.962,1.994,263.515,0,255.966,0c-7.555,0-15.006,1.998-21.549,5.777
	L50.048,112.263c-0.933,0.538-1.879,1.142-2.986,1.907c-4.087,2.833-7.635,6.337-10.542,10.418c-1.911,2.68-3.518,5.592-4.777,8.659
	c-2.146,5.231-3.234,10.724-3.234,16.332l0.036,212.917c0,0.928,0.034,1.882,0.105,2.919c0.017,0.241,0.039,0.48,0.064,0.721
	l0.013,0.127c0.06,0.692,0.133,1.383,0.229,2.093c0.036,0.26,0.077,0.516,0.134,0.867c0.11,0.697,0.235,1.389,0.381,2.084
	c0.054,0.254,0.108,0.508,0.163,0.745c0.177,0.779,0.377,1.547,0.604,2.339c0.039,0.146,0.08,0.291,0.115,0.406
	c1.138,3.809,2.805,7.45,4.953,10.82c0.012,0.019,0.024,0.037,0.035,0.055c1.484,2.323,3.199,4.51,5.069,6.474
	c0.046,0.051,0.168,0.178,0.215,0.228c0.901,0.933,1.853,1.834,2.809,2.661c0.143,0.125,0.289,0.246,0.498,0.42
	c1.093,0.919,2.105,1.699,3.097,2.391c1.111,0.773,2.084,1.395,3.062,1.96L234.5,506.233c6.539,3.772,13.984,5.766,21.533,5.767
	h0.001c7.555,0,15.005-1.998,21.547-5.777l184.37-106.486c0.933-0.538,1.879-1.142,2.984-1.905c0.984-0.682,1.999-1.462,3.184-2.452
	l0.405-0.339c0.986-0.851,1.937-1.749,2.881-2.723l0.119-0.127c4.695-4.904,8.205-10.929,10.122-17.332
	c0.053-0.171,0.102-0.342,0.143-0.497c0.224-0.775,0.427-1.556,0.608-2.34c0.058-0.253,0.112-0.508,0.168-0.773
	c0.143-0.684,0.27-1.374,0.399-2.184c0.041-0.258,0.081-0.516,0.121-0.794c0.093-0.687,0.168-1.378,0.227-2.061l0.014-0.143
	c0.025-0.24,0.047-0.48,0.063-0.721c0.072-1.057,0.106-2.018,0.105-2.931L483.456,149.505z M53.772,379.952
	c-0.02-0.022-0.046-0.045-0.068-0.066c-0.033-0.035-0.14-0.151-0.175-0.186c-1.098-1.154-2.093-2.423-2.956-3.771
	c-0.008-0.014-0.018-0.028-0.025-0.042c-1.247-1.955-2.212-4.064-2.862-6.24l-0.076-0.276c-0.127-0.441-0.244-0.887-0.35-1.354
	l-0.094-0.438c-0.081-0.388-0.153-0.781-0.219-1.196l-0.078-0.5c-0.054-0.4-0.094-0.804-0.131-1.225l-0.048-0.471
	c-0.037-0.561-0.063-1.125-0.063-1.699L46.59,149.579c0-3.24,0.632-6.425,1.879-9.465c0.732-1.783,1.665-3.474,2.774-5.028
	c0.773-1.084,1.631-2.088,2.55-3.026l185.908,123.941L53.772,379.952z M465.348,364.1l-0.051,0.52
	c-0.035,0.408-0.076,0.813-0.129,1.197l-0.082,0.528c-0.064,0.404-0.137,0.804-0.218,1.191l-0.096,0.447
	c-0.105,0.457-0.224,0.909-0.362,1.386l-0.06,0.217c-1.13,3.762-3.164,7.255-5.905,10.118l-0.083,0.09
	c-0.515,0.532-1.068,1.054-1.635,1.543l-0.293,0.242c-0.685,0.574-1.254,1.013-1.784,1.382c-0.682,0.473-1.232,0.826-1.734,1.114
	l-184.373,106.49c-3.796,2.192-8.12,3.351-12.504,3.351c0,0,0,0-0.001,0c-4.381,0-8.701-1.157-12.494-3.347L70.363,390.625
	l188.375-125.584h117.6c4.994,0,9.041-4.047,9.041-9.041c0-4.994-4.047-9.041-9.041-9.041h-117.6L70.392,121.395l173.069-99.961
	c3.796-2.192,8.12-3.351,12.505-3.351c4.381,0,8.701,1.157,12.494,3.347l184.41,106.428c0.529,0.307,1.092,0.669,1.776,1.144
	c3.882,2.7,6.91,6.448,8.758,10.826c0.451,1.072,0.827,2.165,1.117,3.259c0.567,2.123,0.854,4.282,0.854,6.418l0.016,97.453h-45.088
	c-4.994,0-9.041,4.047-9.041,9.041c0,4.994,4.047,9.041,9.041,9.041h45.091l0.017,97.395
	C465.41,363.003,465.384,363.566,465.348,364.1z"/>
<g>
</g>
<g>
</g>
<g>
</g>
<g>
</g>
<g>
</g>
<g>
</g>
<g>
</g>
<g>
</g>
<g>
</g>
<g>
</g>
<g>
</g>
<g>
</g>
<g>
</g>
<g>
</g>
<g>
</g>
</svg>
