<?xml version="1.0" encoding="iso-8859-1"?>
<!-- Generator: Adobe Illustrator 19.0.0, SVG Export Plug-In . SVG Version: 6.00 Build 0)  -->
<svg version="1.1" id="Layer_1" xmlns="http://www.w3.org/2000/svg" xmlns:xlink="http://www.w3.org/1999/xlink" x="0px" y="0px"
	 viewBox="0 0 511.996 511.996" style="enable-background:new 0 0 511.996 511.996;" xml:space="preserve">
<g>
	<path style="fill:#FFFFFF;" d="M473.102,371.851c0.176-0.611,0.338-1.228,0.479-1.85c0.047-0.201,0.089-0.401,0.131-0.603
		c0.113-0.541,0.213-1.085,0.3-1.634c0.037-0.236,0.076-0.473,0.11-0.711c0.076-0.545,0.131-1.093,0.18-1.643
		c0.02-0.225,0.047-0.447,0.063-0.674c0.052-0.767,0.084-1.537,0.083-2.313l0,0l0,0v-0.006l-0.006-40.904v-0.001l-0.005-26.204
		v-0.002l-0.001-4.213l-0.004-25.574l0,0l-0.008-48.824l-0.005-26.204l-0.006-40.985c-0.001-2.996-0.409-5.93-1.161-8.75
		c-0.405-1.517-0.915-2.997-1.521-4.435c-2.477-5.877-6.574-11.016-11.924-14.74c-0.784-0.545-1.584-1.071-2.421-1.554l-22.874-13.2
		l-21.414-12.358l-17.24-9.949l-65.921-38.046L304.22,31.629l-19.288-11.132l-11.953-6.898c-10.533-6.078-23.509-6.077-34.04,0.006
		l-11.872,6.857l-19.288,11.14l-25.717,14.854l0,0l-65.915,38.07l-28.89,16.686l-21.408,12.365l-11.282,6.517
		c-0.813,0.469-1.59,0.979-2.353,1.507c-3.272,2.266-6.072,5.068-8.331,8.236c-1.517,2.128-2.781,4.423-3.774,6.841
		c-1.654,4.031-2.557,8.399-2.557,12.899l0.007,40.912l0.005,26.204l0.012,73.738l0.001,4.011v0.849v0.002v0.013l0,0v0.005l0,0
		l0.005,26.2l0,0v1.864l0.002,12.617l0.004,26.497v0.006l0,0c0.001,0.773,0.033,1.539,0.084,2.304
		c0.016,0.224,0.042,0.446,0.063,0.669c0.048,0.55,0.105,1.096,0.178,1.638c0.033,0.236,0.072,0.471,0.11,0.706
		c0.086,0.546,0.184,1.087,0.298,1.626c0.042,0.201,0.084,0.403,0.13,0.603c0.14,0.615,0.298,1.222,0.471,1.825
		c0.033,0.113,0.061,0.227,0.095,0.34c0.909,3.042,2.239,5.93,3.94,8.589c0.001,0,0.001,0.001,0.002,0.002l0.001,0.001
		c1.172,1.832,2.517,3.551,4.026,5.137c0.049,0.052,0.098,0.106,0.147,0.158c0.71,0.735,1.454,1.439,2.233,2.112
		c0.125,0.11,0.254,0.215,0.382,0.322c0.785,0.661,1.594,1.3,2.444,1.89c0.784,0.545,1.584,1.07,2.421,1.554l22.552,13.015
		l21.414,12.359l17.561,10.135l91.644,52.89l19.288,11.132l11.953,6.898c10.533,6.078,23.509,6.077,34.04-0.006l11.872-6.857
		l19.288-11.14l25.717-14.853l55.554-32.086l10.363-5.985l26.36-15.224l21.408-12.365l13.813-7.978
		c0.813-0.469,1.59-0.979,2.353-1.507c0.85-0.59,1.659-1.226,2.445-1.883c0.129-0.107,0.259-0.213,0.386-0.322
		c0.779-0.673,1.526-1.375,2.236-2.11c0.046-0.048,0.09-0.098,0.136-0.146c3.725-3.891,6.475-8.609,8.019-13.765
		C473.044,372.067,473.072,371.958,473.102,371.851z"/>
	<path style="fill:#FFFFFF;" d="M255.999,9.043c-2.941-0.002-5.883,0.375-8.748,1.133c-0.005,0.001-0.008,0.001-0.012,0.002
		c-0.665,0.176-1.326,0.377-1.982,0.596c-0.052,0.017-0.105,0.029-0.157,0.047c-0.615,0.206-1.222,0.439-1.826,0.682
		c-0.092,0.036-0.184,0.065-0.275,0.102c-0.528,0.217-1.046,0.461-1.566,0.705c-0.164,0.077-0.329,0.142-0.492,0.223
		c-0.563,0.277-1.118,0.58-1.667,0.89c-0.112,0.063-0.227,0.116-0.338,0.18l-11.872,6.857L207.776,31.6l-25.717,14.854l0,0
		l-65.913,38.073l-28.89,16.686l-21.408,12.365l-11.282,6.517c-0.813,0.469-1.59,0.979-2.353,1.507
		c-1.635,1.133-3.154,2.4-4.546,3.781c-1.391,1.379-2.657,2.872-3.787,4.456c-0.949,1.33-1.784,2.732-2.532,4.182
		c-0.447,0.869-0.87,1.753-1.243,2.659c-0.25,0.61-0.479,1.228-0.692,1.854c-0.019,0.054-0.035,0.11-0.054,0.164
		c-0.204,0.608-0.393,1.221-0.567,1.841v0.001c0,0.001,0,0.001-0.001,0.002c-0.397,1.433-0.704,2.899-0.914,4.387
		c-0.01,0.066-0.017,0.133-0.025,0.199c-0.083,0.616-0.146,1.237-0.194,1.861c-0.013,0.162-0.027,0.324-0.036,0.486
		c-0.045,0.698-0.075,1.398-0.075,2.104l0.001,7.842l-0.001,98.58h21.505h34.72h14.965v-66.914l88.984,66.914h58.276v-28.591
		v-15.231l-72.822-54.76h72.822v-16.88v-39.163V84.496h-72.821l72.822-54.76V9.043z"/>
</g>
<g>
	<polygon style="fill:#ED1F34;" points="124.901,157.419 255.999,255.999 255.999,227.409 163.144,157.419 	"/>
	<path style="fill:#ED1F34;" d="M59.053,140.54v115.461h34.72V140.54h162.226v-39.163H93.773v-3.929l-6.518,3.765l-21.408,12.365
		l-11.282,6.517c-0.813,0.469-1.59,0.979-2.353,1.507c-1.635,1.133-3.154,2.4-4.546,3.781c-1.391,1.379-2.657,2.872-3.787,4.456
		c-0.949,1.33-1.784,2.732-2.532,4.182c-0.447,0.869-0.87,1.753-1.243,2.659c-0.25,0.61-0.479,1.228-0.692,1.854
		c-0.019,0.054-0.035,0.11-0.054,0.164c-0.204,0.608-0.393,1.221-0.567,1.841v0.001H59.053z"/>
</g>
<g>
	<polygon style="fill:#103B9B;" points="183.177,84.496 255.999,84.496 255.999,29.737 	"/>
	<polygon style="fill:#103B9B;" points="183.177,157.419 255.999,212.179 255.999,157.419 	"/>
	<polygon style="fill:#103B9B;" points="108.738,189.087 108.738,255.999 197.724,255.999 	"/>
</g>
<path style="fill:#FFE000;" d="M474.444,321.512v-0.001l-0.005-26.204v-0.002v-4.213l-0.005-25.574l-0.008-48.824l-0.005-26.204
	l-0.006-40.985c-0.001-2.996-0.409-5.93-1.161-8.75c-0.405-1.517-0.915-2.997-1.52-4.435c-2.479-5.877-6.575-11.016-11.925-14.74
	c-0.784-0.545-1.584-1.071-2.421-1.554l-22.874-13.2l-21.414-12.358l-17.24-9.949l-65.924-38.046L304.22,31.629l-19.288-11.132
	l-11.953-6.898c-5.254-3.032-11.117-4.542-16.98-4.547v20.686v54.76v16.88v39.163v16.88v54.76v15.231v28.591h-58.276h-88.984H93.773
	h-34.72H37.566l0.006,34.432l0.001,4.011v0.849v0.002v0.013v0.005l0.005,26.2v0.001v1.863l0.002,12.617l0.004,26.497v0.006
	c0.001,0.773,0.033,1.539,0.084,2.304c0.016,0.224,0.042,0.446,0.063,0.669c0.048,0.55,0.105,1.096,0.178,1.638
	c0.033,0.236,0.072,0.471,0.11,0.706c0.086,0.546,0.184,1.087,0.298,1.626c0.041,0.201,0.084,0.403,0.13,0.603
	c0.14,0.615,0.298,1.222,0.471,1.825c0.033,0.113,0.063,0.227,0.095,0.34c0.909,3.042,2.239,5.93,3.94,8.589
	c0.001,0,0.001,0.001,0.002,0.002l0.001,0.001c1.172,1.832,2.517,3.551,4.026,5.137c0.049,0.052,0.098,0.106,0.147,0.158
	c0.71,0.735,1.454,1.441,2.233,2.112c0.125,0.11,0.254,0.215,0.382,0.322c0.785,0.661,1.594,1.3,2.444,1.89
	c0.784,0.545,1.584,1.07,2.421,1.554l22.552,13.015l21.414,12.359l17.561,10.135l91.644,52.89l19.288,11.132l11.953,6.898
	c10.533,6.078,23.509,6.077,34.04-0.006l11.872-6.857l19.288-11.14l25.717-14.853l55.554-32.086l10.363-5.985l26.36-15.225
	l21.408-12.365l13.813-7.978c0.813-0.469,1.59-0.979,2.353-1.507c0.851-0.59,1.659-1.226,2.445-1.883
	c0.129-0.107,0.259-0.213,0.386-0.323c0.779-0.672,1.526-1.374,2.236-2.11c0.047-0.048,0.09-0.098,0.136-0.146
	c3.725-3.891,6.475-8.609,8.019-13.765c0.033-0.106,0.06-0.215,0.09-0.322c0.176-0.611,0.338-1.228,0.479-1.85
	c0.047-0.201,0.089-0.401,0.131-0.603c0.113-0.541,0.213-1.085,0.3-1.633c0.037-0.236,0.076-0.473,0.11-0.711
	c0.076-0.545,0.131-1.093,0.18-1.643c0.02-0.225,0.046-0.447,0.063-0.674c0.052-0.767,0.083-1.537,0.083-2.313v-0.006
	L474.444,321.512z"/>
<path style="fill:#164FCE;" d="M76.979,158.949c21.077,0,38.164-17.087,38.164-38.164c0-11.266-4.884-21.388-12.646-28.374
	l-14.44,8.339c7.046,3.905,11.82,11.409,11.82,20.036c0,12.647-10.253,22.899-22.899,22.899c-12.647,0-22.899-10.252-22.899-22.899
	c0-0.133,0.018-0.26,0.02-0.393c-0.641,0.389-1.277,0.786-1.889,1.209c-3.272,2.266-6.072,5.068-8.331,8.236
	c-0.99,1.388-1.86,2.855-2.63,4.372C46.684,148.662,60.627,158.949,76.979,158.949z"/>
<g>
	<path style="fill:#FFE000;" d="M65.847,113.578l-11.282,6.517c-0.16,0.093-0.306,0.201-0.464,0.297
		c-0.002,0.133-0.02,0.26-0.02,0.393c0,12.647,10.252,22.899,22.899,22.899c12.646,0,22.899-10.252,22.899-22.899
		c0-8.625-4.774-16.13-11.82-20.036l-0.804,0.464L65.847,113.578z"/>
	<circle style="fill:#FFE000;" cx="176.595" cy="120.781" r="11.45"/>
	<circle style="fill:#FFE000;" cx="76.979" cy="190.496" r="11.45"/>
</g>
<path d="M483.456,149.503c-0.001-3.711-0.494-7.438-1.467-11.08c-0.506-1.897-1.154-3.787-1.924-5.614
	c-3.18-7.543-8.399-13.991-15.094-18.652c-1.116-0.775-2.088-1.397-3.063-1.96L277.498,5.768C270.96,1.995,263.514,0,255.964,0
	c-7.555,0-15.005,1.998-21.546,5.776L50.042,112.265c-0.946,0.546-1.89,1.15-2.979,1.904c-4.087,2.831-7.633,6.335-10.546,10.419
	c-1.912,2.683-3.52,5.596-4.776,8.657c-2.146,5.231-3.234,10.726-3.234,16.334l0.035,212.916c0,0.921,0.035,1.875,0.105,2.917
	c0.018,0.234,0.039,0.468,0.061,0.699l0.016,0.148c0.061,0.694,0.134,1.384,0.23,2.094c0.034,0.24,0.071,0.477,0.11,0.716
	l0.025,0.158c0.111,0.691,0.235,1.375,0.379,2.066c0.054,0.256,0.108,0.51,0.165,0.756c0.176,0.776,0.377,1.544,0.608,2.35
	l0.111,0.392c1.144,3.828,2.821,7.485,4.986,10.871c0.014,0.022,0.028,0.043,0.042,0.065c1.476,2.299,3.177,4.465,5.049,6.433
	c0.04,0.042,0.153,0.164,0.193,0.205c0.888,0.921,1.837,1.819,2.828,2.677l0.48,0.405c1.099,0.922,2.112,1.705,3.096,2.389
	c1.115,0.775,2.087,1.398,3.064,1.963l184.411,106.428c6.539,3.773,13.985,5.768,21.534,5.768l0,0
	c7.554,0,15.005-1.998,21.546-5.776l184.373-106.488c0.948-0.547,1.895-1.152,2.979-1.904c0.987-0.684,2.001-1.462,3.099-2.381
	c0.005-0.004,0.101-0.084,0.106-0.087l0.381-0.322c0.989-0.852,1.941-1.75,2.81-2.647l0.193-0.205
	c4.697-4.906,8.206-10.93,10.15-17.426l0.116-0.404c0.224-0.774,0.427-1.554,0.608-2.344l0.168-0.769
	c0.142-0.684,0.269-1.372,0.398-2.181c0.04-0.257,0.081-0.514,0.119-0.785c0.094-0.691,0.168-1.385,0.228-2.072l0.014-0.145
	c0.025-0.239,0.046-0.479,0.063-0.72c0.071-1.044,0.105-2,0.105-2.931L483.456,149.503z M48.471,140.11
	c0.729-1.781,1.662-3.471,2.769-5.025c1.696-2.378,3.755-4.415,6.116-6.051c0.673-0.464,1.221-0.819,1.73-1.111l184.376-106.49
	c1.119-0.646,2.288-1.192,3.489-1.655v227.179H46.606l-0.017-97.382C46.589,146.336,47.223,143.152,48.471,140.11z M465.347,364.1
	l-0.051,0.52c-0.035,0.404-0.076,0.807-0.128,1.192l-0.083,0.534c-0.064,0.404-0.137,0.804-0.227,1.226l-0.089,0.411
	c-0.105,0.458-0.222,0.91-0.347,1.343l-0.07,0.254c-1.128,3.765-3.166,7.26-5.908,10.126l-0.083,0.09
	c-0.514,0.529-1.066,1.05-1.655,1.559l-0.271,0.225c-0.682,0.571-1.253,1.011-1.794,1.386c-0.669,0.462-1.216,0.815-1.728,1.109
	l-184.375,106.49c-3.795,2.193-8.118,3.351-12.502,3.351c-4.381,0-8.703-1.157-12.495-3.347L59.13,384.143
	c-0.526-0.303-1.09-0.668-1.778-1.146c-0.539-0.375-1.109-0.817-1.783-1.383l-0.288-0.24c-0.576-0.499-1.128-1.022-1.595-1.507
	c-0.027-0.028-0.128-0.136-0.154-0.164c-1.101-1.155-2.094-2.424-2.957-3.773c-0.012-0.019-0.025-0.039-0.037-0.058
	c-1.24-1.953-2.202-4.057-2.859-6.257l-0.068-0.24c-0.127-0.444-0.244-0.891-0.348-1.351l-0.094-0.432
	c-0.082-0.395-0.156-0.793-0.217-1.185l-0.081-0.523c-0.055-0.4-0.096-0.803-0.13-1.197l-0.052-0.499
	c-0.037-0.561-0.064-1.125-0.064-1.7l-0.016-97.446H255.99c4.993,0,9.041-4.048,9.041-9.041V19.798
	c1.178,0.458,2.327,0.996,3.427,1.631l184.408,106.428c0.526,0.303,1.091,0.668,1.778,1.145c3.882,2.7,6.909,6.445,8.758,10.83
	c0.448,1.064,0.825,2.159,1.116,3.254c0.567,2.122,0.854,4.282,0.855,6.419l0.034,212.917
	C465.407,362.994,465.383,363.562,465.347,364.1z"/>
<g>
</g>
<g>
</g>
<g>
</g>
<g>
</g>
<g>
</g>
<g>
</g>
<g>
</g>
<g>
</g>
<g>
</g>
<g>
</g>
<g>
</g>
<g>
</g>
<g>
</g>
<g>
</g>
<g>
</g>
</svg>
