<?xml version="1.0" encoding="iso-8859-1"?>
<!-- Generator: Adobe Illustrator 19.0.0, SVG Export Plug-In . SVG Version: 6.00 Build 0)  -->
<svg version="1.1" id="Layer_1" xmlns="http://www.w3.org/2000/svg" xmlns:xlink="http://www.w3.org/1999/xlink" x="0px" y="0px"
	 viewBox="0 0 512 512" style="enable-background:new 0 0 512 512;" xml:space="preserve">
<path style="fill:#FFFFFF;" d="M473.121,371.858c0.176-0.611,0.336-1.229,0.479-1.851c0.046-0.201,0.089-0.401,0.131-0.603
	c0.113-0.541,0.213-1.085,0.3-1.634c0.037-0.238,0.076-0.474,0.11-0.711c0.075-0.545,0.131-1.094,0.18-1.643
	c0.021-0.225,0.047-0.448,0.063-0.674c0.052-0.767,0.084-1.537,0.084-2.314l0,0l0,0v-0.006l-0.006-40.908v-0.001l-0.005-26.206
	v-0.002v-4.214l-0.004-25.576l0,0l-0.008-48.827l-0.005-26.206l-0.006-40.988c0-2.996-0.408-5.93-1.16-8.75
	c-0.405-1.517-0.915-2.997-1.521-4.435c-2.478-5.877-6.574-11.017-11.926-14.741c-0.784-0.545-1.584-1.071-2.42-1.554
	l-22.875-13.201l-21.415-12.359l-17.24-9.95l-65.93-38.05L304.228,31.61l-19.29-11.133l-11.954-6.898
	c-10.533-6.079-23.511-6.077-34.043,0.006l-11.873,6.857l-19.29,11.141L182.06,46.439l0,0l-65.923,38.076L87.246,101.2
	l-21.409,12.366l-11.284,6.518c-0.811,0.469-1.59,0.979-2.353,1.507c-3.272,2.267-6.074,5.068-8.333,8.237
	c-1.517,2.128-2.781,4.423-3.774,6.842c-1.655,4.032-2.558,8.399-2.557,12.9l0.006,40.915l0.005,26.206l0.012,73.743v4.011v0.849
	v0.002v0.013l0,0v0.005l0,0l0.005,26.201v0.001v1.863l0.002,12.618l0.004,26.499v0.006l0,0c0,0.773,0.033,1.54,0.084,2.304
	c0.016,0.224,0.042,0.446,0.061,0.669c0.048,0.55,0.105,1.096,0.18,1.638c0.033,0.236,0.072,0.471,0.109,0.706
	c0.087,0.546,0.186,1.087,0.298,1.626c0.042,0.201,0.086,0.403,0.131,0.603c0.14,0.615,0.298,1.223,0.471,1.825
	c0.033,0.113,0.061,0.227,0.095,0.34c0.909,3.043,2.24,5.93,3.94,8.59c0,0,0.001,0.001,0.001,0.002l0.001,0.001
	c1.172,1.832,2.517,3.552,4.026,5.137c0.051,0.052,0.099,0.106,0.148,0.158c0.709,0.735,1.454,1.44,2.232,2.113
	c0.125,0.108,0.254,0.213,0.382,0.321c0.786,0.661,1.595,1.3,2.445,1.89c0.784,0.545,1.584,1.071,2.42,1.554l22.553,13.016
	l21.415,12.36l17.562,10.136l91.65,52.894l19.29,11.133l11.954,6.898c10.533,6.079,23.511,6.077,34.043-0.006l11.873-6.857
	l19.29-11.141l25.719-14.854l55.558-32.088l10.363-5.986l26.362-15.226l21.409-12.366l13.814-7.979
	c0.811-0.469,1.59-0.979,2.353-1.507c0.851-0.59,1.659-1.226,2.446-1.883c0.128-0.107,0.258-0.213,0.385-0.323
	c0.78-0.672,1.526-1.374,2.238-2.11c0.047-0.048,0.09-0.098,0.136-0.146c3.724-3.892,6.477-8.609,8.021-13.766
	C473.062,372.074,473.09,371.965,473.121,371.858z"/>
<path style="fill:#103B9B;" d="M78.194,106.428l-12.357,7.138l-11.284,6.518c-0.811,0.469-1.59,0.979-2.353,1.507
	c-3.272,2.267-6.074,5.068-8.333,8.237c-1.517,2.128-2.781,4.423-3.774,6.842c-1.655,4.032-2.558,8.399-2.557,12.9l0.006,40.915
	l0.005,26.206l0.012,73.743v4.011v0.849v0.002v0.013l0,0v0.005l0,0l0.005,26.201v0.001v1.863l0.002,12.618l0.004,26.499v0.006l0,0
	c0,0.773,0.033,1.54,0.084,2.304c0.016,0.224,0.042,0.446,0.061,0.669c0.048,0.55,0.105,1.096,0.18,1.638
	c0.033,0.236,0.072,0.471,0.109,0.706c0.087,0.546,0.186,1.087,0.298,1.626c0.042,0.201,0.086,0.403,0.131,0.603
	c0.14,0.615,0.298,1.223,0.471,1.825c0.033,0.113,0.061,0.227,0.095,0.34c0.909,3.042,2.24,5.93,3.94,8.59
	c0,0,0.001,0.001,0.001,0.002l0.001,0.001c1.172,1.832,2.517,3.552,4.026,5.137c0.051,0.052,0.099,0.106,0.148,0.158
	c0.709,0.735,1.454,1.441,2.232,2.112c0.125,0.11,0.254,0.215,0.382,0.322c0.786,0.661,1.595,1.3,2.445,1.89
	c0.784,0.545,1.584,1.071,2.42,1.554l22.553,13.016l1.026,0.593L210.496,256L78.194,106.428z"/>
<path style="fill:#ED1F34;" d="M474.462,321.514l-0.005-26.206v-0.002v-4.214l-0.004-25.576l-0.001-9.518h-51.61h-30.334H210.5
	L78.176,405.59l20.389,11.767l17.562,10.136l91.65,52.894l19.29,11.133l11.954,6.898c10.533,6.079,23.511,6.077,34.043-0.006
	l11.873-6.857l19.29-11.141l25.719-14.854l55.558-32.088l10.363-5.986l26.362-15.226l21.409-12.366l13.814-7.979
	c0.811-0.469,1.59-0.979,2.353-1.507c0.851-0.59,1.659-1.226,2.446-1.883c0.128-0.107,0.258-0.213,0.385-0.323
	c0.78-0.672,1.526-1.374,2.238-2.11c0.047-0.048,0.09-0.098,0.136-0.146c3.724-3.892,6.477-8.609,8.021-13.766
	c0.031-0.106,0.059-0.215,0.09-0.322c0.176-0.611,0.336-1.229,0.479-1.851c0.046-0.201,0.089-0.401,0.131-0.603
	c0.113-0.541,0.213-1.085,0.3-1.634c0.037-0.236,0.076-0.473,0.11-0.711c0.075-0.545,0.131-1.094,0.18-1.643
	c0.021-0.225,0.047-0.447,0.063-0.674c0.052-0.767,0.084-1.537,0.084-2.314l0,0v-0.006L474.462,321.514L474.462,321.514z"/>
<path d="M483.475,149.494c0-3.711-0.494-7.439-1.466-11.081c-0.506-1.898-1.155-3.787-1.925-5.615
	c-3.179-7.543-8.398-13.992-15.095-18.653c-1.115-0.775-2.087-1.397-3.062-1.96L277.503,5.75
	c-13.289-7.669-29.799-7.666-43.085,0.007L50.029,112.253c-0.946,0.546-1.892,1.151-2.979,1.904
	c-4.086,2.831-7.634,6.335-10.547,10.421c-1.912,2.684-3.519,5.596-4.775,8.657c-2.147,5.231-3.235,10.726-3.235,16.335
	l0.035,212.932c0,0.921,0.034,1.875,0.105,2.92c0.016,0.234,0.037,0.465,0.061,0.698l0.014,0.147
	c0.061,0.694,0.134,1.385,0.231,2.094c0.034,0.24,0.071,0.477,0.109,0.715l0.025,0.16c0.11,0.691,0.234,1.376,0.38,2.072
	c0.054,0.254,0.107,0.509,0.163,0.75c0.177,0.778,0.377,1.546,0.608,2.35l0.112,0.393c1.143,3.827,2.82,7.484,4.985,10.872
	c0.013,0.021,0.027,0.042,0.041,0.063c1.478,2.301,3.179,4.469,5.053,6.438c0.039,0.042,0.153,0.163,0.193,0.204
	c0.887,0.921,1.836,1.82,2.828,2.679l0.48,0.404c1.098,0.922,2.111,1.705,3.096,2.39c1.113,0.774,2.086,1.397,3.065,1.963
	l184.424,106.436c6.643,3.834,14.089,5.751,21.536,5.751c7.452,0,14.904-1.919,21.549-5.757l184.386-106.496
	c0.949-0.549,1.896-1.154,2.979-1.904c0.996-0.69,1.98-1.446,3.114-2.392l0.474-0.398c0.99-0.854,1.942-1.752,2.808-2.645
	l0.197-0.207c4.696-4.907,8.205-10.931,10.152-17.433l0.112-0.397l0,0c0.224-0.774,0.427-1.555,0.606-2.344l0.168-0.77
	c0.143-0.682,0.27-1.371,0.379-2.063l0.019-0.119c0.041-0.258,0.081-0.515,0.118-0.782c0.095-0.69,0.169-1.385,0.228-2.071
	l0.014-0.146c0.024-0.239,0.047-0.477,0.063-0.721c0.071-1.044,0.105-2,0.105-2.931L483.475,149.494z M57.339,383.005
	c-0.539-0.375-1.109-0.817-1.782-1.382l-0.289-0.241c-0.576-0.5-1.128-1.022-1.596-1.507c-0.027-0.029-0.127-0.136-0.154-0.164
	c-1.098-1.155-2.093-2.424-2.957-3.775c-0.012-0.018-0.024-0.037-0.035-0.055c-1.243-1.954-2.205-4.058-2.861-6.257l-0.068-0.241
	c-0.127-0.444-0.245-0.89-0.351-1.355l-0.093-0.428c-0.082-0.395-0.156-0.793-0.217-1.185l-0.082-0.524
	c-0.054-0.399-0.096-0.802-0.13-1.198l-0.048-0.497c-0.039-0.562-0.064-1.125-0.064-1.7l-0.035-212.927
	c0-3.241,0.632-6.426,1.881-9.466c0.731-1.781,1.663-3.471,2.77-5.025c1.696-2.379,3.755-4.415,6.117-6.051
	c0.67-0.464,1.22-0.817,1.729-1.112l17.243-9.96l122.111,138.045L76.298,394.065l-17.18-9.915
	C58.593,383.848,58.028,383.482,57.339,383.005z M465.364,364.105l-0.051,0.521c-0.035,0.403-0.076,0.804-0.129,1.195l-0.082,0.53
	c-0.065,0.404-0.139,0.805-0.227,1.225l-0.09,0.414c-0.104,0.457-0.222,0.909-0.352,1.356l-0.066,0.239
	c-1.128,3.765-3.165,7.26-5.91,10.13l-0.082,0.088c-0.511,0.529-1.065,1.05-1.653,1.558l-0.27,0.224
	c-0.688,0.576-1.259,1.016-1.798,1.389c-0.668,0.463-1.215,0.815-1.726,1.109L268.54,490.579c-7.71,4.454-17.288,4.455-25.001,0.005
	L92.282,403.291l122.292-138.249h177.933c4.994,0,9.042-4.048,9.042-9.042s-4.048-9.042-9.042-9.042H214.574L92.297,108.724
	l151.165-87.308c7.711-4.454,17.29-4.455,25.001-0.005l184.422,106.435c0.526,0.304,1.091,0.668,1.778,1.145
	c3.881,2.701,6.909,6.446,8.759,10.831c0.448,1.065,0.825,2.159,1.116,3.254c0.567,2.122,0.854,4.282,0.854,6.42l0.016,97.46
	h-42.565c-4.994,0-9.042,4.048-9.042,9.042c0,4.994,4.048,9.042,9.042,9.042h42.569l0.016,97.388
	C465.426,363,465.4,363.568,465.364,364.105z"/>
<g>
</g>
<g>
</g>
<g>
</g>
<g>
</g>
<g>
</g>
<g>
</g>
<g>
</g>
<g>
</g>
<g>
</g>
<g>
</g>
<g>
</g>
<g>
</g>
<g>
</g>
<g>
</g>
<g>
</g>
</svg>
