<?xml version="1.0" encoding="iso-8859-1"?>
<!-- Generator: Adobe Illustrator 19.0.0, SVG Export Plug-In . SVG Version: 6.00 Build 0)  -->
<svg version="1.1" id="Layer_1" xmlns="http://www.w3.org/2000/svg" xmlns:xlink="http://www.w3.org/1999/xlink" x="0px" y="0px"
	 viewBox="0 0 512.001 512.001" style="enable-background:new 0 0 512.001 512.001;" xml:space="preserve">
<path style="fill:#FFE000;" d="M473.102,371.85c0.176-0.61,0.338-1.227,0.479-1.848c0.047-0.201,0.089-0.403,0.131-0.604
	c0.113-0.54,0.213-1.085,0.3-1.632c0.037-0.237,0.076-0.474,0.11-0.711c0.076-0.546,0.131-1.095,0.18-1.644
	c0.021-0.225,0.047-0.448,0.063-0.674c0.052-0.767,0.084-1.537,0.084-2.313l0,0l0,0v-0.006l-0.005-40.904v-0.002l-0.005-26.203
	v-0.002l-0.001-4.213l-0.004-25.574l0,0l-0.008-48.824l-0.005-26.203l-0.007-40.985c0-2.995-0.406-5.931-1.16-8.75
	c-0.405-1.517-0.915-2.997-1.52-4.435c-2.479-5.876-6.575-11.016-11.925-14.74c-0.784-0.545-1.584-1.071-2.421-1.553l-22.874-13.202
	l-21.414-12.358l-17.24-9.949l-65.924-38.046L304.22,31.629l-19.288-11.132l-11.953-6.899c-10.533-6.078-23.509-6.076-34.04,0.007
	l-11.872,6.857l-19.288,11.14l-25.717,14.853l0,0l-65.915,38.072l-28.89,16.686l-21.408,12.365l-11.282,6.516
	c-0.811,0.469-1.59,0.98-2.353,1.507c-3.272,2.268-6.073,5.067-8.331,8.236c-1.517,2.127-2.781,4.422-3.773,6.841
	c-1.655,4.032-2.558,8.399-2.557,12.899l0.006,40.913l0.005,26.203l0.012,73.738v4.011v0.85v0.001v0.013l0,0v0.005l0,0l0.005,26.198
	v0.002v1.863l0.002,12.617l0.004,26.496v0.007l0,0c0,0.773,0.033,1.539,0.084,2.305c0.016,0.224,0.042,0.445,0.061,0.668
	c0.048,0.55,0.105,1.096,0.18,1.638c0.033,0.236,0.072,0.471,0.108,0.708c0.087,0.544,0.186,1.086,0.298,1.625
	c0.042,0.201,0.086,0.403,0.131,0.603c0.14,0.615,0.298,1.222,0.471,1.825c0.033,0.113,0.061,0.228,0.095,0.34
	c0.909,3.043,2.24,5.93,3.94,8.588l0.001,0.002l0.001,0.002c1.172,1.832,2.517,3.551,4.025,5.137
	c0.051,0.053,0.099,0.106,0.148,0.159c0.709,0.734,1.454,1.438,2.231,2.112c0.125,0.11,0.254,0.215,0.382,0.322
	c0.786,0.661,1.595,1.298,2.445,1.89c0.784,0.545,1.584,1.07,2.419,1.553l22.552,13.016l21.414,12.359l17.561,10.134l91.644,52.89
	l19.288,11.132l11.953,6.899c10.533,6.078,23.509,6.076,34.04-0.007l11.872-6.857l19.288-11.14l25.717-14.853l55.554-32.086
	l10.363-5.985l26.36-15.225l21.408-12.365l13.813-7.977c0.813-0.469,1.59-0.98,2.353-1.507c0.85-0.588,1.659-1.226,2.445-1.884
	c0.129-0.106,0.259-0.212,0.386-0.323c0.779-0.671,1.526-1.374,2.236-2.108c0.046-0.048,0.09-0.098,0.136-0.145
	c3.725-3.893,6.475-8.61,8.019-13.767C473.044,372.067,473.072,371.958,473.102,371.85z"/>
<path style="fill:#ED1F34;" d="M63.116,316.275H37.577l0.001,5.234v0.002v1.863l0.001,12.617l0.005,26.496v0.007l0,0
	c0,0.773,0.033,1.539,0.084,2.305c0.016,0.224,0.042,0.445,0.061,0.668c0.049,0.55,0.105,1.096,0.18,1.639
	c0.033,0.235,0.071,0.47,0.11,0.706c0.086,0.544,0.184,1.085,0.298,1.625c0.042,0.201,0.084,0.403,0.13,0.603
	c0.14,0.615,0.298,1.222,0.471,1.825c0.033,0.113,0.061,0.228,0.095,0.34c0.909,3.043,2.239,5.93,3.94,8.588l0.001,0.004
	l0.001,0.001c1.172,1.832,2.517,3.551,4.025,5.137c0.051,0.053,0.099,0.106,0.148,0.159c0.709,0.734,1.454,1.438,2.231,2.112
	c0.125,0.11,0.254,0.215,0.382,0.322c0.786,0.661,1.594,1.298,2.445,1.89c0.784,0.545,1.584,1.071,2.419,1.553l22.552,13.016
	l21.414,12.359l17.561,10.134l91.644,52.89l19.288,11.132l11.953,6.899c10.533,6.078,23.509,6.076,34.04-0.007l11.872-6.857
	l19.288-11.14l25.717-14.853l55.554-32.086l10.363-5.985l26.36-15.225l21.408-12.365l13.813-7.977
	c0.813-0.469,1.59-0.98,2.353-1.507c0.85-0.588,1.659-1.226,2.445-1.884c0.129-0.106,0.259-0.212,0.386-0.323
	c0.779-0.671,1.526-1.374,2.236-2.108c0.047-0.048,0.09-0.098,0.136-0.145c3.724-3.893,6.475-8.61,8.019-13.767
	c0.033-0.106,0.06-0.215,0.09-0.322c0.176-0.611,0.338-1.228,0.479-1.849c0.047-0.201,0.089-0.403,0.131-0.604
	c0.113-0.54,0.213-1.084,0.3-1.632c0.037-0.237,0.076-0.474,0.11-0.712c0.076-0.545,0.131-1.093,0.18-1.643
	c0.02-0.225,0.047-0.448,0.063-0.674c0.052-0.767,0.084-1.537,0.084-2.313l0,0v-0.006l-0.001-40.903v-0.002l-0.001-5.234H99.281
	H63.116z"/>
<path style="fill:#259245;" d="M474.421,190.49l-0.007-40.985c0-2.995-0.406-5.931-1.16-8.75c-0.405-1.517-0.914-2.997-1.52-4.435
	c-2.479-5.876-6.575-11.016-11.925-14.74c-0.784-0.545-1.584-1.071-2.421-1.553l-22.874-13.202l-21.414-12.358l-17.24-9.949
	l-65.924-38.046L304.22,31.629l-19.288-11.132l-11.953-6.899c-10.533-6.078-23.509-6.076-34.04,0.007l-11.872,6.857l-19.288,11.14
	l-25.717,14.853l0,0l-65.915,38.072l-28.89,16.686l-21.408,12.365l-11.282,6.516c-0.811,0.469-1.59,0.98-2.353,1.507
	c-3.272,2.268-6.073,5.067-8.331,8.236c-1.517,2.127-2.781,4.422-3.773,6.841c-1.655,4.032-2.558,8.399-2.557,12.899l0.006,40.913
	l0.001,5.234h436.866L474.421,190.49z"/>
<circle style="fill:#164FCE;" cx="256.004" cy="256.004" r="129.798"/>
<path style="fill:#FFE000;" d="M195.785,188.505c-2.935-4.041-2.039-9.694,2.001-12.629c4.041-2.938,9.695-2.039,12.629,2
	l12.548,17.271c2.935,4.042,2.039,9.694-2.001,12.629c-1.605,1.167-3.465,1.729-5.307,1.729c-2.796,0-5.553-1.292-7.322-3.729
	L195.785,188.505z M199.309,274.42c-1.543-4.75-6.645-7.35-11.393-5.805l-20.303,6.598c-4.749,1.543-7.348,6.644-5.805,11.392
	c1.242,3.822,4.786,6.251,8.597,6.251c0.926,0,1.867-0.143,2.796-0.445l20.303-6.598
	C198.254,284.269,200.852,279.168,199.309,274.42z M255.999,315.608c-4.993,0-9.041,4.048-9.041,9.041v21.349
	c0,4.993,4.047,9.041,9.041,9.041c4.993,0,9.041-4.048,9.041-9.041v-21.349C265.04,319.656,260.993,315.608,255.999,315.608z
	 M344.385,275.213l-20.303-6.598c-4.744-1.538-9.85,1.055-11.392,5.805c-1.543,4.747,1.056,9.849,5.805,11.392l20.303,6.598
	c0.928,0.301,1.87,0.445,2.796,0.445c3.811,0,7.356-2.429,8.597-6.251C351.734,281.858,349.134,276.756,344.385,275.213z
	 M291.035,207.776c1.605,1.167,3.463,1.729,5.307,1.729c2.794,0,5.551-1.292,7.321-3.729l12.549-17.271
	c2.935-4.04,2.04-9.694-2-12.629c-4.037-2.934-9.691-2.042-12.629,2l-12.549,17.271
	C286.099,199.187,286.994,204.842,291.035,207.776z M317.497,326.017c1.21,3.725-0.116,7.807-3.285,10.108
	c-3.169,2.303-7.46,2.303-10.628,0l-47.585-34.573l-47.585,34.573c-1.584,1.151-3.449,1.728-5.314,1.728
	c-1.865,0-3.73-0.576-5.314-1.728c-3.169-2.301-4.495-6.383-3.285-10.108l18.176-55.94l-47.583-34.573
	c-3.169-2.301-4.495-6.383-3.285-10.108c1.21-3.726,4.682-6.248,8.599-6.248h58.817l18.176-55.939
	c1.21-3.726,4.682-6.248,8.599-6.248c3.918,0,7.387,2.522,8.599,6.248l18.176,55.939h58.819c3.917,0,7.389,2.522,8.599,6.248
	c1.21,3.725-0.116,7.807-3.285,10.108l-47.585,34.573L317.497,326.017z M248.238,219.148h15.522l-7.761-23.886L248.238,219.148z
	 M218.552,251.993l4.797-14.763h-25.115L218.552,251.993z M240.618,290.376l-12.558-9.123l-7.761,23.887L240.618,290.376z
	 M255.999,279.201l22.065-16.031l-8.428-25.939h-27.274l-8.428,25.939L255.999,279.201z M291.701,305.139l-7.761-23.886
	l-12.558,9.123L291.701,305.139z M293.446,251.993l20.319-14.763h-25.116L293.446,251.993z"/>
<path d="M483.455,149.505c0-3.708-0.493-7.438-1.464-11.075c-0.503-1.888-1.15-3.778-1.926-5.623
	c-3.181-7.544-8.401-13.991-15.092-18.647c-1.115-0.776-2.088-1.4-3.066-1.965L277.498,5.767C270.96,1.994,263.514,0,255.964,0
	c-7.555,0-15.005,1.996-21.547,5.776L50.042,112.265c-0.95,0.549-1.896,1.152-2.978,1.902c-4.086,2.831-7.635,6.335-10.547,10.421
	c-1.912,2.683-3.519,5.597-4.775,8.658c-2.147,5.23-3.234,10.724-3.234,16.334l0.035,212.917c0,0.921,0.034,1.876,0.105,2.919
	c0.016,0.234,0.037,0.469,0.061,0.702l0.014,0.143c0.061,0.693,0.134,1.385,0.231,2.095c0.034,0.24,0.071,0.477,0.108,0.716
	l0.025,0.16c0.11,0.691,0.235,1.378,0.38,2.075c0.053,0.254,0.107,0.508,0.163,0.746c0.177,0.779,0.377,1.547,0.608,2.351
	l0.112,0.393c1.144,3.827,2.821,7.486,4.986,10.873c0.014,0.023,0.029,0.045,0.043,0.068c1.476,2.298,3.174,4.463,5.046,6.429
	c0.04,0.042,0.153,0.164,0.195,0.206c0.896,0.929,1.847,1.83,2.81,2.663l0.498,0.42c1.093,0.919,2.105,1.699,3.096,2.388
	c1.096,0.764,2.096,1.403,3.064,1.963l184.411,106.428c6.538,3.773,13.985,5.768,21.534,5.768l0,0
	c7.555,0,15.005-1.998,21.547-5.777l184.37-106.486c0.94-0.543,1.887-1.146,2.991-1.91c0.99-0.687,2.001-1.466,3.177-2.447
	l0.405-0.339c0.986-0.851,1.937-1.749,2.881-2.723l0.119-0.127c4.695-4.904,8.205-10.929,10.122-17.332
	c0.053-0.171,0.102-0.342,0.143-0.497c0.224-0.775,0.427-1.556,0.608-2.34c0.058-0.253,0.112-0.508,0.168-0.773
	c0.143-0.684,0.27-1.374,0.398-2.177c0.041-0.259,0.082-0.518,0.122-0.802c0.093-0.687,0.168-1.378,0.227-2.061l0.014-0.143
	c0.025-0.24,0.047-0.48,0.063-0.721c0.072-1.057,0.106-2.018,0.105-2.931L483.455,149.505z M385.035,204.765h80.347l0.017,102.469
	h-80.364c6.321-15.86,9.801-33.148,9.801-51.235S391.356,220.626,385.035,204.765z M48.471,140.11
	c0.729-1.781,1.662-3.472,2.769-5.025c1.696-2.378,3.755-4.415,6.119-6.053c0.668-0.463,1.216-0.815,1.725-1.109l184.377-106.49
	c3.795-2.193,8.119-3.351,12.504-3.351c4.381,0,8.703,1.157,12.495,3.347l184.408,106.427c0.524,0.301,1.087,0.665,1.778,1.145
	c3.881,2.699,6.908,6.446,8.757,10.826c0.451,1.073,0.827,2.166,1.117,3.259c0.567,2.123,0.854,4.282,0.854,6.418l0.006,37.177
	h-89.122c-24.026-41.522-68.934-69.518-120.258-69.518c-51.325,0-96.231,27.996-120.258,69.518H46.596l-0.006-37.106
	C46.589,146.336,47.222,143.151,48.471,140.11z M376.752,255.999c0,18.308-4.102,35.673-11.426,51.235
	c-2.987,6.348-6.507,12.395-10.509,18.083c-21.871,31.084-58.011,51.437-98.82,51.437s-76.95-20.353-98.819-51.437
	c-4.001-5.688-7.522-11.735-10.51-18.083c-7.322-15.562-11.425-32.926-11.425-51.235s4.102-35.673,11.425-51.235
	c2.987-6.348,6.507-12.395,10.51-18.083c21.869-31.084,58.01-51.435,98.819-51.435s76.95,20.35,98.82,51.435
	c4,5.688,7.521,11.735,10.509,18.083C372.65,220.328,376.752,237.692,376.752,255.999z M465.347,364.1l-0.051,0.52
	c-0.035,0.408-0.076,0.813-0.128,1.191l-0.064,0.407l-0.021,0.127c-0.064,0.404-0.137,0.804-0.218,1.191l-0.096,0.447
	c-0.105,0.457-0.224,0.909-0.362,1.386l-0.06,0.217c-1.13,3.762-3.164,7.255-5.905,10.118l-0.083,0.09
	c-0.515,0.532-1.068,1.054-1.635,1.543l-0.293,0.242c-0.671,0.561-1.259,1.015-1.784,1.382c-0.678,0.468-1.226,0.821-1.734,1.114
	l-184.373,106.49c-3.796,2.192-8.12,3.351-12.504,3.351c-4.381,0-8.701-1.159-12.496-3.348L59.13,384.141
	c-0.529-0.305-1.095-0.669-1.775-1.143c-0.538-0.375-1.126-0.829-1.787-1.385l-0.293-0.246c-0.568-0.489-1.119-1.011-1.589-1.497
	c-0.027-0.03-0.129-0.139-0.157-0.169c-1.099-1.155-2.094-2.424-2.956-3.772c-0.016-0.025-0.031-0.048-0.047-0.074
	c-1.237-1.948-2.195-4.047-2.849-6.239l-0.069-0.246c-0.127-0.442-0.244-0.888-0.351-1.354l-0.093-0.428
	c-0.082-0.395-0.154-0.793-0.217-1.183l-0.082-0.523c-0.054-0.4-0.096-0.803-0.13-1.203l-0.048-0.493
	c-0.039-0.561-0.064-1.125-0.064-1.699l-0.006-37.171h16.498c4.993,0,9.041-4.047,9.041-9.041s-4.048-9.041-9.041-9.041H46.616
	l-0.017-102.469h80.365c-6.319,15.86-9.8,33.148-9.8,51.235s3.48,35.375,9.8,51.235H99.281c-4.993,0-9.041,4.047-9.041,9.041
	s4.048,9.041,9.041,9.041h36.46c24.027,41.522,68.933,69.52,120.258,69.52c51.324,0,96.232-27.998,120.258-69.52h89.145
	l0.006,37.119C465.408,363.003,465.383,363.566,465.347,364.1z"/>
<g>
</g>
<g>
</g>
<g>
</g>
<g>
</g>
<g>
</g>
<g>
</g>
<g>
</g>
<g>
</g>
<g>
</g>
<g>
</g>
<g>
</g>
<g>
</g>
<g>
</g>
<g>
</g>
<g>
</g>
</svg>
