<?xml version="1.0" encoding="iso-8859-1"?>
<!-- Generator: Adobe Illustrator 19.0.0, SVG Export Plug-In . SVG Version: 6.00 Build 0)  -->
<svg version="1.1" id="Layer_1" xmlns="http://www.w3.org/2000/svg" xmlns:xlink="http://www.w3.org/1999/xlink" x="0px" y="0px"
	 viewBox="0 0 512 512" style="enable-background:new 0 0 512 512;" xml:space="preserve">
<path style="fill:#FFFFFF;" d="M473.103,371.851c0.176-0.611,0.338-1.228,0.479-1.85c0.047-0.201,0.089-0.401,0.131-0.603
	c0.113-0.541,0.213-1.085,0.3-1.634c0.037-0.236,0.076-0.473,0.11-0.711c0.076-0.545,0.131-1.093,0.18-1.643
	c0.02-0.225,0.047-0.448,0.063-0.674c0.052-0.767,0.084-1.537,0.084-2.313l0,0l0,0v-0.006l-0.005-40.904v-0.001l-0.005-26.204
	v-0.002l-0.001-4.213l-0.004-25.574l0,0l-0.008-48.824l-0.005-26.204l-0.007-40.985c0-2.996-0.406-5.93-1.16-8.75
	c-0.405-1.517-0.915-2.997-1.52-4.435c-2.479-5.877-6.575-11.016-11.925-14.74c-0.784-0.545-1.584-1.071-2.421-1.554l-22.874-13.2
	l-21.414-12.358l-17.24-9.949L329.936,46.47l-25.717-14.842L284.93,20.496l-11.953-6.898c-10.533-6.078-23.509-6.077-34.04,0.006
	l-11.872,6.857l-19.288,11.14l-25.717,14.854l0,0l-65.913,38.072l-28.89,16.686l-21.408,12.365l-11.282,6.517
	c-0.811,0.469-1.59,0.979-2.353,1.507c-3.272,2.266-6.073,5.068-8.331,8.236c-1.517,2.128-2.781,4.423-3.773,6.841
	c-1.655,4.031-2.558,8.399-2.557,12.899l0.006,40.912l0.005,26.204l0.012,73.738v4.011v0.849v0.002v0.013l0,0v0.005l0,0l0.005,26.2
	l0,0v1.864l0.002,12.617l0.004,26.497v0.006l0,0c0,0.773,0.033,1.539,0.084,2.304c0.016,0.224,0.042,0.446,0.061,0.669
	c0.048,0.55,0.105,1.096,0.18,1.638c0.033,0.236,0.072,0.471,0.108,0.706c0.087,0.546,0.186,1.087,0.298,1.626
	c0.042,0.201,0.086,0.403,0.131,0.603c0.14,0.615,0.298,1.222,0.471,1.825c0.033,0.113,0.061,0.227,0.095,0.34
	c0.909,3.042,2.24,5.93,3.94,8.589c0,0,0,0.001,0.001,0.002l0.001,0.001c1.172,1.832,2.517,3.551,4.025,5.137
	c0.051,0.052,0.099,0.106,0.148,0.158c0.709,0.735,1.454,1.439,2.231,2.112c0.125,0.11,0.254,0.215,0.382,0.322
	c0.786,0.661,1.595,1.3,2.445,1.89c0.784,0.545,1.584,1.07,2.419,1.554l22.552,13.015l21.414,12.359l17.561,10.135l91.644,52.89
	l19.288,11.132l11.953,6.898c10.533,6.078,23.509,6.077,34.04-0.006l11.872-6.857l19.288-11.14l25.717-14.853l55.554-32.086
	l10.363-5.985l26.36-15.224l21.408-12.365l13.813-7.978c0.813-0.469,1.59-0.979,2.353-1.507c0.85-0.59,1.659-1.226,2.445-1.883
	c0.129-0.107,0.259-0.213,0.386-0.323c0.779-0.671,1.526-1.374,2.236-2.11c0.046-0.048,0.09-0.098,0.136-0.146
	c3.725-3.891,6.475-8.609,8.019-13.765C473.045,372.067,473.073,371.958,473.103,371.851z"/>
<g>
	<path style="fill:#ED1F34;" d="M473.255,140.755c-0.405-1.517-0.914-2.997-1.52-4.435c-2.479-5.877-6.575-11.016-11.925-14.74
		c-0.784-0.545-1.584-1.071-2.421-1.554l-22.874-13.2l-21.414-12.358l-17.24-9.949l-65.926-38.047l-25.717-14.842L284.93,20.497
		l-11.953-6.898c-10.533-6.078-23.509-6.077-34.04,0.006l-11.872,6.857l-19.288,11.14l-25.717,14.854l0,0l-65.913,38.07
		l-28.89,16.686l-21.408,12.365l-11.282,6.517c-0.811,0.469-1.59,0.979-2.353,1.507c-3.272,2.266-6.073,5.068-8.331,8.236
		c-1.517,2.128-2.781,4.423-3.773,6.841c-0.901,2.194-1.57,4.489-2,6.85h435.753C473.693,142.594,473.499,141.667,473.255,140.755z"
		/>
	<path style="fill:#ED1F34;" d="M75.082,368.472H38.141c0.058,0.323,0.111,0.646,0.177,0.967c0.042,0.201,0.084,0.403,0.13,0.603
		c0.14,0.615,0.298,1.222,0.471,1.825c0.033,0.113,0.061,0.227,0.095,0.34c0.909,3.042,2.239,5.93,3.94,8.589
		c0,0,0,0.001,0.001,0.002l0.001,0.001c1.172,1.832,2.517,3.551,4.025,5.137c0.051,0.052,0.099,0.106,0.148,0.158
		c0.709,0.735,1.454,1.439,2.231,2.112c0.125,0.11,0.254,0.215,0.382,0.322c0.786,0.661,1.594,1.3,2.445,1.89
		c0.784,0.545,1.584,1.07,2.419,1.554l22.552,13.015l21.414,12.359l17.561,10.135l91.644,52.89l19.288,11.132l11.953,6.898
		c10.533,6.078,23.509,6.077,34.04-0.006l11.872-6.857l19.288-11.14l25.717-14.853l55.554-32.086l10.363-5.985l26.36-15.225
		l21.408-12.365l13.813-7.978c0.813-0.469,1.59-0.979,2.353-1.507c0.85-0.59,1.659-1.226,2.445-1.883
		c0.129-0.107,0.259-0.213,0.386-0.323c0.779-0.672,1.526-1.374,2.236-2.11c0.047-0.048,0.09-0.098,0.136-0.146
		c3.724-3.891,6.475-8.609,8.019-13.765c0.033-0.106,0.06-0.215,0.09-0.322c0.176-0.611,0.338-1.228,0.479-1.85
		c0.047-0.201,0.089-0.401,0.131-0.603c0.064-0.306,0.115-0.617,0.17-0.926H116.231H75.082V368.472z"/>
</g>
<polygon style="fill:#259245;" points="202.764,293.293 256,184.676 309.237,293.293 "/>
<path d="M202.764,302.335h44.194v24.989c0,4.993,4.048,9.041,9.041,9.041c4.994,0,9.041-4.048,9.041-9.041v-24.989h44.194
	c0.008,0,0.018,0,0.024,0c4.994,0,9.041-4.048,9.041-9.041c0-1.659-0.446-3.214-1.226-4.55l-52.957-108.047
	c-1.519-3.098-4.668-5.062-8.118-5.062c-3.45,0-6.6,1.964-8.118,5.062l-53.236,108.619c-1.374,2.803-1.206,6.114,0.446,8.763
	C196.744,300.727,199.643,302.335,202.764,302.335z M256,205.219l38.736,79.033h-29.694v-24.989c0-4.993-4.047-9.041-9.041-9.041
	c-4.993,0-9.041,4.048-9.041,9.041v24.989h-29.694L256,205.219z M483.456,149.505c0-3.709-0.493-7.437-1.464-11.075
	c-0.503-1.887-1.15-3.776-1.928-5.623c-3.18-7.543-8.399-13.99-15.091-18.647c-1.113-0.775-2.086-1.398-3.066-1.964L277.499,5.768
	C270.962,1.995,263.515,0,255.965,0c-7.555,0-15.005,1.998-21.547,5.776L50.043,112.265c-0.945,0.546-1.89,1.15-2.979,1.904
	c-4.086,2.831-7.633,6.335-10.546,10.421c-1.912,2.682-3.519,5.596-4.775,8.657c-2.147,5.231-3.234,10.726-3.234,16.334
	l0.035,212.917c0,0.921,0.034,1.876,0.105,2.917c0.017,0.235,0.039,0.468,0.061,0.702l0.014,0.146
	c0.061,0.693,0.134,1.384,0.231,2.096c0.034,0.241,0.071,0.481,0.11,0.721l0.025,0.152c0.11,0.691,0.235,1.377,0.379,2.07
	c0.054,0.256,0.108,0.51,0.164,0.755c0.177,0.776,0.377,1.544,0.606,2.348l0.112,0.392c1.143,3.828,2.821,7.485,4.985,10.871
	c0.013,0.022,0.027,0.042,0.04,0.063c1.478,2.301,3.179,4.469,5.043,6.425c0.041,0.045,0.162,0.174,0.204,0.217
	c0.892,0.926,1.842,1.825,2.817,2.669l0.489,0.412c1.098,0.922,2.111,1.703,3.096,2.389c1.114,0.775,2.087,1.398,3.064,1.961
	l184.411,106.428c6.539,3.773,13.985,5.768,21.534,5.768l0,0c7.555,0,15.005-1.998,21.547-5.776l184.37-106.487
	c0.943-0.545,1.89-1.149,2.987-1.907c0.987-0.686,2-1.464,3.107-2.389l0.475-0.398c0.986-0.851,1.938-1.749,2.85-2.69l0.153-0.163
	c4.695-4.904,8.205-10.929,10.126-17.35c0.051-0.165,0.098-0.33,0.137-0.481c0.224-0.774,0.427-1.554,0.609-2.344
	c0.058-0.252,0.111-0.504,0.168-0.769c0.142-0.684,0.269-1.372,0.379-2.064l0.019-0.121c0.041-0.257,0.081-0.512,0.121-0.791
	c0.093-0.687,0.168-1.379,0.227-2.063l0.014-0.143c0.025-0.24,0.047-0.479,0.063-0.72c0.072-1.058,0.106-2.019,0.105-2.931
	L483.456,149.505z M57.357,129.035c0.671-0.464,1.221-0.817,1.73-1.111l184.376-106.49c3.796-2.193,8.119-3.351,12.504-3.351
	c4.381,0,8.701,1.157,12.495,3.347l184.41,106.428c0.527,0.304,1.09,0.667,1.777,1.145c2.183,1.519,4.083,3.378,5.667,5.484H51.709
	C53.315,132.37,55.203,130.529,57.357,129.035z M458.361,379.795c-0.515,0.532-1.068,1.052-1.639,1.545l-0.288,0.24
	c-0.671,0.562-1.259,1.016-1.788,1.383c-0.674,0.465-1.222,0.819-1.731,1.111l-184.373,106.49c-3.796,2.193-8.12,3.351-12.504,3.351
	c-4.381,0-8.701-1.157-12.495-3.347L59.131,384.143c-0.526-0.303-1.091-0.667-1.778-1.146c-0.54-0.376-1.109-0.817-1.783-1.383
	l-0.291-0.243c-0.571-0.495-1.124-1.016-1.591-1.503c-0.029-0.03-0.127-0.136-0.157-0.166c-0.653-0.687-1.257-1.425-1.832-2.187
	h23.382c4.993,0,9.041-4.048,9.041-9.041s-4.048-9.041-9.041-9.041H46.626l-0.034-206.862h418.783l0.033,206.862H116.231
	c-4.993,0-9.041,4.048-9.041,9.041s4.048,9.041,9.041,9.041h344.078c-0.58,0.766-1.203,1.501-1.871,2.198L458.361,379.795z"/>
<g>
</g>
<g>
</g>
<g>
</g>
<g>
</g>
<g>
</g>
<g>
</g>
<g>
</g>
<g>
</g>
<g>
</g>
<g>
</g>
<g>
</g>
<g>
</g>
<g>
</g>
<g>
</g>
<g>
</g>
</svg>
