<?xml version="1.0" encoding="iso-8859-1"?>
<!-- Generator: Adobe Illustrator 19.0.0, SVG Export Plug-In . SVG Version: 6.00 Build 0)  -->
<svg version="1.1" id="Layer_1" xmlns="http://www.w3.org/2000/svg" xmlns:xlink="http://www.w3.org/1999/xlink" x="0px" y="0px"
	 viewBox="0 0 512.001 512.001" style="enable-background:new 0 0 512.001 512.001;" xml:space="preserve">
<path style="fill:#FFE000;" d="M473.105,371.85c0.176-0.61,0.336-1.227,0.479-1.848c0.046-0.201,0.089-0.403,0.131-0.604
	c0.113-0.54,0.213-1.085,0.3-1.632c0.037-0.237,0.076-0.474,0.11-0.711c0.075-0.546,0.131-1.095,0.18-1.644
	c0.021-0.225,0.047-0.448,0.063-0.674c0.052-0.767,0.084-1.537,0.084-2.313l0,0l0,0v-0.006l-0.006-40.904v-0.002l-0.005-26.203
	v-0.002v-4.213l-0.004-25.574l0,0l-0.008-48.824l-0.005-26.203l-0.006-40.985c0-2.995-0.408-5.931-1.16-8.75
	c-0.405-1.517-0.915-2.997-1.521-4.435c-2.477-5.876-6.574-11.016-11.925-14.74c-0.784-0.545-1.584-1.071-2.419-1.553
	l-22.874-13.202l-21.414-12.358l-17.239-9.949l-65.928-38.046l-25.717-14.844l-19.288-11.132l-11.953-6.899
	c-10.533-6.078-23.509-6.076-34.04,0.007l-11.872,6.857l-19.288,11.14l-25.717,14.853l0,0l-65.915,38.072l-28.89,16.686
	l-21.408,12.365l-11.282,6.516c-0.811,0.469-1.59,0.98-2.353,1.507c-3.272,2.268-6.073,5.067-8.333,8.236
	c-1.517,2.127-2.781,4.422-3.773,6.841c-1.655,4.032-2.558,8.399-2.557,12.899l0.006,40.913l0.005,26.203l0.012,73.738v4.011v0.85
	v0.001v0.013l0,0v0.005l0,0l0.005,26.198v0.002v1.863l0.002,12.617l0.004,26.496v0.007l0,0c0,0.773,0.033,1.539,0.084,2.305
	c0.016,0.224,0.042,0.445,0.061,0.668c0.048,0.55,0.105,1.096,0.18,1.638c0.033,0.236,0.072,0.471,0.108,0.708
	c0.087,0.544,0.186,1.086,0.298,1.625c0.042,0.201,0.086,0.403,0.131,0.603c0.14,0.615,0.298,1.222,0.471,1.825
	c0.033,0.113,0.061,0.228,0.095,0.34c0.909,3.043,2.24,5.93,3.94,8.588c0,0.001,0.001,0.002,0.001,0.002l0.001,0.002
	c1.172,1.832,2.517,3.551,4.025,5.137c0.051,0.053,0.099,0.106,0.148,0.159c0.709,0.734,1.454,1.438,2.231,2.112
	c0.125,0.11,0.254,0.215,0.382,0.322c0.786,0.661,1.595,1.298,2.445,1.89c0.784,0.545,1.584,1.07,2.419,1.553l22.552,13.016
	l21.414,12.359l17.561,10.134l91.644,52.89l19.288,11.132l11.953,6.899c10.533,6.078,23.509,6.076,34.04-0.007l11.872-6.857
	l19.288-11.14l25.717-14.853l55.554-32.086l10.363-5.985l26.36-15.225l21.408-12.365l13.813-7.977
	c0.811-0.469,1.59-0.98,2.353-1.507c0.851-0.588,1.659-1.226,2.446-1.884c0.128-0.106,0.258-0.212,0.385-0.323
	c0.78-0.671,1.526-1.374,2.237-2.108c0.047-0.048,0.09-0.098,0.136-0.145c3.724-3.893,6.476-8.61,8.02-13.767
	C473.046,372.067,473.074,371.958,473.105,371.85z"/>
<path style="fill:#ED1F34;" d="M212.361,214.853v-82.298V28.958l-4.581,2.645l-25.717,14.853l0,0l-65.915,38.072l-28.89,16.686
	l-21.408,12.365l-11.282,6.516c-0.811,0.469-1.59,0.98-2.353,1.507c-3.272,2.268-6.073,5.067-8.333,8.236
	c-1.517,2.127-2.781,4.422-3.773,6.841c-1.655,4.032-2.558,8.399-2.557,12.899l0.006,40.913l0.005,26.203l0.012,73.738v4.011v0.849
	v0.002v0.013l0,0v0.005l0,0v1.836H212.36v-82.295H212.361z"/>
<g>
	<path style="fill:#259245;" d="M97.932,379.446H42.156c0.262,0.452,0.517,0.909,0.799,1.349c0,0.001,0.001,0.002,0.001,0.004
		l0.001,0.001c1.172,1.832,2.517,3.551,4.025,5.137c0.051,0.053,0.099,0.106,0.148,0.159c0.709,0.734,1.454,1.438,2.231,2.112
		c0.125,0.11,0.254,0.215,0.382,0.322c0.786,0.661,1.595,1.298,2.445,1.89c0.784,0.545,1.584,1.07,2.419,1.553l22.552,13.016
		l21.414,12.359l17.561,10.134l91.644,52.89l19.288,11.132l11.953,6.899c10.533,6.078,23.509,6.076,34.04-0.007l11.872-6.857
		l19.288-11.14l25.717-14.853l55.554-32.086l10.363-5.985l26.36-15.225l21.408-12.365l13.813-7.977
		c0.811-0.469,1.59-0.98,2.353-1.507c0.851-0.588,1.659-1.226,2.446-1.884c0.128-0.106,0.258-0.212,0.385-0.323
		c0.78-0.671,1.526-1.374,2.237-2.108c0.047-0.048,0.09-0.098,0.136-0.145c1.884-1.971,3.518-4.152,4.874-6.494H139.682H97.932
		V379.446z"/>
	<path style="fill:#259245;" d="M374.691,132.554h40.48h54.68c-2.474-4.301-5.87-8.071-10.041-10.974
		c-0.784-0.545-1.584-1.071-2.419-1.553l-22.874-13.202l-21.414-12.358l-17.239-9.949l-65.926-38.046l-25.717-14.844l-19.288-11.132
		l-11.953-6.899c-10.533-6.078-23.509-6.076-34.04,0.007l-11.872,6.857l-14.707,8.495v103.598h162.331V132.554z"/>
	<polygon style="fill:#259245;" points="212.361,297.147 474.441,297.147 474.441,295.307 474.441,295.304 474.44,291.091 
		474.436,265.517 474.428,216.693 474.426,214.853 212.361,214.853 	"/>
</g>
<polygon style="fill:#FFFFFF;" points="66.788,171.465 109.71,169.248 125.081,129.112 140.454,169.248 183.375,171.465 
	149.955,198.488 161.109,239.994 125.081,216.56 89.054,239.994 100.209,198.488 "/>
<path d="M61.104,178.495l28.847,23.324l-9.627,35.828c-0.972,3.618,0.387,7.46,3.418,9.661c3.029,2.202,7.104,2.307,10.245,0.265
	l31.098-20.227l31.098,20.227c1.502,0.978,3.216,1.462,4.929,1.462c1.869,0,3.733-0.577,5.315-1.728
	c3.031-2.201,4.389-6.043,3.418-9.661l-9.627-35.828l28.847-23.324c2.914-2.354,4.072-6.261,2.914-9.824
	c-1.157-3.562-4.392-6.043-8.132-6.236l-37.048-1.914l-13.269-34.643c-1.339-3.497-4.698-5.807-8.443-5.807
	c-3.746,0-7.104,2.31-8.443,5.807l-13.268,34.643l-37.048,1.914c-3.741,0.193-6.975,2.674-8.132,6.236
	C57.032,172.234,58.19,176.141,61.104,178.495z M110.176,178.277c3.571-0.183,6.698-2.457,7.977-5.796l6.929-18.091l6.929,18.091
	c1.279,3.339,4.406,5.612,7.977,5.796l19.346,0.999l-15.064,12.181c-2.781,2.248-3.975,5.925-3.048,9.377l5.028,18.711
	l-16.24-10.564c-1.498-0.975-3.214-1.462-4.929-1.462c-1.715,0-3.431,0.487-4.929,1.462l-16.24,10.564l5.028-18.711
	c0.928-3.451-0.266-7.128-3.048-9.377L90.83,179.276L110.176,178.277z M483.458,149.503c0-3.711-0.494-7.438-1.466-11.08
	c-0.508-1.9-1.155-3.789-1.925-5.613c-3.179-7.542-8.398-13.99-15.096-18.652c-1.111-0.773-2.084-1.395-3.062-1.96L277.5,5.767
	C270.962,1.994,263.516,0,255.967,0c-7.555,0-15.006,1.998-21.547,5.776L50.044,112.265c-0.935,0.54-1.879,1.143-2.98,1.904
	c-4.088,2.833-7.636,6.339-10.543,10.419c-1.913,2.682-3.52,5.596-4.776,8.658c-2.147,5.232-3.234,10.727-3.234,16.334
	l0.035,212.917c0,0.921,0.034,1.876,0.105,2.919c0.016,0.234,0.037,0.469,0.061,0.702l0.014,0.143
	c0.061,0.693,0.134,1.385,0.231,2.095c0.034,0.24,0.071,0.477,0.108,0.716l0.025,0.16c0.11,0.691,0.235,1.378,0.38,2.075
	c0.053,0.254,0.107,0.508,0.163,0.746c0.177,0.779,0.377,1.547,0.608,2.351l0.112,0.393c1.144,3.827,2.821,7.486,4.986,10.873
	c0.014,0.023,0.029,0.045,0.043,0.068c1.476,2.298,3.174,4.463,5.046,6.429c0.04,0.042,0.153,0.164,0.195,0.206
	c0.896,0.929,1.847,1.83,2.81,2.663l0.498,0.42c1.093,0.919,2.105,1.699,3.096,2.388c1.096,0.764,2.096,1.403,3.064,1.963
	l184.411,106.429c6.538,3.772,13.983,5.766,21.532,5.767c0.001,0,0.001,0,0.002,0c7.554,0,15.005-1.998,21.546-5.776l184.373-106.49
	c0.938-0.541,1.884-1.145,2.975-1.9c0.996-0.688,1.982-1.445,3.189-2.454c0.14-0.116,0.278-0.231,0.405-0.34
	c0.99-0.854,1.941-1.752,2.84-2.681l0.159-0.171c4.695-4.904,8.206-10.929,10.149-17.421l0.116-0.406
	c0.224-0.775,0.427-1.556,0.605-2.34l0.169-0.773c0.143-0.684,0.27-1.374,0.399-2.184c0.042-0.258,0.082-0.516,0.119-0.785
	c0.094-0.69,0.168-1.383,0.228-2.071l0.014-0.143c0.024-0.24,0.047-0.48,0.063-0.721c0.071-1.043,0.105-1.999,0.105-2.931
	L483.458,149.503z M221.402,223.893h243.985l0.011,64.216H221.402V223.893z M243.463,21.434c3.796-2.192,8.119-3.351,12.504-3.351
	c4.381,0,8.701,1.157,12.495,3.347l176.879,102.083h-30.169c-4.993,0-9.041,4.047-9.041,9.041c0,4.994,4.048,9.041,9.041,9.041
	h48.896c0.166,0.494,0.322,0.992,0.454,1.491c0.565,2.121,0.854,4.281,0.854,6.418l0.01,56.304H221.402v-64.214h153.289
	c4.993,0,9.041-4.047,9.041-9.041c0-4.994-4.048-9.041-9.041-9.041H221.402V34.176L243.463,21.434z M48.473,140.11
	c0.729-1.781,1.661-3.471,2.77-5.025c1.694-2.377,3.753-4.413,6.111-6.048c0.681-0.47,1.232-0.826,1.732-1.114l144.233-83.305
	v243.488H46.615l-0.023-138.531C46.591,146.337,47.224,143.152,48.473,140.11z M268.539,490.566
	c-3.796,2.192-8.119,3.351-12.502,3.351h-0.001c-4.381,0-8.701-1.157-12.495-3.347L66.66,388.487h31.27
	c4.993,0,9.041-4.047,9.041-9.041s-4.048-9.041-9.041-9.041H47.945c-0.088-0.263-0.186-0.522-0.265-0.786l-0.069-0.246
	c-0.127-0.442-0.244-0.888-0.351-1.354l-0.093-0.428c-0.082-0.395-0.154-0.793-0.217-1.183l-0.082-0.523
	c-0.054-0.4-0.096-0.803-0.13-1.203l-0.048-0.493c-0.039-0.561-0.064-1.125-0.064-1.699l-0.01-56.298h418.783l0.01,56.233
	c0,0.571-0.025,1.138-0.061,1.678l-0.051,0.52c-0.035,0.404-0.076,0.805-0.13,1.197l-0.082,0.528
	c-0.064,0.404-0.137,0.804-0.231,1.251l-0.084,0.387c-0.104,0.457-0.222,0.909-0.347,1.341l-0.071,0.254
	c-0.083,0.277-0.182,0.55-0.275,0.826H139.681c-4.993,0-9.041,4.047-9.041,9.041s4.048,9.041,9.041,9.041h305.596L268.539,490.566z"
	/>
<g>
</g>
<g>
</g>
<g>
</g>
<g>
</g>
<g>
</g>
<g>
</g>
<g>
</g>
<g>
</g>
<g>
</g>
<g>
</g>
<g>
</g>
<g>
</g>
<g>
</g>
<g>
</g>
<g>
</g>
</svg>
