<?xml version="1.0" encoding="iso-8859-1"?>
<!-- Generator: Adobe Illustrator 19.0.0, SVG Export Plug-In . SVG Version: 6.00 Build 0)  -->
<svg version="1.1" id="Layer_1" xmlns="http://www.w3.org/2000/svg" xmlns:xlink="http://www.w3.org/1999/xlink" x="0px" y="0px"
	 viewBox="0 0 512.001 512.001" style="enable-background:new 0 0 512.001 512.001;" xml:space="preserve">
<path style="fill:#FFFFFF;" d="M473.103,371.851c0.176-0.611,0.336-1.228,0.479-1.85c0.046-0.2,0.088-0.401,0.13-0.603
	c0.115-0.54,0.213-1.085,0.301-1.634c0.037-0.236,0.076-0.473,0.108-0.711c0.076-0.545,0.131-1.092,0.181-1.643
	c0.019-0.225,0.047-0.447,0.061-0.674c0.053-0.767,0.084-1.537,0.084-2.313l0,0l0,0v-0.006l-0.007-40.904v-0.002l-0.005-26.203
	v-0.002v-4.213l-0.005-25.574l0,0l-0.008-48.824l-0.004-26.204l-0.007-40.984c0-2.995-0.407-5.931-1.16-8.75
	c-0.405-1.517-0.915-2.997-1.521-4.435c-2.477-5.877-6.574-11.017-11.925-14.74c-0.784-0.545-1.584-1.071-2.421-1.553
	l-22.872-13.202l-21.415-12.358l-17.24-9.949l-65.92-38.046l-25.719-14.844l-19.288-11.132l-11.952-6.899
	c-10.534-6.078-23.51-6.076-34.04,0.007l-11.873,6.857l-19.288,11.14L182.06,46.457v-0.001l-65.915,38.072l-28.889,16.686
	l-21.408,12.365l-11.284,6.517c-0.811,0.468-1.589,0.979-2.352,1.506c-3.273,2.268-6.073,5.068-8.333,8.235
	c-1.517,2.129-2.781,4.424-3.773,6.843c-1.655,4.031-2.558,8.399-2.557,12.899l0.007,40.912l0.004,26.204l0.013,73.738l0.001,4.011
	v0.85v0.001v0.013l0,0v0.005l0,0l0.004,26.2l0,0l0.001,1.864l0.001,12.617l0.005,26.497v0.006l0,0c0,0.773,0.031,1.539,0.083,2.304
	c0.017,0.224,0.042,0.446,0.063,0.669c0.048,0.548,0.105,1.096,0.18,1.638c0.031,0.236,0.071,0.471,0.108,0.706
	c0.087,0.545,0.186,1.087,0.298,1.626c0.042,0.201,0.084,0.403,0.13,0.603c0.14,0.615,0.298,1.222,0.471,1.825
	c0.033,0.113,0.063,0.227,0.096,0.34c0.908,3.042,2.239,5.93,3.94,8.589l0.001,0.001l0.001,0.002
	c1.172,1.832,2.517,3.551,4.026,5.137c0.049,0.052,0.098,0.106,0.148,0.158c0.71,0.735,1.454,1.439,2.233,2.113
	c0.125,0.11,0.254,0.215,0.381,0.322c0.786,0.661,1.595,1.298,2.445,1.89c0.784,0.545,1.584,1.07,2.421,1.553l22.55,13.015
	l21.415,12.36l17.56,10.134l91.644,52.89l19.288,11.132l11.953,6.899c10.533,6.078,23.51,6.076,34.04-0.007l11.872-6.857
	l19.288-11.14l25.719-14.853l55.553-32.086l10.364-5.985l26.36-15.225l21.408-12.365l13.812-7.978
	c0.813-0.468,1.591-0.979,2.353-1.506c0.851-0.588,1.659-1.226,2.446-1.884c0.128-0.107,0.258-0.212,0.385-0.322
	c0.779-0.673,1.526-1.375,2.236-2.11c0.047-0.048,0.092-0.098,0.137-0.146c3.724-3.891,6.475-8.609,8.019-13.765
	C473.044,372.067,473.073,371.958,473.103,371.851z"/>
<g>
	<path style="fill:#3DB4EA;" d="M474.414,149.505c0-2.995-0.408-5.931-1.16-8.75c-0.405-1.517-0.915-2.997-1.521-4.435
		c-2.477-5.877-6.574-11.017-11.925-14.74c-0.784-0.545-1.584-1.071-2.421-1.553l-22.872-13.202L413.1,94.468l-17.24-9.949
		l-65.923-38.046l-25.719-14.844l-19.288-11.132l-11.952-6.899c-10.534-6.078-23.51-6.076-34.04,0.007l-11.873,6.857l-19.288,11.14
		L182.06,46.457v-0.001l-65.915,38.072l-28.889,16.686l-21.408,12.365l-11.284,6.517c-0.811,0.468-1.589,0.979-2.352,1.506
		c-3.273,2.268-6.073,5.068-8.333,8.235c-1.517,2.129-2.781,4.424-3.773,6.843c-1.655,4.031-2.558,8.399-2.557,12.899l0.004,24.33
		H474.42L474.414,149.505z"/>
	<path style="fill:#3DB4EA;" d="M37.585,362.489v0.006l0,0c0,0.773,0.031,1.539,0.083,2.304c0.017,0.225,0.043,0.445,0.063,0.669
		c0.048,0.548,0.105,1.096,0.18,1.638c0.031,0.236,0.071,0.471,0.108,0.706c0.087,0.545,0.184,1.086,0.298,1.626
		c0.042,0.201,0.084,0.403,0.13,0.603c0.14,0.615,0.298,1.222,0.471,1.826c0.033,0.112,0.063,0.227,0.096,0.339
		c0.908,3.042,2.239,5.93,3.94,8.588c0.001,0.001,0.001,0.002,0.001,0.004l0.001,0.001c1.172,1.832,2.517,3.551,4.026,5.137
		c0.051,0.052,0.098,0.106,0.148,0.158c0.709,0.737,1.454,1.441,2.231,2.114c0.125,0.108,0.256,0.213,0.382,0.321
		c0.786,0.661,1.594,1.298,2.445,1.89c0.784,0.545,1.584,1.07,2.421,1.553l22.55,13.015l21.415,12.36l17.56,10.134l91.644,52.89
		l19.288,11.132l11.953,6.899c10.533,6.078,23.51,6.076,34.04-0.007l11.872-6.857l19.288-11.14l25.719-14.853l55.553-32.086
		l10.364-5.985l26.36-15.225l21.408-12.365l13.812-7.978c0.813-0.468,1.591-0.979,2.353-1.506c0.851-0.588,1.659-1.226,2.446-1.884
		c0.128-0.107,0.258-0.212,0.385-0.323c0.779-0.671,1.526-1.374,2.236-2.108c0.047-0.047,0.09-0.096,0.137-0.146
		c3.724-3.891,6.475-8.609,8.019-13.765c0.031-0.107,0.06-0.216,0.09-0.323c0.176-0.611,0.336-1.228,0.479-1.85
		c0.046-0.2,0.088-0.401,0.13-0.603c0.113-0.54,0.213-1.085,0.3-1.633c0.039-0.236,0.076-0.473,0.11-0.711
		c0.076-0.544,0.131-1.092,0.181-1.643c0.019-0.225,0.046-0.447,0.061-0.674c0.053-0.767,0.084-1.537,0.084-2.313l0,0v-0.006
		l-0.005-24.324H37.581L37.585,362.489z"/>
</g>
<polygon style="fill:#333333;" points="37.559,216.693 37.572,290.431 37.574,294.442 37.574,295.291 37.574,295.293 
	37.574,295.307 37.574,295.307 37.574,295.311 37.574,295.311 37.575,307.962 404.277,307.962 440.443,307.962 474.441,307.962 
	474.438,295.307 474.438,295.304 474.438,291.091 474.434,265.517 474.426,216.693 474.424,204.038 37.558,204.038 "/>
<path d="M483.456,149.501c-0.001-3.713-0.494-7.44-1.466-11.076c-0.506-1.899-1.154-3.789-1.925-5.615
	c-3.18-7.544-8.399-13.991-15.094-18.652c-1.118-0.778-2.089-1.4-3.062-1.961L277.499,5.767C270.961,1.994,263.515,0,255.964,0
	c-7.555,0-15.005,1.996-21.547,5.776L50.041,112.265c-0.944,0.545-1.919,1.169-2.976,1.902c-4.087,2.829-7.635,6.335-10.548,10.421
	c-1.912,2.683-3.519,5.597-4.774,8.657c-2.148,5.231-3.237,10.727-3.236,16.335l0.018,107.241l0.008,51.144c0,0.002,0,0.005,0,0.005
	l0.01,54.527c0,0.915,0.034,1.869,0.106,2.922c0.017,0.235,0.037,0.471,0.061,0.706l0.014,0.137
	c0.061,0.699,0.134,1.396,0.225,2.048c0.037,0.278,0.081,0.556,0.141,0.929c0.11,0.685,0.234,1.365,0.379,2.065
	c0.054,0.254,0.108,0.508,0.163,0.745c0.177,0.779,0.377,1.547,0.615,2.378l0.105,0.364c1.134,3.806,2.8,7.445,4.949,10.818
	c0.013,0.02,0.025,0.04,0.039,0.06c1.482,2.318,3.195,4.504,5.074,6.478l0.211,0.224c0.901,0.932,1.852,1.834,2.778,2.633
	c0.143,0.125,0.289,0.248,0.528,0.447c1.09,0.916,2.101,1.696,3.098,2.391c1.111,0.773,2.084,1.395,3.062,1.96L234.5,506.233
	c6.539,3.773,13.985,5.768,21.534,5.768c7.555,0,15.006-1.998,21.547-5.777l184.375-106.49c0.937-0.54,1.911-1.162,2.981-1.904
	c0.991-0.687,2.005-1.466,3.186-2.453l0.4-0.335c0.981-0.847,1.932-1.743,2.882-2.723l0.119-0.128
	c4.697-4.905,8.206-10.93,10.147-17.414l0.118-0.413c0.224-0.775,0.427-1.556,0.606-2.34c0.058-0.253,0.112-0.508,0.164-0.755
	c0.146-0.69,0.274-1.385,0.401-2.194c0.041-0.259,0.082-0.518,0.119-0.781c0.095-0.694,0.171-1.391,0.23-2.08l0.014-0.153
	c0.024-0.237,0.046-0.476,0.061-0.699c0.071-1.033,0.106-1.995,0.106-2.944L483.456,149.501z M48.47,140.11
	c0.731-1.781,1.662-3.472,2.77-5.025c1.696-2.378,3.754-4.415,6.125-6.055c0.651-0.452,1.214-0.814,1.719-1.105L243.461,21.434
	c3.795-2.193,8.119-3.351,12.504-3.351c4.381,0,8.703,1.157,12.495,3.345l184.407,106.428c0.523,0.301,1.089,0.667,1.779,1.145
	c3.881,2.7,6.908,6.445,8.758,10.832c0.447,1.062,0.823,2.157,1.116,3.252c0.565,2.119,0.852,4.28,0.854,6.418l0.007,45.49H46.597
	l-0.007-45.422C46.589,146.336,47.221,143.152,48.47,140.11z M46.608,259.958l-0.007-46.879h418.782l0.016,85.841H46.615
	L46.608,259.958z M465.345,364.114l-0.048,0.506c-0.035,0.4-0.076,0.798-0.129,1.19l-0.064,0.407l-0.02,0.127
	c-0.063,0.398-0.134,0.792-0.218,1.191l-0.096,0.447c-0.105,0.457-0.223,0.909-0.334,1.296l-0.083,0.299
	c-1.128,3.764-3.164,7.258-5.902,10.12l-0.127,0.135c-0.508,0.521-1.048,1.03-1.605,1.509l-0.286,0.237
	c-0.67,0.561-1.257,1.014-1.791,1.384c-0.667,0.462-1.215,0.814-1.728,1.11l-184.375,106.49c-3.796,2.192-8.119,3.351-12.504,3.351
	c-4.381,0-8.701-1.158-12.495-3.348L59.131,384.141c-0.528-0.305-1.093-0.67-1.773-1.14c-0.54-0.377-1.13-0.833-1.789-1.388
	l-0.294-0.248c-0.564-0.486-1.115-1.008-1.596-1.506c-0.027-0.029-0.118-0.127-0.146-0.156c-1.102-1.16-2.098-2.429-2.958-3.775
	c-0.007-0.013-0.016-0.025-0.024-0.036c-1.248-1.961-2.215-4.071-2.876-6.29l-0.065-0.23c-0.127-0.441-0.244-0.887-0.35-1.354
	l-0.09-0.42c-0.083-0.401-0.157-0.806-0.24-1.33l-0.063-0.406c-0.054-0.393-0.094-0.791-0.13-1.204l-0.046-0.471
	c-0.037-0.562-0.064-1.126-0.064-1.701l-0.008-45.483h418.784l0.007,45.419C465.408,362.988,465.384,363.551,465.345,364.114z"/>
<g>
</g>
<g>
</g>
<g>
</g>
<g>
</g>
<g>
</g>
<g>
</g>
<g>
</g>
<g>
</g>
<g>
</g>
<g>
</g>
<g>
</g>
<g>
</g>
<g>
</g>
<g>
</g>
<g>
</g>
</svg>
