<?xml version="1.0" encoding="iso-8859-1"?>
<!-- Generator: Adobe Illustrator 19.0.0, SVG Export Plug-In . SVG Version: 6.00 Build 0)  -->
<svg version="1.1" id="Layer_1" xmlns="http://www.w3.org/2000/svg" xmlns:xlink="http://www.w3.org/1999/xlink" x="0px" y="0px"
	 viewBox="0 0 512.001 512.001" style="enable-background:new 0 0 512.001 512.001;" xml:space="preserve">
<path style="fill:#103B9B;" d="M473.12,371.86c0.176-0.611,0.336-1.229,0.479-1.851c0.046-0.201,0.089-0.401,0.131-0.603
	c0.113-0.541,0.213-1.085,0.3-1.634c0.037-0.237,0.076-0.474,0.11-0.711c0.075-0.545,0.131-1.094,0.18-1.643
	c0.02-0.225,0.047-0.449,0.063-0.674c0.052-0.767,0.084-1.537,0.084-2.314l0,0l0,0v-0.006l-0.006-40.907v-0.001l-0.005-26.206
	v-0.002v-4.214l-0.004-25.576l0,0l-0.008-48.827l-0.005-26.206l-0.006-40.988c0-2.996-0.408-5.93-1.16-8.75
	c-0.405-1.517-0.915-2.997-1.521-4.435c-2.478-5.877-6.574-11.017-11.926-14.741c-0.784-0.545-1.584-1.071-2.42-1.554
	l-22.875-13.201l-21.415-12.359l-17.24-9.95l-65.93-38.05l-25.719-14.843l-19.29-11.133l-11.954-6.898
	c-10.533-6.079-23.511-6.077-34.043,0.006l-11.873,6.857l-19.29,11.141l-25.719,14.856l0,0l-65.923,38.076l-28.891,16.686
	l-21.409,12.366l-11.284,6.518c-0.811,0.469-1.59,0.979-2.353,1.507c-3.272,2.267-6.074,5.068-8.333,8.237
	c-1.517,2.128-2.781,4.423-3.774,6.842c-1.655,4.032-2.558,8.399-2.557,12.9l0.006,40.915l0.005,26.206l0.012,73.743v4.011v0.85
	v0.001v0.013l0,0v0.005l0,0l0.005,26.201v0.001v1.863l0.002,12.618l0.004,26.499v0.006l0,0c0,0.773,0.033,1.54,0.084,2.304
	c0.016,0.224,0.042,0.446,0.061,0.669c0.048,0.55,0.105,1.096,0.18,1.638c0.033,0.236,0.072,0.471,0.109,0.706
	c0.087,0.546,0.186,1.087,0.298,1.626c0.042,0.201,0.086,0.403,0.131,0.603c0.14,0.615,0.298,1.223,0.471,1.825
	c0.033,0.113,0.061,0.227,0.095,0.34c0.909,3.043,2.24,5.93,3.94,8.59c0,0,0.001,0.001,0.001,0.002l0.001,0.001
	c1.172,1.833,2.517,3.552,4.026,5.137c0.051,0.052,0.099,0.106,0.148,0.158c0.709,0.735,1.454,1.439,2.232,2.112
	c0.125,0.11,0.254,0.215,0.382,0.322c0.786,0.661,1.595,1.3,2.445,1.89c0.784,0.545,1.584,1.071,2.42,1.554L77.145,405l21.415,12.36
	l17.562,10.136l91.65,52.894l19.29,11.133l11.954,6.898c10.533,6.079,23.511,6.077,34.043-0.006l11.873-6.857l19.29-11.141
	l25.719-14.854l55.558-32.088l10.363-5.986l26.362-15.226l21.409-12.366l13.814-7.979c0.811-0.469,1.59-0.979,2.353-1.507
	c0.851-0.59,1.659-1.226,2.446-1.883c0.128-0.107,0.258-0.213,0.385-0.322c0.78-0.673,1.526-1.376,2.238-2.11
	c0.047-0.048,0.09-0.098,0.136-0.146c3.724-3.892,6.477-8.609,8.021-13.766C473.061,372.075,473.089,371.967,473.12,371.86z"/>
<g>
	<circle style="fill:#FFFFFF;" cx="230.127" cy="152.148" r="12.488"/>
	<circle style="fill:#FFFFFF;" cx="177.418" cy="158.719" r="12.485"/>
	<circle style="fill:#FFFFFF;" cx="125.939" cy="171.848" r="12.484"/>
	<circle style="fill:#FFFFFF;" cx="281.872" cy="152.148" r="12.488"/>
	<circle style="fill:#FFFFFF;" cx="334.581" cy="158.719" r="12.485"/>
	<circle style="fill:#FFFFFF;" cx="386.061" cy="171.848" r="12.484"/>
</g>
<path style="fill:#F2A643;" d="M284.797,213.471c-8.855-3.752-18.593-5.829-28.815-5.829c-9.114,0-17.837,1.659-25.898,4.675
	c2.921,5.876,4.572,12.495,4.572,19.502c0,24.236-19.648,43.883-43.884,43.883c-2.868,0-5.669-0.283-8.384-0.809l59.176,97.448
	c7.449,0,13.487-6.039,13.487-13.488v-3.422c0.311,0.004,0.618,0.024,0.931,0.024c38.754,0,70.52-29.834,73.635-67.784
	L284.797,213.471z"/>
<path d="M241.563,381.384c-3.159,0-6.088-1.649-7.729-4.349l-59.176-97.448c-1.857-3.059-1.736-6.924,0.307-9.859
	c2.044-2.936,5.623-4.393,9.14-3.711c2.209,0.428,4.451,0.645,6.665,0.645c19.213,0,34.842-15.63,34.842-34.842
	c0-5.429-1.22-10.636-3.626-15.476c-1.139-2.292-1.254-4.961-0.315-7.342c0.939-2.382,2.844-4.253,5.243-5.15
	c9.31-3.483,19.088-5.249,29.067-5.249c11.212,0,22.094,2.203,32.344,6.546c1.753,0.743,3.226,2.021,4.211,3.649l44.818,74.202
	c0.983,1.626,1.427,3.52,1.272,5.414c-1.699,20.687-11.046,39.871-26.321,54.017c-13.527,12.529-30.645,20.101-48.846,21.735
	C261.067,374.033,252.156,381.384,241.563,381.384z M198.597,284.169l46.76,77.001c0.412-0.674,0.651-1.467,0.651-2.314v-3.422
	c0-2.418,0.969-4.737,2.691-6.436c1.722-1.699,4.063-2.654,6.471-2.605c0.204,0.002,0.405,0.01,0.608,0.017l0.213,0.006
	c32.539,0,60.26-24.665,64.319-56.661l-41.683-69.009c-7.226-2.696-14.829-4.06-22.645-4.06c-4.759,0-9.457,0.512-14.049,1.53
	c1.173,4.403,1.764,8.952,1.764,13.606C243.697,258.343,224.081,280.373,198.597,284.169z M256.036,512.001
	c-7.447,0-14.893-1.916-21.536-5.751L50.076,399.814c-0.978-0.565-1.951-1.189-3.065-1.963c-0.985-0.685-1.999-1.467-3.096-2.389
	l-0.48-0.404c-0.991-0.858-1.941-1.758-2.828-2.679c-0.04-0.041-0.154-0.163-0.193-0.204c-1.874-1.969-3.575-4.136-5.053-6.438
	c-0.013-0.02-0.027-0.042-0.041-0.063c-2.164-3.387-3.842-7.044-4.985-10.872l-0.112-0.393c-0.23-0.804-0.43-1.573-0.608-2.35
	c-0.055-0.241-0.109-0.496-0.163-0.75c-0.146-0.697-0.27-1.382-0.38-2.072l-0.025-0.16c-0.037-0.237-0.075-0.476-0.109-0.715
	c-0.098-0.709-0.17-1.401-0.231-2.094l-0.014-0.147c-0.024-0.231-0.046-0.464-0.061-0.698c-0.071-1.045-0.105-1.999-0.105-2.92
	l-0.035-212.932c0-5.607,1.087-11.104,3.235-16.335c1.256-3.061,2.863-5.974,4.775-8.657c2.913-4.085,6.461-7.591,10.547-10.421
	c1.087-0.754,2.034-1.356,2.979-1.904L234.417,5.758c13.286-7.674,29.794-7.677,43.085-0.007l184.423,106.436
	c0.975,0.563,1.947,1.185,3.062,1.96c6.697,4.661,11.916,11.11,15.095,18.653c0.77,1.828,1.419,3.717,1.925,5.615
	c0.972,3.642,1.465,7.37,1.466,11.081l0.035,212.927c0,0.931-0.034,1.887-0.105,2.931c-0.017,0.244-0.039,0.482-0.063,0.721
	l-0.014,0.146c-0.06,0.686-0.134,1.382-0.228,2.071c-0.037,0.268-0.077,0.524-0.118,0.781l-0.019,0.119
	c-0.11,0.692-0.236,1.38-0.379,2.063l-0.168,0.77c-0.181,0.79-0.383,1.57-0.606,2.344l0,0l-0.112,0.397
	c-1.947,6.502-5.457,12.527-10.152,17.433l-0.197,0.207c-0.866,0.895-1.818,1.793-2.808,2.645l-0.474,0.398
	c-1.133,0.948-2.118,1.704-3.114,2.392c-1.083,0.75-2.03,1.355-2.979,1.904L277.587,506.24
	C270.94,510.08,263.487,512,256.036,512.001z M50.524,375.882c0.012,0.018,0.024,0.037,0.035,0.055
	c0.864,1.35,1.859,2.62,2.957,3.775c0.027,0.028,0.128,0.135,0.154,0.164c0.468,0.485,1.02,1.007,1.596,1.507l0.289,0.241
	c0.673,0.564,1.243,1.007,1.782,1.382c0.688,0.479,1.254,0.843,1.779,1.147L243.54,490.587c7.711,4.45,17.291,4.449,25.001-0.005
	l184.388-106.497c0.511-0.295,1.059-0.647,1.726-1.109c0.539-0.373,1.109-0.814,1.798-1.389l0.27-0.224
	c0.588-0.506,1.142-1.028,1.653-1.558l0.082-0.088c2.745-2.869,4.783-6.364,5.91-10.13l0.066-0.239
	c0.129-0.448,0.247-0.901,0.352-1.356l0.09-0.414c0.088-0.42,0.162-0.821,0.227-1.225l0.082-0.53
	c0.053-0.391,0.094-0.792,0.129-1.195l0.051-0.521c0.036-0.536,0.061-1.104,0.061-1.676L465.391,149.5
	c0-2.138-0.288-4.298-0.854-6.42c-0.292-1.095-0.668-2.189-1.116-3.254c-1.849-4.385-4.877-8.131-8.759-10.831
	c-0.686-0.477-1.253-0.842-1.778-1.145L268.462,21.415c-7.711-4.45-17.29-4.449-25.001,0.005L59.073,127.916
	c-0.509,0.294-1.059,0.647-1.729,1.112c-2.362,1.636-4.421,3.672-6.117,6.051c-1.107,1.554-2.04,3.244-2.77,5.025
	c-1.248,3.041-1.881,6.226-1.881,9.466l0.035,212.927c0,0.575,0.025,1.138,0.064,1.7l0.048,0.497
	c0.035,0.397,0.076,0.799,0.13,1.198l0.082,0.524c0.061,0.392,0.135,0.79,0.217,1.185l0.093,0.428
	c0.106,0.464,0.223,0.91,0.351,1.355l0.068,0.241C48.319,371.824,49.281,373.927,50.524,375.882z"/>
<g>
</g>
<g>
</g>
<g>
</g>
<g>
</g>
<g>
</g>
<g>
</g>
<g>
</g>
<g>
</g>
<g>
</g>
<g>
</g>
<g>
</g>
<g>
</g>
<g>
</g>
<g>
</g>
<g>
</g>
</svg>
