<?xml version="1.0" encoding="iso-8859-1"?>
<!-- Generator: Adobe Illustrator 19.0.0, SVG Export Plug-In . SVG Version: 6.00 Build 0)  -->
<svg version="1.1" id="Layer_1" xmlns="http://www.w3.org/2000/svg" xmlns:xlink="http://www.w3.org/1999/xlink" x="0px" y="0px"
	 viewBox="0 0 511.999 511.999" style="enable-background:new 0 0 511.999 511.999;" xml:space="preserve">
<path style="fill:#ED1F34;" d="M473.121,371.858c0.176-0.611,0.336-1.229,0.479-1.851c0.046-0.201,0.089-0.401,0.131-0.603
	c0.113-0.541,0.213-1.085,0.3-1.634c0.037-0.236,0.076-0.473,0.11-0.711c0.075-0.545,0.131-1.093,0.18-1.643
	c0.021-0.225,0.047-0.448,0.063-0.674c0.052-0.767,0.084-1.537,0.084-2.314l0,0l0,0v-0.006l-0.006-40.907v-0.001l-0.005-26.206
	v-0.002v-4.214l-0.004-25.576l0,0l-0.008-48.827l-0.005-26.206l-0.006-40.988c0-2.996-0.408-5.93-1.16-8.75
	c-0.405-1.517-0.915-2.997-1.521-4.435c-2.478-5.877-6.574-11.017-11.926-14.741c-0.784-0.545-1.584-1.071-2.42-1.554
	l-22.875-13.201l-21.415-12.359l-17.24-9.95l-65.931-38.05l-25.719-14.843l-19.29-11.133l-11.954-6.898
	c-10.533-6.079-23.511-6.077-34.043,0.006l-11.873,6.857l-19.29,11.141L182.058,46.44l0,0l-65.921,38.076l-28.892,16.686
	l-21.409,12.366l-11.283,6.518c-0.811,0.469-1.59,0.979-2.353,1.507c-3.272,2.267-6.074,5.068-8.333,8.237
	c-1.517,2.128-2.781,4.423-3.774,6.842c-1.655,4.032-2.558,8.399-2.557,12.9l0.006,40.915l0.005,26.206l0.012,73.743v4.011v0.849
	v0.002v0.013l0,0v0.005l0,0l0.005,26.201l0,0v1.864l0.002,12.618l0.004,26.499v0.006l0,0c0,0.773,0.033,1.54,0.084,2.304
	c0.016,0.224,0.042,0.446,0.061,0.669c0.048,0.55,0.105,1.096,0.18,1.638c0.033,0.236,0.072,0.471,0.109,0.707
	c0.087,0.546,0.186,1.087,0.298,1.626c0.042,0.201,0.086,0.403,0.131,0.603c0.14,0.615,0.298,1.223,0.471,1.825
	c0.033,0.113,0.061,0.227,0.095,0.34c0.909,3.042,2.24,5.93,3.94,8.59c0,0,0.001,0.001,0.001,0.002l0.001,0.001
	c1.172,1.833,2.517,3.552,4.026,5.137c0.051,0.052,0.099,0.106,0.148,0.158c0.709,0.735,1.454,1.439,2.232,2.112
	c0.125,0.11,0.254,0.215,0.382,0.322c0.786,0.661,1.595,1.3,2.445,1.89c0.784,0.545,1.584,1.071,2.42,1.554l22.553,13.016
	l21.415,12.36l17.562,10.136l91.65,52.894l19.29,11.133l11.954,6.898c10.533,6.079,23.511,6.077,34.043-0.006l11.873-6.857
	l19.29-11.141l25.719-14.854l55.558-32.088l10.363-5.986l26.362-15.226l21.409-12.366l13.814-7.979
	c0.811-0.469,1.59-0.979,2.353-1.507c0.851-0.59,1.659-1.226,2.446-1.883c0.128-0.107,0.258-0.213,0.385-0.323
	c0.78-0.672,1.526-1.374,2.238-2.11c0.047-0.048,0.09-0.098,0.136-0.146c3.724-3.892,6.477-8.609,8.021-13.766
	C473.062,372.074,473.089,371.966,473.121,371.858z"/>
<path style="fill:#103B9B;" d="M444.076,256h30.374l-0.006-39.309l-0.005-26.206l-0.006-40.988c0-2.996-0.408-5.93-1.16-8.75
	c-0.405-1.517-0.915-2.997-1.521-4.435c-2.478-5.877-6.574-11.017-11.926-14.741c-0.784-0.545-1.584-1.071-2.42-1.554
	l-22.875-13.201l-21.415-12.359l-17.24-9.95l-65.931-38.05l-25.719-14.843l-19.29-11.133l-11.954-6.898
	c-10.533-6.079-23.511-6.077-34.043,0.006l-11.873,6.857l-19.29,11.141l-25.719,14.855l0,0l-65.921,38.074l-28.892,16.686
	l-21.409,12.366l-11.283,6.518c-0.811,0.469-1.59,0.979-2.353,1.507c-3.272,2.267-6.074,5.068-8.333,8.237
	c-1.517,2.128-2.781,4.423-3.774,6.842c-1.655,4.032-2.558,8.399-2.557,12.9l0.006,40.915l0.005,26.206L37.551,256h370.355
	L444.076,256L444.076,256z"/>
<path style="fill:#FFE000;" d="M194.084,143.677c-13.013,0-24.254,7.59-29.537,18.586c-5.283-10.995-16.524-18.586-29.537-18.586
	c-18.089,0-32.753,14.664-32.753,32.753s12.056,32.753,12.056,32.753h100.467c0,0,12.056-14.664,12.056-32.753
	S212.173,143.677,194.084,143.677z"/>
<path d="M483.474,149.495c0-3.711-0.494-7.439-1.466-11.081c-0.506-1.898-1.155-3.787-1.925-5.615
	c-3.179-7.543-8.398-13.992-15.095-18.653c-1.115-0.775-2.087-1.397-3.062-1.96L277.502,5.75
	c-13.289-7.67-29.799-7.666-43.085,0.007L50.028,112.254c-0.946,0.546-1.892,1.151-2.979,1.904
	c-4.086,2.831-7.634,6.335-10.547,10.421c-1.912,2.684-3.519,5.596-4.775,8.657c-2.147,5.231-3.235,10.726-3.235,16.335
	l0.035,212.932c0,0.921,0.034,1.875,0.105,2.92c0.016,0.233,0.037,0.464,0.06,0.696l0.014,0.15c0.061,0.693,0.134,1.383,0.231,2.095
	c0.034,0.24,0.071,0.479,0.11,0.719l0.025,0.156c0.11,0.691,0.235,1.377,0.38,2.069c0.053,0.254,0.107,0.509,0.164,0.755
	c0.177,0.776,0.377,1.544,0.608,2.35l0.111,0.391c1.143,3.829,2.821,7.486,4.985,10.872c0.013,0.022,0.028,0.043,0.041,0.065
	c1.477,2.3,3.178,4.468,5.043,6.426c0.041,0.045,0.16,0.172,0.203,0.216c0.892,0.925,1.842,1.824,2.827,2.676l0.48,0.405
	c1.096,0.921,2.109,1.701,3.096,2.388c1.113,0.775,2.086,1.398,3.065,1.963l184.424,106.436c6.643,3.834,14.089,5.751,21.536,5.751
	c7.452,0,14.904-1.919,21.549-5.757L461.97,399.746c0.949-0.549,1.896-1.154,2.979-1.904c0.985-0.681,1.999-1.46,3.114-2.392
	l0.474-0.399c0.99-0.852,1.942-1.751,2.827-2.666l0.176-0.187c4.696-4.906,8.205-10.931,10.155-17.439l0.107-0.379
	c0.001-0.004,0.002-0.008,0.004-0.012c0.223-0.774,0.426-1.554,0.605-2.34l0.169-0.774c0.142-0.684,0.269-1.371,0.398-2.179
	c0.041-0.258,0.082-0.516,0.119-0.786c0.095-0.69,0.169-1.385,0.228-2.071l0.014-0.145c0.024-0.239,0.047-0.477,0.063-0.721
	c0.071-1.044,0.105-2,0.105-2.931L483.474,149.495z M465.364,364.106l-0.051,0.521c-0.035,0.403-0.076,0.805-0.129,1.194
	l-0.083,0.532c-0.064,0.404-0.137,0.805-0.229,1.244l-0.086,0.394c-0.104,0.457-0.222,0.909-0.352,1.358l0,0l-0.066,0.237
	c-1.128,3.764-3.165,7.259-5.91,10.128l-0.082,0.089c-0.511,0.529-1.065,1.05-1.653,1.558l-0.271,0.227
	c-0.686,0.574-1.256,1.014-1.796,1.388c-0.668,0.462-1.215,0.814-1.726,1.109L268.541,490.582
	c-7.71,4.452-17.288,4.455-25.001,0.005L59.119,384.152c-0.526-0.304-1.091-0.668-1.777-1.145c-0.543-0.377-1.112-0.82-1.783-1.383
	l-0.292-0.245c-0.573-0.496-1.124-1.018-1.593-1.503c-0.028-0.03-0.127-0.136-0.156-0.166c-1.098-1.154-2.093-2.423-2.956-3.772
	c-0.01-0.016-0.019-0.03-0.029-0.046c-1.245-1.957-2.21-4.064-2.867-6.268l-0.068-0.241c-0.127-0.444-0.245-0.891-0.35-1.35
	l-0.093-0.432c-0.083-0.395-0.156-0.793-0.218-1.185l-0.081-0.521c-0.054-0.401-0.096-0.804-0.13-1.2l-0.048-0.498
	c-0.039-0.561-0.064-1.125-0.064-1.701l-0.016-97.453H407.91c4.994,0,9.042-4.048,9.042-9.042s-4.048-9.042-9.042-9.042H46.593
	l-0.016-97.389c0-3.241,0.632-6.425,1.881-9.466c0.731-1.781,1.663-3.471,2.77-5.025c1.696-2.379,3.755-4.415,6.117-6.051
	c0.67-0.464,1.22-0.817,1.729-1.112L243.462,21.417c7.71-4.454,17.29-4.455,25.001-0.005l184.422,106.435
	c0.526,0.304,1.091,0.668,1.778,1.145c3.881,2.701,6.909,6.446,8.759,10.831c0.448,1.063,0.825,2.159,1.116,3.253
	c0.567,2.122,0.854,4.282,0.854,6.42l0.016,97.46h-21.33c-4.994,0-9.042,4.048-9.042,9.042s4.048,9.042,9.042,9.042h21.333
	l0.016,97.388C465.425,363.001,465.4,363.569,465.364,364.106z M194.084,134.635c-7.292,0-14.332,1.949-20.495,5.428v-18.087
	c0-4.994-4.048-9.042-9.042-9.042c-4.994,0-9.042,4.048-9.042,9.042v18.087c-6.163-3.478-13.204-5.428-20.495-5.428
	c-23.045,0-41.795,18.748-41.795,41.795c0,21.086,13.538,37.795,14.114,38.495c1.718,2.089,4.28,3.3,6.984,3.3h100.467
	c2.704,0,5.267-1.21,6.984-3.3c0.576-0.7,14.114-17.408,14.114-38.495C235.879,153.384,217.13,134.635,194.084,134.635z
	 M210.093,200.14h-91.088c-2.953-4.654-7.705-13.702-7.705-23.711c0-13.074,10.636-23.711,23.711-23.711
	c9.064,0,17.458,5.283,21.387,13.459c0.018,0.039,0.043,0.071,0.063,0.108c0.171,0.344,0.356,0.679,0.568,0.995
	c0.004,0.006,0.008,0.013,0.012,0.019c0.21,0.313,0.446,0.608,0.693,0.891c0.066,0.076,0.134,0.151,0.203,0.224
	c0.219,0.235,0.45,0.459,0.693,0.672c0.042,0.036,0.081,0.076,0.124,0.112c0.286,0.239,0.588,0.457,0.904,0.659
	c0.069,0.045,0.14,0.086,0.21,0.128c0.276,0.168,0.562,0.322,0.857,0.459c0.057,0.027,0.112,0.057,0.17,0.082
	c0.35,0.154,0.71,0.288,1.081,0.399c0.054,0.016,0.11,0.027,0.165,0.042c0.315,0.087,0.634,0.154,0.961,0.207
	c0.095,0.016,0.189,0.03,0.285,0.043c0.381,0.049,0.767,0.082,1.161,0.082c0.394,0,0.78-0.034,1.161-0.082
	c0.096-0.013,0.19-0.028,0.285-0.043c0.327-0.053,0.647-0.122,0.961-0.207c0.054-0.016,0.111-0.027,0.165-0.042
	c0.371-0.11,0.732-0.245,1.081-0.399c0.057-0.025,0.112-0.054,0.169-0.081c0.297-0.139,0.582-0.293,0.86-0.461
	c0.07-0.042,0.139-0.082,0.207-0.125c0.316-0.204,0.62-0.422,0.905-0.662c0.041-0.034,0.078-0.074,0.119-0.107
	c0.246-0.212,0.477-0.439,0.698-0.678c0.068-0.072,0.134-0.145,0.2-0.219c0.248-0.285,0.485-0.58,0.696-0.895
	c0.002-0.005,0.005-0.01,0.008-0.013c0.213-0.319,0.4-0.656,0.573-1.002c0.018-0.037,0.043-0.07,0.061-0.107
	c3.928-8.175,12.324-13.459,21.387-13.459c13.074,0,23.711,10.636,23.711,23.711C217.795,186.454,213.045,195.49,210.093,200.14z"/>
<g>
</g>
<g>
</g>
<g>
</g>
<g>
</g>
<g>
</g>
<g>
</g>
<g>
</g>
<g>
</g>
<g>
</g>
<g>
</g>
<g>
</g>
<g>
</g>
<g>
</g>
<g>
</g>
<g>
</g>
</svg>
