<?xml version="1.0" encoding="iso-8859-1"?>
<!-- Generator: Adobe Illustrator 19.0.0, SVG Export Plug-In . SVG Version: 6.00 Build 0)  -->
<svg version="1.1" id="Layer_1" xmlns="http://www.w3.org/2000/svg" xmlns:xlink="http://www.w3.org/1999/xlink" x="0px" y="0px"
	 viewBox="0 0 512 512" style="enable-background:new 0 0 512 512;" xml:space="preserve">
<path style="fill:#FFFFFF;" d="M473.103,371.85c0.176-0.61,0.338-1.227,0.479-1.848c0.047-0.201,0.089-0.403,0.131-0.604
	c0.113-0.54,0.213-1.085,0.3-1.632c0.037-0.237,0.076-0.474,0.11-0.711c0.076-0.546,0.131-1.095,0.18-1.644
	c0.02-0.225,0.047-0.448,0.063-0.674c0.052-0.767,0.084-1.537,0.083-2.313l0,0l0,0v-0.006l-0.006-40.904v-0.002l-0.005-26.203
	v-0.002l-0.001-4.213l-0.004-25.574l0,0l-0.008-48.824l-0.005-26.203l-0.006-40.985c-0.001-2.995-0.409-5.931-1.161-8.75
	c-0.405-1.517-0.915-2.997-1.521-4.435c-2.477-5.876-6.574-11.016-11.924-14.74c-0.784-0.545-1.584-1.071-2.421-1.553l-22.87-13.202
	l-21.414-12.358l-17.24-9.949l-65.925-38.046l-25.717-14.844l-19.288-11.132l-11.953-6.899c-10.533-6.078-23.509-6.076-34.04,0.007
	l-11.872,6.857l-19.288,11.14l-25.717,14.853l0,0l-65.915,38.072l-28.89,16.686l-21.408,12.365l-11.282,6.516
	c-0.813,0.469-1.59,0.98-2.353,1.507c-3.272,2.268-6.072,5.067-8.331,8.236c-1.517,2.127-2.781,4.422-3.774,6.841
	c-1.654,4.032-2.557,8.399-2.557,12.899l0.007,40.913l0.005,26.203l0.012,73.738l0.001,4.011v0.85v0.001v0.013l0,0v0.005l0,0
	l0.005,26.198v0.002v1.863l0.002,12.617l0.004,26.496v0.007l0,0c0.001,0.773,0.033,1.539,0.084,2.305
	c0.016,0.224,0.042,0.445,0.061,0.668c0.049,0.55,0.106,1.096,0.18,1.638c0.033,0.236,0.072,0.471,0.11,0.708
	c0.086,0.544,0.184,1.086,0.297,1.625c0.043,0.201,0.086,0.403,0.131,0.603c0.14,0.615,0.298,1.222,0.471,1.825
	c0.033,0.113,0.061,0.228,0.095,0.34c0.909,3.043,2.239,5.93,3.941,8.588v0.002l0.002,0.002c1.172,1.832,2.517,3.551,4.026,5.137
	c0.049,0.053,0.098,0.106,0.147,0.159c0.71,0.734,1.454,1.438,2.233,2.112c0.125,0.11,0.256,0.215,0.382,0.322
	c0.786,0.661,1.594,1.298,2.444,1.89c0.784,0.545,1.584,1.07,2.421,1.553l22.552,13.016l21.414,12.359l17.561,10.134l91.644,52.89
	l19.288,11.132l11.953,6.899c10.533,6.078,23.509,6.076,34.04-0.007l11.872-6.857l19.288-11.14l25.717-14.853l55.554-32.086
	l10.363-5.985l26.36-15.225l21.408-12.365l13.813-7.977c0.813-0.469,1.59-0.98,2.352-1.507c0.851-0.588,1.66-1.226,2.446-1.884
	c0.129-0.106,0.259-0.212,0.386-0.323c0.779-0.671,1.526-1.374,2.236-2.108c0.046-0.048,0.09-0.098,0.136-0.145
	c3.725-3.893,6.475-8.61,8.019-13.767C473.045,372.067,473.073,371.958,473.103,371.85z"/>
<g>
	<path style="fill:#103B9B;" d="M172.564,460.046l4.128,2.382h4.597C178.585,461.497,175.726,460.692,172.564,460.046z"/>
	<path style="fill:#103B9B;" d="M335.334,462.428l4.142-2.391c-3.183,0.647-6.055,1.456-8.774,2.391H335.334z"/>
	<path style="fill:#103B9B;" d="M401.407,284.835c-12.013-5.766-21.5-10.32-42.538-10.32c-21.036,0-30.525,4.553-42.536,10.32
		c-14.032,6.736-29.938,14.37-60.34,14.37c-30.4,0-46.304-7.635-60.339-14.37c-12.009-5.766-21.497-10.32-42.532-10.32
		c-21.034,0-30.52,4.553-42.531,10.32c-14.032,6.735-29.938,14.37-60.336,14.37c-4.539,0-8.747-0.174-12.681-0.485l0.004,22.789
		v0.002v1.863l0.002,12.617l0.002,13.29c3.747,0.428,7.901,0.674,12.672,0.674c21.034,0,30.52-4.553,42.53-10.318
		c14.032-6.736,29.939-14.37,60.337-14.37c30.4,0,46.305,7.633,60.34,14.37c12.009,5.764,21.496,10.318,42.531,10.318
		c21.038,0,30.524-4.553,42.534-10.318c14.033-6.736,29.94-14.37,60.341-14.37c30.403,0,46.308,7.633,60.342,14.37
		c12.013,5.764,21.5,10.318,42.538,10.318c4.782,0,8.945-0.245,12.699-0.676l-0.004-27.767v-0.002l-0.005-22.79
		c-3.937,0.312-8.149,0.486-12.691,0.486C431.346,299.205,415.44,291.572,401.407,284.835z"/>
	<path style="fill:#103B9B;" d="M358.868,366.415c-21.036,0-30.525,4.552-42.536,10.318c-14.032,6.736-29.938,14.371-60.34,14.371
		c-30.4,0-46.304-7.635-60.339-14.371c-12.009-5.765-21.497-10.318-42.532-10.318c-21.034,0-30.52,4.552-42.531,10.318
		c-13.569,6.512-28.893,13.866-57.374,14.344c0.462,0.303,0.913,0.617,1.392,0.893l22.552,13.016l21.414,12.359l11.531,6.654
		c10.744-3.867,24.063-6.835,43.017-6.835c30.4,0,46.305,7.635,60.34,14.37c12.009,5.765,21.496,10.319,42.531,10.319
		c21.038,0,30.524-4.553,42.534-10.319c14.033-6.735,29.94-14.37,60.341-14.37c18.948,0,32.265,2.964,43.007,6.83l20.34-11.748
		l21.408-12.365l13.813-7.977c0.446-0.258,0.864-0.55,1.294-0.829c-28.449-0.487-43.762-7.833-57.322-14.343
		C389.394,370.969,379.907,366.415,358.868,366.415z"/>
	<path style="fill:#103B9B;" d="M67.775,256.685h170.699c4.928,0.87,10.588,1.373,17.52,1.373s12.594-0.503,17.521-1.373h170.711
		c4.927,0.87,10.589,1.373,17.522,1.373c4.776,0,8.939-0.244,12.683-0.676l-0.006-40.689l-0.005-26.203l-0.006-40.985
		c-0.001-2.995-0.409-5.931-1.161-8.75c-0.405-1.517-0.915-2.997-1.52-4.435c-1.859-4.406-4.628-8.4-8.153-11.691
		c-1.175-1.097-2.435-2.117-3.772-3.048c-0.784-0.545-1.584-1.071-2.421-1.553l-22.871-13.203l-21.414-12.358l-17.24-9.949
		l-65.925-38.046l-25.717-14.844l-19.288-11.132l-11.953-6.899c-10.533-6.078-23.509-6.076-34.04,0.007l-11.872,6.857l-19.288,11.14
		l-25.717,14.853l0,0l-65.915,38.072l-28.89,16.686l-21.408,12.365l-11.282,6.516c-0.813,0.469-1.59,0.98-2.353,1.507
		c-1.635,1.133-3.154,2.4-4.546,3.779c-1.391,1.38-2.657,2.873-3.787,4.457c-1.137,1.595-2.134,3.285-2.979,5.05
		c-0.282,0.588-0.547,1.186-0.796,1.79c-1.654,4.032-2.557,8.399-2.557,12.899l0.007,40.913l0.005,26.203l0.007,40.688
		c3.746,0.433,7.911,0.677,12.687,0.677C57.187,258.057,62.848,257.555,67.775,256.685z"/>
</g>
<path style="fill:#FFFFFF;" d="M474.428,223.196l-0.001-6.503l-0.004-17.843l-0.001-8.361l-0.001-4.486l-34.952-12.98h34.95
	l-0.002-14.325l-0.001-9.196c-0.001-2.995-0.409-5.931-1.161-8.75c-0.405-1.517-0.915-2.997-1.52-4.435
	c-1.706-4.046-4.196-7.729-7.319-10.856c-1.412-1.413-2.939-2.724-4.605-3.884c-0.784-0.545-1.584-1.071-2.421-1.553l-15.401-8.888
	h-2.521l1.533-0.57l-6.486-3.743l-21.414-12.358l-11.31-6.527l-5.93-3.422l-20.206-11.661l-13.075-7.547l-51.036,18.953V35.858
	l-7.327-4.229l-18.391-10.615l-0.897-0.518l-11.953-6.899c-10.533-6.078-23.509-6.076-34.04,0.007l-11.872,6.857l-0.902,0.522
	l-18.387,10.619l-7.332,4.235v48.428l-51.034-18.952l-33.265,19.214l-5.923,3.42l-22.968,13.266l-3.307,1.911l-12.916,7.46
	l1.495,0.556H70.07l-4.222,2.438l-11.282,6.516c-0.813,0.469-1.59,0.98-2.353,1.507c-1.668,1.156-3.21,2.453-4.623,3.864
	c-1.36,1.356-2.602,2.818-3.708,4.372c-1.517,2.127-2.781,4.422-3.774,6.841c-1.654,4.032-2.557,8.399-2.557,12.899l0.002,9.122
	l0.002,14.325h34.975l-34.972,12.987v4.477l0.005,26.203l0.001,6.505l0.004,24.79l0.002,8.695h9.962l152.918-56.785v56.785h25.719
	h59.664h25.719v-56.782l152.918,56.785h9.967L474.428,223.196z"/>
<g>
	<polygon style="fill:#ED1F34;" points="110.224,87.948 87.256,101.213 83.949,103.124 105.482,111.139 172.673,111.139 	"/>
	<polygon style="fill:#ED1F34;" points="474.428,223.196 474.427,216.693 474.423,198.851 405.042,173.025 339.324,173.025 	"/>
	<polygon style="fill:#ED1F34;" points="339.324,111.139 401.794,87.941 395.864,84.519 375.659,72.859 311.549,96.668 
		311.549,111.139 	"/>
	<polygon style="fill:#ED1F34;" points="172.673,173.025 37.562,223.198 37.566,247.99 200.447,187.503 200.447,173.025 	"/>
	<path style="fill:#ED1F34;" d="M474.416,149.505c-0.001-2.995-0.409-5.931-1.161-8.75c-0.405-1.517-0.915-2.997-1.52-4.435
		c-1.706-4.046-4.196-7.729-7.319-10.856h-63.525H300.748h-14.917V106.22V93.815V21.016l-0.897-0.518l-11.953-6.899
		c-10.533-6.078-23.509-6.076-34.04,0.007l-11.872,6.857l-0.902,0.522v72.831v31.65h-14.916h-67.284h-32.862H47.59
		c-1.36,1.356-2.602,2.818-3.708,4.372c-1.517,2.127-2.781,4.422-3.774,6.841c-1.654,4.032-2.557,8.399-2.557,12.899l0.002,9.122
		h73.554H211.25h14.917v19.253v12.395v66.336h59.664v-66.336v-31.649h14.917h65.809h34.336h73.525L474.416,149.505z"/>
</g>
<path style="fill:#FFE000;" d="M98.576,417.346l17.561,10.134l91.644,52.89l19.288,11.132l11.953,6.899
	c10.533,6.078,23.509,6.076,34.04-0.007l11.872-6.857l19.288-11.14l25.717-14.853l55.554-32.086l10.363-5.985l26.36-15.225
	l21.408-12.365l8.908-5.145C400.15,348.513,331.352,320.465,256,320.465c-75.365,0-144.173,28.057-196.556,74.295l17.72,10.226
	L98.576,417.346z"/>
<path d="M483.456,149.505c0-3.708-0.493-7.438-1.464-11.075c-0.503-1.888-1.15-3.778-1.926-5.623
	c-3.181-7.544-8.401-13.991-15.092-18.647c-1.115-0.776-2.088-1.4-3.066-1.965L277.499,5.767C270.962,1.994,263.515,0,255.965,0
	c-7.555,0-15.005,1.996-21.549,5.776L50.048,112.263c-0.948,0.546-1.895,1.152-2.984,1.906c-4.086,2.829-7.633,6.335-10.546,10.419
	c-1.911,2.682-3.518,5.594-4.776,8.659c-2.146,5.23-3.234,10.724-3.234,16.332l0.036,212.917c0,0.928,0.034,1.882,0.105,2.919
	c0.017,0.241,0.039,0.48,0.064,0.721l0.013,0.127c0.06,0.692,0.133,1.383,0.229,2.093c0.036,0.26,0.077,0.516,0.134,0.867
	c0.11,0.697,0.235,1.389,0.381,2.084c0.054,0.254,0.108,0.508,0.163,0.745c0.177,0.779,0.377,1.547,0.604,2.339
	c0.039,0.146,0.08,0.291,0.115,0.406c1.138,3.809,2.805,7.45,4.953,10.82c0.012,0.019,0.024,0.037,0.035,0.055
	c1.484,2.323,3.199,4.51,5.069,6.474c0.046,0.051,0.168,0.178,0.215,0.228c0.901,0.933,1.853,1.834,2.809,2.661
	c0.143,0.125,0.289,0.246,0.498,0.42c1.093,0.919,2.105,1.699,3.097,2.391c1.111,0.773,2.084,1.395,3.062,1.96L234.5,506.232
	c6.539,3.773,13.985,5.768,21.534,5.768c7.555,0,15.005-1.998,21.547-5.777l184.37-106.486c0.94-0.542,1.887-1.146,2.991-1.91
	c0.99-0.687,2.001-1.466,3.177-2.447l0.405-0.339c0.986-0.851,1.937-1.749,2.881-2.723l0.119-0.127
	c4.695-4.904,8.205-10.929,10.122-17.332c0.053-0.171,0.102-0.342,0.143-0.497c0.224-0.775,0.427-1.556,0.608-2.34
	c0.058-0.253,0.112-0.508,0.168-0.773c0.143-0.684,0.27-1.374,0.398-2.177c0.041-0.259,0.082-0.518,0.122-0.802
	c0.093-0.687,0.168-1.378,0.227-2.061l0.014-0.143c0.025-0.24,0.047-0.48,0.063-0.721c0.072-1.057,0.106-2.018,0.105-2.931
	L483.456,149.505z M48.47,140.114c0.732-1.783,1.666-3.476,2.773-5.028c1.696-2.378,3.754-4.415,6.118-6.053
	c0.67-0.464,1.218-0.816,1.728-1.109l184.373-106.49c3.795-2.193,8.119-3.351,12.504-3.351c4.381,0,8.703,1.157,12.495,3.347
	l184.408,106.427c0.524,0.301,1.087,0.665,1.778,1.145c3.881,2.699,6.908,6.446,8.757,10.826c0.451,1.073,0.827,2.166,1.117,3.259
	c0.567,2.123,0.854,4.282,0.854,6.418l0.016,98.139H46.607l-0.017-98.068C46.59,146.337,47.223,143.151,48.47,140.114z
	 M268.54,490.566c-3.796,2.192-8.12,3.351-12.504,3.351c-4.381,0-8.701-1.159-12.495-3.348L74.939,393.265
	c50.391-40.837,113.69-63.758,181.058-63.758c67.358,0,130.649,22.913,181.038,63.739L268.54,490.566z M465.348,364.1l-0.051,0.52
	c-0.035,0.408-0.076,0.813-0.128,1.191l-0.064,0.407l-0.021,0.127c-0.064,0.404-0.137,0.804-0.218,1.191l-0.096,0.447
	c-0.105,0.457-0.224,0.909-0.362,1.386l-0.06,0.217c-1.13,3.762-3.164,7.255-5.905,10.118l-0.083,0.09
	c-0.515,0.532-1.068,1.054-1.635,1.543l-0.293,0.242c-0.671,0.561-1.259,1.015-1.784,1.382c-0.424,0.293-0.79,0.53-1.134,0.747
	c-14.202-12.018-29.481-22.777-45.68-32.044c-46.015-26.326-98.519-40.241-151.835-40.241s-105.821,13.915-151.835,40.241
	c-16.207,9.273-31.494,20.038-45.704,32.066c-0.34-0.216-0.697-0.45-1.101-0.729c-0.542-0.379-1.115-0.822-1.818-1.413l-0.266-0.224
	c-0.564-0.486-1.115-1.008-1.57-1.479c-0.033-0.035-0.14-0.151-0.175-0.186c-1.098-1.154-2.093-2.423-2.956-3.771
	c-0.008-0.014-0.018-0.028-0.025-0.042c-1.247-1.955-2.212-4.064-2.862-6.24l-0.076-0.276c-0.127-0.441-0.244-0.887-0.35-1.354
	l-0.094-0.438c-0.081-0.388-0.153-0.781-0.219-1.196l-0.078-0.5c-0.054-0.4-0.094-0.804-0.131-1.225l-0.051-0.47
	c-0.037-0.561-0.063-1.125-0.063-1.699l-0.017-96.761h418.783l0.016,96.709C465.41,363.003,465.384,363.566,465.348,364.1z"/>
<g>
</g>
<g>
</g>
<g>
</g>
<g>
</g>
<g>
</g>
<g>
</g>
<g>
</g>
<g>
</g>
<g>
</g>
<g>
</g>
<g>
</g>
<g>
</g>
<g>
</g>
<g>
</g>
<g>
</g>
</svg>
