<?xml version="1.0" encoding="iso-8859-1"?>
<!-- Generator: Adobe Illustrator 19.0.0, SVG Export Plug-In . SVG Version: 6.00 Build 0)  -->
<svg version="1.1" id="Layer_1" xmlns="http://www.w3.org/2000/svg" xmlns:xlink="http://www.w3.org/1999/xlink" x="0px" y="0px"
	 viewBox="0 0 512 512" style="enable-background:new 0 0 512 512;" xml:space="preserve">
<path style="fill:#ED1F34;" d="M473.103,371.85c0.176-0.61,0.338-1.227,0.479-1.848c0.047-0.201,0.089-0.403,0.131-0.604
	c0.113-0.54,0.213-1.085,0.3-1.632c0.037-0.237,0.076-0.474,0.11-0.711c0.076-0.546,0.131-1.095,0.18-1.644
	c0.021-0.225,0.047-0.448,0.063-0.674c0.052-0.767,0.084-1.537,0.084-2.313l0,0l0,0v-0.006l-0.005-40.904v-0.002l-0.005-26.203
	v-0.002l-0.001-4.213l-0.004-25.574l0,0l-0.008-48.824l-0.005-26.203l-0.007-40.985c0-2.995-0.406-5.931-1.16-8.75
	c-0.405-1.517-0.915-2.997-1.52-4.435c-2.479-5.876-6.575-11.016-11.925-14.74c-0.784-0.545-1.584-1.071-2.421-1.553l-22.874-13.202
	l-21.414-12.358l-17.24-9.949l-65.924-38.046L304.22,31.629l-19.288-11.132l-11.953-6.899c-10.533-6.078-23.509-6.076-34.04,0.007
	l-11.872,6.857l-19.288,11.14l-25.717,14.853l0,0l-65.915,38.072l-28.89,16.686l-21.408,12.365l-11.282,6.516
	c-0.811,0.469-1.59,0.98-2.353,1.507c-3.272,2.268-6.073,5.067-8.331,8.236c-1.517,2.127-2.781,4.422-3.773,6.841
	c-1.655,4.032-2.558,8.399-2.557,12.899l0.006,40.913l0.005,26.203l0.012,73.738v4.011v0.85v0.001v0.013l0,0v0.005l0,0l0.005,26.198
	v0.002v1.863l0.002,12.617l0.004,26.496v0.007l0,0c0,0.773,0.033,1.539,0.084,2.305c0.016,0.224,0.042,0.445,0.061,0.668
	c0.048,0.55,0.105,1.096,0.18,1.638c0.033,0.236,0.072,0.471,0.108,0.708c0.087,0.544,0.186,1.086,0.298,1.625
	c0.042,0.201,0.086,0.403,0.131,0.603c0.14,0.615,0.298,1.222,0.471,1.825c0.033,0.113,0.061,0.228,0.095,0.34
	c0.909,3.043,2.24,5.93,3.94,8.588c0,0.001,0,0.002,0.001,0.002l0.001,0.002c1.172,1.832,2.517,3.551,4.025,5.137
	c0.051,0.053,0.099,0.106,0.148,0.159c0.709,0.734,1.454,1.438,2.231,2.112c0.125,0.11,0.254,0.215,0.382,0.322
	c0.786,0.661,1.595,1.298,2.445,1.89c0.784,0.545,1.584,1.07,2.419,1.553l22.552,13.016l21.414,12.359l17.561,10.134l91.644,52.89
	l19.288,11.132l11.953,6.899c10.533,6.078,23.509,6.076,34.04-0.007l11.872-6.857l19.288-11.14l25.717-14.853l55.554-32.086
	l10.363-5.985l26.36-15.225l21.408-12.365l13.813-7.977c0.813-0.469,1.59-0.98,2.353-1.507c0.85-0.588,1.659-1.226,2.445-1.884
	c0.129-0.106,0.259-0.212,0.386-0.323c0.779-0.671,1.526-1.374,2.236-2.108c0.046-0.048,0.09-0.098,0.136-0.145
	c3.725-3.893,6.475-8.61,8.019-13.767C473.045,372.067,473.073,371.958,473.103,371.85z"/>
<path style="fill:#103B9B;" d="M443.152,355.867c0.152-0.527,0.291-1.057,0.413-1.594c0.04-0.174,0.076-0.346,0.113-0.521
	c0.098-0.467,0.183-0.934,0.259-1.408c0.033-0.205,0.066-0.407,0.094-0.614c0.065-0.47,0.115-0.943,0.156-1.416
	c0.018-0.194,0.04-0.386,0.054-0.581c0.045-0.661,0.074-1.326,0.074-1.994l0,0l0,0v-0.005l-0.007-35.261l0,0l-0.004-22.589v-0.002
	v-3.632l-0.004-22.047l0,0l-0.007-42.087l-0.004-22.589l-0.006-35.33c-0.001-2.583-0.351-5.111-0.999-7.542
	c-0.35-1.309-0.788-2.585-1.312-3.824c-2.135-5.064-5.667-9.496-10.279-12.705c-0.676-0.471-1.366-0.923-2.086-1.339l-19.716-11.379
	l-18.46-10.654l-14.86-8.575L319.739,75.38l-22.169-12.794l-16.628-9.597l-10.304-5.947c-9.08-5.24-20.266-5.238-29.344,0.006
	l-10.234,5.909l-16.627,9.604l-22.17,12.804l0,0l-56.825,32.819l-24.904,14.384l-18.454,10.659l-9.727,5.617
	c-0.699,0.404-1.371,0.844-2.028,1.298c-2.821,1.954-5.236,4.368-7.182,7.099c-1.307,1.834-2.398,3.813-3.252,5.899
	c-1.427,3.476-2.205,7.24-2.205,11.121l0.006,35.266l0.004,22.589l0.011,63.566v3.457v0.731v0.002v0.012l0,0v0.004l0,0l0.004,22.585
	l0,0v1.606l0.001,10.876l0.004,22.841v0.006l0,0c0,0.667,0.028,1.328,0.072,1.986c0.013,0.193,0.036,0.383,0.053,0.577
	c0.042,0.473,0.09,0.944,0.154,1.412c0.028,0.205,0.061,0.407,0.094,0.61c0.075,0.47,0.159,0.937,0.257,1.401
	c0.036,0.175,0.074,0.347,0.113,0.521c0.121,0.529,0.257,1.052,0.406,1.573c0.028,0.098,0.053,0.195,0.082,0.293
	c0.784,2.622,1.93,5.11,3.396,7.404c0,0,0.001,0.001,0.001,0.002l0.001,0.001c1.01,1.579,2.17,3.062,3.471,4.428
	c0.043,0.045,0.084,0.092,0.128,0.136c0.611,0.633,1.254,1.24,1.924,1.822c0.108,0.094,0.219,0.184,0.329,0.276
	c0.677,0.57,1.374,1.121,2.108,1.63c0.675,0.471,1.366,0.923,2.086,1.339l19.44,11.22l18.459,10.654l15.139,8.735l79,45.593
	l16.627,9.597l10.304,5.947c9.08,5.24,20.266,5.238,29.344-0.006l10.234-5.909l16.628-9.604l22.17-12.804l47.891-27.659l8.933-5.16
	l22.723-13.123l18.455-10.66l11.907-6.876c0.699-0.404,1.372-0.844,2.029-1.298c0.733-0.509,1.431-1.057,2.108-1.624
	c0.111-0.093,0.223-0.183,0.331-0.277c0.673-0.577,1.316-1.185,1.929-1.819c0.04-0.04,0.078-0.082,0.118-0.125
	c3.21-3.355,5.583-7.421,6.914-11.867C443.101,356.054,443.124,355.959,443.152,355.867z"/>
<path style="fill:#3DB4EA;" d="M255.999,157.147c-36.104,18.295-60.966,55.682-60.966,98.853s24.861,80.558,60.966,98.853
	c36.104-18.295,60.966-55.682,60.966-98.853S292.105,175.442,255.999,157.147z"/>
<path style="fill:#164FCE;" d="M195.034,255.999c0,43.171,24.861,80.558,60.966,98.853c36.104-18.295,60.966-55.682,60.966-98.853
	L195.034,255.999L195.034,255.999z"/>
<path style="fill:#FFE000;" d="M204.844,301.508c10.463,23.063,28.618,41.924,51.156,53.344
	c22.537-11.42,40.694-30.281,51.156-53.344H204.844L204.844,301.508z"/>
<path style="fill:#ED1F34;" d="M255.999,363.893c-1.401,0-2.802-0.325-4.087-0.976c-40.661-20.604-65.921-61.571-65.921-106.918
	s25.259-86.315,65.921-106.918c2.569-1.302,5.603-1.302,8.172,0c40.661,20.604,65.921,61.571,65.921,106.918
	s-25.259,86.315-65.921,106.918C258.802,363.569,257.401,363.893,255.999,363.893z M255.999,167.397
	c-32.146,18.112-51.924,51.649-51.924,88.602s19.778,70.49,51.924,88.602c32.146-18.112,51.924-51.649,51.924-88.602
	S288.146,185.51,255.999,167.397z"/>
<path d="M256.036,512L256.036,512c-7.55,0-14.997-1.995-21.534-5.768L50.091,399.803c-0.967-0.559-1.969-1.198-3.064-1.963
	c-0.991-0.69-2.004-1.471-3.096-2.388l-0.498-0.419c-0.963-0.833-1.914-1.734-2.81-2.663c-0.041-0.042-0.154-0.164-0.195-0.206
	c-1.872-1.966-3.571-4.131-5.046-6.429c-0.014-0.023-0.029-0.045-0.043-0.068c-2.165-3.386-3.843-7.045-4.986-10.873l-0.112-0.393
	c-0.23-0.804-0.429-1.573-0.608-2.351c-0.054-0.239-0.108-0.492-0.163-0.746c-0.146-0.697-0.271-1.383-0.38-2.075l-0.025-0.16
	c-0.039-0.237-0.076-0.476-0.108-0.716c-0.098-0.71-0.17-1.402-0.231-2.095l-0.014-0.143c-0.024-0.233-0.046-0.468-0.061-0.702
	c-0.071-1.043-0.105-1.998-0.105-2.919l-0.035-212.917c0-5.608,1.087-11.104,3.234-16.334c1.256-3.061,2.863-5.975,4.775-8.658
	c2.914-4.086,6.462-7.59,10.547-10.421c1.081-0.75,2.029-1.354,2.978-1.902L234.417,5.776C240.959,1.996,248.411,0,255.964,0
	c7.55,0,14.995,1.994,21.534,5.767l184.411,106.428c0.978,0.565,1.951,1.189,3.066,1.965c6.691,4.655,11.911,11.103,15.092,18.647
	c0.776,1.844,1.424,3.735,1.926,5.623c0.97,3.637,1.464,7.366,1.464,11.075l0.035,212.911c0.001,0.913-0.033,1.873-0.105,2.931
	c-0.016,0.24-0.037,0.48-0.063,0.721l-0.014,0.143c-0.06,0.684-0.134,1.374-0.227,2.061c-0.039,0.283-0.08,0.542-0.122,0.802
	c-0.128,0.803-0.254,1.492-0.398,2.177c-0.055,0.265-0.11,0.52-0.168,0.773c-0.18,0.784-0.383,1.566-0.608,2.34
	c-0.041,0.154-0.09,0.327-0.143,0.497c-1.917,6.402-5.426,12.428-10.122,17.332l-0.119,0.127c-0.943,0.974-1.894,1.872-2.881,2.723
	l-0.405,0.339c-1.175,0.981-2.186,1.76-3.177,2.447c-1.104,0.763-2.051,1.367-2.991,1.91L277.583,506.223
	C271.041,510.002,263.589,512,256.036,512z M50.528,375.856c0.016,0.025,0.031,0.048,0.047,0.074
	c0.862,1.348,1.857,2.617,2.956,3.772c0.028,0.029,0.129,0.137,0.157,0.169c0.47,0.486,1.021,1.008,1.589,1.497l0.293,0.246
	c0.662,0.556,1.25,1.011,1.787,1.385c0.68,0.475,1.245,0.838,1.775,1.143l184.408,106.427c3.794,2.189,8.116,3.348,12.496,3.348
	c4.383,0,8.707-1.16,12.504-3.351l184.373-106.49c0.509-0.293,1.057-0.646,1.734-1.114c0.527-0.366,1.114-0.821,1.784-1.382
	l0.293-0.242c0.568-0.489,1.121-1.011,1.635-1.543l0.083-0.09c2.74-2.863,4.776-6.354,5.905-10.118l0.06-0.217
	c0.137-0.477,0.257-0.929,0.362-1.386l0.096-0.447c0.08-0.387,0.154-0.787,0.218-1.191c0-0.002,0.02-0.124,0.02-0.127l0.064-0.407
	c0.052-0.379,0.093-0.784,0.128-1.191l0.051-0.52c0.036-0.534,0.063-1.097,0.061-1.664l-0.035-212.931
	c0-2.136-0.287-4.295-0.854-6.418c-0.291-1.092-0.667-2.186-1.118-3.259c-1.848-4.381-4.876-8.126-8.757-10.826
	c-0.69-0.48-1.254-0.844-1.778-1.145L268.457,21.43c-3.79-2.19-8.112-3.348-12.493-3.348c-4.383,0-8.707,1.159-12.504,3.351
	L59.086,127.924c-0.509,0.294-1.057,0.646-1.725,1.109c-2.364,1.637-4.423,3.674-6.119,6.053c-1.107,1.553-2.04,3.244-2.769,5.025
	c-1.249,3.04-1.882,6.225-1.881,9.467l0.035,212.912c0,0.575,0.025,1.138,0.064,1.699l0.048,0.493c0.035,0.4,0.076,0.803,0.13,1.203
	l0.082,0.523c0.061,0.389,0.134,0.787,0.217,1.183l0.093,0.428c0.106,0.465,0.223,0.911,0.351,1.354l0.069,0.246
	C48.332,371.809,49.291,373.908,50.528,375.856z"/>
<g>
</g>
<g>
</g>
<g>
</g>
<g>
</g>
<g>
</g>
<g>
</g>
<g>
</g>
<g>
</g>
<g>
</g>
<g>
</g>
<g>
</g>
<g>
</g>
<g>
</g>
<g>
</g>
<g>
</g>
</svg>
