<?xml version="1.0" encoding="iso-8859-1"?>
<!-- Generator: Adobe Illustrator 19.0.0, SVG Export Plug-In . SVG Version: 6.00 Build 0)  -->
<svg version="1.1" id="Layer_1" xmlns="http://www.w3.org/2000/svg" xmlns:xlink="http://www.w3.org/1999/xlink" x="0px" y="0px"
	 viewBox="0 0 512 512" style="enable-background:new 0 0 512 512;" xml:space="preserve">
<path style="fill:#ED1F34;" d="M473.103,371.851c0.176-0.611,0.336-1.228,0.479-1.85c0.046-0.201,0.089-0.401,0.131-0.603
	c0.113-0.541,0.213-1.085,0.3-1.634c0.037-0.237,0.076-0.474,0.11-0.711c0.075-0.545,0.131-1.093,0.18-1.643
	c0.021-0.225,0.047-0.448,0.063-0.674c0.052-0.767,0.084-1.537,0.084-2.313l0,0l0,0v-0.006l-0.006-40.904v-0.001l-0.005-26.204
	v-0.002v-4.213l-0.004-25.574l0,0l-0.008-48.824l-0.005-26.204l-0.006-40.985c0-2.996-0.407-5.93-1.16-8.75
	c-0.405-1.517-0.915-2.997-1.521-4.435c-2.477-5.877-6.574-11.016-11.925-14.74c-0.784-0.545-1.584-1.071-2.419-1.554l-22.874-13.2
	l-21.414-12.358l-17.239-9.949l-65.926-38.046L304.22,31.629l-19.288-11.132l-11.953-6.898c-10.533-6.078-23.509-6.077-34.04,0.006
	l-11.872,6.857l-19.288,11.14l-25.717,14.854l0,0l-65.918,38.07l-28.889,16.686l-21.406,12.365l-11.284,6.517
	c-0.811,0.469-1.59,0.979-2.353,1.507c-3.272,2.266-6.073,5.068-8.333,8.236c-1.517,2.128-2.781,4.423-3.773,6.841
	c-1.655,4.031-2.558,8.399-2.557,12.899l0.006,40.912l0.005,26.204l0.012,73.738v4.011v0.849v0.002v0.013l0,0v0.005l0,0l0.005,26.2
	v0.001v1.863l0.002,12.617l0.004,26.497v0.006l0,0c0,0.773,0.033,1.539,0.084,2.304c0.016,0.224,0.042,0.446,0.061,0.669
	c0.048,0.55,0.105,1.096,0.18,1.638c0.033,0.236,0.072,0.471,0.108,0.706c0.087,0.546,0.186,1.087,0.298,1.626
	c0.042,0.201,0.086,0.403,0.131,0.603c0.14,0.615,0.298,1.222,0.471,1.825c0.033,0.113,0.061,0.227,0.095,0.34
	c0.909,3.043,2.24,5.93,3.94,8.589c0,0,0.001,0.001,0.001,0.002l0.001,0.001c1.172,1.832,2.517,3.551,4.025,5.137
	c0.051,0.052,0.099,0.106,0.148,0.158c0.709,0.735,1.454,1.439,2.231,2.113c0.125,0.108,0.254,0.213,0.382,0.321
	c0.786,0.661,1.595,1.3,2.445,1.89c0.784,0.545,1.584,1.07,2.419,1.554l22.552,13.015l21.414,12.359l17.561,10.135l91.644,52.89
	l19.288,11.132l11.953,6.898c10.533,6.078,23.509,6.077,34.04-0.006l11.872-6.857l19.288-11.14l25.717-14.853l55.554-32.086
	l10.363-5.985l26.36-15.224l21.408-12.365l13.813-7.978c0.811-0.469,1.59-0.979,2.353-1.507c0.851-0.59,1.659-1.226,2.446-1.883
	c0.128-0.107,0.258-0.213,0.385-0.323c0.78-0.671,1.526-1.374,2.237-2.11c0.047-0.048,0.09-0.098,0.136-0.146
	c3.724-3.891,6.476-8.609,8.02-13.765C473.044,372.067,473.071,371.958,473.103,371.851z"/>
<path style="fill:#FFE000;" d="M296.263,304.795c-10.949,9.05-24.982,14.495-40.263,14.495s-29.315-5.445-40.263-14.495
	c1.456-28.145,17.281-52.543,40.263-66.003C278.98,252.251,294.805,276.649,296.263,304.795z M296.986,227.67
	c-7.303,0-14.378,0.982-21.116,2.794c17.611,13.672,30.532,33.11,35.88,55.461c4.805-8.916,7.538-19.107,7.538-29.926
	c0-9.526-2.129-18.56-5.914-26.672C308.079,228.241,302.599,227.67,296.986,227.67z M255.998,218.463
	c12.507-5.683,26.378-8.875,40.988-8.875c0.682,0,1.356,0.037,2.035,0.052c-11.301-10.495-26.421-16.929-43.023-16.929
	s-31.722,6.434-43.023,16.929c0.679-0.014,1.353-0.052,2.035-0.052C229.621,209.587,243.491,212.78,255.998,218.463z
	 M236.128,230.465c-6.738-1.812-13.813-2.794-21.116-2.794c-5.612,0-11.093,0.571-16.388,1.658
	c-3.785,8.112-5.914,17.145-5.914,26.672c0,10.82,2.733,21.01,7.538,29.926C205.594,263.575,218.516,244.137,236.128,230.465z
	 M372.148,276.48c-0.774,4.387-4.589,7.473-8.893,7.473c-0.522,0-1.05-0.046-1.58-0.139l-9.719-1.713
	c-1.467,5.387-3.377,10.592-5.688,15.575l8.562,4.943c4.324,2.497,5.806,8.026,3.309,12.351c-1.674,2.9-4.714,4.522-7.838,4.522
	c-1.533,0-3.089-0.391-4.512-1.213l-8.589-4.958c-3.201,4.521-6.753,8.776-10.645,12.698l6.37,7.591
	c3.209,3.825,2.711,9.528-1.115,12.738c-1.694,1.421-3.756,2.114-5.807,2.114c-2.581,0-5.143-1.098-6.932-3.23l-6.371-7.592
	c-4.522,3.151-9.313,5.941-14.337,8.317l3.378,9.281c1.708,4.693-0.711,9.88-5.403,11.589c-1.021,0.371-2.065,0.547-3.092,0.547
	c-3.693,0-7.16-2.28-8.496-5.952l-3.372-9.263c-5.286,1.397-10.746,2.358-16.336,2.864v9.873c0,4.993-4.048,9.041-9.041,9.041
	s-9.041-4.048-9.041-9.041v-9.873c-5.59-0.506-11.05-1.467-16.336-2.864l-3.372,9.263c-1.337,3.671-4.804,5.952-8.497,5.952
	c-1.027,0-2.071-0.176-3.092-0.547c-4.692-1.708-7.111-6.897-5.403-11.589l3.378-9.281c-5.025-2.376-9.815-5.166-14.337-8.317
	l-6.371,7.592c-1.788,2.131-4.351,3.23-6.932,3.23c-2.051,0-4.113-0.694-5.807-2.114c-3.825-3.21-4.324-8.914-1.115-12.738
	l6.37-7.591c-3.893-3.922-7.444-8.176-10.645-12.698l-8.589,4.958c-1.424,0.822-2.979,1.213-4.512,1.213
	c-3.125,0-6.164-1.621-7.838-4.522c-2.497-4.324-1.015-9.854,3.309-12.351l8.562-4.943c-2.311-4.985-4.221-10.188-5.688-15.575
	l-9.719,1.713c-0.53,0.094-1.06,0.139-1.58,0.139c-4.305,0-8.12-3.087-8.893-7.473c-0.867-4.917,2.417-9.607,7.334-10.474
	l9.731-1.715c-0.227-2.737-0.373-5.496-0.373-8.289c0-2.793,0.146-5.553,0.373-8.289l-9.731-1.715
	c-4.917-0.867-8.201-5.556-7.334-10.474c0.867-4.919,5.559-8.202,10.474-7.334l9.719,1.713c1.467-5.387,3.377-10.592,5.688-15.575
	l-8.562-4.943c-4.324-2.497-5.806-8.026-3.309-12.351c2.497-4.324,8.026-5.807,12.351-3.309l8.589,4.958
	c3.201-4.521,6.753-8.776,10.645-12.698l-6.37-7.591c-3.209-3.825-2.711-9.528,1.115-12.738c3.824-3.209,9.527-2.711,12.738,1.115
	l6.371,7.592c4.522-3.151,9.313-5.941,14.337-8.317l-3.378-9.281c-1.708-4.693,0.711-9.88,5.403-11.589
	c4.693-1.708,9.88,0.711,11.589,5.403l3.372,9.263c5.286-1.397,10.746-2.358,16.336-2.864v-9.873c0-4.993,4.048-9.041,9.041-9.041
	c4.993,0,9.041,4.048,9.041,9.041v9.873c5.59,0.506,11.05,1.467,16.336,2.864l3.372-9.263c1.708-4.693,6.894-7.111,11.589-5.403
	c4.692,1.708,7.111,6.897,5.403,11.589l-3.378,9.281c5.025,2.376,9.815,5.166,14.337,8.317l6.371-7.592
	c3.209-3.826,8.912-4.323,12.738-1.115c3.825,3.21,4.324,8.914,1.115,12.738l-6.37,7.591c3.893,3.922,7.444,8.176,10.645,12.698
	l8.589-4.958c4.325-2.497,9.854-1.015,12.351,3.309c2.497,4.324,1.015,9.854-3.309,12.351l-8.562,4.943
	c2.311,4.985,4.221,10.188,5.688,15.575l9.719-1.713c4.921-0.864,9.608,2.417,10.474,7.334c0.867,4.917-2.417,9.607-7.334,10.474
	l-9.731,1.715c0.227,2.737,0.372,5.496,0.372,8.289c0,2.793-0.146,5.553-0.372,8.289l9.731,1.715
	C369.731,266.872,373.014,271.563,372.148,276.48z M337.371,255.999c0-35.065-22.294-65.02-53.452-76.436
	c-0.03-0.011-0.06-0.018-0.09-0.029c-0.008-0.002-0.018-0.007-0.027-0.011c-8.68-3.166-18.043-4.897-27.804-4.897
	c-9.761,0-19.124,1.731-27.804,4.897c-0.008,0.004-0.018,0.008-0.027,0.011c-0.03,0.011-0.06,0.018-0.092,0.029
	c-31.157,11.417-53.45,41.371-53.45,76.436c0,35.072,22.303,65.032,53.472,76.443c0.023,0.008,0.047,0.013,0.07,0.022
	c0.008,0.002,0.018,0.007,0.027,0.011c8.68,3.166,18.043,4.897,27.804,4.897c9.761,0,19.124-1.731,27.804-4.897
	c0.008-0.004,0.018-0.008,0.027-0.011c0.024-0.008,0.047-0.013,0.071-0.022C315.067,321.031,337.371,291.072,337.371,255.999z"/>
<path d="M256.034,512L256.034,512c-7.55,0-14.995-1.995-21.534-5.768L50.089,399.803c-0.978-0.564-1.951-1.187-3.064-1.963
	c-0.985-0.686-1.999-1.467-3.096-2.389l-0.481-0.405c-0.99-0.857-1.938-1.756-2.827-2.677c-0.04-0.042-0.154-0.163-0.194-0.205
	c-1.876-1.97-3.578-4.139-5.054-6.44c-0.012-0.019-0.025-0.039-0.037-0.058c-2.164-3.385-3.842-7.043-4.985-10.871l-0.112-0.392
	c-0.23-0.805-0.429-1.573-0.606-2.348c-0.057-0.247-0.111-0.501-0.164-0.757c-0.145-0.691-0.27-1.377-0.379-2.066l-0.025-0.158
	c-0.039-0.239-0.076-0.476-0.108-0.716c-0.098-0.71-0.171-1.402-0.231-2.096l-0.014-0.143c-0.024-0.234-0.046-0.467-0.061-0.703
	c-0.071-1.043-0.105-1.996-0.105-2.917l-0.035-212.917c0-5.608,1.087-11.103,3.234-16.334c1.256-3.062,2.863-5.975,4.775-8.657
	c2.913-4.084,6.46-7.589,10.546-10.419c1.089-0.753,2.034-1.357,2.979-1.904L234.417,5.776C240.958,1.998,248.409,0,255.963,0
	c7.549,0,14.995,1.995,21.534,5.768l184.41,106.428c0.974,0.563,1.947,1.185,3.062,1.96c6.698,4.661,11.917,11.109,15.096,18.652
	c0.77,1.828,1.419,3.717,1.925,5.614c0.972,3.642,1.465,7.369,1.466,11.08l0.035,212.912c0,0.931-0.034,1.887-0.105,2.931
	c-0.017,0.241-0.039,0.48-0.063,0.72l-0.014,0.145c-0.06,0.687-0.134,1.382-0.228,2.072c-0.037,0.269-0.077,0.523-0.118,0.776
	l-0.021,0.123c-0.11,0.696-0.236,1.384-0.38,2.067l-0.168,0.769c-0.181,0.79-0.383,1.57-0.606,2.344l-0.113,0.398
	c-1.947,6.501-5.457,12.527-10.152,17.432l-0.194,0.205c-0.868,0.897-1.82,1.795-2.81,2.647l-0.381,0.321
	c-0.005,0.004-0.101,0.084-0.106,0.088c-1.098,0.919-2.112,1.697-3.099,2.381c-1.084,0.751-2.03,1.355-2.979,1.902L277.581,506.223
	C271.039,510.002,263.588,512,256.034,512z M50.541,375.879c0.011,0.017,0.022,0.034,0.033,0.051
	c0.862,1.349,1.857,2.618,2.956,3.773c0.027,0.028,0.128,0.136,0.154,0.164c0.468,0.485,1.02,1.008,1.596,1.507l0.288,0.24
	c0.674,0.565,1.244,1.008,1.783,1.383c0.687,0.479,1.253,0.843,1.778,1.146l184.408,106.428c3.794,2.189,8.114,3.346,12.495,3.346
	c4.383,0,8.707-1.158,12.504-3.351l184.375-106.49c0.51-0.295,1.058-0.647,1.728-1.109c0.541-0.375,1.11-0.815,1.794-1.386
	l0.272-0.227c0.588-0.508,1.142-1.028,1.654-1.558l0.083-0.09c2.744-2.867,4.78-6.362,5.908-10.126l0.071-0.254
	c0.125-0.432,0.242-0.885,0.347-1.343l0.089-0.411c0.088-0.422,0.163-0.823,0.227-1.227l0.083-0.533
	c0.053-0.386,0.094-0.788,0.129-1.192l0.051-0.52c0.036-0.538,0.061-1.105,0.061-1.677l-0.035-212.917
	c0-2.137-0.288-4.298-0.854-6.419c-0.292-1.095-0.668-2.189-1.116-3.254c-1.849-4.386-4.876-8.13-8.758-10.83
	c-0.687-0.477-1.253-0.841-1.778-1.145L268.46,21.429c-3.795-2.189-8.116-3.347-12.496-3.347c-4.383,0-8.707,1.159-12.504,3.351
	L59.085,127.924c-0.509,0.294-1.058,0.647-1.73,1.111c-2.36,1.635-4.419,3.672-6.116,6.05c-1.107,1.554-2.04,3.244-2.77,5.025
	c-1.248,3.04-1.881,6.227-1.881,9.466l0.035,212.912c0,0.575,0.025,1.138,0.064,1.7l0.048,0.495c0.035,0.399,0.076,0.802,0.13,1.201
	l0.082,0.523c0.061,0.392,0.134,0.79,0.217,1.185l0.093,0.432c0.105,0.459,0.223,0.907,0.35,1.353l0.066,0.239
	C48.333,371.819,49.297,373.923,50.541,375.879z"/>
<g>
</g>
<g>
</g>
<g>
</g>
<g>
</g>
<g>
</g>
<g>
</g>
<g>
</g>
<g>
</g>
<g>
</g>
<g>
</g>
<g>
</g>
<g>
</g>
<g>
</g>
<g>
</g>
<g>
</g>
</svg>
