<?xml version="1.0" encoding="iso-8859-1"?>
<!-- Generator: Adobe Illustrator 19.0.0, SVG Export Plug-In . SVG Version: 6.00 Build 0)  -->
<svg version="1.1" id="Layer_1" xmlns="http://www.w3.org/2000/svg" xmlns:xlink="http://www.w3.org/1999/xlink" x="0px" y="0px"
	 viewBox="0 0 512 512" style="enable-background:new 0 0 512 512;" xml:space="preserve">
<path style="fill:#FFFFFF;" d="M473.101,371.851c0.176-0.611,0.338-1.228,0.479-1.85c0.047-0.2,0.089-0.401,0.131-0.603
	c0.113-0.54,0.213-1.085,0.3-1.634c0.037-0.236,0.076-0.473,0.11-0.711c0.076-0.545,0.131-1.092,0.18-1.643
	c0.02-0.225,0.047-0.447,0.063-0.674c0.052-0.767,0.084-1.537,0.084-2.313l0,0l0,0v-0.006l-0.005-40.904v-0.002l-0.005-26.203
	v-0.002l-0.001-4.213l-0.004-25.574l0,0l-0.008-48.824l-0.005-26.204l-0.007-40.984c0-2.995-0.406-5.931-1.16-8.75
	c-0.405-1.518-0.915-2.997-1.52-4.435c-2.479-5.877-6.575-11.017-11.925-14.74c-0.784-0.545-1.584-1.071-2.421-1.553l-22.874-13.202
	L413.1,94.468l-17.24-9.949l-65.924-38.046l-25.717-14.844L284.93,20.497l-11.953-6.899c-10.533-6.078-23.509-6.076-34.04,0.007
	l-11.872,6.857l-19.288,11.14l-25.717,14.854v-0.001l-65.915,38.072l-28.89,16.686l-21.408,12.365l-11.282,6.517
	c-0.811,0.468-1.59,0.979-2.353,1.506c-3.272,2.266-6.073,5.068-8.331,8.235c-1.517,2.129-2.781,4.424-3.773,6.843
	c-1.655,4.031-2.558,8.399-2.557,12.899l0.006,40.912l0.005,26.204l0.012,73.738v4.011v0.849v0.002v0.013l0,0v0.005l0,0l0.005,26.2
	l0,0v1.864l0.002,12.617l0.004,26.497v0.006l0,0c0,0.773,0.033,1.539,0.084,2.304c0.016,0.224,0.042,0.446,0.061,0.669
	c0.048,0.548,0.105,1.096,0.18,1.638c0.033,0.236,0.072,0.471,0.108,0.706c0.087,0.545,0.186,1.087,0.298,1.626
	c0.042,0.201,0.086,0.403,0.131,0.603c0.14,0.615,0.298,1.222,0.471,1.825c0.033,0.113,0.061,0.227,0.095,0.34
	c0.909,3.042,2.24,5.93,3.94,8.589v0.001l0.002,0.002c1.172,1.832,2.517,3.551,4.025,5.137c0.051,0.052,0.099,0.106,0.148,0.158
	c0.709,0.735,1.454,1.439,2.231,2.113c0.125,0.11,0.254,0.215,0.382,0.322c0.786,0.661,1.595,1.298,2.445,1.89
	c0.784,0.545,1.584,1.07,2.419,1.553l22.552,13.015l21.414,12.36l17.561,10.134l91.644,52.89l19.288,11.132l11.953,6.899
	c10.533,6.078,23.509,6.076,34.04-0.007l11.872-6.857l19.288-11.14l25.717-14.853l55.554-32.086l10.363-5.985l26.36-15.225
	l21.408-12.365l13.813-7.978c0.813-0.468,1.59-0.979,2.353-1.506c0.85-0.588,1.659-1.226,2.445-1.884
	c0.129-0.107,0.259-0.212,0.386-0.322c0.779-0.673,1.526-1.375,2.236-2.11c0.046-0.048,0.09-0.098,0.136-0.146
	c3.725-3.891,6.475-8.609,8.019-13.765C473.043,372.067,473.071,371.958,473.101,371.851z"/>
<g>
	<path style="fill:#ED1F34;" d="M77.16,404.987l21.414,12.359l17.561,10.134l91.644,52.89l19.288,11.132l11.953,6.899
		c10.533,6.078,23.509,6.076,34.04-0.007l11.872-6.857l19.288-11.14l25.717-14.853l55.554-32.086l10.363-5.985l26.36-15.225
		l21.408-12.365l12.566-7.258H55.74L77.16,404.987z"/>
	<path style="fill:#ED1F34;" d="M434.515,106.826l-21.414-12.358l-17.24-9.949l-65.925-38.046l-25.717-14.844L284.93,20.497
		l-11.953-6.899c-10.533-6.078-23.509-6.076-34.04,0.007l-11.872,6.857l-19.288,11.14l-25.717,14.853l0,0l-65.915,38.072
		l-28.89,16.686l-21.408,12.365l-10.036,5.797h400.446L434.515,106.826z"/>
</g>
<polygon style="fill:#103B9B;" points="76.375,187.686 37.554,187.686 37.554,190.49 37.559,216.693 37.571,290.431 37.572,294.442 
	37.572,295.291 37.572,295.293 37.572,295.307 37.572,295.307 37.572,295.311 37.572,295.311 37.577,321.51 37.577,321.511 
	37.577,323.375 37.577,324.313 474.443,324.313 474.443,321.512 474.443,321.51 474.438,295.307 474.438,295.304 474.437,291.091 
	474.433,265.517 474.424,216.693 474.42,190.49 474.42,187.686 117.363,187.686 "/>
<path d="M483.454,149.505c0-3.709-0.493-7.438-1.465-11.076c-0.503-1.889-1.15-3.779-1.926-5.623
	c-3.18-7.541-8.399-13.989-15.091-18.646c-1.093-0.762-2.095-1.403-3.066-1.964L277.497,5.767C270.959,1.994,263.513,0,255.964,0
	c-7.555,0-15.006,1.998-21.547,5.776L50.04,112.265c-0.935,0.54-1.879,1.143-2.98,1.904c-4.088,2.833-7.636,6.339-10.543,10.419
	c-1.913,2.682-3.52,5.596-4.776,8.658c-2.147,5.232-3.234,10.727-3.234,16.334l0.035,212.917c0,0.921,0.034,1.876,0.105,2.919
	c0.016,0.234,0.037,0.469,0.061,0.702l0.014,0.143c0.061,0.693,0.134,1.385,0.231,2.095c0.034,0.24,0.071,0.477,0.108,0.716
	l0.025,0.16c0.11,0.69,0.235,1.378,0.38,2.075c0.053,0.254,0.107,0.508,0.163,0.746c0.177,0.779,0.377,1.547,0.608,2.351
	l0.112,0.392c1.144,3.829,2.821,7.487,4.988,10.875c1.484,2.322,3.198,4.509,5.089,6.494c0.04,0.042,0.153,0.164,0.195,0.206
	c0.896,0.929,1.847,1.83,2.81,2.663l0.498,0.42c1.093,0.919,2.105,1.699,3.096,2.388c1.096,0.763,2.096,1.403,3.064,1.963
	l184.411,106.429c6.538,3.772,13.983,5.766,21.532,5.767c0.001,0,0.001,0,0.002,0c7.554,0,15.005-1.998,21.547-5.777l184.37-106.486
	c0.933-0.538,1.879-1.142,2.984-1.905c0.984-0.682,1.999-1.462,3.184-2.452l0.405-0.339c0.986-0.851,1.937-1.749,2.881-2.723
	l0.119-0.127c4.695-4.904,8.205-10.929,10.122-17.332c0.053-0.171,0.102-0.342,0.143-0.497c0.224-0.775,0.427-1.556,0.608-2.34
	c0.058-0.253,0.112-0.508,0.168-0.773c0.143-0.684,0.27-1.374,0.399-2.184c0.041-0.258,0.081-0.516,0.121-0.794
	c0.093-0.687,0.168-1.378,0.227-2.061l0.014-0.143c0.025-0.24,0.047-0.48,0.063-0.721c0.072-1.057,0.106-2.018,0.105-2.931
	L483.454,149.505z M465.406,362.436c0.001,0.567-0.025,1.13-0.061,1.664l-0.051,0.52c-0.035,0.408-0.076,0.813-0.129,1.197
	l-0.082,0.528c-0.064,0.404-0.137,0.804-0.218,1.191l-0.096,0.447c-0.105,0.457-0.224,0.909-0.362,1.385l-0.06,0.218
	c-1.13,3.762-3.164,7.255-5.905,10.118l-0.083,0.09c-0.515,0.532-1.068,1.054-1.635,1.543l-0.293,0.242
	c-0.685,0.574-1.254,1.013-1.784,1.382c-0.339,0.234-0.645,0.439-0.929,0.622H58.225c-0.272-0.176-0.557-0.366-0.87-0.585
	c-0.538-0.375-1.126-0.829-1.787-1.385l-0.293-0.246c-0.568-0.489-1.119-1.011-1.589-1.498c-0.027-0.029-0.129-0.137-0.157-0.168
	c-1.099-1.155-2.094-2.424-2.956-3.772c-0.016-0.025-0.031-0.049-0.047-0.074c-1.237-1.948-2.195-4.047-2.849-6.239l-0.069-0.246
	c-0.127-0.442-0.244-0.888-0.351-1.354l-0.093-0.428c-0.082-0.395-0.154-0.793-0.217-1.183l-0.082-0.523
	c-0.054-0.4-0.096-0.803-0.13-1.203l-0.048-0.493c-0.039-0.561-0.064-1.125-0.064-1.7l-0.005-29.133h418.782L465.406,362.436z
	 M76.375,178.645H46.594l-0.005-29.069c0-3.24,0.632-6.424,1.881-9.467c0.729-1.781,1.661-3.471,2.77-5.025
	c1.694-2.377,3.753-4.413,6.111-6.048c0.339-0.234,0.645-0.439,0.928-0.622H453.77c0.272,0.176,0.556,0.368,0.872,0.586
	c3.882,2.7,6.91,6.447,8.758,10.826c0.451,1.072,0.827,2.165,1.117,3.259c0.567,2.123,0.854,4.282,0.854,6.418l0.005,29.14H117.363
	c-4.993,0-9.041,4.047-9.041,9.041s4.048,9.041,9.041,9.041h348.017l0.019,118.544H46.617l-0.02-118.544h29.779
	c4.993,0,9.041-4.047,9.041-9.041S81.37,178.645,76.375,178.645z M243.46,21.434c3.796-2.192,8.119-3.351,12.504-3.351
	c4.381,0,8.701,1.157,12.495,3.347l154.044,88.903H89.541L243.46,21.434z M268.537,490.566c-3.796,2.192-8.12,3.351-12.504,3.351
	h-0.001c-4.381,0-8.701-1.157-12.495-3.347L89.495,401.666h332.961L268.537,490.566z"/>
<g>
</g>
<g>
</g>
<g>
</g>
<g>
</g>
<g>
</g>
<g>
</g>
<g>
</g>
<g>
</g>
<g>
</g>
<g>
</g>
<g>
</g>
<g>
</g>
<g>
</g>
<g>
</g>
<g>
</g>
</svg>
