<?xml version="1.0" encoding="iso-8859-1"?>
<!-- Generator: Adobe Illustrator 19.0.0, SVG Export Plug-In . SVG Version: 6.00 Build 0)  -->
<svg version="1.1" id="Layer_1" xmlns="http://www.w3.org/2000/svg" xmlns:xlink="http://www.w3.org/1999/xlink" x="0px" y="0px"
	 viewBox="0 0 512 512" style="enable-background:new 0 0 512 512;" xml:space="preserve">
<path style="fill:#FFFFFF;" d="M473.101,371.85c0.176-0.61,0.338-1.227,0.479-1.848c0.047-0.201,0.089-0.403,0.131-0.604
	c0.113-0.54,0.213-1.085,0.3-1.632c0.037-0.237,0.076-0.474,0.11-0.711c0.076-0.546,0.131-1.095,0.18-1.644
	c0.02-0.225,0.047-0.448,0.063-0.674c0.052-0.767,0.084-1.537,0.083-2.313l0,0l0,0v-0.006l-0.006-40.904v-0.002l-0.005-26.203
	v-0.002l-0.001-4.213l-0.004-25.574l0,0l-0.008-48.824l-0.005-26.203l-0.006-40.985c-0.001-2.995-0.409-5.931-1.161-8.75
	c-0.405-1.517-0.915-2.997-1.521-4.435c-2.477-5.876-6.574-11.016-11.924-14.74c-0.784-0.545-1.584-1.071-2.421-1.553l-22.87-13.202
	L413.101,94.47l-17.24-9.949l-65.925-38.046l-25.717-14.846l-19.288-11.132l-11.953-6.899c-10.533-6.078-23.509-6.076-34.04,0.007
	l-11.872,6.857l-19.288,11.14l-25.717,14.853l0,0l-65.915,38.072l-28.89,16.686l-21.408,12.365l-11.282,6.516
	c-0.813,0.469-1.59,0.98-2.353,1.507c-3.272,2.268-6.072,5.067-8.331,8.236c-1.517,2.127-2.781,4.422-3.774,6.841
	c-1.654,4.032-2.557,8.399-2.557,12.899l0.007,40.913l0.005,26.203l0.012,73.738l0.001,4.011v0.85v0.001v0.013l0,0v0.005l0,0
	l0.005,26.198v0.002v1.863l0.002,12.617l0.004,26.496v0.007l0,0c0.001,0.773,0.033,1.539,0.084,2.305
	c0.016,0.224,0.042,0.445,0.061,0.668c0.049,0.55,0.106,1.096,0.18,1.638c0.033,0.236,0.072,0.471,0.11,0.708
	c0.086,0.544,0.184,1.086,0.297,1.625c0.043,0.201,0.086,0.403,0.131,0.603c0.14,0.615,0.298,1.222,0.471,1.825
	c0.033,0.113,0.061,0.228,0.095,0.34c0.909,3.043,2.239,5.93,3.941,8.588c0,0.001,0,0.002,0,0.002l0.002,0.002
	c1.172,1.832,2.517,3.551,4.026,5.137c0.049,0.053,0.098,0.106,0.147,0.159c0.71,0.734,1.454,1.438,2.233,2.112
	c0.125,0.11,0.256,0.215,0.382,0.322c0.786,0.661,1.594,1.298,2.444,1.89c0.784,0.545,1.584,1.07,2.421,1.553l22.552,13.016
	l21.414,12.359l17.561,10.134l91.644,52.89l19.288,11.132l11.953,6.899c10.533,6.078,23.509,6.076,34.04-0.007l11.872-6.857
	l19.288-11.14l25.717-14.853l55.554-32.086l10.363-5.985l26.36-15.225l21.408-12.365l13.813-7.977
	c0.813-0.469,1.59-0.98,2.352-1.507c0.851-0.588,1.66-1.226,2.446-1.884c0.129-0.106,0.259-0.212,0.386-0.323
	c0.779-0.671,1.526-1.374,2.236-2.108c0.046-0.048,0.09-0.098,0.136-0.145c3.725-3.893,6.475-8.61,8.019-13.767
	C473.043,372.067,473.071,371.958,473.101,371.85z"/>
<g>
	<path style="fill:#103B9B;" d="M413.102,94.468l-17.24-9.949l-65.926-38.046l-25.717-14.844l-19.288-11.132l-11.953-6.899
		c-10.533-6.078-23.509-6.076-34.04,0.007l-11.872,6.857l-19.288,11.14l-25.717,14.853l0,0l-65.915,38.072l-28.89,16.686
		l-21.408,12.365l-11.282,6.516c-0.813,0.469-1.59,0.98-2.353,1.507c-3.273,2.268-6.072,5.067-8.331,8.236
		c-1.517,2.127-2.781,4.422-3.774,6.841c-1.654,4.032-2.557,8.399-2.557,12.899l0.007,40.913l0.005,26.203l0.005,29.669
		L427.07,102.527L413.102,94.468z"/>
	<path style="fill:#103B9B;" d="M37.571,290.431l0.001,4.011v0.849v0.002v0.013l0,0v0.005l0,0l0.005,26.198v0.002v1.863
		l0.002,12.617l0.004,26.496v0.007l0,0c0.001,0.773,0.033,1.539,0.084,2.305c0.016,0.224,0.042,0.445,0.061,0.668
		c0.049,0.55,0.106,1.096,0.18,1.639c0.033,0.235,0.072,0.47,0.11,0.706c0.086,0.544,0.184,1.085,0.297,1.625
		c0.042,0.201,0.086,0.403,0.131,0.603c0.14,0.615,0.298,1.222,0.471,1.825c0.033,0.113,0.061,0.228,0.095,0.34
		c0.909,3.043,2.239,5.93,3.94,8.588c0.001,0.001,0.001,0.002,0.001,0.004l0.002,0.001c1.172,1.832,2.517,3.551,4.026,5.137
		c0.049,0.053,0.098,0.106,0.147,0.159c0.71,0.734,1.454,1.438,2.233,2.112c0.125,0.11,0.256,0.215,0.382,0.322
		c0.786,0.661,1.594,1.298,2.444,1.89c0.784,0.545,1.584,1.071,2.421,1.553l22.552,13.016l21.414,12.359l17.561,10.134l91.644,52.89
		l19.288,11.132l11.953,6.899c10.533,6.078,23.509,6.076,34.04-0.007l11.872-6.857l19.288-11.14l25.717-14.853l55.554-32.086
		l10.363-5.985l26.36-15.225l4.823-2.787L37.567,265.638L37.571,290.431z"/>
</g>
<polygon style="fill:#ED1F34;" points="447.393,397.703 63.666,255.999 447.431,114.281 434.515,106.826 427.066,102.527 
	37.564,246.362 37.567,265.638 427.036,409.461 443.62,399.883 "/>
<path style="fill:#F2A643;" d="M334.866,203.359c-13.032,0-23.596,11.702-23.596,26.141c0,14.436,10.565,26.14,23.596,26.14
	c0,14.437,10.565,26.5,23.596,26.5h31.345v-26.141l45.529-52.64L334.866,203.359L334.866,203.359z"/>
<path style="fill:#FFE000;" d="M407.941,316.542h-81.422c-4.143,0-7.5-3.357-7.5-7.5s3.357-7.5,7.5-7.5h81.422
	c4.143,0,7.5,3.357,7.5,7.5S412.083,316.542,407.941,316.542z"/>
<path d="M435.336,246.958h-25.755l32.594-37.686c2.315-2.676,2.855-6.456,1.383-9.674c-1.471-3.218-4.685-5.28-8.222-5.28h-100.47
	c-17.997,0-32.637,15.781-32.637,35.182c0,6.354,1.586,12.308,4.331,17.458h-7.437c-4.994,0-9.041,4.047-9.041,9.041
	s4.047,9.041,9.041,9.041h27.861c3.794,15.05,16.469,26.141,31.477,26.141h31.345c4.994,0,9.041-4.047,9.041-9.041v-17.099h36.487
	c4.994,0,9.041-4.047,9.041-9.041S440.33,246.958,435.336,246.958z M380.765,273.098h-22.303c-7.889,0-14.554-7.995-14.554-17.458
	c0-4.994-4.047-9.041-9.041-9.041c-8.025,0-14.554-7.67-14.554-17.099c0-9.43,6.529-17.099,14.554-17.099h80.695l-29.89,34.557
	h-6.747c-4.994,0-9.041,4.047-9.041,9.041s4.047,9.041,9.041,9.041h1.84L380.765,273.098L380.765,273.098z M256.034,512L256.034,512
	c-7.55,0-14.995-1.995-21.534-5.768L50.089,399.803c-0.979-0.565-1.951-1.187-3.062-1.96c-0.992-0.692-2.004-1.473-3.097-2.391
	c-0.209-0.174-0.354-0.294-0.498-0.419c-0.956-0.827-1.908-1.728-2.809-2.661c-0.047-0.049-0.169-0.177-0.215-0.228
	c-1.87-1.964-3.585-4.151-5.069-6.474c-0.012-0.018-0.024-0.036-0.035-0.055c-2.148-3.369-3.815-7.009-4.953-10.82
	c-0.034-0.116-0.076-0.26-0.115-0.406c-0.227-0.792-0.427-1.561-0.604-2.339c-0.054-0.237-0.108-0.491-0.163-0.745
	c-0.146-0.694-0.272-1.386-0.381-2.084c-0.057-0.351-0.098-0.606-0.134-0.867c-0.096-0.71-0.17-1.401-0.229-2.093l-0.013-0.127
	c-0.025-0.24-0.047-0.479-0.064-0.721c-0.071-1.037-0.105-1.99-0.105-2.919L28.508,149.58c0-5.608,1.087-11.103,3.234-16.332
	c1.259-3.066,2.866-5.977,4.776-8.659c2.913-4.084,6.46-7.59,10.546-10.419c1.087-0.753,2.035-1.36,2.984-1.906L234.414,5.776
	C240.958,1.996,248.409,0,255.963,0c7.55,0,14.995,1.994,21.534,5.767l184.411,106.428c0.978,0.565,1.951,1.189,3.066,1.965
	c6.691,4.655,11.911,11.103,15.092,18.647c0.776,1.844,1.424,3.735,1.926,5.623c0.97,3.637,1.464,7.366,1.464,11.075l0.035,212.911
	c0.001,0.913-0.033,1.873-0.105,2.931c-0.016,0.24-0.037,0.48-0.063,0.721l-0.014,0.143c-0.06,0.684-0.134,1.374-0.227,2.061
	c-0.039,0.283-0.08,0.542-0.122,0.802c-0.128,0.803-0.254,1.492-0.398,2.177c-0.055,0.265-0.11,0.52-0.168,0.773
	c-0.18,0.784-0.383,1.566-0.608,2.34c-0.041,0.154-0.09,0.327-0.143,0.497c-1.917,6.402-5.426,12.428-10.122,17.332l-0.119,0.127
	c-0.943,0.974-1.894,1.872-2.881,2.723l-0.405,0.339c-1.175,0.981-2.186,1.76-3.177,2.447c-1.104,0.763-2.051,1.367-2.991,1.91
	L277.579,506.223C271.039,510.002,263.588,512,256.034,512z M50.547,375.887c0.008,0.014,0.018,0.028,0.025,0.042
	c0.863,1.348,1.858,2.617,2.956,3.771c0.034,0.035,0.141,0.151,0.175,0.186c0.454,0.471,1.005,0.992,1.57,1.479l0.266,0.224
	c0.703,0.591,1.275,1.033,1.818,1.413c0.679,0.471,1.244,0.835,1.773,1.14l184.41,106.427c3.794,2.189,8.114,3.348,12.495,3.348
	c4.383,0,8.707-1.16,12.504-3.351l184.372-106.49c0.509-0.293,1.057-0.646,1.734-1.114c0.527-0.366,1.114-0.821,1.784-1.382
	l0.293-0.242c0.568-0.489,1.121-1.011,1.635-1.543l0.083-0.09c2.74-2.863,4.776-6.354,5.905-10.118l0.06-0.217
	c0.137-0.477,0.257-0.929,0.362-1.386l0.096-0.447c0.08-0.387,0.154-0.787,0.218-1.191c0-0.002,0.02-0.124,0.02-0.127l0.064-0.408
	c0.052-0.379,0.093-0.784,0.128-1.191l0.051-0.52c0.036-0.534,0.063-1.097,0.061-1.664l-0.035-212.931
	c0-2.136-0.287-4.295-0.854-6.418c-0.291-1.092-0.667-2.186-1.118-3.259c-1.848-4.381-4.876-8.126-8.757-10.826
	c-0.69-0.48-1.254-0.844-1.778-1.145L268.456,21.432c-3.79-2.192-8.112-3.349-12.493-3.349c-4.384,0-8.709,1.159-12.504,3.351
	L59.086,127.924c-0.51,0.293-1.057,0.645-1.728,1.109c-2.364,1.637-4.422,3.674-6.118,6.053c-1.107,1.553-2.04,3.244-2.773,5.028
	c-1.247,3.038-1.879,6.223-1.879,9.465l0.036,212.911c0,0.575,0.025,1.138,0.063,1.699l0.047,0.473
	c0.037,0.421,0.077,0.825,0.131,1.225l0.078,0.5c0.066,0.415,0.137,0.808,0.219,1.196l0.094,0.438
	c0.106,0.467,0.223,0.913,0.35,1.354l0.076,0.276C48.335,371.823,49.299,373.932,50.547,375.887z"/>
<g>
</g>
<g>
</g>
<g>
</g>
<g>
</g>
<g>
</g>
<g>
</g>
<g>
</g>
<g>
</g>
<g>
</g>
<g>
</g>
<g>
</g>
<g>
</g>
<g>
</g>
<g>
</g>
<g>
</g>
</svg>
