<?xml version="1.0" encoding="iso-8859-1"?>
<!-- Generator: Adobe Illustrator 19.0.0, SVG Export Plug-In . SVG Version: 6.00 Build 0)  -->
<svg version="1.1" id="Layer_1" xmlns="http://www.w3.org/2000/svg" xmlns:xlink="http://www.w3.org/1999/xlink" x="0px" y="0px"
	 viewBox="0 0 511.999 511.999" style="enable-background:new 0 0 511.999 511.999;" xml:space="preserve">
<path style="fill:#ED1F34;" d="M473.12,371.858c0.176-0.611,0.336-1.229,0.479-1.851c0.046-0.201,0.089-0.401,0.131-0.603
	c0.113-0.541,0.213-1.085,0.3-1.634c0.037-0.236,0.076-0.473,0.11-0.711c0.075-0.545,0.131-1.092,0.18-1.643
	c0.021-0.225,0.047-0.447,0.063-0.674c0.052-0.767,0.084-1.537,0.084-2.314l0,0l0,0v-0.006l-0.006-40.908v-0.001l-0.005-26.206
	v-0.002v-4.214l-0.004-25.576l0,0l-0.008-48.827l-0.005-26.206l-0.006-40.988c0-2.996-0.408-5.93-1.16-8.75
	c-0.405-1.517-0.915-2.997-1.521-4.435c-2.478-5.877-6.574-11.017-11.926-14.741c-0.784-0.545-1.584-1.071-2.42-1.554
	l-22.875-13.201l-21.415-12.359l-17.24-9.95l-65.931-38.05L304.226,31.61l-19.29-11.133l-11.954-6.898
	c-10.533-6.079-23.511-6.077-34.043,0.006l-11.873,6.857l-19.29,11.141l-25.719,14.855l0,0l-65.921,38.076L87.244,101.2
	l-21.409,12.366l-11.283,6.518c-0.811,0.469-1.59,0.979-2.353,1.507c-3.272,2.267-6.074,5.068-8.333,8.237
	c-1.517,2.128-2.781,4.423-3.774,6.842c-1.655,4.032-2.558,8.399-2.557,12.9l0.006,40.915l0.005,26.206l0.012,73.743v4.011v0.849
	v0.002v0.013l0,0v0.005l0,0l0.005,26.201v0.001v1.863l0.002,12.618l0.004,26.499v0.006l0,0c0,0.773,0.033,1.54,0.084,2.304
	c0.016,0.224,0.042,0.446,0.061,0.669c0.048,0.55,0.105,1.096,0.18,1.638c0.033,0.236,0.072,0.471,0.109,0.706
	c0.087,0.546,0.186,1.087,0.298,1.626c0.042,0.201,0.086,0.403,0.131,0.603c0.14,0.615,0.298,1.223,0.471,1.825
	c0.033,0.113,0.061,0.227,0.095,0.34c0.909,3.043,2.24,5.93,3.94,8.59c0,0,0.001,0.001,0.001,0.002l0.001,0.001
	c1.172,1.832,2.517,3.553,4.027,5.137c0.051,0.052,0.099,0.106,0.148,0.158c0.709,0.735,1.454,1.441,2.232,2.112
	c0.125,0.11,0.254,0.215,0.382,0.322c0.786,0.661,1.595,1.3,2.445,1.89c0.784,0.545,1.584,1.071,2.42,1.554l22.553,13.016
	l21.415,12.36l17.562,10.136l91.65,52.894l19.29,11.133l11.954,6.898c10.533,6.079,23.511,6.077,34.043-0.006l11.873-6.857
	l19.29-11.141l25.719-14.854l55.558-32.088l10.363-5.986l26.362-15.226l21.409-12.366l13.814-7.979
	c0.811-0.469,1.59-0.979,2.353-1.507c0.851-0.59,1.659-1.226,2.446-1.883c0.128-0.107,0.258-0.212,0.385-0.322
	c0.78-0.673,1.526-1.376,2.238-2.11c0.047-0.048,0.09-0.098,0.136-0.146c3.724-3.892,6.477-8.609,8.021-13.767
	C473.061,372.074,473.089,371.965,473.12,371.858z"/>
<path style="fill:#259245;" d="M182.057,46.44L182.057,46.44l-49.722,28.718l-16.2,9.357L87.244,101.2l-21.409,12.366l-11.283,6.518
	c-0.811,0.469-1.59,0.979-2.353,1.507c-3.272,2.267-6.074,5.068-8.333,8.237c-1.517,2.128-2.781,4.423-3.774,6.842
	c-1.655,4.032-2.558,8.399-2.557,12.9l0.006,40.915l0.005,26.206l0.012,73.743v4.011v0.849v0.002v0.013l0,0v0.005l0,0l0.005,26.201
	v0.001v1.863l0.002,12.618l0.004,26.499v0.006l0,0c0,0.773,0.033,1.54,0.084,2.304c0.016,0.224,0.042,0.446,0.061,0.669
	c0.048,0.55,0.105,1.096,0.18,1.638c0.033,0.236,0.072,0.471,0.109,0.706c0.087,0.546,0.186,1.087,0.298,1.626
	c0.042,0.201,0.086,0.403,0.131,0.603c0.14,0.615,0.298,1.223,0.471,1.825c0.033,0.113,0.061,0.227,0.095,0.34
	c0.909,3.043,2.24,5.93,3.94,8.59c0,0,0.001,0.001,0.001,0.002l0.001,0.001c1.172,1.832,2.517,3.553,4.027,5.137
	c0.051,0.052,0.099,0.106,0.148,0.158c0.709,0.735,1.454,1.441,2.232,2.112c0.125,0.11,0.254,0.215,0.382,0.322
	c0.786,0.661,1.595,1.3,2.445,1.89c0.784,0.545,1.584,1.071,2.42,1.554l22.553,13.016l21.415,12.36l17.562,10.136l16.197,9.348
	l58.473,33.746v-33.746V328.337V183.664V75.159V41.391L182.057,46.44z"/>
<g>
	<path style="fill:#FFE000;" d="M118.462,255.999c0,39.95,32.386,72.336,72.336,72.336V183.663
		C150.848,183.663,118.462,216.049,118.462,255.999z"/>
	<path style="fill:#FFE000;" d="M190.798,183.663v144.673c39.95,0,72.336-32.386,72.336-72.336S230.749,183.663,190.798,183.663z"/>
</g>
<path d="M483.474,149.494c0-3.711-0.494-7.439-1.466-11.081c-0.506-1.898-1.155-3.787-1.925-5.615
	c-3.179-7.543-8.398-13.992-15.095-18.653c-1.115-0.775-2.087-1.397-3.062-1.96L277.502,5.75
	c-13.289-7.669-29.799-7.666-43.085,0.007L50.028,112.253c-0.946,0.546-1.892,1.151-2.979,1.904
	c-4.086,2.831-7.634,6.335-10.547,10.421c-1.912,2.684-3.519,5.596-4.775,8.657c-2.147,5.231-3.235,10.726-3.235,16.335
	l0.035,212.932c0,0.921,0.034,1.875,0.105,2.92c0.016,0.233,0.037,0.464,0.06,0.696l0.014,0.149
	c0.061,0.693,0.134,1.384,0.231,2.095c0.034,0.24,0.071,0.479,0.11,0.719l0.025,0.156c0.11,0.691,0.235,1.377,0.38,2.069
	c0.053,0.254,0.107,0.509,0.164,0.755c0.177,0.776,0.377,1.544,0.608,2.35l0.111,0.391c1.143,3.829,2.821,7.486,4.985,10.872
	c0.013,0.022,0.028,0.043,0.041,0.065c1.477,2.3,3.178,4.468,5.043,6.426c0.041,0.045,0.16,0.172,0.203,0.216
	c0.892,0.925,1.842,1.824,2.827,2.676l0.48,0.405c1.096,0.921,2.109,1.701,3.096,2.388c1.113,0.775,2.086,1.398,3.065,1.963
	l184.424,106.436c6.643,3.834,14.089,5.751,21.536,5.751c7.452,0,14.904-1.919,21.549-5.757L461.97,399.746
	c0.949-0.549,1.896-1.154,2.979-1.904c0.985-0.681,1.999-1.46,3.114-2.392l0.474-0.399c0.99-0.852,1.942-1.751,2.827-2.664
	l0.176-0.188c4.696-4.906,8.205-10.931,10.155-17.439l0.107-0.379c0.001-0.004,0.002-0.008,0.004-0.012
	c0.223-0.774,0.426-1.554,0.605-2.34l0.169-0.774c0.142-0.684,0.269-1.371,0.398-2.179c0.041-0.258,0.082-0.516,0.119-0.786
	c0.095-0.691,0.169-1.385,0.228-2.071l0.014-0.145c0.024-0.239,0.047-0.477,0.063-0.721c0.071-1.044,0.105-2,0.105-2.931
	L483.474,149.494z M199.84,193.361c30.631,4.402,54.252,30.808,54.252,62.639s-23.621,58.237-54.252,62.639
	c-2.955,0.424-5.971,0.656-9.042,0.656s-6.087-0.231-9.042-0.656c-30.632-4.402-54.252-30.809-54.252-62.639
	s23.62-58.236,54.252-62.639c2.955-0.424,5.971-0.656,9.042-0.656S196.886,192.936,199.84,193.361z M465.364,364.106l-0.051,0.521
	c-0.035,0.403-0.076,0.805-0.129,1.194l-0.083,0.532c-0.064,0.404-0.137,0.805-0.229,1.244l-0.086,0.394
	c-0.104,0.457-0.222,0.909-0.352,1.358l0,0l-0.066,0.237c-1.128,3.764-3.165,7.259-5.91,10.128l-0.082,0.089
	c-0.511,0.529-1.065,1.05-1.653,1.558l-0.271,0.227c-0.686,0.574-1.256,1.014-1.796,1.388c-0.668,0.462-1.215,0.814-1.726,1.109
	L268.541,490.581c-7.71,4.452-17.288,4.455-25.001,0.005l-43.7-25.22v-64.694c0-4.994-4.048-9.042-9.042-9.042
	s-9.042,4.048-9.042,9.042v54.256L59.118,384.152c-0.526-0.304-1.091-0.668-1.777-1.145c-0.543-0.377-1.112-0.82-1.783-1.383
	l-0.292-0.245c-0.573-0.496-1.124-1.018-1.593-1.503c-0.028-0.03-0.127-0.136-0.156-0.166c-1.098-1.154-2.093-2.423-2.956-3.772
	c-0.01-0.016-0.019-0.03-0.029-0.046c-1.245-1.957-2.21-4.064-2.867-6.268l-0.068-0.241c-0.127-0.444-0.245-0.891-0.35-1.35
	l-0.093-0.432c-0.083-0.395-0.156-0.793-0.218-1.185l-0.081-0.521c-0.054-0.4-0.096-0.804-0.13-1.2l-0.048-0.498
	c-0.039-0.561-0.064-1.125-0.064-1.701L46.58,149.569c0-3.241,0.632-6.425,1.881-9.466c0.731-1.781,1.663-3.471,2.77-5.025
	c1.696-2.379,3.755-4.415,6.117-6.051c0.67-0.464,1.22-0.817,1.729-1.112L181.76,57.058v118.078
	c-40.631,4.514-72.336,39.05-72.336,80.864s31.705,76.35,72.336,80.864v27.641c0,4.994,4.048,9.042,9.042,9.042
	c4.994,0,9.042-4.048,9.042-9.042v-27.641c40.631-4.514,72.336-39.05,72.336-80.864s-31.705-76.35-72.336-80.864V46.61
	l43.621-25.194c7.71-4.454,17.29-4.455,25.001-0.005l184.422,106.435c0.526,0.304,1.091,0.668,1.778,1.145
	c3.881,2.701,6.909,6.446,8.759,10.831c0.448,1.063,0.825,2.159,1.116,3.253c0.567,2.122,0.854,4.282,0.854,6.42l0.035,212.932
	C465.425,363,465.4,363.568,465.364,364.106z"/>
<g>
</g>
<g>
</g>
<g>
</g>
<g>
</g>
<g>
</g>
<g>
</g>
<g>
</g>
<g>
</g>
<g>
</g>
<g>
</g>
<g>
</g>
<g>
</g>
<g>
</g>
<g>
</g>
<g>
</g>
</svg>
