<?xml version="1.0" encoding="iso-8859-1"?>
<!-- Generator: Adobe Illustrator 19.0.0, SVG Export Plug-In . SVG Version: 6.00 Build 0)  -->
<svg version="1.1" id="Layer_1" xmlns="http://www.w3.org/2000/svg" xmlns:xlink="http://www.w3.org/1999/xlink" x="0px" y="0px"
	 viewBox="0 0 512 512" style="enable-background:new 0 0 512 512;" xml:space="preserve">
<path style="fill:#FFFFFF;" d="M473.103,371.851c0.176-0.611,0.336-1.227,0.479-1.849c0.046-0.201,0.089-0.401,0.131-0.603
	c0.113-0.541,0.213-1.085,0.3-1.634c0.037-0.237,0.076-0.474,0.11-0.711c0.075-0.545,0.131-1.093,0.18-1.644
	c0.02-0.225,0.047-0.448,0.063-0.674c0.052-0.767,0.084-1.537,0.084-2.313l0,0l0,0v-0.006l-0.006-40.904v-0.001l-0.005-26.204
	v-0.002v-4.213l-0.004-25.574l0,0l-0.008-48.824l-0.005-26.204l-0.006-40.985c0-2.996-0.408-5.93-1.16-8.75
	c-0.405-1.517-0.915-2.997-1.521-4.435c-2.477-5.877-6.574-11.016-11.925-14.74c-0.784-0.545-1.584-1.071-2.419-1.554l-22.874-13.2
	l-21.414-12.358l-17.239-9.949L329.938,46.47l-25.717-14.842l-19.288-11.132l-11.953-6.898c-10.533-6.078-23.509-6.077-34.04,0.006
	l-11.872,6.857l-19.288,11.14l-25.717,14.854l0,0l-65.917,38.072l-28.89,16.686l-21.408,12.365l-11.282,6.517
	c-0.811,0.469-1.59,0.979-2.353,1.507c-3.272,2.266-6.073,5.068-8.333,8.236c-1.517,2.128-2.781,4.423-3.773,6.841
	c-1.655,4.031-2.558,8.399-2.557,12.899l0.006,40.912l0.005,26.204l0.012,73.738v4.011v0.85v0.001v0.013l0,0v0.005l0,0l0.005,26.2
	v0.001v1.863l0.002,12.617l0.004,26.497v0.006l0,0c0,0.773,0.033,1.539,0.084,2.304c0.016,0.224,0.042,0.446,0.061,0.669
	c0.048,0.55,0.105,1.096,0.18,1.638c0.033,0.236,0.072,0.471,0.108,0.706c0.087,0.546,0.186,1.087,0.298,1.626
	c0.042,0.201,0.086,0.403,0.131,0.603c0.14,0.614,0.298,1.221,0.471,1.825c0.033,0.113,0.061,0.227,0.095,0.34
	c0.909,3.043,2.24,5.929,3.94,8.589l0.001,0.001c0,0.001,0.001,0.001,0.001,0.001c1.172,1.832,2.517,3.553,4.026,5.137
	c0.051,0.052,0.099,0.106,0.148,0.158c0.709,0.735,1.454,1.439,2.231,2.113c0.125,0.108,0.254,0.213,0.382,0.321
	c0.786,0.661,1.595,1.3,2.445,1.89c0.784,0.545,1.584,1.071,2.419,1.554l22.552,13.015l21.414,12.359l17.561,10.135l91.644,52.89
	l19.288,11.132l11.953,6.898c10.533,6.078,23.509,6.077,34.04-0.006l11.872-6.857l19.288-11.14l25.717-14.853l55.554-32.086
	l10.363-5.985l26.36-15.225l21.408-12.365l13.813-7.978c0.811-0.469,1.59-0.979,2.353-1.507c0.851-0.59,1.659-1.226,2.446-1.883
	c0.128-0.107,0.258-0.213,0.385-0.323c0.78-0.672,1.526-1.374,2.237-2.11c0.047-0.048,0.09-0.098,0.136-0.146
	c3.724-3.891,6.476-8.609,8.02-13.766C473.044,372.067,473.072,371.957,473.103,371.851z"/>
<path style="fill:#134923;" d="M379.502,291.627c1.834-2.066,3.633-4.164,5.392-6.301c2.979-3.619,2.459-8.967-1.159-11.945
	c-3.619-2.979-8.967-2.459-11.945,1.159c-1.477,1.794-2.99,3.553-4.523,5.293c-0.98-2.651-3.253-4.757-6.223-5.377
	c-4.587-0.962-9.084,1.987-10.041,6.575c-1.392,6.671-3.204,13.38-5.354,19.985c-2.423,2.052-4.89,4.047-7.401,5.985
	c-0.471-2.786-2.313-5.277-5.117-6.436c-4.33-1.791-9.293,0.266-11.086,4.598c-2.582,6.242-5.583,12.441-8.897,18.477
	c-2.75,1.551-5.533,3.044-8.352,4.47c0.063-2.826-1.278-5.619-3.813-7.286c-3.916-2.575-9.179-1.488-11.754,2.428
	c-3.727,5.668-7.862,11.206-12.279,16.518c-6.822,2.293-13.774,4.235-20.828,5.809c-7.055-1.576-14.006-3.516-20.828-5.811
	c-4.415-5.309-8.55-10.847-12.278-16.518c-2.575-3.915-7.837-5.002-11.754-2.428c-2.535,1.667-3.876,4.46-3.814,7.286
	c-2.817-1.426-5.601-2.919-8.351-4.47c-3.314-6.034-6.315-12.232-8.897-18.477c-1.791-4.331-6.755-6.39-11.085-4.598
	c-2.804,1.16-4.646,3.65-5.117,6.436c-2.511-1.937-4.979-3.934-7.402-5.985c-2.149-6.605-3.961-13.313-5.353-19.985
	c-0.957-4.588-5.45-7.531-10.041-6.575c-2.97,0.62-5.244,2.727-6.223,5.377c-1.533-1.74-3.048-3.498-4.523-5.293
	c-2.979-3.619-8.327-4.137-11.946-1.158c-3.618,2.979-4.137,8.327-1.159,11.945c1.759,2.136,3.559,4.235,5.392,6.301
	c-2.694,0.725-4.978,2.753-5.89,5.608c-1.426,4.464,1.038,9.24,5.502,10.666c7.629,2.436,15.401,4.422,23.139,5.958
	c2.863,2.427,5.785,4.777,8.763,7.057c-2.54,1.221-4.421,3.676-4.765,6.682c-0.533,4.656,2.809,8.863,7.466,9.396
	c7.911,0.907,15.882,1.368,23.735,1.395c3.23,1.824,6.507,3.561,9.823,5.225c-2.268,1.679-3.655,4.444-3.425,7.465
	c0.339,4.454,4.058,7.842,8.453,7.842c0.216,0,0.434-0.008,0.653-0.025c7.912-0.603,15.802-1.659,23.509-3.101
	c4.532,1.527,9.114,2.921,13.744,4.158l-8.33,15.54c-2.213,4.13-0.661,9.274,3.469,11.489c1.277,0.684,2.65,1.008,4.002,1.008
	c3.027,0,5.956-1.624,7.486-4.478l6.042-11.273l6.043,11.273c1.531,2.855,4.459,4.478,7.486,4.478c1.354,0,2.726-0.324,4.002-1.008
	c4.131-2.215,5.684-7.358,3.471-11.489l-8.33-15.54c4.63-1.237,9.213-2.63,13.744-4.158c7.707,1.442,15.597,2.498,23.509,3.101
	c0.219,0.017,0.436,0.025,0.653,0.025c4.394,0,8.113-3.389,8.453-7.842c0.23-3.021-1.156-5.785-3.425-7.465
	c3.315-1.664,6.594-3.401,9.823-5.225c7.854-0.025,15.825-0.488,23.736-1.395c4.657-0.533,7.999-4.74,7.466-9.396
	c-0.345-3.009-2.225-5.46-4.768-6.681c2.978-2.28,5.902-4.632,8.765-7.06c7.738-1.536,15.51-3.52,23.139-5.958
	c4.464-1.426,6.928-6.202,5.501-10.666C384.48,294.381,382.196,292.352,379.502,291.627z"/>
<path style="fill:#F2A643;" d="M381.615,151.318c-2.225-8.331-10.783-13.281-19.114-11.056l-95.082,25.397
	c-0.002-0.001-37.903,10.125-37.903,10.125c1.618,4.167,2.506,8.697,2.506,13.436c0,20.519-16.634,37.153-37.153,37.153
	c-7.158,0-13.839-2.029-19.51-5.536c0.374,34.005,28.04,61.459,62.134,61.459c32.802,0,59.65-25.417,61.97-57.629
	c3.377,6.157,10.613,9.467,17.702,7.574c8.33-2.225,13.281-10.783,11.055-19.114l-7.825-29.297l50.165-13.401
	C378.889,168.206,383.839,159.648,381.615,151.318z"/>
<path d="M366.539,131.244c-2.096,0-4.192,0.276-6.229,0.82l-95.081,25.397l0.016,0.058c-1.403,0.312-3.278,0.813-5.938,1.524
	l-31.98,8.545c-2.33,0.623-4.286,2.207-5.377,4.359c-1.091,2.151-1.215,4.665-0.342,6.914c1.28,3.296,1.93,6.783,1.93,10.361
	c0,15.807-12.859,28.667-28.667,28.667c-5.33,0-10.533-1.476-15.046-4.268c-2.632-1.629-5.941-1.693-8.635-0.174
	c-2.694,1.521-4.347,4.389-4.313,7.484c0.422,38.516,32.102,69.851,70.618,69.851c31.776,0,59.157-21.396,67.79-50.839
	c2.488,0.86,5.135,1.316,7.85,1.316h0.001c2.092,0,4.186-0.276,6.22-0.819c12.838-3.43,20.493-16.665,17.064-29.503l-5.636-21.098
	l41.967-11.21c12.839-3.43,20.494-16.665,17.064-29.503C387,138.597,377.43,131.244,366.539,131.244z M372.699,158.915
	c-0.954,1.648-2.491,2.826-4.33,3.316l-50.165,13.399c-4.528,1.209-7.217,5.861-6.008,10.389l7.825,29.297
	c1.015,3.797-1.25,7.711-5.046,8.726c-0.606,0.163-1.225,0.243-1.84,0.243c-2.592,0-4.979-1.418-6.231-3.701
	c-1.808-3.298-5.574-5.01-9.25-4.21c-3.676,0.803-6.383,3.929-6.654,7.682c-2.008,27.898-25.511,49.752-53.506,49.752
	c-24.713,0-45.722-16.982-51.847-39.889c3.019,0.622,6.108,0.939,9.225,0.939c25.165,0,45.639-20.473,45.639-45.639
	c0-2.507-0.201-4.987-0.602-7.428c10.93-2.92,28.99-7.745,29.664-7.924c0.013-0.002,0.025-0.006,0.037-0.01l95.082-25.397
	c0.609-0.163,1.231-0.246,1.849-0.246c3.216,0,6.044,2.176,6.876,5.293C373.907,155.347,373.653,157.267,372.699,158.915z
	 M483.456,149.503c0-3.711-0.494-7.438-1.466-11.08c-0.506-1.897-1.155-3.787-1.925-5.614c-3.179-7.543-8.398-13.991-15.096-18.652
	c-1.115-0.775-2.087-1.398-3.062-1.96L277.498,5.768C270.961,1.995,263.513,0,255.964,0c-7.555,0-15.005,1.998-21.547,5.776
	L50.042,112.265c-0.945,0.546-1.89,1.15-2.979,1.904c-4.086,2.831-7.633,6.335-10.546,10.419c-1.912,2.683-3.519,5.596-4.775,8.657
	c-2.147,5.231-3.234,10.726-3.234,16.334l0.035,212.916c0,0.921,0.034,1.875,0.105,2.917c0.017,0.235,0.039,0.469,0.061,0.703
	l0.014,0.143c0.06,0.694,0.134,1.385,0.231,2.096c0.034,0.24,0.071,0.477,0.108,0.716l0.025,0.158
	c0.11,0.691,0.234,1.375,0.38,2.075c0.053,0.254,0.107,0.509,0.163,0.747c0.177,0.776,0.377,1.544,0.608,2.351l0.112,0.392
	c1.143,3.826,2.82,7.485,4.986,10.873c0.014,0.022,0.028,0.043,0.042,0.065c1.477,2.3,3.177,4.466,5.049,6.433
	c0.04,0.042,0.153,0.164,0.194,0.205c0.887,0.921,1.837,1.819,2.827,2.677l0.481,0.405c1.098,0.922,2.111,1.703,3.096,2.389
	c1.114,0.775,2.087,1.398,3.064,1.963l184.411,106.428c6.539,3.773,13.985,5.768,21.534,5.768l0,0
	c7.554,0,15.005-1.998,21.547-5.776l184.372-106.488c0.949-0.548,1.895-1.152,2.979-1.904c0.995-0.688,1.979-1.444,3.097-2.378
	c0.005-0.004,0.104-0.086,0.11-0.09l0.381-0.321c0.989-0.852,1.942-1.75,2.81-2.647l0.194-0.205
	c4.695-4.906,8.205-10.93,10.152-17.432l0.112-0.397c0.224-0.773,0.427-1.554,0.608-2.345l0.168-0.769
	c0.143-0.684,0.27-1.372,0.38-2.067l0.019-0.121c0.041-0.256,0.081-0.511,0.118-0.778c0.095-0.69,0.169-1.385,0.229-2.073
	l0.014-0.145c0.024-0.239,0.047-0.479,0.063-0.72c0.071-1.044,0.105-2,0.105-2.932L483.456,149.503z M465.347,364.1l-0.051,0.52
	c-0.035,0.403-0.076,0.805-0.129,1.195l-0.082,0.53c-0.064,0.404-0.139,0.804-0.227,1.227l-0.089,0.411
	c-0.105,0.457-0.223,0.909-0.348,1.344l-0.07,0.253c-1.128,3.765-3.164,7.26-5.908,10.126l-0.083,0.09
	c-0.512,0.529-1.066,1.05-1.654,1.558l-0.269,0.224c-0.69,0.576-1.26,1.017-1.797,1.389c-0.668,0.463-1.216,0.815-1.728,1.109
	l-184.375,106.49c-3.796,2.193-8.119,3.351-12.504,3.351c-4.381,0-8.701-1.157-12.495-3.347L59.13,384.143
	c-0.526-0.303-1.091-0.668-1.778-1.146c-0.54-0.375-1.109-0.817-1.783-1.383l-0.288-0.24c-0.576-0.499-1.128-1.022-1.596-1.507
	c-0.027-0.028-0.128-0.136-0.154-0.164c-1.098-1.155-2.093-2.424-2.957-3.773c-0.008-0.014-0.018-0.029-0.028-0.043
	c-1.247-1.958-2.211-4.066-2.869-6.271l-0.066-0.239c-0.127-0.445-0.245-0.891-0.351-1.357l-0.092-0.427
	c-0.083-0.395-0.156-0.793-0.217-1.185l-0.082-0.523c-0.054-0.399-0.095-0.802-0.13-1.201l-0.048-0.495
	c-0.039-0.561-0.064-1.125-0.064-1.7l-0.035-212.912c0-3.24,0.632-6.425,1.881-9.466c0.731-1.781,1.662-3.471,2.77-5.025
	c1.696-2.378,3.755-4.415,6.116-6.051c0.671-0.464,1.221-0.819,1.73-1.111l184.373-106.49c3.796-2.193,8.119-3.351,12.504-3.351
	c4.381,0,8.701,1.157,12.495,3.347l184.408,106.428c0.526,0.303,1.091,0.668,1.778,1.145c3.881,2.7,6.909,6.445,8.758,10.83
	c0.448,1.064,0.825,2.159,1.116,3.254c0.567,2.122,0.854,4.282,0.854,6.419l0.035,212.917
	C465.408,362.994,465.383,363.562,465.347,364.1z"/>
<g>
</g>
<g>
</g>
<g>
</g>
<g>
</g>
<g>
</g>
<g>
</g>
<g>
</g>
<g>
</g>
<g>
</g>
<g>
</g>
<g>
</g>
<g>
</g>
<g>
</g>
<g>
</g>
<g>
</g>
</svg>
