<?xml version="1.0" encoding="iso-8859-1"?>
<!-- Generator: Adobe Illustrator 19.0.0, SVG Export Plug-In . SVG Version: 6.00 Build 0)  -->
<svg version="1.1" id="Layer_1" xmlns="http://www.w3.org/2000/svg" xmlns:xlink="http://www.w3.org/1999/xlink" x="0px" y="0px"
	 viewBox="0 0 511.999 511.999" style="enable-background:new 0 0 511.999 511.999;" xml:space="preserve">
<path style="fill:#FFE000;" d="M473.119,371.858c0.176-0.611,0.338-1.229,0.479-1.851c0.047-0.201,0.089-0.401,0.131-0.603
	c0.113-0.541,0.213-1.085,0.3-1.634c0.037-0.238,0.076-0.474,0.11-0.711c0.076-0.545,0.131-1.094,0.18-1.643
	c0.02-0.225,0.047-0.448,0.063-0.674c0.052-0.767,0.084-1.537,0.084-2.314l0,0l0,0v-0.006l-0.007-40.908v-0.001l-0.005-26.206
	v-0.002l-0.001-4.214l-0.004-25.576l0,0l-0.008-48.827l-0.005-26.206l-0.007-40.988c0-2.996-0.406-5.93-1.16-8.75
	c-0.405-1.517-0.915-2.997-1.52-4.435c-2.479-5.877-6.575-11.017-11.926-14.741c-0.784-0.545-1.584-1.071-2.421-1.554
	l-22.875-13.201l-21.415-12.359l-17.241-9.95l-65.931-38.05L304.219,31.61l-19.29-11.133l-11.954-6.898
	c-10.533-6.079-23.511-6.077-34.043,0.006l-11.873,6.857l-19.29,11.141l-25.719,14.855l0,0l-65.917,38.076L87.242,101.2
	l-21.409,12.366l-11.283,6.518c-0.811,0.469-1.59,0.979-2.353,1.507c-3.272,2.267-6.074,5.068-8.332,8.237
	c-1.517,2.128-2.781,4.423-3.774,6.842c-1.655,4.032-2.558,8.399-2.557,12.9l0.006,40.915l0.005,26.206l0.012,73.743v4.011v0.849
	v0.002v0.013l0,0v0.005l0,0l0.005,26.201v0.001v1.863l0.002,12.618l0.004,26.499v0.006l0,0c0,0.773,0.033,1.54,0.084,2.304
	c0.016,0.224,0.042,0.446,0.061,0.669c0.048,0.55,0.105,1.096,0.18,1.638c0.033,0.236,0.072,0.471,0.109,0.706
	c0.087,0.546,0.186,1.087,0.298,1.626c0.042,0.201,0.086,0.403,0.131,0.603c0.14,0.615,0.298,1.223,0.471,1.825
	c0.033,0.113,0.061,0.227,0.095,0.34c0.909,3.043,2.24,5.93,3.94,8.59c0,0,0,0.001,0.001,0.002l0.001,0.001
	c1.172,1.832,2.517,3.552,4.026,5.137c0.051,0.052,0.099,0.106,0.148,0.158c0.709,0.735,1.454,1.44,2.232,2.113
	c0.125,0.108,0.254,0.213,0.382,0.321c0.786,0.661,1.595,1.3,2.445,1.89c0.784,0.545,1.584,1.071,2.42,1.554l22.553,13.016
	l21.415,12.36l17.562,10.136l91.65,52.894l19.29,11.133l11.954,6.898c10.533,6.079,23.511,6.077,34.043-0.006l11.873-6.857
	l19.29-11.141l25.719-14.854l55.558-32.088l10.363-5.986l26.362-15.226l21.409-12.366l13.814-7.979
	c0.813-0.469,1.59-0.979,2.353-1.507c0.85-0.59,1.659-1.226,2.445-1.883c0.129-0.107,0.259-0.213,0.386-0.323
	c0.779-0.672,1.526-1.374,2.236-2.11c0.046-0.048,0.09-0.098,0.136-0.146c3.725-3.892,6.475-8.609,8.02-13.766
	C473.061,372.074,473.087,371.965,473.119,371.858z"/>
<g>
	<path style="fill:#103B9B;" d="M474.459,321.517v-0.001l-0.005-26.206v-0.002l-0.001-4.214l-0.004-25.576l-0.008-48.827
		l-0.005-26.206l-0.007-40.988c0-2.996-0.406-5.93-1.16-8.75c-0.405-1.517-0.914-2.997-1.52-4.435
		c-2.479-5.877-6.575-11.017-11.926-14.741c-0.784-0.545-1.584-1.071-2.421-1.554l-22.875-13.201l-21.415-12.359l-2.821-1.629
		v60.476v34.11v231.737l11.932-6.892l21.409-12.366l13.814-7.979c0.813-0.469,1.59-0.979,2.353-1.507
		c0.85-0.59,1.659-1.226,2.445-1.883c0.129-0.107,0.259-0.213,0.386-0.323c0.779-0.672,1.526-1.374,2.236-2.11
		c0.047-0.048,0.09-0.098,0.136-0.146c3.724-3.892,6.475-8.609,8.02-13.766c0.033-0.106,0.06-0.215,0.09-0.322
		c0.176-0.611,0.338-1.229,0.479-1.851c0.047-0.201,0.089-0.401,0.131-0.603c0.113-0.541,0.213-1.085,0.3-1.634
		c0.037-0.236,0.076-0.473,0.11-0.711c0.076-0.545,0.131-1.094,0.18-1.643c0.02-0.225,0.047-0.447,0.063-0.674
		c0.052-0.767,0.084-1.537,0.084-2.314l0,0v-0.006L474.459,321.517z"/>
	<path style="fill:#103B9B;" d="M116.135,84.515L87.242,101.2l-21.409,12.366l-11.283,6.518c-0.811,0.469-1.59,0.979-2.353,1.507
		c-3.272,2.267-6.074,5.068-8.332,8.237c-1.517,2.128-2.781,4.423-3.774,6.842c-1.655,4.032-2.558,8.399-2.557,12.9l0.006,40.915
		l0.005,26.206l0.012,73.743v4.011v0.849v0.002v0.013l0,0v0.005l0,0l0.005,26.201v0.001v1.863l0.001,12.618l0.005,26.499v0.006l0,0
		c0,0.773,0.033,1.54,0.084,2.304c0.016,0.224,0.042,0.446,0.061,0.669c0.049,0.55,0.105,1.096,0.18,1.638
		c0.033,0.236,0.071,0.471,0.11,0.706c0.086,0.546,0.184,1.087,0.298,1.626c0.042,0.201,0.084,0.403,0.13,0.603
		c0.14,0.615,0.298,1.223,0.471,1.825c0.033,0.113,0.061,0.227,0.095,0.34c0.909,3.042,2.239,5.93,3.94,8.59
		c0,0,0,0.001,0.001,0.002l0.001,0.001c1.172,1.832,2.517,3.552,4.026,5.137c0.051,0.052,0.099,0.106,0.148,0.158
		c0.709,0.735,1.454,1.441,2.232,2.112c0.125,0.11,0.254,0.215,0.382,0.322c0.786,0.661,1.594,1.3,2.445,1.89
		c0.784,0.545,1.584,1.071,2.42,1.554l22.553,13.016l21.415,12.36l17.562,10.136l91.65,52.894l19.29,11.133l11.954,6.898
		c10.533,6.079,23.511,6.077,34.043-0.006l11.873-6.857l19.29-11.141l25.719-14.854l55.558-32.088l10.363-5.986l4.567-2.638
		L119.156,82.769L116.135,84.515z"/>
</g>
<g>
	<circle style="fill:#FFFFFF;" cx="298.267" cy="361.103" r="14.467"/>
	<circle style="fill:#FFFFFF;" cx="345.527" cy="415.608" r="14.467"/>
	<circle style="fill:#FFFFFF;" cx="250.995" cy="303.728" r="14.467"/>
	<circle style="fill:#FFFFFF;" cx="203.723" cy="246.353" r="14.467"/>
	<circle style="fill:#FFFFFF;" cx="156.463" cy="188.978" r="14.467"/>
	<circle style="fill:#FFFFFF;" cx="109.191" cy="131.603" r="14.467"/>
	<path style="fill:#FFFFFF;" d="M55.893,83.871c0,7.99,6.478,14.467,14.467,14.467s14.467-6.478,14.467-14.467
		c0-3.277-1.102-6.288-2.938-8.714H58.831C56.995,77.584,55.893,80.595,55.893,83.871z"/>
</g>
<path d="M483.472,149.496c0-3.71-0.493-7.437-1.464-11.076c-0.503-1.888-1.15-3.777-1.928-5.623
	c-3.18-7.542-8.399-13.991-15.092-18.647c-1.096-0.763-2.099-1.406-3.066-1.964L277.5,5.75c-13.287-7.669-29.798-7.666-43.085,0.007
	L50.026,112.253c-0.946,0.546-1.892,1.151-2.979,1.904c-4.086,2.831-7.634,6.335-10.547,10.421
	c-1.912,2.684-3.519,5.596-4.775,8.657c-2.147,5.231-3.235,10.726-3.235,16.335l0.035,212.932c0,0.921,0.034,1.875,0.105,2.92
	c0.016,0.234,0.037,0.465,0.061,0.698l0.014,0.147c0.061,0.694,0.134,1.385,0.231,2.094c0.034,0.24,0.071,0.477,0.109,0.715
	l0.025,0.16c0.11,0.691,0.234,1.376,0.38,2.072c0.054,0.254,0.107,0.509,0.163,0.75c0.177,0.778,0.377,1.546,0.608,2.35l0.112,0.393
	c1.143,3.829,2.821,7.487,4.985,10.872c0.013,0.021,0.027,0.041,0.04,0.061c1.477,2.3,3.178,4.468,5.053,6.438
	c0.039,0.042,0.153,0.163,0.193,0.204c0.887,0.921,1.836,1.82,2.828,2.679l0.48,0.404c1.098,0.922,2.111,1.705,3.096,2.39
	c1.113,0.774,2.086,1.397,3.065,1.963l184.424,106.436c6.643,3.834,14.089,5.751,21.536,5.751c7.451,0,14.905-1.919,21.55-5.757
	l184.383-106.495c0.945-0.545,1.892-1.15,2.988-1.908c0.985-0.682,1.998-1.46,3.108-2.388l0.476-0.398
	c0.986-0.851,1.939-1.749,2.846-2.687l0.156-0.165c4.696-4.904,8.205-10.93,10.126-17.346c0.051-0.164,0.096-0.328,0.151-0.526
	c0.219-0.761,0.42-1.527,0.597-2.303c0.058-0.253,0.112-0.506,0.168-0.77c0.142-0.682,0.269-1.371,0.379-2.063l0.019-0.119
	c0.041-0.257,0.081-0.514,0.121-0.791c0.093-0.687,0.168-1.379,0.227-2.062l0.014-0.146c0.024-0.239,0.047-0.477,0.064-0.721
	c0.071-1.057,0.105-2.018,0.104-2.93L483.472,149.496z M268.539,490.581c-7.711,4.452-17.291,4.454-25.001,0.005L59.117,384.152
	c-0.526-0.304-1.091-0.668-1.779-1.147c-0.539-0.375-1.109-0.817-1.782-1.382l-0.289-0.241c-0.576-0.5-1.128-1.022-1.596-1.507
	c-0.027-0.029-0.127-0.136-0.154-0.164c-1.1-1.155-2.094-2.424-2.957-3.774c-0.011-0.017-0.022-0.034-0.033-0.051
	c-1.244-1.954-2.207-4.061-2.865-6.263l-0.068-0.241c-0.127-0.444-0.245-0.89-0.351-1.355L47.15,367.6
	c-0.082-0.395-0.156-0.793-0.217-1.185l-0.082-0.524c-0.054-0.399-0.096-0.802-0.13-1.198l-0.048-0.497
	c-0.039-0.562-0.064-1.125-0.064-1.7l-0.035-212.927c0-3.241,0.632-6.426,1.881-9.466c0.731-1.781,1.663-3.471,2.77-5.025
	c1.696-2.379,3.755-4.415,6.117-6.051c0.67-0.464,1.22-0.817,1.729-1.112l57.969-33.481l269.633,327.918L268.539,490.581z
	 M465.362,364.105l-0.051,0.521c-0.035,0.406-0.076,0.811-0.129,1.195l-0.082,0.53c-0.064,0.404-0.137,0.805-0.219,1.195
	l-0.095,0.444c-0.105,0.457-0.224,0.91-0.354,1.36c-0.002,0.008-0.005,0.016-0.007,0.024l-0.061,0.223
	c-1.13,3.762-3.163,7.253-5.906,10.119l-0.081,0.088c-0.515,0.53-1.067,1.052-1.637,1.544l-0.288,0.24
	c-0.675,0.564-1.263,1.019-1.792,1.385c-0.673,0.465-1.22,0.817-1.73,1.112l-33.591,19.402V187.413c0-4.994-4.047-9.042-9.042-9.042
	s-9.042,4.048-9.042,9.042v224.192L132.914,85.265L243.46,21.417c7.71-4.454,17.291-4.455,25.001-0.005l132.792,76.637v55.254
	c0,4.994,4.047,9.042,9.042,9.042s9.042-4.048,9.042-9.042v-44.817l33.546,19.361c0.528,0.304,1.091,0.668,1.778,1.145
	c3.881,2.701,6.909,6.446,8.756,10.825c0.452,1.074,0.828,2.169,1.119,3.259c0.567,2.123,0.854,4.284,0.854,6.421l0.035,212.945
	C465.424,363.01,465.398,363.573,465.362,364.105z"/>
<g>
</g>
<g>
</g>
<g>
</g>
<g>
</g>
<g>
</g>
<g>
</g>
<g>
</g>
<g>
</g>
<g>
</g>
<g>
</g>
<g>
</g>
<g>
</g>
<g>
</g>
<g>
</g>
<g>
</g>
</svg>
