<?xml version="1.0" encoding="iso-8859-1"?>
<!-- Generator: Adobe Illustrator 19.0.0, SVG Export Plug-In . SVG Version: 6.00 Build 0)  -->
<svg version="1.1" id="Layer_1" xmlns="http://www.w3.org/2000/svg" xmlns:xlink="http://www.w3.org/1999/xlink" x="0px" y="0px"
	 viewBox="0 0 512 512" style="enable-background:new 0 0 512 512;" xml:space="preserve">
<path style="fill:#FFFFFF;" d="M473.105,371.851c0.176-0.611,0.336-1.228,0.479-1.85c0.046-0.201,0.088-0.401,0.13-0.603
	c0.113-0.541,0.213-1.085,0.301-1.634c0.037-0.236,0.076-0.473,0.11-0.711c0.075-0.545,0.131-1.093,0.18-1.643
	c0.021-0.225,0.047-0.447,0.063-0.674c0.052-0.767,0.084-1.537,0.084-2.313l0,0l0,0v-0.006l-0.006-40.904v-0.001l-0.005-26.204
	v-0.002v-4.213l-0.004-25.574l0,0l-0.008-48.824l-0.004-26.204l-0.007-40.985c0-2.996-0.407-5.93-1.16-8.75
	c-0.405-1.517-0.915-2.997-1.521-4.435c-2.477-5.877-6.574-11.016-11.925-14.74c-0.784-0.545-1.584-1.071-2.421-1.554l-22.872-13.2
	l-21.414-12.358l-17.239-9.949L329.94,46.472l-25.717-14.842l-19.288-11.132l-11.953-6.898c-10.533-6.078-23.509-6.077-34.04,0.006
	l-11.872,6.857l-19.288,11.14l-25.717,14.854l0,0l-65.917,38.07l-28.889,16.686L65.85,113.578l-11.282,6.517
	c-0.811,0.469-1.59,0.979-2.353,1.507c-3.272,2.266-6.073,5.068-8.333,8.236c-1.517,2.128-2.781,4.423-3.773,6.841
	c-1.655,4.031-2.558,8.399-2.557,12.899l0.006,40.912l0.005,26.204l0.012,73.738v4.011v0.849v0.002v0.013l0,0v0.005l0,0l0.005,26.2
	l0,0v1.864l0.002,12.617l0.004,26.497v0.006l0,0c0,0.773,0.033,1.539,0.084,2.304c0.016,0.224,0.042,0.446,0.061,0.669
	c0.048,0.55,0.105,1.096,0.18,1.638c0.033,0.236,0.072,0.471,0.108,0.706c0.087,0.546,0.186,1.087,0.298,1.626
	c0.042,0.201,0.086,0.403,0.13,0.603c0.141,0.615,0.299,1.222,0.471,1.825c0.033,0.113,0.061,0.227,0.095,0.34
	c0.909,3.042,2.24,5.93,3.94,8.589l0.001,0.001l0.001,0.002c1.172,1.832,2.517,3.551,4.025,5.137
	c0.051,0.052,0.099,0.106,0.148,0.158c0.709,0.735,1.454,1.439,2.231,2.112c0.125,0.11,0.254,0.215,0.382,0.322
	c0.786,0.661,1.595,1.3,2.445,1.89c0.784,0.545,1.584,1.07,2.421,1.554l22.552,13.015l21.414,12.359l17.561,10.135l91.644,52.89
	l19.288,11.132l11.953,6.898c10.533,6.078,23.509,6.077,34.04-0.006l11.872-6.857l19.288-11.14l25.717-14.853l55.554-32.086
	l10.363-5.985l26.36-15.224l21.408-12.365l13.813-7.978c0.811-0.469,1.59-0.979,2.353-1.507c0.851-0.59,1.659-1.226,2.446-1.883
	c0.128-0.107,0.258-0.213,0.385-0.322c0.779-0.673,1.526-1.375,2.237-2.11c0.047-0.048,0.09-0.098,0.136-0.146
	c3.724-3.891,6.476-8.609,8.02-13.765C473.046,372.067,473.074,371.958,473.105,371.851z"/>
<path style="fill:#259245;" d="M474.417,149.505c0-2.996-0.408-5.93-1.16-8.75c-0.405-1.517-0.915-2.997-1.521-4.435
	c-2.477-5.877-6.574-11.016-11.925-14.74c-0.784-0.545-1.584-1.071-2.421-1.554l-22.872-13.2l-21.414-12.358l-17.239-9.949
	L329.94,46.472l-25.717-14.842l-19.288-11.132l-11.953-6.898c-10.534-6.078-23.51-6.077-34.04,0.006l-11.872,6.857l-19.288,11.14
	l-25.717,14.854l0,0l-65.917,38.07l-28.889,16.686L65.85,113.578l-11.282,6.517c-0.811,0.469-1.59,0.979-2.353,1.507
	c-3.272,2.266-6.073,5.068-8.333,8.236c-1.517,2.128-2.781,4.423-3.773,6.841c-1.655,4.031-2.558,8.399-2.557,12.899l0.006,38.361
	h436.866L474.417,149.505z"/>
<path style="fill:#ED1F34;" d="M377.609,324.061H37.58l0.001,11.93l0.005,26.497v0.006l0,0c0,0.773,0.033,1.539,0.084,2.304
	c0.016,0.225,0.042,0.446,0.061,0.669c0.049,0.55,0.105,1.096,0.18,1.638c0.033,0.236,0.071,0.471,0.11,0.706
	c0.086,0.546,0.184,1.087,0.298,1.626c0.042,0.201,0.086,0.403,0.13,0.603c0.141,0.615,0.298,1.222,0.471,1.825
	c0.033,0.113,0.061,0.227,0.095,0.34c0.909,3.043,2.24,5.93,3.94,8.589v0.001l0.002,0.002c1.172,1.832,2.517,3.551,4.025,5.137
	c0.051,0.052,0.099,0.106,0.148,0.158c0.709,0.735,1.454,1.439,2.231,2.113c0.125,0.108,0.254,0.213,0.382,0.321
	c0.786,0.661,1.595,1.3,2.445,1.89c0.784,0.545,1.584,1.071,2.421,1.554l22.552,13.015l21.414,12.359l17.561,10.134l91.644,52.89
	l19.288,11.132l11.953,6.899c10.533,6.078,23.509,6.076,34.04-0.007l11.872-6.857l19.288-11.14l25.717-14.853l55.554-32.086
	l10.363-5.985l26.36-15.224l21.408-12.365l13.813-7.978c0.811-0.469,1.59-0.979,2.352-1.507c0.851-0.59,1.659-1.226,2.446-1.883
	c0.128-0.107,0.258-0.213,0.385-0.323c0.779-0.671,1.526-1.374,2.237-2.11c0.047-0.048,0.09-0.098,0.137-0.146
	c3.724-3.891,6.475-8.609,8.019-13.766c0.031-0.106,0.059-0.215,0.09-0.322c0.176-0.611,0.336-1.228,0.479-1.85
	c0.046-0.201,0.088-0.401,0.13-0.603c0.113-0.541,0.213-1.085,0.3-1.633c0.039-0.237,0.077-0.474,0.11-0.711
	c0.075-0.545,0.131-1.093,0.18-1.643c0.02-0.225,0.047-0.448,0.063-0.674c0.052-0.767,0.084-1.537,0.084-2.313l0,0v-0.006
	l-0.006-38.355h-56h-40.833V324.061z"/>
<path style="fill:#FFFFFF;" d="M269.407,146.436c3.545,3.516,3.604,9.275,0.089,12.821c-1.776,1.791-4.107,2.693-6.436,2.693
	c-0.399,0-0.798-0.027-1.195-0.08c-5.666-0.262-10.836-2.421-14.921-5.837c-4.219,3.531-9.603,5.712-15.487,5.856
	c-0.227,0.017-0.452,0.025-0.679,0.025c-2.311,0-4.62-0.874-6.376-2.63c-3.531-3.531-3.566-9.221-0.035-12.752l0.07-0.07
	c1.695-1.696,3.995-2.649,6.393-2.649c3.895,0,7.064-3.169,7.064-7.064v-7.929c0-4.993,4.048-9.041,9.041-9.041h16.106
	c4.993,0,9.041,4.048,9.041,9.041c0,4.993-4.048,9.041-9.041,9.041h-6.968c0.536,3.367,3.453,5.952,6.968,5.952
	C265.425,143.814,267.715,144.756,269.407,146.436z M214.948,126.263h-9.478V96.116c0-4.993-4.048-9.041-9.041-9.041
	c-4.993,0-9.041,4.048-9.041,9.041v40.633c0,3.895-3.169,7.064-7.064,7.064c-0.234,0-0.467,0.01-0.699,0.029
	c-1.16-0.125-2.263-0.532-3.225-1.193c-4.114-2.833-9.744-1.793-12.574,2.321c-2.832,4.113-1.793,9.744,2.321,12.574
	c4.14,2.85,8.991,4.378,14.029,4.422c0.025,0,0.049,0,0.074,0c0.436,0,0.87-0.034,1.301-0.099
	c10.682-0.515,19.623-7.732,22.734-17.522h10.665c4.993,0,9.041-4.048,9.041-9.041C223.989,130.309,219.941,126.263,214.948,126.263
	z M340.729,87.075c-4.993,0-9.041,4.048-9.041,9.041v40.633c0,3.895-3.169,7.064-7.064,7.064c-0.364,0-0.728,0.024-1.087,0.07
	h-7.542c-4.993,0-9.041,4.048-9.041,9.041c0,4.993,4.048,9.041,9.041,9.041h8.56c0.435,0,0.87-0.034,1.301-0.1
	c13.296-0.644,23.915-11.663,23.915-25.117V96.116C349.771,91.123,345.723,87.075,340.729,87.075z M271.397,90.97
	c-4.204-2.692-9.796-1.466-12.489,2.739c-0.281,0.438-1.304,1.867-2.699,1.867c-1.392,0-2.412-1.426-2.692-1.863
	c-2.69-4.206-8.278-5.439-12.488-2.749c-4.207,2.69-5.438,8.281-2.749,12.488c4.086,6.39,10.787,10.206,17.928,10.206
	c7.137,0,13.838-3.814,17.928-10.201C276.83,99.253,275.604,93.66,271.397,90.97z M291.258,89.6c-4.993,0-9.041,4.048-9.041,9.041
	v54.283c0,4.993,4.048,9.041,9.041,9.041s9.041-4.048,9.041-9.041V98.642C300.3,93.648,296.252,89.6,291.258,89.6z M315.995,119.344
	c4.993,0,9.041-4.048,9.041-9.041v-11.66c0-4.993-4.048-9.041-9.041-9.041s-9.041,4.048-9.041,9.041v11.66
	C306.953,115.296,311,119.344,315.995,119.344z M171.694,127.194c4.993,0,9.041-4.048,9.041-9.041V96.116
	c0-4.993-4.048-9.041-9.041-9.041c-4.993,0-9.041,4.048-9.041,9.041v22.037C162.652,123.146,166.701,127.194,171.694,127.194z
	 M221.165,116.127c4.993,0,9.041-4.048,9.041-9.041V96.116c0-4.993-4.048-9.041-9.041-9.041c-4.993,0-9.041,4.048-9.041,9.041
	v10.969C212.123,112.078,216.171,116.127,221.165,116.127z"/>
<polygon style="fill:#333333;" points="213.812,246.528 244.876,244.923 256.001,215.876 267.126,244.923 298.19,246.528 
	274.003,266.085 282.075,296.124 256.001,279.163 229.928,296.124 238,266.085 "/>
<path d="M282.075,305.165c-1.712,0-3.427-0.486-4.929-1.462l-21.145-13.754l-21.145,13.754c-3.14,2.043-7.214,1.937-10.245-0.265
	c-3.031-2.201-4.389-6.043-3.418-9.661l6.546-24.36l-19.614-15.859c-2.913-2.356-4.071-6.263-2.914-9.824
	c1.157-3.562,4.392-6.042,8.132-6.236l25.191-1.302l9.021-23.555c1.339-3.497,4.698-5.807,8.443-5.807s7.104,2.31,8.443,5.807
	l9.021,23.555l25.191,1.302c3.741,0.194,6.975,2.674,8.132,6.236c1.157,3.562-0.001,7.469-2.914,9.824l-19.614,15.859l6.546,24.36
	c0.972,3.617-0.387,7.46-3.418,9.661C285.809,304.587,283.943,305.165,282.075,305.165z M256.001,270.122
	c1.715,0,3.431,0.487,4.929,1.462l6.287,4.089l-1.947-7.242c-0.928-3.454,0.266-7.129,3.046-9.378l5.831-4.715l-7.49-0.387
	c-3.571-0.184-6.698-2.457-7.977-5.796l-2.682-7.003l-2.682,7.003c-1.279,3.339-4.406,5.61-7.977,5.796l-7.49,0.387l5.831,4.715
	c2.78,2.248,3.975,5.924,3.046,9.378l-1.947,7.242l6.287-4.089C252.57,270.61,254.286,270.122,256.001,270.122z M483.457,149.505
	c0-0.928-0.034-1.882-0.105-2.919c-0.017-0.241-0.039-0.48-0.064-0.721l-0.013-0.127c-0.06-0.692-0.133-1.383-0.229-2.093
	c-0.036-0.259-0.077-0.516-0.134-0.867c-0.11-0.697-0.235-1.389-0.381-2.084c-0.054-0.254-0.108-0.508-0.163-0.745
	c-0.177-0.779-0.377-1.547-0.604-2.339c-0.039-0.146-0.08-0.291-0.115-0.405c-1.144-3.83-2.822-7.489-4.986-10.874
	c-0.025-0.036-0.048-0.075-0.072-0.111c-1.47-2.283-3.16-4.433-5-6.365c-0.046-0.051-0.168-0.178-0.215-0.228
	c-0.901-0.933-1.853-1.834-2.809-2.661c-0.143-0.125-0.289-0.246-0.498-0.42c-1.093-0.919-2.105-1.699-3.097-2.391
	c-1.112-0.773-2.084-1.395-3.062-1.96L277.5,5.768C270.961,1.995,263.515,0,255.966,0c-7.555,0-15.005,1.998-21.547,5.777
	L50.048,112.263c-0.94,0.542-1.887,1.146-2.991,1.91c-0.99,0.687-2.001,1.466-3.177,2.447l-0.405,0.339
	c-0.986,0.851-1.937,1.749-2.881,2.723l-0.119,0.127c-4.696,4.904-8.205,10.929-10.122,17.332c-0.053,0.171-0.102,0.342-0.143,0.497
	c-0.224,0.775-0.427,1.556-0.608,2.34c-0.058,0.253-0.112,0.508-0.168,0.773c-0.143,0.684-0.27,1.374-0.398,2.177
	c-0.041,0.259-0.082,0.518-0.122,0.802c-0.093,0.687-0.168,1.378-0.227,2.061l-0.014,0.143c-0.025,0.24-0.047,0.48-0.063,0.721
	c-0.072,1.057-0.106,2.018-0.105,2.931l0.035,212.91c0,3.709,0.493,7.438,1.464,11.075c0.503,1.888,1.15,3.778,1.926,5.623
	c3.181,7.544,8.401,13.991,15.092,18.647c1.115,0.776,2.088,1.4,3.066,1.965L234.5,506.233c6.539,3.773,13.985,5.767,21.534,5.767
	c7.555,0,15.005-1.996,21.549-5.776l184.37-106.487c0.948-0.546,1.895-1.152,2.984-1.906c4.086-2.829,7.633-6.335,10.546-10.419
	c1.911-2.682,3.518-5.594,4.776-8.659c2.146-5.23,3.234-10.724,3.234-16.332L483.457,149.505z M46.601,196.98h46.956
	c4.994,0,9.041-4.047,9.041-9.041s-4.047-9.041-9.041-9.041h-46.96l-0.005-29.334c-0.001-0.567,0.025-1.13,0.061-1.664l0.051-0.52
	c0.035-0.407,0.076-0.813,0.128-1.191l0.064-0.407l0.02-0.127c0.064-0.404,0.137-0.804,0.218-1.191l0.096-0.447
	c0.105-0.457,0.224-0.909,0.362-1.385l0.06-0.218c1.13-3.762,3.164-7.255,5.905-10.118l0.083-0.09
	c0.515-0.532,1.068-1.054,1.635-1.543l0.293-0.242c0.671-0.561,1.259-1.015,1.784-1.382c0.678-0.468,1.226-0.821,1.734-1.114
	l184.376-106.49c3.796-2.192,8.12-3.351,12.504-3.351c4.381,0,8.701,1.159,12.495,3.348l184.41,106.427
	c0.528,0.305,1.093,0.67,1.773,1.14c0.542,0.379,1.115,0.823,1.818,1.413l0.266,0.224c0.564,0.486,1.115,1.008,1.57,1.479
	c0.033,0.035,0.14,0.151,0.175,0.186c1.098,1.154,2.093,2.423,2.956,3.771c0.008,0.014,0.018,0.028,0.025,0.041
	c1.246,1.955,2.212,4.065,2.862,6.241l0.076,0.276c0.127,0.441,0.244,0.887,0.35,1.354l0.094,0.438
	c0.081,0.388,0.153,0.781,0.219,1.196l0.078,0.5c0.054,0.4,0.094,0.804,0.131,1.225l0.047,0.473c0.037,0.561,0.063,1.125,0.063,1.7
	l0.005,29.385H134.393c-4.994,0-9.041,4.047-9.041,9.041s4.047,9.041,9.041,9.041h330.99l0.021,118.04H46.619L46.601,196.98z
	 M463.531,371.886c-0.732,1.783-1.666,3.475-2.773,5.028c-1.696,2.378-3.754,4.415-6.118,6.053c-0.67,0.464-1.218,0.816-1.728,1.109
	l-184.373,106.49c-3.795,2.193-8.119,3.351-12.504,3.351c-4.381,0-8.703-1.157-12.495-3.346L59.132,384.143
	c-0.524-0.301-1.087-0.665-1.778-1.145c-3.881-2.699-6.908-6.446-8.757-10.826c-0.451-1.073-0.827-2.166-1.118-3.259
	c-0.567-2.123-0.854-4.282-0.854-6.418l-0.005-29.392h418.782l0.005,29.319C465.41,365.663,464.779,368.849,463.531,371.886z"/>
<g>
</g>
<g>
</g>
<g>
</g>
<g>
</g>
<g>
</g>
<g>
</g>
<g>
</g>
<g>
</g>
<g>
</g>
<g>
</g>
<g>
</g>
<g>
</g>
<g>
</g>
<g>
</g>
<g>
</g>
</svg>
