<?xml version="1.0" encoding="iso-8859-1"?>
<!-- Generator: Adobe Illustrator 19.0.0, SVG Export Plug-In . SVG Version: 6.00 Build 0)  -->
<svg version="1.1" id="Layer_1" xmlns="http://www.w3.org/2000/svg" xmlns:xlink="http://www.w3.org/1999/xlink" x="0px" y="0px"
	 viewBox="0 0 512 512" style="enable-background:new 0 0 512 512;" xml:space="preserve">
<path style="fill:#259245;" d="M473.104,371.851c0.176-0.611,0.338-1.228,0.479-1.85c0.047-0.201,0.089-0.401,0.131-0.603
	c0.113-0.541,0.213-1.085,0.3-1.634c0.037-0.236,0.076-0.473,0.11-0.711c0.076-0.545,0.131-1.093,0.18-1.643
	c0.021-0.225,0.047-0.448,0.063-0.674c0.052-0.767,0.084-1.537,0.083-2.313l0,0l0,0v-0.006l-0.006-40.904v-0.001l-0.005-26.204
	v-0.002l-0.001-4.213l-0.004-25.574l0,0l-0.008-48.824l-0.005-26.204l-0.006-40.985c-0.001-2.996-0.409-5.93-1.161-8.75
	c-0.405-1.517-0.915-2.997-1.521-4.435c-2.477-5.877-6.574-11.016-11.924-14.74c-0.784-0.545-1.584-1.071-2.421-1.554l-22.874-13.2
	l-21.414-12.358l-17.24-9.949l-65.921-38.046l-25.717-14.842l-19.288-11.132l-11.953-6.898c-10.533-6.078-23.509-6.077-34.04,0.006
	l-11.872,6.857l-19.288,11.14l-25.717,14.854l0,0l-65.915,38.07l-28.89,16.686L65.85,113.578l-11.282,6.517
	c-0.813,0.469-1.59,0.979-2.353,1.507c-3.272,2.266-6.072,5.068-8.331,8.236c-1.517,2.128-2.781,4.423-3.774,6.841
	c-1.654,4.031-2.557,8.399-2.557,12.899l0.007,40.912l0.005,26.204l0.012,73.738l0.001,4.011v0.849v0.002v0.013l0,0v0.005l0,0
	l0.005,26.2l0,0v1.864l0.002,12.617l0.004,26.497v0.006l0,0c0.001,0.773,0.033,1.539,0.084,2.304
	c0.016,0.224,0.042,0.446,0.063,0.669c0.048,0.55,0.105,1.096,0.178,1.638c0.033,0.236,0.072,0.471,0.11,0.706
	c0.086,0.546,0.184,1.087,0.298,1.626c0.042,0.201,0.084,0.403,0.13,0.603c0.14,0.615,0.298,1.222,0.471,1.825
	c0.033,0.113,0.061,0.227,0.095,0.34c0.909,3.042,2.239,5.93,3.941,8.589c0,0,0,0.001,0.001,0.002l0.001,0.001
	c1.172,1.832,2.517,3.551,4.026,5.137c0.049,0.052,0.098,0.106,0.147,0.158c0.71,0.735,1.454,1.439,2.233,2.112
	c0.125,0.11,0.254,0.215,0.382,0.322c0.785,0.661,1.594,1.3,2.444,1.89c0.784,0.545,1.584,1.07,2.421,1.554l22.552,13.015
	l21.414,12.359l17.561,10.135l91.644,52.89l19.288,11.132l11.953,6.898c10.533,6.078,23.509,6.077,34.04-0.006l11.872-6.857
	l19.288-11.14l25.717-14.853l55.554-32.086l10.363-5.985l26.36-15.224l21.408-12.365l13.813-7.978
	c0.813-0.469,1.59-0.979,2.353-1.507c0.85-0.59,1.659-1.226,2.445-1.883c0.129-0.107,0.259-0.213,0.386-0.323
	c0.779-0.671,1.526-1.374,2.236-2.11c0.046-0.048,0.09-0.098,0.136-0.146c3.725-3.891,6.475-8.609,8.019-13.765
	C473.047,372.067,473.074,371.958,473.104,371.851z"/>
<polygon style="fill:#ED1F34;" points="116.148,84.527 87.257,101.213 78.79,106.104 78.79,405.926 98.577,417.346 116.138,427.481 
	169.204,458.107 169.204,53.883 "/>
<path style="fill:#F2A643;" d="M139.066,394.204h-30.138c-4.994,0-9.041-4.047-9.041-9.041c0-4.993,4.047-9.041,9.041-9.041h30.138
	c4.994,0,9.041,4.048,9.041,9.041C148.107,390.157,144.06,394.204,139.066,394.204z"/>
<g>
	<path style="fill:#259245;" d="M139.066,342.539h-30.138c-4.994,0-9.041-4.048-9.041-9.041s4.047-9.041,9.041-9.041h30.138
		c4.994,0,9.041,4.048,9.041,9.041S144.06,342.539,139.066,342.539z"/>
	<path style="fill:#259245;" d="M139.066,290.874h-30.138c-4.994,0-9.041-4.048-9.041-9.041c0-4.994,4.047-9.041,9.041-9.041h30.138
		c4.994,0,9.041,4.047,9.041,9.041C148.107,286.826,144.06,290.874,139.066,290.874z"/>
	<path style="fill:#259245;" d="M139.066,239.209h-30.138c-4.994,0-9.041-4.047-9.041-9.041c0-4.993,4.047-9.041,9.041-9.041h30.138
		c4.994,0,9.041,4.048,9.041,9.041C148.107,235.161,144.06,239.209,139.066,239.209z"/>
	<path style="fill:#259245;" d="M139.066,187.544h-30.138c-4.994,0-9.041-4.048-9.041-9.041c0-4.993,4.047-9.041,9.041-9.041h30.138
		c4.994,0,9.041,4.048,9.041,9.041C148.107,183.496,144.06,187.544,139.066,187.544z"/>
	<path style="fill:#259245;" d="M139.066,135.879h-30.138c-4.994,0-9.041-4.048-9.041-9.041c0-4.994,4.047-9.041,9.041-9.041h30.138
		c4.994,0,9.041,4.047,9.041,9.041C148.107,131.83,144.06,135.879,139.066,135.879z"/>
</g>
<path style="fill:#FFFFFF;" d="M226.529,213.019c18.497,18.497,48.488,18.497,66.986,0c18.498-18.497,18.497-48.488-0.001-66.986
	c-0.556-0.557-1.125-1.095-1.7-1.618c8.669,2.429,16.856,7.04,23.676,13.86c21.185,21.186,21.185,55.533,0,76.719
	s-55.534,21.186-76.719,0c-6.82-6.82-11.431-15.006-13.86-23.676C225.434,211.894,225.972,212.462,226.529,213.019z
	 M266.422,138.583c-3.532-3.531-9.256-3.531-12.787,0c-3.531,3.531-3.531,9.256,0,12.787c3.532,3.531,9.256,3.531,12.787,0
	C269.953,147.838,269.953,142.114,266.422,138.583z M230.504,170.774c-3.531-3.531-9.256-3.531-12.786,0
	c-3.531,3.531-3.531,9.256,0,12.786c3.531,3.53,9.256,3.531,12.786,0C234.034,180.029,234.035,174.305,230.504,170.774z
	 M240.848,113.009c-3.531-3.531-9.256-3.531-12.786,0c-3.531,3.531-3.531,9.256,0,12.787c3.531,3.531,9.256,3.531,12.786,0
	C244.379,122.265,244.379,116.54,240.848,113.009z M204.932,145.201c-3.532-3.531-9.256-3.531-12.787,0
	c-3.531,3.531-3.531,9.256,0,12.786c3.532,3.531,9.256,3.531,12.787,0C208.463,154.457,208.463,148.732,204.932,145.201z
	 M236.608,142.823c-3.531-3.531-9.256-3.531-12.786,0c-3.531,3.531-3.531,9.256,0,12.787s9.256,3.531,12.786,0
	C240.138,152.079,240.138,146.354,236.608,142.823z"/>
<path d="M294.254,135.709c-4.035-1.131-8.319,0.659-10.349,4.327s-1.274,8.248,1.828,11.068c0.471,0.428,0.937,0.869,1.39,1.322
	c14.944,14.944,14.944,39.257,0.001,54.199c-7.239,7.239-16.864,11.226-27.1,11.226c-10.237,0-19.862-3.987-27.101-11.227
	c-0.451-0.451-0.886-0.913-1.31-1.379c-2.817-3.108-7.399-3.869-11.072-1.841c-3.671,2.029-5.465,6.315-4.334,10.353
	c2.916,10.412,8.51,19.967,16.172,27.631c11.954,11.954,27.848,18.537,44.753,18.536c16.905,0,32.8-6.583,44.754-18.537
	c24.676-24.676,24.677-64.827,0-89.504C314.219,144.219,304.666,138.626,294.254,135.709z M309.096,228.6
	c-8.537,8.539-19.891,13.241-31.967,13.241c-8.175,0-16.02-2.157-22.883-6.198c1.906,0.192,3.834,0.289,5.776,0.289
	c15.067,0,29.231-5.867,39.887-16.522c12.471-12.472,17.871-29.379,16.197-45.692C326.288,191.045,323.952,213.747,309.096,228.6z
	 M483.457,149.505c0-3.709-0.493-7.437-1.463-11.075c-0.503-1.887-1.15-3.776-1.928-5.623c-3.18-7.543-8.399-13.99-15.091-18.647
	c-1.113-0.775-2.086-1.398-3.066-1.964L277.5,5.768C270.963,1.995,263.516,0,255.966,0c-7.555,0-15.005,1.998-21.547,5.776
	L50.049,112.263c-0.943,0.545-1.89,1.149-2.985,1.906c-4.086,2.831-7.632,6.336-10.545,10.421c-1.911,2.68-3.516,5.592-4.776,8.658
	c-2.146,5.23-3.234,10.724-3.234,16.332l0.036,212.917c0,0.927,0.034,1.882,0.105,2.917c0.017,0.241,0.039,0.48,0.064,0.72
	l0.013,0.129c0.06,0.693,0.133,1.384,0.23,2.095c0.036,0.26,0.076,0.52,0.131,0.863c0.111,0.697,0.236,1.389,0.381,2.08
	c0.054,0.256,0.108,0.51,0.164,0.753c0.177,0.776,0.377,1.544,0.604,2.339c0.04,0.148,0.082,0.297,0.115,0.403
	c1.138,3.811,2.804,7.451,4.952,10.821c0.013,0.019,0.025,0.037,0.036,0.057l0,0c0.002,0.004,0.005,0.007,0.007,0.011
	c1.484,2.319,3.197,4.503,5.051,6.45c0.048,0.052,0.176,0.19,0.227,0.241c0.897,0.929,1.847,1.829,2.816,2.667l0.489,0.412
	c1.098,0.923,2.111,1.703,3.097,2.391c1.115,0.775,2.087,1.397,3.062,1.96l184.411,106.428c6.539,3.773,13.985,5.768,21.534,5.768
	c7.555,0,15.005-1.998,21.547-5.776l184.37-106.487c0.943-0.545,1.89-1.149,2.987-1.907c0.987-0.686,2-1.464,3.107-2.389
	l0.475-0.398c0.986-0.851,1.938-1.749,2.85-2.69l0.153-0.163c4.695-4.904,8.205-10.929,10.126-17.35
	c0.051-0.165,0.098-0.33,0.137-0.481c0.224-0.774,0.427-1.554,0.609-2.344c0.058-0.252,0.111-0.504,0.168-0.769
	c0.142-0.684,0.269-1.372,0.379-2.064l0.019-0.121c0.041-0.257,0.081-0.512,0.121-0.791c0.093-0.687,0.168-1.379,0.227-2.063
	l0.014-0.143c0.025-0.24,0.047-0.479,0.063-0.72c0.072-1.058,0.106-2.019,0.105-2.931L483.457,149.505z M160.162,69.546V442.45
	l-72.331-41.744V111.323L160.162,69.546z M57.356,382.999c-0.538-0.375-1.108-0.817-1.814-1.41l-0.264-0.221
	c-0.568-0.491-1.12-1.013-1.574-1.484c-0.035-0.037-0.136-0.147-0.172-0.184c-1.085-1.138-2.069-2.391-2.926-3.723
	c-0.011-0.018-0.023-0.035-0.034-0.053c-1.257-1.966-2.231-4.087-2.886-6.281l-0.076-0.269c-0.127-0.444-0.244-0.891-0.348-1.354
	l-0.095-0.44c-0.081-0.389-0.153-0.78-0.219-1.199c0-0.002-0.02-0.122-0.02-0.124l-0.059-0.374c-0.054-0.4-0.094-0.804-0.131-1.22
	l-0.045-0.475c-0.037-0.561-0.063-1.125-0.063-1.7l-0.036-212.909c0-3.24,0.632-6.427,1.879-9.465
	c0.732-1.783,1.666-3.474,2.773-5.027c1.696-2.378,3.754-4.415,6.114-6.051c0.674-0.465,1.222-0.819,1.731-1.111l10.66-6.157
	v268.503l-10.617-6.128C58.607,383.839,58.042,383.475,57.356,382.999z M465.349,364.1l-0.051,0.518
	c-0.035,0.406-0.076,0.813-0.128,1.193l-0.083,0.533c-0.064,0.404-0.137,0.805-0.218,1.191l-0.096,0.446
	c-0.105,0.457-0.224,0.909-0.362,1.386l-0.063,0.224c-1.13,3.76-3.163,7.25-5.908,10.118l-0.077,0.084
	c-0.515,0.532-1.068,1.052-1.639,1.546l-0.288,0.24c-0.671,0.562-1.259,1.016-1.788,1.383c-0.674,0.465-1.222,0.819-1.731,1.111
	l-184.373,106.49c-3.796,2.193-8.12,3.351-12.504,3.351c-4.381,0-8.703-1.157-12.495-3.347l-65.296-37.685V59.102l65.217-37.668
	c3.796-2.192,8.12-3.351,12.504-3.351c4.381,0,8.701,1.157,12.495,3.347l184.41,106.428c0.527,0.304,1.09,0.667,1.777,1.145
	c3.881,2.7,6.908,6.446,8.756,10.824c0.452,1.074,0.828,2.169,1.119,3.26c0.567,2.124,0.854,4.283,0.854,6.419l0.035,212.931
	C465.411,363.003,465.386,363.566,465.349,364.1z"/>
<g>
</g>
<g>
</g>
<g>
</g>
<g>
</g>
<g>
</g>
<g>
</g>
<g>
</g>
<g>
</g>
<g>
</g>
<g>
</g>
<g>
</g>
<g>
</g>
<g>
</g>
<g>
</g>
<g>
</g>
</svg>
