<?xml version="1.0" encoding="iso-8859-1"?>
<!-- Generator: Adobe Illustrator 19.0.0, SVG Export Plug-In . SVG Version: 6.00 Build 0)  -->
<svg version="1.1" id="Layer_1" xmlns="http://www.w3.org/2000/svg" xmlns:xlink="http://www.w3.org/1999/xlink" x="0px" y="0px"
	 viewBox="0 0 511.999 511.999" style="enable-background:new 0 0 511.999 511.999;" xml:space="preserve">
<path style="fill:#FFFFFF;" d="M473.103,371.851c0.176-0.611,0.338-1.228,0.479-1.85c0.047-0.201,0.089-0.401,0.131-0.603
	c0.113-0.541,0.213-1.085,0.3-1.634c0.037-0.236,0.076-0.473,0.11-0.711c0.076-0.545,0.131-1.093,0.18-1.643
	c0.021-0.225,0.047-0.447,0.063-0.674c0.052-0.767,0.084-1.537,0.083-2.313l0,0l0,0v-0.006l-0.006-40.904v-0.001l-0.005-26.204
	v-0.002l-0.001-4.213l-0.004-25.574l0,0l-0.008-48.824l-0.005-26.204l-0.006-40.985c-0.001-2.996-0.409-5.93-1.161-8.75
	c-0.405-1.517-0.915-2.997-1.521-4.435c-2.477-5.877-6.574-11.016-11.924-14.74c-0.784-0.545-1.584-1.071-2.421-1.554l-22.874-13.2
	L413.1,94.467l-17.24-9.949l-65.921-38.046l-25.717-14.842l-19.288-11.132l-11.953-6.898c-10.533-6.078-23.509-6.077-34.04,0.006
	l-11.872,6.857l-19.288,11.14l-25.717,14.854l0,0l-65.915,38.07l-28.89,16.686l-21.408,12.365l-11.282,6.517
	c-0.813,0.469-1.59,0.979-2.353,1.507c-3.272,2.266-6.072,5.068-8.331,8.236c-1.517,2.128-2.781,4.423-3.774,6.841
	c-1.654,4.031-2.557,8.399-2.557,12.899l0.007,40.912l0.005,26.204l0.012,73.738l0.001,4.011v0.849v0.002v0.013l0,0v0.005l0,0
	l0.005,26.2l0,0v1.864l0.002,12.617l0.004,26.497v0.006l0,0c0.001,0.773,0.033,1.539,0.084,2.304
	c0.016,0.224,0.042,0.446,0.061,0.669c0.049,0.55,0.106,1.096,0.18,1.638c0.033,0.236,0.072,0.471,0.11,0.706
	c0.086,0.546,0.184,1.087,0.297,1.626c0.043,0.201,0.086,0.403,0.131,0.603c0.14,0.615,0.298,1.222,0.471,1.825
	c0.033,0.113,0.061,0.227,0.095,0.34c0.909,3.042,2.239,5.93,3.941,8.589v0.001l0.002,0.002c1.172,1.832,2.517,3.551,4.026,5.137
	c0.049,0.052,0.098,0.106,0.147,0.158c0.71,0.735,1.454,1.439,2.233,2.112c0.125,0.11,0.256,0.215,0.382,0.322
	c0.786,0.661,1.594,1.3,2.444,1.89c0.784,0.545,1.584,1.07,2.421,1.554l22.552,13.015l21.414,12.359l17.561,10.135l91.644,52.89
	l19.288,11.132l11.953,6.898c10.533,6.078,23.509,6.077,34.04-0.006l11.872-6.857l19.288-11.14l25.717-14.853l55.554-32.086
	l10.363-5.985l26.36-15.224l21.408-12.365l13.813-7.978c0.813-0.469,1.59-0.979,2.352-1.507c0.851-0.59,1.66-1.226,2.446-1.883
	c0.129-0.107,0.259-0.213,0.386-0.322c0.779-0.673,1.526-1.375,2.236-2.11c0.046-0.048,0.09-0.098,0.136-0.146
	c3.725-3.891,6.475-8.609,8.019-13.765C473.045,372.067,473.073,371.958,473.103,371.851z"/>
<g>
	<path style="fill:#ED1F34;" d="M457.435,391.905c0.813-0.469,1.59-0.979,2.352-1.507c0.852-0.59,1.66-1.226,2.446-1.883
		c0.129-0.107,0.259-0.213,0.386-0.323c0.779-0.671,1.526-1.374,2.236-2.11c0.047-0.048,0.09-0.098,0.136-0.146
		c3.725-3.891,6.475-8.609,8.019-13.765c0.033-0.106,0.06-0.215,0.09-0.322c0.176-0.611,0.338-1.228,0.479-1.85
		c0.03-0.134,0.059-0.266,0.087-0.401l-170.4-113.6L473.64,142.415c-0.121-0.557-0.241-1.113-0.388-1.661
		c-0.405-1.517-0.915-2.997-1.52-4.435c-2.479-5.877-6.575-11.016-11.925-14.74c-0.784-0.545-1.584-1.071-2.421-1.554l-22.874-13.2
		l-1.086-0.627L255.995,224.485L78.593,106.216l-12.745,7.361l-11.282,6.517c-0.813,0.469-1.59,0.979-2.353,1.507
		c-3.273,2.266-6.072,5.068-8.331,8.236c-1.517,2.128-2.781,4.423-3.774,6.841c-0.756,1.843-1.347,3.759-1.775,5.723l170.399,113.6
		L96.745,330.658l-28.327,18.886l-30.067,20.044c0.031,0.152,0.064,0.304,0.099,0.454c0.14,0.615,0.298,1.222,0.471,1.825
		c0.033,0.113,0.061,0.227,0.095,0.34c0.909,3.042,2.239,5.93,3.94,8.589l0.001,0.001l0.002,0.002
		c1.172,1.832,2.517,3.551,4.026,5.137c0.049,0.052,0.098,0.106,0.147,0.158c0.71,0.735,1.454,1.441,2.233,2.112
		c0.125,0.11,0.256,0.215,0.382,0.322c0.786,0.661,1.594,1.3,2.444,1.89c0.784,0.545,1.584,1.07,2.421,1.554l22.552,13.015
		l1.408,0.813l177.431-118.288l177.407,118.271l10.216-5.901L457.435,391.905z"/>
	<path style="fill:#ED1F34;" d="M231.849,114.266c-2.71,5.999-4.281,13.075-4.281,20.66c0,30.742,28.432,45.643,28.432,45.643
		s28.432-14.901,28.432-45.643c0-7.585-1.571-14.662-4.281-20.66C280.151,114.266,231.849,114.266,231.849,114.266z"/>
</g>
<path d="M251.804,188.578c1.314,0.688,2.756,1.033,4.196,1.033s2.884-0.345,4.196-1.033c1.359-0.712,33.277-17.853,33.277-53.652
	c0-8.592-1.758-17.023-5.082-24.383c-1.464-3.238-4.687-5.319-8.24-5.319h-48.303c-3.553,0-6.776,2.081-8.24,5.319
	c-3.325,7.358-5.082,15.79-5.082,24.383C218.526,170.726,250.445,187.866,251.804,188.578z M238.166,123.308h35.669
	c1.026,3.666,1.556,7.601,1.556,11.619c0,18.414-12.578,30.005-19.391,34.932c-6.812-4.927-19.391-16.517-19.391-34.932
	C236.609,130.909,237.141,126.974,238.166,123.308z M483.456,149.505c0-3.709-0.493-7.437-1.463-11.075
	c-0.503-1.887-1.15-3.777-1.928-5.623c-3.18-7.542-8.399-13.99-15.091-18.646c-1.113-0.775-2.086-1.398-3.066-1.964L277.499,5.768
	C270.962,1.995,263.515,0,255.965,0c-7.555,0-15.005,1.998-21.547,5.776L50.048,112.263c-0.943,0.545-1.89,1.149-2.985,1.907
	c-4.086,2.831-7.632,6.335-10.545,10.419c-1.911,2.681-3.517,5.592-4.776,8.658c-2.146,5.23-3.234,10.724-3.234,16.332
	l0.036,212.917c0,0.927,0.034,1.882,0.105,2.917c0.017,0.241,0.039,0.481,0.064,0.721l0.013,0.127
	c0.06,0.694,0.133,1.384,0.229,2.094c0.036,0.259,0.077,0.516,0.133,0.866c0.111,0.697,0.236,1.389,0.382,2.084
	c0.054,0.253,0.108,0.508,0.163,0.745c0.176,0.778,0.377,1.545,0.604,2.341c0.04,0.149,0.082,0.298,0.115,0.403
	c1.143,3.828,2.821,7.485,4.986,10.873c0.025,0.039,0.049,0.076,0.075,0.115c1.471,2.283,3.16,4.431,4.998,6.363
	c0.046,0.051,0.168,0.18,0.215,0.228c0.892,0.925,1.841,1.824,2.826,2.675l0.481,0.405c1.098,0.923,2.111,1.705,3.097,2.391
	c1.115,0.775,2.087,1.397,3.062,1.96L234.501,506.23c6.539,3.773,13.985,5.768,21.534,5.768c7.555,0,15.005-1.998,21.547-5.776
	l184.37-106.487c0.943-0.545,1.89-1.149,2.987-1.908c0.984-0.682,1.996-1.46,3.107-2.388l0.475-0.398
	c0.986-0.85,1.938-1.748,2.85-2.69l0.153-0.162c4.695-4.904,8.205-10.929,10.124-17.344c0.053-0.169,0.101-0.339,0.14-0.486
	c0.224-0.773,0.427-1.554,0.609-2.345c0.058-0.253,0.112-0.508,0.168-0.769c0.142-0.684,0.269-1.372,0.379-2.067l0.02-0.121
	c0.04-0.256,0.08-0.511,0.119-0.787c0.093-0.686,0.168-1.379,0.227-2.063l0.014-0.145c0.025-0.239,0.047-0.479,0.063-0.72
	c0.072-1.058,0.106-2.019,0.105-2.931L483.456,149.505z M319.569,255.999l145.805-97.205l0.033,194.43L319.569,255.999z
	 M243.461,21.434c3.796-2.192,8.12-3.351,12.504-3.351c4.381,0,8.701,1.159,12.495,3.347l147.843,85.323L256,213.621L95.718,106.767
	L243.461,21.434z M268.54,490.566c-3.796,2.193-8.12,3.351-12.504,3.351c-4.381,0-8.703-1.157-12.495-3.347L95.698,405.246
	l160.303-106.868l160.281,106.855L268.54,490.566z M458.444,379.705l-0.083,0.09c-0.515,0.532-1.068,1.052-1.639,1.545l-0.286,0.239
	c-0.676,0.564-1.263,1.019-1.79,1.384c-0.674,0.465-1.222,0.819-1.731,1.111l-19.164,11.069L261.017,279.989
	c-3.038-2.025-6.993-2.025-10.03,0L78.227,395.163l-19.095-11.021c-0.526-0.303-1.09-0.668-1.777-1.144
	c-0.538-0.375-1.108-0.817-1.814-1.41l-0.262-0.217c-0.573-0.495-1.125-1.017-1.577-1.486c-0.033-0.035-0.137-0.148-0.172-0.183
	c-1.086-1.14-2.072-2.395-2.929-3.73c-0.011-0.016-0.02-0.031-0.029-0.047c-0.546-0.852-1.027-1.738-1.462-2.642l24.323-16.215
	c4.154-2.769,5.278-8.383,2.507-12.537c-2.769-4.155-8.383-5.278-12.537-2.507l-16.776,11.184l-0.034-194.431l145.84,97.226
	L91.73,323.135c-4.154,2.769-5.278,8.383-2.507,12.537c1.742,2.614,4.609,4.028,7.531,4.028c1.724,0,3.466-0.492,5.007-1.52
	l111.987-74.658c2.516-1.677,4.026-4.499,4.026-7.522s-1.511-5.847-4.026-7.522L49.099,138.712c0.615-1.271,1.331-2.487,2.143-3.626
	c1.696-2.378,3.754-4.415,6.114-6.051c0.674-0.465,1.222-0.819,1.731-1.111l19.164-11.069L250.985,232.01
	c1.519,1.013,3.267,1.519,5.015,1.519s3.496-0.506,5.015-1.519l172.759-115.173l19.095,11.02c0.527,0.304,1.09,0.667,1.777,1.145
	c3.547,2.469,6.37,5.818,8.242,9.719L298.256,248.477c-2.516,1.677-4.026,4.499-4.026,7.522c0,3.023,1.51,5.847,4.026,7.522
	l164.641,109.763C461.758,375.63,460.261,377.808,458.444,379.705z"/>
<g>
</g>
<g>
</g>
<g>
</g>
<g>
</g>
<g>
</g>
<g>
</g>
<g>
</g>
<g>
</g>
<g>
</g>
<g>
</g>
<g>
</g>
<g>
</g>
<g>
</g>
<g>
</g>
<g>
</g>
</svg>
