<?xml version="1.0" encoding="iso-8859-1"?>
<!-- Generator: Adobe Illustrator 19.0.0, SVG Export Plug-In . SVG Version: 6.00 Build 0)  -->
<svg version="1.1" id="Layer_1" xmlns="http://www.w3.org/2000/svg" xmlns:xlink="http://www.w3.org/1999/xlink" x="0px" y="0px"
	 viewBox="0 0 512 512" style="enable-background:new 0 0 512 512;" xml:space="preserve">
<path style="fill:#FFFFFF;" d="M473.104,371.851c0.176-0.611,0.336-1.228,0.479-1.85c0.046-0.2,0.089-0.401,0.131-0.603
	c0.113-0.54,0.213-1.085,0.3-1.634c0.037-0.236,0.076-0.473,0.11-0.711c0.075-0.545,0.131-1.092,0.18-1.643
	c0.021-0.225,0.047-0.447,0.063-0.674c0.052-0.767,0.084-1.537,0.084-2.313l0,0l0,0v-0.006l-0.006-40.904v-0.002l-0.005-26.203
	v-0.002v-4.213l-0.004-25.574l0,0l-0.008-48.824l-0.005-26.204l-0.006-40.984c0-2.995-0.407-5.931-1.16-8.75
	c-0.405-1.517-0.915-2.997-1.521-4.435c-2.477-5.877-6.574-11.017-11.925-14.74c-0.784-0.545-1.584-1.071-2.419-1.553
	l-22.874-13.202l-21.414-12.358l-17.239-9.949l-65.928-38.046L304.22,31.629l-19.288-11.132l-11.953-6.899
	c-10.533-6.078-23.509-6.076-34.04,0.007l-11.872,6.857l-19.288,11.14l-25.717,14.854v-0.001l-65.915,38.072l-28.89,16.686
	l-21.408,12.365l-11.282,6.517c-0.811,0.468-1.59,0.979-2.353,1.506c-3.272,2.268-6.073,5.068-8.333,8.235
	c-1.517,2.129-2.781,4.424-3.773,6.843c-1.655,4.031-2.558,8.399-2.557,12.899l0.006,40.912l0.005,26.204l0.012,73.738v4.011v0.85
	v0.001v0.013l0,0v0.005l0,0l0.005,26.2l0,0v1.864l0.002,12.617l0.004,26.497v0.006l0,0c0,0.773,0.033,1.539,0.084,2.304
	c0.016,0.224,0.042,0.446,0.061,0.669c0.048,0.548,0.105,1.096,0.18,1.638c0.033,0.236,0.072,0.471,0.108,0.706
	c0.087,0.545,0.186,1.087,0.298,1.626c0.042,0.201,0.086,0.403,0.131,0.603c0.14,0.615,0.298,1.222,0.471,1.825
	c0.033,0.113,0.061,0.227,0.095,0.34c0.909,3.042,2.24,5.93,3.94,8.589l0.001,0.001l0.001,0.001
	c1.172,1.834,2.517,3.553,4.026,5.138c0.051,0.052,0.099,0.106,0.148,0.158c0.709,0.735,1.454,1.439,2.231,2.113
	c0.125,0.11,0.254,0.215,0.382,0.322c0.786,0.661,1.595,1.298,2.445,1.89c0.784,0.545,1.584,1.07,2.419,1.553l22.552,13.015
	l21.414,12.36l17.561,10.134l91.644,52.89l19.288,11.132l11.953,6.899c10.533,6.078,23.509,6.076,34.04-0.007l11.872-6.857
	l19.288-11.14l25.717-14.853l55.554-32.086l10.363-5.985l26.36-15.225l21.408-12.365l13.813-7.978
	c0.811-0.468,1.59-0.979,2.353-1.506c0.851-0.588,1.659-1.226,2.446-1.884c0.128-0.107,0.258-0.212,0.385-0.322
	c0.78-0.673,1.526-1.375,2.237-2.11c0.047-0.048,0.09-0.098,0.136-0.146c3.724-3.891,6.476-8.609,8.02-13.765
	C473.045,372.067,473.072,371.958,473.104,371.851z"/>
<path style="fill:#ED1F34;" d="M459.809,121.581c-0.784-0.545-1.584-1.07-2.419-1.553l-22.874-13.202l-21.414-12.358l-17.239-9.949
	l-65.926-38.047L304.22,31.629l-19.288-11.132l-11.953-6.899c-10.533-6.078-23.509-6.076-34.04,0.007l-11.872,6.857l-19.288,11.14
	l-25.717,14.854v-0.001l-65.915,38.072l-28.89,16.686l-21.408,12.365l-10.644,6.147l19.245,12.832H469.85
	C467.376,128.253,463.98,124.483,459.809,121.581z"/>
<path style="fill:#164FCE;" d="M199.099,214.853L56.41,119.724l-0.639,0.371c-0.811,0.468-1.59,0.979-2.353,1.506
	c-3.272,2.268-6.073,5.068-8.333,8.235c-1.517,2.129-2.781,4.424-3.773,6.843c-1.655,4.031-2.558,8.399-2.557,12.899l0.006,40.912
	l0.005,26.204l0.012,73.738v4.011v0.849v0.002v0.013v0.005l0.005,26.2v0.001v1.863l0.002,12.617l0.004,26.497v0.006
	c0,0.773,0.033,1.539,0.084,2.304c0.016,0.225,0.042,0.445,0.061,0.669c0.048,0.548,0.105,1.096,0.18,1.638
	c0.033,0.236,0.072,0.471,0.108,0.706c0.087,0.545,0.186,1.086,0.298,1.626c0.042,0.201,0.086,0.403,0.131,0.603
	c0.14,0.615,0.298,1.222,0.471,1.826c0.033,0.112,0.061,0.227,0.095,0.339c0.909,3.042,2.24,5.93,3.94,8.588l0.001,0.002
	l0.001,0.001c1.172,1.834,2.517,3.553,4.026,5.138c0.051,0.052,0.099,0.106,0.148,0.158c0.709,0.737,1.454,1.441,2.231,2.114
	c0.125,0.108,0.254,0.213,0.382,0.321c0.786,0.661,1.595,1.298,2.445,1.89c0.784,0.545,1.584,1.07,2.419,1.553l0.562,0.325
	l142.723-95.149l61.723-41.148L199.099,214.853z"/>
<g>
	<polygon style="fill:#ED1F34;" points="197.893,214.853 259.616,255.999 197.893,297.147 474.44,297.147 474.44,295.307 
		474.44,295.304 474.438,291.091 474.435,265.517 474.426,216.693 474.425,214.853 	"/>
	<path style="fill:#ED1F34;" d="M55.172,392.297l21.99,12.689l21.414,12.36l17.561,10.134l91.644,52.89l19.288,11.132l11.953,6.899
		c10.533,6.078,23.509,6.076,34.04-0.007l11.872-6.857l19.288-11.14l25.717-14.853l55.554-32.086l10.363-5.985l26.36-15.225
		l21.408-12.365l13.813-7.978c0.811-0.468,1.59-0.979,2.353-1.506c0.851-0.588,1.659-1.226,2.446-1.884
		c0.128-0.107,0.258-0.212,0.385-0.323c0.78-0.671,1.526-1.374,2.237-2.108c0.047-0.047,0.09-0.096,0.136-0.146
		c1.884-1.97,3.518-4.151,4.874-6.494H74.448L55.172,392.297z"/>
</g>
<polygon style="fill:#FFFFFF;" points="67.703,232.633 103.839,230.765 116.781,196.975 129.724,230.765 165.859,232.633 
	137.722,255.383 147.113,290.328 116.781,270.598 86.449,290.328 95.84,255.383 "/>
<path d="M62.018,239.663l23.563,19.053l-7.865,29.265c-0.972,3.617,0.387,7.46,3.418,9.661c3.031,2.202,7.104,2.31,10.245,0.265
	l25.403-16.523l25.403,16.523c1.502,0.978,3.216,1.462,4.929,1.462c1.869,0,3.735-0.577,5.315-1.728
	c3.031-2.201,4.389-6.044,3.418-9.661l-7.865-29.265l23.563-19.053c2.914-2.354,4.072-6.261,2.914-9.824
	c-1.157-3.562-4.392-6.043-8.132-6.236l-30.263-1.564l-10.839-28.3c-1.339-3.497-4.698-5.807-8.443-5.807s-7.104,2.31-8.443,5.807
	l-10.839,28.3l-30.263,1.564c-3.741,0.193-6.975,2.674-8.132,6.236C57.946,233.401,59.105,237.309,62.018,239.663z M104.305,239.795
	c3.571-0.184,6.698-2.457,7.977-5.796l4.499-11.747l4.499,11.747c1.279,3.339,4.406,5.61,7.977,5.796l12.562,0.649l-9.782,7.909
	c-2.78,2.248-3.975,5.924-3.046,9.377l3.265,12.148l-10.545-6.858c-1.498-0.975-3.214-1.462-4.929-1.462
	c-1.715,0-3.431,0.487-4.929,1.462l-10.545,6.858l3.265-12.148c0.928-3.453-0.266-7.128-3.046-9.377l-9.782-7.909L104.305,239.795z
	 M483.457,149.503c0-3.711-0.494-7.438-1.465-11.078c-0.506-1.899-1.155-3.789-1.925-5.615c-3.179-7.544-8.398-13.991-15.096-18.652
	c-1.118-0.778-2.089-1.4-3.062-1.961L277.499,5.767C270.96,1.994,263.513,0,255.964,0c-7.555,0-15.005,1.996-21.547,5.776
	L50.042,112.265c-0.95,0.549-1.896,1.152-2.978,1.902c-4.086,2.831-7.635,6.335-10.547,10.421c-1.912,2.683-3.519,5.597-4.775,8.658
	c-2.147,5.23-3.234,10.724-3.234,16.334l0.035,212.917c0,0.921,0.034,1.876,0.105,2.919c0.016,0.234,0.037,0.469,0.061,0.702
	l0.014,0.143c0.061,0.693,0.134,1.385,0.231,2.095c0.034,0.24,0.071,0.477,0.108,0.716l0.025,0.16c0.11,0.69,0.235,1.378,0.38,2.075
	c0.053,0.254,0.107,0.508,0.163,0.746c0.177,0.779,0.377,1.547,0.608,2.351l0.112,0.392c1.144,3.829,2.821,7.487,4.988,10.875
	c1.484,2.322,3.198,4.509,5.089,6.494c0.04,0.042,0.153,0.164,0.195,0.206c0.896,0.929,1.847,1.83,2.81,2.663l0.498,0.42
	c1.093,0.919,2.105,1.699,3.096,2.388c1.096,0.763,2.096,1.403,3.064,1.963l184.411,106.428c6.538,3.773,13.985,5.768,21.534,5.768
	l0,0c7.554,0,15.005-1.998,21.547-5.776l184.372-106.49c0.945-0.545,1.89-1.149,2.982-1.905c0.986-0.682,1.999-1.461,3.181-2.448
	c0.14-0.116,0.278-0.231,0.405-0.34c0.99-0.854,1.941-1.752,2.84-2.681l0.159-0.171c4.695-4.904,8.206-10.929,10.149-17.421
	l0.116-0.406c0.224-0.775,0.427-1.556,0.605-2.34l0.169-0.773c0.143-0.684,0.27-1.374,0.398-2.177
	c0.042-0.259,0.082-0.518,0.121-0.792c0.094-0.69,0.168-1.383,0.228-2.071l0.014-0.143c0.024-0.24,0.047-0.48,0.063-0.721
	c0.071-1.043,0.105-1.999,0.105-2.931L483.457,149.503z M465.409,362.423c0,0.571-0.025,1.138-0.061,1.678l-0.051,0.52
	c-0.035,0.404-0.076,0.805-0.129,1.191l-0.063,0.407c0,0.004-0.02,0.125-0.02,0.127c-0.064,0.404-0.137,0.804-0.231,1.251
	l-0.084,0.387c-0.104,0.457-0.222,0.909-0.347,1.341l-0.071,0.254c-0.083,0.277-0.182,0.551-0.275,0.826H116.364l96.321-64.214
	h252.714L465.409,362.423z M276.687,248.477l-36.877-24.585h225.577l0.011,64.216H239.809l36.877-24.585
	c2.515-1.677,4.026-4.499,4.026-7.522C280.712,252.976,279.202,250.154,276.687,248.477z M243.462,21.434
	c3.795-2.193,8.119-3.351,12.504-3.351c4.381,0,8.701,1.157,12.495,3.347l176.881,102.083H411.19c-4.993,0-9.041,4.047-9.041,9.041
	c0,4.994,4.048,9.041,9.041,9.041h52.877c0.166,0.495,0.322,0.992,0.454,1.491c0.565,2.121,0.854,4.281,0.854,6.418l0.01,56.304
	H212.685l-96.321-64.214h257.962c4.993,0,9.041-4.047,9.041-9.041c0-4.994-4.048-9.041-9.041-9.041H89.24l-10.452-6.968
	L243.462,21.434z M50.528,375.856c-1.237-1.948-2.195-4.047-2.849-6.239l-0.069-0.246c-0.127-0.442-0.244-0.888-0.351-1.354
	l-0.093-0.428c-0.082-0.395-0.154-0.793-0.217-1.183l-0.082-0.523c-0.054-0.4-0.096-0.803-0.13-1.203l-0.048-0.493
	c-0.039-0.561-0.064-1.125-0.064-1.7l-0.035-212.91c0-3.24,0.632-6.425,1.881-9.467c0.729-1.781,1.662-3.472,2.769-5.025
	c1.696-2.378,3.755-4.415,6.119-6.053c0.668-0.463,1.216-0.815,1.725-1.109l2.236-1.291l20.114,13.41
	c0.01,0.006,0.019,0.013,0.029,0.019l123.42,82.28c0.006,0.005,0.013,0.008,0.02,0.013l50.467,33.645l-50.467,33.645
	c-0.007,0.005-0.013,0.008-0.02,0.013L81.465,371.938c-0.01,0.006-0.019,0.013-0.029,0.021l-20.145,13.431l-2.16-1.246
	c-0.529-0.305-1.095-0.669-1.775-1.143c-0.538-0.375-1.126-0.829-1.787-1.385l-0.293-0.246c-0.568-0.489-1.119-1.011-1.589-1.498
	c-0.027-0.029-0.129-0.137-0.157-0.168c-1.099-1.155-2.094-2.424-2.956-3.772C50.558,375.904,50.544,375.88,50.528,375.856z
	 M268.538,490.566c-3.796,2.192-8.119,3.351-12.502,3.351c-4.381,0-8.701-1.159-12.496-3.348L78.763,395.472l10.477-6.985h356.035
	L268.538,490.566z"/>
<g>
</g>
<g>
</g>
<g>
</g>
<g>
</g>
<g>
</g>
<g>
</g>
<g>
</g>
<g>
</g>
<g>
</g>
<g>
</g>
<g>
</g>
<g>
</g>
<g>
</g>
<g>
</g>
<g>
</g>
</svg>
