<?xml version="1.0" encoding="iso-8859-1"?>
<!-- Generator: Adobe Illustrator 19.0.0, SVG Export Plug-In . SVG Version: 6.00 Build 0)  -->
<svg version="1.1" id="Layer_1" xmlns="http://www.w3.org/2000/svg" xmlns:xlink="http://www.w3.org/1999/xlink" x="0px" y="0px"
	 viewBox="0 0 511.999 511.999" style="enable-background:new 0 0 511.999 511.999;" xml:space="preserve">
<path style="fill:#FFE000;" d="M473.103,371.851c0.176-0.611,0.336-1.227,0.479-1.849c0.046-0.201,0.089-0.401,0.131-0.603
	c0.113-0.541,0.213-1.085,0.3-1.634c0.037-0.237,0.076-0.474,0.11-0.711c0.075-0.545,0.131-1.093,0.18-1.644
	c0.021-0.225,0.047-0.448,0.063-0.674c0.052-0.767,0.084-1.537,0.084-2.313l0,0l0,0v-0.006l-0.006-40.904v-0.001l-0.005-26.204
	v-0.002v-4.213l-0.004-25.574l0,0l-0.008-48.824l-0.005-26.204l-0.006-40.985c0-2.996-0.408-5.93-1.16-8.75
	c-0.405-1.517-0.915-2.997-1.521-4.435c-2.477-5.877-6.574-11.016-11.925-14.74c-0.784-0.545-1.584-1.071-2.419-1.554l-22.874-13.2
	l-21.414-12.358l-17.239-9.949l-65.926-38.046l-25.717-14.842l-19.288-11.132l-11.953-6.898c-10.533-6.078-23.509-6.077-34.04,0.006
	l-11.872,6.857l-19.288,11.14l-25.717,14.854l0,0l-65.918,38.07l-28.889,16.686l-21.406,12.365l-11.284,6.517
	c-0.811,0.469-1.59,0.979-2.353,1.507c-3.272,2.266-6.073,5.068-8.333,8.236c-1.517,2.128-2.781,4.423-3.773,6.841
	c-1.655,4.031-2.558,8.399-2.557,12.899l0.006,40.912l0.005,26.204l0.012,73.738v4.011v0.85v0.001v0.013l0,0v0.005l0,0l0.005,26.2
	v0.001v1.863l0.002,12.617l0.004,26.497v0.006l0,0c0,0.773,0.033,1.539,0.084,2.305c0.016,0.224,0.042,0.445,0.061,0.668
	c0.048,0.55,0.105,1.096,0.18,1.638c0.033,0.236,0.072,0.471,0.108,0.706c0.087,0.545,0.186,1.087,0.298,1.625
	c0.042,0.201,0.086,0.403,0.131,0.603c0.14,0.614,0.298,1.221,0.471,1.825c0.033,0.113,0.061,0.227,0.095,0.34
	c0.909,3.043,2.24,5.929,3.94,8.589c0,0,0.001,0.001,0.001,0.002l0.001,0.001c1.172,1.831,2.517,3.551,4.025,5.137
	c0.051,0.052,0.099,0.106,0.148,0.158c0.709,0.735,1.454,1.439,2.231,2.113c0.125,0.108,0.254,0.213,0.382,0.321
	c0.786,0.661,1.595,1.3,2.445,1.89c0.784,0.545,1.584,1.07,2.419,1.554l22.552,13.015l21.414,12.359l17.561,10.135l91.644,52.89
	l19.288,11.132l11.953,6.898c10.533,6.078,23.509,6.077,34.04-0.006l11.872-6.857l19.288-11.14l25.717-14.853l55.554-32.086
	l10.363-5.985l26.36-15.225l21.408-12.365l13.813-7.978c0.811-0.469,1.59-0.979,2.353-1.507c0.851-0.59,1.659-1.226,2.446-1.883
	c0.128-0.107,0.258-0.213,0.385-0.323c0.78-0.672,1.526-1.374,2.237-2.11c0.047-0.048,0.09-0.098,0.136-0.146
	c3.724-3.891,6.476-8.609,8.02-13.766C473.044,372.067,473.072,371.957,473.103,371.851z"/>
<g>
	<polygon style="fill:#333333;" points="37.55,155.507 37.555,190.489 37.56,216.693 37.572,290.431 37.573,294.442 37.573,295.291 
		37.573,295.293 37.573,295.307 37.573,295.307 37.573,295.311 37.573,295.311 37.578,321.511 37.578,321.512 37.578,323.375 
		37.58,335.992 37.584,356.476 235.987,255.999 	"/>
	<path style="fill:#333333;" d="M474.431,246.958l-0.005-30.265v-1.842H255.999L65.974,113.505l-0.125,0.074l-11.284,6.517
		c-0.811,0.469-1.59,0.979-2.353,1.507c-3.272,2.266-6.073,5.068-8.333,8.236c-1.491,2.092-2.735,4.348-3.72,6.723L258.158,246.96
		h216.273V246.958z"/>
</g>
<path style="fill:#ED1F34;" d="M474.425,214.851l-0.004-24.362l-0.006-40.985c0-2.996-0.408-5.93-1.16-8.75
	c-0.405-1.517-0.915-2.997-1.521-4.435c-2.477-5.877-6.574-11.016-11.925-14.74c-0.784-0.545-1.584-1.071-2.419-1.554l-22.874-13.2
	l-21.414-12.358l-17.239-9.949l-65.925-38.046l-25.717-14.842l-19.288-11.132l-11.953-6.898c-10.533-6.078-23.509-6.077-34.04,0.006
	l-11.872,6.857l-19.288,11.14l-25.717,14.854l0,0l-65.918,38.07l-28.889,16.686l-21.281,12.291l190.025,101.347L474.425,214.851
	L474.425,214.851z"/>
<path style="fill:#333333;" d="M474.439,295.304v-4.213l-0.004-25.574v-0.476H258.158L40.179,375.43
	c0.772,1.866,1.688,3.667,2.774,5.366c0,0,0.001,0.001,0.001,0.002l0.001,0.001c1.172,1.832,2.517,3.551,4.025,5.137
	c0.051,0.052,0.099,0.106,0.148,0.158c0.709,0.735,1.454,1.439,2.231,2.113c0.125,0.108,0.254,0.213,0.382,0.321
	c0.786,0.661,1.595,1.3,2.445,1.89c0.784,0.545,1.584,1.07,2.419,1.554l11.332,6.54l190.057-101.364h132.206h32.148h54.087v-1.842
	v-0.002H474.439z"/>
<path style="fill:#259245;" d="M388.205,297.149H255.999L65.941,398.512l11.22,6.475l21.414,12.359l17.561,10.135l91.644,52.89
	l19.288,11.132l11.953,6.898c10.533,6.078,23.509,6.077,34.04-0.006l11.872-6.857l19.288-11.14l25.717-14.853l55.554-32.086
	l10.363-5.985l26.36-15.225l21.408-12.365l13.813-7.978c0.811-0.469,1.59-0.979,2.353-1.507c0.851-0.59,1.659-1.226,2.446-1.883
	c0.128-0.107,0.258-0.213,0.385-0.323c0.78-0.671,1.526-1.374,2.237-2.11c0.047-0.048,0.09-0.098,0.136-0.146
	c3.724-3.891,6.476-8.609,8.02-13.766c0.031-0.106,0.059-0.215,0.09-0.322c0.176-0.611,0.336-1.228,0.479-1.85
	c0.046-0.201,0.089-0.401,0.131-0.603c0.113-0.541,0.213-1.085,0.3-1.633c0.037-0.237,0.076-0.474,0.11-0.711
	c0.075-0.545,0.131-1.093,0.18-1.643c0.021-0.225,0.047-0.448,0.063-0.674c0.052-0.767,0.084-1.537,0.084-2.313l0,0v-0.006
	l-0.006-40.902v-0.001l-0.004-24.362h-54.088H388.205z"/>
<path style="fill:#FFE000;" d="M100.101,294.392c-4.993,0-9.041-4.048-9.041-9.041s4.048-9.041,9.041-9.041
	c11.198,0,20.309-9.111,20.309-20.309c0-11.198-9.111-20.309-20.309-20.309s-20.309,9.111-20.309,20.309
	c0,4.993-4.048,9.041-9.041,9.041s-9.041-4.048-9.041-9.041c0-21.17,17.222-38.392,38.392-38.392s38.392,17.222,38.392,38.392
	S121.27,294.392,100.101,294.392z"/>
<path d="M483.456,149.503c0-3.711-0.494-7.438-1.466-11.08c-0.506-1.897-1.155-3.787-1.925-5.614
	c-3.179-7.543-8.398-13.991-15.096-18.652c-1.115-0.775-2.087-1.398-3.062-1.96L277.498,5.768C270.96,1.995,263.513,0,255.964,0
	c-7.555,0-15.005,1.998-21.547,5.776L50.042,112.265c-0.945,0.546-1.89,1.15-2.979,1.904c-4.086,2.831-7.633,6.335-10.546,10.419
	c-1.912,2.683-3.519,5.596-4.775,8.657c-2.147,5.231-3.234,10.726-3.234,16.334l0.035,212.916c0,0.921,0.034,1.875,0.105,2.917
	c0.017,0.235,0.039,0.469,0.061,0.703l0.014,0.143c0.06,0.694,0.134,1.385,0.231,2.096c0.034,0.24,0.071,0.477,0.108,0.716
	l0.025,0.158c0.11,0.691,0.234,1.375,0.379,2.066c0.053,0.256,0.107,0.51,0.164,0.757c0.177,0.776,0.377,1.543,0.606,2.348
	l0.112,0.393c1.143,3.828,2.821,7.486,4.985,10.871c0.012,0.019,0.025,0.039,0.037,0.058c1.477,2.301,3.179,4.47,5.054,6.44
	c0.04,0.042,0.153,0.164,0.194,0.205c0.887,0.921,1.837,1.819,2.827,2.677l0.481,0.405c1.098,0.922,2.111,1.703,3.096,2.389
	c1.114,0.775,2.087,1.398,3.064,1.963L234.498,506.23c6.539,3.773,13.985,5.768,21.534,5.768l0,0c7.554,0,15.005-1.998,21.547-5.776
	l184.375-106.487c0.949-0.548,1.895-1.152,2.979-1.904c0.987-0.684,2.001-1.462,3.099-2.381c0.005-0.004,0.101-0.084,0.106-0.088
	l0.381-0.321c0.989-0.852,1.942-1.75,2.81-2.647l0.194-0.205c4.695-4.906,8.205-10.93,10.152-17.432l0.113-0.398
	c0.223-0.774,0.426-1.554,0.606-2.344l0.168-0.769c0.143-0.684,0.27-1.372,0.38-2.067l0.02-0.123c0.04-0.253,0.08-0.508,0.118-0.776
	c0.094-0.691,0.168-1.385,0.228-2.072l0.014-0.145c0.024-0.239,0.047-0.479,0.063-0.72c0.071-1.044,0.105-2,0.105-2.931
	L483.456,149.503z M243.461,21.434c3.796-2.192,8.119-3.351,12.504-3.351c4.381,0,8.701,1.157,12.495,3.347l184.408,106.428
	c0.526,0.303,1.091,0.668,1.778,1.145c3.881,2.7,6.909,6.445,8.758,10.83c0.448,1.064,0.825,2.159,1.116,3.254
	c0.567,2.122,0.854,4.282,0.854,6.419l0.01,56.305H258.259L84.597,113.19L243.461,21.434z M465.347,364.1l-0.051,0.52
	c-0.035,0.404-0.076,0.807-0.129,1.192l-0.083,0.533c-0.064,0.404-0.139,0.804-0.227,1.227l-0.089,0.411
	c-0.105,0.458-0.223,0.91-0.347,1.343l-0.071,0.254c-1.128,3.765-3.164,7.26-5.908,10.126l-0.083,0.09
	c-0.512,0.529-1.066,1.05-1.654,1.557l-0.272,0.227c-0.684,0.571-1.254,1.011-1.794,1.386c-0.668,0.463-1.216,0.815-1.728,1.109
	l-184.375,106.49c-3.796,2.193-8.119,3.351-12.504,3.351c-4.381,0-8.701-1.157-12.495-3.347L84.57,398.825l173.69-92.635h129.945
	c4.993,0,9.041-4.048,9.041-9.041s-4.048-9.041-9.041-9.041H255.999c-1.484,0-2.945,0.365-4.254,1.063l-185.63,99.003l-6.984-4.031
	c-0.526-0.303-1.091-0.668-1.778-1.146c-0.54-0.375-1.109-0.817-1.783-1.383l-0.288-0.24c-0.576-0.499-1.128-1.022-1.596-1.507
	c-0.027-0.028-0.128-0.136-0.154-0.164c-1.099-1.155-2.094-2.424-2.956-3.773c-0.011-0.017-0.022-0.033-0.033-0.051
	c-1.244-1.955-2.209-4.06-2.866-6.265l-0.066-0.239c-0.127-0.445-0.245-0.892-0.35-1.353l-0.093-0.432
	c-0.083-0.395-0.156-0.793-0.217-1.185l-0.082-0.523c-0.054-0.399-0.095-0.802-0.13-1.201l-0.048-0.495
	c-0.039-0.561-0.064-1.125-0.064-1.7l-0.035-212.912c0-3.24,0.632-6.425,1.881-9.466c0.731-1.781,1.662-3.471,2.77-5.025
	c1.696-2.378,3.755-4.415,6.116-6.05c0.671-0.464,1.221-0.819,1.73-1.111l7.063-4.079l185.596,98.984
	c1.309,0.698,2.77,1.063,4.254,1.063h209.386l0.011,64.214h-45.047c-4.993,0-9.041,4.048-9.041,9.041s4.048,9.041,9.041,9.041
	h45.047l0.01,56.233C465.408,362.994,465.383,363.562,465.347,364.1z"/>
<g>
</g>
<g>
</g>
<g>
</g>
<g>
</g>
<g>
</g>
<g>
</g>
<g>
</g>
<g>
</g>
<g>
</g>
<g>
</g>
<g>
</g>
<g>
</g>
<g>
</g>
<g>
</g>
<g>
</g>
</svg>
