<?xml version="1.0" encoding="iso-8859-1"?>
<!-- Generator: Adobe Illustrator 19.0.0, SVG Export Plug-In . SVG Version: 6.00 Build 0)  -->
<svg version="1.1" id="Layer_1" xmlns="http://www.w3.org/2000/svg" xmlns:xlink="http://www.w3.org/1999/xlink" x="0px" y="0px"
	 viewBox="0 0 512.001 512.001" style="enable-background:new 0 0 512.001 512.001;" xml:space="preserve">
<path style="fill:#FFE000;" d="M474.447,339.042l-0.002-17.529v-0.002l-0.005-26.203v-0.002v-1.685v-2.528l-0.004-19.18
	l-0.001-6.394l-0.008-48.824l-0.005-26.203l-0.006-40.985c-0.001-2.995-0.409-5.931-1.161-8.75c-0.405-1.517-0.915-2.997-1.52-4.435
	c-2.479-5.876-6.575-11.016-11.925-14.74c-0.784-0.545-1.584-1.071-2.421-1.553l-22.872-13.202l-21.414-12.358l-17.24-9.949
	l-49.448-28.538l-16.477-9.508l-25.717-14.844l-19.288-11.132l-11.953-6.899c-10.533-6.078-23.509-6.076-34.04,0.007l-11.872,6.857
	l-19.288,11.14l-25.717,14.853l0,0l-16.473,9.515l-49.442,28.556l-28.89,16.686l-21.408,12.365l-11.282,6.516
	c-0.813,0.469-1.59,0.98-2.353,1.507c-3.273,2.268-6.072,5.067-8.331,8.236c-1.517,2.127-2.781,4.422-3.774,6.841
	c-1.654,4.032-2.557,8.399-2.557,12.899l0.007,40.913l0.005,26.203l0.012,73.738l0.001,4.011v0.17v0.679v0.002v0.013v0.005
	l0.005,26.198v0.002v1.863l0.001,2.524l0.001,10.093l0.004,26.496v0.007c0.001,0.773,0.033,1.539,0.084,2.305
	c0.016,0.224,0.042,0.445,0.061,0.668c0.049,0.55,0.106,1.096,0.18,1.639c0.033,0.235,0.072,0.47,0.11,0.706
	c0.086,0.544,0.184,1.085,0.297,1.625c0.042,0.201,0.086,0.403,0.131,0.603c0.112,0.492,0.242,0.976,0.377,1.461
	c0.033,0.121,0.059,0.244,0.094,0.364c0.017,0.057,0.031,0.113,0.047,0.171c0.017,0.057,0.03,0.113,0.048,0.17
	c0.115,0.38,0.253,0.75,0.38,1.127c0.761,2.251,1.752,4.407,2.957,6.445c0.2,0.339,0.389,0.685,0.602,1.017
	c0.001,0.001,0.001,0.001,0.001,0.001c0,0.001,0,0.001,0,0.002l0.002,0.001c1.172,1.832,2.517,3.551,4.026,5.137
	c0.049,0.053,0.098,0.106,0.147,0.159c0.71,0.734,1.454,1.438,2.233,2.112c0.094,0.082,0.19,0.162,0.286,0.241
	c0.033,0.027,0.064,0.053,0.096,0.08c0.196,0.165,0.399,0.324,0.599,0.486c0.599,0.485,1.208,0.961,1.844,1.404
	c0.784,0.545,1.584,1.07,2.421,1.553l22.552,13.016l21.414,12.359l17.561,10.134l91.644,52.89l19.288,11.132l11.953,6.899
	c10.533,6.078,23.509,6.076,34.04-0.007l11.872-6.857l19.288-11.14l25.717-14.853l55.554-32.086l10.363-5.985l26.36-15.224
	l21.408-12.365l13.813-7.977c0.813-0.469,1.59-0.98,2.352-1.507c0.852-0.588,1.66-1.226,2.446-1.884
	c0.129-0.106,0.259-0.212,0.386-0.323c0.779-0.671,1.526-1.374,2.236-2.108c0.019-0.019,0.036-0.039,0.054-0.058
	c0.028-0.028,0.055-0.059,0.082-0.087c3.725-3.893,6.475-8.61,8.019-13.767c0.033-0.106,0.06-0.215,0.09-0.322
	c0.176-0.611,0.338-1.228,0.479-1.849c0.019-0.08,0.035-0.162,0.053-0.242c0.027-0.121,0.053-0.24,0.078-0.362
	c0.057-0.271,0.1-0.545,0.149-0.817c0.051-0.272,0.107-0.542,0.151-0.816c0.016-0.101,0.03-0.205,0.047-0.306
	c0.022-0.134,0.043-0.271,0.063-0.406c0.06-0.435,0.102-0.875,0.143-1.315c0.012-0.11,0.027-0.219,0.036-0.328
	c0.011-0.112,0.02-0.225,0.031-0.336c0.011-0.112,0.024-0.223,0.03-0.336c0.052-0.767,0.083-1.537,0.083-2.313v-0.006
	L474.447,339.042z"/>
<path style="fill:#ED1F34;" d="M346.416,55.982l-16.478-9.509l-25.717-14.844l-19.288-11.132l-11.953-6.899
	c-10.533-6.078-23.509-6.076-34.04,0.007l-11.872,6.857l-19.288,11.14l-25.717,14.853l0,0l-16.473,9.515V456.02l-49.452-28.539
	l91.644,52.89l19.288,11.132l11.953,6.899c10.533,6.078,23.509,6.076,34.04-0.007l11.872-6.857l19.288-11.14l25.717-14.853
	l55.554-32.086l-39.076,22.57V55.982H346.416z"/>
<path style="fill:#259245;" d="M165.588,55.971l-49.442,28.556l-28.89,16.686l-21.408,12.365l-11.282,6.516
	c-0.813,0.469-1.59,0.98-2.353,1.507c-3.273,2.268-6.072,5.067-8.331,8.236c-1.517,2.127-2.781,4.422-3.774,6.841
	c-1.654,4.032-2.557,8.399-2.557,12.899l0.007,40.913l0.005,26.203l0.012,73.738l0.001,4.011v0.17v0.679l0,0v0.002v0.013l0,0v0.005
	l0,0l0.005,26.198v0.002v1.863l0.001,2.524l0.001,10.093l0.004,26.496v0.007l0,0c0.001,0.773,0.033,1.539,0.084,2.305
	c0.016,0.224,0.042,0.445,0.061,0.668c0.049,0.55,0.106,1.096,0.18,1.639c0.033,0.235,0.072,0.47,0.11,0.706
	c0.086,0.544,0.184,1.085,0.297,1.625c0.042,0.201,0.086,0.403,0.131,0.603c0.112,0.492,0.242,0.976,0.377,1.461
	c0.033,0.121,0.059,0.244,0.094,0.364c0.017,0.057,0.031,0.113,0.047,0.171c0.017,0.057,0.03,0.113,0.048,0.17
	c0.115,0.38,0.253,0.75,0.38,1.127c0.761,2.251,1.752,4.407,2.957,6.445c0.2,0.339,0.389,0.685,0.602,1.017
	c0.001,0.001,0.001,0.001,0.001,0.001c0,0.001,0,0.001,0,0.002l0.002,0.001c1.172,1.832,2.517,3.551,4.026,5.137
	c0.049,0.053,0.098,0.106,0.147,0.159c0.71,0.734,1.454,1.438,2.233,2.112c0.094,0.082,0.19,0.162,0.286,0.241
	c0.033,0.027,0.064,0.053,0.096,0.08c0.196,0.165,0.399,0.324,0.599,0.486c0.599,0.485,1.208,0.961,1.844,1.404
	c0.784,0.545,1.584,1.07,2.421,1.553l22.552,13.016l21.414,12.359l17.561,10.134l49.452,28.539L165.588,55.971L165.588,55.971z"/>
<polygon style="fill:#FFE000;" points="215.439,246.893 245.303,245.35 256,217.423 266.697,245.35 296.562,246.893 
	273.308,265.695 281.069,294.576 256,278.27 230.932,294.576 238.693,265.695 "/>
<path d="M305.161,244.1c-1.156-3.562-4.392-6.043-8.131-6.236l-23.992-1.239l-8.593-22.435c-1.339-3.497-4.698-5.807-8.443-5.807
	s-7.104,2.31-8.443,5.807l-8.593,22.435l-23.992,1.239c-3.741,0.193-6.975,2.674-8.131,6.236c-1.158,3.562,0,7.469,2.914,9.824
	l18.682,15.104l-6.236,23.201c-0.972,3.617,0.387,7.46,3.418,9.661c3.029,2.201,7.104,2.309,10.245,0.265l20.138-13.099
	l20.138,13.099c1.502,0.978,3.216,1.462,4.931,1.462c1.867,0,3.733-0.577,5.314-1.728c3.031-2.201,4.389-6.044,3.418-9.661
	l-6.236-23.201l18.682-15.104C305.161,251.57,306.32,247.662,305.161,244.1z M267.622,258.665c-2.781,2.248-3.975,5.924-3.046,9.377
	l1.635,6.084l-5.28-3.436c-1.5-0.975-3.215-1.462-4.931-1.462c-1.717,0-3.431,0.487-4.931,1.462l-5.28,3.436l1.635-6.084
	c0.928-3.453-0.266-7.128-3.048-9.377l-4.898-3.96l6.29-0.325c3.571-0.184,6.699-2.457,7.977-5.796l2.253-5.883l2.253,5.883
	c1.279,3.339,4.405,5.611,7.977,5.796l6.29,0.325L267.622,258.665z M483.457,149.503c-0.001-3.711-0.494-7.438-1.466-11.078
	c-0.508-1.899-1.155-3.789-1.925-5.615c-3.18-7.544-8.399-13.991-15.096-18.652c-1.118-0.778-2.089-1.4-3.062-1.961L277.499,5.767
	C270.96,1.994,263.514,0,255.965,0c-7.555,0-15.005,1.996-21.547,5.776L50.043,112.265c-0.949,0.549-1.895,1.152-2.979,1.902
	c-4.086,2.831-7.633,6.335-10.546,10.421c-1.913,2.683-3.52,5.597-4.776,8.658c-2.146,5.23-3.234,10.724-3.234,16.334l0.035,212.917
	c0,0.921,0.035,1.876,0.106,2.919c0.017,0.234,0.037,0.469,0.061,0.702l0.014,0.143c0.061,0.693,0.134,1.385,0.23,2.095
	c0.034,0.24,0.071,0.477,0.11,0.716l0.025,0.16c0.111,0.691,0.235,1.378,0.381,2.075c0.053,0.254,0.107,0.508,0.162,0.746
	c0.177,0.779,0.377,1.547,0.609,2.351l0.111,0.393c1.144,3.827,2.822,7.486,4.987,10.873c0.014,0.023,0.029,0.045,0.043,0.068
	c1.476,2.298,3.174,4.463,5.048,6.429c0.04,0.042,0.153,0.164,0.194,0.206c0.896,0.929,1.847,1.83,2.81,2.663l0.497,0.42
	c1.093,0.919,2.105,1.699,3.096,2.388c1.096,0.764,2.096,1.403,3.064,1.963l184.411,106.428c6.539,3.773,13.985,5.768,21.534,5.768
	l0,0c7.554,0,15.005-1.998,21.546-5.776l184.372-106.49c0.945-0.545,1.891-1.149,2.984-1.905c0.986-0.682,1.999-1.461,3.181-2.448
	c0.14-0.116,0.28-0.231,0.405-0.34c0.99-0.854,1.941-1.752,2.84-2.681l0.16-0.171c4.695-4.904,8.206-10.929,10.149-17.421
	l0.117-0.406c0.224-0.775,0.427-1.556,0.605-2.34l0.169-0.773c0.142-0.684,0.27-1.374,0.397-2.177
	c0.042-0.259,0.082-0.518,0.122-0.792c0.094-0.69,0.168-1.383,0.228-2.071l0.014-0.143c0.025-0.24,0.046-0.48,0.063-0.721
	c0.071-1.043,0.105-1.999,0.105-2.931L483.457,149.503z M57.357,382.999c-0.538-0.375-1.126-0.829-1.787-1.385l-0.293-0.246
	c-0.569-0.489-1.119-1.011-1.589-1.497c-0.025-0.03-0.128-0.139-0.156-0.169c-1.099-1.155-2.094-2.424-2.957-3.772
	c-0.016-0.025-0.03-0.048-0.047-0.074c-1.236-1.948-2.194-4.047-2.849-6.239l-0.069-0.246c-0.127-0.442-0.244-0.888-0.351-1.354
	l-0.092-0.428c-0.082-0.395-0.156-0.793-0.217-1.183l-0.081-0.523c-0.055-0.4-0.096-0.803-0.13-1.203l-0.052-0.493
	c-0.037-0.561-0.064-1.125-0.064-1.699L46.59,149.577c0-3.24,0.633-6.425,1.882-9.467c0.729-1.781,1.662-3.472,2.769-5.025
	c1.696-2.378,3.755-4.415,6.119-6.053c0.669-0.463,1.218-0.815,1.726-1.109l97.461-56.291v368.729l-97.417-56.221
	C58.602,383.836,58.038,383.473,57.357,382.999z M268.539,490.566c-3.795,2.192-8.119,3.351-12.502,3.351
	c-4.381,0-8.703-1.159-12.495-3.348l-68.91-39.769V61.19l68.833-39.756c3.795-2.193,8.118-3.351,12.502-3.351
	c4.381,0,8.703,1.157,12.495,3.347l68.915,39.773v389.605L268.539,490.566z M465.348,364.1l-0.051,0.52
	c-0.035,0.404-0.076,0.805-0.128,1.191l-0.064,0.407c0,0.004-0.02,0.125-0.02,0.127c-0.064,0.404-0.137,0.804-0.23,1.251
	l-0.084,0.387c-0.105,0.457-0.222,0.909-0.347,1.341l-0.07,0.254c-1.128,3.764-3.166,7.258-5.908,10.125l-0.083,0.09
	c-0.512,0.529-1.067,1.051-1.649,1.555l-0.276,0.228c-0.682,0.573-1.255,1.014-1.79,1.384c-0.672,0.465-1.221,0.817-1.731,1.113
	L355.46,440.36V71.638l97.41,56.219c0.523,0.301,1.089,0.667,1.781,1.145c3.881,2.7,6.908,6.446,8.757,10.832
	c0.448,1.062,0.825,2.157,1.116,3.252c0.567,2.121,0.854,4.281,0.855,6.418l0.034,212.916
	C465.408,362.993,465.384,363.561,465.348,364.1z"/>
<g>
</g>
<g>
</g>
<g>
</g>
<g>
</g>
<g>
</g>
<g>
</g>
<g>
</g>
<g>
</g>
<g>
</g>
<g>
</g>
<g>
</g>
<g>
</g>
<g>
</g>
<g>
</g>
<g>
</g>
</svg>
