<?xml version="1.0" encoding="iso-8859-1"?>
<!-- Generator: Adobe Illustrator 19.0.0, SVG Export Plug-In . SVG Version: 6.00 Build 0)  -->
<svg version="1.1" id="Layer_1" xmlns="http://www.w3.org/2000/svg" xmlns:xlink="http://www.w3.org/1999/xlink" x="0px" y="0px"
	 viewBox="0 0 512 512" style="enable-background:new 0 0 512 512;" xml:space="preserve">
<path style="fill:#FFFFFF;" d="M473.119,371.859c0.176-0.611,0.338-1.229,0.479-1.851c0.047-0.201,0.089-0.401,0.131-0.603
	c0.113-0.541,0.213-1.085,0.3-1.634c0.037-0.236,0.076-0.473,0.11-0.711c0.076-0.545,0.131-1.094,0.18-1.643
	c0.021-0.225,0.047-0.447,0.063-0.674c0.052-0.767,0.084-1.537,0.083-2.314l0,0l0,0v-0.006l-0.006-40.907v-0.001l-0.005-26.206
	v-0.002l-0.001-4.214l-0.004-25.576l0,0l-0.008-48.827l-0.005-26.206l-0.006-40.988c-0.001-2.996-0.409-5.93-1.161-8.75
	c-0.405-1.517-0.915-2.997-1.521-4.435c-2.478-5.877-6.574-11.017-11.925-14.741c-0.784-0.545-1.584-1.071-2.421-1.554
	l-22.875-13.201l-21.415-12.359l-17.241-9.95l-65.931-38.05L304.22,31.611l-19.29-11.133l-11.954-6.898
	c-10.533-6.079-23.511-6.077-34.043,0.006l-11.873,6.857l-19.29,11.141L182.052,46.44l0,0l-65.917,38.076l-28.892,16.686
	l-21.409,12.366l-11.283,6.518c-0.813,0.469-1.59,0.979-2.353,1.507c-3.272,2.267-6.073,5.068-8.332,8.237
	c-1.517,2.128-2.781,4.423-3.775,6.842c-1.654,4.032-2.557,8.399-2.557,12.9l0.007,40.915l0.005,26.206l0.012,73.743l0.001,4.011
	v0.849v0.002v0.013l0,0v0.005l0,0l0.005,26.201l0,0v1.864l0.002,12.618l0.004,26.499v0.006l0,0c0.001,0.773,0.033,1.54,0.084,2.304
	c0.016,0.224,0.042,0.446,0.063,0.669c0.048,0.55,0.105,1.096,0.178,1.638c0.033,0.236,0.072,0.471,0.11,0.706
	c0.086,0.546,0.184,1.087,0.298,1.626c0.042,0.201,0.084,0.403,0.13,0.603c0.14,0.615,0.298,1.222,0.471,1.825
	c0.033,0.113,0.061,0.227,0.095,0.34c0.909,3.042,2.239,5.93,3.941,8.59c0,0,0,0.001,0.001,0.002l0.001,0.001
	c1.172,1.833,2.517,3.552,4.027,5.137c0.049,0.052,0.098,0.106,0.147,0.158c0.71,0.735,1.454,1.441,2.233,2.112
	c0.125,0.11,0.254,0.215,0.382,0.322c0.785,0.661,1.594,1.3,2.444,1.89c0.784,0.545,1.584,1.071,2.421,1.554l22.553,13.016
	l21.415,12.36l17.562,10.136l91.65,52.894l19.29,11.133l11.954,6.898c10.533,6.079,23.511,6.077,34.043-0.006l11.873-6.857
	l19.29-11.141l25.719-14.854l55.558-32.088l10.363-5.986l26.362-15.226l21.409-12.366l13.814-7.979
	c0.813-0.469,1.59-0.979,2.353-1.507c0.85-0.59,1.659-1.226,2.445-1.883c0.129-0.107,0.259-0.213,0.386-0.322
	c0.779-0.673,1.526-1.376,2.236-2.11c0.046-0.048,0.09-0.098,0.136-0.146c3.725-3.892,6.475-8.609,8.02-13.766
	C473.061,372.075,473.088,371.966,473.119,371.859z"/>
<path style="fill:#ED1F34;" d="M474.432,149.497c-0.001-2.996-0.409-5.93-1.161-8.75c-0.405-1.517-0.915-2.997-1.52-4.435
	c-2.479-5.877-6.575-11.017-11.926-14.741c-0.784-0.545-1.584-1.071-2.421-1.554l-22.875-13.201l-21.415-12.359l-17.241-9.95
	l-65.931-38.05l-25.719-14.843l-19.29-11.133l-11.954-6.898c-10.533-6.079-23.511-6.077-34.043,0.006l-11.873,6.857l-19.29,11.141
	l-25.719,14.856l0,0l-65.919,38.074l-28.892,16.686l-21.409,12.366l-11.283,6.518c-0.813,0.469-1.59,0.979-2.353,1.507
	c-3.272,2.267-6.073,5.068-8.332,8.237c-1.517,2.128-2.781,4.423-3.775,6.842c-1.654,4.032-2.557,8.399-2.557,12.9l0.007,37.845
	h436.898L474.432,149.497z"/>
<path style="fill:#3DB4EA;" d="M109.398,324.585H74.274H37.562l0.002,11.412l0.004,26.499v0.006l0,0
	c0.001,0.773,0.033,1.54,0.084,2.304c0.016,0.224,0.042,0.446,0.063,0.669c0.048,0.55,0.105,1.096,0.178,1.638
	c0.033,0.236,0.072,0.471,0.11,0.706c0.086,0.546,0.184,1.087,0.298,1.626c0.042,0.201,0.084,0.403,0.13,0.603
	c0.14,0.615,0.298,1.223,0.471,1.825c0.033,0.113,0.061,0.227,0.095,0.34c0.909,3.042,2.239,5.93,3.94,8.59
	c0.001,0,0.001,0.001,0.002,0.002l0.001,0.001c1.172,1.832,2.517,3.552,4.027,5.137c0.049,0.052,0.098,0.106,0.147,0.158
	c0.71,0.735,1.454,1.441,2.233,2.112c0.125,0.11,0.254,0.215,0.382,0.322c0.785,0.661,1.594,1.3,2.444,1.89
	c0.784,0.545,1.584,1.071,2.421,1.554l22.553,13.016l21.415,12.36l17.562,10.136l91.65,52.894l19.29,11.133l11.954,6.898
	c10.533,6.079,23.511,6.077,34.043-0.006l11.873-6.857l19.29-11.141l25.719-14.854l55.558-32.088l10.363-5.986l26.362-15.226
	l21.409-12.366l13.814-7.979c0.813-0.469,1.59-0.979,2.353-1.507c0.851-0.59,1.659-1.226,2.445-1.883
	c0.129-0.107,0.259-0.213,0.386-0.322c0.779-0.673,1.526-1.376,2.236-2.11c0.047-0.048,0.09-0.098,0.136-0.146
	c3.725-3.892,6.475-8.609,8.02-13.766c0.033-0.106,0.06-0.215,0.09-0.322c0.176-0.611,0.338-1.229,0.479-1.851
	c0.047-0.201,0.089-0.401,0.131-0.603c0.113-0.541,0.213-1.085,0.3-1.634c0.037-0.236,0.076-0.473,0.11-0.711
	c0.076-0.545,0.131-1.094,0.18-1.643c0.021-0.225,0.046-0.447,0.063-0.674c0.052-0.767,0.083-1.537,0.083-2.314l0,0v-0.006
	l-0.006-37.839L109.398,324.585L109.398,324.585z"/>
<path d="M28.527,362.503c0,3.71,0.493,7.437,1.464,11.077c0.503,1.887,1.15,3.777,1.928,5.622
	c3.18,7.543,8.399,13.991,15.092,18.648c1.096,0.763,2.099,1.406,3.066,1.964L234.501,506.25
	c13.287,7.669,29.798,7.666,43.084-0.007l184.389-106.497c0.945-0.546,1.89-1.151,2.979-1.904
	c4.086-2.831,7.634-6.335,10.547-10.421c1.913-2.684,3.519-5.596,4.775-8.657c2.147-5.231,3.236-10.726,3.235-16.335l-0.034-212.932
	c0-0.921-0.035-1.875-0.106-2.92c-0.017-0.233-0.037-0.464-0.061-0.696l-0.014-0.149c-0.061-0.693-0.134-1.383-0.231-2.095
	c-0.034-0.24-0.072-0.479-0.11-0.719l-0.025-0.156c-0.11-0.691-0.234-1.377-0.38-2.069c-0.053-0.254-0.106-0.509-0.163-0.755
	c-0.177-0.776-0.377-1.544-0.608-2.35l-0.111-0.391c-1.144-3.829-2.822-7.486-4.988-10.872c-0.013-0.022-0.027-0.043-0.04-0.065
	c-1.478-2.3-3.179-4.468-5.044-6.426c-0.041-0.045-0.16-0.172-0.203-0.216c-0.891-0.925-1.841-1.824-2.827-2.676l-0.48-0.405
	c-1.095-0.921-2.107-1.701-3.096-2.388c-1.113-0.775-2.086-1.399-3.063-1.963L277.501,5.751C270.858,1.917,263.412,0,255.965,0
	c-7.451,0-14.904,1.919-21.549,5.757L50.033,112.252c-0.945,0.545-1.892,1.15-2.987,1.907c-0.989,0.685-2.001,1.464-3.108,2.388
	l-0.476,0.399c-0.986,0.85-1.939,1.748-2.866,2.707l-0.136,0.145c-4.696,4.904-8.205,10.93-10.128,17.354
	c-0.049,0.16-0.094,0.321-0.147,0.514c-0.219,0.762-0.421,1.531-0.597,2.306c-0.058,0.252-0.112,0.505-0.169,0.774
	c-0.142,0.684-0.269,1.371-0.397,2.179c-0.041,0.258-0.082,0.516-0.122,0.796c-0.093,0.687-0.168,1.379-0.227,2.062l-0.014,0.145
	c-0.024,0.239-0.047,0.477-0.064,0.721c-0.071,1.057-0.105,2.018-0.104,2.93L28.527,362.503z M463.543,371.897
	c-0.729,1.781-1.663,3.471-2.771,5.025c-1.696,2.379-3.754,4.415-6.116,6.051c-0.672,0.464-1.22,0.817-1.73,1.112L268.538,490.582
	c-7.71,4.454-17.291,4.455-25,0.005L59.117,384.152c-0.528-0.304-1.091-0.668-1.778-1.145c-3.881-2.701-6.909-6.446-8.756-10.825
	c-0.452-1.074-0.828-2.169-1.119-3.259c-0.567-2.124-0.854-4.284-0.854-6.42l-0.005-28.874h41.784c4.995,0,9.042-4.047,9.042-9.042
	c0-4.994-4.047-9.042-9.042-9.042H46.603l-0.02-119.086h418.814l0.019,119.086H123.7c-4.995,0-9.042,4.048-9.042,9.042
	c0,4.995,4.047,9.042,9.042,9.042h341.717l0.005,28.804C465.425,365.672,464.791,368.856,463.543,371.897z M46.638,147.893
	l0.051-0.521c0.035-0.406,0.076-0.811,0.128-1.194l0.083-0.532c0.064-0.404,0.137-0.805,0.218-1.19l0.098-0.448
	c0.104-0.457,0.223-0.909,0.352-1.358c0.002-0.008,0.005-0.018,0.008-0.025l0.063-0.227c1.128-3.76,3.164-7.251,5.905-10.115
	l0.081-0.089c0.515-0.53,1.067-1.053,1.637-1.544l0.289-0.241c0.673-0.562,1.26-1.016,1.79-1.384c0.673-0.465,1.22-0.817,1.73-1.112
	L243.458,21.416c7.711-4.452,17.291-4.454,25.001-0.005l184.422,106.435c0.527,0.304,1.091,0.668,1.778,1.145
	c0.541,0.377,1.112,0.82,1.783,1.383l0.292,0.245c0.573,0.496,1.124,1.018,1.593,1.503c0.027,0.03,0.125,0.136,0.156,0.166
	c1.098,1.154,2.093,2.423,2.956,3.772c0.01,0.016,0.019,0.03,0.029,0.046c1.244,1.957,2.21,4.064,2.867,6.268l0.069,0.241
	c0.127,0.444,0.244,0.891,0.348,1.35l0.093,0.432c0.083,0.395,0.156,0.793,0.218,1.185l0.081,0.521
	c0.055,0.401,0.096,0.804,0.13,1.2l0.048,0.498c0.039,0.561,0.065,1.125,0.065,1.701l0.004,28.867H46.581l-0.005-28.816
	C46.575,148.989,46.601,148.426,46.638,147.893z"/>
<g>
</g>
<g>
</g>
<g>
</g>
<g>
</g>
<g>
</g>
<g>
</g>
<g>
</g>
<g>
</g>
<g>
</g>
<g>
</g>
<g>
</g>
<g>
</g>
<g>
</g>
<g>
</g>
<g>
</g>
</svg>
