<?xml version="1.0" encoding="iso-8859-1"?>
<!-- Generator: Adobe Illustrator 19.0.0, SVG Export Plug-In . SVG Version: 6.00 Build 0)  -->
<svg version="1.1" id="Layer_1" xmlns="http://www.w3.org/2000/svg" xmlns:xlink="http://www.w3.org/1999/xlink" x="0px" y="0px"
	 viewBox="0 0 512.001 512.001" style="enable-background:new 0 0 512.001 512.001;" xml:space="preserve">
<path style="fill:#FFFFFF;" d="M473.104,371.85c0.176-0.61,0.336-1.227,0.479-1.848c0.046-0.201,0.088-0.403,0.13-0.604
	c0.113-0.54,0.213-1.085,0.3-1.632c0.037-0.237,0.076-0.474,0.11-0.711c0.076-0.546,0.131-1.095,0.18-1.644
	c0.021-0.225,0.047-0.448,0.063-0.674c0.052-0.767,0.084-1.537,0.084-2.313l0,0l0,0v-0.006l-0.007-40.904v-0.002l-0.005-26.203
	v-0.002v-4.213l-0.005-25.574l0,0l-0.008-48.824l-0.004-26.203l-0.007-40.985c-0.001-2.995-0.407-5.931-1.16-8.75
	c-0.405-1.517-0.915-2.997-1.521-4.435c-2.477-5.876-6.575-11.016-11.925-14.74c-0.784-0.545-1.584-1.071-2.421-1.553l-22.87-13.202
	l-21.414-12.358l-17.24-9.949l-65.924-38.046l-25.719-14.844l-19.288-11.132l-11.953-6.899c-10.533-6.078-23.509-6.076-34.04,0.007
	l-11.872,6.857l-19.288,11.14l-25.717,14.853l0,0l-65.915,38.072l-28.89,16.686l-21.408,12.365l-11.282,6.516
	c-0.811,0.469-1.59,0.98-2.352,1.507c-3.273,2.268-6.073,5.067-8.333,8.236c-1.517,2.127-2.781,4.422-3.773,6.841
	c-1.655,4.032-2.558,8.399-2.558,12.899l0.007,40.913l0.005,26.203l0.013,73.738v4.011l0.001,0.85v0.001v0.013l0,0v0.005l0,0
	l0.004,26.198v0.002v1.863l0.002,12.617l0.005,26.496v0.007l0,0c0,0.773,0.031,1.539,0.083,2.305
	c0.017,0.224,0.042,0.445,0.063,0.668c0.048,0.55,0.105,1.096,0.178,1.638c0.033,0.236,0.072,0.471,0.11,0.708
	c0.086,0.544,0.184,1.086,0.298,1.625c0.042,0.201,0.084,0.403,0.13,0.603c0.14,0.615,0.298,1.222,0.471,1.825
	c0.033,0.113,0.063,0.228,0.095,0.34c0.909,3.043,2.24,5.93,3.941,8.588c0,0.001,0.001,0.002,0.001,0.002l0.001,0.002
	c1.172,1.832,2.517,3.551,4.026,5.137c0.049,0.053,0.098,0.106,0.148,0.159c0.709,0.734,1.454,1.438,2.231,2.112
	c0.125,0.11,0.256,0.215,0.382,0.322c0.786,0.661,1.594,1.298,2.445,1.89c0.782,0.545,1.583,1.07,2.419,1.553l22.552,13.016
	l21.415,12.359l17.56,10.134l91.644,52.89l19.288,11.132l11.953,6.899c10.533,6.078,23.509,6.076,34.04-0.007l11.872-6.857
	l19.288-11.14l25.719-14.853l55.553-32.086l10.363-5.985l26.36-15.225l21.408-12.365l13.813-7.977
	c0.813-0.469,1.59-0.98,2.353-1.507c0.851-0.588,1.659-1.226,2.445-1.884c0.129-0.106,0.259-0.212,0.386-0.323
	c0.779-0.671,1.526-1.374,2.236-2.108c0.047-0.048,0.09-0.098,0.136-0.145c3.725-3.893,6.476-8.61,8.019-13.767
	C473.045,372.067,473.073,371.958,473.104,371.85z"/>
<g>
	<path style="fill:#259245;" d="M165.586,364.496V55.972l-49.44,28.555l-28.89,16.686l-21.408,12.365l-11.282,6.516
		c-0.811,0.469-1.59,0.98-2.352,1.507c-3.273,2.268-6.073,5.067-8.333,8.236c-1.517,2.127-2.781,4.422-3.773,6.841
		c-1.655,4.032-2.558,8.399-2.558,12.899l0.007,40.913l0.005,26.203l0.013,73.738v4.011l0.001,0.849v0.002v0.013l0,0v0.005l0,0
		l0.004,26.198v0.002v1.863l0.002,12.617l0.005,26.496v0.007l0,0c0,0.773,0.031,1.539,0.083,2.305
		c0.017,0.224,0.042,0.445,0.063,0.668c0.048,0.55,0.105,1.096,0.178,1.639c0.033,0.235,0.072,0.47,0.11,0.706
		c0.086,0.544,0.184,1.085,0.298,1.625c0.042,0.201,0.084,0.403,0.13,0.603c0.14,0.615,0.298,1.222,0.471,1.825
		c0.033,0.113,0.063,0.228,0.095,0.34c0.909,3.043,2.24,5.93,3.941,8.588c0,0.001,0.001,0.002,0.001,0.004l0.001,0.001
		c1.172,1.832,2.517,3.551,4.026,5.137c0.049,0.053,0.098,0.106,0.148,0.159c0.709,0.734,1.454,1.438,2.231,2.112
		c0.125,0.11,0.256,0.215,0.382,0.322c0.786,0.661,1.594,1.298,2.445,1.89c0.782,0.545,1.583,1.071,2.419,1.553l22.552,13.016
		l21.415,12.359l17.56,10.134l49.45,28.539v-55.358v-36.167H165.586z"/>
	<path style="fill:#259245;" d="M474.445,321.512v-0.002l-0.005-26.203v-0.002v-4.213l-0.005-25.574l-0.008-48.824l-0.004-26.203
		l-0.007-40.985c-0.001-2.995-0.408-5.931-1.16-8.75c-0.405-1.517-0.915-2.997-1.521-4.435c-2.477-5.876-6.574-11.016-11.925-14.74
		c-0.784-0.545-1.584-1.071-2.421-1.553l-22.872-13.202l-21.414-12.358l-17.24-9.949l-49.45-28.539v400.048l39.078-22.571
		l10.363-5.985l26.36-15.225l21.408-12.365l13.813-7.977c0.813-0.469,1.59-0.98,2.353-1.507c0.851-0.588,1.659-1.226,2.445-1.884
		c0.129-0.106,0.259-0.212,0.386-0.323c0.779-0.672,1.526-1.374,2.236-2.108c0.047-0.048,0.09-0.098,0.136-0.145
		c3.725-3.893,6.476-8.61,8.019-13.767c0.033-0.106,0.06-0.215,0.092-0.322c0.176-0.611,0.336-1.228,0.479-1.849
		c0.046-0.201,0.088-0.403,0.13-0.604c0.113-0.54,0.213-1.084,0.3-1.632c0.037-0.237,0.076-0.474,0.11-0.712
		c0.076-0.545,0.131-1.093,0.181-1.643c0.019-0.225,0.046-0.448,0.061-0.674c0.052-0.767,0.084-1.537,0.084-2.313l0,0v-0.006
		L474.445,321.512z"/>
</g>
<path d="M483.491,149.585c0.001-0.911-0.033-1.872-0.105-2.931c-0.016-0.241-0.037-0.48-0.063-0.72l-0.014-0.143
	c-0.06-0.685-0.134-1.377-0.227-2.063c-0.039-0.278-0.078-0.533-0.119-0.786l-0.02-0.123c-0.111-0.697-0.236-1.384-0.379-2.067
	c-0.055-0.262-0.11-0.516-0.168-0.77c-0.181-0.788-0.385-1.57-0.609-2.342c-0.04-0.153-0.088-0.321-0.14-0.487
	c-1.92-6.413-5.43-12.439-10.124-17.344l-0.153-0.163c-0.911-0.942-1.864-1.838-2.85-2.688l-0.475-0.398
	c-1.103-0.925-2.117-1.702-3.107-2.389c-1.096-0.758-2.043-1.363-2.987-1.907L277.584,5.776C271.041,1.998,263.59,0,256.036,0l0,0
	c-7.55,0.001-14.995,1.995-21.534,5.767L50.091,112.197c-0.978,0.564-1.949,1.186-3.063,1.961c-0.985,0.686-1.999,1.467-3.096,2.389
	l-0.481,0.405c-0.99,0.857-1.938,1.756-2.827,2.677c-0.04,0.042-0.154,0.163-0.194,0.205c-1.876,1.971-3.578,4.14-5.054,6.441
	c-0.012,0.02-0.025,0.039-0.037,0.058c-2.164,3.386-3.842,7.044-4.985,10.874l-0.112,0.391c-0.23,0.805-0.429,1.573-0.608,2.348
	c-0.057,0.247-0.111,0.501-0.164,0.757c-0.145,0.692-0.27,1.378-0.379,2.067l-0.025,0.158c-0.037,0.239-0.076,0.477-0.108,0.717
	c-0.098,0.71-0.171,1.402-0.231,2.096l-0.014,0.143c-0.024,0.233-0.045,0.467-0.061,0.702c-0.071,1.043-0.105,1.996-0.105,2.917
	L28.51,362.42c0,5.608,1.087,11.104,3.236,16.335c1.256,3.062,2.863,5.975,4.775,8.657c2.913,4.086,6.459,7.59,10.546,10.421
	c1.087,0.753,2.034,1.357,2.979,1.904l184.376,106.49c6.541,3.778,13.991,5.776,21.546,5.776c7.55,0,14.995-1.995,21.534-5.767
	l184.411-106.429c0.98-0.565,1.953-1.189,3.066-1.964c6.692-4.655,11.911-11.104,15.091-18.646c0.778-1.846,1.425-3.737,1.928-5.623
	c0.97-3.639,1.464-7.367,1.464-11.076L483.491,149.585z M337.373,61.191v389.608l-68.912,39.771
	c-3.794,2.189-8.114,3.347-12.495,3.347c-4.383,0-8.707-1.159-12.502-3.351l-68.835-39.757V147.503c0-4.994-4.047-9.041-9.041-9.041
	s-9.041,4.047-9.041,9.041v292.862l-97.458-56.288c-0.509-0.293-1.058-0.647-1.731-1.113c-2.36-1.633-4.419-3.671-6.114-6.049
	c-1.108-1.554-2.04-3.244-2.77-5.025c-1.248-3.042-1.882-6.227-1.882-9.467l0.036-212.912c0-0.575,0.025-1.137,0.064-1.699
	l0.048-0.495c0.035-0.398,0.076-0.8,0.13-1.201l0.081-0.523c0.061-0.391,0.134-0.788,0.218-1.184l0.093-0.433
	c0.105-0.459,0.223-0.907,0.35-1.351l0.066-0.237c0.658-2.205,1.621-4.311,2.866-6.265c0.011-0.017,0.023-0.033,0.033-0.049
	c0.862-1.349,1.857-2.618,2.956-3.774c0.027-0.028,0.128-0.135,0.154-0.163c0.468-0.486,1.02-1.008,1.596-1.507l0.287-0.241
	c0.675-0.567,1.244-1.009,1.783-1.383c0.687-0.477,1.253-0.843,1.779-1.146l97.413-56.219v39.7c0,4.994,4.047,9.041,9.041,9.041
	s9.041-4.047,9.041-9.041V61.202l68.912-39.771c3.794-2.188,8.114-3.345,12.495-3.347c4.383,0,8.707,1.16,12.504,3.351
	L337.373,61.191z M465.408,149.563l-0.035,212.93c0,2.137-0.287,4.296-0.854,6.421c-0.291,1.09-0.667,2.186-1.119,3.259
	c-1.847,4.38-4.875,8.125-8.756,10.824c-0.686,0.477-1.25,0.841-1.777,1.145l-97.414,56.219V71.636l97.458,56.288
	c0.509,0.293,1.057,0.646,1.731,1.113c0.53,0.368,1.119,0.822,1.787,1.382l0.289,0.24c0.573,0.493,1.126,1.014,1.639,1.544
	l0.083,0.092c2.739,2.862,4.775,6.353,5.903,10.113l0.061,0.222c0.137,0.477,0.257,0.931,0.362,1.389l0.095,0.44
	c0.081,0.392,0.156,0.793,0.219,1.196l0.083,0.534c0.052,0.379,0.093,0.785,0.128,1.191l0.051,0.521
	C465.384,148.434,465.41,148.996,465.408,149.563z"/>
<g>
</g>
<g>
</g>
<g>
</g>
<g>
</g>
<g>
</g>
<g>
</g>
<g>
</g>
<g>
</g>
<g>
</g>
<g>
</g>
<g>
</g>
<g>
</g>
<g>
</g>
<g>
</g>
<g>
</g>
</svg>
