<?xml version="1.0" encoding="iso-8859-1"?>
<!-- Generator: Adobe Illustrator 19.0.0, SVG Export Plug-In . SVG Version: 6.00 Build 0)  -->
<svg version="1.1" id="Layer_1" xmlns="http://www.w3.org/2000/svg" xmlns:xlink="http://www.w3.org/1999/xlink" x="0px" y="0px"
	 viewBox="0 0 512.001 512.001" style="enable-background:new 0 0 512.001 512.001;" xml:space="preserve">
<path style="fill:#FFFFFF;" d="M473.105,371.851c0.176-0.611,0.336-1.228,0.479-1.85c0.046-0.2,0.088-0.401,0.13-0.603
	c0.113-0.54,0.213-1.085,0.3-1.634c0.037-0.236,0.076-0.473,0.11-0.711c0.076-0.545,0.131-1.092,0.18-1.643
	c0.021-0.225,0.047-0.447,0.063-0.674c0.052-0.767,0.084-1.537,0.084-2.313l0,0l0,0v-0.006l-0.007-40.904v-0.002l-0.005-26.203
	v-0.002v-4.213l-0.005-25.574l0,0l-0.008-48.824l-0.004-26.204l-0.007-40.984c-0.001-2.995-0.408-5.931-1.16-8.75
	c-0.405-1.517-0.915-2.997-1.521-4.435c-2.477-5.877-6.575-11.017-11.925-14.74c-0.784-0.545-1.584-1.071-2.421-1.553l-22.87-13.202
	l-21.414-12.358l-17.24-9.949L329.94,46.473l-25.719-14.844l-19.288-11.132l-11.952-6.899c-10.534-6.078-23.51-6.076-34.041,0.007
	l-11.872,6.857l-19.288,11.14l-25.717,14.854v-0.001l-65.915,38.072l-28.89,16.686l-21.408,12.365l-11.282,6.517
	c-0.811,0.468-1.59,0.979-2.352,1.506c-3.273,2.268-6.073,5.068-8.333,8.235c-1.517,2.129-2.781,4.424-3.773,6.843
	c-1.655,4.031-2.558,8.399-2.558,12.899l0.007,40.912l0.005,26.204l0.012,73.738l0.001,4.011l0.001,0.85v0.001v0.013l0,0v0.005l0,0
	l0.004,26.2l0,0v1.864l0.002,12.617l0.005,26.497v0.006l0,0c0,0.773,0.031,1.539,0.083,2.304c0.017,0.224,0.042,0.446,0.063,0.669
	c0.048,0.548,0.105,1.096,0.178,1.638c0.033,0.236,0.072,0.471,0.11,0.706c0.086,0.545,0.184,1.087,0.298,1.626
	c0.042,0.201,0.084,0.403,0.13,0.603c0.14,0.615,0.298,1.222,0.471,1.825c0.033,0.113,0.063,0.227,0.095,0.34
	c0.909,3.042,2.24,5.93,3.941,8.589v0.001l0.002,0.002c1.172,1.832,2.517,3.551,4.026,5.137c0.049,0.052,0.098,0.106,0.148,0.158
	c0.709,0.735,1.454,1.439,2.231,2.113c0.125,0.11,0.256,0.215,0.382,0.322c0.786,0.661,1.594,1.298,2.445,1.89
	c0.782,0.545,1.583,1.07,2.419,1.553l22.552,13.015l21.415,12.36l17.56,10.134l91.644,52.89l19.288,11.132l11.953,6.899
	c10.533,6.078,23.509,6.076,34.04-0.007l11.872-6.857l19.288-11.14l25.719-14.853l55.553-32.086l10.363-5.985l26.36-15.225
	l21.408-12.365l13.813-7.978c0.813-0.468,1.59-0.979,2.353-1.506c0.851-0.588,1.659-1.226,2.445-1.884
	c0.129-0.107,0.259-0.212,0.386-0.322c0.779-0.673,1.526-1.375,2.236-2.11c0.047-0.048,0.09-0.098,0.136-0.146
	c3.725-3.891,6.476-8.609,8.019-13.765C473.046,372.067,473.074,371.958,473.105,371.851z"/>
<path style="fill:#164FCE;" d="M379.659,75.167L329.94,46.473l-25.719-14.844l-19.288-11.132l-11.952-6.899
	c-10.534-6.078-23.51-6.076-34.041,0.007l-11.872,6.857l-19.288,11.14l-25.717,14.853l0,0l-65.915,38.072l-28.89,16.686
	l-21.408,12.365l-11.282,6.516c-0.811,0.469-1.59,0.98-2.352,1.507c-3.273,2.268-6.073,5.067-8.333,8.236
	c-1.517,2.127-2.781,4.422-3.773,6.841c-1.655,4.032-2.558,8.399-2.558,12.899l0.007,40.913l0.005,26.203l0.012,73.738l0.001,2.522
	L364.241,75.167H379.659z"/>
<path style="fill:#259245;" d="M132.343,436.833l75.437,43.536l19.288,11.132l11.953,6.899c10.533,6.078,23.509,6.076,34.04-0.007
	l11.872-6.857l19.288-11.14l25.719-14.853l55.553-32.086l10.363-5.985l26.36-15.225l21.408-12.365l13.813-7.977
	c0.813-0.469,1.59-0.98,2.353-1.507c0.851-0.588,1.659-1.226,2.445-1.884c0.129-0.107,0.259-0.212,0.386-0.322
	c0.779-0.673,1.526-1.375,2.236-2.11c0.047-0.048,0.09-0.098,0.136-0.146c3.725-3.891,6.476-8.609,8.019-13.766
	c0.033-0.106,0.06-0.215,0.092-0.322c0.176-0.611,0.336-1.228,0.479-1.85c0.046-0.2,0.088-0.401,0.13-0.603
	c0.113-0.54,0.213-1.085,0.3-1.633c0.037-0.236,0.076-0.473,0.11-0.711c0.076-0.545,0.131-1.092,0.181-1.643
	c0.019-0.225,0.046-0.447,0.061-0.674c0.052-0.767,0.084-1.537,0.084-2.313l0,0v-0.006l-0.007-40.905v-0.002l-0.005-26.203v-0.002
	v-4.213l-0.005-25.574l-0.007-46.462L147.75,436.833H132.343z"/>
<path style="fill:#ED1F34;" d="M37.582,335.992l0.005,26.496v0.007l0,0c0,0.773,0.031,1.539,0.083,2.304
	c0.017,0.224,0.042,0.446,0.063,0.669c0.048,0.548,0.105,1.096,0.178,1.638c0.033,0.236,0.072,0.471,0.11,0.706
	c0.087,0.545,0.184,1.087,0.298,1.626c0.042,0.201,0.084,0.403,0.13,0.603c0.14,0.615,0.298,1.222,0.471,1.825
	c0.033,0.113,0.063,0.227,0.095,0.34c0.91,3.042,2.24,5.93,3.941,8.589v0.001l0.002,0.002c1.172,1.832,2.517,3.551,4.026,5.137
	c0.049,0.052,0.098,0.106,0.148,0.158c0.709,0.735,1.454,1.441,2.231,2.113c0.125,0.11,0.256,0.215,0.382,0.322
	c0.786,0.661,1.594,1.298,2.445,1.89c0.782,0.545,1.583,1.07,2.419,1.553l22.552,13.016l21.415,12.359l12.901,7.445L474.421,182.84
	l-0.005-33.334c-0.001-2.995-0.407-5.931-1.16-8.75c-0.405-1.517-0.915-2.997-1.521-4.435c-2.477-5.876-6.574-11.016-11.925-14.74
	c-0.784-0.545-1.584-1.071-2.421-1.553l-22.872-13.203l-21.414-12.358l-12.588-7.264L37.581,329.171L37.582,335.992z"/>
<path style="fill:#FFE610;" d="M123.457,169.197c0,9.345-7.603,16.948-16.948,16.948s-16.948-7.603-16.948-16.948
	c0-9.345,7.603-16.947,16.948-16.947S123.457,159.852,123.457,169.197z M157.186,169.197c0,4.012-3.251,7.263-7.262,7.263h-4.729
	c-1.023,5.459-3.172,10.525-6.204,14.946l3.353,3.351c2.837,2.838,2.837,7.436,0,10.272c-1.419,1.418-3.279,2.128-5.137,2.128
	c-1.859,0-3.718-0.71-5.137-2.128l-3.351-3.351c-4.419,3.032-9.486,5.179-14.946,6.202v4.729c0,4.012-3.251,7.262-7.263,7.262
	c-4.012,0-7.263-3.25-7.263-7.262v-4.729c-5.46-1.023-10.527-3.171-14.946-6.204l-3.35,3.351c-1.419,1.419-3.279,2.129-5.137,2.129
	c-1.859,0-3.718-0.71-5.136-2.128c-2.838-2.837-2.838-7.436-0.001-10.272l3.351-3.353c-3.032-4.419-5.18-9.486-6.204-14.946h-4.729
	c-4.011,0-7.262-3.251-7.262-7.263c0-4.012,3.251-7.262,7.262-7.262h4.729c1.023-5.46,3.171-10.527,6.202-14.947l-3.35-3.35
	c-2.837-2.838-2.837-7.436,0-10.272c2.838-2.835,7.436-2.835,10.272,0l3.35,3.35c4.419-3.031,9.486-5.179,14.946-6.202v-4.728
	c0-4.012,3.251-7.262,7.263-7.262c4.012,0,7.263,3.25,7.263,7.262v4.728c5.46,1.023,10.527,3.172,14.946,6.204l3.353-3.351
	c2.837-2.835,7.436-2.837,10.272,0.001c2.837,2.837,2.837,7.436-0.001,10.272l-3.351,3.35c3.032,4.421,5.18,9.486,6.204,14.947
	h4.729C153.934,161.934,157.186,165.184,157.186,169.197z M131.351,169.197c0-13.697-11.144-24.841-24.841-24.841
	S81.669,155.5,81.669,169.197c0,13.697,11.144,24.841,24.841,24.841S131.351,182.894,131.351,169.197z"/>
<path d="M483.457,149.505c0-3.709-0.493-7.438-1.463-11.075c-0.503-1.888-1.149-3.778-1.926-5.623
	c-3.181-7.544-8.401-13.991-15.092-18.647c-1.115-0.776-2.088-1.4-3.066-1.965L277.5,5.767C270.962,1.994,263.516,0,255.966,0
	c-7.555,0-15.005,1.996-21.547,5.776L50.043,112.265c-0.949,0.549-1.895,1.152-2.978,1.902c-4.087,2.831-7.635,6.335-10.547,10.421
	c-1.913,2.683-3.52,5.597-4.775,8.658c-2.147,5.23-3.236,10.724-3.236,16.334l0.036,212.917c0,0.921,0.034,1.876,0.105,2.919
	c0.017,0.234,0.037,0.469,0.061,0.702l0.014,0.143c0.061,0.693,0.134,1.385,0.231,2.095c0.033,0.24,0.071,0.477,0.108,0.716
	l0.025,0.16c0.11,0.69,0.234,1.378,0.38,2.075c0.053,0.254,0.107,0.508,0.163,0.746c0.177,0.779,0.377,1.547,0.608,2.351
	l0.112,0.392c1.143,3.829,2.821,7.487,4.986,10.874c0.014,0.023,0.029,0.045,0.043,0.068c1.476,2.298,3.175,4.463,5.048,6.429
	c0.04,0.042,0.153,0.164,0.194,0.206c0.896,0.929,1.847,1.83,2.81,2.663l0.498,0.42c1.092,0.919,2.105,1.699,3.096,2.388
	c1.095,0.763,2.096,1.403,3.063,1.963l184.411,106.428c6.539,3.773,13.985,5.768,21.534,5.768l0,0
	c7.555,0,15.005-1.998,21.547-5.777l184.37-106.486c0.94-0.543,1.887-1.146,2.991-1.91c0.99-0.687,2.001-1.466,3.177-2.447
	l0.405-0.339c0.986-0.851,1.937-1.749,2.881-2.723l0.119-0.127c4.695-4.904,8.205-10.929,10.122-17.332
	c0.052-0.171,0.101-0.342,0.142-0.497c0.224-0.775,0.427-1.556,0.608-2.34c0.058-0.253,0.112-0.508,0.168-0.773
	c0.143-0.684,0.27-1.374,0.398-2.177c0.041-0.259,0.082-0.518,0.122-0.802c0.093-0.687,0.168-1.378,0.227-2.061l0.014-0.143
	c0.025-0.24,0.047-0.48,0.063-0.721c0.072-1.057,0.106-2.018,0.105-2.931L483.457,149.505z M48.473,140.11
	c0.729-1.781,1.662-3.472,2.77-5.025c1.695-2.378,3.754-4.415,6.118-6.053c0.669-0.463,1.218-0.815,1.726-1.109l184.376-106.49
	c3.795-2.193,8.119-3.351,12.502-3.351c4.381,0,8.703,1.157,12.495,3.347l114.926,66.328L46.62,312.278l-0.028-162.702
	C46.591,146.336,47.225,143.151,48.473,140.11z M57.357,382.999c-0.538-0.375-1.126-0.829-1.787-1.385l-0.293-0.246
	c-0.568-0.489-1.119-1.011-1.589-1.498c-0.025-0.029-0.128-0.137-0.156-0.168c-1.099-1.155-2.094-2.424-2.956-3.772
	c-0.017-0.025-0.031-0.048-0.047-0.074c-1.237-1.948-2.195-4.047-2.85-6.239l-0.069-0.246c-0.127-0.442-0.244-0.888-0.35-1.354
	l-0.093-0.428c-0.082-0.395-0.156-0.793-0.217-1.183l-0.081-0.523c-0.055-0.4-0.096-0.803-0.13-1.203l-0.048-0.493
	c-0.039-0.561-0.064-1.125-0.064-1.7l-0.005-28.479L400.861,97.841l52.01,30.015c0.524,0.301,1.087,0.665,1.778,1.145
	c3.881,2.699,6.909,6.446,8.757,10.826c0.451,1.073,0.827,2.166,1.117,3.259c0.567,2.123,0.854,4.282,0.854,6.418L465.381,178
	L111.136,414.155l-52.005-30.013C58.603,383.836,58.039,383.473,57.357,382.999z M465.349,364.1l-0.051,0.52
	c-0.035,0.408-0.076,0.813-0.128,1.191l-0.064,0.407l-0.02,0.127c-0.064,0.404-0.137,0.804-0.218,1.191l-0.096,0.447
	c-0.105,0.457-0.224,0.909-0.362,1.385l-0.06,0.218c-1.13,3.762-3.164,7.255-5.905,10.118l-0.083,0.09
	c-0.515,0.532-1.068,1.054-1.635,1.543l-0.293,0.242c-0.671,0.561-1.259,1.015-1.784,1.382c-0.678,0.468-1.226,0.821-1.734,1.114
	l-184.373,106.49c-3.796,2.192-8.12,3.351-12.504,3.351c-4.381,0-8.703-1.159-12.495-3.348l-114.932-66.33l336.773-224.506
	l0.027,162.705C465.41,363.003,465.385,363.566,465.349,364.1z"/>
<g>
</g>
<g>
</g>
<g>
</g>
<g>
</g>
<g>
</g>
<g>
</g>
<g>
</g>
<g>
</g>
<g>
</g>
<g>
</g>
<g>
</g>
<g>
</g>
<g>
</g>
<g>
</g>
<g>
</g>
</svg>
