<?xml version="1.0" encoding="iso-8859-1"?>
<!-- Generator: Adobe Illustrator 19.0.0, SVG Export Plug-In . SVG Version: 6.00 Build 0)  -->
<svg version="1.1" id="Layer_1" xmlns="http://www.w3.org/2000/svg" xmlns:xlink="http://www.w3.org/1999/xlink" x="0px" y="0px"
	 viewBox="0 0 511.998 511.998" style="enable-background:new 0 0 511.998 511.998;" xml:space="preserve">
<path style="fill:#FFFFFF;" d="M473.103,371.851c0.176-0.611,0.338-1.228,0.479-1.85c0.047-0.201,0.089-0.401,0.131-0.603
	c0.113-0.541,0.213-1.085,0.3-1.634c0.037-0.236,0.076-0.473,0.11-0.711c0.076-0.545,0.131-1.093,0.18-1.643
	c0.02-0.225,0.047-0.447,0.063-0.674c0.052-0.767,0.084-1.537,0.084-2.313l0,0l0,0v-0.006l-0.005-40.904v-0.001l-0.005-26.204
	v-0.002l-0.001-4.213l-0.004-25.574l0,0l-0.008-48.824l-0.005-26.204l-0.007-40.985c0-2.996-0.406-5.93-1.16-8.75
	c-0.405-1.517-0.915-2.997-1.52-4.435c-2.479-5.877-6.575-11.016-11.925-14.74c-0.784-0.545-1.584-1.071-2.421-1.554l-22.874-13.2
	l-21.414-12.358l-17.24-9.949L329.935,46.47l-25.717-14.842l-19.288-11.132l-11.953-6.898c-10.533-6.078-23.509-6.077-34.04,0.006
	l-11.872,6.857l-19.288,11.14l-25.717,14.854l0,0l-65.913,38.072l-28.89,16.686l-21.408,12.365l-11.282,6.517
	c-0.811,0.469-1.59,0.979-2.353,1.507c-3.272,2.266-6.073,5.068-8.331,8.236c-1.517,2.128-2.781,4.423-3.773,6.841
	c-1.655,4.031-2.558,8.399-2.557,12.899l0.006,40.912l0.005,26.204l0.012,73.738v4.011v0.85v0.001v0.013l0,0v0.005l0,0l0.005,26.2
	l0,0v1.864l0.002,12.617l0.004,26.497v0.006l0,0c0,0.773,0.033,1.539,0.084,2.304c0.016,0.224,0.042,0.446,0.061,0.669
	c0.048,0.55,0.105,1.096,0.18,1.638c0.033,0.236,0.072,0.471,0.108,0.706c0.087,0.546,0.186,1.087,0.298,1.626
	c0.042,0.201,0.086,0.403,0.131,0.603c0.14,0.615,0.298,1.222,0.471,1.825c0.033,0.113,0.061,0.227,0.095,0.34
	c0.909,3.042,2.24,5.93,3.94,8.589c0,0,0,0.001,0.001,0.002l0.001,0.001c1.172,1.832,2.517,3.551,4.025,5.137
	c0.051,0.052,0.099,0.106,0.148,0.158c0.709,0.735,1.454,1.439,2.231,2.112c0.125,0.11,0.254,0.215,0.382,0.322
	c0.786,0.661,1.595,1.3,2.445,1.89c0.784,0.545,1.584,1.07,2.419,1.554l22.552,13.015l21.414,12.359l17.561,10.135l91.644,52.89
	l19.288,11.132l11.953,6.898c10.533,6.078,23.509,6.077,34.04-0.006l11.872-6.857l19.288-11.14l25.717-14.853l55.554-32.086
	l10.363-5.985l26.36-15.225l21.408-12.365l13.813-7.978c0.813-0.469,1.59-0.979,2.353-1.507c0.85-0.59,1.659-1.226,2.445-1.883
	c0.129-0.107,0.259-0.213,0.386-0.322c0.779-0.673,1.526-1.375,2.236-2.11c0.046-0.048,0.09-0.098,0.136-0.146
	c3.725-3.891,6.475-8.609,8.019-13.765C473.045,372.067,473.073,371.958,473.103,371.851z"/>
<g>
	<path style="fill:#103B9B;" d="M466.993,128.334c-2.035-2.561-4.442-4.845-7.182-6.753c-0.784-0.545-1.584-1.071-2.421-1.554
		l-22.874-13.2l-21.414-12.358l-17.24-9.949l-65.926-38.047l-25.717-14.842l-19.288-11.132l-11.953-6.898
		c-10.533-6.078-23.509-6.077-34.04,0.006l-11.872,6.857l-19.288,11.14L182.06,46.457l0,0l-65.914,38.07l-28.89,16.686
		l-21.408,12.365l-11.282,6.517c-0.811,0.469-1.59,0.979-2.353,1.507c-3.272,2.266-6.073,5.068-8.331,8.236
		c-1.517,2.128-2.781,4.423-3.773,6.841c-1.655,4.031-2.558,8.399-2.557,12.899l0.006,40.912l0.005,26.204l0.012,73.738v4.011v0.85
		v0.001v0.013l0,0v0.005l0,0l0.005,26.2v0.001v1.863l0.001,12.617l0.005,26.497v0.006l0,0c0,0.773,0.033,1.539,0.084,2.304
		c0.016,0.225,0.042,0.446,0.061,0.669c0.049,0.55,0.105,1.096,0.18,1.638c0.033,0.236,0.071,0.471,0.11,0.706
		c0.081,0.517,0.176,1.03,0.282,1.541l405.284-227.86L466.993,128.334z"/>
	<path style="fill:#103B9B;" d="M77.162,404.987l21.414,12.359l17.561,10.135l91.644,52.89l19.288,11.132l11.953,6.898
		c10.533,6.078,23.509,6.077,34.04-0.006l11.872-6.857l19.288-11.14l25.717-14.853l55.554-32.086l10.363-5.985l26.36-15.225
		l21.408-12.365l13.813-7.978c0.813-0.469,1.59-0.979,2.353-1.507c0.85-0.59,1.659-1.226,2.445-1.883
		c0.129-0.107,0.259-0.213,0.386-0.323c0.779-0.671,1.526-1.374,2.236-2.11c0.047-0.048,0.09-0.098,0.136-0.146
		c3.724-3.891,6.475-8.609,8.019-13.765c0.033-0.106,0.06-0.215,0.09-0.322c0.176-0.611,0.338-1.228,0.479-1.85
		c0.047-0.201,0.089-0.401,0.131-0.603c0.113-0.541,0.213-1.085,0.3-1.633c0.037-0.236,0.076-0.473,0.11-0.711
		c0.076-0.545,0.131-1.093,0.18-1.643c0.021-0.225,0.047-0.447,0.063-0.674c0.052-0.767,0.084-1.537,0.084-2.313l0,0v-0.006
		l-0.004-40.903v-0.001l-0.005-26.204v-0.002l-0.001-4.213l-0.004-25.574l-0.002-9.026L57.473,393.625L77.162,404.987z"/>
</g>
<polygon style="fill:#FFFFFF;" points="466.993,128.334 466.993,128.334 443.586,141.494 38.302,369.353 38.302,369.353 "/>
<path style="fill:#FF7900;" d="M38.317,369.439c0.042,0.201,0.084,0.403,0.13,0.603c0.14,0.615,0.298,1.222,0.471,1.825
	c0.033,0.113,0.061,0.227,0.095,0.34c0.909,3.042,2.239,5.93,3.94,8.589c0,0,0,0.001,0.001,0.002l0.001,0.001
	c0.295,0.463,0.634,0.896,0.952,1.343L474.42,190.326l-0.007-40.821c0-2.996-0.406-5.93-1.16-8.75
	c-0.405-1.517-0.914-2.997-1.52-4.435c-1.208-2.864-2.806-5.55-4.742-7.987L38.302,369.353
	C38.307,369.382,38.311,369.411,38.317,369.439z"/>
<circle style="fill:#FFFFFF;" cx="143.288" cy="195.403" r="36.166"/>
<path d="M80.917,204.445h18.07c3.606,17.687,17.569,31.651,35.257,35.255v18.07c0,4.993,4.048,9.041,9.041,9.041
	c4.993,0,9.041-4.048,9.041-9.041v-18.07c17.687-3.605,31.651-17.568,35.255-35.255h18.07c4.993,0,9.041-4.048,9.041-9.041
	c0-4.993-4.048-9.041-9.041-9.041h-18.07c-3.605-17.687-17.568-31.651-35.255-35.255v-18.07c0-4.993-4.048-9.041-9.041-9.041
	c-4.993,0-9.041,4.048-9.041,9.041v18.07c-17.687,3.605-31.651,17.568-35.257,35.255h-18.07c-4.993,0-9.041,4.048-9.041,9.041
	C71.876,200.397,75.924,204.445,80.917,204.445z M143.283,168.28c14.957,0,27.124,12.167,27.124,27.124
	s-12.167,27.124-27.124,27.124c-14.957,0-27.124-12.167-27.124-27.124S128.328,168.28,143.283,168.28z M483.456,149.505
	c0-3.709-0.493-7.437-1.464-11.075c-0.503-1.887-1.15-3.777-1.928-5.623c-3.18-7.542-8.399-13.99-15.091-18.646
	c-1.113-0.775-2.086-1.398-3.066-1.964L277.499,5.768C270.961,1.995,263.515,0,255.964,0c-7.555,0-15.005,1.998-21.547,5.776
	L50.042,112.265c-0.945,0.546-1.89,1.15-2.979,1.904c-4.086,2.831-7.633,6.336-10.546,10.419c-1.912,2.683-3.519,5.596-4.775,8.657
	c-2.147,5.231-3.234,10.726-3.234,16.334l0.035,212.916c0,0.922,0.034,1.876,0.105,2.917c0.017,0.235,0.039,0.469,0.061,0.703
	l0.014,0.143c0.06,0.694,0.134,1.385,0.231,2.096c0.034,0.24,0.071,0.477,0.108,0.716l0.025,0.158
	c0.11,0.691,0.234,1.375,0.379,2.066c0.053,0.256,0.107,0.51,0.164,0.757c0.177,0.776,0.377,1.543,0.606,2.348l0.112,0.392
	c1.143,3.829,2.821,7.486,4.985,10.871c0.012,0.019,0.025,0.039,0.037,0.058c1.477,2.301,3.179,4.47,5.054,6.44
	c0.04,0.042,0.153,0.164,0.194,0.205c0.887,0.921,1.837,1.819,2.827,2.677l0.481,0.405c1.098,0.922,2.111,1.703,3.096,2.389
	c1.114,0.775,2.087,1.398,3.064,1.963l184.411,106.428c6.539,3.773,13.985,5.768,21.534,5.768l0,0
	c7.555,0,15.005-1.998,21.547-5.776l184.37-106.487c0.943-0.545,1.89-1.149,2.987-1.908c0.99-0.687,2.004-1.465,3.107-2.388
	l0.475-0.398c0.986-0.85,1.938-1.748,2.85-2.689l0.153-0.162c4.695-4.904,8.205-10.929,10.124-17.344
	c0.052-0.166,0.1-0.335,0.14-0.487c0.224-0.774,0.427-1.554,0.609-2.344c0.058-0.253,0.112-0.508,0.168-0.769
	c0.142-0.684,0.269-1.372,0.379-2.067l0.021-0.123c0.04-0.253,0.08-0.508,0.119-0.786c0.093-0.687,0.168-1.378,0.227-2.063
	l0.014-0.145c0.025-0.239,0.047-0.479,0.063-0.72c0.072-1.058,0.106-2.019,0.105-2.931L483.456,149.505z M48.472,140.11
	c0.731-1.781,1.662-3.471,2.77-5.025c1.696-2.378,3.755-4.415,6.116-6.051c0.671-0.464,1.221-0.819,1.73-1.111l184.375-106.49
	c3.796-2.192,8.119-3.351,12.504-3.351c4.381,0,8.701,1.159,12.495,3.347l182.693,105.437l-43.56,24.49
	c-4.352,2.447-5.897,7.96-3.45,12.312c1.66,2.951,4.729,4.612,7.89,4.612c1.5,0,3.022-0.375,4.423-1.161l47.229-26.553
	c0.322,0.835,0.611,1.678,0.835,2.52c0.567,2.124,0.854,4.283,0.854,6.421l0.017,100.441L58.514,383.764
	c-0.356-0.223-0.729-0.468-1.161-0.768c-0.54-0.375-1.109-0.817-1.783-1.383l-0.288-0.24c-0.576-0.499-1.128-1.022-1.596-1.507
	c-0.027-0.028-0.128-0.136-0.154-0.164c-1.099-1.155-2.094-2.424-2.956-3.773c-0.011-0.017-0.022-0.033-0.033-0.051
	c-0.476-0.747-0.897-1.523-1.289-2.311l333.189-187.327c4.352-2.447,5.897-7.96,3.449-12.312c-2.446-4.352-7.959-5.897-12.312-3.45
	L46.625,354.301l-0.034-204.725C46.59,146.337,47.223,143.152,48.472,140.11z M465.348,364.1l-0.051,0.52
	c-0.035,0.406-0.076,0.813-0.128,1.192l-0.083,0.533c-0.064,0.404-0.137,0.804-0.219,1.197l-0.095,0.441
	c-0.105,0.458-0.224,0.91-0.362,1.388l-0.061,0.222c-1.13,3.761-3.164,7.251-5.903,10.114l-0.083,0.09
	c-0.515,0.532-1.068,1.052-1.639,1.545l-0.289,0.241c-0.669,0.561-1.256,1.014-1.787,1.382c-0.674,0.465-1.222,0.819-1.731,1.111
	l-184.373,106.49c-3.796,2.193-8.12,3.351-12.504,3.351c-4.381,0-8.701-1.157-12.495-3.347L79.5,395.898l385.893-126.916
	l0.016,93.454C465.409,363.004,465.384,363.567,465.348,364.1z"/>
<g>
</g>
<g>
</g>
<g>
</g>
<g>
</g>
<g>
</g>
<g>
</g>
<g>
</g>
<g>
</g>
<g>
</g>
<g>
</g>
<g>
</g>
<g>
</g>
<g>
</g>
<g>
</g>
<g>
</g>
</svg>
