<?xml version="1.0" encoding="iso-8859-1"?>
<!-- Generator: Adobe Illustrator 19.0.0, SVG Export Plug-In . SVG Version: 6.00 Build 0)  -->
<svg version="1.1" id="Layer_1" xmlns="http://www.w3.org/2000/svg" xmlns:xlink="http://www.w3.org/1999/xlink" x="0px" y="0px"
	 viewBox="0 0 512 512" style="enable-background:new 0 0 512 512;" xml:space="preserve">
<path style="fill:#ED1F34;" d="M474.444,321.51l-0.005-26.203l-0.005-29.662l-0.001-9.644l-0.006-39.306l-0.005-26.204
	l-0.006-40.985c0-2.996-0.407-5.93-1.16-8.75c-0.405-1.517-0.915-2.997-1.521-4.435c-2.477-5.877-6.574-11.016-11.925-14.74
	c-0.784-0.545-1.584-1.071-2.419-1.554l-22.874-13.2l-21.414-12.358l-17.239-9.949l-65.926-38.047l-25.717-14.842l-19.288-11.132
	l-11.953-6.898c-5.264-3.039-11.14-4.558-17.016-4.558c-5.878,0-11.757,1.521-17.026,4.564l-11.872,6.857l-19.288,11.14
	l-25.717,14.854l0,0l-65.917,38.07l-28.889,16.686l-21.406,12.365l-11.284,6.517c-0.811,0.469-1.59,0.979-2.352,1.507
	c-3.273,2.266-6.073,5.068-8.333,8.236c-1.517,2.128-2.781,4.423-3.773,6.841c-1.655,4.031-2.558,8.399-2.557,12.899l0.006,40.912
	l0.005,26.204l0.005,29.662l0,0l0.004,19.288l0.005,29.65v0.013v0.005l0.005,26.198l0.006,40.978v0.007
	c0.002,11.196,5.513,21.598,14.605,27.923c0.784,0.545,1.584,1.07,2.421,1.553l22.552,13.016l21.414,12.359l17.561,10.134
	l91.644,52.89l19.288,11.132l11.953,6.899c5.265,3.038,11.14,4.557,17.015,4.557c5.879,0,11.757-1.523,17.026-4.564l11.872-6.857
	l19.288-11.14l25.717-14.853l55.553-32.086l10.363-5.985l26.36-15.225l21.408-12.365l13.813-7.977
	c0.811-0.469,1.59-0.98,2.353-1.507c9.131-6.324,14.665-16.752,14.663-27.977L474.444,321.51z"/>
<g>
	<path style="fill:#103B9B;" d="M72.434,265.041h-5.936l0.004,25.047v0.012v0.005l0.004,22.729l0.006,35.551v0.006
		c0.001,9.714,4.782,18.737,12.671,24.225c0.68,0.474,1.374,0.929,2.1,1.349l19.564,11.29l18.578,10.723l15.235,8.792l79.505,45.886
		l16.734,9.659l10.37,5.984c1.823,1.051,3.732,1.884,5.69,2.516V381.39L72.434,265.041z"/>
	<path style="fill:#103B9B;" d="M246.957,130.61V43.17c-1.982,0.635-3.916,1.474-5.76,2.539l-10.299,5.949l-16.734,9.665
		l-22.312,12.887l0,0l-57.186,33.029l-25.064,14.476l-18.572,10.727l-9.789,5.654c-0.704,0.406-1.38,0.849-2.041,1.307
		c-2.838,1.966-5.268,4.397-7.228,7.145c-1.315,1.846-2.412,3.837-3.273,5.936c-1.436,3.497-2.219,7.286-2.218,11.191l0.006,35.494
		l0.004,22.732l0.004,25.059h5.938L246.957,130.61z"/>
	<path style="fill:#103B9B;" d="M265.04,381.39v87.44c1.982-0.635,3.916-1.474,5.76-2.54l10.299-5.948l16.734-9.666l22.312-12.886
		l48.195-27.835l8.991-5.195l22.869-13.208l18.572-10.727l11.983-6.921c0.704-0.407,1.38-0.849,2.041-1.307
		c7.921-5.486,12.723-14.534,12.721-24.271l-0.006-35.494l-0.004-22.732l-0.004-25.059h-5.938L265.04,381.39z"/>
	<path style="fill:#103B9B;" d="M439.565,246.958h5.936l-0.004-25.059l-0.004-22.732l-0.006-35.557c0-2.599-0.353-5.145-1.005-7.591
		c-0.352-1.315-0.793-2.599-1.32-3.847c-2.149-5.098-5.703-9.557-10.346-12.787c-0.68-0.474-1.374-0.929-2.1-1.348l-19.843-11.452
		l-18.578-10.722l-14.956-8.632l-57.193-33.008l-22.312-12.876L281.1,51.689l-10.37-5.984c-1.823-1.052-3.732-1.884-5.69-2.517
		v87.423L439.565,246.958z"/>
</g>
<polygon style="fill:#FFFFFF;" points="436.827,255.999 255.999,376.551 75.171,255.999 255.999,135.447 "/>
<path style="fill:#259245;" d="M327.738,219.231c-36.607,0-66.457,28.881-68.036,65.098h-34.837
	c-5.631-11.743-17.63-19.854-31.523-19.854c-0.596,0-1.187,0.017-1.776,0.045c-7.848-9.613-19.789-15.754-33.165-15.754
	c-20.87,0-38.228,14.945-42.011,34.713l57.333,38.221h164.553l57.435-38.29C393.67,247.627,364.033,219.231,327.738,219.231z"/>
<circle style="fill:#FFE000;" cx="256.052" cy="200.574" r="27.099"/>
<path style="fill:#ED1F34;" d="M474.431,246.958h-34.866L265.04,130.608V10.283c-2.969-0.822-6.022-1.242-9.076-1.242
	c-3.031,0-6.059,0.412-9.006,1.221V130.61L72.434,246.958h-34.87l0.004,18.083h34.866l174.524,116.35v120.327
	c2.969,0.822,6.022,1.242,9.076,1.242c3.031,0,6.059-0.412,9.006-1.221V381.39l174.524-116.35h34.87l-0.001-9.041L474.431,246.958z
	 M255.999,365.686L91.471,255.999l164.528-109.685l164.528,109.685L255.999,365.686z"/>
<path d="M256.035,512c-7.548,0-14.994-1.994-21.533-5.767L50.09,399.803c-0.97-0.561-1.972-1.202-3.064-1.963
	c-11.571-8.049-18.481-21.262-18.483-35.342L28.508,149.58c0-5.608,1.087-11.103,3.234-16.334c1.256-3.062,2.863-5.976,4.776-8.658
	c2.913-4.084,6.46-7.589,10.546-10.419c1.085-0.752,2.033-1.356,2.981-1.905L234.418,5.776C240.959,1.998,248.41,0,255.964,0
	c7.55,0,14.997,1.995,21.535,5.768l184.41,106.428c0.978,0.564,1.951,1.187,3.064,1.961c6.694,4.658,11.913,11.106,15.093,18.649
	c0.77,1.828,1.419,3.717,1.925,5.614c0.972,3.642,1.465,7.369,1.466,11.08l0.035,212.919c0.002,14.124-6.934,27.36-18.557,35.411
	c-1.097,0.758-2.042,1.362-2.98,1.904L277.582,506.223C271.039,510.002,263.588,512,256.035,512z M255.964,18.083
	c-4.383,0-8.706,1.16-12.504,3.351L59.087,127.924c-0.511,0.295-1.058,0.647-1.728,1.109c-2.363,1.637-4.422,3.673-6.118,6.053
	c-1.108,1.554-2.04,3.244-2.77,5.023c-1.248,3.042-1.881,6.227-1.881,9.467l0.035,212.912c0.001,8.172,4.012,15.837,10.727,20.509
	c0.681,0.474,1.247,0.837,1.778,1.144l184.408,106.428c3.794,2.189,8.116,3.347,12.495,3.347c4.382,0,8.706-1.16,12.504-3.351
	l184.375-106.49c0.503-0.288,1.052-0.641,1.731-1.113c6.741-4.669,10.767-12.348,10.765-20.54l-0.035-212.918
	c0-2.137-0.288-4.298-0.854-6.419c-0.292-1.095-0.668-2.189-1.116-3.254c-1.849-4.386-4.876-8.13-8.758-10.83
	c-0.686-0.477-1.251-0.841-1.777-1.145L268.46,21.428C264.665,19.24,260.345,18.083,255.964,18.083z"/>
<g>
</g>
<g>
</g>
<g>
</g>
<g>
</g>
<g>
</g>
<g>
</g>
<g>
</g>
<g>
</g>
<g>
</g>
<g>
</g>
<g>
</g>
<g>
</g>
<g>
</g>
<g>
</g>
<g>
</g>
</svg>
