<?xml version="1.0" encoding="iso-8859-1"?>
<!-- Generator: Adobe Illustrator 19.0.0, SVG Export Plug-In . SVG Version: 6.00 Build 0)  -->
<svg version="1.1" id="Layer_1" xmlns="http://www.w3.org/2000/svg" xmlns:xlink="http://www.w3.org/1999/xlink" x="0px" y="0px"
	 viewBox="0 0 512 512" style="enable-background:new 0 0 512 512;" xml:space="preserve">
<path style="fill:#103B9B;" d="M474.45,321.5L474.45,321.5v-26.2l0,0v-4.2v-25.6v-48.8v-26.2v-41c0-3-0.4-5.9-1.2-8.7
	c-0.4-1.5-0.9-3-1.5-4.4c-2.5-5.9-6.6-11-11.9-14.7c-0.8-0.5-1.6-1.1-2.4-1.6l-22.9-13.2l-21.4-12.4l-17.2-9.9l-65.9-38l-25.7-14.8
	l-19.3-11.1l-12-6.9c-10.5-6.1-23.5-6.1-34,0l-11.9,6.9l-19.3,11.1l-25.7,14.9l0,0l-50.4,29.1l-15.5,9l-28.9,16.7l-21.4,12.4
	l-11.3,6.5c-0.8,0.5-1.6,1-2.4,1.5c-3.3,2.3-6.1,5.1-8.3,8.2c-1.5,2.1-2.8,4.4-3.8,6.8c-1.7,4-2.6,8.4-2.6,12.9v1.5l0,0v39.4v1.9
	l0,0v24.3V248l0,0v41.3l0,0v1.3v4v0.8l0,0l0,0l0,0v26.2l0,0v1.9v12.6v8.5l0,0v18l0,0l0,0c0,0.8,0,1.5,0.1,2.3c0,0.2,0,0.4,0.1,0.7
	c0,0.5,0.1,1.1,0.2,1.6c0,0.2,0.1,0.5,0.1,0.7c0.1,0.5,0.2,1.1,0.3,1.6c0,0.2,0.1,0.4,0.1,0.6c0.1,0.6,0.3,1.2,0.5,1.8
	c0,0.1,0.1,0.2,0.1,0.3c0.9,3,2.2,5.9,3.9,8.6l0,0l0,0c1.2,1.8,2.5,3.6,4,5.1c0.1,0.1,0.1,0.1,0.1,0.2c0.1,0.1,0.1,0.1,0.2,0.2l0,0
	c0.7,0.7,1.3,1.3,2,1.9c0.1,0.1,0.3,0.2,0.4,0.3c0.8,0.7,1.6,1.3,2.4,1.9c0.8,0.5,1.6,1.1,2.4,1.6l22.6,13l21.4,12.4l11.5,6.7l0,0
	l6,3.5l91.6,52.9l19.3,11.1l12,6.9c10.5,6.1,23.5,6.1,34,0l11.9-6.9l19.3-11.1l25.7-14.9l55.6-32.1l10.4-6l26.4-15.2l21.4-12.4
	l13.8-8c0.8-0.5,1.6-1,2.4-1.5c0.9-0.6,1.7-1.2,2.4-1.9c0.1-0.1,0.3-0.2,0.4-0.3c0.8-0.7,1.5-1.4,2.2-2.1l0.1-0.1
	c3.7-3.9,6.5-8.6,8-13.8c0-0.1,0.1-0.2,0.1-0.3c0.2-0.6,0.3-1.2,0.5-1.8c0-0.2,0.1-0.4,0.1-0.6c0.1-0.5,0.2-1.1,0.3-1.6
	c0-0.2,0.1-0.5,0.1-0.7c0.1-0.5,0.1-1.1,0.2-1.6c0-0.2,0-0.4,0.1-0.7c0.1-0.8,0.1-1.5,0.1-2.3l0,0l0,0L474.45,321.5z"/>
<g>
	<circle style="fill:#FFFFFF;" cx="123.95" cy="161.7" r="11.7"/>
	<circle style="fill:#FFFFFF;" cx="123.95" cy="301.7" r="11.7"/>
	<circle style="fill:#FFFFFF;" cx="158.95" cy="190.9" r="11.7"/>
	<circle style="fill:#FFFFFF;" cx="88.95" cy="220" r="11.7"/>
</g>
<g>
	<path style="fill:#FFE000;" d="M415.15,240.5c0-35.3,6-69.2,17.1-100.8l-246.3,175.6c-3.8,2.7-6.3,7.2-6.3,12.3c0,8.3,6.7,15,15,15
		h238C421.35,310.7,415.15,276.3,415.15,240.5z"/>
	<path style="fill:#FFE000;" d="M432.65,379.8h-253.1c-4.1,0-7.5-3.4-7.5-7.5s3.4-7.5,7.5-7.5h253.1c4.1,0,7.5,3.4,7.5,7.5
		S436.85,379.8,432.65,379.8z"/>
</g>
<path d="M432.65,351.7h-238c-13.3,0-24.1-10.8-24.1-24.1c0-7.7,3.8-15.1,10.1-19.6l246.3-175.6c3.2-2.3,7.5-2.2,10.7,0.1
	c3.2,2.4,4.4,6.5,3.1,10.2c-11,31.4-16.6,64.3-16.6,97.8c0,34,5.7,67.3,17,99.1c1,2.8,0.6,5.8-1.1,8.2
	C438.35,350.2,435.65,351.7,432.65,351.7z M415.85,162.5l-224.7,160.2c-1.6,1.1-2.5,2.9-2.5,4.9c0,3.3,2.7,6,6,6h225.5
	c-9.3-30.1-14.1-61.3-14.1-93.1C406.05,214,409.35,187.9,415.85,162.5z M256.05,512L256.05,512c-7.6,0-15-2-21.5-5.8L50.15,399.8
	c-1-0.6-1.9-1.2-3.1-2c-1-0.7-2-1.5-3.1-2.4l-0.5-0.4c-0.8-0.7-1.6-1.5-2.5-2.3c-0.1-0.1-0.2-0.2-0.4-0.3l-0.1-0.1l-0.2-0.2
	c-1.9-2-3.6-4.1-5-6.4l0,0l0,0c-2.2-3.4-3.8-7-5-10.9c0-0.1-0.1-0.3-0.1-0.4c-0.2-0.8-0.4-1.6-0.6-2.3c-0.1-0.2-0.1-0.5-0.2-0.7
	c-0.1-0.7-0.3-1.4-0.4-2.1c-0.1-0.4-0.1-0.6-0.1-0.9c-0.1-0.7-0.2-1.4-0.2-2.1v-0.1c0-0.2,0-0.5-0.1-0.7c-0.1-1-0.1-2-0.1-2.9V149.7
	c0-5.6,1.1-11.1,3.2-16.3c1.3-3.1,2.9-6,4.8-8.7c2.9-4.1,6.5-7.6,10.5-10.4c1.1-0.8,2-1.4,3-1.9L234.45,5.8c6.6-3.8,14-5.8,21.6-5.8
	c7.5,0,15,2,21.5,5.8l184.4,106.4c1,0.6,2,1.2,3.1,2c6.7,4.7,11.9,11.1,15.1,18.7c0.8,1.8,1.4,3.7,1.9,5.6c1,3.6,1.5,7.4,1.5,11.1
	v212.9c0,0.9,0,1.9-0.1,2.9c0,0.2,0,0.5-0.1,0.7v0.1c-0.1,0.7-0.1,1.4-0.2,2.1c0,0.2-0.1,0.5-0.1,0.8v0.1c-0.1,0.7-0.2,1.4-0.4,2.1
	c-0.1,0.3-0.1,0.5-0.2,0.8c-0.2,0.8-0.4,1.6-0.6,2.4l-0.1,0.4c-1.9,6.5-5.5,12.5-10.2,17.4c0,0-0.1,0.1-0.2,0.2
	c-0.9,0.9-1.8,1.8-2.8,2.6l-0.5,0.4c-1.2,1-2.2,1.7-3.1,2.4c-1.1,0.7-2,1.4-3,1.9l-184.3,106.4C271.05,510,263.65,512,256.05,512z
	 M53.55,379.7c0.1,0.1,0.2,0.2,0.3,0.3c0.5,0.5,1,1,1.5,1.4l0.3,0.2c0.7,0.6,1.2,1,1.8,1.4c0.7,0.5,1.3,0.8,1.8,1.1l184.4,106.4
	c3.8,2.2,8.1,3.3,12.5,3.3c4.4,0,8.7-1.2,12.5-3.4l184.4-106.5c0.5-0.3,1.1-0.6,1.7-1.1c0.5-0.4,1.1-0.8,1.8-1.4l0.3-0.2
	c0.6-0.5,1.1-1,1.6-1.5l0.1-0.1c2.7-2.9,4.8-6.4,5.9-10.1l0.1-0.3c0.1-0.4,0.2-0.8,0.3-1.3l0.1-0.4c0.1-0.4,0.2-0.8,0.2-1.2l0.1-0.5
	c0.1-0.4,0.1-0.8,0.1-1.2l0.1-0.5c0-0.5,0.1-1.1,0.1-1.7V149.5c0-2.1-0.3-4.3-0.9-6.4c-0.3-1.1-0.7-2.2-1.1-3.3
	c-1.8-4.4-4.9-8.1-8.8-10.8c-0.7-0.5-1.2-0.8-1.8-1.1L268.55,21.4c-3.8-2.2-8.1-3.3-12.5-3.3c-4.4,0-8.7,1.2-12.5,3.4L59.15,127.9
	c-0.5,0.3-1.1,0.6-1.7,1.1c-2.4,1.6-4.4,3.7-6.1,6c-1.1,1.6-2,3.2-2.8,5c-1.2,3-1.9,6.2-1.9,9.5v212.9c0,0.6,0,1.1,0.1,1.7v0.5
	c0,0.4,0.1,0.8,0.1,1.2l0.1,0.4v0.1c0.1,0.4,0.1,0.8,0.2,1.2l0.1,0.4c0.1,0.5,0.2,0.9,0.3,1.4l0.1,0.2c0.7,2.2,1.6,4.3,2.9,6.3l0,0
	C51.55,377.3,52.45,378.6,53.55,379.7L53.55,379.7z"/>
<g>
</g>
<g>
</g>
<g>
</g>
<g>
</g>
<g>
</g>
<g>
</g>
<g>
</g>
<g>
</g>
<g>
</g>
<g>
</g>
<g>
</g>
<g>
</g>
<g>
</g>
<g>
</g>
<g>
</g>
</svg>
