<?xml version="1.0" encoding="iso-8859-1"?>
<!-- Generator: Adobe Illustrator 19.0.0, SVG Export Plug-In . SVG Version: 6.00 Build 0)  -->
<svg version="1.1" id="Layer_1" xmlns="http://www.w3.org/2000/svg" xmlns:xlink="http://www.w3.org/1999/xlink" x="0px" y="0px"
	 viewBox="0 0 512 512" style="enable-background:new 0 0 512 512;" xml:space="preserve">
<g>
	<path style="fill:#FFFFFF;" d="M473.106,371.85c0.176-0.61,0.336-1.227,0.479-1.848c0.046-0.201,0.088-0.403,0.13-0.604
		c0.113-0.54,0.213-1.085,0.301-1.632c0.037-0.237,0.076-0.474,0.11-0.711c0.075-0.546,0.131-1.095,0.18-1.644
		c0.02-0.225,0.047-0.448,0.063-0.674c0.052-0.767,0.084-1.537,0.084-2.313l0,0l0,0v-0.006l-0.006-40.904v-0.002l-0.004-26.203
		v-0.002v-4.213l-0.005-25.574l0,0l-0.007-48.824l-0.004-26.204l-0.007-40.985c0-2.996-0.407-5.93-1.16-8.75
		c-0.405-1.517-0.915-2.997-1.521-4.435c-2.477-5.877-6.574-11.016-11.925-14.74c-0.784-0.545-1.584-1.071-2.421-1.554l-22.872-13.2
		l-21.414-12.358l-17.239-9.949l-65.927-38.046l-25.717-14.842l-19.288-11.132l-11.953-6.898
		c-10.533-6.078-23.509-6.077-34.04,0.006l-11.872,6.857l-19.288,11.14l-25.717,14.854l0,0l-65.917,38.07l-28.889,16.686
		l-21.408,12.365l-11.284,6.517c-0.811,0.469-1.59,0.979-2.353,1.507c-3.272,2.266-6.073,5.068-8.333,8.236
		c-1.517,2.128-2.781,4.423-3.773,6.841c-1.655,4.031-2.558,8.399-2.557,12.899l0.007,40.912l0.004,26.204l0.012,73.738v4.011v0.85
		v0.001v0.013l0,0v0.005l0,0l0.004,26.198v0.002v1.863l0.002,12.617l0.004,26.496v0.007l0,0c0,0.773,0.033,1.539,0.084,2.305
		c0.016,0.224,0.042,0.445,0.061,0.668c0.048,0.55,0.105,1.096,0.18,1.638c0.033,0.236,0.072,0.471,0.108,0.708
		c0.087,0.544,0.186,1.086,0.298,1.625c0.042,0.201,0.084,0.403,0.13,0.603c0.14,0.615,0.299,1.222,0.471,1.825
		c0.033,0.113,0.061,0.228,0.095,0.34c0.909,3.043,2.24,5.93,3.94,8.588c0,0.001,0.001,0.002,0.001,0.002l0.001,0.002
		c1.172,1.832,2.517,3.551,4.026,5.137c0.051,0.053,0.098,0.106,0.148,0.159c0.709,0.734,1.454,1.438,2.231,2.112
		c0.125,0.11,0.254,0.215,0.382,0.322c0.786,0.661,1.595,1.298,2.445,1.89c0.784,0.545,1.584,1.07,2.421,1.553L77.16,404.99
		l21.414,12.359l17.561,10.134l91.644,52.89l19.288,11.132l11.953,6.899c10.534,6.078,23.509,6.076,34.04-0.007l11.872-6.857
		l19.288-11.14l25.717-14.853l55.554-32.086l10.363-5.985l26.36-15.224l21.408-12.365l13.813-7.977
		c0.811-0.469,1.59-0.98,2.353-1.507c0.851-0.588,1.659-1.226,2.446-1.884c0.128-0.106,0.258-0.212,0.385-0.323
		c0.779-0.671,1.526-1.374,2.237-2.108c0.047-0.048,0.09-0.098,0.136-0.145c3.724-3.893,6.476-8.61,8.02-13.767
		C473.047,372.067,473.074,371.958,473.106,371.85z"/>
	<path style="fill:#FFFFFF;" d="M256.002,9.043c-2.941-0.002-5.883,0.375-8.748,1.132c-0.004,0.001-0.008,0.002-0.012,0.002
		c-0.665,0.176-1.325,0.377-1.982,0.596c-0.052,0.018-0.104,0.03-0.156,0.048c-0.615,0.206-1.221,0.439-1.826,0.682
		c-0.09,0.036-0.183,0.065-0.275,0.102c-0.528,0.217-1.046,0.462-1.565,0.706c-0.163,0.077-0.33,0.142-0.492,0.223
		c-0.563,0.276-1.116,0.58-1.667,0.89c-0.111,0.063-0.227,0.117-0.336,0.18l-11.872,6.857l-19.288,11.14l-25.717,14.854l0,0
		l-65.918,38.072l-28.889,16.686l-21.408,12.365l-11.284,6.517c-0.811,0.469-1.59,0.979-2.353,1.507
		c-1.636,1.133-3.155,2.4-4.546,3.781c-1.391,1.379-2.657,2.872-3.787,4.456c-0.948,1.33-1.784,2.732-2.53,4.182
		c-0.447,0.869-0.87,1.753-1.243,2.659c-0.251,0.61-0.479,1.228-0.693,1.854c-0.018,0.054-0.035,0.11-0.053,0.164
		c-0.204,0.608-0.394,1.221-0.567,1.841v0.001c0,0.001-0.001,0.001-0.001,0.002c-0.398,1.433-0.704,2.898-0.914,4.386
		c-0.008,0.066-0.016,0.133-0.025,0.199c-0.083,0.616-0.146,1.237-0.195,1.861c-0.012,0.162-0.025,0.324-0.036,0.486
		c-0.045,0.698-0.074,1.398-0.074,2.104l0.001,7.842l-0.001,98.58h21.504h34.72h14.965v-66.914l88.985,66.914H256v-28.59V212.18
		l-72.823-54.76H256V140.54v-39.163V84.496h-72.819l72.822-54.76V9.043z"/>
</g>
<g>
	<polygon style="fill:#ED1F34;" points="124.904,157.419 256.002,255.999 256.002,227.409 163.147,157.419 	"/>
	<path style="fill:#ED1F34;" d="M59.057,140.54v115.461h34.72V140.54h162.226v-39.163H93.777v-3.928l-6.518,3.765l-21.408,12.364
		l-11.284,6.517c-0.811,0.469-1.59,0.979-2.353,1.507c-1.636,1.133-3.155,2.4-4.546,3.781c-1.391,1.379-2.657,2.872-3.787,4.456
		c-0.948,1.33-1.784,2.732-2.53,4.182c-0.447,0.869-0.87,1.753-1.243,2.659c-0.251,0.61-0.479,1.228-0.693,1.854
		c-0.018,0.054-0.035,0.11-0.053,0.164c-0.204,0.608-0.394,1.221-0.567,1.841v0.001H59.057z"/>
</g>
<path style="fill:#103B9B;" d="M474.446,321.512v-0.002l-0.004-26.203v-0.002v-4.213l-0.005-25.574l-0.007-48.824l-0.004-26.204
	l-0.007-40.985c0-2.996-0.407-5.93-1.16-8.75c-0.405-1.517-0.915-2.997-1.521-4.435c-2.477-5.877-6.574-11.016-11.925-14.74
	c-0.784-0.545-1.584-1.071-2.421-1.554l-22.872-13.2l-21.414-12.358l-17.239-9.949l-65.927-38.046l-25.717-14.842l-19.288-11.132
	l-11.953-6.898c-7.89-4.553-17.152-5.694-25.729-3.424l0,0c2.866-0.758,5.807-1.136,8.748-1.132v20.694l-72.821,54.758h72.822v16.88
	v39.163v16.88h-72.823l72.823,54.76v15.229v28.591h-58.275l-88.985-66.914v66.914H93.777h-34.72H37.569l0.006,34.432v4.011v0.85
	v0.001v0.013l0,0v0.005l0,0l0.004,26.198v0.002v1.863l0.001,12.617l0.005,26.496v0.007l0,0c0,0.773,0.033,1.539,0.084,2.305
	c0.016,0.224,0.042,0.445,0.061,0.668c0.048,0.55,0.105,1.096,0.18,1.639c0.033,0.235,0.071,0.47,0.108,0.706
	c0.087,0.544,0.186,1.086,0.299,1.625c0.042,0.201,0.084,0.403,0.13,0.603c0.14,0.615,0.298,1.222,0.471,1.825
	c0.033,0.113,0.061,0.228,0.095,0.34c0.909,3.043,2.24,5.93,3.94,8.588c0,0.002,0,0.002,0.001,0.004l0.001,0.001
	c1.172,1.832,2.517,3.551,4.026,5.136c0.051,0.054,0.098,0.107,0.148,0.16c0.709,0.734,1.454,1.438,2.231,2.112
	c0.125,0.11,0.254,0.215,0.382,0.322c0.786,0.661,1.595,1.298,2.445,1.89c0.784,0.545,1.584,1.07,2.421,1.553l22.552,13.016
	l21.414,12.359l17.561,10.134l91.644,52.89l19.288,11.132l11.953,6.899c10.534,6.078,23.509,6.076,34.04-0.007l11.872-6.857
	l19.288-11.14l25.717-14.853l55.554-32.086l10.364-5.985l26.36-15.225l21.408-12.365l13.813-7.977
	c0.811-0.469,1.59-0.98,2.352-1.507c0.851-0.588,1.659-1.226,2.446-1.884c0.128-0.106,0.258-0.212,0.385-0.323
	c0.779-0.671,1.526-1.374,2.237-2.108c0.047-0.048,0.09-0.098,0.137-0.145c3.724-3.893,6.475-8.61,8.019-13.767
	c0.031-0.106,0.059-0.215,0.09-0.323c0.176-0.61,0.336-1.227,0.479-1.848c0.046-0.201,0.088-0.403,0.13-0.603
	c0.113-0.541,0.213-1.086,0.3-1.635c0.039-0.236,0.077-0.473,0.11-0.71c0.075-0.546,0.131-1.095,0.18-1.644
	c0.021-0.225,0.047-0.447,0.063-0.674c0.052-0.767,0.084-1.537,0.084-2.313l0,0v-0.006L474.446,321.512z"/>
<path style="fill:#FFFFFF;" d="M312.446,205.368c5.964,9.328,15.528,15.417,26.342,15.417c10.812,0,20.377-6.089,26.349-15.417
	c5.964,9.328,15.528,15.417,26.342,15.417s20.395-6.089,26.35-15.417c5.876,13.086,9.301,28.525,9.301,45.073
	c0,67.067-62.029,99.578-62.029,99.578s-62.029-32.512-62.029-99.578C303.073,233.894,306.498,218.453,312.446,205.368z"/>
<path style="fill:#3DB4EA;" d="M311.805,292.165c17.087,38.871,53.297,57.853,53.297,57.853s36.21-18.982,53.297-57.853H311.805z"/>
<g>
	<path style="fill:#FFE000;" d="M365.101,285.544c-14.189,0-25.732-11.542-25.732-25.731c0-14.19,11.543-25.733,25.732-25.733
		c14.189,0,25.732,11.543,25.732,25.733C390.833,274.003,379.29,285.544,365.101,285.544z M365.101,252.165
		c-4.217,0-7.649,3.432-7.649,7.65c0,4.217,3.432,7.648,7.649,7.648c4.217,0,7.649-3.431,7.649-7.648
		C372.75,255.596,369.318,252.165,365.101,252.165z"/>
	<path style="fill:#FFE000;" d="M304.825,197.07v66.721c0,65.174,60.276,80.071,60.276,80.071s60.276-14.897,60.276-80.071V197.07
		L304.825,197.07L304.825,197.07z"/>
</g>
<circle style="fill:#F2A643;" cx="342.803" cy="244.395" r="17.781"/>
<circle style="fill:#FF7900;" cx="387.408" cy="244.395" r="17.781"/>
<circle style="fill:#259245;" cx="365.106" cy="282.068" r="17.781"/>
<path d="M365.101,352.903c-0.728,0-1.456-0.088-2.17-0.264c-0.692-0.172-17.151-4.342-33.563-17.271
	c-15.321-12.07-33.585-34.285-33.585-71.578v-66.72c0-4.993,4.048-9.041,9.041-9.041h120.552c4.993,0,9.041,4.048,9.041,9.041v66.72
	c0,37.293-18.264,59.508-33.585,71.578c-16.412,12.93-32.871,17.1-33.563,17.271C366.558,352.815,365.83,352.903,365.101,352.903z
	 M313.866,206.111v57.678c0,50.75,41.284,67.377,51.259,70.648c10.234-3.284,51.211-19.623,51.211-70.648v-57.678L313.866,206.111
	L313.866,206.111z M483.459,149.505c0-3.709-0.493-7.437-1.464-11.075c-0.503-1.887-1.15-3.777-1.928-5.623
	c-3.18-7.542-8.399-13.99-15.091-18.646c-1.113-0.775-2.086-1.398-3.066-1.964L277.502,5.768C270.963,1.995,263.516,0,255.967,0
	c-7.555,0-15.005,1.998-21.547,5.776L50.049,112.263c-0.943,0.545-1.89,1.149-2.985,1.907c-4.086,2.831-7.632,6.335-10.545,10.419
	c-1.911,2.681-3.517,5.592-4.776,8.658c-2.146,5.23-3.234,10.724-3.234,16.332l0.036,212.917c0,0.928,0.034,1.882,0.105,2.917
	c0.017,0.241,0.039,0.48,0.064,0.721l0.013,0.127c0.06,0.694,0.133,1.384,0.229,2.094c0.036,0.259,0.077,0.516,0.133,0.866
	c0.111,0.697,0.236,1.389,0.381,2.077c0.053,0.256,0.107,0.51,0.164,0.756c0.177,0.776,0.377,1.544,0.604,2.337
	c0.04,0.149,0.082,0.299,0.115,0.405c1.138,3.809,2.804,7.45,4.952,10.818c0.012,0.019,0.024,0.037,0.036,0.057
	c1.484,2.323,3.199,4.51,5.069,6.474c0.046,0.049,0.168,0.178,0.215,0.228c0.892,0.926,1.841,1.824,2.826,2.675l0.481,0.405
	c1.098,0.923,2.111,1.705,3.097,2.391c1.115,0.775,2.087,1.397,3.062,1.96l184.411,106.429c6.539,3.772,13.985,5.767,21.534,5.767
	c7.555,0,15.005-1.998,21.547-5.776l184.37-106.487c0.943-0.544,1.89-1.149,2.987-1.907c0.99-0.687,2.004-1.466,3.107-2.389
	l0.475-0.398c0.986-0.85,1.938-1.747,2.85-2.688l0.153-0.163c4.695-4.904,8.205-10.929,10.124-17.344
	c0.052-0.168,0.1-0.334,0.14-0.487c0.224-0.774,0.427-1.554,0.609-2.342c0.058-0.254,0.112-0.509,0.168-0.77
	c0.142-0.682,0.269-1.371,0.379-2.067l0.021-0.123c0.04-0.253,0.08-0.508,0.119-0.786c0.093-0.686,0.168-1.378,0.227-2.063
	l0.014-0.143c0.025-0.239,0.047-0.477,0.063-0.72c0.072-1.058,0.106-2.019,0.105-2.931L483.459,149.505z M465.349,364.098
	l-0.051,0.521c-0.035,0.406-0.076,0.813-0.128,1.191l-0.083,0.534c-0.064,0.403-0.137,0.804-0.219,1.196l-0.095,0.44
	c-0.105,0.459-0.224,0.911-0.362,1.389l-0.061,0.222c-1.13,3.76-3.164,7.251-5.903,10.113l-0.083,0.092
	c-0.515,0.53-1.068,1.051-1.639,1.544l-0.289,0.24c-0.669,0.561-1.256,1.015-1.787,1.382c-0.674,0.467-1.222,0.82-1.731,1.113
	l-184.373,106.49c-3.796,2.192-8.12,3.351-12.504,3.351c-4.381,0-8.703-1.157-12.495-3.347L59.133,384.143
	c-0.526-0.304-1.09-0.669-1.777-1.144c-0.538-0.376-1.108-0.819-1.814-1.41l-0.262-0.218c-0.573-0.495-1.125-1.019-1.577-1.486
	c-0.033-0.035-0.137-0.148-0.172-0.183c-1.086-1.142-2.073-2.397-2.929-3.73c-0.011-0.017-0.02-0.031-0.03-0.047
	c-1.257-1.966-2.231-4.088-2.886-6.28l-0.075-0.269c-0.128-0.445-0.245-0.891-0.35-1.351l-0.095-0.442
	c-0.081-0.388-0.153-0.78-0.219-1.198l-0.078-0.499c-0.054-0.4-0.094-0.803-0.131-1.222l-0.045-0.474
	c-0.037-0.562-0.063-1.125-0.063-1.699l-0.036-212.911c0-3.24,0.632-6.427,1.879-9.463c0.732-1.783,1.666-3.476,2.773-5.028
	c1.696-2.378,3.754-4.415,6.114-6.051c0.674-0.465,1.222-0.819,1.731-1.111L243.464,21.434c3.796-2.192,8.12-3.351,12.504-3.351
	c4.381,0,8.701,1.157,12.495,3.347l184.41,106.428c0.527,0.304,1.09,0.667,1.777,1.145c3.881,2.7,6.908,6.446,8.756,10.824
	c0.452,1.074,0.828,2.169,1.119,3.26c0.567,2.124,0.854,4.283,0.854,6.421l0.035,212.93
	C465.412,363.004,465.385,363.567,465.349,364.098z"/>
<g>
</g>
<g>
</g>
<g>
</g>
<g>
</g>
<g>
</g>
<g>
</g>
<g>
</g>
<g>
</g>
<g>
</g>
<g>
</g>
<g>
</g>
<g>
</g>
<g>
</g>
<g>
</g>
<g>
</g>
</svg>
