<?xml version="1.0" encoding="iso-8859-1"?>
<!-- Generator: Adobe Illustrator 19.0.0, SVG Export Plug-In . SVG Version: 6.00 Build 0)  -->
<svg version="1.1" id="Layer_1" xmlns="http://www.w3.org/2000/svg" xmlns:xlink="http://www.w3.org/1999/xlink" x="0px" y="0px"
	 viewBox="0 0 512.001 512.001" style="enable-background:new 0 0 512.001 512.001;" xml:space="preserve">
<path style="fill:#FFFFFF;" d="M473.104,371.85c0.176-0.61,0.336-1.227,0.479-1.848c0.046-0.201,0.089-0.403,0.131-0.604
	c0.113-0.54,0.213-1.085,0.3-1.632c0.037-0.237,0.076-0.474,0.11-0.711c0.075-0.546,0.131-1.095,0.18-1.644
	c0.021-0.225,0.047-0.448,0.063-0.674c0.052-0.767,0.084-1.537,0.084-2.313l0,0l0,0v-0.006l-0.006-40.904v-0.002l-0.005-26.203
	v-0.002v-4.213l-0.004-25.574l0,0l-0.008-48.824l-0.005-26.203l-0.006-40.985c0-2.995-0.408-5.931-1.16-8.75
	c-0.405-1.517-0.915-2.997-1.521-4.435c-2.477-5.876-6.574-11.016-11.925-14.74c-0.784-0.545-1.584-1.071-2.419-1.553
	l-22.874-13.202l-21.414-12.358l-17.239-9.949l-65.926-38.046l-25.717-14.844l-19.288-11.132l-11.953-6.899
	c-10.533-6.078-23.509-6.076-34.04,0.007l-11.872,6.857l-19.288,11.14l-25.717,14.853l0,0l-65.918,38.072l-28.889,16.686
	L65.85,113.578l-11.284,6.516c-0.811,0.469-1.59,0.98-2.353,1.507c-3.272,2.268-6.073,5.067-8.333,8.236
	c-1.517,2.127-2.781,4.422-3.773,6.841c-1.655,4.032-2.558,8.399-2.557,12.899l0.006,40.913l0.005,26.203l0.012,73.738v4.011v0.85
	v0.001v0.013l0,0v0.005l0,0l0.005,26.198v0.002v1.863l0.002,12.617l0.004,26.496v0.007l0,0c0,0.773,0.033,1.539,0.084,2.305
	c0.016,0.224,0.042,0.445,0.061,0.668c0.048,0.55,0.105,1.096,0.18,1.638c0.033,0.236,0.072,0.471,0.108,0.708
	c0.087,0.544,0.186,1.086,0.298,1.625c0.042,0.201,0.086,0.403,0.131,0.603c0.14,0.615,0.298,1.222,0.471,1.825
	c0.033,0.113,0.061,0.228,0.095,0.34c0.909,3.043,2.24,5.93,3.94,8.588l0.001,0.002l0.001,0.002
	c1.172,1.832,2.517,3.551,4.025,5.137c0.051,0.053,0.099,0.106,0.148,0.159c0.709,0.734,1.454,1.438,2.231,2.112
	c0.125,0.11,0.254,0.215,0.382,0.322c0.786,0.661,1.595,1.298,2.445,1.89c0.784,0.545,1.584,1.07,2.419,1.553l22.552,13.016
	l21.414,12.359l17.561,10.134l91.644,52.89l19.288,11.132l11.953,6.899c10.533,6.078,23.509,6.076,34.04-0.007l11.872-6.857
	l19.288-11.14l25.717-14.853l55.554-32.086l10.363-5.985l26.36-15.225l21.408-12.365l13.813-7.977
	c0.811-0.469,1.59-0.98,2.353-1.507c0.851-0.588,1.659-1.226,2.446-1.884c0.128-0.106,0.258-0.212,0.385-0.323
	c0.78-0.671,1.526-1.374,2.237-2.108c0.047-0.048,0.09-0.098,0.136-0.145c3.724-3.893,6.476-8.61,8.02-13.767
	C473.045,372.067,473.073,371.958,473.104,371.85z"/>
<g>
	<path style="fill:#259245;" d="M49.363,388.206c0.125,0.11,0.254,0.215,0.382,0.322c0.786,0.661,1.595,1.298,2.445,1.89
		c0.784,0.545,1.584,1.07,2.419,1.553l22.552,13.016l21.414,12.359l17.561,10.134l91.644,52.89l19.288,11.132l11.953,6.899
		c10.533,6.078,23.509,6.076,34.04-0.007l11.872-6.857l19.288-11.14l25.717-14.853l55.554-32.086l10.363-5.985l26.36-15.225
		l21.408-12.365l13.813-7.977c0.811-0.469,1.59-0.98,2.353-1.507c0.851-0.588,1.659-1.226,2.446-1.884
		c0.128-0.106,0.258-0.212,0.385-0.323c0.149-0.127,0.281-0.272,0.428-0.403H48.923C49.074,387.925,49.21,388.075,49.363,388.206z"
		/>
	<path style="fill:#259245;" d="M404.156,124.21h58.945c-1.039-0.934-2.129-1.82-3.29-2.629c-0.784-0.545-1.584-1.071-2.419-1.553
		l-22.874-13.202l-21.414-12.358l-17.239-9.949l-65.926-38.046l-25.717-14.844l-19.288-11.132l-11.953-6.899
		c-10.533-6.078-23.509-6.076-34.04,0.007l-11.872,6.857l-19.288,11.14l-25.717,14.853l0,0l-65.918,38.072l-28.889,16.686
		L65.85,113.578l-11.284,6.516c-0.811,0.469-1.59,0.98-2.353,1.507c-1.152,0.798-2.224,1.684-3.257,2.609h314.016H404.156z"/>
</g>
<polygon style="fill:#ED1F34;" points="474.445,321.512 474.445,321.51 474.44,295.307 474.44,295.304 474.439,291.091 
	474.435,265.517 474.427,216.693 474.422,190.49 474.42,174.222 474.42,170.886 37.554,170.886 37.556,190.49 37.561,216.693 
	37.573,290.431 37.574,294.442 37.574,294.597 37.574,295.291 37.574,295.293 37.574,295.307 37.574,295.311 37.579,321.51 
	37.579,321.512 37.579,323.375 37.581,335.992 37.581,341.115 474.447,341.115 "/>
<polygon style="fill:#FFE000;" points="209.81,245.63 243.819,243.872 256,212.069 268.181,243.872 302.191,245.63 275.71,267.042 
	284.548,299.931 256,281.361 227.453,299.931 236.291,267.042 "/>
<path d="M310.79,242.836c-1.157-3.562-4.392-6.043-8.132-6.236l-28.137-1.454l-10.077-26.309c-1.339-3.497-4.698-5.807-8.443-5.807
	c-3.746,0-7.104,2.31-8.443,5.807l-10.077,26.309l-28.137,1.454c-3.741,0.193-6.975,2.674-8.132,6.236
	c-1.157,3.562,0.001,7.469,2.914,9.824l21.908,17.714l-7.311,27.209c-0.972,3.617,0.387,7.46,3.418,9.661
	c3.031,2.204,7.104,2.31,10.245,0.265L256,292.147l23.617,15.362c1.502,0.978,3.216,1.462,4.929,1.462
	c1.869,0,3.733-0.577,5.315-1.728c3.031-2.201,4.389-6.044,3.418-9.661l-7.311-27.209l21.908-17.714
	C310.788,250.306,311.948,246.399,310.79,242.836z M270.025,260.011c-2.78,2.248-3.975,5.924-3.046,9.377l2.712,10.091l-8.759-5.698
	c-1.498-0.975-3.214-1.462-4.929-1.462c-1.715,0-3.431,0.487-4.929,1.462l-8.759,5.698l2.712-10.091
	c0.928-3.453-0.266-7.128-3.046-9.377l-8.126-6.57l10.436-0.539c3.571-0.184,6.698-2.457,7.977-5.796l3.737-9.757l3.737,9.757
	c1.279,3.339,4.406,5.61,7.977,5.796l10.436,0.539L270.025,260.011z M483.457,149.503c0-3.711-0.494-7.438-1.465-11.078
	c-0.506-1.899-1.155-3.789-1.925-5.615c-3.179-7.544-8.398-13.991-15.096-18.652c-1.118-0.778-2.089-1.4-3.062-1.961L277.499,5.767
	C270.96,1.994,263.514,0,255.965,0c-7.555,0-15.005,1.996-21.547,5.776L50.043,112.265c-0.95,0.549-1.896,1.152-2.978,1.902
	c-4.086,2.831-7.635,6.335-10.547,10.421c-1.912,2.683-3.519,5.597-4.775,8.658c-2.147,5.23-3.234,10.724-3.234,16.334
	l0.035,212.917c0,0.921,0.034,1.876,0.105,2.919c0.016,0.234,0.037,0.469,0.061,0.702l0.014,0.143
	c0.061,0.693,0.134,1.385,0.231,2.095c0.034,0.24,0.071,0.477,0.108,0.716l0.025,0.16c0.11,0.691,0.235,1.378,0.38,2.075
	c0.053,0.254,0.107,0.508,0.163,0.746c0.177,0.779,0.377,1.547,0.608,2.351l0.112,0.393c1.144,3.827,2.821,7.486,4.988,10.875
	c1.484,2.322,3.198,4.509,5.089,6.494c0.04,0.042,0.153,0.164,0.195,0.206c0.896,0.929,1.847,1.83,2.81,2.663l0.498,0.419
	c1.093,0.919,2.105,1.699,3.096,2.388c1.096,0.764,2.096,1.403,3.064,1.963l184.411,106.428c6.538,3.773,13.985,5.768,21.534,5.768
	l0,0c7.554,0,15.005-1.998,21.547-5.776l184.372-106.49c0.945-0.545,1.89-1.149,2.982-1.905c0.986-0.682,1.999-1.461,3.181-2.448
	c0.14-0.116,0.278-0.231,0.405-0.34c0.99-0.854,1.941-1.752,2.84-2.681l0.159-0.171c4.695-4.904,8.206-10.929,10.149-17.421
	l0.116-0.406c0.224-0.775,0.427-1.556,0.605-2.34l0.169-0.773c0.143-0.684,0.27-1.374,0.398-2.177
	c0.042-0.259,0.082-0.518,0.121-0.792c0.094-0.69,0.168-1.383,0.228-2.071l0.014-0.143c0.024-0.24,0.047-0.48,0.063-0.721
	c0.071-1.043,0.105-1.999,0.105-2.931L483.457,149.503z M465.41,362.423c0,0.571-0.025,1.138-0.061,1.678l-0.051,0.52
	c-0.035,0.404-0.076,0.805-0.129,1.191l-0.063,0.407c0,0.004-0.02,0.125-0.02,0.127c-0.064,0.404-0.137,0.804-0.231,1.251
	l-0.084,0.387c-0.104,0.457-0.222,0.909-0.347,1.341l-0.071,0.254c-1.005,3.356-2.738,6.497-5.046,9.169H52.708
	c-0.769-0.895-1.497-1.825-2.134-2.82c-0.016-0.025-0.031-0.049-0.047-0.074c-1.237-1.948-2.195-4.047-2.849-6.239l-0.069-0.246
	c-0.127-0.442-0.244-0.888-0.351-1.354l-0.093-0.428c-0.082-0.395-0.154-0.793-0.217-1.183l-0.082-0.523
	c-0.054-0.4-0.096-0.803-0.13-1.203l-0.048-0.493c-0.039-0.561-0.064-1.125-0.064-1.699l-0.001-12.332h418.783L465.41,362.423z
	 M46.622,332.073l-0.025-152.145h418.783l0.025,152.145H46.622z M243.463,21.434c3.795-2.193,8.119-3.351,12.504-3.351
	c4.381,0,8.701,1.157,12.495,3.347l162.422,93.739h-26.726c-4.993,0-9.041,4.047-9.041,9.041c0,4.994,4.048,9.041,9.041,9.041
	h55.167c1.677,1.959,3.063,4.167,4.081,6.583c0.448,1.062,0.825,2.157,1.116,3.252c0.565,2.121,0.854,4.281,0.854,6.418
	l0.001,12.339H46.593l-0.001-12.269c0-3.24,0.632-6.425,1.881-9.467c0.729-1.781,1.662-3.472,2.769-5.025
	c0.454-0.638,0.94-1.245,1.447-1.834h310.284c4.993,0,9.041-4.047,9.041-9.041s-4.048-9.041-9.041-9.041h-281.8L243.463,21.434z
	 M268.539,490.566c-3.796,2.192-8.119,3.351-12.502,3.351c-4.381,0-8.701-1.159-12.496-3.348L81.12,396.832h349.709L268.539,490.566
	z"/>
<g>
</g>
<g>
</g>
<g>
</g>
<g>
</g>
<g>
</g>
<g>
</g>
<g>
</g>
<g>
</g>
<g>
</g>
<g>
</g>
<g>
</g>
<g>
</g>
<g>
</g>
<g>
</g>
<g>
</g>
</svg>
