<?xml version="1.0" encoding="iso-8859-1"?>
<!-- Generator: Adobe Illustrator 19.0.0, SVG Export Plug-In . SVG Version: 6.00 Build 0)  -->
<svg version="1.1" id="Layer_1" xmlns="http://www.w3.org/2000/svg" xmlns:xlink="http://www.w3.org/1999/xlink" x="0px" y="0px"
	 viewBox="0 0 512 512" style="enable-background:new 0 0 512 512;" xml:space="preserve">
<path style="fill:#ED1F34;" d="M473.103,371.851c0.176-0.611,0.338-1.228,0.479-1.85c0.047-0.2,0.089-0.401,0.131-0.603
	c0.113-0.54,0.213-1.085,0.3-1.634c0.037-0.236,0.076-0.473,0.11-0.711c0.076-0.545,0.131-1.092,0.18-1.643
	c0.021-0.225,0.047-0.447,0.063-0.674c0.052-0.767,0.084-1.537,0.084-2.313l0,0l0,0v-0.006l-0.005-40.904v-0.002l-0.005-26.203
	v-0.002l-0.001-4.213l-0.004-25.574l0,0l-0.008-48.824l-0.005-26.204l-0.007-40.984c0-2.995-0.406-5.931-1.16-8.75
	c-0.405-1.517-0.915-2.997-1.52-4.435c-2.479-5.877-6.575-11.017-11.925-14.74c-0.784-0.545-1.584-1.071-2.421-1.553l-22.874-13.202
	l-21.414-12.358l-17.24-9.949l-65.924-38.046L304.22,31.629l-19.288-11.132l-11.953-6.899c-10.533-6.078-23.509-6.076-34.04,0.007
	l-11.872,6.857l-19.288,11.14l-25.717,14.854v-0.001l-65.915,38.072l-28.89,16.686l-21.408,12.365l-11.282,6.517
	c-0.811,0.468-1.59,0.979-2.353,1.506c-3.272,2.268-6.073,5.068-8.331,8.235c-1.517,2.129-2.781,4.424-3.773,6.843
	c-1.655,4.031-2.558,8.399-2.557,12.899l0.006,40.912l0.005,26.204l0.012,73.738v4.011v0.85v0.001v0.013l0,0v0.005l0,0l0.005,26.2
	l0,0v1.864l0.002,12.617l0.004,26.497v0.006l0,0c0,0.773,0.033,1.539,0.084,2.305c0.016,0.223,0.042,0.445,0.061,0.668
	c0.048,0.548,0.105,1.096,0.18,1.638c0.033,0.236,0.072,0.471,0.108,0.708c0.087,0.544,0.186,1.086,0.298,1.625
	c0.042,0.201,0.086,0.403,0.131,0.603c0.14,0.615,0.298,1.222,0.471,1.825c0.033,0.113,0.061,0.227,0.095,0.34
	c0.909,3.042,2.24,5.93,3.94,8.589v0.001l0.002,0.002c1.172,1.832,2.517,3.551,4.025,5.137c0.051,0.052,0.099,0.106,0.148,0.158
	c0.709,0.735,1.454,1.439,2.231,2.113c0.125,0.11,0.254,0.215,0.382,0.322c0.786,0.661,1.595,1.298,2.445,1.89
	c0.784,0.545,1.584,1.07,2.419,1.553l22.552,13.015l21.414,12.36l17.561,10.134l91.644,52.89l19.288,11.132l11.953,6.899
	c10.533,6.078,23.509,6.076,34.04-0.007l11.872-6.857l19.288-11.14l25.717-14.853l55.554-32.086l10.363-5.985l26.36-15.225
	l21.408-12.365l13.813-7.978c0.813-0.468,1.59-0.979,2.353-1.506c0.85-0.588,1.659-1.226,2.445-1.884
	c0.129-0.107,0.259-0.212,0.386-0.322c0.779-0.673,1.526-1.375,2.236-2.11c0.046-0.048,0.09-0.098,0.136-0.146
	c3.725-3.891,6.475-8.609,8.019-13.765C473.045,372.067,473.073,371.958,473.103,371.851z"/>
<g>
	<polygon style="fill:#FFE000;" points="81.199,184.277 117.591,182.398 130.624,148.367 143.658,182.398 180.049,184.277 
		151.713,207.188 161.171,242.381 130.624,222.51 100.079,242.381 109.535,207.188 	"/>
	<circle style="fill:#FFE000;" cx="233.774" cy="173.257" r="12.043"/>
	<circle style="fill:#FFE000;" cx="206.144" cy="125.386" r="12.046"/>
	<circle style="fill:#FFE000;" cx="233.774" cy="228.542" r="12.043"/>
	<circle style="fill:#FFE000;" cx="206.144" cy="276.414" r="12.046"/>
</g>
<path d="M161.171,251.422c-1.713,0-3.427-0.485-4.929-1.462l-25.617-16.663l-25.617,16.663c-3.139,2.041-7.214,1.937-10.245-0.265
	c-3.031-2.201-4.389-6.044-3.418-9.661l7.931-29.512l-23.762-19.214c-2.914-2.354-4.072-6.261-2.914-9.824
	c1.157-3.562,4.392-6.043,8.132-6.236l30.518-1.577l10.93-28.538c1.339-3.497,4.698-5.807,8.443-5.807l0,0
	c3.746,0,7.104,2.31,8.443,5.807l10.929,28.538l30.519,1.577c3.741,0.193,6.975,2.674,8.132,6.236s-0.001,7.469-2.914,9.824
	l-23.762,19.214l7.931,29.512c0.972,3.617-0.387,7.46-3.418,9.661C164.904,250.843,163.039,251.422,161.171,251.422z
	 M130.624,213.469c1.715,0,3.431,0.487,4.929,1.462l10.758,6.998l-3.331-12.394c-0.928-3.453,0.266-7.127,3.048-9.377l9.979-8.069
	l-12.817-0.662c-3.571-0.184-6.698-2.457-7.977-5.796l-4.591-11.985l-4.591,11.985c-1.279,3.339-4.406,5.61-7.977,5.796
	l-12.816,0.662l9.979,8.069c2.781,2.25,3.975,5.924,3.048,9.377l-3.331,12.394l10.758-6.998
	C127.193,213.956,128.909,213.469,130.624,213.469z M256.036,512c-0.001,0-0.001,0-0.002,0c-7.549-0.001-14.994-1.995-21.532-5.767
	L50.091,399.803c-0.967-0.559-1.969-1.199-3.064-1.963c-0.991-0.69-2.004-1.471-3.096-2.388l-0.498-0.419
	c-0.963-0.833-1.914-1.734-2.81-2.663c-0.041-0.042-0.154-0.164-0.195-0.206c-1.889-1.984-3.603-4.172-5.089-6.494
	c-2.166-3.389-3.844-7.047-4.988-10.875l-0.112-0.392c-0.23-0.804-0.429-1.573-0.608-2.351c-0.054-0.239-0.108-0.492-0.163-0.746
	c-0.146-0.697-0.271-1.384-0.38-2.075l-0.025-0.16c-0.039-0.237-0.076-0.476-0.108-0.716c-0.098-0.71-0.17-1.402-0.231-2.095
	l-0.014-0.143c-0.024-0.233-0.046-0.468-0.061-0.702c-0.071-1.043-0.105-1.998-0.105-2.919L28.507,149.58
	c0-5.606,1.087-11.102,3.234-16.334c1.256-3.062,2.863-5.976,4.776-8.658c2.908-4.081,6.456-7.586,10.543-10.419
	c1.101-0.761,2.045-1.363,2.98-1.904L234.418,5.776C240.959,1.998,248.411,0,255.966,0c7.549,0,14.995,1.994,21.534,5.767
	l184.411,106.429c0.97,0.561,1.972,1.202,3.066,1.964c6.692,4.656,11.911,11.105,15.091,18.646c0.776,1.843,1.424,3.733,1.926,5.623
	c0.972,3.638,1.465,7.366,1.465,11.076l0.035,212.911c0.001,0.913-0.033,1.873-0.105,2.931c-0.016,0.24-0.037,0.48-0.063,0.721
	l-0.014,0.143c-0.06,0.684-0.134,1.374-0.227,2.061c-0.039,0.278-0.078,0.536-0.121,0.794c-0.129,0.81-0.256,1.5-0.399,2.184
	c-0.055,0.265-0.11,0.52-0.168,0.773c-0.18,0.784-0.383,1.566-0.608,2.34c-0.041,0.154-0.09,0.327-0.143,0.497
	c-1.917,6.402-5.426,12.428-10.122,17.332l-0.119,0.127c-0.943,0.974-1.894,1.872-2.881,2.723l-0.405,0.339
	c-1.184,0.99-2.199,1.77-3.184,2.452c-1.104,0.763-2.049,1.367-2.984,1.905L277.583,506.223
	C271.041,510.002,263.589,512,256.036,512z M50.528,375.856c0.016,0.024,0.031,0.048,0.047,0.074
	c0.862,1.348,1.856,2.617,2.956,3.772c0.028,0.029,0.129,0.137,0.157,0.168c0.47,0.487,1.021,1.009,1.589,1.498l0.293,0.246
	c0.662,0.556,1.25,1.011,1.787,1.385c0.68,0.475,1.245,0.838,1.775,1.143l184.408,106.428c3.793,2.189,8.113,3.347,12.495,3.347
	c0,0,0,0,0.001,0c4.382,0,8.706-1.16,12.504-3.351l184.373-106.49c0.501-0.288,1.051-0.641,1.734-1.114
	c0.53-0.369,1.099-0.808,1.784-1.382l0.293-0.242c0.568-0.489,1.121-1.011,1.635-1.543l0.083-0.09
	c2.74-2.863,4.776-6.354,5.905-10.118l0.06-0.218c0.137-0.477,0.257-0.929,0.362-1.385l0.096-0.447
	c0.08-0.387,0.154-0.787,0.218-1.191l0.082-0.528c0.053-0.385,0.094-0.79,0.129-1.197l0.051-0.52
	c0.036-0.534,0.063-1.097,0.061-1.664l-0.035-212.931c0-2.136-0.287-4.295-0.854-6.418c-0.291-1.093-0.667-2.187-1.117-3.259
	c-1.847-4.378-4.876-8.125-8.758-10.826c-0.682-0.476-1.245-0.838-1.776-1.144L268.46,21.429c-3.793-2.189-8.113-3.347-12.494-3.347
	c-4.383,0-8.707,1.16-12.504,3.351L59.086,127.924c-0.5,0.288-1.051,0.643-1.732,1.114c-2.359,1.633-4.417,3.671-6.111,6.048
	c-1.109,1.554-2.041,3.244-2.77,5.025c-1.249,3.042-1.882,6.227-1.881,9.467l0.035,212.911c0,0.576,0.025,1.139,0.064,1.7
	l0.048,0.493c0.035,0.4,0.076,0.803,0.13,1.203l0.082,0.524c0.061,0.388,0.134,0.786,0.217,1.181l0.093,0.428
	c0.106,0.465,0.223,0.911,0.351,1.354l0.069,0.246C48.332,371.809,49.291,373.908,50.528,375.856z"/>
<g>
</g>
<g>
</g>
<g>
</g>
<g>
</g>
<g>
</g>
<g>
</g>
<g>
</g>
<g>
</g>
<g>
</g>
<g>
</g>
<g>
</g>
<g>
</g>
<g>
</g>
<g>
</g>
<g>
</g>
</svg>
