<?xml version="1.0" encoding="iso-8859-1"?>
<!-- Generator: Adobe Illustrator 19.0.0, SVG Export Plug-In . SVG Version: 6.00 Build 0)  -->
<svg version="1.1" id="Layer_1" xmlns="http://www.w3.org/2000/svg" xmlns:xlink="http://www.w3.org/1999/xlink" x="0px" y="0px"
	 viewBox="0 0 512.001 512.001" style="enable-background:new 0 0 512.001 512.001;" xml:space="preserve">
<path style="fill:#FFFFFF;" d="M473.101,371.85c0.176-0.61,0.338-1.227,0.479-1.848c0.047-0.201,0.089-0.403,0.131-0.604
	c0.113-0.54,0.213-1.085,0.3-1.632c0.037-0.237,0.076-0.474,0.11-0.711c0.076-0.546,0.131-1.095,0.18-1.644
	c0.02-0.225,0.047-0.448,0.063-0.674c0.052-0.767,0.084-1.537,0.084-2.313l0,0l0,0v-0.006l-0.005-40.904v-0.002l-0.005-26.203
	v-0.002l-0.001-4.213l-0.004-25.574l0,0l-0.008-48.824l-0.005-26.203l-0.007-40.985c0-2.995-0.406-5.931-1.16-8.75
	c-0.405-1.517-0.915-2.997-1.52-4.435c-2.479-5.876-6.575-11.016-11.925-14.74c-0.784-0.545-1.584-1.071-2.421-1.553l-22.874-13.202
	L413.1,94.468l-17.24-9.949l-65.924-38.046l-25.717-14.844l-19.288-11.132l-11.953-6.899c-10.533-6.078-23.509-6.076-34.04,0.007
	l-11.872,6.857l-19.288,11.14L182.06,46.456l0,0l-65.915,38.072l-28.89,16.686l-21.408,12.365l-11.282,6.516
	c-0.811,0.469-1.59,0.98-2.353,1.507c-3.272,2.268-6.073,5.067-8.331,8.236c-1.517,2.127-2.781,4.422-3.773,6.841
	c-1.655,4.032-2.558,8.399-2.557,12.899l0.006,40.913l0.005,26.203l0.012,73.738v4.011v0.85v0.001v0.013l0,0v0.005l0,0l0.005,26.198
	v0.002v1.863l0.002,12.617l0.004,26.496v0.007l0,0c0,0.773,0.033,1.539,0.084,2.305c0.016,0.224,0.042,0.445,0.061,0.668
	c0.048,0.55,0.105,1.096,0.18,1.638c0.033,0.236,0.072,0.471,0.108,0.708c0.087,0.544,0.186,1.086,0.298,1.625
	c0.042,0.201,0.086,0.403,0.131,0.603c0.14,0.615,0.298,1.222,0.471,1.825c0.033,0.113,0.061,0.228,0.095,0.34
	c0.909,3.043,2.24,5.93,3.94,8.588c0,0.001,0,0.002,0,0.002c0.001,0.001,0.001,0.002,0.001,0.002
	c1.172,1.832,2.517,3.551,4.026,5.137c0.051,0.053,0.099,0.106,0.148,0.159c0.709,0.734,1.454,1.438,2.231,2.112
	c0.125,0.11,0.254,0.215,0.382,0.322c0.786,0.661,1.595,1.298,2.445,1.89c0.784,0.545,1.584,1.07,2.419,1.553l22.552,13.016
	l21.414,12.359l17.561,10.134l91.644,52.89l19.288,11.132l11.953,6.899c10.533,6.078,23.509,6.076,34.04-0.007l11.872-6.857
	l19.288-11.14l25.717-14.853l55.554-32.086l10.363-5.985l26.36-15.225l21.408-12.365l13.813-7.977
	c0.813-0.469,1.59-0.98,2.353-1.507c0.85-0.588,1.659-1.226,2.445-1.884c0.129-0.106,0.259-0.212,0.386-0.323
	c0.779-0.671,1.526-1.374,2.236-2.108c0.046-0.048,0.09-0.098,0.136-0.145c3.725-3.893,6.475-8.61,8.019-13.767
	C473.044,372.067,473.071,371.958,473.101,371.85z"/>
<g>
	<path style="fill:#164FCE;" d="M434.256,187.42h40.164l-0.007-37.915c0-2.995-0.406-5.931-1.16-8.75
		c-0.405-1.517-0.914-2.997-1.52-4.435c-2.479-5.876-6.575-11.016-11.925-14.74c-0.784-0.545-1.584-1.071-2.421-1.553
		l-22.874-13.202L413.1,94.468l-17.24-9.949l-65.924-38.046l-25.717-14.844l-19.288-11.132l-11.953-6.899
		c-10.533-6.078-23.509-6.076-34.04,0.007l-11.872,6.857l-19.288,11.14L182.06,46.456l0,0l-65.915,38.072l-28.89,16.686
		l-21.408,12.365l-11.282,6.516c-0.811,0.469-1.59,0.98-2.353,1.507c-3.272,2.268-6.073,5.067-8.331,8.236
		c-1.517,2.127-2.781,4.422-3.773,6.841c-1.655,4.032-2.558,8.399-2.557,12.899l0.006,37.842h355.551H434.256z"/>
	<path style="fill:#164FCE;" d="M37.578,335.992l0.005,26.496v0.007l0,0c0,0.773,0.033,1.539,0.084,2.305
		c0.016,0.224,0.042,0.445,0.061,0.668c0.049,0.55,0.105,1.096,0.18,1.639c0.033,0.235,0.071,0.47,0.11,0.706
		c0.086,0.544,0.184,1.085,0.298,1.625c0.042,0.201,0.084,0.403,0.13,0.603c0.14,0.615,0.298,1.222,0.471,1.825
		c0.033,0.113,0.061,0.228,0.095,0.34c0.909,3.043,2.239,5.93,3.94,8.588c0,0.001,0,0.002,0,0.002
		c0.001,0.001,0.001,0.002,0.001,0.002c1.172,1.832,2.517,3.551,4.026,5.137c0.051,0.053,0.099,0.106,0.148,0.159
		c0.709,0.734,1.454,1.438,2.231,2.112c0.125,0.11,0.254,0.215,0.382,0.322c0.786,0.661,1.594,1.298,2.445,1.89
		c0.784,0.545,1.584,1.071,2.419,1.553l22.552,13.016l21.414,12.359l17.561,10.134l91.644,52.89l19.288,11.132l11.953,6.899
		c10.533,6.078,23.509,6.076,34.04-0.007l11.872-6.857l19.288-11.14l25.717-14.853l55.554-32.086l10.363-5.985l26.36-15.225
		l21.408-12.365l13.813-7.977c0.813-0.469,1.59-0.98,2.353-1.507c0.85-0.588,1.659-1.226,2.445-1.884
		c0.129-0.106,0.259-0.212,0.386-0.323c0.779-0.671,1.526-1.374,2.236-2.108c0.047-0.048,0.09-0.098,0.136-0.145
		c3.724-3.893,6.475-8.61,8.019-13.767c0.033-0.106,0.06-0.215,0.09-0.322c0.176-0.611,0.338-1.228,0.479-1.849
		c0.047-0.201,0.089-0.403,0.131-0.604c0.113-0.54,0.213-1.084,0.3-1.632c0.037-0.237,0.076-0.474,0.11-0.712
		c0.076-0.545,0.131-1.093,0.18-1.643c0.021-0.225,0.047-0.448,0.063-0.674c0.052-0.767,0.084-1.537,0.084-2.313l0,0v-0.006
		l-0.007-37.836H37.577L37.578,335.992z"/>
</g>
<polygon style="fill:#259245;" points="220.363,286.861 255.998,225.139 291.634,286.861 "/>
<path d="M483.454,149.505c0-3.708-0.493-7.438-1.465-11.076c-0.503-1.889-1.15-3.779-1.926-5.623
	c-3.18-7.541-8.399-13.989-15.091-18.646c-1.093-0.762-2.095-1.403-3.066-1.964L277.497,5.767C270.96,1.994,263.513,0,255.964,0
	c-7.555,0-15.006,1.998-21.547,5.776L50.041,112.265c-0.935,0.54-1.879,1.143-2.98,1.904c-4.088,2.833-7.636,6.339-10.543,10.419
	c-1.913,2.682-3.52,5.596-4.776,8.658c-2.147,5.232-3.234,10.727-3.234,16.334l0.035,212.917c0,0.921,0.034,1.876,0.105,2.919
	c0.016,0.234,0.037,0.469,0.061,0.702l0.014,0.143c0.061,0.693,0.134,1.385,0.231,2.095c0.034,0.24,0.071,0.477,0.108,0.716
	l0.025,0.16c0.11,0.691,0.235,1.378,0.38,2.075c0.053,0.254,0.107,0.508,0.163,0.746c0.177,0.779,0.377,1.547,0.608,2.351
	l0.112,0.393c1.144,3.827,2.821,7.486,4.988,10.875c1.484,2.322,3.198,4.509,5.088,6.494c0.04,0.042,0.153,0.164,0.195,0.206
	c0.896,0.929,1.847,1.83,2.81,2.663l0.498,0.419c1.093,0.919,2.105,1.699,3.096,2.388c1.096,0.764,2.096,1.403,3.064,1.963
	l184.411,106.429c6.538,3.772,13.983,5.766,21.532,5.767c0.001,0,0.001,0,0.002,0c7.554,0,15.005-1.998,21.547-5.777l184.37-106.486
	c0.933-0.538,1.879-1.142,2.984-1.905c0.984-0.682,1.999-1.462,3.184-2.452l0.405-0.339c0.986-0.851,1.937-1.749,2.881-2.723
	l0.119-0.127c4.695-4.904,8.205-10.929,10.122-17.332c0.053-0.171,0.102-0.342,0.143-0.497c0.224-0.775,0.427-1.556,0.608-2.34
	c0.058-0.253,0.112-0.508,0.168-0.773c0.143-0.684,0.27-1.374,0.399-2.184c0.041-0.258,0.081-0.516,0.121-0.794
	c0.093-0.687,0.168-1.378,0.227-2.061l0.014-0.143c0.025-0.24,0.047-0.48,0.063-0.721c0.072-1.057,0.106-2.018,0.105-2.931
	L483.454,149.505z M48.47,140.11c0.729-1.781,1.661-3.471,2.77-5.025c1.694-2.377,3.753-4.413,6.111-6.048
	c0.681-0.47,1.232-0.826,1.732-1.114l184.377-106.49c3.796-2.192,8.119-3.351,12.504-3.351c4.381,0,8.701,1.157,12.495,3.347
	l184.41,106.428c0.529,0.307,1.092,0.669,1.776,1.144c3.882,2.7,6.91,6.448,8.758,10.826c0.451,1.072,0.827,2.165,1.118,3.259
	c0.567,2.123,0.854,4.282,0.854,6.418l0.005,28.872h-31.122c-4.994,0-9.041,4.047-9.041,9.041s4.047,9.041,9.041,9.041h31.125
	l0.019,119.078H46.617l-0.02-119.078h346.51c4.994,0,9.041-4.047,9.041-9.041s-4.047-9.041-9.041-9.041H46.594l-0.005-28.802
	C46.588,146.337,47.221,143.152,48.47,140.11z M465.346,364.1l-0.051,0.52c-0.035,0.408-0.076,0.813-0.129,1.197l-0.082,0.528
	c-0.064,0.404-0.137,0.804-0.218,1.191l-0.096,0.447c-0.105,0.457-0.224,0.909-0.362,1.386l-0.06,0.217
	c-1.13,3.762-3.164,7.255-5.905,10.118l-0.083,0.09c-0.515,0.532-1.068,1.054-1.635,1.543l-0.293,0.242
	c-0.685,0.574-1.254,1.013-1.784,1.382c-0.682,0.473-1.232,0.826-1.734,1.114l-184.373,106.49c-3.796,2.192-8.12,3.351-12.504,3.351
	h-0.001c-4.381,0-8.701-1.157-12.495-3.347L59.129,384.141c-0.529-0.305-1.095-0.669-1.775-1.143
	c-0.538-0.375-1.126-0.829-1.787-1.385l-0.293-0.246c-0.568-0.489-1.119-1.011-1.589-1.497c-0.027-0.03-0.129-0.139-0.157-0.169
	c-1.099-1.155-2.094-2.424-2.956-3.772c-0.016-0.025-0.031-0.049-0.047-0.074c-1.237-1.948-2.195-4.047-2.849-6.239l-0.069-0.246
	c-0.127-0.442-0.244-0.888-0.351-1.354l-0.093-0.428c-0.082-0.395-0.154-0.793-0.217-1.183l-0.082-0.523
	c-0.054-0.4-0.096-0.803-0.13-1.203l-0.048-0.493c-0.039-0.561-0.064-1.125-0.064-1.699l-0.005-28.866h418.782l0.005,28.814
	C465.408,363.003,465.382,363.566,465.346,364.1z M263.829,220.619c-1.615-2.797-4.599-4.521-7.83-4.521
	c-3.231,0-6.214,1.724-7.83,4.521l-35.636,61.721c-1.615,2.797-1.615,6.245,0,9.041c1.615,2.797,4.599,4.521,7.83,4.521h71.272
	c0.012,0.001,0.019,0,0.024,0c4.994,0,9.041-4.047,9.041-9.041c0-1.872-0.569-3.611-1.542-5.054L263.829,220.619z M236.024,277.819
	l19.975-34.597l19.975,34.597H236.024z"/>
<g>
</g>
<g>
</g>
<g>
</g>
<g>
</g>
<g>
</g>
<g>
</g>
<g>
</g>
<g>
</g>
<g>
</g>
<g>
</g>
<g>
</g>
<g>
</g>
<g>
</g>
<g>
</g>
<g>
</g>
</svg>
