<?xml version="1.0" encoding="iso-8859-1"?>
<!-- Generator: Adobe Illustrator 19.0.0, SVG Export Plug-In . SVG Version: 6.00 Build 0)  -->
<svg version="1.1" id="Layer_1" xmlns="http://www.w3.org/2000/svg" xmlns:xlink="http://www.w3.org/1999/xlink" x="0px" y="0px"
	 viewBox="0 0 511.975 511.975" style="enable-background:new 0 0 511.975 511.975;" xml:space="preserve">
<path style="fill:#FFFFFF;" d="M473.037,371.875c0.2-0.6,0.3-1.2,0.5-1.9c0-0.2,0.1-0.4,0.1-0.6c0.1-0.5,0.2-1.1,0.3-1.6
	c0-0.2,0.1-0.5,0.1-0.7c0.1-0.5,0.1-1.1,0.2-1.6c0-0.2,0-0.4,0.1-0.7c0.1-0.8,0.1-1.5,0.1-2.3l0,0l0,0l0,0v-40.9l0,0v-26.2l0,0v-4.2
	v-25.6l0,0v-48.8v-26.2v-41c0-3-0.4-5.9-1.2-8.8c-0.4-1.5-0.9-3-1.5-4.4c-2.5-5.9-6.6-11-11.9-14.7c-0.8-0.5-1.6-1.1-2.4-1.6
	l-22.9-13.2l-21.4-12.4l-17.2-9.9l-65.9-38.1l-25.7-14.8l-19.3-11.1l-12-6.9c-10.5-6.1-23.5-6.1-34,0l-11.9,6.9l-19.3,11.1
	l-25.7,14.9l0,0l-65.9,38.1l-28.9,16.7l-21.4,12.4l-11.3,6.5c-0.8,0.5-1.6,1-2.4,1.5c-3.3,2.3-6.1,5.1-8.3,8.2
	c-1.5,2.1-2.8,4.4-3.8,6.8c-1.7,4-2.6,8.4-2.6,12.9v40.9v26.2v73.7v4v0.8l0,0l0,0l0,0l0,0l0,0v26.2l0,0v1.9v12.6v26.5l0,0l0,0
	c0,0.8,0,1.5,0.1,2.3c0,0.2,0,0.4,0.1,0.7c0,0.5,0.1,1.1,0.2,1.6c0,0.2,0.1,0.5,0.1,0.7c0.1,0.5,0.2,1.1,0.3,1.6
	c0,0.2,0.1,0.4,0.1,0.6c0.1,0.6,0.3,1.2,0.5,1.8c0,0.1,0.1,0.2,0.1,0.3c0.9,3,2.2,5.9,3.9,8.6l0,0l0,0c1.2,1.8,2.5,3.6,4,5.1
	c0,0.1,0.1,0.1,0.1,0.2c0.7,0.7,1.5,1.4,2.2,2.1c0.1,0.1,0.3,0.2,0.4,0.3c0.8,0.7,1.6,1.3,2.4,1.9c0.8,0.5,1.6,1.1,2.4,1.6l22.6,13
	l21.4,12.4l17.6,10.1l91.7,52.9l19.3,11.1l12,6.9c10.5,6.1,23.5,6.1,34,0l11.9-6.9l19.3-11.1l25.7-14.9l55.6-32.1l10.4-6l26.4-15.2
	l21.4-12.4l13.8-8c0.8-0.5,1.6-1,2.4-1.5c0.9-0.6,1.7-1.2,2.4-1.9c0.1-0.1,0.3-0.2,0.4-0.3c0.8-0.7,1.5-1.4,2.2-2.1l0.1-0.1
	c3.7-3.9,6.5-8.6,8-13.8C473.037,372.075,473.037,371.975,473.037,371.875z"/>
<polygon style="fill:#164FCE;" points="474.437,321.475 474.437,295.275 474.437,295.275 474.437,291.075 474.437,265.475 
	474.337,216.675 474.337,190.475 474.337,187.375 37.437,187.375 37.437,190.475 37.437,216.675 37.537,290.375 37.537,294.375 
	37.537,295.275 37.537,295.275 37.537,295.275 37.537,295.275 37.537,295.275 37.537,295.275 37.537,321.475 37.537,321.475 
	37.537,323.375 37.537,324.575 390.437,324.575 431.637,324.575 474.437,324.575 "/>
<g>
	<path style="fill:#ED1F34;" d="M390.437,324.575h-353v11.4v26.5l0,0l0,0c0,0.8,0,1.5,0.1,2.3c0,0.2,0,0.4,0.1,0.7
		c0,0.5,0.1,1.1,0.2,1.6c0,0.2,0.1,0.5,0.1,0.7c0.1,0.5,0.2,1.1,0.3,1.6c0,0.2,0.1,0.4,0.1,0.6c0.1,0.6,0.3,1.2,0.5,1.8
		c0,0.1,0.1,0.2,0.1,0.3c0.9,3,2.2,5.9,3.9,8.6l0,0l0,0c1.2,1.8,2.5,3.6,4,5.1c0,0.1,0.1,0.1,0.1,0.2c0.7,0.7,1.5,1.4,2.2,2.1
		c0.1,0.1,0.3,0.2,0.4,0.3c0.8,0.7,1.6,1.3,2.4,1.9c0.8,0.5,1.6,1.1,2.4,1.6l22.6,13l21.4,12.4l17.6,10.1l91.7,52.9l19.3,11.1
		l12,6.9c10.5,6.1,23.5,6.1,34,0l11.9-6.9l19.3-11.1l25.7-14.9l55.6-32.1l10.4-6l26.4-15.2l21.4-12.4l13.8-8c0.8-0.5,1.6-1,2.4-1.5
		c0.9-0.6,1.7-1.2,2.4-1.9c0.1-0.1,0.3-0.2,0.4-0.3c0.8-0.7,1.5-1.4,2.2-2.1l0.1-0.1c3.7-3.9,6.5-8.6,8-13.8c0-0.1,0.1-0.2,0.1-0.3
		c0.2-0.6,0.3-1.2,0.5-1.9c0-0.2,0.1-0.4,0.1-0.6c0.1-0.5,0.2-1.1,0.3-1.6c0-0.2,0.1-0.5,0.1-0.7c0.1-0.5,0.1-1.1,0.2-1.6
		c0-0.2,0-0.4,0.1-0.7c0.1-0.8,0.1-1.5,0.1-2.3l0,0l0,0v-37.8h-42.8L390.437,324.575L390.437,324.575z"/>
	<path style="fill:#ED1F34;" d="M92.037,153.475v119.5c0,47.2,39.6,74.6,74.9,85.4c35.3-10.9,74.9-38.2,74.9-85.4v-119.5
		C241.737,153.475,92.037,153.475,92.037,153.475z"/>
</g>
<path style="fill:#FFFFFF;" d="M194.237,234.175h-19.9v-19h9.3c4.1,0,7.5-3.4,7.5-7.5s-3.4-7.5-7.5-7.5h-9.3v-14.2
	c0-4.1-3.4-7.5-7.5-7.5s-7.5,3.4-7.5,7.5v14.2h-9.3c-4.1,0-7.5,3.4-7.5,7.5s3.4,7.5,7.5,7.5h9.3v19h-19.9c-4.1,0-7.5,3.4-7.5,7.5
	s3.4,7.5,7.5,7.5h19.9v28.8c0,4.1,3.4,7.5,7.5,7.5s7.5-3.4,7.5-7.5v-28.8h19.9c4.1,0,7.5-3.4,7.5-7.5
	S198.437,234.175,194.237,234.175z"/>
<path style="fill:#164FCE;" d="M166.937,277.975c-18.7,0-35.2,9.8-44.5,24.6c-5-1.9-10.3-3-16-3c-3.2,0-6.4,0.4-9.4,1
	c11.7,30.6,42.1,49.3,69.9,57.9c27.7-8.6,58.1-27.3,69.9-57.9c-3-0.7-6.2-1-9.4-1c-5.6,0-11,1.1-16,3
	C202.037,287.775,185.637,277.975,166.937,277.975z"/>
<path d="M483.437,149.475c0-3.7-0.5-7.4-1.5-11.1c-0.5-1.9-1.2-3.8-1.9-5.6c-3.2-7.5-8.4-14-15.1-18.6c-1.1-0.8-2.1-1.4-3.1-2
	l-184.4-106.4c-13.3-7.7-29.8-7.7-43.1,0l-184.4,106.5c-0.9,0.5-1.9,1.2-3,1.9c-4.1,2.8-7.6,6.3-10.5,10.4c-1.9,2.7-3.5,5.6-4.8,8.7
	c-2.1,5.2-3.2,10.7-3.2,16.3v212.9c0,0.9,0,1.9,0.1,2.9c0,0.2,0,0.5,0.1,0.7v0.1c0.1,0.7,0.1,1.4,0.2,2.1c0,0.3,0.1,0.5,0.1,0.9
	c0.1,0.7,0.2,1.4,0.4,2.1c0.1,0.3,0.1,0.5,0.2,0.7c0.2,0.8,0.4,1.5,0.6,2.3c0,0.1,0.1,0.3,0.1,0.4c1.1,3.8,2.8,7.5,5,10.9
	c1.5,2.3,3.2,4.5,5.1,6.5l0.2,0.2c0.9,0.9,1.8,1.8,2.8,2.7l0.5,0.4c1.1,0.9,2.1,1.7,3.1,2.4c1.1,0.8,2.1,1.4,3.1,2l184.4,106.4
	c6.6,3.8,14.1,5.8,21.5,5.8c7.5,0,14.9-1.9,21.5-5.8l184.5-106.5c0.9-0.5,1.9-1.2,3-1.9c1-0.7,2-1.5,3.1-2.4l0.5-0.4
	c1-0.9,1.9-1.7,2.8-2.7l0.2-0.2c4.7-4.9,8.2-10.9,10.1-17.3c0.1-0.2,0.1-0.3,0.2-0.5c0.2-0.8,0.4-1.5,0.6-2.3
	c0.1-0.3,0.1-0.5,0.2-0.8c0.1-0.7,0.3-1.4,0.4-2.1v-0.1c0-0.3,0.1-0.5,0.1-0.8c0.1-0.7,0.2-1.4,0.2-2.1v-0.1c0-0.2,0-0.5,0.1-0.7
	c0.1-1.1,0.1-2,0.1-2.9L483.437,149.475z M48.437,140.075c0.7-1.8,1.7-3.5,2.8-5c1.7-2.4,3.8-4.4,6.1-6.1c0.7-0.5,1.2-0.8,1.7-1.1
	l184.4-106.5c7.7-4.5,17.3-4.5,25,0l184.4,106.4c0.5,0.3,1.1,0.7,1.8,1.1c3.9,2.7,6.9,6.4,8.8,10.8c0.5,1.1,0.8,2.2,1.1,3.3
	c0.6,2.1,0.9,4.3,0.9,6.4v28.9h-214.6v-24.8c0-5-4-9-9-9h-149.8c-5,0-9,4-9,9v24.8h-36.5v-28.8
	C46.537,146.275,47.137,143.075,48.437,140.075z M232.737,162.575v15.8v18.1v76.5c0,17.6-6.1,31.6-14.8,42.5
	c-5.8,7.3-12.7,13.3-19.8,18.1c-11.8,8-23.9,12.9-31.3,15.4c-7.4-2.5-19.5-7.3-31.3-15.4c-7-4.8-14-10.8-19.8-18.1
	c-8.7-10.9-14.8-24.9-14.8-42.5v-76.6v-18.1v-15.8L232.737,162.575L232.737,162.575z M94.237,315.475h-47.7v-119.1h36.4v76.6
	C82.937,288.175,86.837,302.575,94.237,315.475z M465.337,364.075l-0.1,0.5c0,0.4-0.1,0.8-0.1,1.2l-0.1,0.5
	c-0.1,0.4-0.1,0.8-0.2,1.2l-0.1,0.4c-0.1,0.5-0.2,0.9-0.4,1.4l0,0l-0.1,0.2c-1.1,3.8-3.2,7.3-5.9,10.1l-0.1,0.1
	c-0.5,0.5-1.1,1.1-1.6,1.5l-0.3,0.2c-0.7,0.6-1.3,1-1.8,1.4c-0.7,0.5-1.2,0.8-1.7,1.1l-184.4,106.7c-7.7,4.5-17.3,4.5-25,0
	l-184.4-106.4c-0.5-0.3-1.1-0.7-1.8-1.1c-0.5-0.4-1.1-0.8-1.8-1.4l-0.3-0.2c-0.6-0.5-1.1-1-1.6-1.5c0,0-0.1-0.2-0.2-0.2
	c-1.1-1.1-2.1-2.4-2.9-3.7l0,0c-1.3-2-2.2-4.1-2.9-6.3l-0.1-0.3c-0.1-0.4-0.2-0.9-0.3-1.4l-0.1-0.4c-0.1-0.4-0.2-0.8-0.2-1.2
	l-0.1-0.5c-0.1-0.4-0.1-0.8-0.1-1.2v-0.5c0-0.6-0.1-1.1-0.1-1.7v-28.9h61.2c0.7,0.7,1.4,1.5,2.1,2.2c13.9,13.7,33.2,24.8,54.3,31.3
	c0.9,0.3,1.8,0.4,2.7,0.4s1.8-0.1,2.7-0.4c21.2-6.5,40.5-17.6,54.3-31.3c0.7-0.7,1.4-1.5,2.1-2.2h164.5c5,0,9-4,9-9s-4-9-9-9h-150.9
	c7.4-12.9,11.2-27.3,11.2-42.5v-76.6h214.5v119.1h-33.7c-5,0-9,4-9,9s4,9,9,9h33.7v28.8
	C465.337,362.975,465.337,363.575,465.337,364.075z"/>
<g>
</g>
<g>
</g>
<g>
</g>
<g>
</g>
<g>
</g>
<g>
</g>
<g>
</g>
<g>
</g>
<g>
</g>
<g>
</g>
<g>
</g>
<g>
</g>
<g>
</g>
<g>
</g>
<g>
</g>
</svg>
