<?xml version="1.0" encoding="iso-8859-1"?>
<!-- Generator: Adobe Illustrator 19.0.0, SVG Export Plug-In . SVG Version: 6.00 Build 0)  -->
<svg version="1.1" id="Layer_1" xmlns="http://www.w3.org/2000/svg" xmlns:xlink="http://www.w3.org/1999/xlink" x="0px" y="0px"
	 viewBox="0 0 512.001 512.001" style="enable-background:new 0 0 512.001 512.001;" xml:space="preserve">
<path style="fill:#FFFFFF;" d="M473.101,371.85c0.176-0.61,0.338-1.227,0.479-1.848c0.047-0.201,0.089-0.403,0.131-0.604
	c0.113-0.54,0.213-1.085,0.3-1.632c0.037-0.237,0.076-0.474,0.11-0.711c0.076-0.546,0.131-1.095,0.18-1.644
	c0.02-0.225,0.047-0.448,0.063-0.674c0.052-0.767,0.084-1.537,0.084-2.313l0,0l0,0v-0.006l-0.005-40.904v-0.002l-0.005-26.203
	v-0.002l-0.001-4.213l-0.004-25.574l0,0l-0.008-48.824l-0.005-26.203l-0.007-40.985c0-2.995-0.406-5.931-1.16-8.75
	c-0.405-1.517-0.915-2.997-1.52-4.435c-2.479-5.876-6.575-11.016-11.925-14.74c-0.784-0.545-1.584-1.071-2.421-1.553l-22.874-13.202
	L413.1,94.468l-17.24-9.949l-65.924-38.046l-25.717-14.844l-19.288-11.132l-11.953-6.899c-10.533-6.078-23.509-6.076-34.04,0.007
	l-11.872,6.857l-19.288,11.14L182.06,46.456l0,0l-65.915,38.072l-28.89,16.686l-21.408,12.365l-11.282,6.516
	c-0.811,0.469-1.59,0.98-2.353,1.507c-3.272,2.268-6.073,5.067-8.331,8.236c-1.517,2.127-2.781,4.422-3.773,6.841
	c-1.655,4.032-2.558,8.399-2.557,12.899l0.006,40.913l0.005,26.203l0.012,73.738v4.011v0.85v0.001v0.013l0,0v0.005l0,0l0.005,26.198
	v0.002v1.863l0.002,12.617l0.004,26.496v0.007l0,0c0,0.773,0.033,1.539,0.084,2.305c0.016,0.224,0.042,0.445,0.061,0.668
	c0.048,0.55,0.105,1.096,0.18,1.638c0.033,0.236,0.072,0.471,0.108,0.708c0.087,0.544,0.186,1.086,0.298,1.625
	c0.042,0.201,0.086,0.403,0.131,0.603c0.14,0.615,0.298,1.222,0.471,1.825c0.033,0.113,0.061,0.228,0.095,0.34
	c0.909,3.043,2.24,5.93,3.94,8.588c0,0.001,0,0.002,0,0.002c0.001,0.001,0.001,0.002,0.001,0.002
	c1.172,1.832,2.517,3.551,4.026,5.137c0.051,0.053,0.099,0.106,0.148,0.159c0.709,0.734,1.454,1.438,2.231,2.112
	c0.125,0.11,0.254,0.215,0.382,0.322c0.786,0.661,1.595,1.298,2.445,1.89c0.784,0.545,1.584,1.07,2.419,1.553l22.552,13.016
	l21.414,12.359l17.561,10.134l91.644,52.89l19.288,11.132l11.953,6.899c10.533,6.078,23.509,6.076,34.04-0.007l11.872-6.857
	l19.288-11.14l25.717-14.853l55.554-32.086l10.363-5.985l26.36-15.225l21.408-12.365l13.813-7.977
	c0.813-0.469,1.59-0.98,2.353-1.507c0.85-0.588,1.659-1.226,2.445-1.884c0.129-0.106,0.259-0.212,0.386-0.323
	c0.779-0.671,1.526-1.374,2.236-2.108c0.046-0.048,0.09-0.098,0.136-0.145c3.725-3.893,6.475-8.61,8.019-13.767
	C473.044,372.067,473.071,371.958,473.101,371.85z"/>
<path style="fill:#259245;" d="M165.587,348.032V55.971l-49.442,28.556l-28.89,16.686l-21.408,12.365l-11.282,6.516
	c-0.811,0.469-1.59,0.98-2.353,1.507c-3.272,2.268-6.073,5.067-8.331,8.236c-1.517,2.127-2.781,4.422-3.773,6.841
	c-1.655,4.032-2.558,8.399-2.557,12.899l0.006,40.913l0.005,26.203l0.012,73.738v4.011v0.849v0.002v0.013l0,0v0.005l0,0
	l0.005,26.198v0.002v1.863l0.001,12.617l0.005,26.496v0.007l0,0c0,0.773,0.033,1.539,0.084,2.305
	c0.016,0.224,0.042,0.445,0.061,0.668c0.049,0.55,0.105,1.096,0.18,1.638c0.033,0.236,0.071,0.471,0.11,0.708
	c0.086,0.544,0.184,1.085,0.298,1.625c0.042,0.201,0.084,0.403,0.13,0.603c0.14,0.615,0.298,1.222,0.471,1.825
	c0.033,0.113,0.061,0.228,0.095,0.34c0.909,3.043,2.239,5.93,3.94,8.588c0,0.001,0,0.002,0,0.002
	c0.001,0.001,0.001,0.002,0.001,0.002c1.172,1.832,2.517,3.551,4.026,5.137c0.051,0.053,0.099,0.106,0.148,0.159
	c0.709,0.734,1.454,1.438,2.231,2.112c0.125,0.11,0.254,0.215,0.382,0.322c0.786,0.661,1.594,1.298,2.445,1.89
	c0.784,0.545,1.584,1.07,2.419,1.553l22.552,13.016l21.414,12.359l17.561,10.134l49.452,28.539v-56.4v-51.588H165.587z"/>
<path style="fill:#ED1F34;" d="M474.443,321.512v-0.002l-0.005-26.203v-0.002l-0.001-4.213l-0.004-25.574l-0.008-48.824
	l-0.005-26.203l-0.007-40.985c0-2.995-0.406-5.931-1.16-8.75c-0.405-1.517-0.914-2.997-1.52-4.435
	c-2.479-5.876-6.575-11.016-11.925-14.74c-0.784-0.545-1.584-1.071-2.421-1.553l-22.874-13.202L413.1,94.468l-17.24-9.949
	l-49.448-28.538v400.046l39.076-22.57l10.363-5.985l26.36-15.225l21.408-12.365l13.813-7.977c0.813-0.469,1.59-0.98,2.353-1.507
	c0.85-0.588,1.659-1.226,2.445-1.884c0.129-0.106,0.259-0.212,0.386-0.323c0.779-0.672,1.526-1.374,2.236-2.108
	c0.047-0.048,0.09-0.098,0.136-0.145c3.724-3.893,6.475-8.61,8.019-13.767c0.033-0.106,0.06-0.215,0.09-0.322
	c0.176-0.611,0.338-1.228,0.479-1.849c0.047-0.201,0.089-0.403,0.131-0.604c0.113-0.54,0.213-1.085,0.3-1.632
	c0.037-0.237,0.076-0.474,0.11-0.712c0.076-0.545,0.131-1.093,0.18-1.643c0.02-0.225,0.047-0.448,0.063-0.674
	c0.052-0.767,0.084-1.537,0.084-2.313l0,0v-0.006L474.443,321.512z"/>
<path style="fill:#134923;" d="M255.998,308.741c-34.899,0-63.29-28.392-63.29-63.29c0-4.994,4.048-9.041,9.041-9.041
	c4.993,0,9.041,4.047,9.041,9.041c0,24.928,20.279,45.207,45.207,45.207s45.207-20.279,45.207-45.207
	c0-4.994,4.047-9.041,9.041-9.041s9.041,4.047,9.041,9.041C319.288,280.35,290.897,308.741,255.998,308.741z"/>
<path style="fill:#F2A643;" d="M255.998,278.603c-18.281,0-33.152-14.871-33.152-33.152s14.871-33.152,33.152-33.152
	c18.279,0,33.152,14.871,33.152,33.152S274.279,278.603,255.998,278.603z"/>
<path d="M483.454,149.505c0-3.708-0.493-7.438-1.464-11.075c-0.503-1.888-1.15-3.778-1.926-5.623
	c-3.181-7.544-8.401-13.991-15.092-18.647c-1.115-0.776-2.088-1.4-3.066-1.965L277.497,5.767C270.96,1.994,263.513,0,255.963,0
	c-7.555,0-15.005,1.996-21.547,5.776L50.041,112.265c-0.95,0.549-1.896,1.152-2.978,1.902c-4.086,2.831-7.635,6.335-10.547,10.421
	c-1.912,2.683-3.519,5.597-4.775,8.658c-2.147,5.23-3.234,10.724-3.234,16.334l0.035,212.917c0,0.921,0.034,1.876,0.105,2.919
	c0.016,0.234,0.037,0.469,0.061,0.702l0.014,0.143c0.061,0.693,0.134,1.385,0.231,2.095c0.034,0.24,0.071,0.477,0.108,0.716
	l0.025,0.16c0.11,0.691,0.235,1.378,0.38,2.075c0.053,0.254,0.107,0.508,0.163,0.746c0.177,0.779,0.377,1.547,0.608,2.351
	l0.112,0.393c1.144,3.827,2.821,7.486,4.988,10.875c1.484,2.322,3.198,4.509,5.089,6.494c0.04,0.042,0.153,0.164,0.195,0.206
	c0.896,0.929,1.847,1.83,2.81,2.663l0.498,0.419c1.093,0.919,2.105,1.699,3.096,2.388c1.096,0.764,2.096,1.403,3.064,1.963
	l184.411,106.428c6.538,3.773,13.985,5.768,21.534,5.768l0,0c7.555,0,15.005-1.998,21.547-5.777l184.37-106.486
	c0.94-0.543,1.887-1.146,2.991-1.91c0.99-0.687,2.001-1.466,3.177-2.447l0.405-0.339c0.986-0.851,1.937-1.749,2.881-2.723
	l0.119-0.127c4.695-4.904,8.205-10.929,10.122-17.332c0.053-0.171,0.102-0.342,0.143-0.497c0.224-0.775,0.427-1.556,0.608-2.34
	c0.058-0.253,0.112-0.508,0.168-0.773c0.143-0.684,0.27-1.374,0.398-2.177c0.041-0.259,0.082-0.518,0.122-0.802
	c0.093-0.687,0.168-1.378,0.227-2.061l0.014-0.143c0.025-0.24,0.047-0.48,0.063-0.721c0.072-1.057,0.106-2.018,0.105-2.931
	L483.454,149.505z M268.538,490.566c-3.796,2.192-8.12,3.351-12.504,3.351c-4.381,0-8.701-1.159-12.496-3.348l-68.912-39.771
	v-86.301c0-4.994-4.048-9.041-9.041-9.041c-4.993,0-9.041,4.047-9.041,9.041v75.866l-97.413-56.222
	c-0.529-0.305-1.095-0.669-1.775-1.143c-0.538-0.375-1.126-0.829-1.787-1.385l-0.293-0.246c-0.568-0.489-1.119-1.011-1.589-1.497
	c-0.027-0.03-0.129-0.139-0.157-0.169c-1.099-1.155-2.094-2.424-2.956-3.772c-0.016-0.025-0.031-0.049-0.047-0.074
	c-1.237-1.948-2.195-4.047-2.849-6.239l-0.069-0.246c-0.127-0.442-0.244-0.888-0.351-1.354l-0.093-0.428
	c-0.082-0.395-0.154-0.793-0.217-1.183l-0.082-0.523c-0.054-0.4-0.096-0.803-0.13-1.203l-0.048-0.493
	c-0.039-0.561-0.064-1.125-0.064-1.699L46.59,149.577c0-3.24,0.632-6.425,1.881-9.467c0.729-1.781,1.662-3.472,2.769-5.025
	c1.696-2.378,3.755-4.415,6.119-6.053c0.668-0.463,1.216-0.815,1.725-1.109l97.459-56.288v256.696c0,4.994,4.048,9.041,9.041,9.041
	c4.993,0,9.041-4.047,9.041-9.041V61.191l68.834-39.757c3.795-2.193,8.119-3.351,12.504-3.351c4.381,0,8.703,1.157,12.495,3.347
	l68.912,39.771v389.608L268.538,490.566z M465.346,364.1l-0.051,0.52c-0.035,0.408-0.076,0.813-0.128,1.191l-0.064,0.407
	c0,0.004-0.021,0.125-0.021,0.127c-0.064,0.404-0.137,0.804-0.218,1.191l-0.096,0.447c-0.105,0.457-0.224,0.909-0.362,1.386
	l-0.06,0.217c-1.13,3.762-3.164,7.255-5.905,10.118l-0.083,0.09c-0.515,0.532-1.068,1.054-1.635,1.543l-0.293,0.242
	c-0.671,0.561-1.259,1.015-1.784,1.382c-0.678,0.468-1.226,0.821-1.734,1.114l-97.458,56.288V71.638l97.413,56.219
	c0.524,0.301,1.087,0.665,1.778,1.145c3.881,2.699,6.908,6.446,8.757,10.826c0.451,1.073,0.827,2.166,1.118,3.259
	c0.567,2.123,0.854,4.282,0.854,6.418l0.035,212.931C465.408,363.003,465.382,363.566,465.346,364.1z"/>
<g>
</g>
<g>
</g>
<g>
</g>
<g>
</g>
<g>
</g>
<g>
</g>
<g>
</g>
<g>
</g>
<g>
</g>
<g>
</g>
<g>
</g>
<g>
</g>
<g>
</g>
<g>
</g>
<g>
</g>
</svg>
