<?xml version="1.0" encoding="iso-8859-1"?>
<!-- Generator: Adobe Illustrator 19.0.0, SVG Export Plug-In . SVG Version: 6.00 Build 0)  -->
<svg version="1.1" id="Layer_1" xmlns="http://www.w3.org/2000/svg" xmlns:xlink="http://www.w3.org/1999/xlink" x="0px" y="0px"
	 viewBox="0 0 512 512" style="enable-background:new 0 0 512 512;" xml:space="preserve">
<path style="fill:#3DB4EA;" d="M473.102,371.851c0.176-0.611,0.338-1.228,0.479-1.85c0.047-0.201,0.089-0.401,0.131-0.603
	c0.113-0.541,0.213-1.085,0.3-1.634c0.037-0.237,0.076-0.474,0.11-0.711c0.076-0.545,0.131-1.093,0.18-1.643
	c0.02-0.225,0.047-0.448,0.063-0.674c0.052-0.767,0.084-1.537,0.083-2.313l0,0l0,0v-0.006l-0.006-40.904v-0.001l-0.005-26.204
	v-0.002l-0.001-4.213l-0.004-25.574l0,0l-0.008-48.824l-0.005-26.204l-0.006-40.985c-0.001-2.996-0.409-5.93-1.161-8.75
	c-0.405-1.517-0.915-2.997-1.521-4.435c-2.477-5.877-6.574-11.016-11.924-14.74c-0.784-0.545-1.584-1.071-2.421-1.554l-22.874-13.2
	l-21.414-12.358l-17.24-9.949l-65.921-38.046L304.22,31.629l-19.288-11.132l-11.953-6.898c-10.533-6.078-23.509-6.077-34.04,0.006
	l-11.872,6.857l-19.288,11.14l-25.717,14.854l0,0l-65.915,38.07l-28.89,16.686l-21.408,12.365l-11.282,6.517
	c-0.813,0.469-1.59,0.979-2.353,1.507c-3.272,2.266-6.072,5.068-8.331,8.236c-1.517,2.128-2.781,4.423-3.774,6.841
	c-1.654,4.031-2.557,8.399-2.557,12.899l0.007,40.912l0.005,26.204l0.012,73.738l0.001,4.011v0.849v0.002v0.013l0,0v0.005l0,0
	l0.005,26.2v0.001v1.863l0.002,12.617l0.004,26.497v0.006l0,0c0.001,0.773,0.033,1.539,0.084,2.304
	c0.016,0.224,0.042,0.446,0.061,0.669c0.049,0.55,0.106,1.096,0.18,1.638c0.033,0.236,0.072,0.471,0.11,0.706
	c0.086,0.546,0.184,1.087,0.297,1.626c0.043,0.201,0.086,0.403,0.131,0.603c0.14,0.615,0.298,1.222,0.471,1.825
	c0.033,0.113,0.061,0.227,0.095,0.34c0.909,3.043,2.239,5.93,3.941,8.589c0,0,0,0.001,0,0.002l0.002,0.001
	c1.172,1.832,2.517,3.551,4.026,5.137c0.049,0.052,0.098,0.106,0.147,0.158c0.71,0.735,1.454,1.439,2.233,2.113
	c0.125,0.108,0.256,0.213,0.382,0.321c0.786,0.661,1.594,1.3,2.444,1.89c0.784,0.545,1.584,1.07,2.421,1.554l22.552,13.015
	l21.414,12.359l17.561,10.135l91.644,52.89l19.288,11.132l11.953,6.898c10.533,6.078,23.509,6.077,34.04-0.006l11.872-6.857
	l19.288-11.14l25.717-14.853l55.554-32.086l10.363-5.985l26.36-15.224l21.408-12.365l13.813-7.978
	c0.813-0.469,1.59-0.979,2.352-1.507c0.851-0.59,1.66-1.226,2.446-1.883c0.129-0.107,0.259-0.213,0.386-0.323
	c0.779-0.671,1.526-1.374,2.236-2.11c0.046-0.048,0.09-0.098,0.136-0.146c3.725-3.891,6.475-8.609,8.019-13.765
	C473.044,372.067,473.072,371.958,473.102,371.851z"/>
<g>
	<path style="fill:#FFE000;" d="M255.937,220.168c0-26.402,21.48-47.882,47.882-47.882s47.881,21.479,47.881,47.882
		c0,26.402-21.479,47.881-47.881,47.881C277.417,268.049,255.937,246.57,255.937,220.168z M270.25,293.789
		c1.165,0.533,2.386,0.785,3.589,0.785c3.285,0,6.424-1.879,7.877-5.062c1.984-4.347,0.07-9.48-4.277-11.466
		c-22.605-10.322-37.21-33.04-37.21-57.879c0-4.779-3.875-8.653-8.653-8.653h-53.483c-4.78,0-8.653,3.875-8.653,8.653
		c0,4.779,3.873,8.653,8.653,8.653h45.299c0.467,4.319,1.289,8.559,2.426,12.692h-23.494c-4.78,0-8.653,3.875-8.653,8.653
		c0,4.779,3.873,8.653,8.653,8.653h30.471C241.027,273.934,254.016,286.377,270.25,293.789z M429.542,211.514h-53.48
		c-4.78,0-8.653,3.875-8.653,8.653c0,35.064-28.526,63.59-63.59,63.59c-2.793,0-5.418,1.35-7.041,3.624l-27.606,38.65
		c-2.779,3.889-1.877,9.293,2.011,12.072c1.525,1.089,3.283,1.612,5.022,1.612c2.7,0,5.361-1.26,7.05-3.624l25.109-35.153
		c28.696-1.597,53.431-18.23,66.484-42.12h30.467c4.78,0,8.653-3.875,8.653-8.653c0-4.779-3.873-8.653-8.653-8.653h-23.481
		c1.127-4.112,1.943-8.348,2.409-12.692h45.3c4.78,0,8.654-3.875,8.654-8.653C438.196,215.388,434.322,211.514,429.542,211.514z"/>
	<path style="fill:#FFE000;" d="M125.488,273.923l-15.62-17.928l15.62-17.93c2.966-3.404,2.966-8.475,0-11.879l-15.621-17.93
		l15.621-17.93c2.966-3.404,2.966-8.475-0.001-11.879l-15.62-17.928l15.62-17.928c3.281-3.765,2.888-9.475-0.878-12.757
		c-3.765-3.28-9.475-2.888-12.756,0.878l-13.979,16.047l-13.978-16.043c-3.28-3.766-8.992-4.158-12.756-0.878
		c-3.765,3.28-4.158,8.991-0.878,12.757l15.621,17.928l-15.621,17.928c-2.967,3.404-2.967,8.475-0.001,11.879l15.621,17.93
		l-15.621,17.93c-2.966,3.404-2.966,8.475,0,11.879l15.62,17.93l-15.62,17.928c-2.966,3.404-2.966,8.474,0,11.878l15.622,17.932
		l-15.622,17.932c-2.966,3.404-2.966,8.474,0,11.878l15.622,17.932l-15.622,17.928c-3.28,3.765-2.887,9.475,0.879,12.757
		c1.714,1.492,3.829,2.224,5.936,2.224c2.523,0,5.033-1.051,6.821-3.103l13.978-16.045l13.978,16.045
		c1.788,2.053,4.298,3.103,6.821,3.103c2.106,0,4.223-0.732,5.936-2.224c3.765-3.28,4.158-8.991,0.879-12.757l-15.622-17.932
		l15.622-17.932c2.966-3.404,2.966-8.474,0-11.878l-15.622-17.932l15.622-17.932C128.454,282.397,128.454,277.326,125.488,273.923z
		 M89.072,184.389l8.804-10.105l8.804,10.105l-8.804,10.105L89.072,184.389z M89.072,232.125l8.804-10.105l8.804,10.105
		l-8.804,10.105L89.072,232.125z M106.679,327.604l-8.805,10.107l-8.805-10.107l8.805-10.107L106.679,327.604z M89.072,279.863
		l8.804-10.105l8.804,10.105l-8.804,10.106L89.072,279.863z"/>
</g>
<path d="M256.035,512L256.035,512c-7.55,0-14.995-1.995-21.534-5.768L50.09,399.803c-0.975-0.563-1.947-1.186-3.062-1.96
	c-0.986-0.687-1.999-1.468-3.097-2.391l-0.481-0.405c-0.984-0.851-1.934-1.75-2.826-2.675c-0.047-0.049-0.169-0.178-0.215-0.228
	c-1.87-1.963-3.585-4.151-5.069-6.474c-0.013-0.019-0.025-0.037-0.036-0.057c-2.148-3.368-3.814-7.009-4.952-10.82
	c-0.031-0.105-0.075-0.254-0.115-0.403c-0.227-0.794-0.427-1.562-0.604-2.339c-0.057-0.246-0.111-0.5-0.164-0.756
	c-0.145-0.687-0.271-1.379-0.381-2.076c-0.055-0.35-0.096-0.606-0.133-0.866c-0.096-0.71-0.17-1.401-0.229-2.094l-0.013-0.127
	c-0.025-0.24-0.047-0.48-0.064-0.721c-0.071-1.036-0.105-1.99-0.105-2.917l-0.036-212.917c0-5.608,1.087-11.103,3.234-16.332
	c1.26-3.066,2.866-5.977,4.776-8.658c2.913-4.083,6.459-7.589,10.545-10.419c1.093-0.757,2.041-1.361,2.985-1.906L234.416,5.776
	C240.959,1.998,248.41,0,255.964,0c7.55,0,14.995,1.995,21.534,5.768l184.411,106.428c0.98,0.565,1.953,1.189,3.066,1.964
	c6.692,4.656,11.911,11.104,15.091,18.646c0.778,1.846,1.425,3.736,1.928,5.623c0.97,3.638,1.464,7.366,1.464,11.075l0.035,212.911
	c0.001,0.911-0.033,1.872-0.105,2.931c-0.016,0.241-0.037,0.48-0.063,0.72l-0.014,0.145c-0.06,0.685-0.134,1.375-0.227,2.063
	c-0.039,0.278-0.078,0.533-0.119,0.786l-0.02,0.123c-0.111,0.696-0.236,1.384-0.379,2.067c-0.055,0.262-0.11,0.515-0.168,0.769
	c-0.181,0.79-0.385,1.57-0.609,2.344c-0.04,0.152-0.088,0.321-0.14,0.487c-1.92,6.413-5.43,12.439-10.124,17.344l-0.153,0.162
	c-0.911,0.941-1.864,1.84-2.85,2.689l-0.475,0.398c-1.103,0.923-2.117,1.702-3.107,2.388c-1.096,0.758-2.043,1.363-2.987,1.908
	l-184.37,106.487C271.04,510.002,263.589,512,256.035,512z M50.601,375.97c0.856,1.333,1.842,2.588,2.929,3.73
	c0.034,0.035,0.139,0.148,0.172,0.183c0.452,0.469,1.004,0.992,1.577,1.486l0.262,0.217c0.706,0.593,1.277,1.036,1.814,1.41
	c0.686,0.477,1.251,0.841,1.777,1.144l184.41,106.428c3.793,2.189,8.114,3.347,12.495,3.347c4.383,0,8.707-1.159,12.504-3.351
	l184.371-106.488c0.509-0.294,1.057-0.646,1.731-1.111c0.53-0.368,1.119-0.822,1.787-1.382l0.289-0.241
	c0.573-0.493,1.126-1.014,1.639-1.546l0.083-0.09c2.739-2.863,4.775-6.353,5.903-10.114l0.061-0.222
	c0.137-0.477,0.257-0.929,0.362-1.388l0.095-0.441c0.081-0.392,0.155-0.793,0.219-1.197l0.083-0.533
	c0.052-0.38,0.093-0.786,0.128-1.192l0.051-0.52c0.036-0.533,0.063-1.096,0.061-1.662l-0.035-212.93
	c0-2.137-0.287-4.296-0.854-6.421c-0.291-1.09-0.667-2.186-1.119-3.26c-1.847-4.378-4.875-8.124-8.756-10.824
	c-0.686-0.477-1.25-0.841-1.777-1.145L268.459,21.429c-3.794-2.189-8.114-3.347-12.495-3.347c-4.383,0-8.707,1.16-12.504,3.351
	L59.087,127.924c-0.509,0.294-1.057,0.646-1.731,1.111c-2.36,1.635-4.418,3.672-6.114,6.05c-1.107,1.553-2.04,3.245-2.773,5.028
	c-1.247,3.038-1.879,6.223-1.879,9.463l0.036,212.909c0,0.576,0.025,1.139,0.063,1.7l0.047,0.475
	c0.037,0.418,0.077,0.822,0.131,1.221l0.078,0.5c0.066,0.417,0.137,0.809,0.219,1.198l0.095,0.441
	c0.105,0.46,0.222,0.908,0.35,1.353l0.075,0.268c0.655,2.193,1.629,4.315,2.886,6.28C50.581,375.939,50.59,375.955,50.601,375.97z"
	/>
<g>
</g>
<g>
</g>
<g>
</g>
<g>
</g>
<g>
</g>
<g>
</g>
<g>
</g>
<g>
</g>
<g>
</g>
<g>
</g>
<g>
</g>
<g>
</g>
<g>
</g>
<g>
</g>
<g>
</g>
</svg>
