<?xml version="1.0" encoding="iso-8859-1"?>
<!-- Generator: Adobe Illustrator 19.0.0, SVG Export Plug-In . SVG Version: 6.00 Build 0)  -->
<svg version="1.1" id="Layer_1" xmlns="http://www.w3.org/2000/svg" xmlns:xlink="http://www.w3.org/1999/xlink" x="0px" y="0px"
	 viewBox="0 0 512 512" style="enable-background:new 0 0 512 512;" xml:space="preserve">
<path style="fill:#ED1F34;" d="M473.104,371.851c0.176-0.611,0.336-1.228,0.479-1.85c0.046-0.2,0.089-0.401,0.131-0.603
	c0.113-0.54,0.213-1.085,0.3-1.634c0.037-0.236,0.076-0.473,0.11-0.711c0.075-0.545,0.131-1.092,0.18-1.643
	c0.021-0.225,0.047-0.447,0.063-0.674c0.052-0.767,0.084-1.537,0.084-2.313l0,0l0,0v-0.006l-0.006-40.904v-0.002l-0.005-26.203
	v-0.002v-4.213l-0.004-25.574l0,0l-0.008-48.824l-0.005-26.204l-0.006-40.984c0-2.995-0.407-5.931-1.16-8.75
	c-0.405-1.518-0.915-2.997-1.521-4.435c-2.477-5.877-6.574-11.017-11.925-14.74c-0.784-0.545-1.584-1.071-2.419-1.553
	l-22.874-13.202l-21.414-12.358l-17.239-9.949l-65.926-38.046l-25.717-14.844l-19.288-11.132l-11.953-6.899
	c-10.533-6.078-23.509-6.076-34.04,0.007l-11.872,6.857l-19.288,11.14l-25.717,14.854v-0.001l-65.918,38.072l-28.889,16.686
	l-21.406,12.365l-11.284,6.517c-0.811,0.468-1.59,0.979-2.353,1.506c-3.272,2.266-6.073,5.068-8.333,8.235
	c-1.517,2.129-2.781,4.424-3.773,6.843c-1.655,4.031-2.558,8.399-2.557,12.899l0.006,40.912l0.005,26.204l0.012,73.738v4.011v0.849
	v0.002v0.013l0,0v0.005l0,0l0.005,26.2l0,0v1.864l0.002,12.617l0.004,26.497v0.006l0,0c0,0.773,0.033,1.539,0.084,2.304
	c0.016,0.224,0.042,0.446,0.061,0.669c0.048,0.548,0.105,1.096,0.18,1.638c0.033,0.236,0.072,0.471,0.108,0.706
	c0.087,0.545,0.186,1.087,0.298,1.626c0.042,0.201,0.086,0.403,0.131,0.603c0.14,0.615,0.298,1.222,0.471,1.825
	c0.033,0.113,0.061,0.227,0.095,0.34c0.909,3.042,2.24,5.93,3.94,8.589l0.001,0.001l0.001,0.002
	c1.172,1.832,2.517,3.551,4.025,5.137c0.051,0.052,0.099,0.106,0.148,0.158c0.709,0.735,1.454,1.439,2.231,2.113
	c0.125,0.11,0.254,0.215,0.382,0.322c0.786,0.661,1.595,1.298,2.445,1.89c0.784,0.545,1.584,1.07,2.419,1.553l22.552,13.015
	l21.414,12.36l17.561,10.134l91.644,52.89l19.288,11.132l11.953,6.899c10.533,6.078,23.509,6.076,34.04-0.007l11.872-6.857
	l19.288-11.14l25.717-14.853l55.554-32.086l10.363-5.985l26.36-15.225l21.408-12.365l13.813-7.978
	c0.811-0.468,1.59-0.979,2.353-1.506c0.851-0.588,1.659-1.226,2.446-1.884c0.128-0.107,0.258-0.212,0.385-0.322
	c0.78-0.673,1.526-1.375,2.237-2.11c0.047-0.048,0.09-0.098,0.136-0.146c3.724-3.891,6.476-8.609,8.02-13.765
	C473.045,372.067,473.072,371.958,473.104,371.851z"/>
<path style="fill:#103B9B;" d="M339.186,51.81l-9.248-5.337l-25.717-14.844l-19.288-11.132l-11.953-6.899
	c-10.533-6.078-23.509-6.076-34.04,0.007l-11.872,6.857l-19.288,11.14l-25.717,14.853l0,0l-9.237,5.336v408.405l34.955,20.173
	l19.288,11.132l11.953,6.899c10.533,6.078,23.509,6.076,34.04-0.007l11.872-6.857l19.288-11.14l25.717-14.853l9.248-5.342v-29.16
	V51.81H339.186z"/>
<path style="fill:#FFE000;" d="M105.427,251.588c-18.809,0-35.651-12.606-40.961-30.656c-1.243-4.224,1.174-8.656,5.398-9.897
	c4.225-1.242,8.656,1.175,9.899,5.4c3.326,11.311,13.88,19.21,25.664,19.21s22.337-7.9,25.664-19.211
	c1.243-4.224,5.673-6.64,9.897-5.4c4.224,1.242,6.641,5.673,5.4,9.897C141.08,238.981,124.235,251.588,105.427,251.588z
	 M105.427,190.66c-10.058,0-18.24,8.183-18.24,18.241c0,10.058,8.183,18.24,18.24,18.24s18.24-8.182,18.24-18.24
	C123.667,198.843,115.484,190.66,105.427,190.66z M152.515,346.88v-78.694c0-4.403-3.57-7.971-7.972-7.971s-7.972,3.568-7.972,7.971
	v78.694c0,4.404,3.57,7.972,7.972,7.972C148.946,354.852,152.515,351.284,152.515,346.88z M74.283,346.88v-78.694
	c0-4.403-3.568-7.971-7.972-7.971c-4.403,0-7.972,3.568-7.972,7.971v78.694c0,4.404,3.57,7.972,7.972,7.972
	C70.715,354.852,74.283,351.284,74.283,346.88z M113.398,174.186v-9.067c0-4.404-3.57-7.972-7.972-7.972
	c-4.403,0-7.972,3.568-7.972,7.972v9.067c0,4.403,3.568,7.971,7.972,7.971C109.829,182.158,113.398,178.589,113.398,174.186z
	 M105.427,284.539c-12.483,0-22.641,10.157-22.641,22.64c0,12.484,10.157,22.64,22.641,22.64s22.64-10.155,22.64-22.64
	C128.067,294.695,117.911,284.539,105.427,284.539z M128.067,346.295c0-4.403-3.568-7.971-7.972-7.971H90.759
	c-4.403,0-7.972,3.568-7.972,7.971c0,4.403,3.57,7.972,7.972,7.972h29.336C124.498,354.267,128.067,350.698,128.067,346.295z
	 M128.067,268.063c0-4.403-3.568-7.971-7.972-7.971H90.759c-4.403,0-7.972,3.568-7.972,7.971c0,4.404,3.57,7.972,7.972,7.972h29.336
	C124.498,276.036,128.067,272.468,128.067,268.063z"/>
<path d="M483.457,149.503c0-3.711-0.494-7.438-1.465-11.078c-0.506-1.899-1.155-3.789-1.925-5.615
	c-3.179-7.544-8.398-13.991-15.096-18.652c-1.118-0.778-2.089-1.4-3.062-1.961L277.499,5.767C270.96,1.994,263.513,0,255.964,0
	c-7.555,0-15.005,1.996-21.547,5.776L50.042,112.265c-0.95,0.549-1.896,1.152-2.978,1.902c-4.086,2.831-7.635,6.335-10.547,10.421
	c-1.912,2.683-3.519,5.597-4.775,8.658c-2.147,5.23-3.234,10.724-3.234,16.334l0.035,212.917c0,0.921,0.034,1.876,0.105,2.919
	c0.016,0.234,0.037,0.469,0.061,0.702l0.014,0.143c0.061,0.693,0.134,1.385,0.231,2.095c0.034,0.24,0.071,0.477,0.108,0.716
	l0.025,0.16c0.11,0.69,0.235,1.378,0.38,2.075c0.053,0.254,0.107,0.508,0.163,0.746c0.177,0.779,0.377,1.547,0.608,2.351
	l0.112,0.392c1.144,3.829,2.821,7.487,4.988,10.875c1.484,2.322,3.198,4.509,5.089,6.494c0.04,0.042,0.153,0.164,0.195,0.206
	c0.896,0.929,1.847,1.83,2.81,2.663l0.498,0.42c1.093,0.919,2.105,1.699,3.096,2.388c1.096,0.763,2.096,1.403,3.064,1.963
	l184.411,106.428c6.538,3.773,13.985,5.768,21.534,5.768l0,0c7.554,0,15.005-1.998,21.547-5.776l184.372-106.49
	c0.945-0.545,1.89-1.149,2.982-1.905c0.986-0.682,1.999-1.461,3.181-2.448c0.14-0.116,0.278-0.231,0.405-0.34
	c0.99-0.854,1.941-1.752,2.84-2.681l0.159-0.171c4.695-4.904,8.206-10.929,10.149-17.421l0.116-0.406
	c0.224-0.775,0.427-1.556,0.605-2.34l0.169-0.773c0.143-0.684,0.27-1.374,0.398-2.177c0.042-0.259,0.082-0.518,0.121-0.792
	c0.094-0.69,0.168-1.383,0.228-2.071l0.014-0.143c0.024-0.24,0.047-0.48,0.063-0.721c0.071-1.043,0.105-1.999,0.105-2.931
	L483.457,149.503z M57.356,382.999c-0.538-0.375-1.126-0.829-1.787-1.385l-0.293-0.246c-0.568-0.489-1.119-1.011-1.589-1.498
	c-0.027-0.029-0.129-0.137-0.157-0.168c-1.099-1.155-2.094-2.424-2.956-3.772c-0.016-0.025-0.031-0.049-0.047-0.074
	c-1.237-1.948-2.195-4.047-2.849-6.239l-0.069-0.246c-0.127-0.442-0.244-0.888-0.351-1.354l-0.093-0.428
	c-0.082-0.395-0.154-0.793-0.217-1.183l-0.082-0.523c-0.054-0.4-0.096-0.803-0.13-1.203l-0.048-0.493
	c-0.039-0.561-0.064-1.125-0.064-1.7l-0.035-212.91c0-3.24,0.632-6.425,1.881-9.467c0.729-1.781,1.662-3.472,2.769-5.025
	c1.696-2.378,3.755-4.415,6.119-6.053c0.668-0.463,1.216-0.815,1.725-1.109l104.692-60.466v377.079L59.131,384.141
	C58.601,383.836,58.037,383.473,57.356,382.999z M465.348,364.1l-0.051,0.52c-0.035,0.404-0.076,0.805-0.129,1.191l-0.063,0.407
	c0,0.004-0.02,0.125-0.02,0.127c-0.064,0.404-0.137,0.804-0.231,1.251l-0.084,0.387c-0.104,0.457-0.222,0.909-0.347,1.341
	l-0.071,0.254c-1.128,3.764-3.164,7.258-5.908,10.125l-0.083,0.09c-0.512,0.529-1.066,1.051-1.649,1.555l-0.276,0.228
	c-0.684,0.573-1.255,1.014-1.791,1.384c-0.671,0.465-1.221,0.817-1.731,1.113L348.22,444.539v-55.453
	c0-4.994-4.048-9.041-9.041-9.041c-4.993,0-9.041,4.047-9.041,9.041v65.896l-61.602,35.58c-3.796,2.192-8.119,3.351-12.502,3.351
	c-4.381,0-8.701-1.159-12.496-3.348l-61.679-35.597V57.014l61.601-35.58c3.795-2.193,8.119-3.351,12.504-3.351
	c4.381,0,8.701,1.157,12.495,3.347l61.679,35.597v298.791c0,4.994,4.048,9.041,9.041,9.041c4.993,0,9.041-4.047,9.041-9.041V67.463
	l104.645,60.394c0.522,0.301,1.089,0.667,1.779,1.145c3.881,2.7,6.908,6.445,8.757,10.832c0.448,1.062,0.825,2.157,1.116,3.252
	c0.565,2.121,0.854,4.281,0.854,6.418l0.035,212.916C465.409,362.993,465.384,363.561,465.348,364.1z"/>
<g>
</g>
<g>
</g>
<g>
</g>
<g>
</g>
<g>
</g>
<g>
</g>
<g>
</g>
<g>
</g>
<g>
</g>
<g>
</g>
<g>
</g>
<g>
</g>
<g>
</g>
<g>
</g>
<g>
</g>
</svg>
