<?xml version="1.0" encoding="iso-8859-1"?>
<!-- Generator: Adobe Illustrator 19.0.0, SVG Export Plug-In . SVG Version: 6.00 Build 0)  -->
<svg version="1.1" id="Layer_1" xmlns="http://www.w3.org/2000/svg" xmlns:xlink="http://www.w3.org/1999/xlink" x="0px" y="0px"
	 viewBox="0 0 512.001 512.001" style="enable-background:new 0 0 512.001 512.001;" xml:space="preserve">
<path style="fill:#FFFFFF;" d="M473.102,371.851c0.176-0.611,0.338-1.228,0.479-1.85c0.047-0.2,0.089-0.401,0.131-0.603
	c0.113-0.54,0.213-1.085,0.3-1.634c0.037-0.236,0.076-0.473,0.11-0.711c0.076-0.545,0.131-1.092,0.18-1.643
	c0.021-0.225,0.047-0.447,0.063-0.674c0.052-0.767,0.084-1.537,0.084-2.313l0,0l0,0v-0.006l-0.005-40.904v-0.002l-0.005-26.203
	v-0.002l-0.001-4.213l-0.004-25.574l0,0l-0.008-48.824l-0.005-26.204l-0.007-40.984c0-2.995-0.406-5.931-1.16-8.75
	c-0.405-1.517-0.915-2.997-1.52-4.435c-2.479-5.877-6.575-11.017-11.925-14.74c-0.784-0.545-1.584-1.071-2.421-1.553l-22.874-13.202
	l-21.414-12.358l-17.24-9.949l-65.924-38.046L304.22,31.629l-19.288-11.132l-11.953-6.899c-10.533-6.078-23.509-6.076-34.04,0.007
	l-11.872,6.857l-19.288,11.14l-25.717,14.854v-0.001l-65.915,38.072l-28.89,16.686l-21.408,12.365l-11.282,6.517
	c-0.811,0.468-1.59,0.979-2.353,1.506c-3.272,2.268-6.073,5.068-8.331,8.235c-1.517,2.129-2.781,4.424-3.773,6.843
	c-1.655,4.031-2.558,8.399-2.557,12.899l0.006,40.912l0.005,26.204l0.012,73.738v4.011v0.85v0.001v0.013l0,0v0.005l0,0l0.005,26.2
	l0,0v1.864l0.002,12.617l0.004,26.497v0.006l0,0c0,0.773,0.033,1.539,0.084,2.304c0.016,0.224,0.042,0.446,0.061,0.669
	c0.048,0.548,0.105,1.096,0.18,1.638c0.033,0.236,0.072,0.471,0.108,0.706c0.087,0.545,0.186,1.087,0.298,1.626
	c0.042,0.201,0.086,0.403,0.131,0.603c0.14,0.615,0.298,1.222,0.471,1.825c0.033,0.113,0.061,0.227,0.095,0.34
	c0.909,3.042,2.24,5.93,3.94,8.589l0.001,0.001l0.001,0.002c1.172,1.832,2.517,3.551,4.025,5.137
	c0.051,0.052,0.099,0.106,0.148,0.158c0.709,0.735,1.454,1.439,2.231,2.113c0.125,0.11,0.254,0.215,0.382,0.322
	c0.786,0.661,1.595,1.298,2.445,1.89c0.784,0.545,1.584,1.07,2.419,1.553l22.552,13.015l21.414,12.36l17.561,10.134l91.644,52.89
	l19.288,11.132l11.953,6.899c10.533,6.078,23.509,6.076,34.04-0.007l11.872-6.857l19.288-11.14l25.717-14.853l55.554-32.086
	l10.363-5.985l26.36-15.225l21.408-12.365l13.813-7.978c0.813-0.468,1.59-0.979,2.353-1.506c0.85-0.588,1.659-1.226,2.445-1.884
	c0.129-0.107,0.259-0.212,0.386-0.322c0.779-0.673,1.526-1.375,2.236-2.11c0.046-0.048,0.09-0.098,0.136-0.146
	c3.725-3.891,6.475-8.609,8.019-13.765C473.044,372.067,473.072,371.958,473.102,371.851z"/>
<g>
	<path style="fill:#259245;" d="M369.318,109.619h70.037l-4.839-2.792l-21.414-12.358l-17.24-9.949l-65.925-38.047L304.22,31.629
		l-19.288-11.132l-11.953-6.899c-10.533-6.078-23.509-6.076-34.04,0.007l-11.872,6.857l-19.288,11.14l-25.717,14.853l0,0
		l-65.915,38.072l-28.89,16.686l-14.553,8.406H325.92H369.318z"/>
	<path style="fill:#259245;" d="M77.161,404.987l21.414,12.359l17.561,10.134l91.644,52.89l19.288,11.132l11.953,6.899
		c10.533,6.078,23.509,6.076,34.04-0.007l11.872-6.857l19.288-11.14l25.717-14.853l55.554-32.086l10.363-5.985l26.36-15.225
		l17.083-9.867H72.644L77.161,404.987z"/>
</g>
<polygon style="fill:#333333;" points="255.999,255.999 212.082,285.279 474.437,285.279 474.434,265.517 474.427,226.721 
	212.082,226.721 "/>
<path style="fill:#FFE000;" d="M473.254,140.755c-0.405-1.517-0.914-2.997-1.52-4.435c-2.479-5.876-6.575-11.016-11.925-14.74
	c-0.784-0.545-1.584-1.071-2.421-1.553l-18.035-10.41h-70.037h-43.399H72.702l-6.855,3.959l-11.282,6.516
	c-0.427,0.247-0.826,0.527-1.236,0.792l70.916,47.277h350.173l-0.004-18.659C474.414,146.509,474.007,143.574,473.254,140.755z"/>
<g>
	<polygon style="fill:#ED1F34;" points="212.082,226.721 474.427,226.721 474.426,216.693 474.421,190.49 474.417,168.163 
		124.244,168.163 	"/>
	<polygon style="fill:#ED1F34;" points="124.244,343.837 395.839,343.837 435.621,343.837 474.447,343.837 474.444,321.512 
		474.444,321.51 474.439,295.307 474.439,295.304 474.438,291.091 474.437,285.279 212.082,285.279 	"/>
</g>
<path style="fill:#FFE000;" d="M395.839,343.837H124.244L53.3,391.132c0.434,0.282,0.856,0.579,1.308,0.839l18.035,10.41h366.653
	l4.324-2.498l13.813-7.977c0.813-0.469,1.59-0.98,2.353-1.507c0.85-0.588,1.659-1.226,2.445-1.884
	c0.129-0.107,0.259-0.212,0.386-0.322c0.779-0.673,1.526-1.375,2.236-2.11c0.047-0.048,0.09-0.098,0.136-0.146
	c3.724-3.891,6.475-8.609,8.019-13.766c0.033-0.106,0.06-0.215,0.09-0.322c0.176-0.611,0.338-1.228,0.479-1.85
	c0.047-0.2,0.089-0.401,0.131-0.603c0.113-0.54,0.213-1.085,0.3-1.633c0.037-0.236,0.076-0.473,0.11-0.711
	c0.076-0.545,0.131-1.092,0.18-1.643c0.021-0.225,0.047-0.447,0.063-0.674c0.052-0.767,0.084-1.537,0.084-2.313l0,0v-0.006
	l-0.004-18.579h-38.825h-39.777V343.837z"/>
<polygon style="fill:#ED1F34;" points="55.873,237.862 98.486,235.66 113.747,195.814 129.01,235.66 171.623,237.862 
	138.442,264.69 149.516,305.898 113.747,282.632 77.98,305.898 89.054,264.69 "/>
<path style="fill:#FFE000;" d="M143.202,262.688L143.202,262.688L143.202,262.688l-33.761-28.503v-9.936
	c0-6.738-5.463-12.201-12.202-12.201s-12.201,5.463-12.201,12.201v38.439l7.422,25.162h43.318L143.202,262.688L143.202,262.688
	L143.202,262.688z"/>
<path d="M143.148,290.023l4.093-13.872l0.919,0.775c1.442,1.218,3.202,1.813,4.951,1.813c2.186,0,4.354-0.927,5.874-2.728
	c2.738-3.24,2.328-8.088-0.914-10.824l-9.911-8.366l-0.001-0.002l0,0l-31.035-26.2v-6.368c0-10.963-8.92-19.883-19.884-19.883
	c-8.241,0-15.326,5.041-18.337,12.201h-2.643c-4.243,0-7.683,3.439-7.683,7.682c0,4.245,3.439,7.683,7.683,7.683h1.095v30.755
	c0,0.338,0.029,0.668,0.071,0.992c0.011,0.078,0.023,0.157,0.036,0.235c0.048,0.297,0.11,0.588,0.192,0.874
	c0.006,0.024,0.008,0.048,0.016,0.074l0.022,0.075c0.006,0.019,0.011,0.037,0.017,0.057l7.384,25.031
	c0.963,3.267,3.964,5.509,7.369,5.509h43.318C139.185,295.532,142.183,293.29,143.148,290.023z M92.721,224.25
	c0-2.491,2.026-4.518,4.518-4.518c2.492,0,4.52,2.028,4.52,4.518v9.936c0,2.263,0.998,4.41,2.727,5.87l17.707,14.95H92.721V224.25z
	 M130.035,280.166H98.203l-2.89-9.797h37.611L130.035,280.166z M483.455,149.505c0-3.709-0.493-7.438-1.464-11.075
	c-0.503-1.888-1.15-3.778-1.926-5.623c-3.181-7.544-8.401-13.991-15.092-18.647c-1.115-0.776-2.088-1.4-3.066-1.965L277.498,5.767
	C270.96,1.994,263.514,0,255.964,0c-7.555,0-15.005,1.996-21.547,5.776L50.042,112.265c-0.95,0.549-1.896,1.152-2.978,1.902
	c-4.086,2.831-7.635,6.335-10.547,10.421c-1.912,2.683-3.519,5.597-4.775,8.658c-2.147,5.23-3.234,10.724-3.234,16.334
	l0.035,212.917c0,0.921,0.034,1.876,0.105,2.919c0.016,0.234,0.037,0.469,0.061,0.702l0.014,0.143
	c0.061,0.693,0.134,1.385,0.231,2.095c0.034,0.24,0.071,0.477,0.108,0.716l0.025,0.16c0.11,0.69,0.235,1.378,0.38,2.075
	c0.053,0.254,0.107,0.508,0.163,0.746c0.177,0.779,0.377,1.547,0.608,2.351l0.112,0.392c1.144,3.829,2.821,7.487,4.986,10.874
	c0.014,0.023,0.029,0.045,0.043,0.068c1.476,2.298,3.174,4.463,5.046,6.429c0.04,0.042,0.153,0.164,0.195,0.206
	c0.896,0.929,1.847,1.83,2.81,2.663l0.498,0.42c1.093,0.919,2.105,1.699,3.096,2.388c1.096,0.763,2.096,1.403,3.064,1.963
	l184.411,106.428c6.538,3.773,13.985,5.768,21.534,5.768l0,0c7.555,0,15.005-1.998,21.547-5.777l184.37-106.486
	c0.94-0.543,1.887-1.146,2.991-1.91c0.99-0.687,2.001-1.466,3.177-2.447l0.405-0.339c0.986-0.851,1.937-1.749,2.881-2.723
	l0.119-0.127c4.695-4.904,8.205-10.929,10.122-17.332c0.053-0.171,0.102-0.342,0.143-0.497c0.224-0.775,0.427-1.556,0.608-2.34
	c0.058-0.253,0.112-0.508,0.168-0.773c0.143-0.684,0.27-1.374,0.398-2.177c0.041-0.259,0.082-0.518,0.122-0.802
	c0.093-0.687,0.168-1.378,0.227-2.061l0.014-0.143c0.025-0.24,0.047-0.48,0.063-0.721c0.072-1.057,0.106-2.018,0.105-2.931
	L483.455,149.505z M53.772,379.952c-0.027-0.027-0.058-0.057-0.084-0.083c-0.027-0.029-0.129-0.137-0.157-0.168
	c-1.099-1.155-2.094-2.424-2.956-3.772c-0.016-0.025-0.031-0.048-0.047-0.074c-1.237-1.948-2.195-4.047-2.849-6.239l-0.069-0.246
	c-0.127-0.442-0.244-0.888-0.351-1.354l-0.093-0.428c-0.082-0.395-0.154-0.793-0.217-1.183l-0.082-0.523
	c-0.054-0.4-0.096-0.803-0.13-1.203l-0.048-0.493c-0.039-0.561-0.064-1.125-0.064-1.7l-0.035-212.91c0-3.24,0.632-6.425,1.881-9.467
	c0.729-1.781,1.662-3.472,2.769-5.025c0.774-1.084,1.632-2.088,2.551-3.026l40.591,27.062l27.124,18.083l60.714,40.475
	l27.124,18.083l30.356,20.237l-30.356,20.237l-27.124,18.083l-60.714,40.475l-27.124,18.083L53.772,379.952z M214.818,217.68
	l-60.714-40.475h311.272l0.007,40.475H214.818z M261.015,248.477l-19.071-12.715h223.444l0.007,40.474H241.942l19.071-12.715
	c2.516-1.677,4.026-4.499,4.026-7.522C265.04,252.976,263.531,250.154,261.015,248.477z M243.461,21.434
	c3.795-2.193,8.119-3.351,12.504-3.351c4.381,0,8.703,1.157,12.495,3.347l137.14,79.147h-36.281c-4.994,0-9.041,4.047-9.041,9.041
	s4.047,9.041,9.041,9.041h67.614l15.936,9.197c0.524,0.301,1.087,0.665,1.778,1.145c3.881,2.699,6.908,6.446,8.757,10.826
	c0.451,1.073,0.827,2.166,1.117,3.259c0.567,2.123,0.854,4.282,0.854,6.418l0.001,9.616H126.98L70.39,121.393l4.734-2.735h250.795
	c4.994,0,9.041-4.047,9.041-9.041s-4.047-9.041-9.041-9.041H106.434L243.461,21.434z M268.539,490.566
	c-3.796,2.192-8.12,3.351-12.504,3.351c-4.381,0-8.701-1.159-12.496-3.348l-137.138-79.147h299.164L268.539,490.566z M465.347,364.1
	l-0.051,0.52c-0.035,0.408-0.076,0.813-0.128,1.191l-0.064,0.407l-0.021,0.127c-0.064,0.404-0.137,0.804-0.218,1.191l-0.096,0.447
	c-0.105,0.457-0.224,0.909-0.362,1.385l-0.06,0.218c-1.13,3.762-3.164,7.255-5.905,10.118l-0.083,0.09
	c-0.515,0.532-1.068,1.054-1.635,1.543l-0.293,0.242c-0.671,0.561-1.259,1.015-1.784,1.382c-0.678,0.468-1.226,0.821-1.734,1.114
	l-16.039,9.264H75.068l-4.705-2.716l56.618-37.746H395.84c4.994,0,9.041-4.047,9.041-9.041s-4.047-9.041-9.041-9.041H154.105
	l60.714-40.475h250.577l0.007,40.475h-29.781c-4.994,0-9.041,4.047-9.041,9.041s4.047,9.041,9.041,9.041h29.785l0.001,9.559
	C465.408,363.003,465.383,363.566,465.347,364.1z"/>
<g>
</g>
<g>
</g>
<g>
</g>
<g>
</g>
<g>
</g>
<g>
</g>
<g>
</g>
<g>
</g>
<g>
</g>
<g>
</g>
<g>
</g>
<g>
</g>
<g>
</g>
<g>
</g>
<g>
</g>
</svg>
