<?xml version="1.0" encoding="iso-8859-1"?>
<!-- Generator: Adobe Illustrator 19.0.0, SVG Export Plug-In . SVG Version: 6.00 Build 0)  -->
<svg version="1.1" id="Layer_1" xmlns="http://www.w3.org/2000/svg" xmlns:xlink="http://www.w3.org/1999/xlink" x="0px" y="0px"
	 viewBox="0 0 512.001 512.001" style="enable-background:new 0 0 512.001 512.001;" xml:space="preserve">
<path style="fill:#FFFFFF;" d="M473.105,371.851c0.176-0.611,0.336-1.228,0.479-1.85c0.046-0.2,0.089-0.401,0.131-0.603
	c0.113-0.54,0.213-1.085,0.3-1.634c0.037-0.236,0.076-0.473,0.11-0.711c0.075-0.545,0.131-1.092,0.18-1.643
	c0.02-0.225,0.047-0.447,0.063-0.674c0.052-0.767,0.084-1.537,0.084-2.313l0,0l0,0v-0.006l-0.006-40.904v-0.002l-0.005-26.203
	v-0.002v-4.213l-0.004-25.574l0,0l-0.008-48.824l-0.005-26.204l-0.006-40.984c0-2.995-0.407-5.931-1.16-8.75
	c-0.405-1.517-0.915-2.997-1.521-4.435c-2.477-5.877-6.574-11.017-11.925-14.74c-0.784-0.545-1.584-1.071-2.419-1.553
	l-22.874-13.202l-21.414-12.358l-17.239-9.949l-65.928-38.046l-25.717-14.844l-19.288-11.132l-11.953-6.899
	c-10.533-6.078-23.509-6.076-34.04,0.007l-11.872,6.857l-19.288,11.14l-25.717,14.854v-0.001l-65.915,38.072l-28.89,16.686
	l-21.408,12.365l-11.282,6.517c-0.811,0.468-1.59,0.979-2.353,1.506c-3.272,2.268-6.073,5.068-8.333,8.235
	c-1.517,2.129-2.781,4.424-3.773,6.843c-1.655,4.031-2.558,8.399-2.557,12.899l0.006,40.912l0.005,26.204l0.012,73.738v4.011v0.85
	v0.001v0.013l0,0v0.005l0,0l0.005,26.2l0,0v1.864l0.002,12.617l0.004,26.497v0.006l0,0c0,0.773,0.033,1.539,0.084,2.304
	c0.016,0.224,0.042,0.446,0.061,0.669c0.048,0.548,0.105,1.096,0.18,1.638c0.033,0.236,0.072,0.471,0.108,0.706
	c0.087,0.545,0.186,1.087,0.298,1.626c0.042,0.201,0.086,0.403,0.131,0.603c0.14,0.615,0.298,1.222,0.471,1.825
	c0.033,0.113,0.061,0.227,0.095,0.34c0.909,3.042,2.24,5.93,3.94,8.589l0.001,0.001l0.001,0.002
	c1.172,1.832,2.517,3.551,4.025,5.137c0.051,0.052,0.099,0.106,0.148,0.158c0.709,0.735,1.454,1.439,2.231,2.113
	c0.125,0.11,0.254,0.215,0.382,0.322c0.786,0.661,1.595,1.298,2.445,1.89c0.784,0.545,1.584,1.07,2.419,1.553l22.552,13.015
	l21.414,12.36l17.561,10.134l91.644,52.89l19.288,11.132l11.953,6.899c10.533,6.078,23.509,6.076,34.04-0.007l11.872-6.857
	l19.288-11.14l25.717-14.853l55.554-32.086l10.363-5.985l26.36-15.225l21.408-12.365l13.813-7.978
	c0.811-0.468,1.59-0.979,2.353-1.506c0.851-0.588,1.659-1.226,2.446-1.884c0.128-0.107,0.258-0.212,0.385-0.322
	c0.78-0.673,1.526-1.375,2.237-2.11c0.047-0.048,0.09-0.098,0.136-0.146c3.724-3.891,6.476-8.609,8.02-13.765
	C473.046,372.067,473.074,371.958,473.105,371.851z"/>
<path style="fill:#048B7D;" d="M474.421,178.378l-0.005-28.873c0-2.995-0.407-5.931-1.16-8.75c-0.405-1.517-0.915-2.997-1.521-4.435
	c-2.477-5.876-6.574-11.016-11.925-14.74c-0.784-0.545-1.584-1.071-2.419-1.553l-22.874-13.202l-21.414-12.358l-17.239-9.949
	l-65.926-38.046l-25.717-14.844l-19.288-11.132l-11.953-6.899c-10.533-6.078-23.509-6.076-34.04,0.007l-11.872,6.857l-19.288,11.14
	l-25.717,14.853l0,0l-65.915,38.072l-28.89,16.686l-21.408,12.365l-11.282,6.516c-0.427,0.247-0.826,0.527-1.236,0.792
	l86.238,57.491h334.852V178.378z"/>
<path style="fill:#FFE000;" d="M53.302,391.132c0.434,0.282,0.857,0.579,1.308,0.839l22.552,13.016l21.414,12.359l17.561,10.134
	l91.644,52.89l19.288,11.132l11.953,6.899c10.533,6.078,23.509,6.076,34.04-0.007l11.872-6.857l19.288-11.14l25.717-14.853
	l55.554-32.086l10.363-5.985l26.36-15.225l21.408-12.365l13.813-7.977c0.811-0.469,1.59-0.98,2.353-1.507
	c0.851-0.588,1.659-1.226,2.446-1.884c0.128-0.107,0.258-0.212,0.385-0.322c0.78-0.673,1.526-1.375,2.237-2.11
	c0.047-0.048,0.09-0.098,0.136-0.146c3.724-3.891,6.476-8.609,8.02-13.766c0.031-0.106,0.059-0.215,0.09-0.322
	c0.176-0.611,0.336-1.228,0.479-1.85c0.046-0.2,0.089-0.401,0.131-0.603c0.113-0.54,0.213-1.085,0.3-1.634
	c0.037-0.236,0.076-0.473,0.11-0.711c0.075-0.545,0.131-1.092,0.18-1.643c0.021-0.225,0.047-0.447,0.063-0.674
	c0.052-0.767,0.084-1.537,0.084-2.313l0,0v-0.006l-0.005-28.795H139.568L53.302,391.132z"/>
<polygon style="fill:#333333;" points="474.441,295.307 474.441,295.304 474.44,291.091 474.436,265.517 474.428,216.693 
	474.424,196.461 166.692,196.461 256.001,255.999 166.692,315.539 474.444,315.539 "/>
<path style="fill:#ED1F34;" d="M166.692,196.461l-13.562-9.041l-13.562-9.041L53.33,120.887c-0.371,0.239-0.755,0.464-1.118,0.715
	c-3.272,2.268-6.073,5.067-8.333,8.236c-1.517,2.127-2.781,4.422-3.773,6.841c-1.655,4.032-2.558,8.399-2.557,12.899l0.006,37.842
	v3.07l0.005,26.203l0.012,73.738v4.011v0.849v0.002v0.013v0.005l0.005,26.198v0.001v1.864v1.206l0.002,11.411l0.004,26.496v0.007
	c0,0.773,0.033,1.539,0.084,2.304c0.016,0.224,0.042,0.446,0.061,0.669c0.048,0.548,0.105,1.096,0.18,1.638
	c0.033,0.236,0.072,0.471,0.108,0.706c0.087,0.545,0.186,1.087,0.298,1.626c0.042,0.201,0.086,0.403,0.131,0.603
	c0.14,0.615,0.298,1.222,0.471,1.825c0.033,0.113,0.061,0.227,0.095,0.34c0.909,3.042,2.24,5.93,3.94,8.589l0.001,0.001l0.001,0.002
	c1.172,1.832,2.517,3.551,4.025,5.137c0.051,0.052,0.099,0.106,0.148,0.158c0.709,0.735,1.454,1.441,2.231,2.113
	c0.125,0.11,0.254,0.215,0.382,0.322c0.786,0.661,1.595,1.298,2.445,1.89c0.359,0.251,0.743,0.474,1.111,0.714l86.266-57.511
	l13.562-9.041l13.562-9.041l89.309-59.539L166.692,196.461z"/>
<polygon style="fill:#FFE000;" points="55.849,237.433 97.543,235.279 112.476,196.291 127.41,235.279 169.103,237.433 
	136.638,263.682 147.474,304.003 112.476,281.238 77.479,304.003 88.314,263.682 "/>
<rect x="85.416" y="244.395" style="fill:#FFFFFF;" width="54.122" height="32.917"/>
<path d="M483.458,149.503c0-3.711-0.494-7.438-1.465-11.078c-0.506-1.899-1.155-3.789-1.925-5.615
	c-3.179-7.544-8.398-13.991-15.096-18.652c-1.117-0.778-2.089-1.4-3.062-1.961L277.5,5.767C270.961,1.994,263.515,0,255.966,0
	c-7.555,0-15.005,1.996-21.547,5.776L50.044,112.265c-0.95,0.549-1.896,1.152-2.978,1.902c-4.086,2.831-7.635,6.335-10.547,10.421
	c-1.912,2.683-3.519,5.597-4.775,8.658c-2.147,5.23-3.234,10.724-3.234,16.334l0.035,212.917c0,0.921,0.034,1.876,0.105,2.919
	c0.016,0.234,0.037,0.469,0.061,0.702l0.014,0.143c0.061,0.693,0.134,1.385,0.231,2.095c0.034,0.24,0.071,0.477,0.108,0.716
	l0.025,0.16c0.11,0.69,0.235,1.378,0.38,2.075c0.053,0.254,0.107,0.508,0.163,0.746c0.177,0.779,0.377,1.547,0.608,2.351
	l0.112,0.392c1.144,3.829,2.821,7.487,4.986,10.874c0.014,0.023,0.029,0.045,0.043,0.068c1.476,2.298,3.174,4.463,5.046,6.429
	c0.04,0.042,0.153,0.164,0.195,0.206c0.896,0.929,1.847,1.83,2.81,2.663l0.498,0.42c1.093,0.919,2.105,1.699,3.096,2.388
	c1.096,0.763,2.096,1.403,3.064,1.963l184.411,106.428c6.538,3.773,13.985,5.768,21.534,5.768l0,0
	c7.554,0,15.005-1.998,21.547-5.776l184.372-106.49c0.945-0.545,1.89-1.149,2.982-1.905c0.986-0.682,1.999-1.461,3.181-2.448
	c0.14-0.116,0.278-0.231,0.405-0.34c0.99-0.854,1.941-1.752,2.84-2.681l0.159-0.171c4.695-4.904,8.206-10.929,10.149-17.421
	l0.116-0.406c0.224-0.775,0.427-1.556,0.605-2.34l0.169-0.773c0.143-0.684,0.27-1.374,0.398-2.177
	c0.042-0.259,0.082-0.518,0.121-0.792c0.094-0.69,0.168-1.383,0.228-2.071l0.014-0.143c0.024-0.24,0.047-0.48,0.063-0.721
	c0.071-1.043,0.105-1.999,0.105-2.931L483.458,149.503z M53.689,379.868c-0.027-0.029-0.129-0.137-0.157-0.168
	c-1.099-1.155-2.094-2.424-2.956-3.772c-0.016-0.025-0.031-0.048-0.047-0.074c-1.237-1.948-2.195-4.047-2.849-6.239l-0.069-0.246
	c-0.127-0.442-0.244-0.888-0.351-1.354l-0.093-0.428c-0.082-0.395-0.154-0.793-0.217-1.183l-0.082-0.523
	c-0.054-0.4-0.096-0.803-0.13-1.203l-0.048-0.493c-0.039-0.561-0.064-1.125-0.064-1.7l-0.035-212.91c0-3.24,0.632-6.425,1.881-9.467
	c0.729-1.781,1.662-3.472,2.769-5.025c0.774-1.084,1.632-2.088,2.551-3.026l185.908,123.941L53.773,379.953
	C53.747,379.924,53.716,379.896,53.689,379.868z M465.349,364.1l-0.051,0.52c-0.035,0.404-0.076,0.805-0.129,1.191l-0.063,0.407
	c0,0.004-0.021,0.125-0.021,0.127c-0.064,0.404-0.137,0.804-0.231,1.251l-0.084,0.387c-0.104,0.457-0.222,0.909-0.347,1.341
	l-0.071,0.254c-1.128,3.764-3.164,7.258-5.908,10.125l-0.083,0.09c-0.512,0.529-1.066,1.051-1.649,1.555l-0.276,0.228
	c-0.684,0.573-1.255,1.014-1.791,1.384c-0.672,0.465-1.221,0.817-1.731,1.113l-184.375,106.49
	c-3.796,2.192-8.119,3.351-12.502,3.351c-4.381,0-8.701-1.159-12.496-3.348L70.364,390.623l190.652-127.102
	c2.515-1.677,4.026-4.499,4.026-7.522s-1.511-5.847-4.026-7.522L70.393,121.395l173.07-99.961c3.795-2.193,8.119-3.351,12.504-3.351
	c4.381,0,8.701,1.157,12.495,3.347l184.407,106.427c0.522,0.301,1.089,0.667,1.779,1.145c3.881,2.7,6.908,6.445,8.757,10.832
	c0.448,1.062,0.825,2.157,1.116,3.252c0.565,2.121,0.854,4.281,0.854,6.418l0.035,212.916
	C465.41,362.993,465.385,363.561,465.349,364.1z M153.864,284.446c3.531,3.532,3.531,9.256,0,12.787
	c-1.765,1.765-4.079,2.647-6.393,2.647c-2.313,0-4.628-0.882-6.393-2.647l-29.653-29.653l-29.653,29.653
	c-1.765,1.765-4.079,2.647-6.393,2.647s-4.628-0.882-6.393-2.647c-3.531-3.532-3.531-9.256,0-12.787l29.652-29.652l-19.449-19.449
	L68.3,246.233c-1.765,1.765-4.079,2.647-6.393,2.647c-2.313,0-4.628-0.882-6.393-2.647c-3.531-3.532-3.531-9.256,0-12.787
	l11.437-11.436c-1.251-3.237-0.576-7.046,2.035-9.657c3.531-3.53,9.256-3.53,12.786,0l29.653,29.653l29.653-29.653
	c3.531-3.53,9.256-3.53,12.786,0c3.531,3.532,3.531,9.256,0,12.787l-29.652,29.653L153.864,284.446z"/>
<g>
</g>
<g>
</g>
<g>
</g>
<g>
</g>
<g>
</g>
<g>
</g>
<g>
</g>
<g>
</g>
<g>
</g>
<g>
</g>
<g>
</g>
<g>
</g>
<g>
</g>
<g>
</g>
<g>
</g>
</svg>
