<?xml version="1.0" encoding="iso-8859-1"?>
<!-- Generator: Adobe Illustrator 19.0.0, SVG Export Plug-In . SVG Version: 6.00 Build 0)  -->
<svg version="1.1" id="Layer_1" xmlns="http://www.w3.org/2000/svg" xmlns:xlink="http://www.w3.org/1999/xlink" x="0px" y="0px"
	 viewBox="0 0 512 512" style="enable-background:new 0 0 512 512;" xml:space="preserve">
<path style="fill:#ED1F34;" d="M473.103,371.851c0.176-0.611,0.336-1.228,0.479-1.85c0.046-0.201,0.089-0.401,0.131-0.603
	c0.113-0.541,0.213-1.085,0.3-1.634c0.037-0.236,0.076-0.473,0.11-0.711c0.075-0.545,0.131-1.093,0.18-1.643
	c0.021-0.225,0.047-0.447,0.063-0.674c0.052-0.767,0.084-1.537,0.084-2.313l0,0l0,0v-0.006l-0.006-40.904v-0.001l-0.005-26.204
	v-0.002v-4.213l-0.004-25.574l0,0l-0.008-48.824l-0.005-26.204l-0.006-40.985c0-2.996-0.407-5.93-1.16-8.75
	c-0.405-1.517-0.915-2.997-1.521-4.435c-2.477-5.877-6.574-11.016-11.925-14.74c-0.784-0.545-1.584-1.071-2.419-1.554l-22.874-13.2
	l-21.414-12.358l-17.239-9.949L329.938,46.47l-25.717-14.842l-19.288-11.132l-11.953-6.898c-10.533-6.078-23.509-6.077-34.04,0.006
	l-11.872,6.857l-19.288,11.14l-25.717,14.854l0,0l-65.917,38.072l-28.89,16.686l-21.408,12.365l-11.282,6.517
	c-0.811,0.469-1.59,0.979-2.353,1.507c-3.272,2.266-6.073,5.068-8.333,8.236c-1.517,2.128-2.781,4.423-3.773,6.841
	c-1.655,4.031-2.558,8.399-2.557,12.899l0.006,40.912l0.005,26.204l0.012,73.738v4.011v0.849v0.002v0.013l0,0v0.005l0,0l0.005,26.2
	l0,0v1.864l0.002,12.617l0.004,26.497v0.006l0,0c0,0.773,0.033,1.539,0.084,2.304c0.016,0.224,0.042,0.446,0.061,0.669
	c0.048,0.55,0.105,1.096,0.18,1.638c0.033,0.236,0.072,0.471,0.108,0.706c0.087,0.546,0.186,1.087,0.298,1.626
	c0.042,0.201,0.086,0.403,0.131,0.603c0.14,0.615,0.298,1.222,0.471,1.825c0.033,0.113,0.061,0.227,0.095,0.34
	c0.909,3.042,2.24,5.93,3.94,8.589c0,0,0.001,0.001,0.001,0.002l0.001,0.001c1.172,1.832,2.517,3.551,4.025,5.137
	c0.051,0.052,0.099,0.106,0.148,0.158c0.709,0.735,1.454,1.441,2.231,2.112c0.125,0.11,0.254,0.215,0.382,0.322
	c0.786,0.661,1.595,1.3,2.445,1.89c0.784,0.545,1.584,1.07,2.419,1.554l22.552,13.015l21.414,12.359l17.561,10.135l91.644,52.89
	l19.288,11.132l11.953,6.898c10.533,6.078,23.509,6.077,34.04-0.006l11.872-6.857l19.288-11.14l25.717-14.853l55.554-32.086
	l10.363-5.985l26.36-15.224l21.408-12.365l13.813-7.978c0.811-0.469,1.59-0.979,2.353-1.507c0.851-0.59,1.659-1.226,2.446-1.883
	c0.128-0.107,0.258-0.213,0.385-0.322c0.78-0.673,1.526-1.375,2.237-2.11c0.047-0.048,0.09-0.098,0.136-0.146
	c3.724-3.891,6.476-8.609,8.02-13.765C473.044,372.067,473.072,371.958,473.103,371.851z"/>
<path style="fill:#278A2A;" d="M420.365,343.709c0.134-0.463,0.256-0.929,0.363-1.401c0.035-0.152,0.068-0.304,0.1-0.457
	c0.086-0.41,0.162-0.822,0.227-1.237c0.029-0.178,0.058-0.358,0.083-0.538c0.057-0.412,0.1-0.828,0.136-1.244
	c0.016-0.17,0.035-0.339,0.047-0.51c0.04-0.58,0.064-1.165,0.064-1.752l0,0l0,0v-0.005l-0.005-30.967v-0.001l-0.004-19.839v-0.001
	v-3.19l-0.002-19.362l0,0l-0.006-36.964l-0.002-19.838l-0.005-31.029c0-2.268-0.309-4.491-0.878-6.624
	c-0.306-1.148-0.693-2.269-1.151-3.357c-1.876-4.448-4.978-8.34-9.028-11.158c-0.593-0.412-1.199-0.81-1.832-1.177l-17.316-9.995
	l-16.212-9.356l-13.052-7.532L311.977,97.37l-19.47-11.237l-14.604-8.428l-9.049-5.224c-7.975-4.603-17.798-4.6-25.772,0.004
	l-8.988,5.192l-14.604,8.434l-19.47,11.246l0,0l-49.904,28.824l-21.872,12.633l-16.207,9.362l-8.542,4.934
	c-0.615,0.354-1.204,0.74-1.782,1.14c-2.477,1.715-4.598,3.836-6.307,6.235c-1.149,1.611-2.106,3.349-2.857,5.18
	c-1.253,3.052-1.936,6.358-1.936,9.766l0.005,30.973l0.004,19.838l0.01,55.826v3.037v0.643v0.001v0.01l0,0v0.002l0,0l0.002,19.836
	v0.001v1.41l0.001,9.553l0.004,20.061v0.005l0,0c0,0.585,0.025,1.166,0.064,1.744c0.012,0.17,0.033,0.338,0.047,0.506
	c0.036,0.416,0.08,0.829,0.136,1.24c0.025,0.178,0.054,0.357,0.082,0.534c0.065,0.413,0.14,0.823,0.225,1.231
	c0.033,0.152,0.064,0.304,0.099,0.456c0.106,0.465,0.225,0.926,0.357,1.382c0.025,0.086,0.047,0.172,0.072,0.257
	c0.688,2.304,1.695,4.489,2.982,6.503c0,0,0,0.001,0.001,0.001v0.001c0.887,1.386,1.906,2.689,3.049,3.889
	c0.037,0.04,0.075,0.081,0.112,0.121c0.538,0.557,1.101,1.091,1.69,1.6c0.095,0.082,0.193,0.163,0.289,0.244
	c0.596,0.5,1.207,0.984,1.852,1.432c0.593,0.412,1.199,0.81,1.832,1.177l17.074,9.853l16.212,9.357l13.296,7.672l69.381,40.043
	l14.604,8.428l9.049,5.224c7.975,4.603,17.798,4.6,25.772-0.004l8.988-5.192l14.604-8.434l19.47-11.246l42.059-24.292l7.846-4.532
	l19.957-11.526l16.207-9.361l10.458-6.041c0.615-0.354,1.204-0.74,1.782-1.14c0.644-0.446,1.256-0.927,1.852-1.426
	c0.098-0.081,0.195-0.162,0.292-0.245c0.591-0.509,1.155-1.04,1.694-1.596c0.035-0.036,0.069-0.075,0.104-0.111
	c2.819-2.945,4.902-6.517,6.072-10.422C420.322,343.872,420.342,343.79,420.365,343.709z"/>
<path style="fill:#FFFFFF;" d="M298.275,308.63c-29.066,0-52.629-23.563-52.629-52.631s23.563-52.629,52.629-52.629
	c0.874,0,1.743,0.024,2.608,0.066c-8.72-4.903-18.775-7.712-29.492-7.712c-33.289,0-60.276,26.987-60.276,60.276
	c0,33.29,26.987,60.276,60.276,60.276c10.717,0,20.771-2.809,29.492-7.712C300.02,308.606,299.149,308.63,298.275,308.63z"/>
<path d="M271.392,325.317c-38.222,0-69.317-31.096-69.317-69.317s31.095-69.317,69.317-69.317c11.698,0,23.262,2.981,33.476,8.623
	c3.009,1.468,5.081,4.557,5.081,8.13c0,4.985-4.032,9.027-9.014,9.041c-0.157,0-0.326-0.002-0.488-0.011
	c-0.72-0.035-1.443-0.055-2.171-0.055c-24.034,0-43.588,19.554-43.588,43.588s19.554,43.589,43.588,43.589
	c0.728,0,1.451-0.02,2.171-0.055c4.186-0.2,7.965,2.5,9.126,6.529c1.16,4.03-0.603,8.328-4.257,10.382
	C294.993,322.25,283.262,325.317,271.392,325.317z M262.975,205.457c-24.261,4.026-42.819,25.158-42.819,50.543
	c0,25.386,18.558,46.517,42.819,50.544c-15.935-11.162-26.371-29.656-26.371-50.544
	C236.604,235.114,247.043,216.617,262.975,205.457z M273.438,447.343l139.585-80.62c0.77-0.445,1.536-0.933,2.409-1.537
	c0.803-0.556,1.621-1.184,2.579-1.984l0.316-0.266c0.794-0.684,1.565-1.409,2.319-2.189l0.111-0.119
	c3.793-3.963,6.629-8.832,8.205-14.09l0.09-0.318c0.181-0.627,0.346-1.257,0.489-1.89c0.048-0.211,0.094-0.422,0.135-0.62
	c0.117-0.556,0.218-1.114,0.315-1.718c0.036-0.228,0.072-0.457,0.104-0.687c0.076-0.558,0.136-1.119,0.193-1.755
	c0.021-0.201,0.039-0.401,0.053-0.612c0.053-0.784,0.084-1.572,0.084-2.37l-0.027-161.194c0-2.999-0.399-6.012-1.184-8.955
	c-0.409-1.532-0.932-3.057-1.556-4.539c-2.569-6.094-6.787-11.304-12.197-15.069c-0.897-0.623-1.683-1.127-2.475-1.583
	L273.374,64.651c-10.739-6.198-24.078-6.195-34.813,0.006l-58.092,33.552c-4.324,2.498-5.805,8.028-3.308,12.352
	c2.497,4.324,8.029,5.803,12.352,3.307l58.093-33.552c5.158-2.98,11.571-2.982,16.73-0.004l139.615,80.576
	c0.341,0.198,0.72,0.441,1.187,0.767c2.597,1.807,4.623,4.315,5.86,7.246c0.301,0.716,0.553,1.449,0.749,2.178
	c0.379,1.423,0.571,2.867,0.573,4.295l0.027,161.196c0,0.382-0.018,0.762-0.048,1.173l-0.028,0.3
	c-0.024,0.27-0.051,0.539-0.088,0.805l-0.054,0.348c-0.042,0.269-0.092,0.534-0.149,0.813l-0.061,0.284
	c-0.07,0.305-0.149,0.606-0.233,0.898c-0.013,0.047-0.033,0.119-0.046,0.166c-0.755,2.52-2.118,4.858-3.96,6.783l-0.048,0.052
	c-0.346,0.358-0.716,0.706-1.163,1.09l-0.127,0.106c-0.459,0.383-0.851,0.687-1.201,0.929c-0.456,0.316-0.822,0.551-1.155,0.744
	l-139.591,80.622c-5.158,2.98-11.571,2.982-16.73,0.004l-139.615-80.576c-0.341-0.198-0.72-0.441-1.189-0.768
	c-0.35-0.243-0.741-0.548-1.193-0.927l-0.197-0.164c-0.38-0.328-0.75-0.679-1.022-0.96c-0.033-0.036-0.113-0.123-0.147-0.158
	c-0.734-0.772-1.4-1.62-1.976-2.522c-0.012-0.019-0.025-0.039-0.037-0.058c-0.826-1.302-1.465-2.703-1.889-4.12
	c-0.008-0.031-0.051-0.18-0.059-0.211c-0.086-0.295-0.163-0.593-0.233-0.901l-0.064-0.294c-0.054-0.262-0.102-0.526-0.145-0.793
	c0-0.004-0.019-0.122-0.02-0.125l-0.035-0.225c-0.036-0.265-0.063-0.532-0.086-0.792l-0.034-0.329
	c-0.025-0.377-0.043-0.756-0.043-1.144L99.654,175.43c0-2.168,0.424-4.298,1.259-6.333c0.489-1.193,1.114-2.325,1.855-3.365
	c1.136-1.592,2.512-2.956,4.094-4.051c0.456-0.316,0.822-0.551,1.155-0.744l46.622-26.926c4.324-2.498,5.805-8.028,3.308-12.352
	c-2.497-4.324-8.029-5.805-12.352-3.308l-46.619,26.925c-0.77,0.445-1.536,0.933-2.41,1.538c-3.303,2.288-6.17,5.12-8.522,8.418
	c-1.545,2.168-2.844,4.521-3.86,6.996c-1.734,4.224-2.612,8.665-2.612,13.2l0.027,161.196c0,0.788,0.031,1.571,0.086,2.37
	c0.013,0.198,0.031,0.393,0.06,0.673c0.049,0.563,0.108,1.124,0.187,1.686c0.028,0.205,0.06,0.409,0.108,0.71
	c0.088,0.561,0.19,1.118,0.304,1.664c0.043,0.21,0.089,0.418,0.135,0.621c0.143,0.628,0.305,1.251,0.488,1.889l0.094,0.328
	c0.925,3.095,2.28,6.051,4.01,8.756c0.022,0.034,0.043,0.068,0.065,0.1c1.19,1.852,2.559,3.595,4.024,5.132
	c0.046,0.051,0.156,0.168,0.203,0.216c0.725,0.751,1.492,1.478,2.263,2.145l0.407,0.344c0.881,0.74,1.7,1.372,2.504,1.931
	c0.897,0.623,1.683,1.127,2.475,1.583l139.615,80.576c5.368,3.098,11.384,4.646,17.402,4.646
	C262.047,451.995,268.068,450.444,273.438,447.343z M256.035,512L256.035,512c-7.55,0-14.995-1.995-21.534-5.768L50.09,399.803
	c-0.978-0.564-1.951-1.187-3.064-1.961c-0.985-0.686-1.999-1.467-3.096-2.389l-0.489-0.412c-0.976-0.844-1.926-1.743-2.817-2.669
	c-0.042-0.045-0.163-0.172-0.204-0.217c-1.864-1.958-3.565-4.124-5.043-6.425c-0.013-0.021-0.027-0.042-0.04-0.063
	c-2.164-3.385-3.842-7.043-4.985-10.871l-0.112-0.392c-0.23-0.804-0.429-1.573-0.606-2.348c-0.055-0.245-0.11-0.499-0.164-0.755
	c-0.145-0.693-0.27-1.379-0.379-2.07l-0.025-0.152c-0.039-0.24-0.076-0.48-0.11-0.721c-0.098-0.712-0.17-1.403-0.231-2.096
	l-0.014-0.146c-0.024-0.233-0.046-0.467-0.061-0.702c-0.071-1.042-0.105-1.996-0.105-2.917L28.509,149.58
	c0-5.607,1.087-11.103,3.234-16.334c1.256-3.061,2.863-5.975,4.775-8.657c2.913-4.084,6.46-7.59,10.546-10.421
	c1.089-0.753,2.034-1.357,2.979-1.904L234.418,5.776C240.959,1.998,248.41,0,255.964,0c7.549,0,14.995,1.995,21.534,5.768
	l184.41,106.428c0.974,0.563,1.947,1.185,3.062,1.96c6.698,4.659,11.917,11.109,15.096,18.652c0.77,1.829,1.419,3.717,1.925,5.614
	c0.972,3.642,1.465,7.369,1.466,11.08l0.035,212.912c0,0.931-0.034,1.887-0.105,2.931c-0.017,0.241-0.039,0.48-0.063,0.72
	l-0.014,0.143c-0.06,0.688-0.134,1.383-0.228,2.072c-0.037,0.27-0.077,0.526-0.119,0.781l-0.019,0.121
	c-0.11,0.692-0.236,1.38-0.38,2.064l-0.168,0.769c-0.181,0.791-0.383,1.571-0.608,2.344l-0.111,0.392
	c-1.949,6.507-5.459,12.533-10.154,17.438l-0.194,0.205c-0.868,0.896-1.82,1.794-2.81,2.646l-0.381,0.322
	c-0.005,0.004-0.102,0.086-0.107,0.089c-1.101,0.92-2.113,1.699-3.098,2.38c-1.084,0.751-2.03,1.355-2.979,1.902L277.58,506.221
	C271.04,510.002,263.589,512,256.035,512z M50.543,375.882c0.01,0.016,0.02,0.03,0.03,0.046c0.863,1.35,1.858,2.618,2.956,3.772
	c0.029,0.03,0.128,0.136,0.157,0.166c0.469,0.486,1.02,1.008,1.591,1.503l0.291,0.243c0.674,0.565,1.244,1.008,1.783,1.383
	c0.687,0.479,1.253,0.843,1.778,1.146l184.408,106.428c3.794,2.189,8.114,3.346,12.495,3.346c4.383,0,8.707-1.158,12.504-3.351
	l184.375-106.49c0.51-0.294,1.058-0.647,1.728-1.11c0.54-0.374,1.109-0.814,1.795-1.386l0.271-0.227
	c0.588-0.506,1.142-1.028,1.654-1.558l0.077-0.084c2.75-2.873,4.786-6.368,5.914-10.132l0.071-0.254
	c0.125-0.433,0.242-0.885,0.347-1.342l0.084-0.389c0.093-0.444,0.166-0.845,0.23-1.249l0.083-0.533
	c0.053-0.388,0.094-0.791,0.129-1.193l0.051-0.518c0.036-0.539,0.061-1.107,0.061-1.678l-0.035-212.917
	c0-2.137-0.288-4.298-0.854-6.419c-0.292-1.095-0.668-2.189-1.116-3.253c-1.849-4.386-4.876-8.13-8.758-10.83
	c-0.687-0.477-1.253-0.841-1.778-1.145L268.458,21.429c-3.793-2.189-8.113-3.347-12.494-3.347c-4.383,0-8.707,1.159-12.504,3.351
	L59.086,127.924c-0.509,0.294-1.058,0.647-1.73,1.111c-2.36,1.636-4.419,3.672-6.116,6.05c-1.107,1.554-2.04,3.244-2.77,5.025
	c-1.248,3.042-1.881,6.227-1.881,9.466l0.035,212.91c0,0.576,0.025,1.139,0.064,1.7l0.048,0.497c0.035,0.398,0.076,0.8,0.13,1.199
	l0.081,0.521c0.063,0.393,0.135,0.791,0.217,1.186l0.093,0.429c0.105,0.463,0.223,0.91,0.351,1.354l0.066,0.239
	C48.335,371.819,49.299,373.926,50.543,375.882z"/>
<g>
</g>
<g>
</g>
<g>
</g>
<g>
</g>
<g>
</g>
<g>
</g>
<g>
</g>
<g>
</g>
<g>
</g>
<g>
</g>
<g>
</g>
<g>
</g>
<g>
</g>
<g>
</g>
<g>
</g>
</svg>
