<?xml version="1.0" encoding="iso-8859-1"?>
<!-- Generator: Adobe Illustrator 19.0.0, SVG Export Plug-In . SVG Version: 6.00 Build 0)  -->
<svg version="1.1" id="Layer_1" xmlns="http://www.w3.org/2000/svg" xmlns:xlink="http://www.w3.org/1999/xlink" x="0px" y="0px"
	 viewBox="0 0 512.001 512.001" style="enable-background:new 0 0 512.001 512.001;" xml:space="preserve">
<path style="fill:#FFFFFF;" d="M473.104,371.851c0.176-0.611,0.336-1.228,0.479-1.85c0.046-0.201,0.089-0.401,0.131-0.603
	c0.113-0.541,0.213-1.085,0.3-1.634c0.037-0.236,0.076-0.473,0.11-0.711c0.075-0.545,0.131-1.093,0.18-1.643
	c0.02-0.225,0.047-0.447,0.063-0.674c0.052-0.767,0.084-1.537,0.084-2.313l0,0l0,0v-0.006l-0.006-40.904v-0.001l-0.005-26.204
	v-0.002v-4.213l-0.004-25.574l0,0l-0.008-48.824l-0.005-26.204l-0.006-40.985c0-2.996-0.407-5.93-1.16-8.75
	c-0.405-1.517-0.915-2.997-1.521-4.435c-2.477-5.877-6.574-11.016-11.925-14.74c-0.784-0.545-1.584-1.071-2.419-1.554l-22.874-13.2
	l-21.414-12.358l-17.239-9.949l-65.926-38.046l-25.717-14.842l-19.288-11.132l-11.953-6.898c-10.533-6.078-23.509-6.077-34.04,0.006
	l-11.872,6.857l-19.288,11.14l-25.717,14.854l0,0l-65.918,38.07l-28.889,16.686l-21.406,12.365l-11.284,6.517
	c-0.811,0.469-1.59,0.979-2.353,1.507c-3.272,2.268-6.073,5.068-8.333,8.236c-1.517,2.128-2.781,4.423-3.773,6.841
	c-1.655,4.031-2.558,8.399-2.557,12.899l0.006,40.912l0.005,26.204l0.012,73.738v4.011v0.85v0.001v0.013l0,0v0.005l0,0l0.005,26.2
	l0,0v1.864l0.002,12.617l0.004,26.497v0.006l0,0c0,0.773,0.033,1.539,0.084,2.304c0.016,0.224,0.042,0.446,0.061,0.669
	c0.048,0.55,0.105,1.096,0.18,1.638c0.033,0.236,0.072,0.471,0.108,0.706c0.087,0.546,0.186,1.087,0.298,1.626
	c0.042,0.201,0.086,0.403,0.131,0.603c0.14,0.615,0.298,1.222,0.471,1.825c0.033,0.113,0.061,0.227,0.095,0.34
	c0.909,3.042,2.24,5.93,3.94,8.589l0.001,0.001c0,0.001,0.001,0.001,0.001,0.001c1.172,1.832,2.517,3.553,4.026,5.137
	c0.051,0.052,0.099,0.106,0.148,0.158c0.709,0.735,1.454,1.439,2.231,2.112c0.125,0.11,0.254,0.215,0.382,0.322
	c0.786,0.661,1.595,1.3,2.445,1.89c0.784,0.545,1.584,1.071,2.419,1.554l22.552,13.015l21.414,12.359l17.561,10.135l91.644,52.89
	l19.288,11.132l11.953,6.898c10.533,6.078,23.509,6.077,34.04-0.006l11.872-6.857l19.288-11.14l25.717-14.853l55.554-32.086
	l10.363-5.985l26.36-15.225l21.408-12.365l13.813-7.978c0.811-0.469,1.59-0.979,2.353-1.507c0.851-0.59,1.659-1.226,2.446-1.883
	c0.128-0.107,0.258-0.213,0.385-0.322c0.78-0.673,1.526-1.375,2.237-2.11c0.047-0.048,0.09-0.098,0.136-0.146
	c3.724-3.891,6.476-8.609,8.02-13.765C473.045,372.067,473.073,371.958,473.104,371.851z"/>
<g>
	<path style="fill:#3DB4EA;" d="M374.882,324.58H37.578l0.002,11.411l0.004,26.497v0.006l0,0c0,0.773,0.033,1.539,0.084,2.304
		c0.016,0.225,0.042,0.446,0.061,0.669c0.048,0.55,0.105,1.096,0.18,1.638c0.033,0.236,0.072,0.471,0.108,0.706
		c0.087,0.546,0.186,1.087,0.298,1.626c0.042,0.201,0.086,0.403,0.131,0.603c0.019,0.086,0.046,0.17,0.065,0.256h336.538h40.112
		h58.342c0.024-0.1,0.054-0.197,0.076-0.297c0.046-0.201,0.089-0.401,0.131-0.603c0.113-0.541,0.213-1.085,0.3-1.633
		c0.037-0.236,0.076-0.473,0.11-0.711c0.075-0.545,0.131-1.093,0.18-1.643c0.02-0.225,0.047-0.447,0.063-0.674
		c0.052-0.767,0.084-1.537,0.084-2.313l0,0v-0.006l-0.006-37.836h-59.45L374.882,324.58L374.882,324.58z"/>
	<path style="fill:#3DB4EA;" d="M98.575,417.346l17.561,10.135l91.644,52.89l19.288,11.132l11.953,6.898
		c10.533,6.078,23.509,6.077,34.04-0.006l11.872-6.857l19.288-11.14l25.717-14.853l55.554-32.086l10.363-5.985l19.818-11.446H96.288
		L98.575,417.346z"/>
	<path style="fill:#3DB4EA;" d="M117.65,83.658l-1.506,0.869l-28.889,16.686l-21.406,12.365l-11.284,6.517
		c-0.811,0.469-1.59,0.979-2.353,1.507c-3.272,2.268-6.073,5.068-8.333,8.236c-1.517,2.128-2.781,4.423-3.773,6.841
		c-0.667,1.625-1.206,3.306-1.618,5.026h79.162V83.658z"/>
	<path style="fill:#3DB4EA;" d="M251.358,141.704v-45.73h164.353l-2.609-1.506l-17.239-9.949l-65.925-38.047l-25.717-14.842
		l-19.288-11.132l-11.953-6.898c-10.533-6.078-23.509-6.077-34.04,0.006l-11.872,6.857l-19.288,11.14l-25.717,14.854l0,0
		L162.217,57.92v83.785h89.141V141.704z"/>
	<path style="fill:#3DB4EA;" d="M474.415,149.505c0-2.663-0.339-5.273-0.938-7.801H251.358l0,0v45.716l0,0h223.063L474.415,149.505z
		"/>
	<polygon style="fill:#3DB4EA;" points="37.556,187.42 37.556,190.489 37.56,216.693 37.571,278.864 117.65,278.864 117.65,187.42 	
		"/>
	<polygon style="fill:#3DB4EA;" points="474.435,265.517 474.429,233.135 251.358,233.135 474.429,233.135 251.358,233.135 
		251.358,187.42 162.216,187.42 162.216,278.864 474.437,278.864 	"/>
</g>
<path style="fill:#FFFFFF;" d="M251.358,187.42v-45.716h-89.142V57.919L117.65,83.658v58.046H38.489
	c-0.611,2.548-0.94,5.186-0.939,7.873l0.006,37.842h80.095v91.445h44.564V187.42L251.358,187.42L251.358,187.42z"/>
<path d="M483.457,149.503c0-3.711-0.494-7.438-1.466-11.08c-0.506-1.896-1.155-3.787-1.925-5.614
	c-3.179-7.543-8.398-13.991-15.096-18.652c-1.115-0.775-2.087-1.398-3.062-1.96L277.499,5.768C270.961,1.995,263.513,0,255.964,0
	c-7.555,0-15.005,1.998-21.547,5.776L50.042,112.265c-0.945,0.546-1.89,1.15-2.979,1.904c-4.086,2.831-7.633,6.336-10.546,10.419
	c-1.912,2.683-3.519,5.596-4.775,8.657c-2.147,5.231-3.234,10.726-3.234,16.334l0.035,212.916c0,0.922,0.034,1.876,0.105,2.917
	c0.017,0.235,0.039,0.469,0.061,0.703l0.014,0.143c0.06,0.694,0.134,1.385,0.231,2.096c0.034,0.24,0.071,0.477,0.108,0.716
	l0.025,0.158c0.11,0.691,0.234,1.375,0.38,2.076c0.053,0.253,0.107,0.508,0.163,0.747c0.177,0.776,0.377,1.544,0.608,2.351
	l0.112,0.392c1.143,3.826,2.82,7.485,4.986,10.874c0.014,0.022,0.028,0.043,0.042,0.064c1.477,2.3,3.177,4.466,5.049,6.433
	c0.04,0.042,0.153,0.164,0.194,0.205c0.887,0.921,1.837,1.819,2.827,2.677l0.481,0.405c1.098,0.922,2.111,1.703,3.096,2.389
	c1.114,0.775,2.087,1.398,3.064,1.963l184.411,106.428c6.539,3.773,13.985,5.768,21.534,5.768l0,0
	c7.554,0,15.005-1.998,21.547-5.776l184.372-106.49c0.949-0.548,1.895-1.152,2.979-1.904c0.995-0.688,1.979-1.444,3.097-2.378
	c0.005-0.004,0.104-0.086,0.11-0.09l0.381-0.321c0.989-0.852,1.942-1.75,2.81-2.647l0.194-0.205
	c4.695-4.906,8.205-10.93,10.152-17.432l0.112-0.397c0.224-0.773,0.427-1.553,0.608-2.345l0.168-0.769
	c0.143-0.684,0.27-1.372,0.38-2.067l0.019-0.121c0.041-0.256,0.081-0.511,0.118-0.778c0.095-0.69,0.169-1.385,0.229-2.073
	l0.014-0.145c0.024-0.239,0.047-0.479,0.063-0.72c0.071-1.044,0.105-2,0.105-2.932L483.457,149.503z M117.65,178.378H46.596
	l-0.005-27.633h71.059c4.993,0,9.041-4.048,9.041-9.041V88.877l26.482-15.296v68.123c0,4.993,4.048,9.041,9.041,9.041h80.101v27.633
	h-80.101c-4.993,0-9.041,4.048-9.041,9.041v82.403h-26.482V187.42C126.692,182.427,122.644,178.378,117.65,178.378z
	 M108.609,196.461v73.362H46.611l-0.012-73.362H108.609z M171.257,196.461h71.059v36.674c0,4.993,4.048,9.041,9.041,9.041h214.03
	l0.005,27.647H171.257V196.461z M465.374,150.745l0.005,27.633H260.4v-27.633C260.4,150.745,465.374,150.745,465.374,150.745z
	 M465.381,196.461l0.005,27.633H260.4v-27.633H465.381z M454.646,129.003c1.53,1.064,2.92,2.295,4.165,3.66H260.4v-27.647h152.89
	l39.58,22.842C453.394,128.161,453.959,128.525,454.646,129.003z M243.462,21.434c3.796-2.192,8.119-3.351,12.504-3.351
	c4.381,0,8.701,1.159,12.495,3.347l113.496,65.502H251.358c-4.993,0-9.041,4.048-9.041,9.041v36.689h-71.059V63.138L243.462,21.434z
	 M57.356,129.036c0.671-0.464,1.221-0.819,1.73-1.111l49.523-28.603v33.341H53.235C54.48,131.305,55.849,130.08,57.356,129.036z
	 M268.538,490.566c-3.796,2.193-8.119,3.351-12.504,3.351c-4.381,0-8.701-1.157-12.495-3.347l-113.496-65.502H381.94
	L268.538,490.566z M458.36,379.795c-0.512,0.529-1.066,1.051-1.654,1.558l-0.269,0.224c-0.69,0.576-1.26,1.017-1.797,1.389
	c-0.668,0.463-1.216,0.815-1.728,1.109l-39.664,22.908H98.71l-39.58-22.841c-0.526-0.303-1.091-0.668-1.778-1.146
	c-0.54-0.375-1.109-0.817-1.783-1.383l-0.288-0.24c-0.576-0.499-1.128-1.022-1.596-1.507c-0.027-0.028-0.128-0.136-0.154-0.164
	c-0.11-0.116-0.206-0.246-0.315-0.363h321.834c4.993,0,9.041-4.048,9.041-9.041c0-4.994-4.048-9.041-9.041-9.041H46.626
	l-0.005-27.634h328.261c4.993,0,9.041-4.048,9.041-9.041s-4.048-9.041-9.041-9.041H46.619l-0.005-27.633h418.783l0.005,27.633
	h-50.408c-4.993,0-9.041,4.048-9.041,9.041s4.048,9.041,9.041,9.041h50.41l0.005,27.634h-50.246c-4.993,0-9.041,4.047-9.041,9.041
	c0,4.993,4.048,9.041,9.041,9.041h43.612c-0.112,0.121-0.217,0.247-0.332,0.366L458.36,379.795z"/>
<g>
</g>
<g>
</g>
<g>
</g>
<g>
</g>
<g>
</g>
<g>
</g>
<g>
</g>
<g>
</g>
<g>
</g>
<g>
</g>
<g>
</g>
<g>
</g>
<g>
</g>
<g>
</g>
<g>
</g>
</svg>
