<?xml version="1.0" encoding="iso-8859-1"?>
<!-- Generator: Adobe Illustrator 19.0.0, SVG Export Plug-In . SVG Version: 6.00 Build 0)  -->
<svg version="1.1" id="Layer_1" xmlns="http://www.w3.org/2000/svg" xmlns:xlink="http://www.w3.org/1999/xlink" x="0px" y="0px"
	 viewBox="0 0 512 512" style="enable-background:new 0 0 512 512;" xml:space="preserve">
<path style="fill:#ED1F34;" d="M471.878,367.47l-0.052,0.535c-0.036,0.42-0.078,0.838-0.133,1.231l-0.086,0.548
	c-0.066,0.417-0.142,0.831-0.227,1.234l-0.099,0.456c-0.108,0.471-0.23,0.938-0.372,1.43l-0.063,0.228
	c-1.165,3.881-3.263,7.478-6.088,10.43l-0.087,0.093c-0.53,0.547-1.101,1.084-1.691,1.593l-0.299,0.248
	c-0.69,0.577-1.296,1.046-1.843,1.426c-0.694,0.48-1.26,0.843-1.784,1.146L268.932,497.88c-3.916,2.26-8.374,3.456-12.893,3.456
	c-4.517-0.001-8.974-1.193-12.885-3.451L52.994,388.139c-0.541-0.313-1.125-0.687-1.832-1.18c-0.555-0.386-1.142-0.843-1.871-1.455
	l-0.269-0.224c-0.591-0.511-1.16-1.05-1.626-1.532c-0.034-0.036-0.142-0.153-0.177-0.189c-1.121-1.178-2.137-2.471-3.02-3.846
	c-0.011-0.017-0.02-0.033-0.031-0.049c-1.296-2.026-2.3-4.212-2.975-6.475l-0.076-0.276c-0.131-0.459-0.252-0.921-0.36-1.395
	l-0.099-0.456c-0.084-0.401-0.158-0.805-0.227-1.236l-0.081-0.516c-0.055-0.412-0.098-0.828-0.136-1.26l-0.048-0.488
	c-0.04-0.577-0.065-1.16-0.065-1.753L40.062,146.26c0-3.342,0.652-6.627,1.937-9.759c0.755-1.838,1.718-3.584,2.859-5.185
	c1.749-2.453,3.871-4.553,6.305-6.24c0.694-0.48,1.26-0.843,1.784-1.146L243.072,14.119c3.916-2.26,8.374-3.456,12.893-3.456
	c4.517,0,8.973,1.193,12.885,3.451l190.16,109.747c0.543,0.313,1.125,0.687,1.832,1.18c4.001,2.785,7.123,6.646,9.028,11.162
	c0.467,1.108,0.854,2.236,1.154,3.361c0.585,2.189,0.88,4.416,0.88,6.62l0.036,219.572
	C471.942,366.341,471.916,366.92,471.878,367.47z"/>
<path style="fill:#FFFFFF;" d="M256.001,373.538c-74.044,0-134.283-60.239-134.283-134.283s60.239-134.284,134.283-134.284
	s134.283,60.24,134.283,134.284S330.045,373.538,256.001,373.538z M256.001,123.055c-64.073,0-116.2,52.127-116.2,116.201
	c0,64.072,52.127,116.2,116.2,116.2s116.2-52.127,116.2-116.2C372.202,175.181,320.075,123.055,256.001,123.055z"/>
<polygon style="fill:#B3B3B3;" points="291.899,397.987 220.104,397.987 230.216,160.499 281.787,160.499 "/>
<polygon style="fill:#FFFFFF;" points="186.286,240.347 237.617,237.696 256.001,189.696 274.387,237.696 325.718,240.347 
	285.749,272.666 299.089,322.303 256.001,294.277 212.915,322.303 226.255,272.666 "/>
<path d="M334.317,237.555c-1.157-3.562-4.392-6.043-8.132-6.236l-32.403-1.674l-2.961-69.531c-0.206-4.839-4.189-8.657-9.033-8.657
	h-51.571c-4.844,0-8.827,3.818-9.033,8.657l-2.961,69.531l-32.403,1.674c-3.741,0.193-6.975,2.674-8.132,6.236
	s0.001,7.469,2.914,9.824l35.395,28.619l-11.814,43.959c-0.972,3.617,0.387,7.46,3.418,9.661c1.858,1.35,4.107,1.905,6.294,1.666
	l-2.823,66.318c-0.105,2.463,0.8,4.861,2.505,6.641c1.706,1.779,4.064,2.786,6.528,2.786h71.795c0.007-0.001,0.014-0.001,0.024,0
	c4.993,0,9.041-4.047,9.041-9.041c0-0.357-0.021-0.708-0.06-1.054l-2.796-65.657c0.327,0.035,0.652,0.07,0.98,0.07
	c1.869,0,3.735-0.577,5.315-1.728c3.031-2.201,4.389-6.044,3.418-9.661l-11.814-43.959l35.395-28.619
	C334.315,245.024,335.474,241.117,334.317,237.555z M238.88,169.541h34.242l1.896,44.528l-10.574-27.605
	c-1.339-3.497-4.698-5.807-8.443-5.807c-3.746,0-7.104,2.31-8.443,5.807l-10.574,27.605L238.88,169.541z M229.539,388.945
	l2.92-68.568l23.543-15.314l23.543,15.314l2.92,68.568H229.539z M294.806,253.715l-14.742,11.92c-1.231,0.996-2.13,2.28-2.692,3.69
	l0.354,8.325l6.505,24.203l-5.63-3.662l-17.669-11.492c-1.498-0.975-3.214-1.462-4.929-1.462c-1.715,0-3.431,0.487-4.929,1.462
	l-17.669,11.492l-5.63,3.662l6.505-24.203l0.354-8.325c-0.563-1.41-1.461-2.693-2.692-3.69l-14.742-11.92l-6.871-5.555l7.123-0.368
	l18.139-0.937l2.494-0.129c3.571-0.184,6.698-2.457,7.977-5.795l9.942-25.956l9.942,25.956c1.279,3.338,4.406,5.609,7.977,5.795
	l2.494,0.129l18.139,0.937l7.123,0.368L294.806,253.715z M483.459,149.505c0-3.708-0.493-7.437-1.463-11.076
	c-0.503-1.885-1.15-3.777-1.928-5.623c-3.18-7.542-8.399-13.99-15.091-18.646c-1.113-0.775-2.086-1.398-3.066-1.964L277.502,5.767
	C270.963,1.995,263.516,0,255.967,0c-7.555,0-15.005,1.998-21.547,5.776L50.049,112.263c-0.943,0.544-1.89,1.149-2.985,1.907
	c-4.086,2.831-7.632,6.335-10.545,10.419c-1.911,2.68-3.517,5.592-4.776,8.658c-2.146,5.23-3.234,10.724-3.234,16.334l0.036,212.915
	c0,0.928,0.034,1.882,0.105,2.917c0.017,0.241,0.039,0.48,0.064,0.721l0.013,0.127c0.06,0.694,0.133,1.384,0.229,2.094
	c0.036,0.26,0.077,0.516,0.133,0.866c0.111,0.697,0.236,1.389,0.381,2.077c0.053,0.256,0.107,0.51,0.164,0.756
	c0.177,0.776,0.377,1.544,0.604,2.337c0.04,0.149,0.082,0.299,0.115,0.405c1.138,3.809,2.804,7.45,4.952,10.818
	c0.012,0.019,0.024,0.037,0.036,0.057c1.484,2.323,3.199,4.51,5.069,6.474c0.046,0.049,0.168,0.178,0.215,0.228
	c0.892,0.926,1.841,1.824,2.826,2.675l0.481,0.405c1.098,0.923,2.111,1.705,3.097,2.391c1.115,0.775,2.087,1.397,3.062,1.96
	l184.411,106.429c6.539,3.772,13.985,5.767,21.534,5.767c7.555,0,15.005-1.998,21.547-5.776l184.37-106.487
	c0.943-0.544,1.89-1.149,2.987-1.907c0.99-0.687,2.004-1.466,3.107-2.389l0.475-0.398c0.986-0.85,1.938-1.747,2.85-2.688
	l0.153-0.163c4.695-4.904,8.205-10.929,10.124-17.344c0.052-0.168,0.1-0.334,0.14-0.487c0.224-0.774,0.427-1.554,0.609-2.342
	c0.058-0.254,0.112-0.509,0.168-0.77c0.142-0.682,0.269-1.371,0.379-2.067l0.021-0.123c0.04-0.253,0.08-0.508,0.119-0.786
	c0.093-0.686,0.168-1.378,0.227-2.063l0.014-0.143c0.025-0.239,0.047-0.477,0.063-0.72c0.072-1.058,0.106-2.019,0.105-2.931
	L483.459,149.505z M465.349,364.098l-0.051,0.521c-0.035,0.406-0.076,0.813-0.128,1.191l-0.083,0.534
	c-0.064,0.403-0.137,0.804-0.219,1.196l-0.095,0.44c-0.105,0.459-0.224,0.911-0.362,1.389l-0.061,0.222
	c-1.13,3.76-3.164,7.251-5.903,10.113l-0.083,0.092c-0.515,0.53-1.068,1.051-1.639,1.544l-0.289,0.24
	c-0.669,0.561-1.256,1.015-1.787,1.382c-0.674,0.467-1.222,0.82-1.731,1.113l-184.373,106.49c-3.796,2.193-8.12,3.351-12.504,3.351
	c-4.381,0-8.703-1.157-12.495-3.347L59.133,384.143c-0.526-0.304-1.09-0.669-1.777-1.144c-0.538-0.376-1.108-0.819-1.814-1.41
	l-0.262-0.218c-0.573-0.495-1.125-1.019-1.577-1.486c-0.033-0.035-0.137-0.148-0.172-0.183c-1.086-1.142-2.073-2.397-2.929-3.73
	c-0.011-0.017-0.02-0.031-0.03-0.047c-1.257-1.966-2.231-4.088-2.886-6.28l-0.075-0.269c-0.128-0.445-0.245-0.891-0.35-1.351
	l-0.095-0.442c-0.081-0.388-0.153-0.78-0.219-1.198l-0.078-0.499c-0.054-0.4-0.094-0.803-0.131-1.222l-0.045-0.474
	c-0.037-0.562-0.063-1.125-0.063-1.699l-0.036-212.911c0-3.24,0.632-6.425,1.879-9.463c0.732-1.783,1.666-3.476,2.773-5.029
	c1.696-2.378,3.754-4.415,6.114-6.049c0.674-0.467,1.222-0.82,1.731-1.113l184.373-106.49c3.796-2.192,8.12-3.351,12.504-3.351
	c4.381,0,8.701,1.159,12.495,3.347l184.41,106.427c0.527,0.304,1.09,0.668,1.777,1.145c3.881,2.699,6.908,6.446,8.756,10.824
	c0.452,1.074,0.828,2.169,1.119,3.259c0.567,2.124,0.854,4.283,0.854,6.421l0.035,212.93
	C465.412,363.004,465.386,363.567,465.349,364.098z"/>
<g>
</g>
<g>
</g>
<g>
</g>
<g>
</g>
<g>
</g>
<g>
</g>
<g>
</g>
<g>
</g>
<g>
</g>
<g>
</g>
<g>
</g>
<g>
</g>
<g>
</g>
<g>
</g>
<g>
</g>
</svg>
