<?xml version="1.0" encoding="iso-8859-1"?>
<!-- Generator: Adobe Illustrator 19.0.0, SVG Export Plug-In . SVG Version: 6.00 Build 0)  -->
<svg version="1.1" id="Layer_1" xmlns="http://www.w3.org/2000/svg" xmlns:xlink="http://www.w3.org/1999/xlink" x="0px" y="0px"
	 viewBox="0 0 512 512" style="enable-background:new 0 0 512 512;" xml:space="preserve">
<path style="fill:#ED1F34;" d="M473.103,371.85c0.176-0.61,0.338-1.227,0.479-1.848c0.047-0.201,0.089-0.403,0.131-0.604
	c0.113-0.54,0.213-1.085,0.3-1.632c0.037-0.237,0.076-0.474,0.11-0.711c0.076-0.546,0.131-1.095,0.18-1.644
	c0.021-0.225,0.047-0.448,0.063-0.674c0.052-0.767,0.084-1.537,0.084-2.313l0,0l0,0v-0.006l-0.005-40.904v-0.002l-0.005-26.203
	v-0.002l-0.001-4.213l-0.004-25.574l0,0l-0.008-48.824l-0.005-26.203l-0.007-40.985c0-2.995-0.406-5.931-1.16-8.75
	c-0.405-1.517-0.915-2.997-1.52-4.435c-2.479-5.876-6.575-11.016-11.925-14.74c-0.784-0.545-1.584-1.071-2.421-1.553l-22.874-13.202
	l-21.414-12.358l-17.24-9.949l-65.924-38.046L304.22,31.629l-19.288-11.132l-11.953-6.899c-10.533-6.078-23.509-6.076-34.04,0.007
	l-11.872,6.857l-19.288,11.14l-25.717,14.853l0,0l-65.915,38.072l-28.89,16.686l-21.408,12.365l-11.282,6.516
	c-0.811,0.469-1.59,0.98-2.353,1.507c-3.272,2.268-6.073,5.067-8.331,8.236c-1.517,2.127-2.781,4.422-3.773,6.841
	c-1.655,4.032-2.558,8.399-2.557,12.899l0.006,40.913l0.005,26.203l0.012,73.738v4.011v0.85v0.001v0.013l0,0v0.005l0,0l0.005,26.198
	v0.002v1.863l0.002,12.617l0.004,26.496v0.007l0,0c0,0.773,0.033,1.539,0.084,2.305c0.016,0.224,0.042,0.445,0.061,0.668
	c0.048,0.55,0.105,1.096,0.18,1.638c0.033,0.236,0.072,0.471,0.108,0.708c0.087,0.544,0.186,1.086,0.298,1.625
	c0.042,0.201,0.086,0.403,0.131,0.603c0.14,0.615,0.298,1.222,0.471,1.825c0.033,0.113,0.061,0.228,0.095,0.34
	c0.909,3.043,2.24,5.93,3.94,8.588c0,0.001,0,0.002,0.001,0.002l0.001,0.002c1.172,1.832,2.517,3.551,4.025,5.137
	c0.051,0.053,0.099,0.106,0.148,0.159c0.709,0.734,1.454,1.438,2.231,2.112c0.125,0.11,0.254,0.215,0.382,0.322
	c0.786,0.661,1.595,1.298,2.445,1.89c0.784,0.545,1.584,1.07,2.419,1.553l22.552,13.016l21.414,12.359l17.561,10.134l91.644,52.89
	l19.288,11.132l11.953,6.899c10.533,6.078,23.509,6.076,34.04-0.007l11.872-6.857l19.288-11.14l25.717-14.853l55.554-32.086
	l10.363-5.985l26.36-15.225l21.408-12.365l13.813-7.977c0.813-0.469,1.59-0.98,2.353-1.507c0.85-0.588,1.659-1.226,2.445-1.884
	c0.129-0.106,0.259-0.212,0.386-0.323c0.779-0.671,1.526-1.374,2.236-2.108c0.046-0.048,0.09-0.098,0.136-0.145
	c3.725-3.893,6.475-8.61,8.019-13.767C473.045,372.067,473.073,371.958,473.103,371.85z"/>
<g>
	<path style="fill:#FFFFFF;" d="M281.134,183.194c0-10.194-6.231-18.929-15.092-22.618V138.59
		c-24.634,0-44.604,19.969-44.604,44.604s19.969,44.604,44.604,44.604v-21.985C274.903,202.123,281.134,193.389,281.134,183.194z"/>
	<path style="fill:#FFFFFF;" d="M184.73,212.496c-9.696-3.15-19.928,0.076-26.174,7.362l-20.91-6.796
		c-7.613,23.429,5.209,48.593,28.637,56.205c23.428,7.612,48.592-5.208,56.205-28.638l-20.911-6.793
		C200.808,224.27,194.426,215.646,184.73,212.496z"/>
	<path style="fill:#FFFFFF;" d="M182.807,313.234c-5.993,8.248-6.085,18.977-1.086,27.169l-12.923,17.786
		c19.93,14.481,47.824,10.062,62.304-9.868c14.48-19.928,10.061-47.823-9.868-62.304l-12.923,17.789
		C198.975,301.583,188.799,304.986,182.807,313.234z"/>
	<path style="fill:#FFFFFF;" d="M278.022,346.194c5.993,8.248,16.166,11.651,25.502,9.428l12.924,17.787
		c19.928-14.479,24.347-42.373,9.867-62.304c-14.479-19.93-42.373-24.347-62.302-9.87l12.923,17.789
		C271.935,327.218,272.028,337.946,278.022,346.194z"/>
	<path style="fill:#FFFFFF;" d="M338.79,265.826c9.696-3.15,16.078-11.777,16.848-21.341l20.911-6.794
		c-7.612-23.429-32.776-36.25-56.204-28.637c-23.429,7.612-36.25,32.776-28.638,56.204l20.91-6.794
		C318.861,265.747,329.094,268.976,338.79,265.826z"/>
</g>
<path d="M266.044,236.84c-29.58,0-53.646-24.066-53.646-53.646s24.065-53.646,53.646-53.646c4.994,0,9.041,4.047,9.041,9.041v16.59
	c9.327,6.124,15.091,16.56,15.091,28.014c0,11.454-5.762,21.89-15.091,28.014v16.59C275.085,232.793,271.037,236.84,266.044,236.84z
	 M257.002,148.796c-15.245,4.01-26.521,17.912-26.521,34.398s11.275,30.389,26.521,34.398v-11.779c0-3.65,2.195-6.944,5.566-8.347
	c5.785-2.409,9.524-8.012,9.524-14.272c0-6.26-3.738-11.862-9.524-14.271c-3.371-1.403-5.566-4.697-5.566-8.347V148.796z
	 M180.077,280.505C180.076,280.505,180.077,280.505,180.077,280.505c-5.621-0.001-11.202-0.887-16.587-2.638
	c-13.628-4.428-24.716-13.897-31.221-26.665c-6.505-12.768-7.65-27.304-3.221-40.931c1.543-4.749,6.644-7.349,11.392-5.803
	l15.783,5.127c5.9-4.721,13.261-7.344,20.939-7.344c3.513,0,6.999,0.553,10.363,1.647c10.893,3.539,19.038,12.244,21.98,23.009
	l15.779,5.127c4.749,1.543,7.348,6.645,5.805,11.392C223.881,265.603,203.381,280.505,180.077,280.505z M144.548,224.813
	c-0.368,6.23,0.925,12.471,3.832,18.179c4.313,8.464,11.663,14.742,20.696,17.677c3.579,1.163,7.28,1.752,10.999,1.753
	c12.342,0,23.497-6.306,29.92-16.344l-11.213-3.643c-3.472-1.128-5.925-4.235-6.218-7.873c-0.503-6.246-4.675-11.531-10.629-13.467
	c-1.558-0.506-3.163-0.762-4.775-0.762c-4.513,0-8.793,1.972-11.741,5.409c-2.376,2.773-6.186,3.846-9.659,2.715L144.548,224.813z
	 M194.978,375.752c-11.376,0-22.267-3.543-31.494-10.248c-1.94-1.408-3.24-3.532-3.617-5.901c-0.375-2.368,0.206-4.788,1.615-6.728
	l9.751-13.422c-3.946-10.437-2.474-22.268,4.258-31.534c6.586-9.065,17.447-14.306,28.67-13.786l9.757-13.43
	c2.934-4.04,8.588-4.938,12.629-2c11.592,8.422,19.212,20.855,21.453,35.007c2.241,14.153-1.162,28.332-9.585,39.924
	C228.353,367.486,212.115,375.752,194.978,375.752z M182.105,355.257c4.072,1.59,8.417,2.412,12.874,2.412
	c11.368,0,22.137-5.482,28.808-14.662c5.583-7.685,7.839-17.085,6.354-26.467c-1.002-6.327-3.625-12.135-7.585-16.959l-6.932,9.538
	c-2.146,2.954-5.854,4.327-9.409,3.482c-1.167-0.277-2.37-0.42-3.577-0.42c-5.016,0-9.578,2.321-12.517,6.366
	c-3.68,5.066-3.948,11.795-0.684,17.145c1.902,3.116,1.743,7.07-0.403,10.024L182.105,355.257z M316.448,382.451
	c-0.471,0-0.943-0.036-1.414-0.112c-2.369-0.375-4.492-1.676-5.901-3.615l-9.759-13.431c-0.506,0.024-1.014,0.035-1.52,0.035
	c-0.001,0-0.001,0-0.002,0c-10.711-0.001-20.859-5.167-27.147-13.82c-6.733-9.268-8.205-21.098-4.258-31.534l-9.751-13.422
	c-1.409-1.938-1.99-4.359-1.615-6.728s1.676-4.492,3.617-5.901c9.228-6.706,20.119-10.249,31.495-10.249
	c17.138,0,33.376,8.267,43.436,22.118c17.387,23.93,12.065,57.543-11.867,74.932C320.208,381.853,318.345,382.451,316.448,382.451z
	 M303.523,346.581c2.852,0,5.59,1.353,7.314,3.727l6.924,9.53c9.977-12.205,10.928-30.08,1.237-43.418
	c-6.67-9.181-17.44-14.663-28.807-14.663c-4.456,0-8.802,0.823-12.874,2.415l6.931,9.539c2.146,2.954,2.305,6.908,0.403,10.024
	c-3.265,5.35-2.996,12.081,0.682,17.144c2.897,3.987,7.577,6.365,12.519,6.366h0.001c1.204,0,2.407-0.141,3.574-0.419
	C302.125,346.662,302.829,346.581,303.523,346.581z M331.221,276.071L331.221,276.071c-7.678,0-15.04-2.623-20.939-7.344
	l-15.783,5.128c-2.277,0.74-4.762,0.546-6.899-0.542c-2.136-1.087-3.753-2.982-4.494-5.262c-9.14-28.133,6.31-58.457,34.442-67.597
	c5.386-1.75,10.967-2.638,16.587-2.638c23.305,0,43.805,14.901,51.01,37.082c0.741,2.281,0.546,4.762-0.543,6.899
	c-1.089,2.137-2.982,3.753-5.262,4.494l-15.778,5.127c-2.943,10.765-11.087,19.469-21.98,23.009
	C338.221,275.518,334.733,276.071,331.221,276.071z M312.614,249.421c2.594,0,5.117,1.119,6.865,3.156
	c2.948,3.439,7.227,5.41,11.741,5.41l0,0c1.612,0,3.219-0.257,4.775-0.762c5.954-1.934,10.126-7.221,10.629-13.468
	c0.293-3.641,2.745-6.746,6.218-7.873l11.213-3.642c-6.423-10.037-17.578-16.346-29.92-16.346c-3.719,0-7.42,0.589-10.999,1.753
	c-15.679,5.096-25.416,20.117-24.519,35.853l11.204-3.641C310.741,249.567,311.682,249.421,312.614,249.421z M256.036,512
	L256.036,512c-7.55,0-14.997-1.995-21.534-5.768L50.091,399.803c-0.967-0.559-1.969-1.198-3.064-1.963
	c-0.991-0.69-2.004-1.471-3.096-2.388l-0.498-0.419c-0.963-0.833-1.914-1.734-2.81-2.663c-0.041-0.042-0.154-0.164-0.195-0.206
	c-1.872-1.966-3.571-4.131-5.046-6.429c-0.014-0.023-0.029-0.045-0.043-0.068c-2.165-3.386-3.843-7.045-4.986-10.873l-0.112-0.393
	c-0.23-0.804-0.429-1.573-0.608-2.351c-0.054-0.239-0.108-0.492-0.163-0.746c-0.146-0.697-0.271-1.383-0.38-2.075l-0.025-0.16
	c-0.039-0.237-0.076-0.476-0.108-0.716c-0.098-0.71-0.17-1.402-0.231-2.095l-0.014-0.143c-0.024-0.233-0.046-0.468-0.061-0.702
	c-0.071-1.043-0.105-1.998-0.105-2.919l-0.035-212.917c0-5.608,1.087-11.104,3.234-16.334c1.256-3.061,2.863-5.975,4.775-8.658
	c2.914-4.086,6.462-7.59,10.547-10.421c1.081-0.75,2.029-1.354,2.978-1.902L234.417,5.776C240.959,1.996,248.411,0,255.964,0
	c7.55,0,14.995,1.994,21.534,5.767l184.411,106.428c0.978,0.565,1.951,1.189,3.066,1.965c6.691,4.655,11.911,11.103,15.092,18.647
	c0.776,1.844,1.424,3.735,1.926,5.623c0.97,3.637,1.464,7.366,1.464,11.075l0.035,212.911c0.001,0.913-0.033,1.873-0.105,2.931
	c-0.016,0.24-0.037,0.48-0.063,0.721l-0.014,0.143c-0.06,0.684-0.134,1.374-0.227,2.061c-0.039,0.283-0.08,0.542-0.122,0.802
	c-0.128,0.803-0.254,1.492-0.398,2.177c-0.055,0.265-0.11,0.52-0.168,0.773c-0.18,0.784-0.383,1.566-0.608,2.34
	c-0.041,0.154-0.09,0.327-0.143,0.497c-1.917,6.402-5.426,12.428-10.122,17.332l-0.119,0.127c-0.943,0.974-1.894,1.872-2.881,2.723
	l-0.405,0.339c-1.175,0.981-2.186,1.76-3.177,2.447c-1.104,0.763-2.051,1.367-2.991,1.91L277.583,506.223
	C271.041,510.002,263.589,512,256.036,512z M50.528,375.856c0.016,0.025,0.031,0.048,0.047,0.074
	c0.862,1.348,1.857,2.617,2.956,3.772c0.028,0.029,0.129,0.137,0.157,0.169c0.47,0.486,1.021,1.008,1.589,1.497l0.293,0.246
	c0.662,0.556,1.25,1.011,1.787,1.385c0.68,0.475,1.245,0.838,1.775,1.143l184.408,106.427c3.794,2.189,8.116,3.348,12.496,3.348
	c4.383,0,8.707-1.16,12.504-3.351l184.373-106.49c0.509-0.293,1.057-0.646,1.734-1.114c0.527-0.366,1.114-0.821,1.784-1.382
	l0.293-0.242c0.568-0.489,1.121-1.011,1.635-1.543l0.083-0.09c2.74-2.863,4.776-6.354,5.905-10.118l0.06-0.217
	c0.137-0.477,0.257-0.929,0.362-1.386l0.096-0.447c0.08-0.387,0.154-0.787,0.218-1.191c0-0.002,0.02-0.124,0.02-0.127l0.064-0.407
	c0.052-0.379,0.093-0.784,0.128-1.191l0.051-0.52c0.036-0.534,0.063-1.097,0.061-1.664l-0.035-212.931
	c0-2.136-0.287-4.295-0.854-6.418c-0.291-1.092-0.667-2.186-1.118-3.259c-1.848-4.381-4.876-8.126-8.757-10.826
	c-0.69-0.48-1.254-0.844-1.778-1.145L268.457,21.43c-3.79-2.19-8.112-3.348-12.493-3.348c-4.383,0-8.707,1.159-12.504,3.351
	L59.086,127.924c-0.509,0.294-1.057,0.646-1.725,1.109c-2.364,1.637-4.423,3.674-6.119,6.053c-1.107,1.553-2.04,3.244-2.769,5.025
	c-1.249,3.04-1.882,6.225-1.881,9.467l0.035,212.912c0,0.575,0.025,1.138,0.064,1.699l0.048,0.493c0.035,0.4,0.076,0.803,0.13,1.203
	l0.082,0.523c0.061,0.389,0.134,0.787,0.217,1.183l0.093,0.428c0.106,0.465,0.223,0.911,0.351,1.354l0.069,0.246
	C48.332,371.809,49.291,373.908,50.528,375.856z"/>
<g>
</g>
<g>
</g>
<g>
</g>
<g>
</g>
<g>
</g>
<g>
</g>
<g>
</g>
<g>
</g>
<g>
</g>
<g>
</g>
<g>
</g>
<g>
</g>
<g>
</g>
<g>
</g>
<g>
</g>
</svg>
