<?xml version="1.0" encoding="iso-8859-1"?>
<!-- Generator: Adobe Illustrator 19.0.0, SVG Export Plug-In . SVG Version: 6.00 Build 0)  -->
<svg version="1.1" id="Layer_1" xmlns="http://www.w3.org/2000/svg" xmlns:xlink="http://www.w3.org/1999/xlink" x="0px" y="0px"
	 viewBox="0 0 512.001 512.001" style="enable-background:new 0 0 512.001 512.001;" xml:space="preserve">
<path style="fill:none;stroke:#FFFFFF;stroke-miterlimit:10;" d="M474.444,321.512L474.444,321.512l-0.005-26.206v-0.002
	l-0.001-4.213l-0.004-25.574l-0.008-48.824l-0.004-26.204l-0.007-40.984c-0.001-2.995-0.407-5.931-1.16-8.75
	c-0.405-1.517-0.915-2.997-1.521-4.435c-2.477-5.877-6.574-11.017-11.925-14.74c-0.784-0.545-1.584-1.071-2.421-1.553
	l-22.874-13.202l-21.414-12.358l-17.24-9.949l-65.923-38.046L304.22,31.629l-19.288-11.132l-11.953-6.899
	c-10.533-6.078-23.509-6.076-34.04,0.007l-11.872,6.857l-19.288,11.14l-25.717,14.854v-0.001l-50.39,29.105l-15.527,8.967
	l-28.889,16.686l-21.408,12.365l-11.284,6.517c-0.811,0.468-1.59,0.979-2.353,1.506c-3.273,2.268-6.073,5.068-8.333,8.235
	c-1.517,2.129-2.781,4.424-3.773,6.843c-1.654,4.031-2.557,8.399-2.557,12.899v1.503l0,0l0.006,39.407v1.932h-0.001l0.004,24.273
	l0.005,31.087l0,0l0.007,41.338l0,0v1.313l0.001,4.011v0.849v0.002v0.013v0.005l0.004,26.2v0.001v1.863l0.001,12.617l0.001,8.488
	l0,0l0.004,18.009v0.006l0,0c0,0.773,0.031,1.539,0.084,2.304c0.016,0.225,0.042,0.445,0.061,0.669
	c0.048,0.548,0.105,1.096,0.18,1.638c0.033,0.236,0.071,0.471,0.108,0.706c0.087,0.545,0.184,1.086,0.298,1.626
	c0.042,0.201,0.084,0.403,0.13,0.603c0.14,0.615,0.298,1.222,0.471,1.826c0.033,0.112,0.061,0.227,0.095,0.339
	c0.909,3.042,2.24,5.93,3.94,8.588c0,0.001,0.001,0.002,0.001,0.002l0.001,0.002c1.172,1.832,2.517,3.551,4.025,5.137
	c0.051,0.052,0.099,0.106,0.148,0.158c0.061,0.065,0.131,0.121,0.193,0.183l0,0c0.653,0.667,1.328,1.315,2.039,1.931
	c0.125,0.108,0.254,0.213,0.382,0.321c0.786,0.661,1.595,1.298,2.445,1.89c0.784,0.545,1.584,1.07,2.421,1.553l22.552,13.015
	l21.414,12.36l11.528,6.653l0,0l6.032,3.482l91.644,52.89l19.288,11.132l11.953,6.899c10.533,6.078,23.509,6.076,34.04-0.007
	l11.872-6.857l19.288-11.14l25.719-14.853l55.553-32.086l10.363-5.985l26.36-15.225l21.408-12.365l13.813-7.978
	c0.813-0.468,1.59-0.979,2.353-1.506c0.851-0.588,1.659-1.226,2.445-1.884c0.129-0.107,0.259-0.212,0.386-0.323
	c0.779-0.671,1.526-1.374,2.236-2.108c0.047-0.047,0.09-0.096,0.136-0.146c3.725-3.891,6.475-8.609,8.019-13.765
	c0.033-0.107,0.06-0.216,0.092-0.323c0.176-0.611,0.336-1.228,0.479-1.85c0.046-0.2,0.088-0.401,0.13-0.603
	c0.113-0.54,0.213-1.085,0.3-1.634c0.037-0.236,0.076-0.473,0.11-0.711c0.076-0.544,0.131-1.092,0.18-1.643
	c0.021-0.225,0.047-0.447,0.063-0.674c0.052-0.767,0.084-1.537,0.084-2.313l0,0v-0.006L474.444,321.512z"/>
<path style="fill:#259245;" d="M474.444,321.51l-0.005-26.203v-0.002l-0.001-4.213l-0.004-25.574l-0.001-9.518H104.218H67.824
	H37.567l0.005,33.119l0,0v1.313l0.001,4.011v0.849v0.002v0.013v0.005l0.004,26.198v0.002v1.863l0.001,12.617l0.001,8.488l0,0
	l0.004,18.008v0.007c0,0.773,0.031,1.539,0.084,2.304c0.016,0.225,0.042,0.446,0.061,0.669c0.048,0.55,0.105,1.096,0.18,1.638
	c0.033,0.236,0.071,0.471,0.108,0.706c0.087,0.545,0.184,1.086,0.298,1.626c0.042,0.201,0.084,0.403,0.13,0.603
	c0.14,0.615,0.298,1.222,0.471,1.825c0.033,0.113,0.061,0.228,0.095,0.34c0.909,3.043,2.24,5.93,3.94,8.588
	c0,0.001,0.001,0.002,0.001,0.002l0.001,0.002c1.172,1.832,2.517,3.551,4.025,5.137c0.051,0.053,0.099,0.106,0.148,0.159
	c0.061,0.064,0.131,0.119,0.193,0.181l0,0c0.653,0.668,1.328,1.316,2.039,1.931c0.125,0.11,0.254,0.215,0.382,0.322
	c0.786,0.661,1.595,1.298,2.445,1.89c0.784,0.545,1.584,1.07,2.421,1.553l22.552,13.016l21.414,12.359l11.528,6.653l0,0l6.032,3.482
	l91.644,52.89l19.288,11.132l11.953,6.899c10.533,6.078,23.509,6.076,34.04-0.007l11.872-6.857l19.288-11.14l25.719-14.853
	l55.553-32.086l10.363-5.985l26.36-15.224l21.408-12.365l13.813-7.977c0.813-0.469,1.59-0.98,2.353-1.507
	c0.851-0.588,1.659-1.226,2.445-1.884c0.129-0.107,0.259-0.212,0.386-0.323c0.779-0.671,1.526-1.374,2.236-2.108
	c0.047-0.048,0.09-0.098,0.136-0.145c3.725-3.893,6.475-8.61,8.019-13.767c0.033-0.106,0.06-0.215,0.092-0.322
	c0.176-0.611,0.336-1.228,0.479-1.849c0.046-0.201,0.088-0.403,0.13-0.604c0.113-0.54,0.213-1.085,0.3-1.632
	c0.037-0.237,0.076-0.474,0.11-0.712c0.076-0.545,0.131-1.093,0.18-1.643c0.021-0.225,0.047-0.448,0.063-0.674
	c0.052-0.767,0.084-1.537,0.084-2.313v-0.006l0-40.905V321.51z"/>
<path style="fill:#ED1F34;" d="M323.708,234.427h-36.66V213.5l96.36-44.267H265.695c-17.691,0-32.033,14.342-32.033,32.034v33.159
	h-27.665l-10.676-70.939h-36.837v136.131h197.258V266.46C355.742,248.767,341.4,234.427,323.708,234.427z"/>
<path d="M483.456,149.501c-0.001-3.713-0.494-7.44-1.466-11.079c-0.508-1.9-1.155-3.789-1.925-5.613
	c-3.18-7.542-8.398-13.99-15.094-18.652c-1.111-0.773-2.084-1.395-3.062-1.96L277.498,5.767C270.96,1.994,263.514,0,255.965,0
	c-7.555,0-15.006,1.998-21.549,5.777L50.042,112.265c-0.935,0.54-1.879,1.143-2.98,1.904c-4.088,2.833-7.636,6.339-10.543,10.419
	c-1.913,2.682-3.52,5.596-4.776,8.658c-2.147,5.232-3.234,10.727-3.234,16.336l0.036,212.914c0,0.921,0.034,1.876,0.105,2.915
	c0.017,0.242,0.039,0.481,0.063,0.721l0.013,0.128c0.061,0.698,0.134,1.391,0.228,2.073c0.036,0.27,0.078,0.536,0.137,0.898
	c0.11,0.688,0.234,1.373,0.38,2.075c0.053,0.254,0.107,0.508,0.163,0.745c0.177,0.78,0.377,1.553,0.6,2.324
	c0.043,0.159,0.088,0.319,0.119,0.418c1.126,3.773,2.77,7.38,4.891,10.724c0.051,0.083,0.102,0.166,0.157,0.247
	c1.47,2.286,3.163,4.441,5.003,6.374l0.157,0.168c0.029,0.03,0.058,0.061,0.087,0.092c0.119,0.123,0.241,0.241,0.368,0.359
	c0.843,0.852,1.638,1.602,2.406,2.265c0.136,0.121,0.276,0.236,0.415,0.352l0.096,0.08c1.093,0.919,2.105,1.699,3.096,2.388
	c1.096,0.763,2.096,1.403,3.064,1.963l184.411,106.429c6.538,3.772,13.984,5.766,21.533,5.767c0,0,0,0,0.001,0
	c7.554,0,15.005-1.998,21.546-5.777l184.37-106.486c0.933-0.538,1.879-1.142,2.979-1.901c0.99-0.685,1.976-1.442,3.184-2.452
	c0.148-0.122,0.295-0.245,0.404-0.339c0.986-0.85,1.94-1.748,2.805-2.642l0.2-0.211c4.697-4.906,8.207-10.932,10.148-17.415
	l0.118-0.413c0.224-0.774,0.427-1.554,0.609-2.351c0.057-0.251,0.111-0.501,0.165-0.762c0.143-0.682,0.27-1.372,0.381-2.072
	l0.02-0.129c0.04-0.253,0.08-0.505,0.116-0.757c0.095-0.693,0.169-1.391,0.229-2.082l0.014-0.146
	c0.025-0.239,0.047-0.477,0.063-0.719c0.072-1.049,0.106-2.005,0.106-2.931L483.456,149.501z M465.347,364.098l-0.051,0.52
	c-0.034,0.4-0.075,0.799-0.129,1.198l-0.082,0.528c-0.064,0.403-0.136,0.804-0.218,1.192l-0.096,0.445
	c-0.105,0.457-0.223,0.91-0.334,1.298l-0.083,0.299c-1.128,3.764-3.164,7.26-5.83,10.044l-0.163,0.172
	c-0.515,0.532-1.067,1.052-1.668,1.571l-0.254,0.211c-0.693,0.58-1.263,1.021-1.79,1.385c-0.682,0.473-1.232,0.826-1.734,1.114
	l-184.373,106.49c-3.796,2.192-8.119,3.351-12.502,3.351c0,0,0,0-0.001,0c-4.381,0-8.703-1.157-12.495-3.347L59.13,384.141
	c-0.529-0.305-1.095-0.669-1.775-1.143c-0.538-0.375-1.126-0.829-1.787-1.385l-0.292-0.243c-0.461-0.399-0.95-0.863-1.53-1.455
	c-0.07-0.071-0.141-0.14-0.215-0.21c-0.001-0.001-0.001-0.002-0.002-0.004c-1.084-1.138-2.065-2.386-2.916-3.709
	c-0.014-0.024-0.029-0.046-0.043-0.07c-1.259-1.966-2.231-4.087-2.888-6.292l-0.075-0.266c-0.127-0.44-0.242-0.882-0.348-1.347
	l-0.092-0.426c-0.082-0.397-0.156-0.796-0.221-1.209c0-0.004-0.019-0.121-0.02-0.124l-0.06-0.387
	c-0.054-0.395-0.094-0.794-0.131-1.214l-0.046-0.47c-0.039-0.561-0.064-1.125-0.064-1.701l-0.017-97.445h21.215
	c4.993,0,9.041-4.047,9.041-9.041s-4.048-9.041-9.041-9.041H46.607l-0.017-97.382c0-3.24,0.632-6.424,1.881-9.467
	c0.729-1.781,1.661-3.471,2.77-5.025c1.694-2.377,3.753-4.413,6.111-6.048c0.681-0.471,1.232-0.826,1.732-1.114l184.377-106.49
	c3.796-2.192,8.119-3.351,12.504-3.351c4.381,0,8.701,1.157,12.494,3.347l184.41,106.428c0.528,0.305,1.093,0.67,1.777,1.144
	c3.882,2.7,6.909,6.446,8.759,10.832c0.447,1.061,0.823,2.155,1.116,3.252c0.565,2.119,0.852,4.28,0.854,6.418l0.017,97.453H359.851
	c-6.955-12.835-20.546-21.574-36.14-21.574h-27.618v-6.089l91.093-41.847c3.861-1.775,5.966-5.997,5.058-10.148
	c-0.908-4.151-4.585-7.109-8.833-7.109H265.696c-22.649,0-41.076,18.426-41.076,41.074v24.119h-10.842l-9.518-63.243
	c-0.665-4.424-4.468-7.696-8.941-7.696h-36.837h-29.893c-4.993,0-9.041,4.047-9.041,9.041s4.048,9.041,9.041,9.041h20.852v13.945
	h-20.852c-4.993,0-9.041,4.047-9.041,9.041s4.048,9.041,9.041,9.041h20.852v42.401h-45.223c-4.993,0-9.041,4.047-9.041,9.041
	c0,4.994,4.048,9.041,9.041,9.041h45.225v34.578v39.852h-16.687c-4.993,0-9.041,4.047-9.041,9.041s4.048,9.041,9.041,9.041h36.406
	c4.993,0,9.041-4.047,9.041-9.041s-4.048-9.041-9.041-9.041h-1.635v-30.811h110.616v30.811h-16.687
	c-4.993,0-9.041,4.047-9.041,9.041s4.048,9.041,9.041,9.041h36.404c4.994,0,9.041-4.047,9.041-9.041s-4.047-9.041-9.041-9.041
	h-1.635v-30.811h50.476v30.811h-16.687c-4.994,0-9.041,4.047-9.041,9.041s4.047,9.041,9.041,9.041h36.404
	c4.994,0,9.041-4.047,9.041-9.041s-4.047-9.041-9.041-9.041h-1.635v-39.852v-33.159c0-0.476-0.021-0.946-0.035-1.419h100.644
	l0.017,97.381C465.408,362.993,465.383,363.561,465.347,364.098z M282.124,265.041c1.418,0.923,3.107,1.465,4.925,1.465
	s3.507-0.541,4.925-1.465c2.476-1.613,4.117-4.4,4.117-7.577v-10.506v-3.491h27.618c4.451,0,8.597,1.292,12.12,3.491
	c6.136,3.828,10.33,10.451,10.8,18.083c0.028,0.473,0.072,0.939,0.072,1.419v24.118H167.524v-25.537v-18.083v-74.429h20.014
	l9.518,63.243c0.665,4.424,4.468,7.696,8.941,7.696h27.665c4.993,0,9.041-4.047,9.041-9.041v-33.16
	c0-12.678,10.314-22.992,22.993-22.992h76.372l-58.794,27.008c-3.21,1.476-5.267,4.683-5.267,8.216v20.927v12.533v10.506
	C278.007,260.641,279.649,263.429,282.124,265.041z"/>
<g>
</g>
<g>
</g>
<g>
</g>
<g>
</g>
<g>
</g>
<g>
</g>
<g>
</g>
<g>
</g>
<g>
</g>
<g>
</g>
<g>
</g>
<g>
</g>
<g>
</g>
<g>
</g>
<g>
</g>
</svg>
