<?xml version="1.0" encoding="iso-8859-1"?>
<!-- Generator: Adobe Illustrator 19.0.0, SVG Export Plug-In . SVG Version: 6.00 Build 0)  -->
<svg version="1.1" id="Layer_1" xmlns="http://www.w3.org/2000/svg" xmlns:xlink="http://www.w3.org/1999/xlink" x="0px" y="0px"
	 viewBox="0 0 512 512" style="enable-background:new 0 0 512 512;" xml:space="preserve">
<path style="fill:#FFE000;" d="M473.105,371.85c0.176-0.61,0.336-1.227,0.479-1.848c0.046-0.201,0.088-0.403,0.13-0.604
	c0.115-0.54,0.213-1.085,0.301-1.632c0.037-0.237,0.076-0.474,0.108-0.711c0.076-0.546,0.131-1.095,0.181-1.644
	c0.019-0.225,0.046-0.448,0.061-0.674c0.053-0.767,0.084-1.537,0.084-2.313l0,0l0,0v-0.006l-0.007-40.904v-0.002l-0.005-26.203
	v-0.002v-4.213l-0.005-25.574l0,0l-0.008-48.824l-0.004-26.203l-0.007-40.985c0-2.995-0.407-5.931-1.16-8.75
	c-0.405-1.517-0.915-2.997-1.521-4.435c-2.477-5.876-6.574-11.016-11.925-14.74c-0.784-0.545-1.584-1.071-2.421-1.553
	l-22.872-13.202L413.1,94.468l-17.24-9.949l-65.92-38.046l-25.719-14.844l-19.288-11.132l-11.952-6.899
	c-10.534-6.078-23.51-6.076-34.04,0.007l-11.873,6.857l-19.288,11.14l-25.717,14.853l0,0l-65.915,38.072l-28.889,16.686
	L65.85,113.578l-11.284,6.516c-0.811,0.469-1.589,0.98-2.352,1.507c-3.273,2.268-6.073,5.067-8.333,8.236
	c-1.517,2.127-2.781,4.422-3.773,6.841c-1.655,4.032-2.558,8.399-2.557,12.899l0.007,40.913l0.004,26.203l0.013,73.738l0.001,4.011
	v0.85v0.001v0.013l0,0v0.005l0,0l0.004,26.198v0.002l0.001,1.863l0.001,12.617l0.005,26.496v0.007l0,0
	c0,0.773,0.031,1.539,0.083,2.305c0.017,0.224,0.042,0.445,0.063,0.668c0.048,0.55,0.105,1.096,0.18,1.638
	c0.031,0.236,0.071,0.471,0.108,0.708c0.087,0.544,0.186,1.086,0.298,1.625c0.042,0.201,0.084,0.403,0.13,0.603
	c0.14,0.615,0.298,1.222,0.471,1.825c0.033,0.113,0.063,0.228,0.096,0.34c0.909,3.043,2.239,5.93,3.94,8.588
	c0,0.001,0.001,0.002,0.001,0.002l0.001,0.002c1.172,1.832,2.517,3.551,4.026,5.137c0.049,0.053,0.098,0.106,0.148,0.159
	c0.71,0.734,1.454,1.438,2.233,2.112c0.125,0.11,0.254,0.215,0.381,0.322c0.786,0.661,1.595,1.298,2.445,1.89
	c0.782,0.545,1.584,1.07,2.419,1.553l22.552,13.016l21.415,12.359l17.56,10.134l91.644,52.89l19.288,11.132l11.953,6.899
	c10.533,6.078,23.51,6.076,34.04-0.007l11.872-6.857l19.288-11.14l25.719-14.853l55.553-32.086l10.364-5.985l26.36-15.225
	l21.408-12.365l13.812-7.977c0.813-0.469,1.591-0.98,2.353-1.507c0.851-0.588,1.659-1.226,2.446-1.884
	c0.128-0.106,0.258-0.212,0.385-0.323c0.779-0.671,1.526-1.374,2.236-2.108c0.047-0.048,0.092-0.098,0.137-0.145
	c3.724-3.893,6.475-8.61,8.019-13.767C473.046,372.067,473.075,371.958,473.105,371.85z"/>
<path style="fill:#4572D8;" d="M37.582,335.992l0.005,26.496v0.007l0,0c0,0.773,0.031,1.539,0.083,2.305
	c0.017,0.224,0.042,0.445,0.063,0.668c0.048,0.55,0.105,1.096,0.18,1.639c0.031,0.235,0.071,0.47,0.108,0.706
	c0.087,0.544,0.186,1.086,0.298,1.625c0.042,0.201,0.084,0.403,0.13,0.603c0.14,0.615,0.298,1.222,0.471,1.825
	c0.033,0.113,0.063,0.228,0.096,0.34c0.909,3.043,2.239,5.93,3.94,8.588c0,0.002,0,0.002,0.001,0.004l0.001,0.001
	c1.172,1.832,2.517,3.551,4.026,5.136c0.049,0.054,0.098,0.107,0.148,0.16c0.709,0.734,1.454,1.438,2.231,2.112
	c0.125,0.11,0.256,0.215,0.382,0.322c0.786,0.661,1.594,1.298,2.445,1.89c0.784,0.545,1.584,1.071,2.419,1.553l22.552,13.016
	l21.415,12.359l17.56,10.134l91.644,52.89l19.288,11.132l11.953,6.899c10.533,6.078,23.51,6.076,34.04-0.007l11.872-6.857
	l19.288-11.14l25.719-14.853l55.553-32.086l10.364-5.985l26.36-15.225l21.408-12.365l13.812-7.977
	c0.813-0.469,1.591-0.98,2.353-1.507c0.851-0.588,1.659-1.226,2.446-1.884c0.128-0.106,0.258-0.212,0.385-0.323
	c0.779-0.671,1.526-1.374,2.236-2.108c0.047-0.048,0.09-0.098,0.137-0.145c3.724-3.893,6.475-8.61,8.019-13.767
	c0.031-0.106,0.06-0.215,0.09-0.323c0.176-0.61,0.336-1.227,0.479-1.848c0.046-0.201,0.088-0.403,0.13-0.603
	c0.113-0.541,0.213-1.085,0.3-1.635c0.039-0.236,0.076-0.473,0.111-0.71c0.075-0.546,0.13-1.095,0.18-1.644
	c0.021-0.225,0.046-0.447,0.061-0.674c0.053-0.767,0.084-1.537,0.084-2.313l0,0v-0.006l-0.007-37.836H37.581L37.582,335.992z"/>
<path style="fill:#259245;" d="M114.675,187.42h359.748l-0.006-37.915c0-2.995-0.408-5.931-1.16-8.75
	c-0.405-1.517-0.915-2.997-1.521-4.435c-2.477-5.876-6.574-11.016-11.925-14.74c-0.784-0.545-1.584-1.071-2.421-1.553
	l-22.872-13.202l-21.415-12.358l-17.24-9.949L329.94,46.473l-25.719-14.844l-19.288-11.132l-11.952-6.899
	c-10.534-6.078-23.51-6.076-34.04,0.007l-11.873,6.857l-19.288,11.14l-25.717,14.853l0,0l-65.915,38.072l-28.889,16.686
	L65.85,113.578l-11.284,6.516c-0.811,0.469-1.589,0.98-2.352,1.507c-3.273,2.268-6.073,5.067-8.333,8.236
	c-1.517,2.127-2.781,4.422-3.773,6.841c-1.655,4.032-2.558,8.399-2.557,12.899l0.006,37.842h35.969H114.675z"/>
<path d="M483.458,149.505c0-3.708-0.494-7.437-1.465-11.076c-0.501-1.885-1.149-3.777-1.926-5.623
	c-3.18-7.542-8.399-13.99-15.091-18.646c-1.114-0.775-2.086-1.398-3.067-1.964L277.5,5.767C270.962,1.995,263.517,0,255.966,0
	c-7.554,0-15.005,1.998-21.546,5.776L50.048,112.263c-0.943,0.544-1.89,1.149-2.984,1.907c-4.086,2.831-7.633,6.335-10.546,10.419
	c-1.91,2.68-3.515,5.592-4.776,8.658c-2.146,5.23-3.234,10.724-3.234,16.334l0.037,212.915c0,0.928,0.033,1.882,0.104,2.917
	c0.017,0.241,0.039,0.48,0.064,0.721l0.014,0.127c0.06,0.694,0.131,1.384,0.228,2.094c0.036,0.26,0.077,0.516,0.133,0.866
	c0.112,0.697,0.236,1.389,0.381,2.077c0.053,0.256,0.107,0.51,0.164,0.756c0.177,0.776,0.377,1.544,0.604,2.337
	c0.04,0.149,0.083,0.299,0.115,0.405c1.139,3.809,2.805,7.45,4.953,10.818c0.012,0.019,0.024,0.037,0.035,0.057
	c1.484,2.323,3.199,4.51,5.069,6.474c0.047,0.049,0.168,0.178,0.215,0.228c0.892,0.926,1.841,1.824,2.826,2.675l0.482,0.405
	c1.097,0.923,2.11,1.705,3.096,2.391c1.116,0.775,2.088,1.397,3.063,1.96L234.5,506.233c6.539,3.773,13.986,5.767,21.534,5.767
	c7.556,0,15.005-1.998,21.549-5.776l184.37-106.487c0.943-0.544,1.89-1.149,2.988-1.907c0.989-0.687,2.004-1.466,3.107-2.389
	l0.474-0.398c0.986-0.85,1.938-1.747,2.85-2.688l0.153-0.163c4.695-4.904,8.206-10.929,10.124-17.344
	c0.052-0.168,0.101-0.334,0.141-0.487c0.224-0.774,0.427-1.554,0.608-2.342c0.059-0.254,0.113-0.509,0.168-0.77
	c0.142-0.682,0.269-1.371,0.379-2.067l0.022-0.123c0.04-0.253,0.08-0.508,0.118-0.786c0.094-0.686,0.168-1.378,0.227-2.063
	l0.016-0.143c0.024-0.239,0.046-0.477,0.061-0.72c0.074-1.058,0.106-2.019,0.105-2.931L483.458,149.505z M48.47,140.115
	c0.732-1.783,1.667-3.476,2.774-5.029c1.695-2.378,3.753-4.415,6.114-6.049c0.674-0.467,1.222-0.82,1.73-1.113l184.375-106.49
	c3.795-2.192,8.12-3.351,12.502-3.351s8.703,1.159,12.495,3.347l184.41,106.427c0.528,0.304,1.09,0.668,1.778,1.145
	c3.881,2.699,6.908,6.446,8.754,10.824c0.452,1.074,0.829,2.169,1.119,3.259c0.567,2.124,0.855,4.283,0.855,6.421l0.005,28.871
	H114.675c-4.996,0-9.041,4.047-9.041,9.041s4.046,9.041,9.041,9.041h350.707l0.02,119.078H46.621l-0.022-119.078h26.928
	c4.994,0,9.041-4.047,9.041-9.041s-4.047-9.041-9.041-9.041h-26.93l-0.006-28.801C46.591,146.337,47.225,143.152,48.47,140.115z
	 M465.349,364.098l-0.051,0.521c-0.035,0.406-0.076,0.813-0.128,1.191l-0.083,0.534c-0.064,0.403-0.137,0.804-0.219,1.196
	l-0.094,0.44c-0.106,0.459-0.224,0.911-0.363,1.389l-0.061,0.222c-1.13,3.76-3.164,7.251-5.902,10.113l-0.084,0.092
	c-0.514,0.53-1.068,1.051-1.638,1.544l-0.289,0.24c-0.67,0.561-1.257,1.015-1.787,1.382c-0.674,0.467-1.222,0.82-1.732,1.113
	l-184.372,106.49c-3.797,2.193-8.12,3.351-12.505,3.351c-4.38,0-8.703-1.157-12.495-3.347L59.132,384.143
	c-0.526-0.304-1.09-0.669-1.776-1.144c-0.539-0.376-1.109-0.819-1.816-1.41l-0.262-0.218c-0.573-0.495-1.124-1.019-1.577-1.486
	c-0.031-0.035-0.137-0.148-0.171-0.183c-1.086-1.142-2.075-2.397-2.929-3.73c-0.012-0.017-0.022-0.031-0.03-0.047
	c-1.257-1.966-2.233-4.088-2.887-6.28l-0.074-0.269c-0.129-0.445-0.245-0.891-0.351-1.351l-0.094-0.442
	c-0.082-0.388-0.154-0.78-0.219-1.198l-0.078-0.499c-0.055-0.4-0.095-0.803-0.133-1.222l-0.046-0.474
	c-0.037-0.562-0.061-1.125-0.061-1.699l-0.006-28.866h418.783l0.004,28.814C465.41,363.004,465.386,363.567,465.349,364.098z"/>
<g>
</g>
<g>
</g>
<g>
</g>
<g>
</g>
<g>
</g>
<g>
</g>
<g>
</g>
<g>
</g>
<g>
</g>
<g>
</g>
<g>
</g>
<g>
</g>
<g>
</g>
<g>
</g>
<g>
</g>
</svg>
