<?xml version="1.0" encoding="iso-8859-1"?>
<!-- Generator: Adobe Illustrator 19.0.0, SVG Export Plug-In . SVG Version: 6.00 Build 0)  -->
<svg version="1.1" id="Layer_1" xmlns="http://www.w3.org/2000/svg" xmlns:xlink="http://www.w3.org/1999/xlink" x="0px" y="0px"
	 viewBox="0 0 512.1 512.1" style="enable-background:new 0 0 512.1 512.1;" xml:space="preserve">
<g>
	<path style="fill:#FFFFFF;" d="M473.15,371.9c0.2-0.6,0.3-1.2,0.5-1.8c0-0.2,0.1-0.4,0.1-0.6c0.1-0.5,0.2-1.1,0.3-1.6
		c0-0.2,0.1-0.5,0.1-0.7c0.1-0.5,0.1-1.1,0.2-1.6c0-0.2,0-0.4,0.1-0.7c0.1-0.8,0.1-1.5,0.1-2.3l0,0l0,0l0,0v-40.9l0,0v-26.2l0,0
		v-4.2v-25.6l0,0v-48.8v-26.2v-41c0-3-0.4-5.9-1.2-8.7c-0.4-1.5-0.9-3-1.5-4.4c-2.5-5.9-6.6-11-11.9-14.7c-0.8-0.5-1.6-1.1-2.4-1.6
		l-22.9-13.2l-21.4-12.4l-17.2-9.9l-65.9-38L304.45,32l-19.3-11.1l-12-6.9c-10.5-6.1-23.5-6.1-34,0l-11.9,6.9L207.95,32l-25.7,14.9
		l0,0L116.35,85l-28.9,16.7l-21.4,12.4l-11.3,6.5c-0.8,0.5-1.6,1-2.4,1.5c-3.3,2.3-6.1,5.1-8.3,8.2c-1.5,2.1-2.8,4.4-3.8,6.8
		c-1.7,4-2.6,8.4-2.6,12.9v40.9v26.2v73.7v4v0.8l0,0l0,0l0,0l0,0l0,0v26.2l0,0v1.9v12.6v26.5l0,0l0,0c0,0.8,0,1.5,0.1,2.3
		c0,0.2,0,0.4,0.1,0.7c0,0.5,0.1,1.1,0.2,1.6c0,0.2,0.1,0.5,0.1,0.7c0.1,0.5,0.2,1.1,0.3,1.6c0,0.2,0.1,0.4,0.1,0.6
		c0.1,0.6,0.3,1.2,0.5,1.8c0,0.1,0.1,0.2,0.1,0.3c0.9,3,2.2,5.9,3.9,8.6l0,0l0,0c1.2,1.8,2.5,3.6,4,5.1c0.1,0.1,0.1,0.1,0.1,0.2
		c0.7,0.7,1.5,1.4,2.2,2.1c0.1,0.1,0.3,0.2,0.4,0.3c0.8,0.7,1.6,1.3,2.4,1.9c0.8,0.5,1.6,1.1,2.4,1.6l22.6,13l21.4,12.4l17.6,10.1
		l91.6,52.9l19.3,11.1l12,6.9c10.5,6.1,23.5,6.1,34,0l11.9-6.9l19.3-11.1l25.7-14.9l55.6-32.1l10.4-6l26.4-15.2l21.4-12.4l13.8-8
		c0.8-0.5,1.6-1,2.4-1.5c0.9-0.6,1.7-1.2,2.4-1.9c0.1-0.1,0.3-0.2,0.4-0.3c0.8-0.7,1.5-1.4,2.2-2.1l0.1-0.1c3.7-3.9,6.5-8.6,8-13.8
		C473.05,372.1,473.15,372,473.15,371.9z"/>
	<path style="fill:#FFFFFF;" d="M256.05,9c-2.9,0-5.9,0.4-8.7,1.1l0,0c-0.7,0.2-1.3,0.4-2,0.6c-0.1,0-0.1,0-0.2,0
		c-0.6,0.2-1.2,0.4-1.8,0.7c-0.1,0-0.2,0.1-0.3,0.1c-0.5,0.2-1,0.5-1.6,0.7c-0.2,0.1-0.3,0.1-0.5,0.2c-0.6,0.3-1.1,0.6-1.7,0.9
		c-0.1,0.1-0.2,0.1-0.3,0.2l-11.9,6.9l-19.3,11.1l-25.7,14.9l0,0l-65.9,38.1l-28.9,16.7l-21.4,12.4l-11.3,6.5
		c-0.8,0.5-1.6,1-2.4,1.5c-1.6,1.1-3.2,2.4-4.5,3.8c-1.4,1.4-2.7,2.9-3.8,4.5c-0.9,1.3-1.8,2.7-2.5,4.2c-0.4,0.9-0.9,1.8-1.2,2.7
		c-0.3,0.6-0.5,1.2-0.7,1.9c0,0.1,0,0.1-0.1,0.2c-0.2,0.6-0.4,1.2-0.6,1.8l0,0l0,0c-0.4,1.4-0.7,2.9-0.9,4.4c0,0.1,0,0.1,0,0.2
		c-0.1,0.6-0.1,1.2-0.2,1.9c0,0.2,0,0.3,0,0.5c0,0.7-0.1,1.4-0.1,2.1v7.8v98.6h21.5h34.7h15v-66.9l89,66.9h58.3v-28.6v-15.2
		l-72.8-54.8h72.8v-16.9v-39.2v-17h-72.8l72.8-54.8V9z"/>
</g>
<g>
	<polygon style="fill:#ED1F34;" points="124.95,157.4 256.05,256 256.05,227.4 163.15,157.4 	"/>
	<path style="fill:#ED1F34;" d="M59.15,140.5V256h34.7V140.5h162.2v-39.2H93.85v-3.9l-6.5,3.8l-21.4,12.4l-11.3,6.5
		c-0.8,0.5-1.6,1-2.4,1.5c-1.6,1.1-3.2,2.4-4.5,3.8c-1.4,1.4-2.7,2.9-3.8,4.5c-0.9,1.3-1.8,2.7-2.5,4.2c-0.4,0.9-0.9,1.8-1.2,2.7
		c-0.3,0.6-0.5,1.2-0.7,1.9c0,0.1,0,0.1-0.1,0.2c-0.2,0.6-0.4,1.2-0.6,1.8l0,0h20.3V140.5z"/>
</g>
<path style="fill:#103B9B;" d="M474.45,321.5L474.45,321.5v-26.2l0,0v-4.2v-25.6v-48.8v-26.2v-41c0-3-0.4-5.9-1.2-8.7
	c-0.4-1.5-0.9-3-1.5-4.4c-2.5-5.9-6.6-11-11.9-14.7c-0.8-0.5-1.6-1.1-2.4-1.6l-22.9-13.2l-21.4-12.4l-17.2-9.9l-65.9-38l-25.7-14.8
	l-19.3-11.1l-12-6.9c-7.9-4.6-17.2-5.7-25.7-3.4l0,0c2.9-0.8,5.8-1.1,8.7-1.1V30l-72.8,54.8h72.8v16.9v39.2v16.9h-72.8l72.8,54.8
	v15.2V256h-58.3l-89-66.9V256h-15h-34.6h-21.5v34.4v4v0.8l0,0l0,0l0,0l0,0l0,0v26.2l0,0v1.9v12.6v26.5l0,0l0,0c0,0.8,0,1.5,0.1,2.3
	c0,0.2,0,0.4,0.1,0.7c0,0.5,0.1,1.1,0.2,1.6c0,0.2,0.1,0.5,0.1,0.7c0.1,0.5,0.2,1.1,0.3,1.6c0,0.2,0.1,0.4,0.1,0.6
	c0.1,0.6,0.3,1.2,0.5,1.8c0,0.1,0.1,0.2,0.1,0.3c0.9,3,2.2,5.9,3.9,8.6l0,0l0,0c1.2,1.8,2.5,3.6,4,5.1c0.1,0.1,0.1,0.1,0.1,0.2
	c0.7,0.7,1.5,1.4,2.2,2.1c0.1,0.1,0.3,0.2,0.4,0.3c0.8,0.7,1.6,1.3,2.4,1.9c0.8,0.5,1.6,1.1,2.4,1.6l22.6,13l21.4,12.4l17.6,10.1
	l91.6,52.9l19.3,11.1l12,6.9c10.5,6.1,23.5,6.1,34,0l11.9-6.9l19.3-11.1l25.7-14.9l55.6-32.1l10.4-6l26.4-15.2l21.4-12.4l13.8-8
	c0.8-0.5,1.6-1,2.4-1.5c0.9-0.6,1.7-1.2,2.4-1.9c0.1-0.1,0.3-0.2,0.4-0.3c0.8-0.7,1.5-1.4,2.2-2.1l0.1-0.1c3.7-3.9,6.5-8.6,8-13.8
	c0-0.1,0.1-0.2,0.1-0.3c0.2-0.6,0.3-1.2,0.5-1.8c0-0.2,0.1-0.4,0.1-0.6c0.1-0.5,0.2-1.1,0.3-1.6c0-0.2,0.1-0.5,0.1-0.7
	c0.1-0.5,0.1-1.1,0.2-1.6c0-0.2,0-0.4,0.1-0.7c0.1-0.8,0.1-1.5,0.1-2.3l0,0l0,0L474.45,321.5z"/>
<path style="fill:#3DB4EA;" d="M302.45,200.2V291c0,65.2,60.3,80.1,60.3,80.1s60.3-14.9,60.3-80.1v-90.8H302.45L302.45,200.2z"/>
<path style="fill:#BF2300;" d="M362.75,371.1c0,0,60.3-14.9,60.3-80.1h-120.6C302.45,356.2,362.75,371.1,362.75,371.1z"/>
<path d="M349.45,330.3c-4.1,0-7.5-3.4-7.5-7.5v-86.5c0-4.1,3.4-7.5,7.5-7.5s7.5,3.4,7.5,7.5v86.5
	C356.95,327,353.65,330.3,349.45,330.3z"/>
<path style="fill:#134923;" d="M375.95,330.3c-4.1,0-7.5-3.4-7.5-7.5v-86.5c0-4.1,3.4-7.5,7.5-7.5s7.5,3.4,7.5,7.5v86.5
	C383.45,327,380.15,330.3,375.95,330.3z"/>
<path d="M362.75,380.1c-0.7,0-1.5-0.1-2.2-0.3c-0.7-0.2-17.2-4.3-33.6-17.3c-15.3-12.1-33.6-34.3-33.6-71.6v-90.8c0-5,4-9,9-9h120.7
	c5,0,9,4,9,9V291c0,37.3-18.3,59.5-33.6,71.6c-16.4,12.9-32.9,17.1-33.6,17.3C364.15,380,363.45,380.1,362.75,380.1z M311.55,209.2
	V291c0,51.1,41,67.4,51.2,70.7c10.2-3.3,51.2-19.6,51.2-70.7v-81.8H311.55L311.55,209.2z M483.55,149.5c0-3.7-0.5-7.4-1.5-11.1
	c-0.5-1.9-1.2-3.8-1.9-5.6c-3.2-7.5-8.4-14-15.1-18.6c-1.1-0.8-2.1-1.4-3.1-2L277.55,5.8c-6.5-3.8-14-5.8-21.5-5.8
	c-7.6,0-15,2-21.5,5.8L50.05,112.3c-0.9,0.5-1.9,1.1-3,1.9c-4.1,2.8-7.6,6.3-10.5,10.4c-1.9,2.7-3.5,5.6-4.8,8.7
	c-2.1,5.2-3.2,10.7-3.2,16.3v212.9c0,0.9,0,1.9,0.1,2.9c0,0.2,0,0.5,0.1,0.7v0.1c0.1,0.7,0.1,1.4,0.2,2.1c0,0.3,0.1,0.5,0.1,0.9
	c0.1,0.7,0.2,1.4,0.4,2.1c0.1,0.3,0.1,0.5,0.2,0.8c0.2,0.8,0.4,1.5,0.6,2.3c0,0.1,0.1,0.3,0.1,0.4c1.1,3.8,2.8,7.5,5,10.8
	c0,0,0,0,0,0.1c1.5,2.3,3.2,4.5,5.1,6.5c0,0.1,0.2,0.2,0.2,0.2c0.9,0.9,1.8,1.8,2.8,2.7l0.5,0.4c1.1,0.9,2.1,1.7,3.1,2.4
	c1.1,0.8,2.1,1.4,3.1,2l184.4,106.4c6.5,3.8,14,5.8,21.5,5.8c7.6,0,15-2,21.5-5.8l184.5-106.6c0.9-0.5,1.9-1.1,3-1.9
	c1-0.7,2-1.5,3.1-2.4l0.5-0.4c1-0.8,1.9-1.7,2.8-2.7l0.2-0.2c4.7-4.9,8.2-10.9,10.1-17.3c0.1-0.2,0.1-0.3,0.1-0.5
	c0.2-0.8,0.4-1.6,0.6-2.3c0.1-0.3,0.1-0.5,0.2-0.8c0.1-0.7,0.3-1.4,0.4-2.1V369c0-0.3,0.1-0.5,0.1-0.8c0.1-0.7,0.2-1.4,0.2-2.1V366
	c0-0.2,0-0.5,0.1-0.7c0.1-1.1,0.1-2,0.1-2.9L483.55,149.5z M465.35,364.1l-0.1,0.5c0,0.4-0.1,0.8-0.1,1.2l-0.1,0.5
	c-0.1,0.4-0.1,0.8-0.2,1.2l-0.1,0.4c-0.1,0.5-0.2,0.9-0.4,1.4l-0.1,0.2c-1.1,3.8-3.2,7.3-5.9,10.1l-0.1,0.1
	c-0.5,0.5-1.1,1.1-1.6,1.5l-0.3,0.2c-0.7,0.6-1.3,1-1.8,1.4c-0.7,0.5-1.2,0.8-1.7,1.1l-184.3,106.7c-3.8,2.2-8.1,3.4-12.5,3.4
	s-8.7-1.2-12.5-3.3L59.15,384.1c-0.5-0.3-1.1-0.7-1.8-1.1c-0.5-0.4-1.1-0.8-1.8-1.4l-0.3-0.2c-0.6-0.5-1.1-1-1.6-1.5
	c0,0-0.1-0.1-0.2-0.2c-1.1-1.1-2.1-2.4-2.9-3.7l0,0c-1.3-2-2.2-4.1-2.9-6.3l-0.1-0.3c-0.1-0.4-0.2-0.9-0.3-1.4l-0.1-0.4
	c-0.1-0.4-0.2-0.8-0.2-1.2l-0.1-0.5c-0.1-0.4-0.1-0.8-0.1-1.2v-0.5c0-0.6-0.1-1.1-0.1-1.7V149.6c0-3.2,0.6-6.4,1.9-9.5
	c0.7-1.8,1.7-3.5,2.8-5c1.7-2.4,3.8-4.4,6.1-6.1c0.7-0.5,1.2-0.8,1.7-1.1l184.4-106.5c3.8-2.2,8.1-3.4,12.5-3.4s8.7,1.2,12.5,3.3
	l184.4,106.4c0.5,0.3,1.1,0.7,1.8,1.1c3.9,2.7,6.9,6.4,8.8,10.8c0.5,1.1,0.8,2.2,1.1,3.3c0.6,2.1,0.9,4.3,0.9,6.4v212.9
	C465.45,363,465.45,363.6,465.35,364.1z"/>
<g>
</g>
<g>
</g>
<g>
</g>
<g>
</g>
<g>
</g>
<g>
</g>
<g>
</g>
<g>
</g>
<g>
</g>
<g>
</g>
<g>
</g>
<g>
</g>
<g>
</g>
<g>
</g>
<g>
</g>
</svg>
